<svg xmlns="http://www.w3.org/2000/svg" width="27.32" height="21.428" viewBox="0 0 27.32 21.428">
  <g id="Group_336" data-name="Group 336" transform="translate(-209 -33.5)">
    <g id="Group_307" data-name="Group 307" transform="translate(27 24.5)">
      <g id="Group_306" data-name="Group 306" transform="translate(182 9)">
        <path id="Path_323" data-name="Path 323" d="M387.616,270.823V281.55h4.768c0-1.695.056-3.339-.018-4.978-.055-1.236.31-1.83,1.656-1.743a36.441,36.441,0,0,0,4.245,0c1.233-.065,1.627.455,1.578,1.631-.068,1.646-.017,3.3-.017,5.071h4.7V270.891l.55-.225c.311.579.874,1.15.891,1.737.09,3.075.023,6.154.05,9.232.009,1.04-.448,1.42-1.456,1.391-1.538-.044-3.079-.058-4.616,0-1.147.046-1.524-.466-1.5-1.54.041-1.651.011-3.3.011-5.087h-4.714c0,1.692-.037,3.335.013,4.974.034,1.139-.315,1.722-1.573,1.656-1.473-.077-2.955-.059-4.43,0-1.076.04-1.588-.323-1.573-1.467.037-3.015-.037-6.034.051-9.047a5.64,5.64,0,0,1,.828-1.878Z" transform="translate(-382.173 -261.611)" fill="#ececec"/>
        <path id="Path_324" data-name="Path 324" d="M375.336,257.029a13.256,13.256,0,0,1,1.124-1.218c3.952-3.143,7.894-6.3,11.907-9.361a1.976,1.976,0,0,1,1.854.033c3.963,3.027,7.866,6.133,11.745,9.267.371.3.467.939.691,1.42a4.471,4.471,0,0,1-1.581-.432c-3.461-2.67-6.931-5.334-10.278-8.144-1.213-1.019-1.961-.893-3.1.051-3.368,2.786-6.831,5.456-10.279,8.145a3.344,3.344,0,0,1-1.291.523C375.924,257.36,375.665,257.157,375.336,257.029Z" transform="translate(-375.336 -246.234)" fill="#ececec"/>
      </g>
    </g>
  </g>
</svg>
