<svg id="ic-link5" xmlns="http://www.w3.org/2000/svg" width="42.196" height="42.21" viewBox="0 0 42.196 42.21">
  <path id="Path_210" data-name="Path 210" d="M167.738,695.33c3.565-2.64,4.425-3,9.572-3.946v-4.3l-1.127-.147c-.19-.778.015-1.205.918-1.16a15.032,15.032,0,0,0,1.73,0c.831-.054,1.128.3.931,1.154l-1.129.132v4.387a15.763,15.763,0,0,1,10.454,4.8l3.221-3.33-.6-.725c.4-.784.861-.86,1.458-.187a13.962,13.962,0,0,0,1.222,1.224c.625.548.574,1.006-.159,1.47l-.81-.677-3.248,3.375c2.6,4.419,2.82,5.05,3.253,9.293h4.39l.088-1.049c1.052-.174,1.162-.1,1.185.866.014.577-.015,1.154.007,1.73.031.822-.34,1.111-1.18.9l-.1-1.11H193.53a41.3,41.3,0,0,1-1.413,4.8,39.082,39.082,0,0,1-2.382,4.217l3.135,3.149.651-.565c.778.4.866.875.221,1.481-.42.395-.83.8-1.223,1.224-.606.652-1.086.534-1.508-.2l.675-.761-3.233-3.212a15.287,15.287,0,0,1-9.8,4.11v4.417l1.106.153c.247.794.01,1.189-.887,1.145a15.432,15.432,0,0,0-1.729,0c-.793.05-1.168-.24-.977-1.133l1.124-.145v-4.424a15.326,15.326,0,0,1-9.954-4.3l-2.989,3.175.535.673c-.4.7-.833.872-1.446.188a14.834,14.834,0,0,0-1.223-1.223c-.627-.554-.558-1.021.147-1.481l.769.632,3.1-3.119a15.846,15.846,0,0,1-3.6-8.6H158.17l-.117,1.1c-.8.234-1.2.026-1.154-.838a18.157,18.157,0,0,0,0-1.831c-.045-.862.337-1.089,1.153-.83l.111,1.068h4.406a15.448,15.448,0,0,1,4.152-10.47l-3.268-3.136-.69.617c-.642-.435-.821-.871-.19-1.452.449-.413.884-.845,1.293-1.3.592-.657,1.021-.458,1.428.209l-.72.821Zm24.276,11.493a14.045,14.045,0,1,0-13.973,14.114A14.043,14.043,0,0,0,192.014,706.823Z" transform="translate(-156.895 -685.771)" fill="#c81765"/>
  <path id="Path_211" data-name="Path 211" d="M182.83,706.752c-.418-.595-.879-.964-.845-1.278a1.209,1.209,0,0,1,.858-.834c.287-.008.794.519.825.846S183.244,706.165,182.83,706.752Z" transform="translate(-166.979 -693.353)" fill="#c81765"/>
  <path id="Path_212" data-name="Path 212" d="M198.971,738.246c-.611.385-1,.819-1.313.773a.843.843,0,0,1,.087-1.683C198.065,737.323,198.4,737.8,198.971,738.246Z" transform="translate(-172.963 -706.494)" fill="#c81765"/>
  <path id="Path_213" data-name="Path 213" d="M189.337,715.257c-.415-.614-.866-.99-.825-1.3.043-.33.554-.6.861-.892.288.308.776.6.806.928C190.207,714.307,189.757,714.665,189.337,715.257Z" transform="translate(-169.6 -696.74)" fill="#c81765"/>
  <path id="Path_214" data-name="Path 214" d="M179.9,719.2c.38.627.8,1.016.751,1.325-.054.329-.559.583-.868.87-.285-.316-.775-.62-.795-.951C178.97,720.133,179.444,719.789,179.9,719.2Z" transform="translate(-165.774 -699.207)" fill="#c81765"/>
  <path id="Path_215" data-name="Path 215" d="M189.957,721.323c.425.58.883.931.861,1.252s-.52.856-.806.854a1.2,1.2,0,0,1-.871-.81C189.1,722.3,189.553,721.924,189.957,721.323Z" transform="translate(-169.854 -700.058)" fill="#c81765"/>
  <path id="Path_216" data-name="Path 216" d="M178.9,730.281c-.6.417-.969.873-1.284.838a1.2,1.2,0,0,1-.82-.857c-.01-.282.513-.791.833-.817S178.3,729.866,178.9,730.281Z" transform="translate(-164.891 -703.322)" fill="#c81765"/>
  <path id="Path_217" data-name="Path 217" d="M199.192,703.332c.409.6.852.961.821,1.278s-.545.833-.828.821a1.2,1.2,0,0,1-.848-.828C198.306,704.289,198.765,703.927,199.192,703.332Z" transform="translate(-173.549 -692.828)" fill="#c81765"/>
  <path id="Path_218" data-name="Path 218" d="M205.467,718.207c-.608.4-.977.839-1.295.8s-.835-.55-.819-.83a1.2,1.2,0,0,1,.84-.836C204.51,717.316,204.869,717.776,205.467,718.207Z" transform="translate(-175.567 -698.458)" fill="#c81765"/>
  <path id="Path_219" data-name="Path 219" d="M176.821,711.394c-.625.444-.962.865-1.3.868-.293,0-.853-.507-.824-.728a1.267,1.267,0,0,1,.769-.913C175.768,710.564,176.163,710.994,176.821,711.394Z" transform="translate(-164.049 -695.755)" fill="#c81765"/>
  <path id="Path_220" data-name="Path 220" d="M187.9,733.451c-.438-.579-.9-.927-.876-1.23.03-.332.511-.861.8-.865a1.206,1.206,0,0,1,.88.8C188.752,732.458,188.3,732.839,187.9,733.451Z" transform="translate(-169.002 -704.089)" fill="#c81765"/>
  <path id="Path_221" data-name="Path 221" d="M205.1,732.207c-.646.4-1.007.806-1.352.792-.289-.011-.821-.554-.779-.775a1.268,1.268,0,0,1,.815-.878C204.1,731.311,204.47,731.768,205.1,732.207Z" transform="translate(-175.411 -704.085)" fill="#c81765"/>
  <path id="Path_222" data-name="Path 222" d="M208.72,709.93c-.6.418-.961.872-1.264.834a.843.843,0,0,1,.005-1.686C207.764,709.042,208.127,709.5,208.72,709.93Z" transform="translate(-176.881 -695.136)" fill="#c81765"/>
  <path id="Path_223" data-name="Path 223" d="M197.652,713.793c-.4-.607-.828-.98-.787-1.289s.56-.819.843-.8a1.2,1.2,0,0,1,.828.841C198.561,712.854,198.094,713.2,197.652,713.793Z" transform="translate(-172.958 -696.191)" fill="#c81765"/>
  <path id="Path_224" data-name="Path 224" d="M209,723.528c.407.609.855.987.808,1.29a1.2,1.2,0,0,1-.879.8c-.29,0-.776-.528-.8-.855C208.1,724.453,208.563,724.106,209,723.528Z" transform="translate(-177.483 -700.945)" fill="#c81765"/>
  <path id="Path_225" data-name="Path 225" d="M189.116,739.7c-.614.411-.982.849-1.3.815s-.6-.532-.9-.827c.3-.294.578-.793.9-.825S188.5,739.273,189.116,739.7Z" transform="translate(-168.963 -707.105)" fill="#c81765"/>
  <path id="Path_226" data-name="Path 226" d="M195.4,724.453c.6-.435.949-.888,1.253-.858.335.032.627.507.937.79-.291.306-.55.806-.882.86C196.411,725.294,196.03,724.858,195.4,724.453Z" transform="translate(-172.372 -700.97)" fill="#c81765"/>
</svg>
