<svg xmlns="http://www.w3.org/2000/svg" width="46.622" height="44.025" viewBox="0 0 46.622 44.025">
  <g id="ic-link2" transform="translate(0.764 0.5)">
    <path id="Path_189" data-name="Path 189" d="M191.96,665.516c1.576-.573,3.053-1.252,4.6-1.647a14.1,14.1,0,0,1,9.833,1.349,25.86,25.86,0,0,0,2.376,1.129,7.92,7.92,0,0,0,4.785.025,4.941,4.941,0,0,1,4.3.754.85.85,0,0,0,.675.012c1.43-.536,2.832-1.157,4.28-1.638a10.1,10.1,0,0,1,2.646-.5,2.966,2.966,0,0,1,3.162,3.655,2.179,2.179,0,0,1-.971,1.272c-4.228,2.4-8.45,4.817-12.754,7.074a14.505,14.505,0,0,1-7.994,1.288c-3.81-.289-7.624-.53-11.436-.8-1.13-.08-2.258-.2-3.5-.3V679c0,1.817-.574,2.382-2.415,2.382h-5.074c-.162,0-.362.059-.479-.014a5.075,5.075,0,0,1-.65-.562c.208-.171.393-.431.63-.493a4.17,4.17,0,0,1,1.037-.024c1.622,0,3.243,0,4.865,0,.873,0,1.044-.168,1.045-1.065q.007-5.665,0-11.33c0-1.437.006-2.873,0-4.309,0-.909-.207-1.109-1.1-1.11q-2.745,0-5.491,0c-.162,0-.356.052-.479-.018a3,3,0,0,1-.511-.468c.181-.17.359-.485.542-.488,2.177-.03,4.356-.044,6.532.006a1.685,1.685,0,0,1,1.539,1.76C191.978,664.047,191.96,664.83,191.96,665.516Zm26.814,2.475c-.018,1.569-.286,2.032-1.356,2.791a11.18,11.18,0,0,1-4.737,2.057,48.948,48.948,0,0,1-5.387.365c-.189.008-.393-.336-.591-.517a2.554,2.554,0,0,1,.62-.421,3.391,3.391,0,0,1,.759-.022c1.428-.1,2.871-.111,4.28-.332a10.255,10.255,0,0,0,4.684-2.149c.9-.7.866-1.363-.093-1.937a4.757,4.757,0,0,0-3.76-.333,8.524,8.524,0,0,1-6.413-.884c-4.758-2.633-9.572-2.936-14.333.1a.915.915,0,0,0-.5.883c.02,2.664.009,5.328.012,7.992,0,.177.028.353.045.557.242.032.445.069.649.084,4.2.315,8.4.643,12.607.934a17.975,17.975,0,0,0,5.946-.1,20.279,20.279,0,0,0,4.3-1.512c3.821-2.033,7.562-4.216,11.33-6.348a1.467,1.467,0,0,0,.392-2.469,1.976,1.976,0,0,0-2.067-.688C223.013,666.648,220.887,667.339,218.774,667.991Z" transform="translate(-183.342 -638.376)" fill="#c81765" stroke="#c81765" stroke-width="1"/>
    <path id="Path_190" data-name="Path 190" d="M234.278,615.642h-6.649V605.493c1.476,0,2.929.01,4.382,0,.943-.009,1.886-.054,2.829-.083.036-.963.091-1.927.105-2.89.018-1.221,0-2.443,0-3.7.275-.021.476-.049.678-.049,2.687,0,5.374.015,8.061-.015.6-.007.732.216.724.767-.027,1.942-.01,3.885-.01,5.924h.788c1.714,0,3.429.019,5.142-.011.561-.01.766.139.76.734q-.041,4.343,0,8.687c0,.561-.129.764-.728.75-1.713-.041-3.428-.014-5.142-.014H244.4v1.877c0,1.413-.011,2.826.006,4.239.005.428-.1.627-.58.625q-4.482-.024-8.964,0c-.532,0-.6-.238-.594-.676C234.286,619.683,234.278,617.715,234.278,615.642Zm-5.577-1.083h6.587v6.624h8.1v-6.649h6.63v-8.059h-6.635v-6.584h-7.4c0,1.962-.028,3.88.015,5.8.015.66-.21.815-.831.8-1.991-.035-3.982-.007-5.973-.019-.387,0-.6.07-.6.526.016,2.385.008,4.77.013,7.155A2.278,2.278,0,0,0,228.7,614.559Z" transform="translate(-211.322 -598.747)" fill="#c81765" stroke="#c81765" stroke-width="1"/>
    <path id="Path_191" data-name="Path 191" d="M233.546,673.244c2.113-.652,4.239-1.343,6.389-1.951a1.976,1.976,0,0,1,2.067.688,1.467,1.467,0,0,1-.392,2.469c-3.768,2.132-7.509,4.315-11.33,6.348a20.283,20.283,0,0,1-4.3,1.512,17.975,17.975,0,0,1-5.946.1c-4.2-.291-8.405-.619-12.607-.934-.2-.015-.407-.052-.649-.084-.017-.2-.045-.381-.045-.558,0-2.664.008-5.328-.012-7.992a.914.914,0,0,1,.5-.883c4.761-3.034,9.575-2.731,14.333-.1a8.525,8.525,0,0,0,6.413.884,4.757,4.757,0,0,1,3.76.333c.959.574.995,1.238.093,1.937a10.254,10.254,0,0,1-4.684,2.149c-1.41.221-2.852.234-4.28.332a3.388,3.388,0,0,0-.759.022,2.554,2.554,0,0,0-.62.421c.2.18.4.524.591.517a48.948,48.948,0,0,0,5.387-.365,11.179,11.179,0,0,0,4.737-2.057C233.26,675.275,233.528,674.813,233.546,673.244Z" transform="translate(-198.113 -643.628)" fill="none" stroke="#c81765" stroke-width="1"/>
  </g>
</svg>
