<svg xmlns="http://www.w3.org/2000/svg" width="47.673" height="42.62" viewBox="0 0 47.673 42.62">
  <path id="ic-link3" d="M221.3,173.068c1.136-1.17,2.166-2.312,3.28-3.364a12.081,12.081,0,0,1,18.793,3.139,13.19,13.19,0,0,1-2.1,15.859c-6.222,6.577-12.5,13.106-18.753,19.651-.908.95-1.631.961-2.529.021-6.316-6.621-12.676-13.2-18.922-19.888-6.134-6.567-4.236-17.124,3.654-20.874a12.094,12.094,0,0,1,14.13,2.883C219.643,171.321,220.428,172.155,221.3,173.068Zm-.043,32.979c.23-.246.38-.411.534-.573q8.819-9.23,17.637-18.461a10.37,10.37,0,0,0,2.508-11.253c-2.5-7.077-11.044-9.253-16.311-3.6-1.025,1.1-2.057,2.194-3.106,3.271a1.483,1.483,0,0,1-2.465-.015c-1.229-1.259-2.4-2.58-3.683-3.781a8.979,8.979,0,0,0-8.664-2.413,10.469,10.469,0,0,0-5.386,16.8c3.19,3.705,6.674,7.158,10.041,10.71C215.284,199.818,218.231,202.884,221.253,206.047Z" transform="translate(-197.429 -166.453)" fill="#c81765"/>
</svg>
