<svg id="ic-link4" xmlns="http://www.w3.org/2000/svg" width="31.493" height="42.742" viewBox="0 0 31.493 42.742">
  <path id="Path_42" data-name="Path 42" d="M2253.586,305.438l-2.6-.228v-2.438a11.74,11.74,0,0,1,3.341.076,4.053,4.053,0,0,1,1.949,1.84,4.629,4.629,0,0,1,.192,2.149q.014,13.768,0,27.535c0,3.658-.578,4.223-4.226,4.226q-11.7.008-23.393,0c-3.138-.005-3.838-.711-3.843-3.885q-.018-13.767,0-27.535c0-4.157.955-4.933,5.3-4.189v2.163l-2.476.367v30.526h3.18c6.9,0,13.808-.012,20.712.009,1.232,0,2.219,0,2.207-1.718-.067-9.42-.062-18.841-.091-28.262A2.516,2.516,0,0,0,2253.586,305.438Z" transform="translate(-2225.003 -295.862)" fill="#c81765"/>
  <path id="Path_43" data-name="Path 43" d="M2236.256,297.266a3.951,3.951,0,0,0,4.148-2.459,5.234,5.234,0,0,1,4.158-2.127c1.387.085,2.909,1.449,3.943,2.628.716.815.885,1.746,2.353,1.872,2.643.226,1.236,2.478,1.489,3.851s-.411,2.1-1.912,2.086c-3.964-.042-7.93-.063-11.893.012-1.615.031-2.458-.424-2.3-2.19C2236.335,299.828,2236.256,298.7,2236.256,297.266Zm8.24-2.686c-.935,1.172-1.875,1.845-1.807,2.392.091.724.97,1.349,1.51,2.016.612-.527,1.665-1.01,1.722-1.592C2245.992,296.694,2245.219,295.907,2244.5,294.58Z" transform="translate(-2228.575 -292.675)" fill="#c81765"/>
  <path id="Path_44" data-name="Path 44" d="M2236.582,330.225H2252.2c.6,1.72.341,2.617-1.607,2.586q-6.2-.1-12.405,0C2236.248,332.845,2235.982,331.958,2236.582,330.225Z" transform="translate(-2228.599 -304.63)" fill="#c81765"/>
  <path id="Path_45" data-name="Path 45" d="M2236.582,321.867H2252.2c.6,1.72.341,2.618-1.607,2.586q-6.2-.1-12.405,0C2236.248,324.487,2235.982,323.6,2236.582,321.867Z" transform="translate(-2228.599 -301.97)" fill="#c81765"/>
  <path id="Path_46" data-name="Path 46" d="M2236.582,338.582H2252.2c.6,1.721.341,2.618-1.607,2.587q-6.2-.1-12.405,0C2236.248,341.2,2235.982,340.315,2236.582,338.582Z" transform="translate(-2228.599 -307.29)" fill="#c81765"/>
</svg>
