<svg xmlns="http://www.w3.org/2000/svg" width="43.597" height="44.588" viewBox="0 0 43.597 44.588">
  <path id="ic-link1" d="M2066.354,339.96c0-7.394-.572-14.006.158-20.47.754-6.672,5.2-11.15,11.483-13.577,3.3-1.274,5.448.275,5.5,3.836.033,2.233.006,4.468.006,6.7l.766.118a23.2,23.2,0,0,0,.743-3.912q.143-6.693.01-13.391c-.036-1.773.6-2.343,2.351-2.335s2.13.778,2.11,2.316c-.059,4.464-.078,8.93.014,13.392a23.578,23.578,0,0,0,.73,3.924l.784-.106c0-2.226-.025-4.453.006-6.679.051-3.677,2.248-5.177,5.708-3.787,6.149,2.469,10.536,6.9,11.268,13.474.721,6.467.157,13.078.157,19.649-11.251,2.542-17.716-5.213-17.188-13.023a5.6,5.6,0,0,0-.826-3.714c-.836-.969-2.637-1.99-3.668-1.707a3.85,3.85,0,0,0-2.979,4.132c.428,5.982-1.407,11.051-7.2,13.446C2073.317,339.477,2069.805,339.411,2066.354,339.96Zm40.787-10.759h-.021c0-2.271.139-4.553-.025-6.812-.517-7.1-4.051-12.154-10.639-14.941-2.743-1.161-3.978-.311-4,2.651q-.047,8.076,0,16.153c.042,7.818,5.169,12.437,13,11.863,1.333-.1,1.734-.6,1.7-1.847C2107.1,333.914,2107.141,331.557,2107.141,329.2Zm-39.617,8.61c9,1.388,14.508-3.232,14.534-11.982.016-5.215.025-10.43-.005-15.645-.018-3.091-1.265-3.9-4.164-2.67-5.893,2.509-9.646,6.98-10.252,13.3C2067.1,326.38,2067.524,332.037,2067.524,337.81Zm20.077-39.3-.858-.007c-.081.768-.224,1.534-.23,2.3-.027,3.2-.081,6.4.008,9.6.091,3.279-.093,6.414-2.721,8.85-.23.213-.178.728-.37,1.634,2.637-2.611,5.009-2.53,7.634-.461C2085.272,313.771,2089.454,305.658,2087.6,298.507Z" transform="translate(-2065.452 -296.212)" fill="#c81765" stroke="#c81765" stroke-miterlimit="10" stroke-width="1.435"/>
</svg>
