<svg width="40" height="40" viewBox="0 0 40 40" fill="none" xmlns="http://www.w3.org/2000/svg">
<path d="M17.0165 28.05L13.7498 24.1167L9.1665 30H27.4998L21.5998 22.15L17.0165 28.05Z" fill="#4A4A4A"/>
<path opacity="0.3" fill-rule="evenodd" clip-rule="evenodd" d="M23.3332 11.6667H28.3332V16.6667H29.9998V33.3333H6.6665V10H23.3332V11.6667ZM9.1665 30H27.4998L21.5998 22.15L17.0165 28.05L13.7498 24.1167L9.1665 30Z" fill="#4A4A4A"/>
<path fill-rule="evenodd" clip-rule="evenodd" d="M33.3335 1.66666V6.66666H38.3335V9.99999H33.3335V14.9833H30.0002V9.99999H25.0002V6.66666H30.0002V1.66666H33.3335ZM6.66683 33.3333H30.0002V16.6667H33.3335V33.3333C33.3335 35.1667 31.8335 36.6667 30.0002 36.6667H6.66683C4.8335 36.6667 3.3335 35.1667 3.3335 33.3333V9.99999C3.3335 8.16666 4.8335 6.66666 6.66683 6.66666H23.3335V9.99999H6.66683V33.3333Z" fill="#4A4A4A"/>
</svg>
