<svg width="18" height="18" viewBox="0 0 18 18" fill="none" xmlns="http://www.w3.org/2000/svg">
<path fill-rule="evenodd" clip-rule="evenodd" d="M1.8678 15.06L0.0677974 11.955C-0.0522026 11.76 -0.00720266 11.52 0.157797 11.37L2.0628 9.885C2.06143 9.87134 2.06006 9.8577 2.0587 9.8441C2.03013 9.55901 2.0028 9.28633 2.0028 9C2.0028 8.7 2.0328 8.415 2.0778 8.115L0.172797 6.63C0.00779735 6.48 -0.0522026 6.24 0.0677974 6.045L1.8678 2.94C1.9878 2.745 2.2128 2.67 2.4228 2.745L4.6578 3.645C5.1078 3.285 5.6328 3 6.1728 2.775L6.5028 0.39C6.5478 0.165 6.7278 0 6.9528 0H10.5528C10.7778 0 10.9578 0.165 11.0028 0.375L11.3328 2.76C11.8878 2.985 12.3828 3.285 12.8478 3.645L15.0828 2.745C15.2928 2.67 15.5178 2.745 15.6378 2.94L17.4378 6.045C17.5578 6.24 17.4978 6.495 17.3328 6.63L15.4278 8.115C15.4292 8.12867 15.4305 8.14231 15.4319 8.15593C15.4605 8.44101 15.4878 8.71367 15.4878 9C15.4878 9.285 15.4728 9.585 15.4278 9.87L17.3328 11.355C17.4978 11.505 17.5578 11.745 17.4378 11.94L15.6378 15.045C15.5178 15.24 15.2928 15.315 15.0828 15.24L12.8478 14.34C12.3828 14.7 11.8728 15 11.3328 15.225L11.0028 17.61C10.9578 17.835 10.7778 18 10.5528 18H6.9528C6.7278 18 6.5478 17.835 6.5028 17.625L6.1728 15.24C5.6178 15.015 5.1228 14.715 4.6578 14.355L2.4228 15.255C2.2128 15.33 1.9878 15.255 1.8678 15.06ZM11.3178 9C11.3178 7.59 10.1628 6.435 8.7528 6.435C7.3428 6.435 6.1878 7.59 6.1878 9C6.1878 10.41 7.3428 11.565 8.7528 11.565C10.1628 11.565 11.3178 10.41 11.3178 9Z" fill="#4A90E2"/>
</svg>
