<svg width="20" height="21" viewBox="0 0 20 21" fill="none" xmlns="http://www.w3.org/2000/svg">
<g clip-path="url(#clip0)">
<path d="M9.97076 0.445801C4.636 0.445801 0.31134 4.77046 0.31134 10.1052C0.31134 15.44 4.636 19.7646 9.97076 19.7646C15.3055 19.7646 19.6302 15.44 19.6302 10.1052C19.6302 4.77046 15.3055 0.445801 9.97076 0.445801ZM9.97076 17.8951C5.66562 17.8951 2.18091 14.411 2.18091 10.1052C2.18091 5.80012 5.66496 2.31537 9.97076 2.31537C14.2759 2.31537 17.7606 5.79942 17.7606 10.1052C17.7606 14.4104 14.2766 17.8951 9.97076 17.8951ZM14.152 13.9587C13.7775 14.337 12.3786 15.571 10.0987 15.571C6.88816 15.571 4.627 13.1786 4.627 10.0571C4.627 6.97421 6.97467 4.62755 10.0706 4.62755C12.2335 4.62755 13.5269 5.66438 13.8718 5.98217C13.9528 6.0567 14.0049 6.15753 14.0187 6.26676C14.0325 6.376 14.0072 6.4866 13.9472 6.57895L13.2401 7.67393C13.0905 7.90568 12.774 7.95756 12.5585 7.7877C12.2237 7.52378 11.3194 6.90986 10.155 6.90986C8.27366 6.90986 7.12026 8.28594 7.12026 10.029C7.12026 11.6489 8.16753 13.2887 10.1691 13.2887C11.4411 13.2887 12.3831 12.5472 12.7291 12.2283C12.9343 12.0392 13.2586 12.071 13.4231 12.296L14.1969 13.3543C14.2628 13.4438 14.2946 13.5539 14.2863 13.6648C14.2781 13.7757 14.2305 13.8799 14.152 13.9587Z" fill="#919191"/>
</g>
<defs>
<clipPath id="clip0">
<rect width="19.942" height="19.942" fill="white" transform="translate(0 0.134277)"/>
</clipPath>
</defs>
</svg>
