<svg width="60" height="54" viewBox="0 0 60 54" fill="none" xmlns="http://www.w3.org/2000/svg">
<path d="M47.6672 34.1855H39.4777V32.0584H47.6672C50.4868 32.0584 57.0267 31.2926 57.0267 24.1879C57.0267 19.9336 54.2773 17.264 48.8372 16.2643C48.5843 16.2178 48.3555 16.0966 48.1862 15.9197C48.0169 15.7427 47.9167 15.5199 47.9012 15.2858C47.6321 11.1378 44.9764 9.65947 42.7886 9.65947C42.0461 9.66605 41.3153 9.82888 40.6536 10.1352C39.9919 10.4415 39.4172 10.883 38.9746 11.425C38.8474 11.5756 38.6781 11.6924 38.4844 11.7634C38.2907 11.8344 38.0796 11.857 37.873 11.8288C37.6665 11.8006 37.472 11.7226 37.3098 11.6029C37.1476 11.4833 37.0236 11.3264 36.9506 11.1485C36.1944 9.14418 34.9415 7.32472 33.2888 5.8306C31.4976 4.14111 29.1962 2.97166 26.6749 2.46973C24.1535 1.96779 21.5252 2.15587 19.1213 3.01022C16.7173 3.86458 14.6456 5.34695 13.1672 7.27038C11.6889 9.19381 10.8702 11.4722 10.8144 13.818C10.8157 14.2979 10.8469 14.7773 10.908 15.2539C10.9452 15.5128 10.8763 15.7751 10.7145 15.9909C10.5527 16.2066 10.3092 16.3607 10.0305 16.4238C7.49176 16.9875 3.20981 18.7743 3.20981 24.0922C3.20981 24.2943 3.20981 24.4857 3.20981 24.6771C3.4174 26.7342 4.48117 28.6415 6.18377 30.0094C7.88637 31.3774 10.0993 32.1027 12.3704 32.0371H18.4189V34.1642H12.3938C9.5239 34.2304 6.73469 33.2971 4.59684 31.5553C2.459 29.8134 1.13414 27.3948 0.893341 24.7941C0.893341 24.5602 0.893341 24.3262 0.893341 24.0922C0.798333 21.966 1.49504 19.8728 2.87078 18.1512C4.24653 16.4296 6.22087 15.1802 8.4745 14.6051C8.4745 14.3498 8.4745 14.0839 8.4745 13.818C8.54144 11.0591 9.50333 8.37958 11.2395 6.11584C12.9756 3.8521 15.4086 2.105 18.233 1.09383C21.0575 0.0826556 24.1476 -0.147529 27.1154 0.432167C30.0833 1.01186 32.7966 2.37561 34.915 4.35223C36.3793 5.66318 37.5687 7.20574 38.4248 8.90433C39.6613 8.01723 41.19 7.53398 42.7652 7.53232C46.041 7.53232 49.4923 9.65947 50.1358 14.3605C56.079 15.6899 59.3431 19.1572 59.3431 24.1879C59.3665 31.5372 53.318 34.1855 47.6672 34.1855Z" fill="#333333"/>
<path d="M41.0106 46.9487H40.6479V41.3862C40.6054 40.5746 40.2135 39.8107 39.5568 39.2595C38.9001 38.7084 38.0314 38.414 37.1381 38.4401H20.7941C19.9008 38.414 19.0321 38.7084 18.3754 39.2595C17.7188 39.8107 17.3269 40.5746 17.2843 41.3862V46.9487H16.9217C16.0223 47.014 15.1875 47.399 14.5983 48.0202C14.0092 48.6414 13.7132 49.4487 13.7745 50.267V53.3301H16.1144V50.267C16.1144 49.5863 16.5473 49.0758 16.9217 49.0758H41.0106C41.385 49.0758 41.8178 49.5863 41.8178 50.267V53.3301H44.1577V50.267C44.2191 49.4487 43.9231 48.6414 43.3339 48.0202C42.7448 47.399 41.91 47.014 41.0106 46.9487ZM19.5891 41.3862C19.5891 40.9395 20.139 40.5672 20.759 40.5672H37.103C37.7582 40.5672 38.2729 40.9395 38.2729 41.3862V46.9487H19.554L19.5891 41.3862Z" fill="#333333"/>
<path d="M21.9291 19.2957C20.7924 19.2986 19.6958 19.6776 18.8439 20.3617C17.9921 21.0459 17.4433 21.9886 17.3 23.0137C17.1568 24.0388 17.4288 25.0762 18.0653 25.9324C18.7019 26.7885 19.6594 27.4047 20.7591 27.666V37.3764H23.099V27.666C24.1987 27.4047 25.1563 26.7885 25.7928 25.9324C26.4294 25.0762 26.7014 24.0388 26.5581 23.0137C26.4148 21.9886 25.866 21.0459 25.0142 20.3617C24.1624 19.6776 23.0657 19.2986 21.9291 19.2957ZM21.9291 25.6771C21.4663 25.6771 21.0139 25.5523 20.6291 25.3186C20.2443 25.0849 19.9444 24.7527 19.7673 24.364C19.5902 23.9753 19.5439 23.5476 19.6342 23.135C19.7245 22.7223 19.9473 22.3433 20.2745 22.0458C20.6018 21.7483 21.0187 21.5458 21.4726 21.4637C21.9265 21.3816 22.3969 21.4237 22.8245 21.5847C23.2521 21.7457 23.6175 22.0184 23.8746 22.3682C24.1317 22.718 24.2689 23.1292 24.2689 23.55C24.2689 24.1141 24.0224 24.6552 23.5836 25.0541C23.1448 25.453 22.5496 25.6771 21.9291 25.6771Z" fill="#333333"/>
<path d="M28.8778 11.8506C27.7391 11.8588 26.6428 12.2443 25.7942 12.9346C24.9457 13.625 24.4032 14.5729 24.2683 15.6008C24.1334 16.6287 24.4154 17.6661 25.0615 18.5185C25.7076 19.371 26.6734 19.98 27.778 20.2316V37.3764H30.1179V20.1996C31.2033 19.9216 32.1417 19.2966 32.7606 18.4397C33.3795 17.5827 33.6372 16.5514 33.4863 15.5355C33.3354 14.5196 32.7861 13.5874 31.9393 12.9103C31.0926 12.2333 30.0054 11.857 28.8778 11.8506ZM28.8778 18.232C28.415 18.232 27.9626 18.1073 27.5778 17.8735C27.193 17.6398 26.8931 17.3076 26.716 16.9189C26.5389 16.5302 26.4926 16.1025 26.5829 15.6899C26.6731 15.2773 26.896 14.8982 27.2232 14.6008C27.5505 14.3033 27.9674 14.1007 28.4213 14.0186C28.8752 13.9365 29.3456 13.9787 29.7732 14.1397C30.2007 14.3007 30.5662 14.5733 30.8233 14.9231C31.0804 15.2729 31.2176 15.6842 31.2176 16.1049C31.2176 16.669 30.9711 17.2101 30.5323 17.609C30.0935 18.0079 29.4983 18.232 28.8778 18.232Z" fill="#333333"/>
<path d="M35.9681 19.2957C34.8315 19.2986 33.7348 19.6776 32.883 20.3617C32.0312 21.0459 31.4824 21.9886 31.3391 23.0137C31.1958 24.0388 31.4678 25.0762 32.1044 25.9324C32.7409 26.7885 33.6985 27.4047 34.7982 27.666V37.3764H37.1381V27.666C38.2378 27.4047 39.1953 26.7885 39.8319 25.9324C40.4684 25.0762 40.7405 24.0388 40.5972 23.0137C40.4539 21.9886 39.9051 21.0459 39.0533 20.3617C38.2014 19.6776 37.1048 19.2986 35.9681 19.2957ZM35.9681 25.6771C35.5054 25.6771 35.053 25.5523 34.6682 25.3186C34.2834 25.0849 33.9835 24.7527 33.8064 24.364C33.6293 23.9753 33.5829 23.5476 33.6732 23.135C33.7635 22.7223 33.9864 22.3433 34.3136 22.0458C34.6408 21.7483 35.0578 21.5458 35.5116 21.4637C35.9655 21.3816 36.436 21.4237 36.8636 21.5847C37.2911 21.7457 37.6566 22.0184 37.9137 22.3682C38.1708 22.718 38.308 23.1292 38.308 23.55C38.308 24.1141 38.0615 24.6552 37.6227 25.0541C37.1839 25.453 36.5887 25.6771 35.9681 25.6771Z" fill="#333333"/>
</svg>
