<svg width="60" height="54" viewBox="0 0 60 54" fill="none" xmlns="http://www.w3.org/2000/svg">
<path d="M47.6676 34.1854H39.4781V32.0582H47.6676C50.4872 32.0582 57.0271 31.2925 57.0271 24.1878C57.0271 19.9335 54.2778 17.2639 48.8376 16.2641C48.5847 16.2177 48.3559 16.0965 48.1866 15.9196C48.0173 15.7426 47.9171 15.5197 47.9016 15.2857C47.6325 11.1377 44.9768 9.65934 42.789 9.65934C42.0465 9.66593 41.3157 9.82876 40.654 10.1351C39.9923 10.4414 39.4176 10.8829 38.975 11.4249C38.8478 11.5754 38.6785 11.6923 38.4848 11.7633C38.2911 11.8343 38.08 11.8569 37.8734 11.8287C37.6669 11.8004 37.4724 11.7225 37.3102 11.6028C37.148 11.4832 37.024 11.3263 36.9511 11.1483C36.1948 9.14406 34.9419 7.32459 33.2892 5.83047C31.498 4.14099 29.1966 2.97154 26.6753 2.4696C24.154 1.96767 21.5256 2.15574 19.1217 3.0101C16.7178 3.86446 14.646 5.34683 13.1676 7.27026C11.6893 9.19369 10.8706 11.472 10.8148 13.8179C10.8161 14.2978 10.8474 14.7771 10.9084 15.2537C10.9456 15.5127 10.8768 15.775 10.7149 15.9908C10.5531 16.2065 10.3097 16.3606 10.0309 16.4237C7.49217 16.9874 3.21022 18.7742 3.21022 24.0921C3.21022 24.2941 3.21022 24.4856 3.21022 24.677C3.41781 26.7341 4.48158 28.6414 6.18418 30.0093C7.88678 31.3773 10.0997 32.1025 12.3708 32.037H18.4193V34.1641H12.3942C9.52431 34.2303 6.7351 33.297 4.59725 31.5551C2.45941 29.8133 1.13455 27.3946 0.893753 24.794C0.893753 24.56 0.893753 24.326 0.893753 24.0921C0.798745 21.9659 1.49545 19.8727 2.8712 18.1511C4.24694 16.4295 6.22128 15.1801 8.47491 14.605C8.47491 14.3497 8.47491 14.0838 8.47491 13.8179C8.54185 11.059 9.50375 8.37946 11.2399 6.11572C12.976 3.85198 15.409 2.10488 18.2334 1.09371C21.0579 0.0825335 24.148 -0.147651 27.1158 0.432045C30.0837 1.01174 32.7971 2.37549 34.9154 4.35211C36.3798 5.66306 37.5691 7.20562 38.4252 8.90421C39.6617 8.0171 41.1905 7.53386 42.7656 7.53219C46.0414 7.53219 49.4927 9.65934 50.1362 14.3603C56.0794 15.6898 59.3436 19.1571 59.3436 24.1878C59.367 31.5371 53.3184 34.1854 47.6676 34.1854Z" fill="url(#paint0_linear)"/>
<path d="M41.0106 46.9485H40.6479V41.386C40.6054 40.5744 40.2135 39.8106 39.5568 39.2594C38.9001 38.7082 38.0314 38.4138 37.1381 38.4399H20.7941C19.9008 38.4138 19.0321 38.7082 18.3754 39.2594C17.7188 39.8106 17.3269 40.5744 17.2843 41.386V46.9485H16.9217C16.0223 47.0138 15.1875 47.3988 14.5983 48.02C14.0092 48.6412 13.7132 49.4485 13.7745 50.2668V53.3299H16.1144V50.2668C16.1144 49.5861 16.5473 49.0756 16.9217 49.0756H41.0106C41.385 49.0756 41.8178 49.5861 41.8178 50.2668V53.3299H44.1577V50.2668C44.2191 49.4485 43.9231 48.6412 43.3339 48.02C42.7448 47.3988 41.91 47.0138 41.0106 46.9485ZM19.5891 41.386C19.5891 40.9393 20.139 40.567 20.759 40.567H37.103C37.7582 40.567 38.2729 40.9393 38.2729 41.386V46.9485H19.554L19.5891 41.386Z" fill="url(#paint1_linear)"/>
<path d="M21.929 19.2955C20.7923 19.2985 19.6957 19.6774 18.8439 20.3616C17.992 21.0458 17.4432 21.9885 17.3 23.0136C17.1567 24.0387 17.4287 25.0761 18.0653 25.9322C18.7018 26.7883 19.6593 27.4046 20.7591 27.6659V37.3763H23.0989V27.6659C24.1987 27.4046 25.1562 26.7883 25.7928 25.9322C26.4293 25.0761 26.7013 24.0387 26.558 23.0136C26.4148 21.9885 25.866 21.0458 25.0141 20.3616C24.1623 19.6774 23.0657 19.2985 21.929 19.2955ZM21.929 25.677C21.4662 25.677 21.0138 25.5522 20.629 25.3185C20.2443 25.0848 19.9443 24.7525 19.7673 24.3639C19.5902 23.9752 19.5438 23.5475 19.6341 23.1348C19.7244 22.7222 19.9472 22.3432 20.2745 22.0457C20.6017 21.7482 21.0186 21.5456 21.4725 21.4636C21.9264 21.3815 22.3969 21.4236 22.8244 21.5846C23.252 21.7456 23.6174 22.0182 23.8745 22.3681C24.1316 22.7179 24.2689 23.1291 24.2689 23.5498C24.2689 24.114 24.0223 24.655 23.5835 25.054C23.1447 25.4529 22.5496 25.677 21.929 25.677Z" fill="url(#paint2_linear)"/>
<path d="M28.8786 11.8504C27.7399 11.8587 26.6436 12.2441 25.7951 12.9344C24.9465 13.6248 24.404 14.5727 24.2691 15.6006C24.1342 16.6286 24.4163 17.6659 25.0623 18.5184C25.7084 19.3708 26.6742 19.9798 27.7788 20.2314V37.3762H30.1187V20.1995C31.2041 19.9214 32.1426 19.2964 32.7615 18.4395C33.3803 17.5825 33.638 16.5512 33.4871 15.5353C33.3362 14.5194 32.7869 13.5872 31.9401 12.9101C31.0934 12.2331 30.0062 11.8568 28.8786 11.8504ZM28.8786 18.2318C28.4158 18.2318 27.9634 18.1071 27.5786 17.8734C27.1938 17.6396 26.8939 17.3074 26.7168 16.9187C26.5397 16.53 26.4934 16.1023 26.5837 15.6897C26.674 15.2771 26.8968 14.8981 27.224 14.6006C27.5513 14.3031 27.9682 14.1005 28.4221 14.0184C28.876 13.9363 29.3465 13.9785 29.774 14.1395C30.2016 14.3005 30.567 14.5731 30.8241 14.9229C31.0812 15.2727 31.2184 15.684 31.2184 16.1047C31.2184 16.6689 30.9719 17.2099 30.5331 17.6088C30.0943 18.0077 29.4991 18.2318 28.8786 18.2318Z" fill="url(#paint3_linear)"/>
<path d="M35.9683 19.2955C34.8316 19.2985 33.735 19.6774 32.8831 20.3616C32.0313 21.0458 31.4825 21.9885 31.3392 23.0136C31.1959 24.0387 31.468 25.0761 32.1045 25.9322C32.7411 26.7883 33.6986 27.4046 34.7983 27.6659V37.3763H37.1382V27.6659C38.2379 27.4046 39.1955 26.7883 39.832 25.9322C40.4686 25.0761 40.7406 24.0387 40.5973 23.0136C40.454 21.9885 39.9052 21.0458 39.0534 20.3616C38.2016 19.6774 37.1049 19.2985 35.9683 19.2955ZM35.9683 25.677C35.5055 25.677 35.0531 25.5522 34.6683 25.3185C34.2835 25.0848 33.9836 24.7525 33.8065 24.3639C33.6294 23.9752 33.5831 23.5475 33.6734 23.1348C33.7636 22.7222 33.9865 22.3432 34.3137 22.0457C34.641 21.7482 35.0579 21.5456 35.5118 21.4636C35.9657 21.3815 36.4361 21.4236 36.8637 21.5846C37.2912 21.7456 37.6567 22.0182 37.9138 22.3681C38.1709 22.7179 38.3081 23.1291 38.3081 23.5498C38.3081 24.114 38.0616 24.655 37.6228 25.054C37.184 25.4529 36.5888 25.677 35.9683 25.677Z" fill="url(#paint4_linear)"/>
<defs>
<linearGradient id="paint0_linear" x1="30.1144" y1="0.119507" x2="30.1144" y2="34.1854" gradientUnits="userSpaceOnUse">
<stop stop-color="#0AEFF1"/>
<stop offset="1" stop-color="#3D91C7"/>
</linearGradient>
<linearGradient id="paint1_linear" x1="28.9661" y1="38.4383" x2="28.9661" y2="53.3299" gradientUnits="userSpaceOnUse">
<stop stop-color="#0AEFF1"/>
<stop offset="1" stop-color="#3D91C7"/>
</linearGradient>
<linearGradient id="paint2_linear" x1="21.929" y1="19.2955" x2="21.929" y2="37.3763" gradientUnits="userSpaceOnUse">
<stop stop-color="#0AEFF1"/>
<stop offset="1" stop-color="#3D91C7"/>
</linearGradient>
<linearGradient id="paint3_linear" x1="28.8827" y1="11.8504" x2="28.8827" y2="37.3762" gradientUnits="userSpaceOnUse">
<stop stop-color="#0AEFF1"/>
<stop offset="1" stop-color="#3D91C7"/>
</linearGradient>
<linearGradient id="paint4_linear" x1="35.9683" y1="19.2955" x2="35.9683" y2="37.3763" gradientUnits="userSpaceOnUse">
<stop stop-color="#0AEFF1"/>
<stop offset="1" stop-color="#3D91C7"/>
</linearGradient>
</defs>
</svg>
