<svg width="65" height="58" viewBox="0 0 65 58" fill="none" xmlns="http://www.w3.org/2000/svg">
<path d="M30.4106 57.8544C28.8829 57.8544 27.4179 57.3099 26.3377 56.3407C25.2575 55.3715 24.6506 54.057 24.6506 52.6863C24.6506 51.3157 25.2575 50.0012 26.3377 49.032C27.4179 48.0628 28.8829 47.5183 30.4106 47.5183L32.2794 40.6275H17.8538C17.4557 40.6283 17.058 40.6053 16.6634 40.5586L10.6474 45.9334C11.3968 47.0115 11.6773 48.2994 11.4353 49.5513C11.1934 50.8031 10.4459 51.9312 9.33577 52.7199C8.22561 53.5087 6.83053 53.9028 5.41698 53.8272C4.00342 53.7515 2.67047 53.2113 1.6727 52.3097C0.674938 51.4081 0.0822883 50.2084 0.00794822 48.9396C-0.0663919 47.6708 0.382789 46.4219 1.2697 45.4314C2.1566 44.4409 3.41908 43.7783 4.816 43.5701C6.21292 43.3619 7.64638 43.6226 8.84259 44.3026L13.809 39.858C12.2779 39.2725 10.9564 38.3195 9.9899 37.1038C9.02337 35.8881 8.44922 34.4568 8.33059 32.9673C8.33059 32.7835 8.33059 32.5998 8.33059 32.4045C8.26697 30.6992 8.82668 29.0219 9.9244 27.6285C11.0221 26.2351 12.5976 25.2021 14.4106 24.6869C14.4106 24.5605 14.4106 24.4342 14.4106 24.2964C14.4547 22.1517 15.1929 20.0649 16.5354 18.29L11.569 12.628C10.5597 13.1075 9.43418 13.3561 8.29219 13.3516C6.68285 13.3521 5.12189 12.8579 3.86934 11.9512C2.61678 11.0446 1.74825 9.78024 1.40842 8.36884C1.06859 6.95744 1.27798 5.48418 2.00171 4.19447C2.72544 2.90476 3.91981 1.87647 5.38587 1.28087C6.85193 0.685278 8.50118 0.558347 10.0589 0.921221C11.6166 1.28409 12.9887 2.11487 13.9466 3.27515C14.9046 4.43543 15.3906 5.85517 15.3236 7.29788C15.2566 8.74059 14.6408 10.1192 13.5786 11.204L18.1738 16.4409C19.2379 15.4609 20.5084 14.6801 21.9114 14.144C24.2719 13.2286 26.885 12.9724 29.4101 13.4088C31.9353 13.8451 34.2554 14.9537 36.0682 16.5902C37.1787 17.5571 38.0965 18.6874 38.7818 19.9323C39.993 19.1848 41.4749 18.877 42.929 19.0709L47.1018 11.56C45.9055 10.7269 45.0771 9.54024 44.764 8.21087C44.4509 6.8815 44.6733 5.49558 45.3917 4.29948C46.1101 3.10337 47.2779 2.17457 48.6876 1.67819C50.0973 1.18181 51.6575 1.15001 53.0908 1.58843C54.5242 2.02686 55.7378 2.90711 56.516 4.07271C57.2942 5.23831 57.5866 6.61373 57.3411 7.95449C57.0956 9.29524 56.3281 10.5145 55.1752 11.3954C54.0223 12.2763 52.5585 12.7619 51.0442 12.7659C50.5065 12.7804 49.969 12.7341 49.4442 12.628L45.3738 19.9552C46.1883 20.4848 46.8692 21.1626 47.3721 21.9442C47.8749 22.7259 48.1885 23.5939 48.2922 24.4916C53.0666 25.6401 55.6778 28.4309 55.6778 32.5309C55.7726 33.9393 55.4185 35.3429 54.6569 36.5774C53.8952 37.8119 52.7576 38.8263 51.377 39.502L55.6266 44.7849C56.884 44.175 58.3478 44.0022 59.7383 44.2997C61.1287 44.5972 62.3481 45.344 63.1635 46.3974C63.9788 47.4508 64.3329 48.7369 64.1579 50.0098C63.9829 51.2826 63.2912 52.453 62.215 53.2971C61.1389 54.1411 59.7537 54.5998 58.3244 54.5852C56.8951 54.5706 55.5219 54.0839 54.4673 53.2181C53.4128 52.3523 52.7509 51.1682 52.6082 49.8921C52.4655 48.616 52.852 47.3374 53.6938 46.3009L48.8938 40.3404C47.945 40.5366 46.9747 40.6367 46.001 40.639H34.8906L32.8938 48.0351C34.0723 48.5405 35.0244 49.3904 35.5937 50.4452C36.1631 51.5 36.3159 52.6971 36.0272 53.8401C35.7385 54.9831 35.0253 56.0042 34.0048 56.7357C32.9842 57.4672 31.7168 57.8657 30.4106 57.8659V57.8544ZM30.4106 49.8152C29.7777 49.8152 29.159 49.9836 28.6328 50.2991C28.1065 50.6146 27.6964 51.063 27.4542 51.5876C27.212 52.1122 27.1486 52.6895 27.2721 53.2465C27.3956 53.8034 27.7003 54.315 28.1479 54.7166C28.5954 55.1181 29.1656 55.3915 29.7863 55.5023C30.407 55.6131 31.0505 55.5562 31.6352 55.3389C32.2199 55.1216 32.7197 54.7536 33.0713 54.2815C33.4229 53.8093 33.6106 53.2542 33.6106 52.6863C33.6106 51.9249 33.2735 51.1946 32.6733 50.6561C32.0732 50.1177 31.2593 49.8152 30.4106 49.8152ZM58.289 46.4617C57.6561 46.4617 57.0374 46.6301 56.5112 46.9456C55.9849 47.261 55.5748 47.7095 55.3326 48.2341C55.0904 48.7587 55.027 49.336 55.1505 49.893C55.274 50.4499 55.5787 50.9615 56.0263 51.363C56.4738 51.7646 57.044 52.038 57.6647 52.1488C58.2855 52.2596 58.9289 52.2027 59.5136 51.9854C60.0983 51.7681 60.5981 51.4001 60.9497 50.928C61.3013 50.4558 61.489 49.9007 61.489 49.3328C61.489 48.5714 61.1519 47.8411 60.5517 47.3026C59.9516 46.7642 59.1377 46.4617 58.289 46.4617V46.4617ZM5.80899 45.7956C5.17609 45.7956 4.5574 45.964 4.03117 46.2795C3.50493 46.5949 3.09478 47.0434 2.85258 47.568C2.61038 48.0926 2.54701 48.6699 2.67048 49.2269C2.79395 49.7838 3.09872 50.2954 3.54625 50.6969C3.99378 51.0985 4.56396 51.3719 5.1847 51.4827C5.80544 51.5935 6.44886 51.5366 7.03358 51.3193C7.6183 51.102 8.11807 50.734 8.4697 50.2619C8.82132 49.7897 9.00899 49.2346 9.00899 48.6667C9.00899 47.9053 8.67185 47.175 8.07173 46.6365C7.47162 46.0981 6.65768 45.7956 5.80899 45.7956V45.7956ZM16.049 26.6393C14.5674 26.8818 13.2334 27.5965 12.2926 28.6516C11.3517 29.7068 10.8675 31.0314 10.929 32.3816C10.929 32.5309 10.929 32.6802 10.929 32.818C11.0909 34.359 11.9011 35.7867 13.1946 36.8108C14.4881 37.8349 16.1679 38.3783 17.8922 38.3306H46.0522C48.1898 38.3306 53.169 37.7564 53.169 32.439C53.169 29.2463 51.0698 27.2479 46.9226 26.5014C46.646 26.4513 46.3956 26.3204 46.2104 26.1294C46.0252 25.9383 45.9156 25.6976 45.8986 25.4449C45.7578 23.3432 44.7338 21.8846 43.1082 21.4367C42.4311 21.26 41.7097 21.2755 41.0429 21.4811C40.376 21.6867 39.7964 22.0724 39.3834 22.5852C39.2444 22.7476 39.0596 22.8736 38.848 22.9504C38.6365 23.0271 38.4059 23.0517 38.1802 23.0216C37.9538 22.9914 37.7406 22.9073 37.5627 22.778C37.3849 22.6487 37.2489 22.479 37.169 22.2866C36.582 20.7665 35.6143 19.3875 34.3402 18.2555C32.965 16.9571 31.1914 16.054 29.2439 15.6606C27.2963 15.2672 25.2625 15.4012 23.3998 16.0456C21.5372 16.69 19.9296 17.8158 18.7805 19.2804C17.6315 20.7451 16.9927 22.4828 16.945 24.2734C16.9419 24.6574 16.9675 25.041 17.0218 25.4219C17.0488 25.6957 16.9655 25.9691 16.787 26.1925C16.6085 26.4158 16.3467 26.5744 16.049 26.6393V26.6393ZM8.36899 3.00395C7.48293 3.00395 6.61677 3.23969 5.88004 3.68137C5.1433 4.12305 4.56909 4.75083 4.23001 5.48532C3.89093 6.21981 3.80221 7.02802 3.97507 7.80774C4.14794 8.58747 4.57461 9.3037 5.20115 9.86585C5.82769 10.428 6.62595 10.8108 7.49499 10.9659C8.36402 11.121 9.2648 11.0414 10.0834 10.7372C10.902 10.433 11.6017 9.91775 12.094 9.25673C12.5862 8.59571 12.849 7.81856 12.849 7.02356C12.8474 6.49029 12.7278 5.96261 12.4973 5.47108C12.2667 4.97956 11.9298 4.53396 11.506 4.1601C11.0822 3.78623 10.5799 3.49154 10.0282 3.29308C9.47655 3.09462 8.88648 2.99635 8.29219 3.00395H8.36899ZM51.1722 3.57818C50.4127 3.57818 49.6703 3.78024 49.0388 4.15883C48.4073 4.53741 47.9151 5.07551 47.6245 5.70507C47.3339 6.33463 47.2578 7.02738 47.406 7.69572C47.5541 8.36406 47.9199 8.97796 48.4569 9.45981C48.9939 9.94165 49.6782 10.2698 50.423 10.4027C51.1679 10.5357 51.94 10.4674 52.6417 10.2067C53.3434 9.9459 53.9431 9.5043 54.365 8.93771C54.787 8.37112 55.0122 7.70499 55.0122 7.02356C55.0123 6.56525 54.9105 6.11152 54.7127 5.68895C54.515 5.26639 54.2252 4.88347 53.8605 4.56261C53.4957 4.24176 53.0633 3.98943 52.5885 3.82039C52.1137 3.65136 51.6061 3.56901 51.0954 3.57818H51.1722Z" fill="white"/>
</svg>
