<svg width="73" height="65" viewBox="0 0 73 65" fill="none" xmlns="http://www.w3.org/2000/svg">
<path d="M37.2465 12.0581L23.7881 21.7837L25.5996 23.7643L39.058 14.0387L37.2465 12.0581Z" fill="url(#paint0_linear)"/>
<path d="M25.5917 40.9254L23.7803 42.906L37.2387 52.6316L39.0502 50.6509L25.5917 40.9254Z" fill="url(#paint1_linear)"/>
<path d="M35.9181 35.5236L35.0088 37.9449L56.5411 44.3341L57.4504 41.9129L35.9181 35.5236Z" fill="url(#paint2_linear)"/>
<path d="M56.5458 20.3704L35.0146 26.763L35.9244 29.1841L57.4555 22.7915L56.5458 20.3704Z" fill="url(#paint3_linear)"/>
<path d="M43.3617 13.6779L40.9917 15.1193L58.4883 37.8503L60.8584 36.4089L43.3617 13.6779Z" fill="url(#paint4_linear)"/>
<path d="M61.9136 17.799C57.0892 14.4295 49.4937 9.50307 49.4219 9.45202L51.1592 7.38443C51.2454 7.38443 58.884 12.3875 63.7514 15.7952L61.9136 17.799Z" fill="url(#paint5_linear)"/>
<path d="M50.269 15.6802H38.1507C37.7699 15.6802 37.4047 15.5458 37.1354 15.3064C36.8661 15.0671 36.7148 14.7424 36.7148 14.4039V3.63205C36.7148 3.29356 36.8661 2.96893 37.1354 2.72958C37.4047 2.49022 37.7699 2.35576 38.1507 2.35576H50.269C50.6498 2.35576 51.0151 2.49022 51.2843 2.72958C51.5536 2.96893 51.7049 3.29356 51.7049 3.63205V14.4039C51.7049 14.7424 51.5536 15.0671 51.2843 15.3064C51.0151 15.5458 50.6498 15.6802 50.269 15.6802ZM39.5865 13.1276H48.8332V4.90834H39.5865V13.1276Z" fill="url(#paint6_linear)"/>
<path d="M58.4946 26.8458L41.0024 49.5795L43.3727 51.0205L60.8649 28.2868L58.4946 26.8458Z" fill="url(#paint7_linear)"/>
<path d="M51.1589 57.313L49.479 55.2454C49.5508 55.2454 57.1463 50.2679 61.9707 46.8985L63.6937 48.9405C58.8262 52.3099 51.1589 57.2619 51.1589 57.313Z" fill="url(#paint8_linear)"/>
<path d="M50.269 62.3413H38.1507C37.7699 62.3413 37.4047 62.2069 37.1354 61.9675C36.8661 61.7282 36.7148 61.4035 36.7148 61.065V50.2931C36.7148 49.9546 36.8661 49.63 37.1354 49.3907C37.4047 49.1513 37.7699 49.0168 38.1507 49.0168H50.269C50.6498 49.0168 51.0151 49.1513 51.2843 49.3907C51.5536 49.63 51.7049 49.9546 51.7049 50.2931V61.065C51.7049 61.4035 51.5536 61.7282 51.2843 61.9675C51.0151 62.2069 50.6498 62.3413 50.269 62.3413ZM39.5865 59.7887H48.8332V51.5694H39.5865V59.7887Z" fill="url(#paint9_linear)"/>
<path d="M69.1069 49.1829H56.9886C56.6078 49.1829 56.2425 49.0485 55.9733 48.8091C55.704 48.5698 55.5527 48.2451 55.5527 47.9066V37.1347C55.5527 36.7963 55.704 36.4716 55.9733 36.2323C56.2425 35.9929 56.6078 35.8585 56.9886 35.8585H69.1069C69.4877 35.8585 69.853 35.9929 70.1222 36.2323C70.3915 36.4716 70.5428 36.7963 70.5428 37.1347V47.9066C70.5428 48.2451 70.3915 48.5698 70.1222 48.8091C69.853 49.0485 69.4877 49.1829 69.1069 49.1829ZM58.4244 46.6303H67.6711V38.411H58.4244V46.6303Z" fill="url(#paint10_linear)"/>
<path d="M69.1069 28.8387H56.9886C56.6078 28.8387 56.2425 28.7043 55.9733 28.4649C55.704 28.2256 55.5527 27.901 55.5527 27.5625V16.7906C55.5527 16.4521 55.704 16.1274 55.9733 15.8881C56.2425 15.6487 56.6078 15.5143 56.9886 15.5143H69.1069C69.4877 15.5143 69.853 15.6487 70.1222 15.8881C70.3915 16.1274 70.5428 16.4521 70.5428 16.7906V27.5625C70.5428 27.901 70.3915 28.2256 70.1222 28.4649C69.853 28.7043 69.4877 28.8387 69.1069 28.8387ZM58.4244 26.2862H67.6711V18.0669H58.4244V26.2862Z" fill="url(#paint11_linear)"/>
<path d="M35.4513 43.1971H4.49491C4.1141 43.1971 3.7489 43.0626 3.47963 42.8233C3.21036 42.5839 3.05908 42.2593 3.05908 41.9208V22.7764C3.05908 22.4379 3.21036 22.1133 3.47963 21.874C3.7489 21.6346 4.1141 21.5002 4.49491 21.5002H35.4513C35.8321 21.5002 36.1973 21.6346 36.4666 21.874C36.7359 22.1133 36.8871 22.4379 36.8871 22.7764V41.9208C36.8871 42.2593 36.7359 42.5839 36.4666 42.8233C36.1973 43.0626 35.8321 43.1971 35.4513 43.1971ZM5.93073 40.6445H34.0155V24.0527H5.93073V40.6445Z" fill="url(#paint12_linear)"/>
<path d="M11.5161 37.5305V26.7586H15.1775C15.8312 26.7215 16.4853 26.8264 17.0832 27.0644C17.6811 27.3023 18.2048 27.6661 18.6091 28.1242C19.4731 29.3135 19.8811 30.7194 19.7721 32.1318C19.8844 33.5507 19.4818 34.9643 18.6235 36.1649C18.232 36.6196 17.7209 36.9819 17.1351 37.22C16.5493 37.4581 15.9066 37.5647 15.2636 37.5305H11.5161ZM13.9714 28.4178V35.8713H15.0052C15.3523 35.8818 15.6958 35.8047 15.9956 35.6489C16.2955 35.493 16.5395 35.2648 16.6994 34.9907C17.1229 34.163 17.315 33.2566 17.2594 32.3487V32.0297C17.3378 31.0876 17.1451 30.1432 16.6994 29.2857C16.5354 29.0099 16.286 28.7816 15.9807 28.6278C15.6754 28.474 15.3269 28.4011 14.9765 28.4178H13.9714Z" fill="url(#paint13_linear)"/>
<path d="M23.5913 32.7318C22.8691 32.4136 22.2362 31.9557 21.7391 31.3917C21.3517 30.8751 21.1558 30.2637 21.1791 29.6432C21.1627 29.0643 21.3321 28.4932 21.6673 27.9967C21.9898 27.5283 22.452 27.1484 23.0026 26.8991C23.6107 26.6371 24.2796 26.506 24.9553 26.5162C25.9045 26.5241 26.8404 26.7158 27.6978 27.0778V28.7242C26.9012 28.4436 26.0559 28.2881 25.1994 28.2648C24.7852 28.2402 24.3755 28.3539 24.0508 28.5838C23.9079 28.6971 23.7952 28.8371 23.7207 28.9939C23.6462 29.1506 23.6118 29.32 23.62 29.49C23.6095 29.7734 23.7055 30.0518 23.8928 30.2813C24.1894 30.5685 24.5452 30.8024 24.941 30.9705L25.8886 31.4172C26.4051 31.6586 26.8872 31.9543 27.3244 32.2978C27.6662 32.5644 27.9361 32.8959 28.1141 33.2678C28.295 33.6737 28.3829 34.1076 28.3726 34.5441C28.3969 34.9817 28.3132 35.4187 28.1271 35.8244C27.9411 36.2302 27.6573 36.5947 27.2957 36.8925C26.4624 37.5027 25.4016 37.8124 24.3236 37.7604C23.772 37.7576 23.2227 37.6976 22.6867 37.5817C22.1874 37.4918 21.7043 37.3415 21.2509 37.135V35.5141C21.7175 35.6685 22.1978 35.788 22.6867 35.8715C23.158 35.967 23.6392 36.0184 24.1225 36.0246C24.5817 36.0538 25.0369 35.931 25.4004 35.68C25.5507 35.5501 25.6671 35.3925 25.7415 35.2183C25.8159 35.0441 25.8465 34.8576 25.8312 34.6717C25.84 34.3767 25.7334 34.088 25.5297 33.8549C25.2389 33.5762 24.8935 33.347 24.5102 33.1785L23.5913 32.7318Z" fill="url(#paint14_linear)"/>
<defs>
<linearGradient id="paint0_linear" x1="30.5173" y1="16.9209" x2="32.079" y2="19.082" gradientUnits="userSpaceOnUse">
<stop offset="0.0001" stop-color="#08BBF3"/>
<stop offset="1" stop-color="#4385C1"/>
</linearGradient>
<linearGradient id="paint1_linear" x1="24.686" y1="41.9157" x2="36.8579" y2="53.048" gradientUnits="userSpaceOnUse">
<stop offset="0.0001" stop-color="#08BBF3"/>
<stop offset="1" stop-color="#4385C1"/>
</linearGradient>
<linearGradient id="paint2_linear" x1="35.4634" y1="36.7342" x2="56.4372" y2="44.6109" gradientUnits="userSpaceOnUse">
<stop offset="0.0001" stop-color="#08BBF3"/>
<stop offset="1" stop-color="#4385C1"/>
</linearGradient>
<linearGradient id="paint3_linear" x1="45.7802" y1="23.5667" x2="46.5145" y2="26.0399" gradientUnits="userSpaceOnUse">
<stop offset="0.0001" stop-color="#08BBF3"/>
<stop offset="1" stop-color="#4385C1"/>
</linearGradient>
<linearGradient id="paint4_linear" x1="42.1767" y1="14.3986" x2="56.9927" y2="38.7599" gradientUnits="userSpaceOnUse">
<stop offset="0.0001" stop-color="#08BBF3"/>
<stop offset="1" stop-color="#4385C1"/>
</linearGradient>
<linearGradient id="paint5_linear" x1="56.5866" y1="7.38443" x2="56.5866" y2="17.799" gradientUnits="userSpaceOnUse">
<stop offset="0.0001" stop-color="#08BBF3"/>
<stop offset="1" stop-color="#4385C1"/>
</linearGradient>
<linearGradient id="paint6_linear" x1="44.2099" y1="2.35576" x2="44.2099" y2="15.6802" gradientUnits="userSpaceOnUse">
<stop offset="0.0001" stop-color="#08BBF3"/>
<stop offset="1" stop-color="#4385C1"/>
</linearGradient>
<linearGradient id="paint7_linear" x1="49.7485" y1="38.2126" x2="51.9338" y2="39.8941" gradientUnits="userSpaceOnUse">
<stop offset="0.0001" stop-color="#08BBF3"/>
<stop offset="1" stop-color="#4385C1"/>
</linearGradient>
<linearGradient id="paint8_linear" x1="56.5863" y1="46.8985" x2="56.5863" y2="57.313" gradientUnits="userSpaceOnUse">
<stop offset="0.0001" stop-color="#08BBF3"/>
<stop offset="1" stop-color="#4385C1"/>
</linearGradient>
<linearGradient id="paint9_linear" x1="44.2099" y1="49.0168" x2="44.2099" y2="62.3413" gradientUnits="userSpaceOnUse">
<stop offset="0.0001" stop-color="#08BBF3"/>
<stop offset="1" stop-color="#4385C1"/>
</linearGradient>
<linearGradient id="paint10_linear" x1="63.0477" y1="35.8585" x2="63.0477" y2="49.1829" gradientUnits="userSpaceOnUse">
<stop offset="0.0001" stop-color="#08BBF3"/>
<stop offset="1" stop-color="#4385C1"/>
</linearGradient>
<linearGradient id="paint11_linear" x1="63.0477" y1="15.5143" x2="63.0477" y2="28.8387" gradientUnits="userSpaceOnUse">
<stop offset="0.0001" stop-color="#08BBF3"/>
<stop offset="1" stop-color="#4385C1"/>
</linearGradient>
<linearGradient id="paint12_linear" x1="19.9731" y1="21.5002" x2="19.9731" y2="43.1971" gradientUnits="userSpaceOnUse">
<stop offset="0.0001" stop-color="#08C9F3"/>
<stop offset="1" stop-color="#4385C1"/>
</linearGradient>
<linearGradient id="paint13_linear" x1="15.6533" y1="26.7513" x2="15.6533" y2="37.5368" gradientUnits="userSpaceOnUse">
<stop offset="0.0001" stop-color="#08BBF3"/>
<stop offset="1" stop-color="#4385C1"/>
</linearGradient>
<linearGradient id="paint14_linear" x1="24.777" y1="26.5157" x2="24.777" y2="37.766" gradientUnits="userSpaceOnUse">
<stop offset="0.0001" stop-color="#08BBF3"/>
<stop offset="1" stop-color="#4385C1"/>
</linearGradient>
</defs>
</svg>
