<svg width="73" height="65" viewBox="0 0 73 65" fill="none" xmlns="http://www.w3.org/2000/svg">
<path d="M37.2464 12.0581L23.788 21.7837L25.5994 23.7643L39.0579 14.0387L37.2464 12.0581Z" fill="url(#paint0_linear)"/>
<path d="M25.5917 40.9254L23.7802 42.906L37.2386 52.6316L39.0501 50.6509L25.5917 40.9254Z" fill="url(#paint1_linear)"/>
<path d="M35.9179 35.5236L35.0086 37.9449L56.541 44.3341L57.4502 41.9129L35.9179 35.5236Z" fill="url(#paint2_linear)"/>
<path d="M56.5456 20.3704L35.0145 26.763L35.9242 29.1841L57.4553 22.7915L56.5456 20.3704Z" fill="url(#paint3_linear)"/>
<path d="M43.3619 13.6779L40.9919 15.1193L58.4885 37.8503L60.8585 36.4089L43.3619 13.6779Z" fill="url(#paint4_linear)"/>
<path d="M61.9135 17.799C57.0891 14.4295 49.4936 9.50307 49.4218 9.45202L51.1591 7.38443C51.2453 7.38443 58.8839 12.3875 63.7513 15.7952L61.9135 17.799Z" fill="url(#paint5_linear)"/>
<path d="M50.2691 15.6802H38.1507C37.7699 15.6802 37.4047 15.5458 37.1355 15.3064C36.8662 15.0671 36.7149 14.7424 36.7149 14.4039V3.63206C36.7149 3.29357 36.8662 2.96894 37.1355 2.72959C37.4047 2.49024 37.7699 2.35577 38.1507 2.35577H50.2691C50.6499 2.35577 51.0151 2.49024 51.2844 2.72959C51.5537 2.96894 51.7049 3.29357 51.7049 3.63206V14.4039C51.7049 14.7424 51.5537 15.0671 51.2844 15.3064C51.0151 15.5458 50.6499 15.6802 50.2691 15.6802ZM39.5866 13.1277H48.8333V4.90835H39.5866V13.1277Z" fill="url(#paint6_linear)"/>
<path d="M58.4944 26.8458L41.0023 49.5795L43.3725 51.0205L60.8647 28.2868L58.4944 26.8458Z" fill="url(#paint7_linear)"/>
<path d="M51.1592 57.313L49.4792 55.2454C49.551 55.2454 57.1465 50.2679 61.9709 46.8985L63.6939 48.9405C58.8265 52.3099 51.1592 57.2619 51.1592 57.313Z" fill="url(#paint8_linear)"/>
<path d="M50.2691 62.3413H38.1507C37.7699 62.3413 37.4047 62.2069 37.1355 61.9675C36.8662 61.7282 36.7149 61.4035 36.7149 61.065V50.2931C36.7149 49.9546 36.8662 49.63 37.1355 49.3907C37.4047 49.1513 37.7699 49.0168 38.1507 49.0168H50.2691C50.6499 49.0168 51.0151 49.1513 51.2844 49.3907C51.5537 49.63 51.7049 49.9546 51.7049 50.2931V61.065C51.7049 61.4035 51.5537 61.7282 51.2844 61.9675C51.0151 62.2069 50.6499 62.3413 50.2691 62.3413ZM39.5866 59.7887H48.8333V51.5694H39.5866V59.7887Z" fill="url(#paint9_linear)"/>
<path d="M69.1069 49.1829H56.9886C56.6078 49.1829 56.2425 49.0485 55.9733 48.8091C55.704 48.5698 55.5527 48.2451 55.5527 47.9066V37.1347C55.5527 36.7963 55.704 36.4716 55.9733 36.2323C56.2425 35.9929 56.6078 35.8585 56.9886 35.8585H69.1069C69.4877 35.8585 69.8529 35.9929 70.1222 36.2323C70.3915 36.4716 70.5428 36.7963 70.5428 37.1347V47.9066C70.5428 48.2451 70.3915 48.5698 70.1222 48.8091C69.8529 49.0485 69.4877 49.1829 69.1069 49.1829ZM58.4244 46.6303H67.6711V38.411H58.4244V46.6303Z" fill="url(#paint10_linear)"/>
<path d="M69.1069 28.8387H56.9886C56.6078 28.8387 56.2425 28.7043 55.9733 28.4649C55.704 28.2256 55.5527 27.901 55.5527 27.5625V16.7906C55.5527 16.4521 55.704 16.1274 55.9733 15.8881C56.2425 15.6487 56.6078 15.5143 56.9886 15.5143H69.1069C69.4877 15.5143 69.8529 15.6487 70.1222 15.8881C70.3915 16.1274 70.5428 16.4521 70.5428 16.7906V27.5625C70.5428 27.901 70.3915 28.2256 70.1222 28.4649C69.8529 28.7043 69.4877 28.8387 69.1069 28.8387ZM58.4244 26.2862H67.6711V18.0669H58.4244V26.2862Z" fill="url(#paint11_linear)"/>
<path d="M35.4511 43.1971H4.49467C4.11387 43.1971 3.74866 43.0626 3.47939 42.8233C3.21012 42.5839 3.05885 42.2593 3.05885 41.9208V22.7764C3.05885 22.4379 3.21012 22.1133 3.47939 21.874C3.74866 21.6346 4.11387 21.5002 4.49467 21.5002H35.4511C35.8319 21.5002 36.1971 21.6346 36.4664 21.874C36.7356 22.1133 36.8869 22.4379 36.8869 22.7764V41.9208C36.8869 42.2593 36.7356 42.5839 36.4664 42.8233C36.1971 43.0626 35.8319 43.1971 35.4511 43.1971ZM5.9305 40.6445H34.0153V24.0527H5.9305V40.6445Z" fill="url(#paint12_linear)"/>
<path d="M11.5164 37.5305V26.7586H15.1777C15.8315 26.7215 16.4855 26.8264 17.0834 27.0644C17.6813 27.3023 18.205 27.6661 18.6093 28.1242C19.4733 29.3135 19.8813 30.7194 19.7724 32.1318C19.8846 33.5507 19.482 34.9643 18.6237 36.1649C18.2322 36.6196 17.7212 36.9819 17.1353 37.22C16.5495 37.4581 15.9069 37.5647 15.2639 37.5305H11.5164ZM13.9716 28.4178V35.8713H15.0054C15.3526 35.8818 15.696 35.8047 15.9959 35.6489C16.2957 35.493 16.5398 35.2648 16.6997 34.9907C17.1231 34.163 17.3153 33.2566 17.2597 32.3487V32.0297C17.3381 31.0876 17.1454 30.1432 16.6997 29.2857C16.5357 29.0099 16.2863 28.7816 15.981 28.6278C15.6756 28.474 15.3271 28.4011 14.9767 28.4178H13.9716Z" fill="url(#paint13_linear)"/>
<path d="M23.5914 32.7318C22.8692 32.4136 22.2363 31.9557 21.7392 31.3917C21.3518 30.8751 21.156 30.2637 21.1793 29.6432C21.1629 29.0643 21.3322 28.4932 21.6674 27.9967C21.99 27.5283 22.4522 27.1484 23.0028 26.8991C23.6109 26.6371 24.2798 26.506 24.9555 26.5162C25.9047 26.5241 26.8405 26.7158 27.6979 27.0778V28.7242C26.9014 28.4436 26.056 28.2881 25.1996 28.2648C24.7853 28.2402 24.3757 28.3539 24.0509 28.5838C23.9081 28.6971 23.7954 28.8371 23.7209 28.9939C23.6464 29.1506 23.612 29.32 23.6202 29.49C23.6097 29.7734 23.7057 30.0518 23.893 30.2813C24.1896 30.5685 24.5454 30.8024 24.9411 30.9705L25.8888 31.4172C26.4053 31.6586 26.8873 31.9543 27.3246 32.2978C27.6664 32.5644 27.9363 32.8959 28.1143 33.2678C28.2951 33.6737 28.383 34.1076 28.3727 34.5441C28.3971 34.9817 28.3133 35.4187 28.1273 35.8244C27.9412 36.2302 27.6574 36.5947 27.2959 36.8925C26.4625 37.5027 25.4018 37.8124 24.3237 37.7604C23.7721 37.7576 23.2228 37.6976 22.6869 37.5817C22.1875 37.4918 21.7044 37.3415 21.251 37.135V35.5141C21.7177 35.6685 22.1979 35.788 22.6869 35.8715C23.1581 35.967 23.6394 36.0184 24.1227 36.0246C24.5819 36.0538 25.037 35.931 25.4006 35.68C25.5508 35.5501 25.6672 35.3925 25.7417 35.2183C25.8161 35.0441 25.8467 34.8576 25.8313 34.6717C25.8401 34.3767 25.7336 34.088 25.5298 33.8549C25.2391 33.5762 24.8936 33.347 24.5104 33.1785L23.5914 32.7318Z" fill="url(#paint14_linear)"/>
<defs>
<linearGradient id="paint0_linear" x1="30.5172" y1="16.9209" x2="32.0789" y2="19.082" gradientUnits="userSpaceOnUse">
<stop stop-color="white"/>
<stop offset="0.0001" stop-color="#FCFCFC"/>
<stop offset="1" stop-color="#FDFEFF"/>
</linearGradient>
<linearGradient id="paint1_linear" x1="24.6859" y1="41.9157" x2="36.8578" y2="53.048" gradientUnits="userSpaceOnUse">
<stop stop-color="white"/>
<stop offset="0.0001" stop-color="#FCFCFC"/>
<stop offset="1" stop-color="#FDFEFF"/>
</linearGradient>
<linearGradient id="paint2_linear" x1="35.4633" y1="36.7342" x2="56.437" y2="44.6109" gradientUnits="userSpaceOnUse">
<stop stop-color="white"/>
<stop offset="0.0001" stop-color="#FCFCFC"/>
<stop offset="1" stop-color="#FDFEFF"/>
</linearGradient>
<linearGradient id="paint3_linear" x1="45.78" y1="23.5667" x2="46.5143" y2="26.0399" gradientUnits="userSpaceOnUse">
<stop stop-color="white"/>
<stop offset="0.0001" stop-color="#FCFCFC"/>
<stop offset="1" stop-color="#FDFEFF"/>
</linearGradient>
<linearGradient id="paint4_linear" x1="42.1769" y1="14.3986" x2="56.9929" y2="38.7599" gradientUnits="userSpaceOnUse">
<stop stop-color="white"/>
<stop offset="0.0001" stop-color="#FCFCFC"/>
<stop offset="1" stop-color="#FDFEFF"/>
</linearGradient>
<linearGradient id="paint5_linear" x1="56.5866" y1="7.38443" x2="56.5866" y2="17.799" gradientUnits="userSpaceOnUse">
<stop stop-color="white"/>
<stop offset="0.0001" stop-color="#FCFCFC"/>
<stop offset="1" stop-color="#FDFEFF"/>
</linearGradient>
<linearGradient id="paint6_linear" x1="44.2099" y1="2.35577" x2="44.2099" y2="15.6802" gradientUnits="userSpaceOnUse">
<stop stop-color="white"/>
<stop offset="0.0001" stop-color="#FCFCFC"/>
<stop offset="1" stop-color="#FDFEFF"/>
</linearGradient>
<linearGradient id="paint7_linear" x1="49.7483" y1="38.2126" x2="51.9336" y2="39.8941" gradientUnits="userSpaceOnUse">
<stop stop-color="white"/>
<stop offset="0.0001" stop-color="#FCFCFC"/>
<stop offset="1" stop-color="#FDFEFF"/>
</linearGradient>
<linearGradient id="paint8_linear" x1="56.5866" y1="46.8985" x2="56.5866" y2="57.313" gradientUnits="userSpaceOnUse">
<stop stop-color="white"/>
<stop offset="0.0001" stop-color="#FCFCFC"/>
<stop offset="1" stop-color="#FDFEFF"/>
</linearGradient>
<linearGradient id="paint9_linear" x1="44.2099" y1="49.0168" x2="44.2099" y2="62.3413" gradientUnits="userSpaceOnUse">
<stop stop-color="white"/>
<stop offset="0.0001" stop-color="#FCFCFC"/>
<stop offset="1" stop-color="#FDFEFF"/>
</linearGradient>
<linearGradient id="paint10_linear" x1="63.0477" y1="35.8585" x2="63.0477" y2="49.1829" gradientUnits="userSpaceOnUse">
<stop stop-color="white"/>
<stop offset="0.0001" stop-color="#FCFCFC"/>
<stop offset="1" stop-color="#FDFEFF"/>
</linearGradient>
<linearGradient id="paint11_linear" x1="63.0477" y1="15.5143" x2="63.0477" y2="28.8387" gradientUnits="userSpaceOnUse">
<stop stop-color="white"/>
<stop offset="0.0001" stop-color="#FCFCFC"/>
<stop offset="1" stop-color="#FDFEFF"/>
</linearGradient>
<linearGradient id="paint12_linear" x1="19.9729" y1="21.5002" x2="19.9729" y2="43.1971" gradientUnits="userSpaceOnUse">
<stop stop-color="white"/>
<stop offset="0.0001" stop-color="#FCFCFC"/>
<stop offset="1" stop-color="#FDFEFF"/>
</linearGradient>
<linearGradient id="paint13_linear" x1="15.6536" y1="26.7513" x2="15.6536" y2="37.5368" gradientUnits="userSpaceOnUse">
<stop stop-color="white"/>
<stop offset="0.0001" stop-color="#FCFCFC"/>
<stop offset="1" stop-color="#FDFEFF"/>
</linearGradient>
<linearGradient id="paint14_linear" x1="24.7771" y1="26.5157" x2="24.7771" y2="37.766" gradientUnits="userSpaceOnUse">
<stop stop-color="white"/>
<stop offset="0.0001" stop-color="#FCFCFC"/>
<stop offset="1" stop-color="#FDFEFF"/>
</linearGradient>
</defs>
</svg>
