<svg width="60" height="54" viewBox="0 0 60 54" fill="none" xmlns="http://www.w3.org/2000/svg">
<path d="M47.6676 34.1855H39.4781V32.0584H47.6676C50.4872 32.0584 57.0271 31.2926 57.0271 24.1879C57.0271 19.9336 54.2778 17.264 48.8376 16.2643C48.5847 16.2178 48.3559 16.0966 48.1866 15.9197C48.0173 15.7427 47.9171 15.5199 47.9016 15.2858C47.6325 11.1378 44.9768 9.65947 42.789 9.65947C42.0465 9.66605 41.3157 9.82888 40.654 10.1352C39.9923 10.4415 39.4176 10.883 38.975 11.425C38.8478 11.5756 38.6785 11.6924 38.4848 11.7634C38.2911 11.8344 38.08 11.857 37.8734 11.8288C37.6669 11.8006 37.4724 11.7226 37.3102 11.6029C37.148 11.4833 37.024 11.3264 36.9511 11.1485C36.1948 9.14418 34.9419 7.32472 33.2892 5.8306C31.498 4.14111 29.1966 2.97166 26.6753 2.46973C24.154 1.96779 21.5256 2.15587 19.1217 3.01022C16.7178 3.86458 14.646 5.34695 13.1676 7.27038C11.6893 9.19381 10.8706 11.4722 10.8148 13.818C10.8161 14.2979 10.8474 14.7773 10.9084 15.2539C10.9456 15.5128 10.8768 15.7751 10.7149 15.9909C10.5531 16.2066 10.3097 16.3607 10.0309 16.4238C7.49217 16.9875 3.21022 18.7743 3.21022 24.0922C3.21022 24.2943 3.21022 24.4857 3.21022 24.6771C3.41781 26.7342 4.48158 28.6415 6.18418 30.0094C7.88678 31.3774 10.0997 32.1027 12.3708 32.0371H18.4193V34.1642H12.3942C9.52431 34.2304 6.7351 33.2971 4.59726 31.5553C2.45941 29.8134 1.13455 27.3948 0.893754 24.7941C0.893754 24.5602 0.893754 24.3262 0.893754 24.0922C0.798745 21.966 1.49545 19.8728 2.8712 18.1512C4.24694 16.4296 6.22129 15.1802 8.47491 14.6051C8.47491 14.3498 8.47491 14.0839 8.47491 13.818C8.54185 11.0591 9.50375 8.37958 11.2399 6.11584C12.976 3.8521 15.409 2.105 18.2334 1.09383C21.0579 0.0826556 24.148 -0.147529 27.1158 0.432167C30.0837 1.01186 32.7971 2.37561 34.9154 4.35223C36.3798 5.66318 37.5691 7.20574 38.4252 8.90433C39.6617 8.01723 41.1905 7.53398 42.7656 7.53232C46.0414 7.53232 49.4927 9.65947 50.1362 14.3605C56.0794 15.6899 59.3436 19.1572 59.3436 24.1879C59.367 31.5372 53.3184 34.1855 47.6676 34.1855Z" fill="white"/>
<path d="M41.0106 46.9487H40.6479V41.3862C40.6054 40.5746 40.2135 39.8107 39.5568 39.2595C38.9001 38.7084 38.0314 38.414 37.1381 38.4401H20.7941C19.9008 38.414 19.0321 38.7084 18.3754 39.2595C17.7188 39.8107 17.3269 40.5746 17.2843 41.3862V46.9487H16.9217C16.0223 47.014 15.1875 47.399 14.5983 48.0202C14.0092 48.6414 13.7132 49.4487 13.7745 50.267V53.3301H16.1144V50.267C16.1144 49.5863 16.5473 49.0758 16.9217 49.0758H41.0106C41.385 49.0758 41.8178 49.5863 41.8178 50.267V53.3301H44.1577V50.267C44.2191 49.4487 43.9231 48.6414 43.3339 48.0202C42.7448 47.399 41.91 47.014 41.0106 46.9487ZM19.5891 41.3862C19.5891 40.9395 20.139 40.5672 20.759 40.5672H37.103C37.7582 40.5672 38.2729 40.9395 38.2729 41.3862V46.9487H19.554L19.5891 41.3862Z" fill="white"/>
<path d="M21.929 19.2957C20.7923 19.2986 19.6957 19.6776 18.8439 20.3617C17.992 21.0459 17.4432 21.9886 17.3 23.0137C17.1567 24.0388 17.4287 25.0762 18.0653 25.9324C18.7018 26.7885 19.6593 27.4047 20.7591 27.666V37.3764H23.0989V27.666C24.1987 27.4047 25.1562 26.7885 25.7928 25.9324C26.4293 25.0762 26.7013 24.0388 26.558 23.0137C26.4148 21.9886 25.866 21.0459 25.0141 20.3617C24.1623 19.6776 23.0657 19.2986 21.929 19.2957ZM21.929 25.6771C21.4662 25.6771 21.0138 25.5523 20.629 25.3186C20.2443 25.0849 19.9443 24.7527 19.7673 24.364C19.5902 23.9753 19.5438 23.5476 19.6341 23.135C19.7244 22.7223 19.9472 22.3433 20.2745 22.0458C20.6017 21.7483 21.0186 21.5458 21.4725 21.4637C21.9264 21.3816 22.3969 21.4237 22.8244 21.5847C23.252 21.7457 23.6174 22.0184 23.8745 22.3682C24.1316 22.718 24.2689 23.1292 24.2689 23.55C24.2689 24.1141 24.0223 24.6552 23.5835 25.0541C23.1447 25.453 22.5496 25.6771 21.929 25.6771Z" fill="white"/>
<path d="M28.8786 11.8506C27.7399 11.8588 26.6436 12.2443 25.7951 12.9346C24.9465 13.625 24.404 14.5729 24.2691 15.6008C24.1342 16.6287 24.4163 17.6661 25.0623 18.5185C25.7084 19.371 26.6742 19.98 27.7788 20.2316V37.3764H30.1187V20.1996C31.2041 19.9216 32.1426 19.2966 32.7615 18.4397C33.3803 17.5827 33.638 16.5514 33.4871 15.5355C33.3362 14.5196 32.7869 13.5874 31.9401 12.9103C31.0934 12.2333 30.0062 11.857 28.8786 11.8506ZM28.8786 18.232C28.4158 18.232 27.9634 18.1073 27.5786 17.8735C27.1938 17.6398 26.8939 17.3076 26.7168 16.9189C26.5397 16.5302 26.4934 16.1025 26.5837 15.6899C26.674 15.2773 26.8968 14.8982 27.224 14.6008C27.5513 14.3033 27.9682 14.1007 28.4221 14.0186C28.876 13.9365 29.3465 13.9787 29.774 14.1397C30.2016 14.3007 30.567 14.5733 30.8241 14.9231C31.0812 15.2729 31.2184 15.6842 31.2184 16.1049C31.2184 16.669 30.9719 17.2101 30.5331 17.609C30.0943 18.0079 29.4991 18.232 28.8786 18.232Z" fill="white"/>
<path d="M35.9683 19.2957C34.8316 19.2986 33.735 19.6776 32.8831 20.3617C32.0313 21.0459 31.4825 21.9886 31.3392 23.0137C31.1959 24.0388 31.468 25.0762 32.1045 25.9324C32.7411 26.7885 33.6986 27.4047 34.7983 27.666V37.3764H37.1382V27.666C38.2379 27.4047 39.1955 26.7885 39.832 25.9324C40.4686 25.0762 40.7406 24.0388 40.5973 23.0137C40.454 21.9886 39.9052 21.0459 39.0534 20.3617C38.2016 19.6776 37.1049 19.2986 35.9683 19.2957ZM35.9683 25.6771C35.5055 25.6771 35.0531 25.5523 34.6683 25.3186C34.2835 25.0849 33.9836 24.7527 33.8065 24.364C33.6294 23.9753 33.5831 23.5476 33.6734 23.135C33.7636 22.7223 33.9865 22.3433 34.3137 22.0458C34.641 21.7483 35.0579 21.5458 35.5118 21.4637C35.9657 21.3816 36.4361 21.4237 36.8637 21.5847C37.2912 21.7457 37.6567 22.0184 37.9138 22.3682C38.1709 22.718 38.3081 23.1292 38.3081 23.55C38.3081 24.1141 38.0616 24.6552 37.6228 25.0541C37.184 25.453 36.5888 25.6771 35.9683 25.6771Z" fill="white"/>
</svg>
