<svg width="60" height="54" viewBox="0 0 60 54" fill="none" xmlns="http://www.w3.org/2000/svg">
<path d="M47.6677 34.1854H39.4782V32.0582H47.6677C50.4873 32.0582 57.0272 31.2925 57.0272 24.1878C57.0272 19.9335 54.2778 17.2639 48.8376 16.2641C48.5848 16.2177 48.3559 16.0965 48.1867 15.9196C48.0174 15.7426 47.9172 15.5197 47.9017 15.2857C47.6326 11.1377 44.9769 9.65934 42.7891 9.65934C42.0466 9.66593 41.3158 9.82876 40.6541 10.1351C39.9924 10.4414 39.4177 10.8829 38.9751 11.4249C38.8479 11.5754 38.6786 11.6923 38.4849 11.7633C38.2912 11.8343 38.0801 11.8569 37.8735 11.8287C37.667 11.8004 37.4725 11.7225 37.3103 11.6028C37.1481 11.4832 37.0241 11.3263 36.9511 11.1483C36.1949 9.14406 34.942 7.32459 33.2892 5.83047C31.4981 4.14099 29.1967 2.97154 26.6754 2.4696C24.154 1.96767 21.5257 2.15574 19.1217 3.0101C16.7178 3.86446 14.646 5.34683 13.1677 7.27026C11.6894 9.19369 10.8707 11.472 10.8149 13.8179C10.8162 14.2978 10.8474 14.7771 10.9084 15.2537C10.9457 15.5127 10.8768 15.775 10.715 15.9908C10.5532 16.2065 10.3097 16.3606 10.031 16.4237C7.49225 16.9874 3.21029 18.7742 3.21029 24.0921C3.21029 24.2941 3.21029 24.4856 3.21029 24.677C3.41788 26.7341 4.48166 28.6414 6.18426 30.0093C7.88686 31.3773 10.0998 32.1025 12.3709 32.037H18.4194V34.1641H12.3943C9.52439 34.2303 6.73517 33.297 4.59733 31.5551C2.45949 29.8133 1.13463 27.3946 0.893829 24.794C0.893829 24.56 0.893829 24.326 0.893829 24.0921C0.798821 21.9659 1.49553 19.8727 2.87127 18.1511C4.24702 16.4295 6.22136 15.1801 8.47499 14.605C8.47499 14.3497 8.47499 14.0838 8.47499 13.8179C8.54193 11.059 9.50382 8.37946 11.2399 6.11572C12.9761 3.85198 15.409 2.10488 18.2335 1.09371C21.058 0.0825335 24.1481 -0.147651 27.1159 0.432045C30.0838 1.01174 32.7971 2.37549 34.9155 4.35211C36.3798 5.66306 37.5692 7.20562 38.4252 8.90421C39.6618 8.0171 41.1905 7.53386 42.7657 7.53219C46.0415 7.53219 49.4928 9.65934 50.1363 14.3603C56.0795 15.6898 59.3436 19.1571 59.3436 24.1878C59.367 31.5371 53.3185 34.1854 47.6677 34.1854Z" fill="url(#paint0_linear)"/>
<path d="M41.0106 46.9485H40.6479V41.386C40.6054 40.5744 40.2135 39.8106 39.5568 39.2594C38.9001 38.7082 38.0314 38.4138 37.1381 38.4399H20.7941C19.9008 38.4138 19.0321 38.7082 18.3754 39.2594C17.7188 39.8106 17.3269 40.5744 17.2843 41.386V46.9485H16.9217C16.0223 47.0138 15.1875 47.3988 14.5983 48.02C14.0092 48.6412 13.7132 49.4485 13.7745 50.2668V53.3299H16.1144V50.2668C16.1144 49.5861 16.5473 49.0756 16.9217 49.0756H41.0106C41.385 49.0756 41.8178 49.5861 41.8178 50.2668V53.3299H44.1577V50.2668C44.2191 49.4485 43.9231 48.6412 43.3339 48.02C42.7448 47.3988 41.91 47.0138 41.0106 46.9485ZM19.5891 41.386C19.5891 40.9393 20.139 40.567 20.759 40.567H37.103C37.7582 40.567 38.2729 40.9393 38.2729 41.386V46.9485H19.554L19.5891 41.386Z" fill="url(#paint1_linear)"/>
<path d="M21.9291 19.2955C20.7924 19.2985 19.6958 19.6774 18.8439 20.3616C17.9921 21.0458 17.4433 21.9885 17.3 23.0136C17.1568 24.0387 17.4288 25.0761 18.0653 25.9322C18.7019 26.7883 19.6594 27.4046 20.7591 27.6659V37.3763H23.099V27.6659C24.1987 27.4046 25.1563 26.7883 25.7928 25.9322C26.4294 25.0761 26.7014 24.0387 26.5581 23.0136C26.4148 21.9885 25.866 21.0458 25.0142 20.3616C24.1624 19.6774 23.0657 19.2985 21.9291 19.2955ZM21.9291 25.677C21.4663 25.677 21.0139 25.5522 20.6291 25.3185C20.2443 25.0848 19.9444 24.7525 19.7673 24.3639C19.5902 23.9752 19.5439 23.5475 19.6342 23.1348C19.7245 22.7222 19.9473 22.3432 20.2745 22.0457C20.6018 21.7482 21.0187 21.5456 21.4726 21.4636C21.9265 21.3815 22.3969 21.4236 22.8245 21.5846C23.2521 21.7456 23.6175 22.0182 23.8746 22.3681C24.1317 22.7179 24.2689 23.1291 24.2689 23.5498C24.2689 24.114 24.0224 24.655 23.5836 25.054C23.1448 25.4529 22.5496 25.677 21.9291 25.677Z" fill="url(#paint2_linear)"/>
<path d="M28.8787 11.8504C27.74 11.8587 26.6437 12.2441 25.7952 12.9344C24.9467 13.6248 24.4042 14.5727 24.2693 15.6006C24.1344 16.6286 24.4164 17.6659 25.0625 18.5184C25.7086 19.3708 26.6744 19.9798 27.779 20.2314V37.3762H30.1189V20.1995C31.2043 19.9214 32.1427 19.2964 32.7616 18.4395C33.3805 17.5825 33.6382 16.5512 33.4873 15.5353C33.3364 14.5194 32.7871 13.5872 31.9403 12.9101C31.0936 12.2331 30.0064 11.8568 28.8787 11.8504ZM28.8787 18.2318C28.416 18.2318 27.9636 18.1071 27.5788 17.8734C27.194 17.6396 26.8941 17.3074 26.717 16.9187C26.5399 16.53 26.4935 16.1023 26.5838 15.6897C26.6741 15.2771 26.897 14.8981 27.2242 14.6006C27.5514 14.3031 27.9684 14.1005 28.4223 14.0184C28.8761 13.9363 29.3466 13.9785 29.7742 14.1395C30.2017 14.3005 30.5672 14.5731 30.8243 14.9229C31.0814 15.2727 31.2186 15.684 31.2186 16.1047C31.2186 16.6689 30.9721 17.2099 30.5333 17.6088C30.0945 18.0077 29.4993 18.2318 28.8787 18.2318Z" fill="url(#paint3_linear)"/>
<path d="M35.9681 19.2955C34.8315 19.2985 33.7348 19.6774 32.883 20.3616C32.0312 21.0458 31.4824 21.9885 31.3391 23.0136C31.1958 24.0387 31.4678 25.0761 32.1044 25.9322C32.7409 26.7883 33.6985 27.4046 34.7982 27.6659V37.3763H37.1381V27.6659C38.2378 27.4046 39.1953 26.7883 39.8319 25.9322C40.4684 25.0761 40.7405 24.0387 40.5972 23.0136C40.4539 21.9885 39.9051 21.0458 39.0533 20.3616C38.2014 19.6774 37.1048 19.2985 35.9681 19.2955ZM35.9681 25.677C35.5054 25.677 35.053 25.5522 34.6682 25.3185C34.2834 25.0848 33.9835 24.7525 33.8064 24.3639C33.6293 23.9752 33.5829 23.5475 33.6732 23.1348C33.7635 22.7222 33.9864 22.3432 34.3136 22.0457C34.6408 21.7482 35.0578 21.5456 35.5116 21.4636C35.9655 21.3815 36.436 21.4236 36.8636 21.5846C37.2911 21.7456 37.6566 22.0182 37.9137 22.3681C38.1708 22.7179 38.308 23.1291 38.308 23.5498C38.308 24.114 38.0615 24.655 37.6227 25.054C37.1839 25.4529 36.5887 25.677 35.9681 25.677Z" fill="url(#paint4_linear)"/>
<defs>
<linearGradient id="paint0_linear" x1="30.1145" y1="0.119507" x2="30.1145" y2="34.1854" gradientUnits="userSpaceOnUse">
<stop stop-color="#0EB6EE"/>
<stop offset="1" stop-color="#3C8CC8"/>
</linearGradient>
<linearGradient id="paint1_linear" x1="28.9661" y1="38.4383" x2="28.9661" y2="53.3299" gradientUnits="userSpaceOnUse">
<stop stop-color="#0EB6EE"/>
<stop offset="1" stop-color="#3C8CC8"/>
</linearGradient>
<linearGradient id="paint2_linear" x1="21.9291" y1="19.2955" x2="21.9291" y2="37.3763" gradientUnits="userSpaceOnUse">
<stop stop-color="#0EB6EE"/>
<stop offset="1" stop-color="#3C8CC8"/>
</linearGradient>
<linearGradient id="paint3_linear" x1="28.8829" y1="11.8504" x2="28.8829" y2="37.3762" gradientUnits="userSpaceOnUse">
<stop stop-color="#0EB6EE"/>
<stop offset="1" stop-color="#3C8CC8"/>
</linearGradient>
<linearGradient id="paint4_linear" x1="35.9681" y1="19.2955" x2="35.9681" y2="37.3763" gradientUnits="userSpaceOnUse">
<stop stop-color="#0EB6EE"/>
<stop offset="1" stop-color="#3C8CC8"/>
</linearGradient>
</defs>
</svg>
