<svg width="63" height="63" viewBox="0 0 63 63" fill="none" xmlns="http://www.w3.org/2000/svg">
<path d="M52.3407 62.7023C50.9062 62.7026 49.5157 62.2073 48.4045 61.3002C47.2933 60.393 46.5296 59.1298 46.2427 57.7244H26.082C25.775 59.2366 24.917 60.5808 23.6745 61.496C22.4321 62.4112 20.894 62.8321 19.3587 62.6771C17.8234 62.522 16.4005 61.802 15.3662 60.6568C14.3319 59.5116 13.7601 58.023 13.7616 56.4799C13.785 54.8386 14.456 53.273 15.6284 52.1242L8.02454 37.5637C7.46279 37.7289 6.88025 37.8127 6.2947 37.8126C4.64441 37.8126 3.06171 37.157 1.89477 35.9901C0.727842 34.8231 0.0722656 33.2404 0.0722656 31.5901C0.0722656 29.9398 0.727842 28.3571 1.89477 27.1902C3.06171 26.0233 4.64441 25.3677 6.2947 25.3677C6.88025 25.3675 7.46279 25.4513 8.02454 25.6166L15.6284 11.1183C14.7546 10.2517 14.1574 9.14548 13.9123 7.93949C13.6673 6.7335 13.7853 5.48192 14.2515 4.34301C14.7177 3.20411 15.5112 2.22902 16.5316 1.54105C17.552 0.853077 18.7534 0.483122 19.9841 0.477962C21.4185 0.477669 22.809 0.972998 23.9202 1.88012C25.0315 2.78724 25.7951 4.05043 26.082 5.45591H46.2427C46.5234 4.07479 47.2645 2.82984 48.345 1.92486C49.4254 1.01988 50.781 0.508475 52.1899 0.474359C53.5989 0.440242 54.9776 0.885435 56.1006 1.73706C57.2235 2.58869 58.0241 3.7963 58.3713 5.16222C58.7184 6.52815 58.5916 7.97146 58.0115 9.25592C57.4315 10.5404 56.4326 11.5899 55.1784 12.2326C53.9241 12.8754 52.4888 13.0733 51.1074 12.794C49.726 12.5147 48.4804 11.7747 47.5743 10.6952L34.2957 17.9008L35.3908 18.9835L33.6236 20.7507L32.0182 19.1328L21.2285 24.9321V27.8567H18.7396V26.2762L12.2558 29.7856C12.2558 29.9723 12.3553 30.159 12.3927 30.3456H29.9399V32.8346H12.3927C12.3927 33.0213 12.3056 33.208 12.2558 33.3946L18.7396 36.9041V35.3236H21.2285V38.2481L31.9187 44.0226L33.5365 42.4047L35.3037 44.1719L34.2085 45.267L47.5743 52.4851C48.2463 51.6825 49.1099 51.0625 50.0851 50.6824C51.0604 50.3022 52.1158 50.1742 53.1536 50.3102C54.1915 50.4462 55.1782 50.8418 56.0226 51.4604C56.8669 52.079 57.5416 52.9007 57.9841 53.8492C58.4266 54.7978 58.6227 55.8427 58.5542 56.8872C58.4857 57.9317 58.1548 58.942 57.5921 59.8246C57.0295 60.7073 56.2533 61.4337 55.3354 61.9367C54.4174 62.4397 53.3874 62.703 52.3407 62.7023ZM52.3407 52.7464C51.6023 52.7464 50.8805 52.9654 50.2665 53.3756C49.6525 53.7859 49.174 54.3689 48.8914 55.0511C48.6089 55.7333 48.5349 56.484 48.679 57.2082C48.823 57.9325 49.1786 58.5977 49.7008 59.1198C50.2229 59.642 50.8881 59.9975 51.6124 60.1416C52.3366 60.2857 53.0872 60.2117 53.7694 59.9291C54.4516 59.6466 55.0347 59.168 55.445 58.5541C55.8552 57.9401 56.0742 57.2183 56.0742 56.4799C56.0742 55.4897 55.6808 54.5401 54.9807 53.8399C54.2805 53.1398 53.3309 52.7464 52.3407 52.7464ZM19.9841 52.7464C19.2456 52.7464 18.5238 52.9654 17.9099 53.3756C17.2959 53.7859 16.8174 54.3689 16.5348 55.0511C16.2522 55.7333 16.1783 56.484 16.3223 57.2082C16.4664 57.9325 16.822 58.5977 17.3441 59.1198C17.8662 59.642 18.5315 59.9975 19.2557 60.1416C19.9799 60.2857 20.7306 60.2117 21.4128 59.9291C22.095 59.6466 22.6781 59.168 23.0883 58.5541C23.4986 57.9401 23.7175 57.2183 23.7175 56.4799C23.7175 55.4897 23.3242 54.5401 22.624 53.8399C21.9239 53.1398 20.9742 52.7464 19.9841 52.7464ZM26.082 55.2354H46.2427C46.2427 55.0487 46.3298 54.862 46.3796 54.6754L32.3667 47.1462L25.5842 53.8416C25.8005 54.2866 25.9675 54.754 26.082 55.2354ZM21.2285 50.3819C22.3012 50.6007 23.2971 51.0987 24.1158 51.8255L30.0893 45.9017L21.2285 41.0731V50.3819ZM10.2273 36.4063L17.6942 50.693C18.0281 50.5576 18.3739 50.4534 18.7271 50.3819V39.6793L11.0486 35.5352C10.8057 35.8532 10.5304 36.1451 10.2273 36.4063ZM6.2947 27.8567C5.55629 27.8567 4.83446 28.0756 4.2205 28.4859C3.60654 28.8961 3.12801 29.4792 2.84543 30.1614C2.56285 30.8436 2.48892 31.5943 2.63298 32.3185C2.77703 33.0427 3.13261 33.708 3.65474 34.2301C4.17688 34.7522 4.84212 35.1078 5.56634 35.2519C6.29056 35.3959 7.04123 35.322 7.72343 35.0394C8.40563 34.7568 8.98872 34.2783 9.39896 33.6643C9.8092 33.0504 10.0282 32.3285 10.0282 31.5901C10.0282 30.6 9.63482 29.6503 8.93466 28.9502C8.2345 28.25 7.28487 27.8567 6.2947 27.8567ZM10.2273 26.774C10.5323 27.0189 10.8116 27.2941 11.0611 27.5953L18.7396 23.501V12.7984C18.3864 12.7269 18.0406 12.6227 17.7066 12.4873L10.2273 26.774ZM21.2285 12.7984V22.1071L30.1142 17.2785L24.1282 11.305C23.3141 12.0553 22.3121 12.5713 21.2285 12.7984ZM25.5842 9.31382C27.5256 11.2677 29.9026 13.6197 32.3543 16.0589L46.3796 8.56713C46.3796 8.38045 46.2801 8.19378 46.2427 8.00711H26.082C25.9633 8.45923 25.7964 8.89731 25.5842 9.31382ZM52.3407 2.96694C51.6023 2.96694 50.8805 3.1859 50.2665 3.59614C49.6525 4.00638 49.174 4.58946 48.8914 5.27166C48.6089 5.95386 48.5349 6.70454 48.679 7.42876C48.823 8.15298 49.1786 8.81822 49.7008 9.34035C50.2229 9.86249 50.8881 10.2181 51.6124 10.3621C52.3366 10.5062 53.0872 10.4322 53.7694 10.1497C54.4516 9.86709 55.0347 9.38856 55.445 8.7746C55.8552 8.16063 56.0742 7.43881 56.0742 6.7004C56.0742 5.71022 55.6808 4.7606 54.9807 4.06044C54.2805 3.36028 53.3309 2.96694 52.3407 2.96694ZM19.9841 2.96694C19.2456 2.96694 18.5238 3.1859 17.9099 3.59614C17.2959 4.00638 16.8174 4.58946 16.5348 5.27166C16.2522 5.95386 16.1783 6.70454 16.3223 7.42876C16.4664 8.15298 16.822 8.81822 17.3441 9.34035C17.8662 9.86249 18.5315 10.2181 19.2557 10.3621C19.9799 10.5062 20.7306 10.4322 21.4128 10.1497C22.095 9.86709 22.6781 9.38856 23.0883 8.7746C23.4986 8.16063 23.7175 7.43881 23.7175 6.7004C23.7175 5.71022 23.3242 4.7606 22.624 4.06044C21.9239 3.36028 20.9742 2.96694 19.9841 2.96694ZM50.2126 46.524H44.5129C44.1828 46.524 43.8663 46.3929 43.6329 46.1595C43.3995 45.9261 43.2684 45.6095 43.2684 45.2795V42.9523C42.912 42.8317 42.563 42.6905 42.223 42.5292L40.5803 44.1719C40.4646 44.2885 40.327 44.3811 40.1753 44.4443C40.0237 44.5075 39.861 44.54 39.6967 44.54C39.5324 44.54 39.3698 44.5075 39.2181 44.4443C39.0665 44.3811 38.9288 44.2885 38.8131 44.1719L34.781 40.1398C34.6644 40.0241 34.5718 39.8864 34.5086 39.7348C34.4454 39.5831 34.4129 39.4205 34.4129 39.2562C34.4129 39.0919 34.4454 38.9292 34.5086 38.7776C34.5718 38.6259 34.6644 38.4883 34.781 38.3726L36.4237 36.7299C36.2624 36.39 36.1212 36.0409 36.0006 35.6845H33.6734C33.3433 35.6845 33.0268 35.5534 32.7934 35.32C32.56 35.0866 32.4289 34.7701 32.4289 34.44V28.7403C32.4289 28.4102 32.56 28.0937 32.7934 27.8603C33.0268 27.6269 33.3433 27.4958 33.6734 27.4958H36.0006C36.1212 27.1394 36.2624 26.7903 36.4237 26.4504L34.781 24.8077C34.6644 24.692 34.5718 24.5543 34.5086 24.4027C34.4454 24.251 34.4129 24.0884 34.4129 23.9241C34.4129 23.7598 34.4454 23.5971 34.5086 23.4455C34.5718 23.2938 34.6644 23.1562 34.781 23.0405L38.8131 19.0084C38.9288 18.8917 39.0665 18.7991 39.2181 18.736C39.3698 18.6728 39.5324 18.6403 39.6967 18.6403C39.861 18.6403 40.0237 18.6728 40.1753 18.736C40.327 18.7991 40.4646 18.8917 40.5803 19.0084L42.223 20.6511C42.563 20.4898 42.912 20.3485 43.2684 20.228V17.9008C43.2684 17.5707 43.3995 17.2542 43.6329 17.0208C43.8663 16.7874 44.1828 16.6563 44.5129 16.6563H50.2126C50.5427 16.6563 50.8592 16.7874 51.0926 17.0208C51.326 17.2542 51.4571 17.5707 51.4571 17.9008V20.228C51.8135 20.3485 52.1626 20.4898 52.5025 20.6511L54.2074 19.0084C54.3231 18.8917 54.4608 18.7991 54.6124 18.736C54.7641 18.6728 54.9267 18.6403 55.091 18.6403C55.2553 18.6403 55.418 18.6728 55.5696 18.736C55.7213 18.7991 55.8589 18.8917 55.9746 19.0084L60.0068 23.0405C60.1234 23.1562 60.216 23.2938 60.2792 23.4455C60.3423 23.5971 60.3749 23.7598 60.3749 23.9241C60.3749 24.0884 60.3423 24.251 60.2792 24.4027C60.216 24.5543 60.1234 24.692 60.0068 24.8077L58.364 26.4504C58.5253 26.7903 58.6666 27.1394 58.7872 27.4958H61.0521C61.3822 27.4958 61.6987 27.6269 61.9321 27.8603C62.1655 28.0937 62.2966 28.4102 62.2966 28.7403V34.44C62.2966 34.7701 62.1655 35.0866 61.9321 35.32C61.6987 35.5534 61.3822 35.6845 61.0521 35.6845H58.7249C58.6044 36.0409 58.4631 36.39 58.3018 36.7299L59.9445 38.4348C60.0612 38.5505 60.1538 38.6881 60.2169 38.8398C60.2801 38.9915 60.3126 39.1541 60.3126 39.3184C60.3126 39.4827 60.2801 39.6454 60.2169 39.797C60.1538 39.9487 60.0612 40.0863 59.9445 40.202L55.9124 44.2341C55.7967 44.3508 55.6591 44.4433 55.5074 44.5065C55.3557 44.5697 55.1931 44.6022 55.0288 44.6022C54.8645 44.6022 54.7019 44.5697 54.5502 44.5065C54.3986 44.4433 54.2609 44.3508 54.1452 44.2341L52.5025 42.5914C52.1626 42.7527 51.8135 42.894 51.4571 43.0145V45.2795C51.4571 45.6095 51.326 45.9261 51.0926 46.1595C50.8592 46.3929 50.5427 46.524 50.2126 46.524ZM45.7574 44.035H48.9682V42.0438C48.9585 41.7629 49.0443 41.4869 49.2115 41.2609C49.3788 41.035 49.6176 40.8723 49.8891 40.7993C50.6687 40.5853 51.4174 40.2716 52.1167 39.866C52.3532 39.7313 52.6272 39.6779 52.897 39.7139C53.1667 39.7498 53.4172 39.8732 53.6101 40.0651L55.0288 41.4838L57.3062 39.2064L55.8875 37.7877C55.6956 37.5948 55.5722 37.3443 55.5363 37.0745C55.5003 36.8048 55.5537 36.5308 55.6884 36.2943C56.094 35.595 56.4078 34.8463 56.6217 34.0667C56.6947 33.7952 56.8574 33.5564 57.0834 33.3891C57.3093 33.2219 57.5853 33.1361 57.8662 33.1457H59.8574V29.9847H57.8165C57.5355 29.9944 57.2596 29.9086 57.0336 29.7414C56.8076 29.5741 56.6449 29.3353 56.572 29.0638C56.358 28.2842 56.0443 27.5355 55.6386 26.8362C55.504 26.5997 55.4505 26.3257 55.4865 26.0559C55.5225 25.7862 55.6458 25.5357 55.8377 25.3428L57.2564 23.9241L54.979 21.6467L53.5603 23.0654C53.3674 23.2573 53.1169 23.3807 52.8472 23.4166C52.5775 23.4526 52.3034 23.3992 52.0669 23.2645C51.3676 22.8589 50.6189 22.5451 49.8393 22.3312C49.5678 22.2582 49.329 22.0955 49.1618 21.8695C48.9945 21.6436 48.9087 21.3676 48.9184 21.0867V19.1453H45.7574V21.1364C45.767 21.4174 45.6812 21.6933 45.514 21.9193C45.3468 22.1453 45.108 22.308 44.8365 22.3809C44.0569 22.5949 43.3081 22.9086 42.6088 23.3143C42.3724 23.4489 42.0983 23.5024 41.8286 23.4664C41.5589 23.4304 41.3084 23.3071 41.1154 23.1152L39.6967 21.6965L37.4193 23.9739L38.838 25.3926C39.0299 25.5855 39.1533 25.836 39.1893 26.1057C39.2252 26.3754 39.1718 26.6495 39.0371 26.886C38.6315 27.5853 38.3178 28.334 38.1038 29.1136C38.0309 29.3851 37.8681 29.6239 37.6422 29.7911C37.4162 29.9584 37.1403 30.0442 36.8593 30.0345H34.9179V33.2453H36.9091C37.19 33.2357 37.466 33.3215 37.692 33.4887C37.9179 33.6559 38.0806 33.8947 38.1536 34.1662C38.3675 34.9458 38.6813 35.6946 39.0869 36.3939C39.2216 36.6303 39.275 36.9044 39.239 37.1741C39.2031 37.4438 39.0797 37.6943 38.8878 37.8872L37.4691 39.306L39.7465 41.5834L41.1652 40.1646C41.3581 39.9728 41.6086 39.8494 41.8784 39.8134C42.1481 39.7775 42.4221 39.8309 42.6586 39.9655C43.3579 40.3712 44.1066 40.6849 44.8862 40.8989C45.1577 40.9718 45.3965 41.1345 45.5638 41.3605C45.731 41.5865 45.8168 41.8624 45.8072 42.1434L45.7574 44.035ZM47.3628 37.9619C46.1025 37.9619 44.8706 37.5882 43.8228 36.8881C42.775 36.1879 41.9583 35.1928 41.476 34.0285C40.9938 32.8642 40.8676 31.5831 41.1134 30.3471C41.3593 29.1111 41.9661 27.9757 42.8572 27.0846C43.7483 26.1935 44.8837 25.5866 46.1197 25.3408C47.3557 25.0949 48.6368 25.2211 49.8011 25.7034C50.9654 26.1856 51.9606 27.0023 52.6607 28.0502C53.3608 29.098 53.7345 30.3299 53.7345 31.5901C53.7345 33.28 53.0632 34.9007 51.8683 36.0957C50.6734 37.2906 49.0527 37.9619 47.3628 37.9619ZM47.3628 27.7073C46.5948 27.7073 45.8441 27.9351 45.2056 28.3617C44.5671 28.7884 44.0694 29.3948 43.7755 30.1043C43.4816 30.8137 43.4048 31.5944 43.5546 32.3476C43.7044 33.1008 44.0742 33.7927 44.6172 34.3357C45.1602 34.8787 45.8521 35.2485 46.6053 35.3983C47.3585 35.5481 48.1392 35.4713 48.8486 35.1774C49.5581 34.8835 50.1645 34.3858 50.5912 33.7473C51.0178 33.1088 51.2456 32.3581 51.2456 31.5901C51.2456 30.5604 50.8365 29.5727 50.1083 28.8446C49.3801 28.1164 48.3925 27.7073 47.3628 27.7073Z" fill="white"/>
</svg>
