<svg width="66" height="63" viewBox="0 0 66 63" fill="none" xmlns="http://www.w3.org/2000/svg">
<path d="M41.9825 27.9021V15.872C41.9834 15.7088 41.9511 15.547 41.8873 15.3959C41.8235 15.2448 41.7295 15.1074 41.6107 14.9915L27.5098 1.34918C27.3901 1.23424 27.248 1.1433 27.0918 1.08158C26.9356 1.01986 26.7684 0.988579 26.5997 0.989523H2.24363C1.90365 0.989523 1.57759 1.12019 1.33719 1.35277C1.09679 1.58536 0.961731 1.90081 0.961731 2.22973V55.5588C0.961731 55.8877 1.09679 56.2032 1.33719 56.4357C1.57759 56.6683 1.90365 56.799 2.24363 56.799H40.7006C41.0406 56.799 41.3666 56.6683 41.607 56.4357C41.8474 56.2032 41.9825 55.8877 41.9825 55.5588V50.0522C41.004 49.2126 40.1422 48.2538 39.4187 47.1998V54.3186H3.52553V3.46994H25.3178V15.872C25.3178 16.201 25.4528 16.5164 25.6933 16.749C25.9337 16.9816 26.2597 17.1123 26.5997 17.1123H39.4187V30.7546C40.1394 29.6984 41.0015 28.7393 41.9825 27.9021V27.9021ZM27.8816 14.6318V5.21864L37.6112 14.6318H27.8816ZM15.0626 24.5535H7.37122V22.0731H15.0626V24.5535ZM35.573 24.5535H17.6264V22.0731H35.573V24.5535ZM35.573 31.9948H7.37122V29.5144H35.573V31.9948ZM55.3655 63H49.1098C48.8546 63.0013 48.6047 62.9288 48.3923 62.7918C48.1799 62.6548 48.0147 62.4596 47.9177 62.2311L46.3666 58.5105C46.285 58.322 46.2529 58.117 46.2731 57.9136C46.2932 57.7102 46.3649 57.5148 46.4819 57.3447C46.5995 57.1764 46.758 57.0386 46.9436 56.9434C47.1291 56.8483 47.3359 56.7987 47.5459 56.799H56.9294C57.1394 56.7987 57.3462 56.8483 57.5317 56.9434C57.7173 57.0386 57.8758 57.1764 57.9934 57.3447C58.1104 57.5148 58.1821 57.7102 58.2022 57.9136C58.2224 58.117 58.1903 58.322 58.1087 58.5105L56.5576 62.2311C56.4606 62.4596 56.2954 62.6548 56.083 62.7918C55.8706 62.9288 55.6207 63.0013 55.3655 63ZM49.9687 60.5196H54.5066L55.0194 59.2794H49.4559L49.9687 60.5196ZM64.89 36.9556C64.3721 33.8786 62.6754 31.1032 60.1378 29.1819C57.6001 27.2606 54.4076 26.3344 51.196 26.5877C47.9843 26.8411 44.989 28.2553 42.8066 30.5489C40.6241 32.8425 39.4145 35.8472 39.4187 38.9648C39.4192 40.962 39.9183 42.9296 40.8735 44.7002C41.8288 46.4708 43.2119 47.992 44.9052 49.1345C45.2421 49.3417 45.552 49.5874 45.8282 49.8662V54.3186C45.8282 54.6475 45.9632 54.9629 46.2036 55.1955C46.444 55.4281 46.7701 55.5588 47.1101 55.5588H57.3652C57.7052 55.5588 58.0313 55.4281 58.2717 55.1955C58.5121 54.9629 58.6471 54.6475 58.6471 54.3186V49.8538C58.924 49.5879 59.2291 49.3509 59.5573 49.1469C61.2593 48.0119 62.6496 46.4925 63.6078 44.7205C64.5661 42.9484 65.0634 40.9771 65.0566 38.9772C65.0585 38.2918 65.0028 37.6074 64.89 36.9308V36.9556ZM58.0703 47.1253C57.3268 47.6214 56.0833 48.4524 56.0833 49.7298V53.0784H53.5195V44.3969H56.0833V41.9165H48.392V44.3969H50.9558V53.0784H48.392V49.7546C48.392 48.5144 47.1101 47.609 46.3666 47.1005C45.2018 46.3223 44.2162 45.3191 43.4717 44.1543C42.7273 42.9894 42.2402 41.6881 42.0411 40.3321C41.842 38.9762 41.9352 37.5951 42.3148 36.2758C42.6945 34.9564 43.3523 33.7274 44.247 32.666C45.1416 31.6047 46.2537 30.734 47.5132 30.1089C48.7726 29.4837 50.1523 29.1176 51.5652 29.0336C52.9781 28.9496 54.3936 29.1495 55.7228 29.6207C57.0519 30.0919 58.2658 30.8242 59.2881 31.7715C60.9118 33.2431 61.9886 35.1917 62.3518 37.3153C62.6757 39.1751 62.445 41.0857 61.6867 42.8231C60.9283 44.5606 59.6739 46.053 58.0703 47.1253V47.1253ZM21.4721 17.1123H7.37122V14.6318H21.4721V17.1123ZM22.754 39.436H7.37122V36.9556H22.754V39.436ZM35.573 39.436H25.3178V36.9556H35.573V39.436ZM24.0359 46.8773H7.37122V44.3969H24.0359V46.8773Z" fill="url(#paint0_linear)"/>
<defs>
<linearGradient id="paint0_linear" x1="33.0092" y1="0.989502" x2="33.0092" y2="63.0001" gradientUnits="userSpaceOnUse">
<stop stop-color="#02F9F6"/>
<stop offset="1" stop-color="#2DABD2"/>
</linearGradient>
</defs>
</svg>
