<svg width="74" height="72" viewBox="0 0 74 72" fill="none" xmlns="http://www.w3.org/2000/svg">
<path d="M47.3865 31.4474V17.8326C47.3876 17.6479 47.351 17.4648 47.2788 17.2938C47.2066 17.1227 47.1003 16.9672 46.9658 16.8361L31.0073 1.39657C30.8718 1.26648 30.711 1.16356 30.5343 1.09371C30.3575 1.02386 30.1682 0.988457 29.9773 0.989525H2.41268C2.02792 0.989525 1.65891 1.1374 1.38683 1.40063C1.11476 1.66385 0.961914 2.02086 0.961914 2.39312V62.7475C0.961914 63.1197 1.11476 63.4767 1.38683 63.74C1.65891 64.0032 2.02792 64.1511 2.41268 64.1511H45.9358C46.3205 64.1511 46.6895 64.0032 46.9616 63.74C47.2337 63.4767 47.3865 63.1197 47.3865 62.7475V56.5155C46.2792 55.5653 45.3039 54.4802 44.485 53.2873V61.3439H3.86345V3.79671H28.5265V17.8326C28.5265 18.2049 28.6794 18.5619 28.9515 18.8251C29.2235 19.0883 29.5925 19.2362 29.9773 19.2362H44.485V34.6757C45.3007 33.4804 46.2763 32.3949 47.3865 31.4474ZM31.4281 16.429V5.77577L42.4394 16.429H31.4281ZM16.9204 27.6577H8.21576V24.8506H16.9204V27.6577ZM40.1327 27.6577H19.8219V24.8506H40.1327V27.6577ZM40.1327 36.0793H8.21576V33.2721H40.1327V36.0793ZM62.5326 71.169H55.4528C55.1639 71.1704 54.8812 71.0883 54.6408 70.9333C54.4004 70.7783 54.2134 70.5573 54.1036 70.2988L52.3482 66.088C52.2559 65.8747 52.2196 65.6427 52.2423 65.4125C52.2651 65.1823 52.3463 64.9611 52.4787 64.7687C52.6118 64.5782 52.7912 64.4222 53.0012 64.3145C53.2111 64.2069 53.4452 64.1507 53.6829 64.1511H64.3025C64.5401 64.1507 64.7742 64.2069 64.9842 64.3145C65.1942 64.4222 65.3736 64.5782 65.5066 64.7687C65.6391 64.9611 65.7203 65.1823 65.743 65.4125C65.7658 65.6427 65.7295 65.8747 65.6372 66.088L63.8818 70.2988C63.772 70.5573 63.5849 70.7783 63.3446 70.9333C63.1042 71.0883 62.8215 71.1704 62.5326 71.169ZM56.4248 68.3618H61.5605L62.1409 66.9583H55.8445L56.4248 68.3618ZM73.3118 41.6936C72.7257 38.2113 70.8055 35.0702 67.9335 32.8958C65.0616 30.7214 61.4485 29.6732 57.8138 29.9599C54.179 30.2466 50.7892 31.8472 48.3192 34.443C45.8492 37.0387 44.4803 40.4392 44.485 43.9674C44.4856 46.2278 45.0504 48.4546 46.1315 50.4585C47.2126 52.4623 48.7779 54.1839 50.6943 55.4769C51.0756 55.7114 51.4263 55.9894 51.7388 56.305V61.3439C51.7388 61.7161 51.8917 62.0732 52.1638 62.3364C52.4358 62.5996 52.8048 62.7475 53.1896 62.7475H64.7958C65.1805 62.7475 65.5495 62.5996 65.8216 62.3364C66.0937 62.0732 66.2465 61.7161 66.2465 61.3439V56.291C66.5599 55.99 66.9051 55.7218 67.2766 55.4909C69.2028 54.2064 70.7762 52.4869 71.8607 50.4814C72.9452 48.4759 73.508 46.2449 73.5004 43.9815C73.5025 43.2058 73.4394 42.4313 73.3118 41.6656V41.6936ZM65.5937 53.2031C64.7522 53.7645 63.345 54.7049 63.345 56.1506V59.9403H60.4435V50.1152H63.345V47.308H54.6404V50.1152H57.5419V59.9403H54.6404V56.1787C54.6404 54.7751 53.1896 53.7505 52.3482 53.175C51.0299 52.2942 49.9145 51.1589 49.072 49.8406C48.2295 48.5223 47.6782 47.0495 47.4529 45.515C47.2276 43.9804 47.333 42.4174 47.7627 40.9242C48.1923 39.431 48.9368 38.0401 49.9493 36.8389C50.9618 35.6378 52.2204 34.6525 53.6458 33.945C55.0712 33.2374 56.6326 32.8231 58.2316 32.728C59.8306 32.6329 61.4327 32.8591 62.9369 33.3924C64.4412 33.9257 65.815 34.7545 66.9719 35.8266C68.8095 37.4921 70.0282 39.6973 70.4393 42.1007C70.8058 44.2055 70.5447 46.3677 69.6865 48.3341C68.8283 50.3004 67.4085 51.9894 65.5937 53.2031ZM24.1742 19.2362H8.21576V16.429H24.1742V19.2362ZM25.625 44.5008H8.21576V41.6936H25.625V44.5008ZM40.1327 44.5008H28.5265V41.6936H40.1327V44.5008ZM27.0758 52.9224H8.21576V50.1152H27.0758V52.9224Z" fill="#333333"/>
</svg>
