<svg width="69" height="72" viewBox="0 0 69 72" fill="none" xmlns="http://www.w3.org/2000/svg">
<g filter="url(#filter0_d)">
<path d="M59.4795 35.0897L59.4275 35.6182L59.9315 35.7856L63.5108 36.9747C63.5392 36.9841 63.567 36.9968 63.5938 37.0127V38.5307L59.8311 48.8748C59.8007 48.9472 59.7579 49.0107 59.7066 49.0624C59.6533 49.1161 59.592 49.156 59.5274 49.1814C59.4629 49.2068 59.3952 49.2178 59.328 49.2144C59.2609 49.211 59.194 49.1933 59.1311 49.1612L59.1205 49.1557L59.1097 49.1507L55.7083 47.5607L55.2011 47.3236L54.8812 47.7831C53.6123 49.6062 52.1225 51.2467 50.45 52.6635L50.0536 52.9993L50.2837 53.4651L51.9903 56.9206L51.9952 56.9304L52.0004 56.9401C52.0397 57.0134 52.0645 57.0962 52.0722 57.1829C52.0798 57.2696 52.0698 57.3566 52.0434 57.4379C52.0171 57.5191 51.9754 57.5914 51.9228 57.6508C51.8703 57.7102 51.8084 57.7551 51.7424 57.7846L51.7423 57.7845L51.7319 57.7894L41.3979 62.6213C41.3976 62.6214 41.3973 62.6216 41.3971 62.6217C41.3321 62.6517 41.2633 62.6667 41.1946 62.6667C41.1257 62.6667 41.0566 62.6516 40.9914 62.6213L40.9833 62.6176L40.9752 62.614C40.9115 62.5865 40.8516 62.5448 40.8 62.4897C40.7487 62.4349 40.7068 62.3681 40.6784 62.2925C40.6781 62.2919 40.6779 62.2913 40.6776 62.2907L39.3546 58.6644L39.1566 58.1219L38.5918 58.2421C38.2219 58.3208 37.8486 58.3795 37.4733 58.418V57.2282C38.1219 57.1552 38.7675 57.055 39.4086 56.9277L39.4386 56.9217L39.468 56.913C39.586 56.878 39.7124 56.8894 39.8255 56.9477C39.9378 57.0057 40.034 57.109 40.0879 57.2455L41.2782 60.6042L41.5228 61.2946L42.1863 60.9843L50.2184 57.2284L50.8433 56.9362L50.5281 56.3225L48.8719 53.0976C48.8097 52.97 48.7919 52.8204 48.8241 52.6774C48.8565 52.5334 48.9356 52.4134 49.0387 52.3349L49.0387 52.335L49.0466 52.3288C51.2021 50.6351 53.068 48.5729 54.5666 46.2299L54.5681 46.2274C54.6419 46.1109 54.7478 46.0328 54.8615 45.9981C54.9746 45.9637 55.0953 45.972 55.2049 46.0232L55.2049 46.0232L55.2128 46.0268L58.3993 47.4666L59.052 47.7614L59.2975 47.0887L62.4363 38.4876L62.6715 37.8431L62.0199 37.6284L58.714 36.5391L58.7117 36.5384C58.5957 36.5006 58.4886 36.4173 58.4167 36.2948C58.3443 36.1716 58.3153 36.0212 58.3389 35.8729L58.3401 35.8656L58.3411 35.8583C58.7215 33.0771 58.6469 30.2483 58.1206 27.4931L58.1205 27.4927C58.093 27.3493 58.1152 27.2014 58.1804 27.0769C58.2444 26.9544 58.3432 26.8666 58.4532 26.8209L61.693 25.5714L62.3356 25.3236L62.0652 24.6902L58.4848 16.302L58.1991 15.6326L57.5583 15.9776L54.4194 17.6678L54.4166 17.6693C54.3077 17.7287 54.1855 17.7438 54.0702 17.7152C53.9541 17.6864 53.8443 17.6131 53.7655 17.4992L53.7655 17.4992L53.7595 17.4907C52.1482 15.2384 50.178 13.2924 47.9346 11.739C47.8372 11.6673 47.7599 11.5588 47.7221 11.4265C47.6847 11.2959 47.69 11.1556 47.7361 11.0295L49.1616 7.76458L49.4345 7.13961L48.8027 6.8828L40.5797 3.54002L39.9037 3.26524L39.693 3.96378L38.6427 7.44428L38.6427 7.44428L38.6419 7.44681C38.6001 7.58754 38.5137 7.7002 38.4068 7.76989C38.3095 7.83334 38.199 7.85925 38.0912 7.84815C37.8726 7.788 37.65 7.7462 37.4256 7.72301V6.53576H37.7126L37.8598 6.07233L39.0505 2.32528C39.066 2.28171 39.0859 2.24109 39.1093 2.20392H40.4072L50.412 6.10566C50.468 6.13389 50.5205 6.17344 50.5662 6.2237L51.0425 5.79071L50.5662 6.2237C50.6159 6.2784 50.6564 6.34457 50.6839 6.41912C50.7114 6.49372 50.7249 6.57419 50.723 6.65563C50.7211 6.73646 50.7041 6.81535 50.6738 6.88763C50.6736 6.88817 50.6734 6.88872 50.6731 6.88926L49.1352 10.4661L48.9302 10.9428L49.3429 11.2574C51.0773 12.5794 52.641 14.1334 53.9942 15.8807L54.3404 16.3277L54.8371 16.0578L58.0065 14.3356H58.0606L58.1884 14.2795C58.2503 14.2523 58.3155 14.2387 58.3805 14.2385C58.4456 14.2384 58.5109 14.2516 58.5729 14.2784C58.635 14.3053 58.6935 14.3456 58.7444 14.3989C58.7952 14.4521 58.8372 14.5172 58.8663 14.5909L58.87 14.6003L58.874 14.6097L63.5259 25.4205C63.5557 25.4949 63.5715 25.5759 63.5715 25.6585C63.5715 25.7428 63.5551 25.8254 63.5241 25.901L63.5241 25.901L63.5217 25.9069C63.4913 25.9831 63.4473 26.0498 63.3939 26.1039C63.3406 26.1578 63.2793 26.1979 63.2145 26.2235L63.2134 26.2239L59.7165 27.6136L59.2259 27.8086L59.3047 28.3306C59.6423 30.5661 59.701 32.8382 59.4795 35.0897ZM55.4865 45.421C55.2288 45.3005 54.9388 45.2797 54.6679 45.3622C54.397 45.4447 54.1627 45.6252 54.0066 45.8717C52.5475 48.1529 50.7318 50.1592 48.6359 51.8061C48.4046 51.9823 48.2413 52.2396 48.1756 52.5314C48.1099 52.8232 48.1462 53.13 48.2779 53.3961L55.4865 45.421Z" fill="white" stroke="white" stroke-width="1.32947"/>
<path d="M43.9711 23.9244C45.8395 26.2219 46.8743 29.1448 46.8854 32.1743C46.8781 35.2018 45.8442 38.1235 43.9751 40.4177C42.2783 42.5002 39.9952 43.941 37.4736 44.5441V43.3851C39.7944 42.8007 41.8726 41.4444 43.3949 39.5188C45.033 37.4467 45.9262 34.8442 45.9262 32.1614C45.9262 29.4786 45.033 26.8761 43.3949 24.804C41.8726 22.8784 39.7944 21.5221 37.4736 20.9377V19.7814C39.9945 20.3931 42.2755 21.8393 43.9711 23.9244Z" fill="white" stroke="white" stroke-width="1.32947"/>
<path d="M34.6937 6.21611L34.6963 6.21777C34.7734 6.26703 34.8408 6.33882 34.8887 6.429C34.9368 6.51933 34.9628 6.62333 34.9622 6.73053V6.73422V57.7251C34.9613 57.8329 34.9336 57.937 34.8838 58.0267L35.4652 58.349L34.8838 58.0267C34.8339 58.1168 34.7646 58.1877 34.6858 58.2354L34.6818 58.2378L27.5209 62.6448L27.518 62.6466C27.4487 62.6898 27.3729 62.7142 27.2965 62.7201C27.2067 62.7038 27.1194 62.6648 27.0423 62.6034L27.0088 62.5767L26.9722 62.5545L12.6629 53.8983C12.5899 53.8485 12.5265 53.7782 12.4811 53.6912C12.434 53.6008 12.409 53.4971 12.4102 53.3905H12.4102V53.3829V45.2075V44.8567L12.1206 44.6587L5.47863 40.1179C5.40781 40.0668 5.34682 39.996 5.30361 39.9095C5.25958 39.8213 5.23628 39.7212 5.2374 39.6184H5.23744V39.6112L5.23745 24.5874L5.23744 24.5862C5.23722 24.4696 5.26834 24.3574 5.32458 24.2626C5.38069 24.168 5.45826 24.0964 5.54493 24.0519L5.55357 24.0474L5.56208 24.0427L12.0546 20.4621L12.3983 20.2725V19.88V11.0052C12.4038 10.899 12.4352 10.798 12.4874 10.7119L11.9188 10.3675L12.4874 10.7119C12.541 10.6233 12.6137 10.5552 12.6949 10.5111L12.712 10.5018L12.7286 10.4916L27.0466 1.60482C27.1248 1.558 27.2109 1.53473 27.2965 1.53473C27.3806 1.53473 27.4651 1.55722 27.5424 1.60246L34.6937 6.21611ZM33.5761 57.5549L33.8928 57.3603V56.9886V42.0901V40.896L32.8778 41.5251L19.8818 49.5805L19.3291 48.5658L26.4102 44.2995L26.7319 44.1057V43.7302V36.5939V36.1897L26.373 36.0037L20.4057 32.9113L20.0731 32.739L19.7535 32.9341L13.6364 36.6678L13.0933 35.6937L19.248 32.006L19.5711 31.8124V31.4357V25.589V25.2086L19.243 25.0159L13.2757 21.5103L12.9517 21.32L12.6216 21.4994L6.65421 24.742L6.30686 24.9308V25.3261V30.0335V31.2035L7.31188 30.6046L11.8054 27.9268L12.3575 28.9286L6.6303 32.3552L6.30686 32.5487V32.9256V38.8725V39.2172L6.58859 39.4158L12.556 43.6224L12.9094 43.8716L13.2804 43.6495L19.1101 40.1598L19.6629 41.163L13.7886 44.7137L13.4677 44.9077V45.2826V52.7068V53.0823L13.7893 53.2762L19.2315 56.5563L19.5821 56.7677L19.9286 56.5497L27.1765 51.9901L27.7217 52.9681L21.548 56.8516L20.6361 57.4252L21.5578 57.983L26.9165 61.2256L27.2634 61.4355L27.6088 61.2232L33.5761 57.5549ZM27.7894 42.2653V43.4347L28.7942 42.8365L33.5681 39.9945L33.8928 39.8012V39.4234V31.586V31.2114L33.5723 31.0174L28.7834 28.1178L29.3349 27.1168L32.8841 29.2627L33.8928 29.8726V28.6939V6.89698V6.53572L33.5896 6.33921L27.6223 2.4706L27.2707 2.24267L26.9134 2.46155L20.946 6.11732L20.6285 6.31182V6.68415V14.6455H19.5711V8.16148V6.95497L18.5512 7.59957L13.7773 10.6168L13.4677 10.8125V11.1787V19.3166V19.697L13.7957 19.8898L19.7631 23.3953L20.0974 23.5917L20.4329 23.3974L26.4003 19.9419L26.7319 19.7499V19.3667V10.9671H27.7894V20.1293C27.7892 20.2394 27.761 20.3457 27.71 20.4371C27.659 20.5283 27.5881 20.5996 27.5078 20.647L27.5075 20.6472L20.9553 24.5158L20.6285 24.7087V25.0882V30.7722V31.1731L20.9832 31.3602L27.503 34.7986C27.585 34.8458 27.6576 34.9177 27.7096 35.0104C27.7629 35.1054 27.7914 35.2164 27.7895 35.331L27.7894 35.331V35.3419V42.2653Z" fill="white" stroke="white" stroke-width="1.32947"/>
</g>
<defs>
<filter id="filter0_d" x="0.572632" y="0.869995" width="67.6859" height="70.5162" filterUnits="userSpaceOnUse" color-interpolation-filters="sRGB">
<feFlood flood-opacity="0" result="BackgroundImageFix"/>
<feColorMatrix in="SourceAlpha" type="matrix" values="0 0 0 0 0 0 0 0 0 0 0 0 0 0 0 0 0 0 127 0"/>
<feOffset dy="4"/>
<feGaussianBlur stdDeviation="2"/>
<feColorMatrix type="matrix" values="0 0 0 0 0 0 0 0 0 0 0 0 0 0 0 0 0 0 0.25 0"/>
<feBlend mode="normal" in2="BackgroundImageFix" result="effect1_dropShadow"/>
<feBlend mode="normal" in="SourceGraphic" in2="effect1_dropShadow" result="shape"/>
</filter>
</defs>
</svg>
