<svg width="61" height="64" viewBox="0 0 61 64" fill="none" xmlns="http://www.w3.org/2000/svg">
<path d="M60.2584 36.7323C60.1199 36.5499 59.933 36.4149 59.7213 36.3441L56.1409 35.1548C56.3678 32.8486 56.3077 30.5212 55.9619 28.2313L59.4588 26.8416C59.6109 26.7815 59.7497 26.6894 59.8666 26.571C59.9836 26.4526 60.0763 26.3104 60.139 26.153C60.2031 25.9968 60.2361 25.8286 60.2361 25.6585C60.2361 25.4885 60.2031 25.3202 60.139 25.164L55.4845 14.3469C55.4244 14.1946 55.3362 14.0563 55.225 13.9398C55.1139 13.8234 54.9819 13.7311 54.8366 13.6683C54.6913 13.6054 54.5357 13.5733 54.3786 13.5738C54.2215 13.5742 54.066 13.6072 53.921 13.6708H53.8375L50.5196 15.4737C49.1315 13.6813 47.5267 12.0862 45.7457 10.7287L47.2853 7.14802C47.3489 6.99759 47.3836 6.8355 47.3874 6.67101C47.3912 6.50651 47.3641 6.34284 47.3075 6.18935C47.251 6.03587 47.1662 5.89558 47.0579 5.7765C46.9497 5.65743 46.8201 5.56191 46.6766 5.4954L36.5321 1.53915H34.8255C34.6396 1.68558 34.4986 1.88574 34.4197 2.11506L33.2262 5.871H32.7607V8.37495C33.1624 8.34599 33.5659 8.38832 33.9542 8.50015C34.2371 8.54683 34.5265 8.48526 34.7697 8.32667C35.0129 8.16808 35.1937 7.92305 35.279 7.63629L36.3292 4.15579L44.5523 7.49857L43.1201 10.7788C43.0179 11.0431 43.0047 11.3361 43.0828 11.6093C43.161 11.8825 43.3257 12.1195 43.5497 12.2811C45.7319 13.791 47.6496 15.6842 49.2187 17.8775C49.3867 18.1201 49.632 18.2914 49.9102 18.3604C50.1883 18.4293 50.4808 18.3912 50.7345 18.2531L53.8733 16.5629L57.4537 24.9511L54.2075 26.2031C53.9449 26.3095 53.7266 26.5099 53.5912 26.7687C53.4558 27.0276 53.412 27.3284 53.4675 27.6179C53.9803 30.3021 54.053 33.0584 53.6823 35.7682C53.6347 36.0669 53.6919 36.3736 53.8433 36.6314C53.9948 36.8892 54.2301 37.0807 54.5058 37.1704L57.8118 38.2597L54.6729 46.8608L51.4863 45.421C51.2287 45.3005 50.9387 45.2797 50.6678 45.3622C50.3968 45.4447 50.1626 45.6252 50.0064 45.8717C48.5474 48.1528 46.7317 50.1592 44.6358 51.8061C44.4045 51.9822 44.2412 52.2396 44.1755 52.5314C44.1098 52.8232 44.1461 53.13 44.2778 53.3961L45.9367 56.6262L37.9046 60.3821L36.7111 57.0143C36.6014 56.7274 36.3945 56.4933 36.1301 56.3569C35.8657 56.2206 35.5625 56.1916 35.279 56.2756C34.4619 56.4379 33.6373 56.5549 32.8085 56.6262V59.1301C33.4541 59.1065 34.0968 59.027 34.73 58.8923L36.0547 62.523C36.1134 62.6803 36.2018 62.8235 36.3146 62.9439C36.4274 63.0644 36.5623 63.1597 36.7111 63.2241C36.8634 63.2948 37.028 63.3314 37.1945 63.3314C37.361 63.3314 37.5256 63.2948 37.6779 63.2241L48.0133 58.3915C48.1677 58.3226 48.3064 58.2203 48.4205 58.0913C48.5346 57.9623 48.6215 57.8096 48.6756 57.643C48.7296 57.4765 48.7496 57.2998 48.7342 57.1246C48.7188 56.9494 48.6684 56.7796 48.5862 56.6262L46.8795 53.1707C48.5966 51.7162 50.1252 50.0327 51.4267 48.1628L54.8281 49.7528C54.9739 49.8275 55.1327 49.8702 55.2947 49.8783C55.4568 49.8864 55.6187 49.8597 55.7706 49.8C55.9225 49.7402 56.0612 49.6486 56.1782 49.5307C56.2953 49.4128 56.3881 49.2711 56.4512 49.1143L60.2584 38.6478V36.7323Z" fill="#333333"/>
<path d="M43.5498 32.174C43.5386 28.9951 42.4532 25.9234 40.4865 23.505C38.5198 21.0866 35.7993 19.4781 32.8086 18.9656V21.4696C35.1846 21.9388 37.3297 23.264 38.8731 25.2163C40.4165 27.1686 41.2612 29.6252 41.2612 32.1614C41.2612 34.6977 40.4165 37.1543 38.8731 39.1066C37.3297 41.0588 35.1846 42.3841 32.8086 42.8533V45.3573C35.7994 44.855 38.5222 43.2529 40.4901 40.8376C42.458 38.4223 43.5426 35.3513 43.5498 32.174Z" fill="#333333"/>
<path d="M31.0537 5.65749L23.8928 1.0377C23.7114 0.927813 23.5056 0.869965 23.2961 0.869965C23.0866 0.869965 22.8808 0.927813 22.6993 1.0377L8.37766 9.92674C8.19011 10.0285 8.03163 10.1806 7.91841 10.3675C7.80519 10.5545 7.74127 10.7696 7.73319 10.9909V19.88L1.24069 23.4606C1.03982 23.5639 0.87066 23.7242 0.752489 23.9235C0.634318 24.1227 0.571896 24.3527 0.572344 24.5874V39.6111C0.57008 39.8183 0.616872 40.0229 0.708523 40.2064C0.800175 40.3899 0.93382 40.5468 1.09747 40.6628L7.74512 45.2075V53.3829C7.74267 53.5978 7.79299 53.8097 7.89123 53.9983C7.98947 54.1868 8.13233 54.3457 8.30605 54.4596L22.6277 63.1233C22.8117 63.2698 23.0305 63.3608 23.2603 63.3862C23.4745 63.3861 23.6847 63.3256 23.869 63.2109L31.0298 58.8039C31.2102 58.6947 31.3602 58.5378 31.4649 58.3489C31.5695 58.1601 31.6253 57.9457 31.6265 57.7272V6.73419C31.6277 6.51812 31.5756 6.30541 31.4752 6.11673C31.3748 5.92806 31.2296 5.76985 31.0537 5.65749ZM29.2277 56.9886L23.2603 60.6569L17.9016 57.4142L24.6089 53.1951L23.4154 51.0542L15.5743 55.987L10.1321 52.7068V45.2826L16.553 41.4015L15.3595 39.2355L8.9386 43.0791L2.97123 38.8725V32.9256L9.2489 29.1696L8.05543 27.0037L2.97123 30.0335V25.3261L8.9386 22.0834L14.906 25.589V31.4357L8.19864 35.4546L9.39212 37.5954L16.0994 33.5015L22.0668 36.5939V43.7301L14.4405 48.3249L15.634 50.5159L29.2277 42.09V56.9886ZM24.4538 42.2653V35.3419C24.4576 35.1112 24.4005 34.8838 24.2889 34.685C24.1772 34.4861 24.0154 34.3235 23.8212 34.2151L17.2929 30.7722V25.0882L23.8451 21.2196C24.0294 21.1109 24.1829 20.9527 24.2899 20.7613C24.3968 20.57 24.4534 20.3522 24.4538 20.1304V10.3023H22.0668V19.3666L16.0994 22.8221L10.1321 19.3166V11.1787L14.906 8.16145V15.3102H17.2929V6.68412L23.2603 3.02834L29.2277 6.89695V28.6939L25.0863 26.1899L23.8928 28.3558L29.2277 31.5859V39.4233L24.4538 42.2653Z" fill="#333333"/>
</svg>
