<svg width="138" height="149" viewBox="0 0 138 149" fill="none" xmlns="http://www.w3.org/2000/svg">
<path d="M1.32947 1.32947H136.009V108.632C136.009 119.91 128.533 129.822 117.689 132.92L75.0115 145.114C70.4329 146.422 65.5779 146.41 61.0062 145.078L19.5237 132.992C8.74259 129.851 1.32947 119.97 1.32947 108.74V1.32947Z" fill="white" stroke="#4286C1" stroke-width="2.65894"/>
<path d="M5 5H132V62.5L68.5 74L5 62.5V5Z" fill="#4286C1"/>
<path d="M5.00001 65L67 76.1736L67 143L21.7149 130.135C11.8243 127.326 4.99999 118.293 5 108.011L5.00001 65Z" fill="#4286C1"/>
<path d="M132 65L69 76.1736L69 143L115.193 130.086C125.129 127.308 132 118.253 132 107.935L132 65Z" fill="#4286C1"/>
<path d="M68 144V3" stroke="white" stroke-width="3"/>
</svg>
