<svg width="284" height="49" viewBox="0 0 284 49" fill="none" xmlns="http://www.w3.org/2000/svg">
<path d="M31.1563 34.2611L28.5869 44.3398C27.7527 47.6054 25.6029 48.6462 23.105 48.6462H3.0508L0.829435 41.2126L7.90347 39.6132L8.73767 42.3918H21.9181C22.5425 41.9049 22.8905 40.5824 23.3052 38.5008L24.2109 34.2611L23.4482 31.6209C23.1003 30.4417 22.8238 29.8162 22.3376 29.4677L5.12915 23.1465C3.11753 22.3826 2.28333 20.9933 1.73037 19.1838L0 13.4116L2.77432 3.75313C3.74676 0.487479 5.4819 0.000488281 7.62699 0.000488281H27.891L30.1791 7.50575L23.1003 9.03354L22.1993 6.11642H9.3669C8.80918 6.46494 8.5327 7.22885 7.97974 9.45369L6.9358 13.4164L7.48875 15.5028C7.76523 16.5436 8.11321 17.4507 8.66617 17.8661L25.6648 23.8435C27.6764 24.5358 28.5774 25.9968 29.1351 27.7346L31.1563 34.2611Z" fill="#333333"/>
<path d="M78.4381 12.3705V48.6459H72.3937V11.282H71.8503L61.511 41.3793H56.1292L45.7898 11.282H45.2464V48.6459H39.1973V12.3705L40.47 6.25464H50.204L58.851 31.7495L67.4362 6.25464H77.1749L78.4381 12.3705Z" fill="#333333"/>
<path d="M107.454 37.0777H93.4302L90.6464 48.6459H84.2969L95.0605 6.25464H105.824L116.588 48.6459H110.238L107.454 37.0777ZM106.186 31.6302L101.41 11.7069H99.4746L94.6982 31.6302H106.186Z" fill="#333333"/>
<path d="M141.614 48.646L138.53 34.8386H128.491V48.5839H122.446V6.25464H140.584C143.306 6.25464 144.517 6.73685 145.361 9.76856L148.202 20.0047L145.48 30.7852C145.18 31.9358 144.812 32.7235 144.393 33.3299L148.321 48.6507H141.614V48.646ZM140.408 27.6914L142.038 20L140.408 13.3397C140.227 12.4899 139.864 11.8263 139.502 11.5828H128.495V29.3863H139.502C139.86 29.1476 140.227 28.4219 140.408 27.6914Z" fill="#333333"/>
<path d="M168.942 11.5828V48.6459H162.897V11.5828H152.377L153.526 6.25464H178.194L179.343 11.5828H168.942Z" fill="#333333"/>
<path d="M204.488 40.773L210.656 42.1671L208.721 48.6459H185.926V6.25464H208.721L210.718 12.7955L204.55 14.1275L203.763 11.5828H191.975V24.4209H202.433L203.401 27.2044L202.433 29.9305H191.975V43.1936H203.763L204.488 40.773Z" fill="#333333"/>
<path d="M236.712 48.646L233.628 34.8386H223.589V48.5839H217.545V6.25464H235.683C238.405 6.25464 239.615 6.73685 240.459 9.76856L243.3 20.0047L240.578 30.7852C240.278 31.9358 239.911 32.7235 239.492 33.3299L243.419 48.6507H236.712V48.646ZM235.506 27.6914L237.137 20L235.506 13.3397C235.325 12.4899 234.963 11.8263 234.601 11.5828H223.594V29.3863H234.601C234.963 29.1476 235.325 28.4219 235.506 27.6914Z" fill="#333333"/>
<path d="M284 24.3253L279.977 42.8115C278.933 47.5381 276.926 48.6506 274.008 48.6506H251.39V0H274.008C276.921 0 278.861 0.763894 279.834 5.28042L284 24.3253ZM276.993 24.3253L273.522 8.76092C273.174 7.09468 272.831 6.33078 272.345 6.12071H258.33V42.3962H272.345C272.831 42.0476 273.456 41.0737 273.87 38.9921L276.993 24.3253Z" fill="url(#paint0_linear)"/>
<defs>
<linearGradient id="paint0_linear" x1="267.696" y1="-13.9145" x2="267.696" y2="56.6655" gradientUnits="userSpaceOnUse">
<stop stop-color="#00FFF8"/>
<stop offset="1" stop-color="#487CBC"/>
</linearGradient>
</defs>
</svg>
