<svg width="419" height="72" viewBox="0 0 419 72" fill="none" xmlns="http://www.w3.org/2000/svg">
<path d="M46.2373 50.8387L42.4672 65.604C41.2432 70.3882 38.0887 71.913 34.4236 71.913H4.99794L1.73852 61.0226L12.1183 58.6795L13.3423 62.7503H32.682C33.5983 62.0368 34.1089 60.0994 34.7174 57.0498L36.0463 50.8387L34.9272 46.9708C34.4166 45.2431 34.0109 44.3269 33.2975 43.8163L8.04752 34.5556C5.09586 33.4365 3.87183 31.4011 3.06047 28.7502L0.521484 20.2939L4.59226 6.14414C6.01913 1.35993 8.56511 0.646484 11.7126 0.646484H41.446L44.8034 11.6418L34.4166 13.88L33.0947 9.60638H14.2656C13.4472 10.117 13.0416 11.2361 12.2302 14.4955L10.6984 20.3009L11.5098 23.3575C11.9155 24.8823 12.426 26.2112 13.2374 26.8197L38.1796 35.5768C41.1313 36.591 42.4532 38.7313 43.2716 41.2773L46.2373 50.8387Z" fill="#333333"/>
<path d="M115.615 18.769V71.9129H106.746V17.1742H105.949L90.7782 61.2673H82.8814L67.7104 17.1742H66.9131V71.9129H58.0371V18.769L59.9046 9.80908H74.1873L86.8753 47.1595L99.4723 9.80908H113.762L115.615 18.769Z" fill="#333333"/>
<path d="M159.191 54.9653H138.613L134.529 71.9129H125.212L141.005 9.80908H156.799L172.592 71.9129H163.276L159.191 54.9653ZM157.33 46.9846L150.322 17.7968H147.482L140.474 46.9846H157.33Z" fill="#333333"/>
<path d="M209.312 71.9129L204.787 51.6849H190.056V71.8219H181.188V9.80908H207.801C211.795 9.80908 213.572 10.5155 214.81 14.957L218.979 29.9531L214.985 45.7466C214.544 47.4323 214.006 48.5863 213.39 49.4746L219.153 71.9199H209.312V71.9129ZM207.543 41.2142L209.935 29.9461L207.543 20.1889C207.277 18.9438 206.745 17.9716 206.214 17.6149H190.063V43.6972H206.214C206.738 43.3475 207.277 42.2843 207.543 41.2142Z" fill="#333333"/>
<path d="M249.411 17.6149V71.9129H240.542V17.6149H225.105L226.791 9.80908H262.987L264.673 17.6149H249.411Z" fill="#333333"/>
<path d="M301.568 60.379L310.619 62.4214L307.78 71.9129H274.332V9.80908H307.78L310.71 19.3915L301.659 21.3429L300.505 17.6149H283.208V36.423H298.554L299.974 40.5008L298.554 44.4946H283.208V63.9252H300.505L301.568 60.379Z" fill="#333333"/>
<path d="M348.851 71.9129L344.326 51.6849H329.596V71.8219H320.727V9.80908H347.34C351.334 9.80908 353.111 10.5155 354.349 14.957L358.518 29.9531L354.524 45.7466C354.083 47.4323 353.545 48.5863 352.929 49.4746L358.692 71.9199H348.851V71.9129ZM347.082 41.2142L349.474 29.9461L347.082 20.1889C346.816 18.9438 346.284 17.9716 345.753 17.6149H329.603V43.6972H345.753C346.284 43.3475 346.816 42.2843 347.082 41.2142Z" fill="#333333"/>
<path d="M418.238 36.2832L412.334 63.3658C410.803 70.2903 407.858 71.92 403.577 71.92H370.389V0.646484H403.577C407.851 0.646484 410.698 1.7656 412.125 8.38235L418.238 36.2832ZM407.956 36.2832L402.864 13.4813C402.353 11.0403 401.85 9.92114 401.136 9.61338H380.573V62.7573H401.136C401.85 62.2467 402.766 60.8198 403.375 57.7702L407.956 36.2832Z" fill="url(#paint0_linear)"/>
<defs>
<linearGradient id="paint0_linear" x1="394.315" y1="-0.873621" x2="394.315" y2="89.7245" gradientUnits="userSpaceOnUse">
<stop stop-color="#00FFF8"/>
<stop offset="1" stop-color="#487CBC"/>
</linearGradient>
</defs>
</svg>
