<svg width="61" height="64" viewBox="0 0 61 64" fill="none" xmlns="http://www.w3.org/2000/svg">
<path d="M60.2589 36.7323C60.1204 36.55 59.9335 36.4149 59.7218 36.3442L56.1414 35.1548C56.3683 32.8486 56.3081 30.5212 55.9624 28.2314L59.4592 26.8417C59.6114 26.7815 59.7502 26.6894 59.8671 26.571C59.9841 26.4526 60.0768 26.3104 60.1395 26.1531C60.2036 25.9969 60.2366 25.8286 60.2366 25.6585C60.2366 25.4885 60.2036 25.3202 60.1395 25.164L55.485 14.3469C55.4249 14.1946 55.3367 14.0563 55.2255 13.9398C55.1143 13.8234 54.9823 13.7311 54.8371 13.6683C54.6918 13.6055 54.5362 13.5734 54.3791 13.5738C54.2219 13.5742 54.0665 13.6072 53.9215 13.6708H53.838L50.5201 15.4737C49.132 13.6813 47.5272 12.0862 45.7462 10.7287L47.2858 7.14805C47.3494 6.99762 47.3841 6.83553 47.3879 6.67104C47.3917 6.50654 47.3646 6.34287 47.308 6.18939C47.2515 6.0359 47.1667 5.89561 47.0584 5.77653C46.9502 5.65746 46.8206 5.56194 46.6771 5.49543L36.5326 1.53918H34.8259C34.6401 1.68561 34.4991 1.88577 34.4202 2.11509L33.2267 5.87103H32.7612V8.37498C33.1629 8.34602 33.5664 8.38835 33.9547 8.50018C34.2376 8.54686 34.527 8.48529 34.7702 8.3267C35.0134 8.16811 35.1942 7.92308 35.2795 7.63632L36.3297 4.15582L44.5528 7.4986L43.1206 10.7788C43.0183 11.0431 43.0052 11.3361 43.0833 11.6093C43.1615 11.8825 43.3262 12.1195 43.5502 12.2812C45.7324 13.791 47.6501 15.6842 49.2192 17.8775C49.3871 18.1201 49.6325 18.2915 49.9106 18.3604C50.1888 18.4293 50.4813 18.3912 50.7349 18.2531L53.8738 16.5629L57.4542 24.9512L54.208 26.2032C53.9454 26.3096 53.7271 26.5099 53.5917 26.7688C53.4563 27.0277 53.4125 27.3284 53.468 27.6179C53.9808 30.3021 54.0535 33.0584 53.6828 35.7683C53.6352 36.0669 53.6924 36.3736 53.8438 36.6314C53.9952 36.8892 54.2306 37.0807 54.5063 37.1705L57.8122 38.2597L54.6734 46.8608L51.4868 45.421C51.2292 45.3005 50.9392 45.2797 50.6682 45.3622C50.3973 45.4447 50.163 45.6252 50.0069 45.8717C48.5479 48.1529 46.7322 50.1592 44.6363 51.8061C44.405 51.9823 44.2417 52.2396 44.176 52.5314C44.1103 52.8232 44.1466 53.13 44.2783 53.3961L45.9372 56.6262L37.9051 60.3822L36.7116 57.0143C36.6019 56.7275 36.395 56.4933 36.1306 56.357C35.8661 56.2206 35.563 56.1916 35.2795 56.2757C34.4624 56.4379 33.6378 56.5549 32.809 56.6262V59.1302C33.4546 59.1066 34.0973 59.027 34.7305 58.8923L36.0552 62.523C36.1139 62.6803 36.2023 62.8235 36.3151 62.944C36.4279 63.0645 36.5628 63.1598 36.7116 63.2241C36.8639 63.2949 37.0285 63.3314 37.195 63.3314C37.3615 63.3314 37.5261 63.2949 37.6783 63.2241L48.0138 58.3915C48.1681 58.3226 48.3069 58.2203 48.421 58.0913C48.5351 57.9624 48.622 57.8096 48.6761 57.6431C48.7301 57.4765 48.7501 57.2999 48.7347 57.1247C48.7193 56.9494 48.6689 56.7796 48.5867 56.6262L46.88 53.1708C48.5971 51.7162 50.1257 50.0327 51.4272 48.1628L54.8286 49.7529C54.9744 49.8275 55.1331 49.8702 55.2952 49.8783C55.4573 49.8864 55.6192 49.8598 55.7711 49.8C55.923 49.7402 56.0617 49.6486 56.1787 49.5307C56.2958 49.4128 56.3886 49.2712 56.4517 49.1143L60.2589 38.6478V36.7323Z" fill="url(#paint0_linear)"/>
<path d="M43.5503 32.1739C43.5391 28.9951 42.4537 25.9234 40.487 23.505C38.5203 21.0865 35.7998 19.4781 32.8091 18.9656V21.4695C35.1851 21.9387 37.3302 23.264 38.8736 25.2163C40.417 27.1686 41.2617 29.6251 41.2617 32.1614C41.2617 34.6977 40.417 37.1543 38.8736 39.1065C37.3302 41.0588 35.1851 42.3841 32.8091 42.8533V45.3572C35.7998 44.8549 38.5227 43.2529 40.4906 40.8375C42.4585 38.4222 43.5431 35.3512 43.5503 32.1739Z" fill="url(#paint1_linear)"/>
<path d="M31.0542 5.65753L23.8933 1.03773C23.7119 0.927844 23.5061 0.869995 23.2966 0.869995C23.0871 0.869995 22.8813 0.927844 22.6998 1.03773L8.37815 9.92677C8.1906 10.0285 8.03212 10.1806 7.9189 10.3675C7.80568 10.5545 7.74176 10.7696 7.73368 10.9909V19.88L1.24118 23.4606C1.04031 23.5639 0.871149 23.7243 0.752977 23.9235C0.634806 24.1227 0.572385 24.3528 0.572832 24.5874V39.6112C0.570568 39.8183 0.61736 40.0229 0.709012 40.2064C0.800663 40.39 0.934308 40.5468 1.09796 40.6628L7.74561 45.2075V53.3829C7.74316 53.5978 7.79348 53.8097 7.89172 53.9983C7.98996 54.1869 8.13282 54.3457 8.30654 54.4596L22.6282 63.1233C22.8122 63.2699 23.031 63.3608 23.2608 63.3862C23.475 63.3861 23.6852 63.3256 23.8694 63.2109L31.0303 58.804C31.2107 58.6947 31.3607 58.5379 31.4653 58.349C31.57 58.1601 31.6258 57.9458 31.627 57.7273V6.73422C31.6282 6.51815 31.5761 6.30544 31.4757 6.11676C31.3753 5.92809 31.2301 5.76988 31.0542 5.65753ZM29.2281 56.9886L23.2608 60.6569L17.9021 57.4143L24.6094 53.1951L23.4159 51.0542L15.5748 55.987L10.1326 52.7068V45.2826L16.5534 41.4015L15.36 39.2356L8.93909 43.0791L2.97172 38.8725V32.9256L9.24939 29.1697L8.05591 27.0037L2.97172 30.0335V25.3261L8.93909 22.0835L14.9065 25.589V31.4357L8.19913 35.4546L9.39261 37.5955L16.0999 33.5015L22.0673 36.5939V43.7302L14.441 48.3249L15.6345 50.5159L29.2281 42.0901V56.9886ZM24.4542 42.2653V35.3419C24.458 35.1112 24.401 34.8839 24.2893 34.685C24.1777 34.4862 24.0159 34.3236 23.8217 34.2151L17.2934 30.7722V25.0882L23.8456 21.2196C24.0299 21.1109 24.1834 20.9528 24.2904 20.7614C24.3973 20.57 24.4539 20.3522 24.4542 20.1304V10.3024H22.0673V19.3667L16.0999 22.8221L10.1326 19.3166V11.1787L14.9065 8.16148V15.3103H17.2934V6.68415L23.2608 3.02837L29.2281 6.89698V28.6939L25.0868 26.19L23.8933 28.3559L29.2281 31.586V39.4234L24.4542 42.2653Z" fill="url(#paint2_linear)"/>
<defs>
<linearGradient id="paint0_linear" x1="46.51" y1="1.53918" x2="46.51" y2="63.3314" gradientUnits="userSpaceOnUse">
<stop stop-color="#03CDFA"/>
<stop offset="1" stop-color="#31A2D0"/>
</linearGradient>
<linearGradient id="paint1_linear" x1="38.1797" y1="18.9656" x2="38.1797" y2="45.3572" gradientUnits="userSpaceOnUse">
<stop stop-color="#03CDFA"/>
<stop offset="1" stop-color="#31A2D0"/>
</linearGradient>
<linearGradient id="paint2_linear" x1="16.0999" y1="0.869995" x2="16.0999" y2="63.3862" gradientUnits="userSpaceOnUse">
<stop stop-color="#03CDFA"/>
<stop offset="1" stop-color="#31A2D0"/>
</linearGradient>
</defs>
</svg>
