<svg width="88" height="87" viewBox="0 0 88 87" fill="none" xmlns="http://www.w3.org/2000/svg">
<path d="M45.445 66.5745H4.9334C4.47502 66.5745 4.03542 66.3924 3.7113 66.0683C3.38717 65.7442 3.20509 65.3046 3.20509 64.8462V4.89115C3.20509 4.43277 3.38717 3.99317 3.7113 3.66905C4.03542 3.34493 4.47502 3.16284 4.9334 3.16284H53.5335C53.9918 3.16284 54.4314 3.34493 54.7556 3.66905C55.0797 3.99317 55.2618 4.43277 55.2618 4.89115V51.8493H51.8051V6.61946H6.6617V63.1179H45.445V66.5745Z" fill="url(#paint0_linear)"/>
<path d="M48.6944 16.1252H27.6263V19.5818H48.6944V16.1252Z" fill="url(#paint1_linear)"/>
<path d="M48.6944 33.9617H27.6263V37.4183H48.6944V33.9617Z" fill="url(#paint2_linear)"/>
<path d="M48.6944 50.1552H27.6263V53.6118H48.6944V50.1552Z" fill="url(#paint3_linear)"/>
<path d="M14.9748 22.3469C14.5239 22.3496 14.0897 22.176 13.765 21.863L8.58009 16.6781L10.9824 14.2584L14.7847 18.0089L21.3869 9.36731L24.1349 11.4067L16.3575 21.6729C16.2075 21.8688 16.0173 22.0303 15.7997 22.1465C15.582 22.2628 15.342 22.3311 15.0958 22.3469H14.9748Z" fill="url(#paint4_linear)"/>
<path d="M14.9748 39.63C14.5239 39.6327 14.0897 39.459 13.765 39.1461L8.58009 33.9611L10.9824 31.5415L14.7847 35.2919L21.3869 26.6504L24.1349 28.7416L16.3575 39.0078C16.2075 39.2037 16.0173 39.3652 15.7997 39.4815C15.582 39.5977 15.342 39.6661 15.0958 39.6818L14.9748 39.63Z" fill="url(#paint5_linear)"/>
<path d="M14.9748 56.9131C14.5239 56.9158 14.0897 56.7421 13.765 56.4291L8.58009 51.2442L10.9824 48.8246L14.7847 52.575L21.3869 43.9335L24.1349 46.0247L16.3575 56.2909C16.2075 56.4868 16.0173 56.6483 15.7997 56.7646C15.582 56.8808 15.342 56.9491 15.0958 56.9649L14.9748 56.9131Z" fill="url(#paint6_linear)"/>
<path d="M82.7075 84.393H40.5713C40.2697 84.3912 39.9738 84.3104 39.7131 84.1588C39.4523 84.0072 39.2358 83.79 39.085 83.5288C38.9333 83.2661 38.8534 82.9681 38.8534 82.6647C38.8534 82.3613 38.9333 82.0633 39.085 81.8005L60.153 46.1455C60.3061 45.8876 60.5236 45.6739 60.7842 45.5256C61.0448 45.3772 61.3395 45.2991 61.6394 45.2991C61.9393 45.2991 62.234 45.3772 62.4946 45.5256C62.7552 45.6739 62.9727 45.8876 63.1257 46.1455L84.1938 81.7832C84.3494 82.0456 84.4328 82.3445 84.4354 82.6496C84.4381 82.9546 84.36 83.2549 84.209 83.52C84.058 83.7851 83.8396 84.0055 83.5759 84.1588C83.3121 84.3121 83.0125 84.3929 82.7075 84.393ZM43.6131 80.9364H79.6829L61.6394 50.4144L43.6131 80.9364Z" fill="url(#paint7_linear)"/>
<path d="M61.6391 78.2753C61.346 78.2854 61.054 78.2342 60.7817 78.1251C60.5095 78.0159 60.263 77.8511 60.058 77.6413C59.8531 77.4315 59.6942 77.1812 59.5914 76.9065C59.4887 76.6317 59.4444 76.3386 59.4614 76.0458C59.4455 75.7558 59.4912 75.4657 59.5954 75.1946C59.6997 74.9235 59.8602 74.6776 60.0664 74.473C60.2707 74.2655 60.5162 74.1029 60.787 73.9958C61.0579 73.8887 61.3481 73.8393 61.6391 73.8508C62.2213 73.8508 62.7795 74.0821 63.1912 74.4937C63.6028 74.9053 63.8341 75.4636 63.8341 76.0458C63.8341 76.6279 63.6028 77.1862 63.1912 77.5978C62.7795 78.0095 62.2213 78.2407 61.6391 78.2407V78.2753ZM60.2392 72.3299L59.7034 61.165C60.3048 60.8644 60.9668 60.7048 61.6391 60.6984C62.317 60.7046 62.9846 60.8641 63.5921 61.165L63.0563 72.3299H60.2392Z" fill="url(#paint8_linear)"/>
<defs>
<linearGradient id="paint0_linear" x1="29.2334" y1="3.16284" x2="29.2334" y2="66.5745" gradientUnits="userSpaceOnUse">
<stop offset="0.0520833" stop-color="#03FAF6"/>
<stop offset="1" stop-color="#4287C1"/>
</linearGradient>
<linearGradient id="paint1_linear" x1="38.1603" y1="16.1252" x2="38.1603" y2="19.5818" gradientUnits="userSpaceOnUse">
<stop offset="0.0520833" stop-color="#03FAF6"/>
<stop offset="1" stop-color="#4287C1"/>
</linearGradient>
<linearGradient id="paint2_linear" x1="38.1603" y1="33.9617" x2="38.1603" y2="37.4183" gradientUnits="userSpaceOnUse">
<stop offset="0.0520833" stop-color="#03FAF6"/>
<stop offset="1" stop-color="#4287C1"/>
</linearGradient>
<linearGradient id="paint3_linear" x1="38.1603" y1="50.1552" x2="38.1603" y2="53.6118" gradientUnits="userSpaceOnUse">
<stop offset="0.0520833" stop-color="#03FAF6"/>
<stop offset="1" stop-color="#4287C1"/>
</linearGradient>
<linearGradient id="paint4_linear" x1="16.3575" y1="9.36731" x2="16.3575" y2="22.3469" gradientUnits="userSpaceOnUse">
<stop offset="0.0520833" stop-color="#03FAF6"/>
<stop offset="1" stop-color="#4287C1"/>
</linearGradient>
<linearGradient id="paint5_linear" x1="16.3575" y1="26.6504" x2="16.3575" y2="39.6818" gradientUnits="userSpaceOnUse">
<stop offset="0.0520833" stop-color="#03FAF6"/>
<stop offset="1" stop-color="#4287C1"/>
</linearGradient>
<linearGradient id="paint6_linear" x1="16.3575" y1="43.9335" x2="16.3575" y2="56.9649" gradientUnits="userSpaceOnUse">
<stop offset="0.0520833" stop-color="#03FAF6"/>
<stop offset="1" stop-color="#4287C1"/>
</linearGradient>
<linearGradient id="paint7_linear" x1="61.6444" y1="45.2991" x2="61.6444" y2="84.393" gradientUnits="userSpaceOnUse">
<stop offset="0.0520833" stop-color="#03FAF6"/>
<stop offset="1" stop-color="#4287C1"/>
</linearGradient>
<linearGradient id="paint8_linear" x1="61.646" y1="60.6984" x2="61.646" y2="78.2765" gradientUnits="userSpaceOnUse">
<stop offset="0.0520833" stop-color="#03FAF6"/>
<stop offset="1" stop-color="#4287C1"/>
</linearGradient>
</defs>
</svg>
