<svg width="95" height="95" viewBox="0 0 95 95" fill="none" xmlns="http://www.w3.org/2000/svg">
<path d="M27.7323 84.8551H10.0244C9.52366 84.8551 9.04348 84.6562 8.68944 84.3022C8.3354 83.9481 8.13651 83.468 8.13651 82.9673V44.021C8.13651 43.5203 8.3354 43.0402 8.68944 42.6861C9.04348 42.3321 9.52366 42.1332 10.0244 42.1332H27.7323C28.233 42.1332 28.7132 42.3321 29.0672 42.6861C29.4213 43.0402 29.6202 43.5203 29.6202 44.021V82.9673C29.6202 83.2152 29.5714 83.4607 29.4765 83.6897C29.3816 83.9188 29.2426 84.1269 29.0672 84.3022C28.8919 84.4775 28.6838 84.6165 28.4548 84.7114C28.2257 84.8063 27.9803 84.8551 27.7323 84.8551ZM11.9122 81.0794H25.8445V45.9089H11.9122V81.0794Z" fill="url(#paint0_linear)"/>
<path d="M56.0501 84.8545H38.3421C37.8414 84.8545 37.3612 84.6556 37.0072 84.3016C36.6532 83.9475 36.4543 83.4673 36.4543 82.9666V52.8744C36.4543 52.3737 36.6532 51.8935 37.0072 51.5395C37.3612 51.1854 37.8414 50.9865 38.3421 50.9865H56.0501C56.5508 50.9865 57.031 51.1854 57.385 51.5395C57.739 51.8935 57.9379 52.3737 57.9379 52.8744V82.9666C57.9379 83.4673 57.739 83.9475 57.385 84.3016C57.031 84.6556 56.5508 84.8545 56.0501 84.8545ZM40.2299 81.0788H54.1623V54.7622H40.2299V81.0788Z" fill="url(#paint1_linear)"/>
<path d="M91.4282 88.1588H2.94489V91.9344H91.4282V88.1588Z" fill="url(#paint2_linear)"/>
<path d="M84.3678 84.8554H66.6598C66.1592 84.8554 65.679 84.6565 65.3249 84.3024C64.9709 83.9484 64.772 83.4682 64.772 82.9675V38.7164C64.7727 38.4016 64.8521 38.0918 65.003 37.8155C65.1539 37.5391 65.3716 37.3049 65.6361 37.1342C65.9007 36.9634 66.2038 36.8616 66.5177 36.8379C66.8317 36.8142 67.1467 36.8694 67.4339 36.9985C69.9779 38.1277 72.7304 38.7111 75.5138 38.7111C78.2972 38.7111 81.0497 38.1277 83.5938 36.9985C83.881 36.8694 84.1959 36.8142 84.5099 36.8379C84.8239 36.8616 85.127 36.9634 85.3915 37.1342C85.6561 37.3049 85.8738 37.5391 86.0247 37.8155C86.1756 38.0918 86.255 38.4016 86.2557 38.7164V82.9675C86.2557 83.4682 86.0568 83.9484 85.7027 84.3024C85.3487 84.6565 84.8685 84.8554 84.3678 84.8554ZM68.5477 81.0797H82.48V41.4349C77.9381 42.8129 73.0896 42.8129 68.5477 41.4349V81.0797Z" fill="url(#paint3_linear)"/>
<path d="M75.5138 35.2991C72.3401 35.2991 69.2376 34.3579 66.5987 32.5947C63.9599 30.8315 61.9031 28.3253 60.6886 25.3932C59.4741 22.461 59.1563 19.2346 59.7754 16.1218C60.3946 13.0091 61.9229 10.1498 64.1671 7.90566C66.4112 5.66149 69.2705 4.13319 72.3832 3.51403C75.496 2.89486 78.7224 3.21264 81.6546 4.42718C84.5867 5.64171 87.0929 7.69846 88.8561 10.3373C90.6194 12.9762 91.5605 16.0786 91.5605 19.2524C91.5555 23.5067 89.8632 27.5853 86.855 30.5936C83.8467 33.6018 79.7681 35.2941 75.5138 35.2991ZM75.5138 6.98139C73.0868 6.98139 70.7144 7.70107 68.6964 9.04942C66.6784 10.3978 65.1056 12.3142 64.1769 14.5565C63.2481 16.7987 63.0051 19.266 63.4786 21.6463C63.9521 24.0267 65.1208 26.2132 66.8369 27.9293C68.553 29.6454 70.7395 30.8141 73.1198 31.2876C75.5002 31.7611 77.9675 31.5181 80.2097 30.5893C82.4519 29.6605 84.3684 28.0877 85.7168 26.0698C87.0651 24.0518 87.7848 21.6794 87.7848 19.2524C87.7798 15.9994 86.4854 12.8812 84.1852 10.581C81.885 8.28082 78.7667 6.98638 75.5138 6.98139Z" fill="url(#paint4_linear)"/>
<path d="M77.4015 22.8767H66.6974V19.101H73.6258V10.398H77.4015V22.8767Z" fill="url(#paint5_linear)"/>
<defs>
<linearGradient id="paint0_linear" x1="18.8783" y1="42.1332" x2="18.8783" y2="84.8551" gradientUnits="userSpaceOnUse">
<stop stop-color="#02FBF6"/>
<stop offset="1" stop-color="#4287C1"/>
</linearGradient>
<linearGradient id="paint1_linear" x1="47.1961" y1="50.9865" x2="47.1961" y2="84.8545" gradientUnits="userSpaceOnUse">
<stop stop-color="#02FBF6"/>
<stop offset="1" stop-color="#4287C1"/>
</linearGradient>
<linearGradient id="paint2_linear" x1="47.1865" y1="88.1588" x2="47.1865" y2="91.9344" gradientUnits="userSpaceOnUse">
<stop stop-color="#02FBF6"/>
<stop offset="1" stop-color="#4287C1"/>
</linearGradient>
<linearGradient id="paint3_linear" x1="75.5138" y1="36.8325" x2="75.5138" y2="84.8554" gradientUnits="userSpaceOnUse">
<stop stop-color="#02FBF6"/>
<stop offset="1" stop-color="#4287C1"/>
</linearGradient>
<linearGradient id="paint4_linear" x1="75.5138" y1="3.20569" x2="75.5138" y2="35.2991" gradientUnits="userSpaceOnUse">
<stop stop-color="#02FBF6"/>
<stop offset="1" stop-color="#4287C1"/>
</linearGradient>
<linearGradient id="paint5_linear" x1="72.0494" y1="10.398" x2="72.0494" y2="22.8767" gradientUnits="userSpaceOnUse">
<stop stop-color="#02FBF6"/>
<stop offset="1" stop-color="#4287C1"/>
</linearGradient>
</defs>
</svg>
