<svg width="89" height="89" viewBox="0 0 89 89" fill="none" xmlns="http://www.w3.org/2000/svg">
<path d="M42.7608 71.8215H7.54003C7.02463 71.8238 6.51386 71.7243 6.03704 71.5287C5.56021 71.333 5.12672 71.0452 4.76147 70.6815C4.39621 70.3179 4.10638 69.8857 3.90862 69.4098C3.71085 68.9338 3.60905 68.4235 3.60905 67.9081V12.9973C3.6137 11.9578 4.0299 10.9624 4.7666 10.229C5.50329 9.49563 6.5005 9.08388 7.54003 9.08389H47.6219C48.6584 9.08851 49.6511 9.5023 50.384 10.2352C51.1169 10.9681 51.5307 11.9608 51.5353 12.9973V38.8294H48.0255V12.9973C48.0279 12.9429 48.0192 12.8885 48 12.8375C47.9808 12.7864 47.9514 12.7399 47.9137 12.7005C47.876 12.6611 47.8307 12.6298 47.7805 12.6085C47.7304 12.5871 47.6764 12.5761 47.6219 12.5761H7.54003C7.42832 12.5761 7.3212 12.6205 7.24221 12.6995C7.16323 12.7785 7.11885 12.8856 7.11885 12.9973V67.9081C7.1188 67.9626 7.12979 68.0166 7.15117 68.0667C7.17254 68.1169 7.20385 68.1622 7.24321 68.1999C7.28257 68.2376 7.32916 68.267 7.38017 68.2862C7.43119 68.3054 7.48556 68.3141 7.54003 68.3117H42.7608V71.8215Z" fill="url(#paint0_linear)"/>
<path d="M14.8363 16.1852L12.3545 18.667L23.87 30.1825L26.3518 27.7007L14.8363 16.1852Z" fill="url(#paint1_linear)"/>
<path d="M23.87 16.1851L12.3545 27.7007L14.8363 30.1825L26.3518 18.6669L23.87 16.1851Z" fill="url(#paint2_linear)"/>
<path d="M14.8366 34.2786L12.3548 36.7604L23.8703 48.276L26.3521 45.7942L14.8366 34.2786Z" fill="url(#paint3_linear)"/>
<path d="M23.8703 34.2786L12.3548 45.7942L14.8366 48.276L26.3521 36.7604L23.8703 34.2786Z" fill="url(#paint4_linear)"/>
<path d="M17.4376 66.8902C17.1983 66.8917 16.9612 66.8442 16.7409 66.7506C16.5205 66.6571 16.3217 66.5194 16.1566 66.3462L10.6813 60.5901L13.261 58.1684L17.4903 62.5907L27.1773 52.4123L29.7219 54.8341L18.7012 66.3462C18.538 66.5173 18.342 66.6537 18.1249 66.7472C17.9078 66.8407 17.674 66.8893 17.4376 66.8902Z" fill="url(#paint5_linear)"/>
<path d="M64.5917 80.0871C60.3384 80.0871 56.1807 78.8254 52.6447 76.4617C49.1087 74.0979 46.3533 70.7384 44.7273 66.8082C43.1012 62.878 42.6775 58.5538 43.5099 54.3827C44.3422 50.2116 46.3931 46.3812 49.4031 43.3761C52.4131 40.3711 56.2469 38.3264 60.4193 37.5009C64.5917 36.6754 68.9153 37.1061 72.8428 38.7386C76.7703 40.3711 80.1253 43.1319 82.4833 46.6718C84.8413 50.2116 86.0962 54.3714 86.0892 58.6247C86.0707 64.3172 83.7987 69.7708 79.7701 73.7928C75.7416 77.8148 70.2843 80.0779 64.5917 80.0871ZM64.5917 40.6019C61.0356 40.6019 57.5592 41.656 54.6019 43.6309C51.6446 45.6059 49.3391 48.4131 47.9766 51.6979C46.6141 54.9827 46.2559 58.5976 46.9471 62.0859C47.6383 65.5743 49.348 68.7794 51.8601 71.2964C54.3722 73.8134 57.574 75.5294 61.061 76.2274C64.548 76.9254 68.1636 76.5742 71.451 75.2181C74.7384 73.8621 77.5502 71.562 79.5309 68.6086C81.5116 65.6551 82.5725 62.1808 82.5794 58.6247C82.5817 56.2602 82.1183 53.9184 81.2156 51.733C80.3128 49.5477 78.9885 47.5615 77.3182 45.8879C75.6479 44.2143 73.6643 42.8861 71.4807 41.9792C69.2971 41.0722 66.9562 40.6042 64.5917 40.6019Z" fill="url(#paint6_linear)"/>
<path d="M57.4318 68.5398C56.2288 68.5398 55.0376 68.3029 53.9262 67.8425C52.8148 67.3822 51.8049 66.7074 50.9543 65.8568C50.1036 65.0061 49.4289 63.9963 48.9685 62.8849C48.5082 61.7734 48.2712 60.5822 48.2712 59.3793C48.2712 58.1763 48.5082 56.9851 48.9685 55.8737C49.4289 54.7622 50.1036 53.7524 50.9543 52.9018C51.8049 52.0511 52.8148 51.3764 53.9262 50.916C55.0376 50.4556 56.2288 50.2187 57.4318 50.2187C59.1532 50.2031 60.8473 50.649 62.338 51.5101C63.8287 52.3712 65.0614 53.6159 65.9079 55.1149H66.4695L67.9787 53.8338C68.2966 53.5619 68.7011 53.4125 69.1194 53.4125C69.5377 53.4125 69.9422 53.5619 70.2601 53.8338L71.8044 55.1149L73.2961 53.8338C73.6151 53.5572 74.0233 53.4049 74.4455 53.4049C74.8678 53.4049 75.2759 53.5572 75.595 53.8338L77.0866 55.1149H78.4379C78.8813 55.1164 79.3076 55.2857 79.6313 55.5887L82.2285 58.0982C82.5543 58.4 82.7536 58.814 82.7862 59.257C82.8187 59.6999 82.6822 60.1386 82.404 60.4848L80.421 62.9592C80.2558 63.1629 80.0471 63.3269 79.8102 63.4392C79.5734 63.5516 79.3143 63.6095 79.0521 63.6086H65.9079C65.0659 65.114 63.8352 66.3658 62.3442 67.2333C60.8532 68.1007 59.1567 68.5519 57.4318 68.5398ZM57.4318 53.7285C56.6897 53.7285 55.9549 53.8746 55.2693 54.1586C54.5837 54.4426 53.9608 54.8588 53.4361 55.3836C52.9114 55.9083 52.4951 56.5312 52.2112 57.2168C51.9272 57.9024 51.781 58.6372 51.781 59.3793C51.781 60.1213 51.9272 60.8561 52.2112 61.5417C52.4951 62.2273 52.9114 62.8502 53.4361 63.375C53.9608 63.8997 54.5837 64.3159 55.2693 64.5999C55.9549 64.8839 56.6897 65.03 57.4318 65.03C58.6427 65.0471 59.8302 64.6953 60.8364 64.0214C61.8426 63.3474 62.6199 62.3833 63.065 61.257C63.1876 60.9178 63.4118 60.6247 63.7069 60.4174C64.0021 60.2102 64.354 60.0989 64.7146 60.0988H78.1922L78.631 59.5547L77.7009 58.6246H76.4373C76.0191 58.6247 75.6145 58.4753 75.2967 58.2035L74.4368 57.484L73.5944 58.2035C73.2765 58.4753 72.872 58.6247 72.4537 58.6246H71.12C70.7017 58.6247 70.2972 58.4753 69.9793 58.2035L69.1194 57.484L68.2771 58.2035C67.9592 58.4753 67.5546 58.6247 67.1364 58.6246H64.7146C64.354 58.6245 64.0021 58.5132 63.7069 58.306C63.4118 58.0987 63.1876 57.8056 63.065 57.4664C62.6143 56.3467 61.8346 55.39 60.8289 54.7226C59.8231 54.0553 58.6386 53.7086 57.4318 53.7285Z" fill="url(#paint7_linear)"/>
<path d="M55.7121 61.6783C56.9817 61.6783 58.011 60.6491 58.011 59.3794C58.011 58.1098 56.9817 57.0805 55.7121 57.0805C54.4424 57.0805 53.4132 58.1098 53.4132 59.3794C53.4132 60.6491 54.4424 61.6783 55.7121 61.6783Z" fill="url(#paint8_linear)"/>
<defs>
<linearGradient id="paint0_linear" x1="27.5722" y1="9.08389" x2="27.5722" y2="71.8216" gradientUnits="userSpaceOnUse">
<stop stop-color="#02FBF6"/>
<stop offset="1" stop-color="#4287C1"/>
</linearGradient>
<linearGradient id="paint1_linear" x1="13.5954" y1="17.4261" x2="25.1109" y2="28.9416" gradientUnits="userSpaceOnUse">
<stop stop-color="#02FBF6"/>
<stop offset="1" stop-color="#4287C1"/>
</linearGradient>
<linearGradient id="paint2_linear" x1="18.1122" y1="21.9429" x2="20.594" y2="24.4247" gradientUnits="userSpaceOnUse">
<stop stop-color="#02FBF6"/>
<stop offset="1" stop-color="#4287C1"/>
</linearGradient>
<linearGradient id="paint3_linear" x1="13.5957" y1="35.5195" x2="25.1112" y2="47.0351" gradientUnits="userSpaceOnUse">
<stop stop-color="#02FBF6"/>
<stop offset="1" stop-color="#4287C1"/>
</linearGradient>
<linearGradient id="paint4_linear" x1="18.1126" y1="40.0364" x2="20.5944" y2="42.5182" gradientUnits="userSpaceOnUse">
<stop stop-color="#02FBF6"/>
<stop offset="1" stop-color="#4287C1"/>
</linearGradient>
<linearGradient id="paint5_linear" x1="20.2016" y1="52.4123" x2="20.2016" y2="66.8902" gradientUnits="userSpaceOnUse">
<stop stop-color="#02FBF6"/>
<stop offset="1" stop-color="#4287C1"/>
</linearGradient>
<linearGradient id="paint6_linear" x1="64.5917" y1="37.0921" x2="64.5917" y2="80.0871" gradientUnits="userSpaceOnUse">
<stop stop-color="#02FBF6"/>
<stop offset="1" stop-color="#4287C1"/>
</linearGradient>
<linearGradient id="paint7_linear" x1="65.5311" y1="50.2183" x2="65.5311" y2="68.5401" gradientUnits="userSpaceOnUse">
<stop stop-color="#02FBF6"/>
<stop offset="1" stop-color="#4287C1"/>
</linearGradient>
<linearGradient id="paint8_linear" x1="55.7121" y1="57.0805" x2="55.7121" y2="61.6783" gradientUnits="userSpaceOnUse">
<stop stop-color="#02FBF6"/>
<stop offset="1" stop-color="#4287C1"/>
</linearGradient>
</defs>
</svg>
