<svg width="180" height="180" viewBox="0 0 180 180" xmlns="http://www.w3.org/2000/svg">
    <path d="M26.36 26.362C43.778 8.942 66.895-.414 91.595.014a2.922 2.922 0 0 1 2.867 2.97 2.921 2.921 0 0 1-2.77 2.864l-.2.004c-23.06-.438-44.716 8.348-61.005 24.635C14.59 46.384 5.836 67.52 5.836 90.001s8.754 43.617 24.651 59.51c15.736 15.737 36.608 24.475 58.835 24.649l.682.002c22.479 0 43.612-8.753 59.509-24.65 15.895-15.896 24.651-37.032 24.651-59.513 0-27.406-13.411-53.174-35.871-68.932a2.918 2.918 0 0 1 3.352-4.78C165.66 33.137 180 60.693 180 90c0 24.04-9.362 46.642-26.36 63.64-16.996 16.997-39.6 26.36-63.636 26.361-.006-.002-.006-.002-.008 0-24.039 0-46.638-9.362-63.636-26.362C9.362 136.641 0 114.04 0 90.001c0-24.04 9.362-46.641 26.36-63.639zM117.1 2.196a5.836 5.836 0 0 1 5.836 5.835 5.836 5.836 0 1 1-11.674 0 5.837 5.837 0 0 1 5.838-5.835z" fill="#E9E9E9" fill-rule="evenodd"/>
</svg>
