<svg width="40" height="40" viewBox="0 0 40 40" xmlns="http://www.w3.org/2000/svg">
    <g fill="none" fill-rule="evenodd">
        <path d="M20 0c11.046 0 20 8.954 20 20s-8.954 20-20 20C8.955 40 0 31.046 0 20S8.955 0 20 0" fill="#F08B16"/>
        <path d="M28.398 6.854a1.17 1.17 0 1 1-2.34 0 1.17 1.17 0 0 1 2.34 0" fill="#FFF"/>
        <path d="M30.536 9.324A15.022 15.022 0 0 1 35 20c0 4.007-1.56 7.774-4.394 10.607A14.902 14.902 0 0 1 20 35c-4.007 0-7.774-1.56-10.607-4.393A14.902 14.902 0 0 1 5 20c0-4.007 1.56-7.774 4.393-10.607 3.638-3.637 8.779-5.165 14.025-4.019" stroke="#FFF" stroke-width="1.17" stroke-linecap="round"/>
        <path d="M22.25 18.407c-.388 1.566-2.783.77-3.56.576l.685-2.768c.777.195 3.279.559 2.875 2.192zm-.426 4.467c-.425 1.721-3.303.79-4.236.557l.756-3.052c.933.235 3.925.7 3.48 2.495zm3.145-4.442c.25-1.681-1.022-2.585-2.76-3.188l.565-2.277-1.377-.345-.549 2.217c-.361-.09-.733-.177-1.102-.261l.552-2.233L18.923 12l-.564 2.277c-.3-.069-.594-.137-.879-.208l.002-.007-1.898-.478-.366 1.48s1.02.237 1 .251c.556.14.657.512.64.806l-.642 2.595c.039.01.089.024.144.046l-.146-.036-.9 3.634c-.068.17-.241.427-.63.33.013.02-1-.252-1-.252L13 24.025l1.79.45c.334.084.66.172.982.255l-.57 2.303 1.375.346.564-2.28c.376.103.74.198 1.097.287l-.562 2.269 1.376.345.57-2.3c2.347.448 4.112.268 4.854-1.87.6-1.722-.03-2.715-1.264-3.362.9-.209 1.577-.805 1.757-2.035z" fill="#FFF"/>
    </g>
</svg>
