<svg width="40" height="40" viewBox="0 0 40 40" xmlns="http://www.w3.org/2000/svg">
    <g fill="none" fill-rule="evenodd">
        <path d="M20 0c11.046 0 20 8.954 20 20s-8.954 20-20 20C8.955 40 0 31.046 0 20S8.955 0 20 0" fill="#23292E"/>
        <path d="M28.398 6.854a1.17 1.17 0 1 1-2.34 0 1.17 1.17 0 0 1 2.34 0" fill="#FFF"/>
        <path d="M30.536 9.324A15.022 15.022 0 0 1 35 20c0 4.007-1.56 7.774-4.394 10.607A14.902 14.902 0 0 1 20 35c-4.007 0-7.774-1.56-10.607-4.393A14.902 14.902 0 0 1 5 20c0-4.007 1.56-7.774 4.393-10.607 3.638-3.637 8.779-5.165 14.025-4.019" stroke="#FFF" stroke-width="1.17" stroke-linecap="round"/>
        <path d="M22.762 21.658 27 26h-2.024l-3.226-3.305a2.431 2.431 0 0 0-3.497 0L15.025 26H13l4.238-4.342a3.84 3.84 0 0 1 5.524 0zM15.05 14l3.199 3.278c.97.99 2.527.99 3.497 0L24.95 14h2.023l-4.21 4.316a3.84 3.84 0 0 1-5.524 0L13.025 14h2.026z" fill="#FFF"/>
    </g>
</svg>
