<?xml version="1.0" encoding="UTF-8"?>
<svg width="40px" height="40px" viewBox="0 0 40 40" version="1.1" xmlns="http://www.w3.org/2000/svg" xmlns:xlink="http://www.w3.org/1999/xlink">
    <title>Group 33</title>
    <g id="Page-1" stroke="none" stroke-width="1" fill="none" fill-rule="evenodd">
        <g id="Group-33">
            <path d="M20,0 C31.0458826,0 40,8.95411736 40,20 C40,31.0458826 31.0458826,40 20,40 C8.95466652,40 0,31.0458826 0,20 C0,8.95411736 8.95466652,0 20,0" id="Fill-5-Copy-6" fill="#F0B90B"></path>
            <g id="Group-5-Copy-9" transform="translate(5.000000, 5.000000)">
                <path d="M23.3980767,1.85376768 C23.3980767,2.50020483 22.8741393,3.02414272 22.2277028,3.02414272 C21.5812662,3.02414272 21.0573288,2.50020483 21.0573288,1.85376768 C21.0573288,1.20733053 21.5812662,0.683392641 22.2277028,0.683392641 C22.8741393,0.683392641 23.3980767,1.20733053 23.3980767,1.85376768" id="Fill-1" fill="#FFFFFF"></path>
                <path d="M25.5358037,4.32431236 C28.3653777,7.12033833 30,10.9603388 30,14.9998883 C30,19.0066672 28.4395014,22.7735193 25.6064162,25.6066072 C22.773136,28.439695 19.0064826,30 14.9999025,30 C10.9933224,30 7.22647386,28.439695 4.39319363,25.6066072 C1.56030352,22.7735193 0,19.0066672 0,15.0000834 C0,10.9933044 1.56030352,7.22645233 4.39319363,4.39336448 C8.03071581,0.756033919 13.1717784,-0.772085759 18.4181746,0.374296593" id="Stroke-3" stroke="#FFFFFF" stroke-width="1.17037393" stroke-linecap="round"></path>
            </g>
            <path d="M21.8095409,25.9038182 L21.8095409,27.9647243 L20.0078335,29 L18.1972996,27.9647243 L18.1972996,25.9038182 L20.0078335,26.9390939 L21.8095409,25.9038182 Z M27.998897,18.9910228 L27.998897,24.5061293 L23.0962227,27.25 L23.0962227,25.2165676 L26.1889334,23.4799406 L26.19886,20.0066865 L27.998897,18.9910228 Z M12,18.821932 L13.8017074,19.8572077 L13.8116372,23.393864 L16.9042188,25.1611204 L16.9042188,27.2316719 L12,24.4377134 L12,18.821932 Z M23.0932621,16.2143947 L24.9021228,17.2321974 L24.9021228,19.2678026 L21.8005885,21.0062854 L21.8005885,24.49168 L19.9994485,25.5 L18.1983085,24.49168 L18.1983085,21.0062854 L15.0967742,19.2678026 L15.1067009,17.2321974 L15.0989801,17.2321974 L16.9089438,16.2143947 L20.0104782,17.9613065 L23.0932621,16.2143947 Z M15.0967742,20.75 L16.9032258,21.7531153 L16.9032258,23.75 L15.0967742,22.7562305 L15.0967742,20.75 Z M24.9032258,20.5902601 L24.9032258,22.6608116 L23.1015184,23.6864419 L23.1015184,21.6255359 L24.9032258,20.5902601 Z M26.19886,14.5 L28,15.5167162 L28,17.5406761 L26.19886,18.5573923 L26.19886,16.5334324 L24.3888963,15.5167162 L26.19886,14.5 Z M13.8116372,14.25 L15.6133446,15.2852757 L13.8116372,16.3205515 L13.8116372,18.3814575 L12.0011033,17.3461818 L12.0011033,15.2852757 L13.8116372,14.25 Z M20.0035121,14.5 L21.804652,15.5167162 L20.0035121,16.5334324 L18.1935484,15.5167162 L20.0035121,14.5 Z M20.0093752,11 L24.9032258,13.7562854 L23.1020858,14.7740881 L20.0093752,13.0271763 L16.9078408,14.7740881 L15.1067009,13.7562854 L20.0093752,11 Z" id="Shape" fill="#FFFFFF" fill-rule="nonzero"></path>
        </g>
    </g>
</svg>