<?xml version="1.0" encoding="utf-8"?>
<!-- Generator: Adobe Illustrator 25.4.1, SVG Export Plug-In . SVG Version: 6.00 Build 0)  -->
<svg version="1.1" id="Layer_1" xmlns="http://www.w3.org/2000/svg" xmlns:xlink="http://www.w3.org/1999/xlink" x="0px" y="0px"
	 viewBox="0 0 1223 245" enable-background="new 0 0 1223 245" xml:space="preserve">
<path d="M305.79,112.51c-0.98,3.31-1.47,6.69-1.47,10.13c0,3.31,0.49,6.57,1.47,9.76c0.98,3.19,2.49,6.07,4.51,8.65
	c2.03,2.58,4.57,4.66,7.64,6.26c3.07,1.6,6.69,2.39,10.86,2.39c4.3,0,8.22-0.83,11.78-2.49c3.56-1.66,6.57-3.9,9.02-6.72
	l12.89,13.99c-4.05,4.3-8.84,7.73-14.36,10.31s-11.97,3.87-19.33,3.87c-7.36,0-13.93-1.11-19.7-3.31
	c-5.77-2.21-10.62-5.34-14.55-9.39c-3.93-4.05-6.94-8.9-9.02-14.55c-2.09-5.64-3.13-11.9-3.13-18.78c0-6.26,1.13-12.18,3.41-17.77
	c2.27-5.58,5.43-10.46,9.48-14.64c4.05-4.17,8.93-7.49,14.64-9.94c5.71-2.45,12-3.68,18.87-3.68c7,0,13.38,1.26,19.15,3.77
	c5.77,2.52,10.68,5.92,14.73,10.22l-13.81,13.99c-2.46-2.82-5.34-5.03-8.65-6.63c-3.31-1.59-7.12-2.39-11.42-2.39
	c-4.17,0-7.8,0.77-10.86,2.3c-3.07,1.54-5.62,3.53-7.64,5.98C308.28,106.31,306.77,109.19,305.79,112.51z M417.92,77.89
	c-3.56,0-6.72,0.43-9.48,1.29c-2.76,0.86-5.19,1.91-7.27,3.13c-2.09,1.23-3.9,2.58-5.43,4.05c-1.54,1.47-2.79,2.82-3.77,4.05
	l-0.55-10.86H370.6v86.35h21.73v-46.58c0-3.19,0.58-6.08,1.75-8.65c1.16-2.58,2.73-4.79,4.69-6.63c1.96-1.84,4.3-3.25,7-4.23
	c2.7-0.98,5.52-1.47,8.47-1.47c2.09,0,3.9,0.12,5.43,0.37c1.53,0.25,3.04,0.68,4.51,1.29l4.42-20.44c-1.72-0.61-3.41-1.04-5.06-1.29
	C421.88,78.02,420,77.89,417.92,77.89z M481.62,138.65l-24.67-59.1h-25.04l38.85,85.62l-2.76,7c-2.09,5.16-4.08,8.96-5.98,11.42
	c-1.9,2.45-4.33,3.68-7.27,3.68c-2.21,0-4.05-0.46-5.52-1.38c-1.47-0.92-2.82-1.87-4.05-2.85l-9.76,15.28
	c2.45,2.09,5.31,3.71,8.56,4.88c3.25,1.16,7.33,1.75,12.24,1.75c5.64,0,10.31-1.23,13.99-3.68c3.68-2.46,6.78-5.62,9.3-9.48
	c2.51-3.87,4.63-8.07,6.35-12.61c1.72-4.54,3.43-8.96,5.16-13.26l36.09-86.35h-23.75L481.62,138.65z M618.61,106.43
	c1.59,5.4,2.39,10.99,2.39,16.76c0,6.75-0.98,12.52-2.95,17.31c-1.97,4.79-4.42,8.96-7.36,12.52c-4.91,5.89-10.28,10-16.11,12.34
	c-5.83,2.33-11.82,3.5-17.95,3.5c-2.83,0-5.25-0.12-7.27-0.37c-2.03-0.25-3.87-0.58-5.52-1.01c-1.66-0.43-3.19-0.92-4.6-1.47
	c-1.41-0.55-2.92-1.13-4.51-1.75v38.48h-21.54V79.55h20.99l0.55,9.76c1.1-1.23,2.49-2.51,4.14-3.87c1.66-1.35,3.62-2.58,5.89-3.68
	c2.27-1.1,4.85-2.03,7.73-2.76c2.88-0.74,6.11-1.1,9.67-1.1c6.63,0,12.36,1.29,17.22,3.87c4.85,2.58,8.87,5.98,12.06,10.22
	C614.62,96.21,617.01,101.03,618.61,106.43z M599.09,123.19c0-3.68-0.4-7.12-1.2-10.31c-0.8-3.19-2.09-5.98-3.87-8.38
	c-1.78-2.39-4.08-4.29-6.9-5.71c-2.83-1.41-6.32-2.12-10.49-2.12c-3.31,0-6.32,0.71-9.02,2.12c-2.7,1.41-5,3.22-6.9,5.43
	c-1.9,2.21-3.38,4.63-4.42,7.27c-1.04,2.64-1.56,5.19-1.56,7.64v25.59c4.3,3.56,10.8,5.34,19.52,5.34c3.93,0,7.43-0.77,10.49-2.3
	c3.07-1.53,5.68-3.56,7.83-6.08c2.15-2.51,3.77-5.37,4.88-8.56C598.54,129.94,599.09,126.62,599.09,123.19z M680.2,148.78
	c-2.02,0.98-4.76,1.47-8.19,1.47c-3.68,0-6.35-1.32-8.01-3.96c-1.66-2.64-2.48-6.41-2.48-11.32V97.23h23.2V79.55h-23.2V51.56h-21.73
	v27.99h-14.73v17.68h14.73v39.22c0,4.79,0.49,9.18,1.47,13.16c0.98,3.99,2.61,7.4,4.88,10.22c2.27,2.83,5.25,5,8.93,6.54
	c3.68,1.53,8.16,2.3,13.44,2.3c5.16,0,9.82-0.77,13.99-2.3c4.17-1.53,8.41-4.08,12.7-7.64L686,145.28
	C684.15,146.63,682.22,147.8,680.2,148.78z M785.47,104.87c2.27,5.59,3.41,11.51,3.41,17.77c0,6.26-1.14,12.18-3.41,17.77
	c-2.27,5.59-5.43,10.49-9.48,14.73c-4.05,4.24-8.93,7.58-14.64,10.04c-5.71,2.45-12,3.68-18.87,3.68c-6.88,0-13.17-1.23-18.87-3.68
	c-5.71-2.45-10.59-5.8-14.64-10.04c-4.05-4.23-7.21-9.14-9.48-14.73c-2.27-5.58-3.41-11.51-3.41-17.77c0-6.26,1.13-12.18,3.41-17.77
	c2.27-5.58,5.43-10.46,9.48-14.64c4.05-4.17,8.93-7.49,14.64-9.94c5.71-2.45,12-3.68,18.87-3.68c6.87,0,13.16,1.23,18.87,3.68
	c5.71,2.46,10.59,5.77,14.64,9.94C780.04,94.4,783.2,99.28,785.47,104.87z M766.97,122.64c0-3.07-0.49-6.23-1.47-9.48
	c-0.98-3.25-2.49-6.2-4.51-8.84c-2.03-2.64-4.57-4.79-7.64-6.44c-3.07-1.66-6.69-2.49-10.86-2.49c-4.18,0-7.8,0.83-10.86,2.49
	c-3.07,1.66-5.62,3.81-7.64,6.44c-2.03,2.64-3.53,5.59-4.51,8.84c-0.98,3.25-1.47,6.42-1.47,9.48c0,3.19,0.49,6.38,1.47,9.57
	c0.98,3.19,2.49,6.14,4.51,8.84c2.03,2.7,4.57,4.88,7.64,6.53c3.07,1.66,6.69,2.49,10.86,2.49c4.17,0,7.79-0.83,10.86-2.49
	c3.07-1.66,5.62-3.83,7.64-6.53c2.03-2.7,3.53-5.65,4.51-8.84C766.48,129.02,766.97,125.83,766.97,122.64z M886.83,77.71
	c-3.44,0-6.51,0.37-9.21,1.1c-2.7,0.74-5.13,1.69-7.27,2.85c-2.15,1.17-3.99,2.42-5.52,3.77c-1.54,1.35-2.85,2.64-3.96,3.87
	l-0.55-9.76h-20.81v86.35h21.73v-46.77c0-3.19,0.52-6.17,1.57-8.93c1.04-2.76,2.49-5.18,4.33-7.27c1.84-2.09,4.05-3.71,6.63-4.88
	c2.58-1.16,5.34-1.75,8.29-1.75c4.79,0,8.68,1.5,11.69,4.51c3.01,3.01,4.51,7.27,4.51,12.8v52.29h21.73v-52.47
	c0-10.92-2.82-19.61-8.47-26.05C905.86,80.93,897.63,77.71,886.83,77.71z M1013.69,108.09c1.47,5.89,2.21,11.91,2.21,18.04v3.13
	h-64.44c0,3.19,0.71,6.08,2.12,8.65c1.41,2.58,3.25,4.79,5.52,6.63c2.27,1.84,4.85,3.25,7.73,4.23c2.88,0.98,5.74,1.47,8.56,1.47
	c4.17,0,7.82-0.4,10.96-1.2c3.13-0.8,5.8-1.72,8.01-2.76c2.21-1.04,4.02-2.15,5.43-3.31c1.41-1.16,2.49-2.12,3.22-2.85l11.78,13.26
	c-0.37,0.37-1.38,1.38-3.04,3.04c-1.66,1.66-4.05,3.41-7.18,5.25c-3.13,1.84-7.12,3.5-11.97,4.97c-4.85,1.47-10.65,2.21-17.4,2.21
	c-6.88,0-13.14-1.17-18.78-3.5c-5.65-2.33-10.47-5.55-14.45-9.67c-3.99-4.11-7.06-9.05-9.21-14.82c-2.15-5.77-3.22-12.15-3.22-19.15
	c0-6.38,1.07-12.3,3.22-17.77c2.15-5.46,5.16-10.22,9.02-14.27c3.87-4.05,8.47-7.24,13.81-9.57c5.34-2.33,11.26-3.5,17.77-3.5
	c7.85,0,14.51,1.44,19.98,4.33c5.46,2.89,9.85,6.66,13.16,11.32C1009.82,96.92,1012.22,102.2,1013.69,108.09z M993.62,113.61
	c0-2.21-0.43-4.42-1.29-6.63c-0.86-2.21-2.12-4.2-3.77-5.98c-1.66-1.78-3.77-3.25-6.35-4.42c-2.58-1.16-5.52-1.75-8.84-1.75
	c-3.56,0-6.72,0.58-9.48,1.75c-2.76,1.17-5.06,2.64-6.9,4.42c-1.84,1.78-3.25,3.78-4.24,5.98c-0.98,2.21-1.47,4.42-1.47,6.63H993.62
	z M1126.19,79.55l-16.39,60.02l-18.41-60.02h-18.23l-18.23,60.02l-16.57-60.02h-23.94l29.27,86.35h20.25l17.12-52.11l17.67,52.11
	h20.99l29.28-86.35H1126.19z M1220.46,130.83c-1.35-3.01-3.29-5.62-5.8-7.83c-2.52-2.21-5.52-4.05-9.02-5.52
	c-3.5-1.47-7.46-2.7-11.88-3.68c-7.12-1.72-12.37-3.34-15.74-4.88c-3.38-1.53-5.06-3.65-5.06-6.35c0-2.21,1.01-4.08,3.04-5.62
	c2.03-1.53,5.61-2.3,10.77-2.3c5.16,0,9.63,0.71,13.44,2.12c3.8,1.41,6.87,2.98,9.21,4.69l11.23-15.28
	c-4.3-3.19-9.11-5.58-14.45-7.18c-5.34-1.59-11.82-2.39-19.42-2.39c-4.3,0-8.56,0.62-12.8,1.84c-4.23,1.23-8.04,2.98-11.42,5.25
	c-3.38,2.27-6.11,5.09-8.19,8.47c-2.09,3.38-3.13,7.21-3.13,11.51c0,4.17,0.89,7.76,2.67,10.77c1.78,3.01,4.05,5.59,6.81,7.73
	c2.76,2.15,5.74,3.84,8.93,5.06c3.19,1.23,6.26,2.21,9.21,2.94c4.79,1.11,8.59,2.15,11.42,3.13c2.82,0.98,5.03,1.97,6.63,2.95
	c1.59,0.98,2.64,2,3.13,3.04c0.49,1.04,0.74,2.18,0.74,3.41c0,2.83-1.41,4.85-4.23,6.07c-2.83,1.23-6.57,1.84-11.23,1.84
	c-5.28,0-9.97-0.89-14.09-2.67c-4.11-1.78-7.52-4.02-10.22-6.72l-13.07,14.18c3.93,4.42,9.14,7.76,15.65,10.03
	c6.51,2.27,13.81,3.41,21.91,3.41c5.03,0,9.79-0.64,14.27-1.93c4.48-1.29,8.41-3.1,11.78-5.43c3.38-2.33,6.05-5.18,8.01-8.56
	c1.96-3.38,2.94-7.15,2.94-11.32C1222.48,137.43,1221.81,133.84,1220.46,130.83z M810.76,140.49c-7.02,0-12.7,5.69-12.7,12.7
	c0,7.02,5.69,12.7,12.7,12.7s12.7-5.69,12.7-12.7C823.47,146.18,817.78,140.49,810.76,140.49z"/>
<path fill="#0080C8" d="M122.5,0C54.85,0,0,54.85,0,122.5C0,190.15,54.85,245,122.5,245c67.65,0,122.5-54.85,122.5-122.5
	C245,54.85,190.15,0,122.5,0z M122.5,159.73c12.32,0,23.83-6.09,30.78-16.29c2.84-4.16,8.51-5.24,12.67-2.4
	c4.16,2.84,5.24,8.51,2.4,12.67c-10.35,15.19-27.49,24.26-45.85,24.26c-30.58,0-55.46-24.88-55.46-55.45
	c0-30.58,24.88-55.46,55.46-55.46c18.36,0,35.5,9.07,45.85,24.26c2.84,4.16,1.76,9.84-2.4,12.67c-4.16,2.84-9.84,1.76-12.67-2.4
	c-6.95-10.2-18.46-16.29-30.78-16.29c-20.52,0-37.21,16.69-37.21,37.21C85.29,143.04,101.98,159.73,122.5,159.73z M69.63,173.53
	c13.81,14.3,32.36,22.27,52.22,22.45c19.91,0.14,38.54-7.47,52.59-21.51c13.87-13.87,21.52-32.32,21.52-51.94
	c0-19.62-7.64-38.07-21.52-51.94c-28.64-28.64-75.24-28.64-103.89,0c-17.65,17.65-25.1,42.79-19.91,67.25
	c0.45,2.11-0.9,4.19-3.01,4.63c-2.11,0.45-4.19-0.9-4.63-3.01c-5.74-27.05,2.5-54.87,22.03-74.4c31.69-31.69,83.25-31.69,114.94,0
	c31.69,31.69,31.69,83.25,0,114.94c-15.37,15.37-35.75,23.8-57.45,23.81c-0.24,0-0.49,0-0.73,0c-21.97-0.19-42.49-9.01-57.77-24.83
	c-1.5-1.55-1.46-4.03,0.1-5.53C65.66,171.93,68.13,171.97,69.63,173.53z M61.8,158.49c0,4.32-3.5,7.82-7.82,7.82
	c-4.32,0-7.82-3.5-7.82-7.82s3.5-7.82,7.82-7.82C58.3,150.67,61.8,154.17,61.8,158.49z M170.78,26.88c4.32,0,7.82,3.5,7.82,7.82
	c0,4.32-3.5,7.82-7.82,7.82c-4.32,0-7.82-3.5-7.82-7.82C162.96,30.38,166.46,26.88,170.78,26.88z M196.11,196.13
	c-19.66,19.66-45.81,30.49-73.61,30.49c0,0,0,0,0,0c-27.81,0-53.95-10.83-73.62-30.49c-19.66-19.66-30.49-45.81-30.49-73.62
	c0-27.81,10.83-53.95,30.49-73.62c25.64-25.64,61.1-35.81,97.28-27.9c2.11,0.46,3.45,2.54,2.98,4.65c-0.46,2.11-2.54,3.45-4.65,2.98
	c-33.53-7.33-66.37,2.07-90.09,25.79c-18.19,18.19-28.2,42.37-28.2,68.09c0,25.72,10.01,49.9,28.2,68.09
	c18.19,18.19,42.37,28.2,68.09,28.2c25.72,0,49.9-10.02,68.09-28.2c18.19-18.19,28.2-42.37,28.2-68.09
	c0-25.56-10.45-50.53-28.66-68.53c-1.54-1.52-1.55-3.99-0.03-5.53c1.52-1.54,3.99-1.55,5.53-0.03
	c19.69,19.46,30.98,46.46,30.98,74.09C226.61,150.32,215.78,176.47,196.11,196.13z"/>
</svg>
