<?xml version="1.0" encoding="UTF-8"?>
<svg width="1440px" height="482px" viewBox="0 0 1440 482" version="1.1" xmlns="http://www.w3.org/2000/svg" xmlns:xlink="http://www.w3.org/1999/xlink">
    <title>Group 13</title>
    <defs>
        <rect id="path-1" x="0" y="0" width="1440" height="482"></rect>
    </defs>
    <g id="crypto.news-website" stroke="none" stroke-width="1" fill="none" fill-rule="evenodd">
        <g id="Group-13">
            <mask id="mask-2" fill="white">
                <use xlink:href="#path-1"></use>
            </mask>
            <use id="Rectangle" fill="#FFFFFF" opacity="0" xlink:href="#path-1"></use>
            <path d="M1320.1129,43.3764084 C1341.01653,47.6157457 1359.41499,59.9101664 1371.07242,77.5541817 C1382.70383,95.1587969 1386.66683,116.178204 1382.2265,136.711207 C1377.7854,157.244279 1365.46749,174.860865 1347.55728,186.293063 C1329.64687,197.725384 1308.2624,201.621047 1287.37194,197.257287 C1266.48317,192.892405 1248.55964,180.78426 1236.92859,163.18019 C1225.29707,145.575407 1221.33341,124.556544 1225.77283,104.024258 C1231.51782,77.4617503 1250.23379,56.193384 1276.77519,46.3491323 C1278.32682,45.7736293 1280.05932,46.5434353 1280.64483,48.0685423 C1281.23034,49.5936492 1280.44715,51.29653 1278.89551,51.872033 C1254.26098,61.0090261 1236.96526,80.6634604 1231.6473,105.251546 C1227.53901,124.25235 1231.20135,143.673339 1241.96539,159.965166 C1252.72896,176.256273 1269.28993,187.443945 1288.62059,191.483247 C1307.95294,195.521536 1327.71175,191.922025 1344.28634,181.342362 C1360.86072,170.762831 1372.24217,154.485532 1376.35206,135.483798 C1380.46121,116.48222 1376.79949,97.0607745 1366.03562,80.7692051 C1355.25491,64.4521598 1338.2352,53.0790614 1318.8993,49.157665 C1317.27508,48.8282678 1316.23007,47.2670602 1316.5652,45.6706103 C1316.90032,44.0741604 1318.48868,43.0470112 1320.1129,43.3764084 Z M1316.9782,60.343076 C1350.70656,67.388958 1372.23728,99.976595 1365.06741,133.128013 C1357.81207,166.678222 1323.98607,187.884574 1289.93112,180.158608 C1288.31518,179.792003 1287.30756,178.207224 1287.68054,176.618905 C1288.05352,175.030587 1289.66586,174.040193 1291.2818,174.406798 C1322.06368,181.390209 1352.63543,162.224023 1359.19296,131.90064 C1365.67314,101.938157 1346.21354,72.4852478 1315.7296,66.117129 C1285.24651,59.7485096 1255.2821,78.8749735 1248.80192,108.837481 C1244.78167,127.427958 1250.69396,146.409916 1264.10884,159.609806 C1265.28089,160.763072 1265.27986,162.631869 1264.10654,163.783882 C1262.93321,164.935895 1261.03191,164.93488 1259.85987,163.781614 C1245.02327,149.182794 1238.48014,128.175486 1242.92747,107.610109 C1250.09733,74.4587159 1283.25081,53.2966496 1316.9782,60.343076 Z M1279.94335,168.110744 C1281.75,170.845182 1280.95948,174.500705 1278.17749,176.27647 C1275.39549,178.052234 1271.67639,177.275229 1269.86974,174.540791 C1268.06309,171.806354 1268.85361,168.15083 1271.63561,166.375066 C1274.4176,164.599301 1278.1367,165.376307 1279.94335,168.110744 Z M1303.40197,41.6888348 C1305.20862,44.4232726 1304.4181,48.0787956 1301.6361,49.8545602 C1298.85411,51.6303248 1295.13501,50.8533194 1293.32836,48.1188817 C1291.52171,45.384444 1292.31223,41.7289209 1295.09422,39.9531563 C1297.87622,38.1773917 1301.59532,38.9543971 1303.40197,41.6888348 Z" id="Shape" fill="#F0F3F5" fill-rule="nonzero" opacity="0.5" mask="url(#mask-2)"></path>
            <path d="M193.186989,254.99053 C194.807708,255.344671 195.834473,256.945611 195.480332,258.56633 C195.126192,260.187049 193.525252,261.213813 191.904533,260.859673 C166.173135,255.237148 140.768849,262.58985 122.67851,280.679218 C108.699974,294.658717 101.007622,313.2304 101.007622,333.000353 C101.007622,352.769431 108.700063,371.341078 122.678364,385.320341 C136.658649,399.299663 155.230244,406.99223 174.999499,406.99223 C194.768507,406.99223 213.339173,399.299839 227.31956,385.320414 C241.299249,371.340725 248.992378,352.768992 248.992378,332.999352 C248.992378,313.198798 241.01786,294.218956 226.969805,280.337471 C225.789769,279.171427 225.778426,277.269553 226.944471,276.089516 C228.110515,274.90948 230.012389,274.898137 231.192426,276.064182 C246.379475,291.071156 255,311.588534 255,332.999352 C255,354.362358 246.673894,374.462141 231.567517,389.568517 C216.460459,404.674536 196.361809,412.999853 174.999499,412.999853 C153.636961,412.999853 133.537377,404.674374 118.430334,389.568371 C103.325342,374.462339 95,354.362698 95,333.000353 C95,311.637143 103.325245,291.537463 118.430464,276.431204 C137.973455,256.889261 165.463826,248.932788 193.186989,254.99053 Z M219.157399,288.839158 C243.547979,313.228685 243.547979,352.773423 219.157445,377.162905 C194.474153,401.846197 154.341773,401.517599 130.054164,376.369666 C128.901692,375.17637 128.934786,373.27475 130.128081,372.122278 C131.321376,370.969806 133.222996,371.0029 134.375468,372.196195 C156.328756,394.92712 192.600184,395.224105 214.909461,372.914829 C236.953795,350.871444 236.953795,315.130664 214.909415,293.087234 C192.866012,271.043832 157.126127,271.043832 135.081774,293.087234 C121.404537,306.764471 115.843107,326.187233 119.780822,344.762335 C120.124857,346.385229 119.088138,347.979741 117.465244,348.323776 C115.84235,348.667811 114.247838,347.631092 113.903803,346.008198 C109.548768,325.464498 115.703595,303.969352 130.83379,288.839158 C155.224305,264.449694 194.767936,264.449694 219.157399,288.839158 Z M122.3111,354.507055 C125.6251,354.507055 128.3111,357.193055 128.3111,360.507055 C128.3111,363.821055 125.6251,366.507055 122.3111,366.507055 C118.9971,366.507055 116.3111,363.821055 116.3111,360.507055 C116.3111,357.193055 118.9971,354.507055 122.3111,354.507055 Z M211.9518,259.503455 C215.2658,259.503455 217.9518,262.189455 217.9518,265.503455 C217.9518,268.817455 215.2658,271.503455 211.9518,271.503455 C208.6378,271.503455 205.9518,268.817455 205.9518,265.503455 C205.9518,262.189455 208.6378,259.503455 211.9518,259.503455 Z" id="Shape" fill="#F0F3F5" fill-rule="nonzero" opacity="0.5" mask="url(#mask-2)"></path>
            <path d="M1024.04978,327.863189 C1049.4506,338.21158 1067.35821,360.39622 1072.56845,388.267981 C1072.87304,389.897386 1071.80992,391.467249 1070.1939,391.774366 C1068.57788,392.081484 1067.02091,391.009557 1066.71632,389.380151 C1061.88041,363.510833 1045.3317,343.009655 1021.81895,333.430472 C1003.64892,326.029236 983.723422,326.204832 965.683947,333.925553 C947.645271,341.645932 933.678652,355.97593 926.337082,374.295629 C918.996227,392.617177 919.17015,412.707697 926.827183,430.895934 C934.484119,449.083943 948.695985,463.165351 966.866668,470.568319 C985.037321,477.970541 1004.96316,477.79564 1023.00235,470.075042 C1041.06975,462.34237 1055.29958,447.593443 1062.52491,429.247753 C1063.13184,427.706716 1064.86285,426.953545 1066.39123,427.565499 C1067.91961,428.177454 1068.66659,429.922799 1068.05966,431.463836 C1060.24851,451.296967 1044.86594,467.240688 1025.32923,475.602213 C1005.83614,483.945065 984.270834,484.134357 964.635724,476.135555 C945.000677,468.135986 929.619467,452.895968 921.345412,433.242079 C913.071269,413.587981 912.883036,391.8445 920.815537,372.046304 C928.748858,352.249984 943.86459,336.740977 963.357074,328.398382 C982.850347,320.05545 1004.41522,319.865407 1024.04978,327.863189 Z M1017.52983,344.122109 C1049.23141,357.037257 1064.54746,393.418441 1051.73936,425.38216 C1038.93163,457.346931 1002.84827,472.790259 971.146667,459.875101 C939.063582,446.805339 923.819335,409.754164 937.358969,377.587949 C938.001439,376.06163 939.749427,375.349441 941.263209,375.997231 C942.776992,376.645022 943.483331,378.407486 942.840861,379.933806 C930.602543,409.008473 944.380212,442.495125 973.377575,454.30785 C1002.0297,465.980661 1034.64207,452.022884 1046.21779,423.132895 C1057.79386,394.243817 1043.95108,361.362179 1015.29893,349.689359 C997.521397,342.447285 977.644668,344.915756 962.220614,355.792655 C960.873025,356.742962 959.01654,356.411854 958.074039,355.053104 C957.131537,353.694355 957.459926,351.822494 958.807515,350.872187 C975.866217,338.842549 997.863766,336.110695 1017.52983,344.122109 Z M1074.52851,408.328469 C1075.80414,411.379022 1074.40233,414.901002 1071.39714,416.195885 C1068.39196,417.490768 1064.92236,416.067796 1063.64673,413.017243 C1062.3711,409.96669 1063.77291,406.44471 1066.7781,405.149827 C1069.78329,403.854944 1073.25289,405.277916 1074.52851,408.328469 Z M953.873276,362.934634 C955.148902,365.985187 953.747092,369.507167 950.741906,370.80205 C947.73672,372.096933 944.267118,370.67396 942.991493,367.623407 C941.715867,364.572854 943.117677,361.050874 946.122863,359.755991 C949.128049,358.461108 952.59765,359.884081 953.873276,362.934634 Z" id="Shape" fill="#F0F3F5" fill-rule="nonzero" opacity="0.5" mask="url(#mask-2)"></path>
            <path d="M616.186989,1.99053047 C617.807708,2.34467104 618.834473,3.94561091 618.480332,5.56632977 C618.126192,7.18704862 616.525252,8.21381319 614.904533,7.85967262 C589.173135,2.23714797 563.768849,9.58985022 545.67851,27.6792181 C531.699974,41.6587168 524.007622,60.2304004 524.007622,80.0003533 C524.007622,99.7694309 531.700063,118.341078 545.678364,132.320341 C559.658649,146.299663 578.230244,153.99223 597.999499,153.99223 C617.768507,153.99223 636.339173,146.299839 650.31956,132.320414 C664.299249,118.340725 671.992378,99.7689917 671.992378,79.999352 C671.992378,60.1987976 664.01786,41.2189559 649.969805,27.3374711 C648.789769,26.1714267 648.778426,24.2695525 649.944471,23.0895162 C651.110515,21.90948 653.012389,21.8981373 654.192426,23.0641817 C669.379475,38.0711562 678,58.5885341 678,79.999352 C678,101.362358 669.673894,121.462141 654.567517,136.568517 C639.460459,151.674536 619.361809,159.999853 597.999499,159.999853 C576.636961,159.999853 556.537377,151.674374 541.430334,136.568371 C526.325342,121.462339 518,101.362698 518,80.0003533 C518,58.6371433 526.325245,38.5374626 541.430464,23.4312039 C560.973455,3.88926072 588.463826,-4.06721171 616.186989,1.99053047 Z M642.157399,35.8391577 C666.547979,60.2286852 666.547979,99.7734231 642.157445,124.162905 C617.474153,148.846197 577.341773,148.517599 553.054164,123.369666 C551.901692,122.17637 551.934786,120.27475 553.128081,119.122278 C554.321376,117.969806 556.222996,118.0029 557.375468,119.196195 C579.328756,141.92712 615.600184,142.224105 637.909461,119.914829 C659.953795,97.8714445 659.953795,62.1306638 637.909415,40.0872338 C615.866012,18.0438315 580.126127,18.0438315 558.081774,40.0872338 C544.404537,53.7644706 538.843107,73.1872332 542.780822,91.7623354 C543.124857,93.3852294 542.088138,94.9797407 540.465244,95.3237761 C538.84235,95.6678115 537.247838,94.6310918 536.903803,93.0081978 C532.548768,72.4644981 538.703595,50.9693521 553.83379,35.8391577 C578.224305,11.449694 617.767936,11.449694 642.157399,35.8391577 Z M545.3111,101.507055 C548.6251,101.507055 551.3111,104.193055 551.3111,107.507055 C551.3111,110.821055 548.6251,113.507055 545.3111,113.507055 C541.9971,113.507055 539.3111,110.821055 539.3111,107.507055 C539.3111,104.193055 541.9971,101.507055 545.3111,101.507055 Z M634.9518,6.50345462 C638.2658,6.50345462 640.9518,9.18945462 640.9518,12.5034546 C640.9518,15.8174546 638.2658,18.5034546 634.9518,18.5034546 C631.6378,18.5034546 628.9518,15.8174546 628.9518,12.5034546 C628.9518,9.18945462 631.6378,6.50345462 634.9518,6.50345462 Z" id="Shape" fill="#F0F3F5" fill-rule="nonzero" opacity="0.5" mask="url(#mask-2)"></path>
        </g>
    </g>
</svg>