<svg width="18" height="18" viewBox="0 0 18 18" fill="none" xmlns="http://www.w3.org/2000/svg">
<g clip-path="url(#clip0)">
<path d="M17.3339 12.8244C16.9912 12.7983 16.2797 13.1861 16.0823 13.283C15.3857 13.6336 14.4246 14.1817 13.7913 14.618C13.7466 14.6479 13.687 14.6889 13.6423 14.715C13.3592 14.8977 13.0574 15.0208 12.7222 15.0916C10.8819 15.4832 8.19981 15.5279 8.19981 15.5279L8.04335 15.5354C7.92415 15.5428 7.81985 15.4608 7.80494 15.3452C7.78632 15.2184 7.87945 15.1028 8.00983 15.0916L11.9995 14.7113C12.439 14.6628 12.7892 14.2526 12.7408 13.7902C12.6924 13.3278 12.2677 12.9885 11.8281 13.0369L8.28177 12.9922C8.03963 12.9885 7.65221 12.9288 7.42125 12.8617C5.134 12.1942 3.8451 12.8206 3.15967 13.1115C3.00693 12.8579 2.71637 12.6939 2.39228 12.7162L0.861239 12.8169C0.350892 12.8505 -0.0328 13.2756 0.00445168 13.7678L0.250313 17.1687C0.283839 17.6609 0.727133 18.0301 1.23376 17.9965L2.7648 17.8958C3.08889 17.8735 3.34965 17.6758 3.46513 17.4036L10.1853 17.6945C10.9341 17.7728 11.6344 17.6833 12.2938 17.3365L12.4875 17.2358L17.5649 14.26C17.8145 14.1146 17.9933 13.861 18.0007 13.5776C18.0156 13.2383 17.8182 12.8579 17.3339 12.8244Z" fill="#684085"/>
<path d="M13.7169 13.8831C14.2347 13.5214 15.2964 12.9434 15.8961 12.6414C16.0787 12.5519 16.2687 12.4586 16.4735 12.3878C16.2128 12.2125 15.9334 12.2051 15.6428 12.3169C15.0729 12.5444 14.0224 13.0516 13.486 13.3424C13.4822 13.3499 13.4785 13.3573 13.4785 13.3648C13.5158 13.4767 13.5456 13.5923 13.5567 13.7116C13.5679 13.8086 13.5642 13.9018 13.5605 13.995C13.6089 13.9577 13.661 13.9204 13.7169 13.8831Z" fill="#684085"/>
<path d="M15.0869 11.9776C14.8262 11.8098 14.5505 11.8024 14.2674 11.9142C13.9135 12.0522 13.1275 12.3095 12.7773 12.496C12.9264 12.5892 13.0605 12.7048 13.1759 12.839C13.1983 12.8241 13.2206 12.8055 13.2467 12.7906L13.5038 12.6488C13.8763 12.4438 14.6772 12.1603 15.0869 11.9776Z" fill="#684085"/>
<path d="M14.5768 5.36234C15.5714 4.93723 16.2717 3.94531 16.2717 2.79304C16.2717 1.24922 15.02 0 13.4816 0C11.9431 0 10.6914 1.25295 10.6914 2.79304C10.6914 2.80796 10.6951 2.82287 10.6951 2.83779C12.3528 3.01305 13.7758 3.98633 14.5768 5.36234Z" fill="#684085"/>
<path d="M13.0292 10.7922C14.612 9.20776 14.612 6.63892 13.0292 5.05451C11.4465 3.4701 8.88027 3.4701 7.2975 5.05451C5.71473 6.63892 5.71473 9.20776 7.2975 10.7922C8.88028 12.3766 11.4465 12.3766 13.0292 10.7922Z" fill="#684085"/>
</g>
<defs>
<clipPath id="clip0">
<rect width="18" height="18" fill="white"/>
</clipPath>
</defs>
</svg>
