<svg width="18" height="18" viewBox="0 0 18 18" fill="none" xmlns="http://www.w3.org/2000/svg">
<g clip-path="url(#clip0)">
<path d="M11.2234 11.6868C11.5606 11.1233 12.0563 10.8346 12.7138 10.8269C13.3712 10.8192 13.703 10.4844 13.7138 9.82541C13.723 9.16952 14.0086 8.67375 14.5721 8.33811C15.1372 8.00093 15.2596 7.5475 14.9378 6.97321C14.6175 6.40047 14.6175 5.82772 14.9378 5.25343C15.2596 4.68068 15.1379 4.22803 14.5721 3.89084C14.0086 3.55289 13.7222 3.05789 13.7138 2.39893C13.703 1.74304 13.3712 1.40816 12.7138 1.40047C12.0563 1.39123 11.5606 1.10408 11.2234 0.540574C10.8862 -0.0244757 10.4328 -0.146878 9.86004 0.174908C9.28729 0.495155 8.713 0.495155 8.14025 0.174908C7.56674 -0.146108 7.11331 -0.0244757 6.77613 0.540574C6.43971 1.10485 5.94318 1.392 5.28652 1.40047C4.63063 1.40816 4.2973 1.74304 4.28806 2.39893C4.27728 3.05789 3.99168 3.55212 3.42817 3.89084C2.86312 4.22803 2.73918 4.67991 3.0625 5.25343C3.38429 5.82772 3.38429 6.40047 3.0625 6.97321C2.73918 7.5475 2.86235 8.0017 3.42817 8.33811C3.99168 8.67375 4.27805 9.16952 4.28806 9.82541C4.2973 10.4836 4.63063 10.8192 5.28652 10.8269C5.94395 10.8346 6.43971 11.1233 6.7769 11.6868C7.11408 12.2519 7.5675 12.3743 8.14025 12.051C8.713 11.7338 9.28729 11.7338 9.86004 12.051C10.4328 12.3735 10.887 12.2519 11.2234 11.6868ZM9.00169 9.7107C7.014 9.7107 5.40353 8.10023 5.40353 6.11255C5.40353 4.12641 7.014 2.51594 9.00169 2.51594C10.9878 2.51594 12.5983 4.12641 12.5983 6.11255C12.5983 8.10023 10.9878 9.7107 9.00169 9.7107Z" fill="#684085"/>
<path d="M5.22954 11.3545C4.53824 11.3545 4.44586 11.0327 4.44586 11.0327L1.74609 16.3391L3.91084 16.0958L5.10791 17.8972C5.10791 17.8972 7.60214 12.6932 7.60214 12.7279C6.3096 12.6955 6.82385 11.3891 5.22954 11.3545Z" fill="#684085"/>
<path d="M13.5214 11.2402C11.5491 11.4465 11.9502 11.9362 11.4991 12.3164C10.9802 12.8699 10.332 12.7614 10.332 12.7614L13.3767 18L14.1257 16.0601L16.2551 16.338L13.5214 11.2402Z" fill="#684085"/>
<path d="M9.75419 5.31868L9.0013 3.79443L8.24764 5.31868L6.5625 5.56503L7.78036 6.75286L7.49322 8.43262L9.0013 7.64047L10.5094 8.43262L10.2222 6.75286L11.4401 5.56503L9.75419 5.31868Z" fill="#684085"/>
</g>
<defs>
<clipPath id="clip0">
<rect width="18" height="18" fill="white"/>
</clipPath>
</defs>
</svg>
