<svg width="14" height="14" viewBox="0 0 14 14" fill="none" xmlns="http://www.w3.org/2000/svg">
<path d="M7 0C3.11818 0 0 3.11818 0 7C0 10.8818 3.11818 14 7 14C10.8818 14 14 10.8818 14 7C14 3.11818 10.8818 0 7 0ZM7.63636 10.8182C7.63636 11.0091 7.50909 11.1364 7.31818 11.1364H6.68182C6.49091 11.1364 6.36364 11.0091 6.36364 10.8182V10.1818C6.36364 9.99091 6.49091 9.86364 6.68182 9.86364H7.31818C7.50909 9.86364 7.63636 9.99091 7.63636 10.1818V10.8182ZM8.49545 7.98636C8.05 8.36818 7.73182 8.62273 7.63636 8.97273C7.60455 9.13182 7.47727 9.22727 7.31818 9.22727H6.68182C6.49091 9.22727 6.33182 9.06818 6.36364 8.87727C6.49091 7.95455 7.15909 7.44545 7.7 7C8.27273 6.55455 8.59091 6.26818 8.59091 5.72727C8.59091 4.83636 7.89091 4.13636 7 4.13636C6.10909 4.13636 5.40909 4.83636 5.40909 5.72727C5.40909 5.79091 5.40909 5.85455 5.40909 5.91818C5.44091 6.07727 5.34545 6.23636 5.18636 6.26818L4.58182 6.45909C4.39091 6.52273 4.2 6.39545 4.16818 6.20455C4.13636 6.04545 4.13636 5.88636 4.13636 5.72727C4.13636 4.13636 5.40909 2.86364 7 2.86364C8.59091 2.86364 9.86364 4.13636 9.86364 5.72727C9.86364 6.90455 9.1 7.50909 8.49545 7.98636Z" fill="#9DC430"/>
</svg>
