<svg width="24" height="19" viewBox="0 0 24 19" fill="none" xmlns="http://www.w3.org/2000/svg">
<path d="M3.85693 7.49126L2.08062 9.20993L4.55228 9.20993L22.6667 9.20994C22.8821 9.20994 23 9.37064 23 9.5C23 9.62936 22.8821 9.79007 22.6667 9.79007L4.55228 9.79007L2.08062 9.79007L3.85693 11.5087L10.0661 17.5164C10.1806 17.6272 10.1806 17.7927 10.0661 17.9035C9.93306 18.0322 9.70417 18.0322 9.57115 17.9035L8.8758 18.6221L9.57115 17.9035L1.08587 9.69354C0.971372 9.58276 0.971372 9.41724 1.08587 9.30646L9.57116 1.09653C9.70417 0.967828 9.93306 0.967828 10.0661 1.09652C10.1806 1.20731 10.1806 1.37283 10.0661 1.48361L3.85693 7.49126Z" fill="#A1468E" stroke="#A1468E" stroke-width="2"/>
</svg>
