<svg width="292" height="44" viewBox="0 0 292 44" fill="none" xmlns="http://www.w3.org/2000/svg">
<path d="M220.944 41.5591V39.784H221.522C221.71 39.8 221.899 39.7787 222.078 39.7218C222.256 39.6648 222.419 39.5733 222.556 39.4536C222.693 39.3338 222.8 39.1885 222.871 39.0274C222.942 38.8662 222.975 38.693 222.967 38.5193C222.974 38.3428 222.941 38.1669 222.871 38.0026C222.8 37.8382 222.694 37.689 222.559 37.5641C222.423 37.4392 222.261 37.3414 222.083 37.2767C221.905 37.212 221.714 37.1818 221.522 37.188H220.968V35.8566H221.522C221.915 35.8387 222.307 35.8941 222.676 36.0196C223.045 36.145 223.382 36.3379 223.668 36.5867C223.953 36.8354 224.182 37.1349 224.338 37.467C224.495 37.7992 224.577 38.1571 224.58 38.5193C224.624 38.8161 224.602 39.1179 224.515 39.4067C224.429 39.6954 224.28 39.965 224.078 40.1993C223.875 40.4336 223.623 40.6276 223.337 40.7698C223.051 40.912 222.737 40.9994 222.413 41.0266L225.062 43.778V43.9333H223.135L220.968 41.7144L220.944 41.5591ZM231.394 43.778H232.984V37.1214H235.801V35.7235H228.746V37.1214H231.394V43.778ZM246.492 37.1214C246.138 36.5871 245.626 36.157 245.016 35.8818C244.406 35.6066 243.723 35.4978 243.048 35.5682C241.435 35.5682 239.75 36.2339 239.75 37.7871C239.75 39.3403 241.363 40.0059 243.121 40.2278C244.252 40.3831 245.143 40.6716 245.143 41.426C245.143 42.1804 244.18 42.602 243.121 42.602C242.629 42.6473 242.135 42.5524 241.704 42.3301C241.274 42.1079 240.928 41.769 240.713 41.3594L239.34 42.0251C239.658 42.6799 240.199 43.221 240.882 43.5656C241.565 43.9102 242.351 44.0393 243.121 43.9333C245.047 43.9333 246.732 43.2011 246.732 41.426C246.732 39.6509 245.047 39.0518 243.289 38.8965C242.23 38.7634 241.363 38.5415 241.363 37.8758C241.363 37.2102 241.917 36.8329 243.121 36.8329C243.52 36.8225 243.917 36.8972 244.281 37.0511C244.644 37.205 244.964 37.4341 245.215 37.7205L246.492 37.1214ZM220.944 35.8566V37.188H219.114V39.784H221.065V41.5591L220.655 41.1154H219.114V43.8667H217.429V35.7901C218.633 35.7901 219.837 35.7901 221.065 35.7901L220.944 35.8566ZM198.744 41.4926V40.0725H199.153C199.556 40.0725 199.941 39.9252 200.226 39.6631C200.51 39.4009 200.67 39.0453 200.67 38.6746C200.67 38.3039 200.51 37.9483 200.226 37.6861C199.941 37.424 199.556 37.2767 199.153 37.2767H198.744V35.7901H199.153C199.583 35.7552 200.015 35.8029 200.423 35.9303C200.831 36.0578 201.206 36.262 201.524 36.5302C201.842 36.7984 202.096 37.1245 202.269 37.488C202.443 37.8514 202.533 38.2442 202.533 38.6413C202.533 39.0384 202.443 39.4312 202.269 39.7946C202.096 40.1581 201.842 40.4843 201.524 40.7524C201.206 41.0206 200.831 41.2249 200.423 41.3523C200.015 41.4797 199.583 41.5275 199.153 41.4926H198.744ZM212.974 42.3801H208.159V40.5163H212.806V39.1184H208.159V37.2767H212.974V35.7901H206.545V43.8667H212.974V42.3801ZM198.744 35.7235V37.2102H196.745V40.0059H198.744V41.426H196.745V43.8002H195.036V35.7901L198.744 35.7235ZM119.863 43.9333V42.602C120.252 42.6315 120.645 42.5832 121.012 42.4604C121.38 42.3376 121.714 42.1433 121.993 41.8906C122.272 41.6379 122.488 41.3328 122.628 40.9961C122.767 40.6594 122.826 40.2989 122.8 39.9394C122.856 39.572 122.825 39.1977 122.708 38.8427C122.591 38.4876 122.392 38.1604 122.124 37.8836C121.855 37.6069 121.525 37.3874 121.155 37.2405C120.786 37.0935 120.265 37.0226 119.863 37.0326V35.7235C120.462 35.7182 121.175 35.7398 121.725 35.9587C122.275 36.1776 122.768 36.5003 123.175 36.9059C123.581 37.3114 123.89 37.7909 124.083 38.3134C124.275 38.8359 124.347 39.3898 124.293 39.9394C124.331 40.4876 124.243 41.0371 124.035 41.5519C123.827 42.0667 123.503 42.5352 123.085 42.9268C122.667 43.3184 122.163 43.6243 121.608 43.8245C121.053 44.0247 120.458 44.1147 119.863 44.0886V43.9333ZM140.691 35.7235H138.837L136.838 41.4926L134.671 35.7235H133.612L131.541 41.4926L129.518 35.7235H127.616L130.77 43.8002H132.215L133.25 41.2707L134.141 38.6746L135.032 41.2707L136.14 43.8002H137.512L140.643 35.7235H140.691ZM146.879 43.8667H148.564V37.2102H151.309V35.8123H144.23V37.2102H146.879V43.8667ZM162.891 43.8667V35.8566H161.326V39.1849H157.016V35.8566H155.33V43.8667H157.016V40.605H161.326V43.8667H162.891ZM178.975 42.3801H174.16V40.5163H178.975V39.1184H174.16V37.2767H178.975V35.7901H172.45V43.8667H178.975V42.3801ZM187.018 38.8299L184.827 35.7901H182.997L185.886 39.7175L182.997 43.778H184.754L187.018 40.7381L189.257 43.778H191.015L188.053 39.784L190.943 35.8566H189.185L187.018 38.8299ZM119.863 35.6348V37.0326C119.46 37.0311 119.061 37.1071 118.692 37.256C118.323 37.4048 117.992 37.623 117.72 37.8967C117.448 38.1704 117.241 38.4935 117.112 38.8453C116.984 39.1971 116.936 39.5697 116.973 39.9394C116.96 40.2924 117.025 40.6441 117.166 40.9728C117.306 41.3014 117.519 41.5999 117.79 41.8497C118.061 42.0995 118.385 42.2951 118.741 42.4246C119.098 42.554 119.48 42.6144 119.863 42.602V43.9999C119.271 44.0311 118.678 43.9481 118.123 43.7563C117.568 43.5645 117.062 43.268 116.638 42.8858C116.215 42.5037 115.882 42.0442 115.662 41.5369C115.442 41.0295 115.339 40.4854 115.36 39.9394C115.344 39.3873 115.449 38.8378 115.668 38.324C115.888 37.8101 116.218 37.3424 116.638 36.9487C117.059 36.5551 117.561 36.2437 118.115 36.0332C118.669 35.8227 119.263 35.7173 119.863 35.7235V35.6348ZM107.872 41.5591V39.784H108.546C108.734 39.8 108.923 39.7787 109.101 39.7218C109.28 39.6648 109.443 39.5733 109.579 39.4536C109.716 39.3338 109.824 39.1885 109.895 39.0274C109.966 38.8662 109.998 38.693 109.991 38.5193C109.997 38.3428 109.965 38.1669 109.894 38.0026C109.824 37.8382 109.718 37.689 109.582 37.5641C109.447 37.4392 109.285 37.3414 109.107 37.2767C108.928 37.212 108.737 37.1818 108.546 37.188H107.968L107.921 35.7901H108.546C108.938 35.7721 109.331 35.8941 109.7 36.0196C110.068 36.145 110.406 36.3379 110.691 36.5867C110.977 36.8354 111.205 37.1349 111.362 37.467C111.519 37.7992 111.601 38.1571 111.604 38.5193C111.647 38.8178 111.625 39.1213 111.537 39.4115C111.449 39.7016 111.298 39.9722 111.093 40.2067C110.888 40.4413 110.633 40.635 110.344 40.7759C110.055 40.9169 109.738 41.0022 109.413 41.0266L112.085 43.778V43.9333H110.135L107.872 41.5591ZM107.921 35.7901L107.968 37.188H105.945V39.784H107.872V41.5591L107.486 41.1154H105.945V43.8667H104.26V35.7901C105.464 35.7901 106.668 35.7901 107.872 35.7901H107.921ZM79.6035 41.5591V39.784H80.0851C80.2855 39.8082 80.4892 39.7927 80.6826 39.7386C80.8761 39.6844 81.0547 39.5929 81.2066 39.47C81.3586 39.3471 81.4803 39.1958 81.5637 39.0261C81.6471 38.8564 81.6903 38.6723 81.6903 38.486C81.6903 38.2997 81.6471 38.1156 81.5637 37.9459C81.4803 37.7762 81.3586 37.6249 81.2066 37.502C81.0547 37.3791 80.8761 37.2876 80.6826 37.2334C80.4892 37.1793 80.2855 37.1638 80.0851 37.188H79.6035V35.7901H80.0851C80.4827 35.766 80.8815 35.8832 81.2572 36.0056C81.6329 36.128 81.9777 36.3196 82.2705 36.5687C82.5633 36.8178 82.7981 37.1191 82.9605 37.4545C83.1229 37.7898 83.2096 38.1521 83.2153 38.5193C83.2593 39.1111 83.0613 39.6968 82.6602 40.1608C82.2591 40.6249 81.6841 40.9337 81.0482 41.0266L83.6246 43.778V43.9333H81.6742L79.6035 41.5591ZM99.8535 36.8108C98.9831 36.0496 97.8269 35.6282 96.627 35.6348C96.0113 35.612 95.3974 35.7085 94.8247 35.9179C94.252 36.1274 93.7333 36.4452 93.3022 36.8509C92.8711 37.2565 92.5371 37.741 92.3218 38.2729C92.1064 38.8049 92.0146 39.3726 92.0521 39.9394C92.0141 40.4951 92.1078 41.0519 92.3267 41.571C92.5456 42.0901 92.8844 42.559 93.3197 42.9453C93.755 43.3317 94.2762 43.6261 94.8473 43.8082C95.4185 43.9903 96.0257 44.0557 96.627 43.9999C97.2816 44.0204 97.9328 43.9055 98.5329 43.6636C99.1329 43.4217 99.6665 43.0589 100.094 42.602V39.1849H96.314V40.5163H98.5051V41.9363C97.9684 42.3755 97.2724 42.613 96.5548 42.602C96.168 42.6285 95.7795 42.5778 95.4159 42.4534C95.0523 42.3289 94.7221 42.1337 94.4478 41.881C94.1735 41.6282 93.9616 41.3239 93.8266 40.9888C93.6916 40.6538 93.6366 40.2958 93.6653 39.9394C93.6322 39.5617 93.684 39.1818 93.8176 38.8234C93.9512 38.4651 94.1637 38.136 94.4418 37.8569C94.7198 37.5777 95.0574 37.3545 95.4335 37.2013C95.8095 37.048 96.2158 36.9679 96.627 36.9661C97.3988 36.9873 98.1389 37.2539 98.7218 37.7205L99.8535 36.8108ZM79.6035 35.7901V37.188H77.5809V39.784H79.6035V41.5591L79.1942 41.1154H77.5809V43.8667H75.9676V35.7901H79.6035ZM61.2557 42.3135V40.8935H62.8689L61.2557 37.4986V35.7901H62.1466L66.0955 43.8667H64.2414L63.5191 42.3135H61.2557ZM71.3927 43.8667V35.7901H69.8276V43.8667H71.3927ZM52.7319 43.8667V35.8566H51.1427V39.1849H46.8808V35.8566H45.2675V43.8667H46.8808V40.605H51.1427V43.8667H52.7319ZM61.2557 35.7901V37.4986L59.6665 40.8935H61.2557V42.3135H59.0164L58.294 43.8667H56.5122L60.3889 35.7901H61.2557Z" fill="white"/>
<path d="M0 39.2739H35.1305V40.3834H0V39.2739ZM256.869 39.2739H292V40.3834H256.869V39.2739Z" fill="white"/>
<path d="M195.614 32.3066V27.0479C203.487 27.0479 206.473 21.6339 206.545 16.5971C206.618 11.5603 203.487 5.6359 195.614 5.6359V0.443772C197.912 0.369778 200.203 0.737699 202.339 1.52411C204.474 2.31051 206.409 3.49817 208.02 5.01145C209.63 6.52473 210.881 8.33047 211.693 10.3137C212.504 12.2969 212.859 14.4141 212.734 16.5305C212.565 24.3853 207.34 32.3066 195.614 32.3066ZM195.614 0.443772V5.6359C187.812 5.6359 184.586 11.4937 184.682 16.7302C184.778 21.9667 187.812 27.0257 195.614 27.1145V32.3732C183.96 32.3732 178.566 24.585 178.566 16.6636C178.566 8.74231 184.104 0.443772 195.614 0.443772ZM161.735 23.0318V16.2199H163.734C164.473 16.2868 165.218 16.2073 165.921 15.9867C166.623 15.7661 167.267 15.4094 167.807 14.9407C168.348 14.4719 168.773 13.902 169.055 13.2692C169.337 12.6364 169.468 11.9553 169.44 11.2718C169.457 10.5929 169.318 9.9185 169.032 9.29274C168.746 8.66699 168.319 8.10408 167.78 7.64099C167.241 7.17789 166.602 6.82507 165.905 6.6057C165.207 6.38633 164.468 6.30537 163.734 6.36813H161.783V0.95411H163.734C171.608 0.95411 175.773 5.85779 175.773 11.1831C175.952 13.4628 175.192 15.721 173.643 17.5062C172.094 19.2915 169.871 20.4724 167.418 20.8129L177.459 31.1972V31.6409H169.994L161.735 23.0318ZM161.904 0.843167V6.36813H154.102V16.2199H161.735V23.0318L160.146 21.412H154.102V31.6409H147.842V0.95411C152.489 0.95411 157.16 0.95411 161.735 0.95411L161.904 0.843167ZM117.696 22.588V17.3293H119.381C120.183 17.3767 120.986 17.2721 121.742 17.022C122.498 16.7719 123.191 16.3816 123.776 15.8752C124.362 15.3689 124.829 14.7572 125.148 14.078C125.468 13.3988 125.632 12.6665 125.632 11.9264C125.632 11.1862 125.468 10.4539 125.148 9.77472C124.829 9.09552 124.362 8.48386 123.776 7.9775C123.191 7.47115 122.498 7.08088 121.742 6.83078C120.986 6.58069 120.183 6.47609 119.381 6.52345H117.696V0.95411H119.381C120.967 0.88789 122.552 1.11861 124.039 1.63235C125.525 2.14608 126.884 2.93217 128.032 3.94314C129.179 4.9541 130.093 6.16898 130.717 7.51439C131.342 8.8598 131.663 10.3078 131.663 11.7711C131.663 13.2343 131.342 14.6823 130.717 16.0277C130.093 17.3731 129.179 18.588 128.032 19.599C126.884 20.6099 125.525 21.396 124.039 21.9098C122.552 22.4235 120.967 22.6542 119.381 22.588H117.696ZM142.063 31.6409V0.95411H135.875V31.6409H142.063ZM27.4254 6.07968C24.849 1.33132 19.5277 0 14.3026 0C8.21077 0 1.44471 2.59607 1.44471 8.87544C1.44471 15.7761 7.7292 17.4846 14.4471 18.2168C18.8776 18.594 22.1041 19.7922 22.1041 22.6546C22.1041 26.005 18.396 27.3364 14.4471 27.3364C12.5383 27.4813 10.6265 27.0905 8.96326 26.2153C7.30003 25.34 5.96324 24.0213 5.12872 22.4327L0 24.8956C2.40785 30.4428 7.63289 32.3732 14.4471 32.3732C21.8392 32.3732 28.4367 29.4887 28.4367 22.588C28.4367 15.6873 21.9355 13.7126 15.0009 12.9581C10.9798 12.5144 7.60881 11.7821 7.60881 9.11952C7.60881 6.90066 9.87219 5.03681 14.5193 5.03681C16.041 4.97512 17.5562 5.25368 18.9357 5.84871C20.3152 6.44373 21.5179 7.33756 22.4412 8.45386L27.4254 6.07968ZM117.696 0.95411V6.52345H109.991V17.3293H117.696V22.588H109.991V31.6409H103.706V14.2229V0.909733L117.696 0.95411ZM62.3152 31.6409V20.5466L60.726 20.236L58.3181 19.881L55.9103 19.5038V31.7297L62.3152 31.6409ZM62.3152 13.8901V1.04286H56.0548V13.3132H56.9457L59.185 13.4685L61.4484 13.6238L62.3152 13.7569V13.8901ZM39.6332 1.04286H33.3728V31.6409H39.6332V1.04286ZM94.5563 31.6409H101.371L96.7234 22.1886L95.5917 22.6324L93.9062 23.1427L92.0521 23.5199L90.6074 23.6752C91.7391 26.0494 93.0153 28.5567 94.5563 31.7519V31.6409ZM94.5563 17.7065L86.4178 0.95411H79.6035L72.5967 15.3323H72.7653L75.0045 15.6873L77.2679 16.0645L78.7849 16.2864L83.0468 7.41099C85.0694 11.7156 86.5141 14.8886 87.8625 17.6399L89.7888 17.7731H91.6187H93.4005H94.5322L94.5563 17.7065ZM69.4665 21.7892L64.6508 31.6409H71.465C73.2468 28.002 74.523 25.3394 75.7269 22.7655L74.9323 22.6102L72.5245 22.2552L70.1166 21.878L69.4665 21.7892Z" fill="white"/>
<path fill-rule="evenodd" clip-rule="evenodd" d="M277.529 31.7741V28.8452H278.179L279.624 28.468L280.996 28.0242L282.272 27.4473L283.404 26.6929L284.439 25.8941L285.403 25.0066L286.221 24.0303L286.871 23.0762L287.425 22.0333L287.907 20.9239L288.22 19.7257L288.557 18.5497V17.3737V16.1755V14.9995L288.316 13.8013L288.075 12.6919L287.666 11.5825L287.184 10.5396L286.631 9.51894L285.908 8.54264L285.09 7.58853L284.295 6.65661L283.235 5.92439L282.128 5.25873L280.9 4.7262L279.551 4.28243L278.01 3.92741H277.529V0.821007L278.829 0.954139L280.587 1.33135L282.272 1.93044L283.813 2.5961L285.258 3.41707L286.534 4.43775L287.666 5.48061L288.629 6.59004L289.52 7.76604L290.242 9.03079L290.892 10.3621L291.374 11.7822L291.687 13.1801L291.928 14.5779V16.0646V17.5512L291.783 19.0379L291.446 20.5245L291.061 21.9224L290.411 23.2537L289.761 24.585L288.87 25.8498L287.834 26.9592L286.703 28.0686L285.427 29.0449L283.982 29.9325L282.441 30.6647L280.683 31.2638L278.829 31.7075L277.529 31.7741ZM253.45 31.996H256.749V0.599121H253.041L240.785 18.2169L228.168 0.599121H224.46V31.996H227.855V5.63593L240.063 22.6768H241.363L253.402 5.63593V31.996H253.45ZM277.529 0.93195V3.77209L276.494 3.63896H274.712H266.429V28.9783H274.712H276.494L277.529 28.8452V31.8629H276.903L274.808 31.996H263.058V0.599121H274.808H276.807L277.529 0.93195Z" fill="white"/>
<path d="M102.261 15.8648C95.0378 32.3731 57.8125 14.8219 39.8017 18.0836C55.9584 6.43461 90.3666 25.0509 102.261 15.8648Z" fill="white"/>
</svg>
