<svg xmlns="http://www.w3.org/2000/svg" id="prefix__Component_32_1" width="94.891" height="94.891" data-name="Component 32 – 1" viewBox="0 0 94.891 94.891">
    <defs>
        <style>
            .prefix__cls-2{fill:#142de8}
        </style>
    </defs>
    <circle id="prefix__Ellipse_114" cx="47.446" cy="47.446" r="47.446" fill="#fff" data-name="Ellipse 114"/>
    <g id="prefix__Group_510" data-name="Group 510" transform="translate(19.46 20.07)">
        <g id="prefix__Group_484" data-name="Group 484">
            <path id="prefix__Path_507" d="M308.24 249.184a27.566 27.566 0 1 1 15.074-50.65l-.954 1.46a25.855 25.855 0 1 0 4.394 3.624L328 202.4a27.566 27.566 0 0 1-19.764 46.782z" class="prefix__cls-2" data-name="Path 507" transform="translate(-280.675 -194.052)"/>
        </g>
        <g id="prefix__Group_485" data-name="Group 485" transform="translate(4.735 4.736)">
            <path id="prefix__Path_508" d="M306.911 243.12a22.83 22.83 0 1 1 11.472-42.575l-.88 1.508a21.106 21.106 0 0 0-21.918.448 21.3 21.3 0 0 0-6.571 6.636 21.088 21.088 0 1 0 33.093-3.465l1.258-1.209a22.83 22.83 0 0 1-16.454 38.657z" class="prefix__cls-2" data-name="Path 508" transform="translate(-284.081 -197.459)"/>
        </g>
        <g id="prefix__Group_486" data-name="Group 486" transform="translate(46.712 26.694)">
            <path id="prefix__Rectangle_772" d="M0 0H2.443V1.745H0z" class="prefix__cls-2" data-name="Rectangle 772"/>
        </g>
        <g id="prefix__Group_487" data-name="Group 487" transform="translate(5.607 26.694)">
            <path id="prefix__Rectangle_773" d="M0 0H2.443V1.745H0z" class="prefix__cls-2" data-name="Rectangle 773"/>
        </g>
        <g id="prefix__Group_488" data-name="Group 488" transform="translate(26.693 46.898)">
            <path id="prefix__Rectangle_774" d="M0 0H1.745V2.442H0z" class="prefix__cls-2" data-name="Rectangle 774"/>
        </g>
        <g id="prefix__Group_489" data-name="Group 489" transform="translate(26.693 5.792)">
            <path id="prefix__Rectangle_775" d="M0 0H1.745V2.442H0z" class="prefix__cls-2" data-name="Rectangle 775"/>
        </g>
        <g id="prefix__Group_499" data-name="Group 499" transform="translate(15.686 .316)">
            <g id="prefix__Group_497" data-name="Group 497">
                <g id="prefix__Group_495" data-name="Group 495">
                    <g id="prefix__Group_492" data-name="Group 492" transform="translate(34.395)">
                        <g id="prefix__Group_491" data-name="Group 491">
                            <g id="prefix__Group_490" data-name="Group 490">
                                <path id="prefix__Path_509" d="M321.45 199.026h-4.75v-4.746h1.745v3h3z" class="prefix__cls-2" data-name="Path 509" transform="translate(-316.703 -194.28)"/>
                            </g>
                        </g>
                    </g>
                    <g id="prefix__Group_494" data-name="Group 494" transform="translate(0 15.361)">
                        <g id="prefix__Group_493" data-name="Group 493">
                            <path id="prefix__Path_510" d="M303.848 229.112a11.89 11.89 0 1 1 4.4-22.933l-.644 1.619a10.142 10.142 0 1 0 3.415 2.248l1.233-1.233a11.889 11.889 0 0 1-8.408 20.3z" class="prefix__cls-2" data-name="Path 510" transform="translate(-291.959 -205.33)"/>
                        </g>
                    </g>
                </g>
                <g id="prefix__Group_496" data-name="Group 496" transform="translate(5.525 3.257)">
                    <path id="prefix__Path_511" d="M302.3 226.982a6.364 6.364 0 0 1-.55-12.7l.149 1.738a4.621 4.621 0 1 0 3.668 1.336l-.616-.616 20.111-20.113 1.233 1.234-18.92 18.92a6.362 6.362 0 0 1-5.075 10.2z" class="prefix__cls-2" data-name="Path 511" transform="translate(-295.934 -196.623)"/>
                </g>
            </g>
            <g id="prefix__Group_498" data-name="Group 498" transform="translate(10.667 26.032)">
                <path id="prefix__Path_512" d="M301.718 213.366a1.221 1.221 0 1 1-1.726 0 1.221 1.221 0 0 1 1.726 0z" class="prefix__cls-2" data-name="Path 512" transform="translate(-299.633 -213.007)"/>
            </g>
        </g>
    </g>
</svg>
