<svg xmlns="http://www.w3.org/2000/svg" width="94.892" height="94.892" viewBox="0 0 94.892 94.892">
    <defs>
        <style>
            .prefix__cls-2{fill:#de1c44}
        </style>
    </defs>
    <g id="prefix__Group_587" data-name="Group 587" transform="translate(-347.48 -1475.284)">
        <g id="prefix__Component_34_1" data-name="Component 34 – 1" transform="translate(347.48 1475.284)">
            <circle id="prefix__Ellipse_108" cx="47.446" cy="47.446" r="47.446" fill="#fff" data-name="Ellipse 108"/>
            <g id="prefix__Group_506" data-name="Group 506" transform="translate(23.858 22.918)">
                <path id="prefix__Path_515" d="M505.446 217.895h-11.792a5.3 5.3 0 0 0-5.293 5.293v8.506a1.084 1.084 0 0 0 1.084 1.084h3.086v2.7a1.083 1.083 0 0 0 1.082 1.084h11.874a1.083 1.083 0 0 0 1.082-1.084v-2.7h3.086a1.084 1.084 0 0 0 1.084-1.084v-8.506a5.3 5.3 0 0 0-5.293-5.293zm3.127 12.717h-2v-5.57H504.4v9.358h-9.7v-9.354h-2.166v5.57h-2v-7.424a3.132 3.132 0 0 1 3.127-3.127h11.792a3.131 3.131 0 0 1 3.127 3.127z" class="prefix__cls-2" data-name="Path 515" transform="translate(-488.361 -187.505)"/>
                <path id="prefix__Path_516" d="M503.4 215.192a5.515 5.515 0 1 0-5.515 5.515 5.521 5.521 0 0 0 5.515-5.515zm-8.864 0a3.349 3.349 0 1 1 3.349 3.349 3.352 3.352 0 0 1-3.348-3.349z" class="prefix__cls-2" data-name="Path 516" transform="translate(-486.697 -190.914)"/>
                <path id="prefix__Path_517" d="M523.505 217.895h-11.79a5.3 5.3 0 0 0-5.293 5.293v8.506a1.084 1.084 0 0 0 1.082 1.084h3.086v2.7a1.084 1.084 0 0 0 1.084 1.084h11.874a1.084 1.084 0 0 0 1.082-1.084v-2.7h3.086a1.084 1.084 0 0 0 1.082-1.084v-8.506a5.3 5.3 0 0 0-5.293-5.293zm3.127 12.717h-2v-5.57h-2.166v9.358h-9.708v-9.354h-2.168v5.57h-2v-7.424a3.131 3.131 0 0 1 3.127-3.127h11.79a3.131 3.131 0 0 1 3.127 3.127z" class="prefix__cls-2" data-name="Path 517" transform="translate(-480.868 -187.505)"/>
                <path id="prefix__Path_518" d="M515.947 209.678a5.515 5.515 0 1 0 5.514 5.514 5.52 5.52 0 0 0-5.514-5.514zm0 8.863a3.348 3.348 0 1 1 3.348-3.349 3.353 3.353 0 0 1-3.348 3.349z" class="prefix__cls-2" data-name="Path 518" transform="translate(-479.204 -190.914)"/>
                <path id="prefix__Path_519" d="M500.784 196.429c-5.553 0-10.073 3.728-10.073 8.31s4.519 8.311 10.071 8.311h.017a12.175 12.175 0 0 0 1.282-.068l2.9 2.657a1.814 1.814 0 0 0 1.222.475 1.756 1.756 0 0 0 .707-.147 1.78 1.78 0 0 0 1.071-1.638v-3.751a7.774 7.774 0 0 0 2.878-5.808v-.031c-.003-4.582-4.522-8.31-10.075-8.31zm5.5 12.714a1.086 1.086 0 0 0-.468.893v3.428l-2.637-2.418a1.084 1.084 0 0 0-.732-.284 1 1 0 0 0-.16.011 10.1 10.1 0 0 1-1.5.11c-4.359 0-7.906-2.756-7.906-6.145s3.547-6.143 7.906-6.143 7.9 2.748 7.906 6.129a5.587 5.587 0 0 1-2.413 4.419z" class="prefix__cls-2" data-name="Path 519" transform="translate(-487.386 -196.411)"/>
                <path id="prefix__Path_520" d="M508.541 210.563v3.8a1.781 1.781 0 0 0 1.779 1.791h.007a1.785 1.785 0 0 0 1.211-.473l2.9-2.661a12.129 12.129 0 0 0 1.281.068h.026a11.3 11.3 0 0 0 7.013-2.385 7.641 7.641 0 0 0 3.031-5.962c0-4.593-4.509-8.328-10.053-8.328s-10.073 3.728-10.073 8.31v.031a7.769 7.769 0 0 0 2.878 5.809zm7.195-11.981c4.349 0 7.887 2.765 7.887 6.162 0 3.376-3.541 6.149-7.9 6.182a10.028 10.028 0 0 1-1.483-.11 1.082 1.082 0 0 0-.891.273l-2.637 2.419v-3.486a1.083 1.083 0 0 0-.468-.891 5.589 5.589 0 0 1-2.41-4.419c.005-3.382 3.548-6.13 7.901-6.13z" class="prefix__cls-2" data-name="Path 520" transform="translate(-481.183 -196.416)"/>
            </g>
        </g>
    </g>
</svg>
