<svg xmlns="http://www.w3.org/2000/svg" id="prefix__Component_27_1" width="103.816" height="103.816" data-name="Component 27 – 1" viewBox="0 0 103.816 103.816">
    <defs>
        <style>
            .prefix__cls-2{fill:#67bdc3}
        </style>
    </defs>
    <circle id="prefix__Ellipse_129" cx="51.908" cy="51.908" r="51.908" fill="#de1f46" data-name="Ellipse 129"/>
    <g id="prefix__Group_533" data-name="Group 533" transform="translate(17.456 11.501)">
        <path id="prefix__Path_561" d="M522.536 196.983a1.168 1.168 0 0 0 1.653-1.652l-1.472-1.472a1.168 1.168 0 0 0-1.652 1.652z" class="prefix__cls-2" data-name="Path 561" transform="translate(-463.812 -186.505)"/>
        <path id="prefix__Path_562" d="M521.39 197.046a1.169 1.169 0 0 0 0 1.653l1.472 1.472a1.169 1.169 0 1 0 1.653-1.653l-1.474-1.472a1.17 1.17 0 0 0-1.651 0z" class="prefix__cls-2" data-name="Path 562" transform="translate(-463.634 -184.758)"/>
        <path id="prefix__Path_563" d="M519.349 196.659a1.168 1.168 0 0 0 1.651-1.654l-1.472-1.472a1.168 1.168 0 0 0-1.652 1.652z" class="prefix__cls-2" data-name="Path 563" transform="translate(-465.559 -186.683)"/>
        <path id="prefix__Path_564" d="M521.716 200.234a1.169 1.169 0 0 0 0 1.653l1.472 1.471a1.168 1.168 0 0 0 1.652-1.652l-1.472-1.472a1.167 1.167 0 0 0-1.652 0z" class="prefix__cls-2" data-name="Path 564" transform="translate(-463.455 -183.011)"/>
        <path id="prefix__Path_565" d="M518.2 196.721a1.167 1.167 0 0 0 0 1.652l1.471 1.472a1.168 1.168 0 1 0 1.653-1.652l-1.472-1.472a1.167 1.167 0 0 0-1.652 0z" class="prefix__cls-2" data-name="Path 565" transform="translate(-465.38 -184.936)"/>
        <path id="prefix__Path_566" d="M516.161 196.333a1.168 1.168 0 0 0 1.652-1.653l-1.472-1.472a1.168 1.168 0 0 0-1.652 1.652z" class="prefix__cls-2" data-name="Path 566" transform="translate(-467.306 -186.862)"/>
        <path id="prefix__Path_567" d="M520.506 203.1a1.168 1.168 0 0 0-1.652 1.653l1.472 1.471a1.168 1.168 0 1 0 1.652-1.652z" class="prefix__cls-2" data-name="Path 567" transform="translate(-465.023 -181.443)"/>
        <path id="prefix__Path_568" d="M515.341 199.583a1.167 1.167 0 0 0 0 1.652l1.472 1.472a1.168 1.168 0 0 0 1.652-1.653l-1.472-1.471a1.167 1.167 0 0 0-1.652 0z" class="prefix__cls-2" data-name="Path 568" transform="translate(-466.948 -183.368)"/>
        <path id="prefix__Path_569" d="M513.3 199.195a1.168 1.168 0 0 0 1.652-1.653l-1.472-1.472a1.168 1.168 0 0 0-1.652 1.652z" class="prefix__cls-2" data-name="Path 569" transform="translate(-468.874 -185.294)"/>
        <path id="prefix__Path_570" d="M518.528 199.908a1.169 1.169 0 0 0 0 1.653l1.472 1.472a1.169 1.169 0 1 0 1.653-1.653l-1.474-1.472a1.17 1.17 0 0 0-1.651 0z" class="prefix__cls-2" data-name="Path 570" transform="translate(-465.202 -183.19)"/>
        <path id="prefix__Path_571" d="M515.015 196.4a1.167 1.167 0 0 0 0 1.652l1.472 1.474a1.168 1.168 0 1 0 1.652-1.653l-1.472-1.472a1.167 1.167 0 0 0-1.652-.001z" class="prefix__cls-2" data-name="Path 571" transform="translate(-467.127 -185.115)"/>
        <path id="prefix__Path_572" d="M517.318 202.77a1.168 1.168 0 0 0-1.652 1.653l1.472 1.472a1.169 1.169 0 1 0 1.653-1.653z" class="prefix__cls-2" data-name="Path 572" transform="translate(-466.77 -181.621)"/>
        <path id="prefix__Path_573" d="M512.153 199.257a1.167 1.167 0 0 0 0 1.652l1.472 1.474a1.168 1.168 0 0 0 1.652-1.653l-1.472-1.472a1.167 1.167 0 0 0-1.652-.001z" class="prefix__cls-2" data-name="Path 573" transform="translate(-468.695 -183.547)"/>
        <path id="prefix__Path_574" d="M514.131 202.445a1.168 1.168 0 0 0-1.652 1.652l1.472 1.472a1.168 1.168 0 0 0 1.652-1.653z" class="prefix__cls-2" data-name="Path 574" transform="translate(-468.517 -181.8)"/>
        <path id="prefix__Path_575" d="M503.942 221.091a1.168 1.168 0 0 0 1.652 0l9.343-9.343a1.167 1.167 0 0 0 0-1.652l-3.1-3.1a1.17 1.17 0 0 0-1.652 0l-9.344 9.343a1.168 1.168 0 0 0 0 1.652zm7.068-11.617l1.449 1.447-7.69 7.692-1.449-1.449z" class="prefix__cls-2" data-name="Path 575" transform="translate(-474.894 -179.307)"/>
        <path id="prefix__Path_576" d="M538.457 263.756h-46.483a5.658 5.658 0 0 1-4-9.659l5.422-5.422 1.94 1.94a1.168 1.168 0 0 0 1.652 0l3.385-3.385a2.935 2.935 0 0 0 3.755-.085l31.166-27.066c.279.014.554.04.833.04a15.568 15.568 0 1 0-15.569-15.569c0 .28.026.556.042.833l-27.068 31.167a2.96 2.96 0 0 0-.085 3.757l-3.384 3.384a1.169 1.169 0 0 0 0 1.653l1.681 1.68-5.422 5.422a8 8 0 0 0 5.653 13.65h46.484a1.169 1.169 0 0 0 0-2.337zm-12.342-67.842a1.128 1.128 0 0 0 .291.567l1.474 1.472a1.168 1.168 0 0 0 1.652-1.652l-1.472-1.472a1.123 1.123 0 0 0-.565-.291 13.107 13.107 0 0 1 3.6-2.226l1.212 1.211a1.168 1.168 0 1 0 1.652-1.652l-.314-.314a13.126 13.126 0 0 1 1.854-.2 1.161 1.161 0 0 0 .269 1.2l1.472 1.472a1.168 1.168 0 0 0 1.652-1.653l-.906-.906a13.2 13.2 0 0 1 2.412.574 1.141 1.141 0 0 0 .3 1.015l1.472 1.472a1.168 1.168 0 0 0 1.652 0 1.144 1.144 0 0 0 .282-.515 11.894 11.894 0 0 1 2.55 2.548 1.131 1.131 0 0 0-.517.283 1.167 1.167 0 0 0 0 1.652l1.472 1.472a.961.961 0 0 0 1.017.3 13.185 13.185 0 0 1 .573 2.41l-.906-.906a1.168 1.168 0 0 0-1.652 1.652l1.472 1.472a1.163 1.163 0 0 0 .827.344 1.186 1.186 0 0 0 .376-.074 13.33 13.33 0 0 1-.206 1.854l-.313-.313a1.168 1.168 0 1 0-1.653 1.652l1.212 1.212a13.138 13.138 0 0 1-2.226 3.6 1.145 1.145 0 0 0-.291-.563l-1.472-1.474a1.169 1.169 0 0 0-1.653 1.653l1.472 1.472a1.143 1.143 0 0 0 .567.293 13.145 13.145 0 0 1-3.6 2.231l-1.217-1.218a1.169 1.169 0 1 0-1.653 1.653l.319.319a13.439 13.439 0 0 1-1.861.206 1.156 1.156 0 0 0-.268-1.209l-1.472-1.472a1.168 1.168 0 0 0-1.652 1.652l.915.916a13.218 13.218 0 0 1-2.421-.574 1.148 1.148 0 0 0-.3-1.026l-1.474-1.472a1.17 1.17 0 0 0-1.652 0 1.125 1.125 0 0 0-.282.519 13.5 13.5 0 0 1-1.372-1.18 13.3 13.3 0 0 1-1.178-1.37 1.131 1.131 0 0 0 .517-.283 1.167 1.167 0 0 0 0-1.652l-1.472-1.472a1.145 1.145 0 0 0-1.025-.3 12.961 12.961 0 0 1-.574-2.423l.915.916a1.168 1.168 0 0 0 1.652-1.653l-1.472-1.472a1.158 1.158 0 0 0-1.207-.268 13.485 13.485 0 0 1 .206-1.861l.319.319a1.168 1.168 0 1 0 1.652-1.652l-1.218-1.218a13.176 13.176 0 0 1 2.237-3.597zM495.3 238.08l25.763-29.665a15.488 15.488 0 0 0 11.2 11.2l-29.665 25.763a.625.625 0 0 1-.848-.031l-3.211-3.21-3.21-3.21a.624.624 0 0 1-.029-.847zm-.223 3.9l3.621 3.619-2.534 2.534-3.619-3.621z" class="prefix__cls-2" data-name="Path 576" transform="translate(-483.957 -188.987)"/>
        <path id="prefix__Path_577" d="M529.84 237.289h-7.07a1.169 1.169 0 0 0 0 2.337h7.07a1.169 1.169 0 0 0 0-2.337z" class="prefix__cls-2" data-name="Path 577" transform="translate(-463.329 -162.52)"/>
    </g>
</svg>
