<svg xmlns="http://www.w3.org/2000/svg" id="prefix__Component_26_1" width="460.5" height="242.497" data-name="Component 26 – 1" viewBox="0 0 460.5 242.497">
    <defs>
        <style>
            .prefix__cls-1{fill:#320445}.prefix__cls-3{fill:#6cd6d6}.prefix__cls-4{fill:#fff}.prefix__cls-5{fill:#fc2d54}
        </style>
    </defs>
    <path id="prefix__Path_526" d="M541.158 217.4a7.665 7.665 0 0 0-2.691-3.012l.206-.074c-10.3-7.357-39.4-20.445-55.057-22.836-.388-22.355-3.314-41.684-11.008-50.628-22.863-26.58-153.808 1.85-161.808 1.587-18.228-.607-107.362-27.7-162.347 3.709-9.073 5.182-12.274 23.488-12.443 45.934-15.68 3.255-41.093 14.7-51.408 21.693a8.225 8.225 0 0 0-3.328 3.423c-4.013 8.907 26.351 95.858 30.658 108.09.327.929 1.661 1.424 1.661 1.424l391.075-.014s1.975-.356 2.229-1.027c4.01-10.647 37.722-100.569 34.261-108.269z" class="prefix__cls-1" data-name="Path 526" transform="translate(-80.907 -129.489)"/>
    <circle id="prefix__Ellipse_120" cx="7.997" cy="7.997" r="7.997" class="prefix__cls-3" data-name="Ellipse 120" transform="translate(128.221 134.1)"/>
    <circle id="prefix__Ellipse_121" cx="7.997" cy="7.997" r="7.997" class="prefix__cls-3" data-name="Ellipse 121" transform="translate(169.614 134.289)"/>
    <circle id="prefix__Ellipse_122" cx="7.997" cy="7.997" r="7.997" class="prefix__cls-3" data-name="Ellipse 122" transform="translate(242.753 134.289)"/>
    <circle id="prefix__Ellipse_123" cx="7.997" cy="7.997" r="7.997" class="prefix__cls-3" data-name="Ellipse 123" transform="translate(315.599 134.289)"/>
    <path id="prefix__Path_528" d="M502.968 434.58l-327.376 25.848-2.783-31.8 327.376-25.847z" class="prefix__cls-3" data-name="Path 528" transform="translate(-110.649 -217.931)"/>
    <path id="prefix__Path_529" d="M205.868 451.393a7.2 7.2 0 0 1 2.916 2.492 7.619 7.619 0 0 1 1.294 3.75l.511 6.337a.989.989 0 0 1-.237.752 1.024 1.024 0 0 1-.73.358 1.054 1.054 0 0 1-.779-.222.985.985 0 0 1-.357-.718l-.131-1.618a6.684 6.684 0 0 1-2.235 2.229 6.993 6.993 0 0 1-3.149 1 7.122 7.122 0 0 1-6.621-3.171 7.7 7.7 0 0 1-1.265-3.738 7.6 7.6 0 0 1 .674-3.909 7.171 7.171 0 0 1 2.478-2.928 7.907 7.907 0 0 1 7.631-.618zm-.116 11.5a5.255 5.255 0 0 0 1.793-2.167 6.153 6.153 0 0 0-.463-5.744 5.384 5.384 0 0 0-2.12-1.865 5.329 5.329 0 0 0-2.837-.517 5.4 5.4 0 0 0-2.731.967 5.333 5.333 0 0 0-1.805 2.183 6.153 6.153 0 0 0 .463 5.744 5.239 5.239 0 0 0 2.132 1.849 5.469 5.469 0 0 0 2.85.5 5.4 5.4 0 0 0 2.718-.943z" class="prefix__cls-4" data-name="Path 529" transform="translate(-117.848 -233.436)"/>
    <path id="prefix__Path_530" d="M232.874 449a5.811 5.811 0 0 1 2.578 2.166 7.535 7.535 0 0 1 1.162 3.638l.567 7.011a1.016 1.016 0 0 1-.941 1.108 1.025 1.025 0 0 1-.78-.236.99.99 0 0 1-.355-.7l-.567-7.011a4.787 4.787 0 0 0-1.631-3.546 4.906 4.906 0 0 0-3.593-.972 5.452 5.452 0 0 0-2.346.706 4.218 4.218 0 0 0-1.571 1.552 3.478 3.478 0 0 0-.458 2.059l.645 7.983a.974.974 0 0 1-.941 1.107 1.054 1.054 0 0 1-.779-.222.983.983 0 0 1-.356-.718l-1.025-12.675a1.019 1.019 0 0 1 .968-1.136.981.981 0 0 1 .765.236 1.051 1.051 0 0 1 .344.733l.074.917a6.305 6.305 0 0 1 2.031-1.738 6.687 6.687 0 0 1 2.7-.789 7.228 7.228 0 0 1 3.509.527z" class="prefix__cls-4" data-name="Path 530" transform="translate(-126.723 -232.707)"/>
    <path id="prefix__Path_531" d="M260.7 446.807a1.2 1.2 0 0 1-.068.5l-7.187 19.906a.826.826 0 0 1-.731.684 1.081 1.081 0 0 1-.494-.068.842.842 0 0 1-.685-.759 1.181 1.181 0 0 1 .068-.494l2.192-6.122v-.027l-7.021-11.973a1.066 1.066 0 0 1-.147-.477.836.836 0 0 1 .528-.857 1.077 1.077 0 0 1 .478-.147.833.833 0 0 1 .854.5l6.155 10.658 4.121-11.462a.869.869 0 0 1 .762-.658 1.184 1.184 0 0 1 .494.068.824.824 0 0 1 .681.728z" class="prefix__cls-4" data-name="Path 531" transform="translate(-134.537 -231.92)"/>
    <path id="prefix__Path_532" d="M279.6 455.675a1.083 1.083 0 0 1 .331.733.95.95 0 0 1-.264.754 1.153 1.153 0 0 1-.785.362l-.567.046a4.826 4.826 0 0 1-4.534-2.2 5.508 5.508 0 0 1-.849-2.605l-.582-7.2-1.753.141a.934.934 0 0 1-.709-.2.863.863 0 0 1-.308-.613.9.9 0 0 1 .2-.681.937.937 0 0 1 .668-.312l1.752-.141-.338-4.18a1.055 1.055 0 0 1 .222-.778.985.985 0 0 1 .719-.357 1.018 1.018 0 0 1 1.136.967l.338 4.18 3.048-.247a.938.938 0 0 1 .708.2.9.9 0 0 1 .31.641.858.858 0 0 1-.206.653.924.924 0 0 1-.666.312l-3.048.248.582 7.2a3.2 3.2 0 0 0 .991 2.186 2.707 2.707 0 0 0 2.147.709l.728-.059a.907.907 0 0 1 .729.241z" class="prefix__cls-4" data-name="Path 532" transform="translate(-141.965 -229.472)"/>
    <path id="prefix__Path_533" d="M297.5 441.052a5.81 5.81 0 0 1 2.577 2.166 7.541 7.541 0 0 1 1.163 3.638l.567 7.011a1.016 1.016 0 0 1-.942 1.107 1.023 1.023 0 0 1-.779-.235.994.994 0 0 1-.356-.7l-.567-7.011a4.791 4.791 0 0 0-1.629-3.547 4.916 4.916 0 0 0-3.594-.971 5.447 5.447 0 0 0-2.345.706 4.22 4.22 0 0 0-1.571 1.552 3.48 3.48 0 0 0-.458 2.06l.645 7.982a.975.975 0 0 1-.941 1.108 1.057 1.057 0 0 1-.779-.223.981.981 0 0 1-.357-.718l-1.534-18.99a1.018 1.018 0 0 1 .967-1.136.98.98 0 0 1 .766.236 1.051 1.051 0 0 1 .344.732l.584 7.228a6.316 6.316 0 0 1 2.03-1.739 6.711 6.711 0 0 1 2.706-.789 7.237 7.237 0 0 1 3.503.533z" class="prefix__cls-4" data-name="Path 533" transform="translate(-147.472 -228.309)"/>
    <path id="prefix__Path_534" d="M314.207 436.049a1.466 1.466 0 0 1-.5-1.019 1.376 1.376 0 0 1 .347-1.086 1.483 1.483 0 0 1 1.019-.49 1.445 1.445 0 0 1 1.057.322 1.384 1.384 0 0 1 .517 1.016 1.478 1.478 0 0 1-1.364 1.6 1.393 1.393 0 0 1-1.076-.343zm1.74 17.665a1.024 1.024 0 0 1-.357-.73l-1.022-12.648a1.018 1.018 0 0 1 .967-1.137.983.983 0 0 1 .766.237 1.059 1.059 0 0 1 .345.733l1.021 12.648a1.051 1.051 0 0 1-.223.777.977.977 0 0 1-.717.357 1.027 1.027 0 0 1-.78-.237z" class="prefix__cls-4" data-name="Path 534" transform="translate(-156.243 -227.857)"/>
    <path id="prefix__Path_535" d="M336.255 440.64a5.823 5.823 0 0 1 2.578 2.166 7.535 7.535 0 0 1 1.167 3.638l.567 7.011a1.015 1.015 0 0 1-.942 1.108 1.027 1.027 0 0 1-.779-.235.994.994 0 0 1-.356-.7l-.567-7.011a4.784 4.784 0 0 0-1.63-3.546 4.907 4.907 0 0 0-3.594-.971 5.443 5.443 0 0 0-2.345.705 4.21 4.21 0 0 0-1.571 1.552 3.471 3.471 0 0 0-.457 2.058l.645 7.983a.975.975 0 0 1-.941 1.108 1.054 1.054 0 0 1-.779-.222.984.984 0 0 1-.356-.718l-1.025-12.674a1.02 1.02 0 0 1 .968-1.137.978.978 0 0 1 .765.237 1.052 1.052 0 0 1 .344.732l.075.916a6.314 6.314 0 0 1 2.03-1.738 6.7 6.7 0 0 1 2.7-.789 7.229 7.229 0 0 1 3.503.527z" class="prefix__cls-4" data-name="Path 535" transform="translate(-160.179 -230.003)"/>
    <path id="prefix__Path_536" d="M363.269 438.643a6.95 6.95 0 0 1 2.886 2.454 7.789 7.789 0 0 1 1.285 3.818l.444 5.5a8.058 8.058 0 0 1-.641 3.988 7.18 7.18 0 0 1-2.433 2.979 7.374 7.374 0 0 1-3.748 1.321 8.411 8.411 0 0 1-3.757-.484 7.687 7.687 0 0 1-2.9-1.964.9.9 0 0 1-.293-.6.875.875 0 0 1 .321-.732 1.011 1.011 0 0 1 .578-.236 1.067 1.067 0 0 1 .5.083.992.992 0 0 1 .4.279 5.466 5.466 0 0 0 2.178 1.425 6.7 6.7 0 0 0 2.85.34 5.16 5.16 0 0 0 4.438-3.2 6.5 6.5 0 0 0 .454-3.117l-.1-1.213a6.014 6.014 0 0 1-2.1 2.6 6.523 6.523 0 0 1-3.3 1.149 7.4 7.4 0 0 1-3.84-.654 6.743 6.743 0 0 1-2.8-2.459 8 8 0 0 1-1.243-3.8 7.786 7.786 0 0 1 .655-3.976 6.93 6.93 0 0 1 2.467-2.886 8.243 8.243 0 0 1 7.7-.622zm-.125 11.546a5.073 5.073 0 0 0 1.78-2.152 6.359 6.359 0 0 0-.469-5.8 5.162 5.162 0 0 0-2.1-1.852 5.457 5.457 0 0 0-2.864-.5 5.513 5.513 0 0 0-2.772.956 5.172 5.172 0 0 0-1.778 2.166 6.364 6.364 0 0 0 .469 5.8 5.072 5.072 0 0 0 2.1 1.839 5.928 5.928 0 0 0 5.636-.456z" class="prefix__cls-4" data-name="Path 536" transform="translate(-168.773 -229.319)"/>
    <path id="prefix__Path_537" d="M395.232 449.242a7.1 7.1 0 0 1-2.847-2.484 7.7 7.7 0 0 1-1.266-3.739 8.105 8.105 0 0 1 .6-3.944 6.841 6.841 0 0 1 2.318-2.887 6.958 6.958 0 0 1 3.563-1.265 6.743 6.743 0 0 1 5.684 2.145.83.83 0 0 1 .262.549 1.015 1.015 0 0 1-.9 1 1.086 1.086 0 0 1-.816-.342 5.518 5.518 0 0 0-1.887-1.191 5.137 5.137 0 0 0-2.194-.27 4.945 4.945 0 0 0-2.584.928 4.763 4.763 0 0 0-1.631 2.154 6.544 6.544 0 0 0-.4 2.964 6.086 6.086 0 0 0 .906 2.817 5.031 5.031 0 0 0 2.05 1.857 5.313 5.313 0 0 0 2.836.5 5.1 5.1 0 0 0 3.385-1.441 1.125 1.125 0 0 1 .7-.355.935.935 0 0 1 .611.168.949.949 0 0 1 .436.7.775.775 0 0 1-.222.616 6.945 6.945 0 0 1-4.762 2.2 7.333 7.333 0 0 1-3.842-.68z" class="prefix__cls-4" data-name="Path 537" transform="translate(-181.288 -228.325)"/>
    <path id="prefix__Path_538" d="M425.667 433.629a7.187 7.187 0 0 1 2.915 2.492 7.606 7.606 0 0 1 1.294 3.75l.512 6.337a.993.993 0 0 1-.237.753 1.023 1.023 0 0 1-.731.357 1.057 1.057 0 0 1-.779-.222.981.981 0 0 1-.357-.718l-.131-1.617a6.7 6.7 0 0 1-2.235 2.23 6.993 6.993 0 0 1-3.149 1 7.124 7.124 0 0 1-6.621-3.17 7.71 7.71 0 0 1-1.266-3.739 7.61 7.61 0 0 1 .675-3.909 7.18 7.18 0 0 1 2.478-2.928 7.913 7.913 0 0 1 7.631-.617zm-.116 11.5a5.268 5.268 0 0 0 1.793-2.167 6.154 6.154 0 0 0-.463-5.744 5.384 5.384 0 0 0-2.12-1.865 5.33 5.33 0 0 0-2.837-.516 5.383 5.383 0 0 0-2.731.967 5.328 5.328 0 0 0-1.805 2.181 6.152 6.152 0 0 0 .464 5.745 5.242 5.242 0 0 0 2.131 1.851 5.473 5.473 0 0 0 2.849.5 5.4 5.4 0 0 0 2.719-.947z" class="prefix__cls-4" data-name="Path 538" transform="translate(-188.98 -227.687)"/>
    <path id="prefix__Path_539" d="M452.673 431.23a5.824 5.824 0 0 1 2.578 2.166 7.543 7.543 0 0 1 1.163 3.638l.567 7.011a1.016 1.016 0 0 1-.942 1.108 1.025 1.025 0 0 1-.78-.235.993.993 0 0 1-.356-.7l-.567-7.011a4.784 4.784 0 0 0-1.63-3.546 4.909 4.909 0 0 0-3.593-.973 5.471 5.471 0 0 0-2.346.705 4.225 4.225 0 0 0-1.571 1.552 3.481 3.481 0 0 0-.458 2.06l.645 7.982a.975.975 0 0 1-.941 1.108 1.058 1.058 0 0 1-.779-.222.985.985 0 0 1-.357-.718l-1.025-12.674a1.019 1.019 0 0 1 .968-1.137.981.981 0 0 1 .765.237 1.055 1.055 0 0 1 .344.733l.075.917a6.29 6.29 0 0 1 2.03-1.738 6.676 6.676 0 0 1 2.706-.789 7.236 7.236 0 0 1 3.504.526z" class="prefix__cls-4" data-name="Path 539" transform="translate(-197.855 -226.958)"/>
    <path id="prefix__Path_540" d="M491.1 425.4a5.817 5.817 0 0 1 2.578 2.166 7.543 7.543 0 0 1 1.162 3.638l.566 7.011a1.014 1.014 0 0 1-.94 1.108 1.023 1.023 0 0 1-.78-.236.989.989 0 0 1-.356-.7l-.567-7.011a4.787 4.787 0 0 0-1.63-3.546 4.909 4.909 0 0 0-3.593-.972 5.47 5.47 0 0 0-2.346.705 4.22 4.22 0 0 0-1.571 1.552 3.477 3.477 0 0 0-.458 2.059l.645 7.983a.975.975 0 0 1-.942 1.107 1.052 1.052 0 0 1-.779-.222.984.984 0 0 1-.356-.718l-1.533-18.983a1.019 1.019 0 0 1 .968-1.138.979.979 0 0 1 .765.237 1.054 1.054 0 0 1 .344.733l.585 7.226a6.3 6.3 0 0 1 2.03-1.738 6.676 6.676 0 0 1 2.7-.789 7.224 7.224 0 0 1 3.508.528z" class="prefix__cls-4" data-name="Path 540" transform="translate(-210.126 -223.245)"/>
    <path id="prefix__Path_541" d="M518.323 426.14a7.19 7.19 0 0 1 2.916 2.492 7.623 7.623 0 0 1 1.294 3.749l.512 6.337a.994.994 0 0 1-.238.753 1.027 1.027 0 0 1-.731.357 1.05 1.05 0 0 1-.778-.223.98.98 0 0 1-.358-.718l-.131-1.618a6.682 6.682 0 0 1-2.235 2.229 6.985 6.985 0 0 1-3.149 1 7.123 7.123 0 0 1-6.621-3.17 7.7 7.7 0 0 1-1.266-3.738 7.606 7.606 0 0 1 .674-3.909 7.185 7.185 0 0 1 2.478-2.928 7.913 7.913 0 0 1 7.631-.617zm-.116 11.5a5.26 5.26 0 0 0 1.793-2.162 6.15 6.15 0 0 0-.465-5.744 5.37 5.37 0 0 0-2.118-1.864 5.315 5.315 0 0 0-2.837-.516 5.4 5.4 0 0 0-2.731.966 5.335 5.335 0 0 0-1.8 2.182 6.153 6.153 0 0 0 .463 5.744 5.238 5.238 0 0 0 2.131 1.85 5.472 5.472 0 0 0 2.85.5 5.406 5.406 0 0 0 2.714-.951z" class="prefix__cls-4" data-name="Path 541" transform="translate(-218.965 -225.264)"/>
    <path id="prefix__Path_542" d="M546.471 423.865a7.193 7.193 0 0 1 2.915 2.492 7.624 7.624 0 0 1 1.294 3.75 7.715 7.715 0 0 1-.649 3.893 7.128 7.128 0 0 1-6.026 4.192 7 7 0 0 1-3.269-.482 6.7 6.7 0 0 1-2.566-1.842l.639 7.9a1.017 1.017 0 0 1-.965 1.137.983.983 0 0 1-.766-.237 1.055 1.055 0 0 1-.344-.733l-.488-6.041a.846.846 0 0 1-.047-.24l-.512-6.337a7.612 7.612 0 0 1 .674-3.909 7.2 7.2 0 0 1 2.478-2.928 7.912 7.912 0 0 1 7.632-.617zm-.1 11.5a5.23 5.23 0 0 0 1.806-2.168 6.148 6.148 0 0 0-.463-5.744 5.445 5.445 0 0 0-9.494.767 5.821 5.821 0 0 0-.482 2.93 6.453 6.453 0 0 0 .081.672.3.3 0 0 1 .038.133 5.432 5.432 0 0 0 2.046 3.309 5.238 5.238 0 0 0 3.736 1.055 5.468 5.468 0 0 0 2.73-.951z" class="prefix__cls-4" data-name="Path 542" transform="translate(-228.074 -224.527)"/>
    <path id="prefix__Path_543" d="M574.658 421.587a7.186 7.186 0 0 1 2.915 2.492 7.62 7.62 0 0 1 1.295 3.75 7.721 7.721 0 0 1-.649 3.893 7.124 7.124 0 0 1-6.026 4.192 6.975 6.975 0 0 1-3.269-.482 6.687 6.687 0 0 1-2.566-1.842l.638 7.9a1.016 1.016 0 0 1-.967 1.136.985.985 0 0 1-.766-.236 1.06 1.06 0 0 1-.344-.733l-.488-6.041a.846.846 0 0 1-.046-.241l-.512-6.337a7.611 7.611 0 0 1 .674-3.909 7.184 7.184 0 0 1 2.478-2.928 7.912 7.912 0 0 1 7.632-.617zm-.1 11.5a5.253 5.253 0 0 0 1.806-2.168 6.154 6.154 0 0 0-.464-5.745 5.341 5.341 0 0 0-2.132-1.862 5.4 5.4 0 0 0-2.852-.516 5.332 5.332 0 0 0-4.509 3.146 5.809 5.809 0 0 0-.483 2.93 6.064 6.064 0 0 0 .081.672.311.311 0 0 1 .039.133 5.432 5.432 0 0 0 2.045 3.309 5.249 5.249 0 0 0 3.737 1.056 5.49 5.49 0 0 0 2.731-.951z" class="prefix__cls-4" data-name="Path 543" transform="translate(-237.196 -223.79)"/>
    <path id="prefix__Path_544" d="M600.968 419.423a6.368 6.368 0 0 1 2.595 2.384 8.082 8.082 0 0 1 1.153 3.68.907.907 0 0 1-.215.709.977.977 0 0 1-.68.313l-10.894.881a5.322 5.322 0 0 0 5.9 4.517 6 6 0 0 0 1.928-.494 4.743 4.743 0 0 0 1.509-.977 1.183 1.183 0 0 1 .706-.329 1.017 1.017 0 0 1 .611.168.98.98 0 0 1 .411.7.819.819 0 0 1-.248.644 7.333 7.333 0 0 1-2.164 1.437 7.835 7.835 0 0 1-6.537.068 6.845 6.845 0 0 1-2.871-2.455 7.815 7.815 0 0 1-1.27-3.792 8.251 8.251 0 0 1 .588-3.97 6.681 6.681 0 0 1 2.292-2.873 7.016 7.016 0 0 1 3.577-1.253 6.713 6.713 0 0 1 3.609.642zm-6.754 2.758a5.52 5.52 0 0 0-1.374 3.477l9.87-.8a5.289 5.289 0 0 0-1.781-3.222 4.555 4.555 0 0 0-3.42-1 4.784 4.784 0 0 0-3.294 1.545z" class="prefix__cls-4" data-name="Path 544" transform="translate(-245.942 -223.1)"/>
    <path id="prefix__Path_545" d="M626.186 417.207a5.819 5.819 0 0 1 2.578 2.166 7.532 7.532 0 0 1 1.162 3.638l.567 7.011a1.015 1.015 0 0 1-.941 1.108 1.033 1.033 0 0 1-.78-.236 1 1 0 0 1-.356-.7l-.567-7.011a4.781 4.781 0 0 0-1.629-3.546 4.906 4.906 0 0 0-3.594-.973 5.45 5.45 0 0 0-2.345.705 4.225 4.225 0 0 0-1.572 1.552 3.477 3.477 0 0 0-.457 2.059l.645 7.983a.973.973 0 0 1-.941 1.107 1.049 1.049 0 0 1-.779-.222.98.98 0 0 1-.357-.717l-1.02-12.678a1.017 1.017 0 0 1 .967-1.137.981.981 0 0 1 .764.237 1.051 1.051 0 0 1 .344.732l.075.917a6.3 6.3 0 0 1 2.03-1.738 6.7 6.7 0 0 1 2.7-.789 7.236 7.236 0 0 1 3.506.532z" class="prefix__cls-4" data-name="Path 545" transform="translate(-254.007 -222.419)"/>
    <g id="prefix__Group_520" data-name="Group 520" transform="translate(33.56 192.087)">
        <ellipse id="prefix__Ellipse_124" cx="11.728" cy="7.132" class="prefix__cls-1" data-name="Ellipse 124" rx="11.728" ry="7.132"/>
        <ellipse id="prefix__Ellipse_125" cx="7.132" cy="5.847" class="prefix__cls-1" data-name="Ellipse 125" rx="7.132" ry="5.847" transform="translate(4.596 9.524)"/>
    </g>
    <g id="prefix__Group_521" data-name="Group 521" transform="translate(401.243 192.087)">
        <ellipse id="prefix__Ellipse_126" cx="11.728" cy="7.132" class="prefix__cls-1" data-name="Ellipse 126" rx="11.728" ry="7.132"/>
        <ellipse id="prefix__Ellipse_127" cx="7.132" cy="5.847" class="prefix__cls-1" data-name="Ellipse 127" rx="7.132" ry="5.847" transform="translate(4.596 9.524)"/>
    </g>
    <g id="prefix__Group_522" data-name="Group 522" transform="translate(76.76 112.425)">
        <path id="prefix__Path_546" d="M198.171 355.473a5.7 5.7 0 0 1-1.957-1.343 6.122 6.122 0 0 1-1.343-2.024 6.447 6.447 0 0 1-.478-2.48v-47.642a6.174 6.174 0 0 1 1.729-4.414 6.588 6.588 0 0 1 4.232-1.865H221.6a16.96 16.96 0 0 1 6.8 1.388 18 18 0 0 1 10.9 17.223 17.178 17.178 0 0 1-4.095 11.239 18.773 18.773 0 0 1 3.458 5.6 17.6 17.6 0 0 1 1.237 6.545 17.872 17.872 0 0 1-1.41 7.053 18.32 18.32 0 0 1-9.806 9.782 17.776 17.776 0 0 1-6.985 1.411h-21.162a6.047 6.047 0 0 1-2.366-.473zM221.7 319.5a5.083 5.083 0 0 0 3.732-1.548 4.956 4.956 0 0 0 1.5-3.64 7.851 7.851 0 0 0-.478-2.685 4.794 4.794 0 0 0-1.251-2 7.017 7.017 0 0 0-4.187-1.41h-14.109V319.5zm0 23.98a4.811 4.811 0 0 0 2.093-.478 5.422 5.422 0 0 0 1.729-1.3 6.575 6.575 0 0 0 1.161-1.866 5.552 5.552 0 0 0 .432-2.138 5.949 5.949 0 0 0-1.593-4 5.14 5.14 0 0 0-1.729-1.274 5.018 5.018 0 0 0-2.093-.455h-14.793v11.512z" class="prefix__cls-4" data-name="Path 546" transform="translate(-194.394 -295.705)"/>
        <path id="prefix__Path_547" d="M306.815 356.018a5.8 5.8 0 0 1-1.933-1.274 6.177 6.177 0 0 1-1.3-1.911 5.73 5.73 0 0 1-.478-2.321v-48.779a5.828 5.828 0 0 1 1.775-4.277 6.284 6.284 0 0 1 4.277-1.684 5.994 5.994 0 0 1 4.277 1.684 5.829 5.829 0 0 1 1.774 4.277v48.779a5.73 5.73 0 0 1-.477 2.321 6.187 6.187 0 0 1-1.3 1.911 5.81 5.81 0 0 1-4.277 1.729 6.162 6.162 0 0 1-2.338-.455z" class="prefix__cls-4" data-name="Path 547" transform="translate(-229.576 -295.727)"/>
        <path id="prefix__Path_548" d="M368.756 355.994a5.988 5.988 0 0 1-1.979-1.3 5.787 5.787 0 0 1-1.865-4.368v-30.621a29.48 29.48 0 0 1 1.479-9.511 21.759 21.759 0 0 1 4.3-7.553 19.36 19.36 0 0 1 6.962-4.983 23.161 23.161 0 0 1 9.192-1.752 24.505 24.505 0 0 1 9.328 1.706 19.563 19.563 0 0 1 7.144 4.937 21.331 21.331 0 0 1 4.436 7.758 32.038 32.038 0 0 1 1.524 10.17v29.85a5.766 5.766 0 0 1-1.82 4.368 6.523 6.523 0 0 1-2.024 1.3 6.321 6.321 0 0 1-6.8-1.3 5.764 5.764 0 0 1-1.82-4.368v-29.85q0-5.778-2.5-8.964a8.556 8.556 0 0 0-7.144-3.185q-4.87 0-7.3 2.935t-2.434 9.26v29.8a5.958 5.958 0 0 1-1.82 4.368 6.465 6.465 0 0 1-2.048 1.3 6.384 6.384 0 0 1-2.411.478 6.217 6.217 0 0 1-2.4-.475z" class="prefix__cls-4" data-name="Path 548" transform="translate(-249.577 -295.77)"/>
        <path id="prefix__Path_549" d="M486.795 354.812a21.366 21.366 0 0 1-7.121-4.71 22.036 22.036 0 0 1-4.869-7.417 24.647 24.647 0 0 1-1.729-9.328v-14.47a24.65 24.65 0 0 1 1.729-9.328 22.043 22.043 0 0 1 4.869-7.417 21.377 21.377 0 0 1 7.121-4.71 22.729 22.729 0 0 1 8.668-1.661 22.4 22.4 0 0 1 11.831 3.14 24.022 24.022 0 0 1 7.143 7.007 6.972 6.972 0 0 1 1.274 4 5.674 5.674 0 0 1-1.774 4.14 6.36 6.36 0 0 1-4.551 1.775 5.315 5.315 0 0 1-2.411-.546 4.473 4.473 0 0 1-1.775-1.587q-1.138-1.774-1.8-2.639a6.665 6.665 0 0 0-1.616-1.5 8.991 8.991 0 0 0-2.662-1.161 14.763 14.763 0 0 0-3.663-.387 9.888 9.888 0 0 0-7.1 2.549q-3.1 2.958-3.094 8.236v14.652q0 5.279 3.094 8.236a9.885 9.885 0 0 0 7.1 2.549 12 12 0 0 0 6.825-1.775 10.6 10.6 0 0 0 2.047-1.821 18.636 18.636 0 0 0 1.821-2.547v-4.415h-3.55a5.725 5.725 0 0 1-2.321-.478 6.167 6.167 0 0 1-1.911-1.3 5.771 5.771 0 0 1-1.274-1.934 6.252 6.252 0 0 1-.455-2.389 6.029 6.029 0 0 1 .455-2.3 6.313 6.313 0 0 1 1.274-1.978 6.168 6.168 0 0 1 1.911-1.3 5.724 5.724 0 0 1 2.321-.478l8.691.091a5.9 5.9 0 0 1 2.344.478 6.672 6.672 0 0 1 1.979 1.3 5.724 5.724 0 0 1 1.775 4.186v9.828a20.983 20.983 0 0 1-.137 2.321 6.778 6.778 0 0 1-.454 2.093 24.422 24.422 0 0 1-8.646 10.875 21.9 21.9 0 0 1-12.7 3.777 22.729 22.729 0 0 1-8.659-1.657z" class="prefix__cls-4" data-name="Path 549" transform="translate(-284.581 -295.727)"/>
        <path id="prefix__Path_550" d="M593.214 354.789a22.5 22.5 0 0 1-7.28-4.733 21.766 21.766 0 0 1-4.96-7.371 24.1 24.1 0 0 1-1.775-9.328v-14.47a24.1 24.1 0 0 1 1.775-9.328 21.755 21.755 0 0 1 12.24-12.127 23.508 23.508 0 0 1 17.36 0 21.805 21.805 0 0 1 12.217 12.127 24.105 24.105 0 0 1 1.775 9.328v14.47a24.1 24.1 0 0 1-1.775 9.328 21.774 21.774 0 0 1-4.96 7.371 22.806 22.806 0 0 1-15.926 6.417 22.852 22.852 0 0 1-8.691-1.684zm12.65-11.194a8.958 8.958 0 0 0 3.276-1.956q3.231-2.912 3.231-8.19V318.8a12.556 12.556 0 0 0-.841-4.755 9.494 9.494 0 0 0-5.665-5.392 12.184 12.184 0 0 0-3.959-.637 11.99 11.99 0 0 0-3.982.66 9.584 9.584 0 0 0-3.3 1.934 9.036 9.036 0 0 0-2.389 3.435 12.543 12.543 0 0 0-.841 4.755v14.652q0 5.279 3.23 8.19a9.552 9.552 0 0 0 3.3 1.934 11.972 11.972 0 0 0 3.982.66 12.149 12.149 0 0 0 3.958-.636z" class="prefix__cls-4" data-name="Path 550" transform="translate(-318.925 -295.727)"/>
    </g>
    <g id="prefix__Group_523" data-name="Group 523" transform="translate(75.899 26.714)">
        <path id="prefix__Path_551" d="M195.21 236.03a6.618 6.618 0 0 1-2.089-5.013V190.5a21.477 21.477 0 0 1 6.266-15.194 21.788 21.788 0 0 1 6.866-4.647 20.888 20.888 0 0 1 8.329-1.671 20.63 20.63 0 0 1 7.806 1.488 21.464 21.464 0 0 1 6.6 4.2 21.539 21.539 0 0 1 6.579-4.2 20.429 20.429 0 0 1 7.78-1.488 21.264 21.264 0 0 1 8.38 1.671 21.627 21.627 0 0 1 11.573 11.563 21 21 0 0 1 1.671 8.275v40.52a6.836 6.836 0 0 1-2.089 5.013 7.488 7.488 0 0 1-2.323 1.488 7.321 7.321 0 0 1-5.561 0 6.923 6.923 0 0 1-2.245-1.488 6.644 6.644 0 0 1-2.141-5.013v-40a6.608 6.608 0 0 0-.6-2.741 7.788 7.788 0 0 0-1.593-2.324 6.982 6.982 0 0 0-2.35-1.54 7.467 7.467 0 0 0-2.82-.549 6.533 6.533 0 0 0-4.96 2.037 7.42 7.42 0 0 0-2.089 5.013v40a6.9 6.9 0 0 1-2.089 5.065 7.122 7.122 0 0 1-5.065 2.089 7.131 7.131 0 0 1-7.153-7.154v-39.789a7.4 7.4 0 0 0-.548-2.846 7.5 7.5 0 0 0-1.488-2.324 7.056 7.056 0 0 0-2.324-1.54 7.4 7.4 0 0 0-2.846-.549 6.961 6.961 0 0 0-5.117 2.089 7.382 7.382 0 0 0-1.57 2.325 6.844 6.844 0 0 0-.575 2.741v40a6.622 6.622 0 0 1-2.088 5.013 7.492 7.492 0 0 1-2.324 1.488 7.252 7.252 0 0 1-7.806-1.488z" class="prefix__cls-5" data-name="Path 551" transform="translate(-193.121 -168.985)"/>
        <path id="prefix__Path_552" d="M317.362 236.6a6.618 6.618 0 0 1-2.089-5.013v-35.139a33.834 33.834 0 0 1 1.7-10.913 24.971 24.971 0 0 1 4.934-8.668 22.213 22.213 0 0 1 7.989-5.717 26.586 26.586 0 0 1 10.547-2.01 27.921 27.921 0 0 1 10.679 1.958 22.492 22.492 0 0 1 8.171 5.665 24.761 24.761 0 0 1 5.117 8.9 36.269 36.269 0 0 1 1.776 11.67v34.253a6.839 6.839 0 0 1-2.089 5.013 7.492 7.492 0 0 1-2.324 1.488 7.126 7.126 0 0 1-2.741.549 7.2 7.2 0 0 1-2.82-.549 6.923 6.923 0 0 1-2.245-1.488 6.644 6.644 0 0 1-2.141-5.013v-10.91H329.58v10.913a6.62 6.62 0 0 1-2.089 5.013 7.488 7.488 0 0 1-2.323 1.488 7.252 7.252 0 0 1-7.806-1.488zm34.462-30.181v-9.085q0-6.684-2.82-10.313t-8.25-3.629q-5.483 0-8.329 3.368t-2.846 10.626v9.033z" class="prefix__cls-5" data-name="Path 552" transform="translate(-232.652 -169.035)"/>
        <path id="prefix__Path_553" d="M419.8 236.758a6.569 6.569 0 0 1-1.88-4.856v-48.926h-13.265a6.864 6.864 0 0 1-6.892-6.944 6.845 6.845 0 0 1 .522-2.663 6.875 6.875 0 0 1 6.37-4.23h39.893a6.762 6.762 0 0 1 2.689.549 7 7 0 0 1 2.219 1.488 7.661 7.661 0 0 1 1.489 2.271 6.776 6.776 0 0 1 .548 2.689 6.588 6.588 0 0 1-.548 2.663 7.085 7.085 0 0 1-1.489 2.194 6.653 6.653 0 0 1-2.219 1.462 7.045 7.045 0 0 1-2.689.522h-13V231.9a6.562 6.562 0 0 1-.548 2.663 7.086 7.086 0 0 1-1.489 2.193 7.235 7.235 0 0 1-2.271 1.462 7.055 7.055 0 0 1-2.688.522 6.262 6.262 0 0 1-4.752-1.982z" class="prefix__cls-5" data-name="Path 553" transform="translate(-259.347 -169.035)"/>
        <path id="prefix__Path_554" d="M499.844 236.734a24.526 24.526 0 0 1-8.172-5.4 25.3 25.3 0 0 1-5.586-8.511 28.278 28.278 0 0 1-1.984-10.7v-16.6a28.281 28.281 0 0 1 1.984-10.7 25.314 25.314 0 0 1 5.586-8.512 24.546 24.546 0 0 1 8.172-5.4 26.078 26.078 0 0 1 9.948-1.906 25.7 25.7 0 0 1 13.576 3.6 27.58 27.58 0 0 1 8.2 8.041 8.008 8.008 0 0 1 1.462 4.6 6.327 6.327 0 0 1-2.089 4.752 7.231 7.231 0 0 1-5.169 2.036 5.226 5.226 0 0 1-4.8-2.454q-1.253-1.931-2.062-2.976a8.059 8.059 0 0 0-1.91-1.798 12.684 12.684 0 0 0-7.205-1.776 11.122 11.122 0 0 0-8.146 2.924q-3.551 3.395-3.55 9.451v16.813q0 6.058 3.55 9.451a11.117 11.117 0 0 0 8.146 2.924 13.1 13.1 0 0 0 7.258-1.775 8.224 8.224 0 0 0 1.932-1.8 32.5 32.5 0 0 0 1.984-2.95 4.914 4.914 0 0 1 2.063-1.8 6.5 6.5 0 0 1 2.793-.6 7.334 7.334 0 0 1 5.169 1.985 6.514 6.514 0 0 1 2.037 4.752 8.253 8.253 0 0 1-1.332 4.36 28.146 28.146 0 0 1-3.681 4.621 23.355 23.355 0 0 1-10.6 6.266 26.491 26.491 0 0 1-7.623.992 26.078 26.078 0 0 1-9.951-1.91z" class="prefix__cls-5" data-name="Path 554" transform="translate(-287.288 -168.985)"/>
        <path id="prefix__Path_555" d="M571.577 236.656a7.083 7.083 0 0 1-1.488-2.193 6.562 6.562 0 0 1-.548-2.663v-55.975a6.688 6.688 0 0 1 2.036-4.908 7.2 7.2 0 0 1 9.816 0 6.689 6.689 0 0 1 2.037 4.908v22.766h24.019v-22.766a6.307 6.307 0 0 1 .575-2.663 7.665 7.665 0 0 1 1.566-2.246 7.221 7.221 0 0 1 4.909-1.932 6.611 6.611 0 0 1 6.841 6.84V231.8a6.572 6.572 0 0 1-.549 2.663 7.094 7.094 0 0 1-1.488 2.193 6.666 6.666 0 0 1-4.909 1.984 7.069 7.069 0 0 1-2.689-.522 6.662 6.662 0 0 1-2.219-1.462 7.083 7.083 0 0 1-1.486-2.193 6.574 6.574 0 0 1-.549-2.663v-19.267H583.43V231.8a6.563 6.563 0 0 1-.549 2.663 7.07 7.07 0 0 1-1.488 2.193 7.062 7.062 0 0 1-9.816 0z" class="prefix__cls-5" data-name="Path 555" transform="translate(-314.939 -168.985)"/>
    </g>
</svg>
