<svg xmlns="http://www.w3.org/2000/svg" id="prefix__Component_28_1" width="109" height="109" data-name="Component 28 – 1" viewBox="0 0 109 109">
    <defs>
        <style>
            .prefix__cls-2{fill:#67bdc3}
        </style>
    </defs>
    <circle id="prefix__Ellipse_130" cx="54.5" cy="54.5" r="54.5" fill="#201535" data-name="Ellipse 130"/>
    <g id="prefix__Group_535" data-name="Group 535" transform="translate(26.434 23.311)">
        <path id="prefix__Path_578" d="M400.843 443.518a.874.874 0 1 0 1.747 0c0-2.864 1.481-5.282 3.233-5.282a.9.9 0 0 0 0-1.8c-1.752 0-3.233-2.42-3.233-5.284a.874.874 0 1 0-1.747 0c0 2.864-1.481 5.284-3.233 5.284a.9.9 0 0 0 0 1.8c1.752 0 3.233 2.418 3.233 5.282zm.874-8.313a6.048 6.048 0 0 0 1.646 2.131 6.049 6.049 0 0 0-1.646 2.131 6.07 6.07 0 0 0-1.648-2.131 6.07 6.07 0 0 0 1.648-2.136z" class="prefix__cls-2" data-name="Path 578" transform="translate(-386.749 -398.347)"/>
        <path id="prefix__Path_579" d="M447.141 418.651a6.526 6.526 0 0 0-.86-.764v-5.466h.455a.9.9 0 0 0 0-1.8h-55.272a.9.9 0 0 0 0 1.8h3.33v5.371a3.246 3.246 0 0 0-1.646 2.859.828.828 0 0 0 .01.141l.01.039v.013l.006.018 3.317 12.423.008.018v.032c.328 1.594 2.236 2.277 4.5 2.277a13.48 13.48 0 0 0 2.831-.319c3.289-.722 6.379-2.623 5.917-4.863l-.011-.041v-.011l-1.638-6.13v-11.826h26.8v11.861l-2.067 5.471v.029c0 .01-.015.028-.019.042-.593 2.071 1.373 4.434 4.479 5.378a8.449 8.449 0 0 0 2.456.38 6.462 6.462 0 0 0 1.564-.184 3.358 3.358 0 0 0 2.508-2.045.71.71 0 0 0 .047-.084l2.269-6a.915.915 0 0 0 .115-.306l1.872-4.952v-.033a.418.418 0 0 0 .018-.039 3.457 3.457 0 0 0-.999-3.289zm-.671 2.771l-.189.5v-1.452a1.32 1.32 0 0 1 .189.952zm-3.585 8.485a7.806 7.806 0 0 0-3.475-2.087 7.567 7.567 0 0 0-3.892-.2l3.2-8.466v-.036c0-.012.015-.023.018-.034.267-.93 2.217-1.463 4.427-.79a7.133 7.133 0 0 1 1.365.583v7.669l-1.4 3.7c-.079-.116-.144-.229-.243-.338zM404.7 418.315l.01.023a.172.172 0 0 1 0 .028l2.687 10.059c-.132-.036-.254-.076-.4-.106a11.55 11.55 0 0 0-4.58.159 10.861 10.861 0 0 0-4.807 2.227l-1.074-4.024V418.8a10.945 10.945 0 0 1 2.909-1.058 9.956 9.956 0 0 1 3.883-.149c.881.176 1.329.498 1.372.722zm-1.237 15.22c-3.049.663-5.134.008-5.254-.572s1.524-2.058 4.573-2.726a11.607 11.607 0 0 1 2.457-.279 7.243 7.243 0 0 1 1.424.128c.87.174 1.316.492 1.37.715v.01c.119.589-1.524 2.058-4.565 2.724zm2.885-15.815c-.2-.622-.821-1.52-2.685-1.9a11.559 11.559 0 0 0-4.582.159 13.475 13.475 0 0 0-2.545.824v-4.387h9.812zm30.3-5.3h7.884v4.465a9.032 9.032 0 0 0-.868-.322c-3.041-.93-5.869-.094-6.545 1.882-.008.019-.024.031-.031.05l-.44 1.164zm4.242 21.229a6 6 0 0 1-3.106-.172c-2.2-.671-3.554-2.2-3.3-3.133l.018-.049c.213-.618 1.177-1.053 2.464-1.053a6.718 6.718 0 0 1 1.945.3 6.162 6.162 0 0 1 2.7 1.6 1.762 1.762 0 0 1 .6 1.547 1.689 1.689 0 0 1-1.319.962z" class="prefix__cls-2" data-name="Path 579" transform="translate(-390.591 -410.621)"/>
        <path id="prefix__Path_580" d="M396.745 426.5a.888.888 0 0 0-.948.816l-2.737 31.746a.893.893 0 0 0 .793.977h.08a.884.884 0 0 0 .868-.821l2.737-31.746a.891.891 0 0 0-.793-.972z" class="prefix__cls-2" data-name="Path 580" transform="translate(-389.049 -400.695)"/>
        <path id="prefix__Path_581" d="M422.592 426.314a.871.871 0 0 0-.928.84l-1.992 32.046a.892.892 0 0 0 .818.956h.055a.885.885 0 0 0 .871-.842l1.993-32.047a.892.892 0 0 0-.817-.953z" class="prefix__cls-2" data-name="Path 581" transform="translate(-372.41 -400.812)"/>
        <path id="prefix__Path_582" d="M403.652 438.264l-2.275 2.339a.917.917 0 0 0 0 1.273.854.854 0 0 0 1.235 0l2.277-2.337a.92.92 0 0 0 0-1.273.858.858 0 0 0-1.237-.002z" class="prefix__cls-2" data-name="Path 582" transform="translate(-384.009 -393.501)"/>
        <path id="prefix__Path_583" d="M400.851 441.142l-2.279 2.339a.919.919 0 0 0 0 1.273.854.854 0 0 0 1.235 0l2.277-2.337a.919.919 0 0 0 0-1.273.856.856 0 0 0-1.233-.002z" class="prefix__cls-2" data-name="Path 583" transform="translate(-385.761 -391.702)"/>
        <path id="prefix__Path_584" d="M406.455 435.387l-2.277 2.337a.919.919 0 0 0 0 1.273.856.856 0 0 0 1.235 0l2.277-2.339a.919.919 0 0 0 0-1.273.855.855 0 0 0-1.235.002z" class="prefix__cls-2" data-name="Path 584" transform="translate(-382.257 -395.301)"/>
        <path id="prefix__Path_585" d="M397.648 444.02l-1.237 1.269a.921.921 0 0 0 0 1.274.854.854 0 0 0 1.235 0l1.237-1.271a.92.92 0 0 0 0-1.273.857.857 0 0 0-1.235.001z" class="prefix__cls-2" data-name="Path 585" transform="translate(-387.113 -389.903)"/>
        <path id="prefix__Path_586" d="M412.781 439.327l13.234-13.592a.922.922 0 0 0 0-1.273.857.857 0 0 0-1.237 0l-12.974 13.325-7.939-12.545a.855.855 0 0 0-1.209-.262.915.915 0 0 0-.255 1.243l8.139 12.862-.774.795a.919.919 0 0 0 0 1.273.854.854 0 0 0 1.235 0l.515-.528.371.585a.866.866 0 0 0 .731.41.846.846 0 0 0 .476-.146.916.916 0 0 0 .257-1.245z" class="prefix__cls-2" data-name="Path 586" transform="translate(-383.294 -402.132)"/>
        <path id="prefix__Path_587" d="M410.911 436.129a.857.857 0 0 0-1.209-.262.913.913 0 0 0-.254 1.243l1.963 3.106a.873.873 0 0 0 .733.408.845.845 0 0 0 .476-.146.916.916 0 0 0 .255-1.245z" class="prefix__cls-2" data-name="Path 587" transform="translate(-378.89 -394.928)"/>
        <path id="prefix__Path_588" d="M413.329 439.951a.858.858 0 0 0-1.209-.263.916.916 0 0 0-.255 1.245l1.963 3.1a.871.871 0 0 0 .733.41.854.854 0 0 0 .478-.146.917.917 0 0 0 .254-1.245z" class="prefix__cls-2" data-name="Path 588" transform="translate(-377.378 -392.539)"/>
        <path id="prefix__Path_589" d="M415.745 443.77a.856.856 0 0 0-1.209-.262.915.915 0 0 0-.254 1.243l.954 1.508a.867.867 0 0 0 .733.41.853.853 0 0 0 .476-.146.918.918 0 0 0 .255-1.245z" class="prefix__cls-2" data-name="Path 589" transform="translate(-375.867 -390.15)"/>
        <path id="prefix__Path_590" d="M413.878 433.6a2.088 2.088 0 1 0 2.087-2.149 2.123 2.123 0 0 0-2.087 2.149zm2.426 0a.34.34 0 1 1-.34-.348.346.346 0 0 1 .336.348z" class="prefix__cls-2" data-name="Path 590" transform="translate(-376.031 -397.598)"/>
        <path id="prefix__Path_591" d="M417.916 438.261a2.151 2.151 0 1 0 2.087 2.15 2.121 2.121 0 0 0-2.087-2.15zm0 2.5a.351.351 0 1 1 .34-.351.346.346 0 0 1-.34.352z" class="prefix__cls-2" data-name="Path 591" transform="translate(-374.811 -393.339)"/>
        <path id="prefix__Path_592" d="M395.192 429.689a2.088 2.088 0 1 0-2.087 2.15 2.121 2.121 0 0 0 2.087-2.15zm-2.087.351a.35.35 0 1 1 .34-.351.346.346 0 0 1-.345.351z" class="prefix__cls-2" data-name="Path 592" transform="translate(-390.324 -400.042)"/>
    </g>
</svg>
