<svg xmlns="http://www.w3.org/2000/svg" id="prefix__Component_31_1" width="94.891" height="94.891" data-name="Component 31 – 1" viewBox="0 0 94.891 94.891">
    <defs>
        <style>
            .prefix__cls-2{fill:#310445}
        </style>
    </defs>
    <circle id="prefix__Ellipse_113" cx="47.446" cy="47.446" r="47.446" fill="#fff" data-name="Ellipse 113"/>
    <g id="prefix__Group_509" data-name="Group 509" transform="translate(20.702 20.911)">
        <path id="prefix__Path_503" d="M202.516 244.877H186.2a2.335 2.335 0 0 1-2.332-2.332v-32.63h33.8a1.165 1.165 0 1 0 0-2.33h-33.8v-6.992a2.334 2.334 0 0 1 2.332-2.33h46.615a2.333 2.333 0 0 1 2.33 2.33 1.165 1.165 0 1 0 2.33 0 4.667 4.667 0 0 0-4.661-4.662H186.2a4.667 4.667 0 0 0-4.662 4.662v41.953a4.667 4.667 0 0 0 4.662 4.662h16.315a1.165 1.165 0 0 0 0-2.33z" class="prefix__cls-2" data-name="Path 503" transform="translate(-181.539 -195.931)"/>
        <circle id="prefix__Ellipse_102" cx="1.748" cy="1.748" r="1.748" class="prefix__cls-2" data-name="Ellipse 102" transform="translate(5.244 5.245)"/>
        <circle id="prefix__Ellipse_103" cx="1.748" cy="1.748" r="1.748" class="prefix__cls-2" data-name="Ellipse 103" transform="translate(12.236 5.245)"/>
        <path id="prefix__Path_504" d="M227.238 204.29l-2.018-1.166a4.659 4.659 0 0 0-6.368 1.708l-1.747 3.026-15.729 27.245a6.314 6.314 0 0 0-.746 2.753l-.033 7.066a1.9 1.9 0 0 0 .532 1.4 1.652 1.652 0 0 0 1.183.485 2.045 2.045 0 0 0 1.04-.3l6.1-3.558a6.346 6.346 0 0 0 2.015-2.02l15.733-27.243 1.749-3.028a4.67 4.67 0 0 0-1.711-6.368zm-17.792 35.48a4.062 4.062 0 0 1-1.167 1.173l-5.348 3.118.028-6.191a4.037 4.037 0 0 1 .433-1.6l15.148-26.24 6.056 3.5zm17.481-30.277l-1.166 2.018-6.056-3.5 1.166-2.011a2.325 2.325 0 0 1 3.183-.853l2.018 1.166a2.333 2.333 0 0 1 .855 3.18z" class="prefix__cls-2" data-name="Path 504" transform="translate(-173.633 -193.206)"/>
    </g>
</svg>
