<svg width="16" height="10" viewBox="0 0 16 10" fill="none" xmlns="http://www.w3.org/2000/svg">
<path d="M8.62432 9.44469L15.7444 2.32449C15.9092 2.15981 16 1.93997 16 1.70557C16 1.47116 15.9092 1.25133 15.7444 1.08664L15.2202 0.562291C14.8786 0.22109 14.3234 0.22109 13.9823 0.562291L8.00332 6.5413L2.01768 0.555656C1.85287 0.390974 1.63316 0.300048 1.39888 0.300048C1.16435 0.300048 0.944645 0.390974 0.779703 0.555656L0.255609 1.08001C0.0907983 1.24482 2.81012e-06 1.46453 2.79988e-06 1.69893C2.78963e-06 1.93334 0.0907983 2.15317 0.255609 2.31785L7.38218 9.44469C7.54752 9.60976 7.76826 9.70043 8.00293 9.69991C8.2385 9.70043 8.45912 9.60976 8.62432 9.44469Z" fill="black"/>
</svg>
