<?xml version="1.0" encoding="UTF-8"?> <!-- Generator: Adobe Illustrator 22.1.0, SVG Export Plug-In . SVG Version: 6.00 Build 0) --> <svg xmlns="http://www.w3.org/2000/svg" xmlns:xlink="http://www.w3.org/1999/xlink" id="Layer_1" x="0px" y="0px" viewBox="0 0 263 44.1" style="enable-background:new 0 0 263 44.1;" xml:space="preserve"> <style type="text/css"> .st0{fill:#ABADB0;} .st1{fill:#736173;} </style> <g> <g> <path class="st0" d="M185.9,43.3h5.8v-1.4h-4.3v-1.8h4.2v-1.4h-4.2v-1.8h4.3v-1.4h-5.8C185.9,38.1,185.9,40.7,185.9,43.3z"></path> <path class="st0" d="M218.8,38.6c-0.9-0.1-1.7-0.4-1.7-1c0-0.6,0.5-1,1.6-1c0.9,0,1.6,0.4,1.9,0.9l1.2-0.6 c-0.6-1.2-1.9-1.5-3.1-1.5c-1.4,0-3,0.6-3,2.2c0,1.8,1.4,2.2,3,2.4c1,0.1,1.8,0.4,1.8,1.2c0,0.9-0.9,1.2-1.8,1.2 c-0.9,0-1.9-0.4-2.2-1.2l-1.2,0.6c0.6,1.4,1.8,1.9,3.4,1.9c1.7,0,3.2-0.7,3.2-2.4C221.9,39.2,220.4,38.7,218.8,38.6z"></path> <path class="st0" d="M87.3,40.1h1.9v1.4c-0.6,0.5-1.2,0.6-1.7,0.6c-1.9,0-2.7-1.3-2.7-2.6c0-1.6,1-2.9,2.7-2.9 c0.6,0,1.4,0.3,1.9,0.8l0.9-0.9c-0.8-0.8-1.9-1.2-2.9-1.2c-2.7,0-4.1,2-4.1,4.2c0,2,1.2,4,4.1,4c1.4,0,2.3-0.5,3.1-1.4v-3.3h-3.3 V40.1z"></path> <path class="st0" d="M100.9,38.1c0-1.3-0.9-2.5-2.7-2.6l-0.5,0.1c-1.1,0-2.2-0.1-3.2-0.1v7.8h1.5v-2.7h1.4l0.4,0.4l1.9,2.2h1.7 v-0.1l-2.4-2.7C100.5,40.2,100.9,39.2,100.9,38.1z M97.6,39.4h-1.7v-2.5h1.7h0.5c0.9,0,1.3,0.6,1.3,1.3c0,0.6-0.4,1.2-1.3,1.2 H97.6z"></path> <rect x="63.4" y="35.5" class="st0" width="1.5" height="7.8"></rect> <polygon class="st0" points="46.7,38.8 42.9,38.8 42.9,35.6 41.5,35.6 41.5,43.3 42.9,43.3 42.9,40.2 46.7,40.2 46.7,43.3 48.2,43.3 48.2,35.6 46.7,35.6 "></polygon> <path class="st0" d="M55.8,35.5H55l-3.5,7.8h1.6l0.6-1.5h2h2l0.6,1.5h1.7l-3.5-7.8H55.8z M55.8,40.4h-1.4l1.4-3.3l1.4,3.3H55.8z"></path> <path class="st0" d="M205.7,36.8h2.4v6.5h1.4v-6.5h2.5v-1.4c-2.3,0-4.2,0-6.4,0V36.8z"></path> <path class="st0" d="M75.5,38.1c0-1.3-0.9-2.5-2.8-2.6l-0.4,0.1c-1.1,0-2.2-0.1-3.2-0.1v7.8h1.4v-2.7h1.4l0.4,0.4l1.9,2.2h1.7 v-0.1l-2.3-2.7C75,40.2,75.5,39.2,75.5,38.1z M72.2,39.4h-1.8v-2.5h1.8h0.4c0.9,0,1.4,0.6,1.4,1.3c0,0.6-0.4,1.2-1.4,1.2H72.2z"></path> <path class="st0" d="M108.3,35.3c-2.7,0.1-4,2.1-4,4.1c0,2.1,1.3,4,4,4c2.7,0,4-2,4-4C112.3,37.4,111,35.3,108.3,35.3z M108.3,42.1c-1.9,0-2.5-1.4-2.6-2.6c0-1.3,0.7-2.8,2.6-2.8c1.8,0,2.6,1.4,2.5,2.8C110.8,40.7,110.1,42.1,108.3,42.1z"></path> <path class="st0" d="M155.4,43.3h5.8v-1.4h-4.4v-1.8h4.2v-1.4h-4.2v-1.8h4.4v-1.4h-5.8C155.4,38.1,155.4,40.7,155.4,43.3z"></path> <polygon class="st0" points="171.9,35.6 171.9,35.5 170.4,35.5 168.4,38.4 166.5,35.5 164.9,35.5 164.9,35.6 167.5,39.4 164.8,43.3 164.8,43.3 166.4,43.3 168.4,40.4 170.4,43.3 172,43.3 172,43.3 169.4,39.4 "></polygon> <path class="st0" d="M202,38.1c0-1.3-0.9-2.5-2.7-2.6l-0.5,0.1c-1.1,0-2.2-0.1-3.2-0.1v7.8h1.5v-2.7h1.4l0.4,0.4l1.9,2.2h1.7v-0.1 l-2.4-2.7C201.6,40.2,202,39.2,202,38.1z M198.8,39.4h-1.7v-2.5h1.7h0.5c0.9,0,1.3,0.6,1.3,1.3c0,0.6-0.4,1.2-1.3,1.2H198.8z"></path> <path class="st0" d="M179.3,35.5h-0.4c-1.1,0-2.2,0-3.2,0v7.8h1.4V41h1.8h0.4C183.1,41,183.1,35.5,179.3,35.5z M179.3,39.7h-0.4 h-1.8v-2.7h1.8h0.4C181.2,36.9,181.2,39.7,179.3,39.7z"></path> <polygon class="st0" points="145.4,38.8 141.6,38.8 141.6,35.6 140.1,35.6 140.1,43.3 141.6,43.3 141.6,40.2 145.4,40.2 145.4,43.3 146.8,43.3 146.8,35.6 145.4,35.6 "></polygon> <polygon class="st0" points="123.5,41.1 121.5,35.5 120.6,35.5 118.7,41.1 116.9,35.5 115.3,35.5 118.1,43.3 119.4,43.3 120.3,40.9 121.1,38.4 121.9,40.9 122.9,43.3 124.1,43.3 126.9,35.5 125.3,35.5 "></polygon> <path class="st0" d="M130.1,36.8h2.4v6.5h1.5v-6.5h2.4v-1.4c-2.2,0-4.2,0-6.3,0V36.8z"></path> <rect x="0.9" y="38.9" class="st0" width="31.5" height="1.1"></rect> <rect x="231" y="38.9" class="st0" width="31.5" height="1.1"></rect> </g> <g> <polygon class="st0" points="216.5,18.4 205.3,1.3 202,1.3 202,31.8 205,31.8 205,6.2 215.9,22.7 217.1,22.7 228,6.2 228,31.8 230.9,31.8 230.9,1.3 227.6,1.3 "></polygon> <path class="st0" d="M262.4,14.8l-0.2-1.4l-0.3-1.4l-0.4-1.4l-0.6-1.3l-0.6-1.2L259.4,7L258.6,6l-1-1L256.4,4l-1.3-0.8l-1.4-0.6 L252.2,2l-1.6-0.4l-1.2-0.1l-0.6-0.1L247,1.3h-10.5v30.5H247l1.9-0.1l0.6-0.1l1.2-0.1l1.7-0.4l1.6-0.6l1.4-0.7l1.3-0.9l1.2-0.9 l1-1.1l0.9-1.1l0.8-1.2l0.6-1.3l0.6-1.3l0.4-1.4l0.3-1.4l0.1-1.4v-1.4L262.4,14.8z M259.4,17.4l-0.1,1.2l-0.3,1.2l-0.3,1.2 l-0.4,1.1l-0.5,1l-0.6,0.9l-0.7,0.9l-0.9,0.9l-0.9,0.8l-1,0.7l-1.2,0.6l-1.2,0.4l-1.3,0.4l-0.6,0.1l-0.9,0.1l-1.6,0.1h-7.4V4.2 h7.4l1.6,0.1l0.9,0.1l0.4,0.1l1.4,0.4l1.2,0.4l1.1,0.5l1,0.6l0.9,0.7l0.8,0.8l0.7,0.9l0.6,0.9l0.5,1l0.4,1l0.4,1.1l0.2,1.1 l0.2,1.2l0.1,1.2L259.4,17.4z"></path> </g> <g> <polygon class="st1" points="53.1,19.9 51.1,19.6 51.1,31.4 56.7,31.4 56.7,20.6 55.2,20.3 "></polygon> <path class="st1" d="M65.9,22.3l-2.1-0.4l-0.6-0.1l-4.3,9.6H65c1.6-3.5,2.7-6.1,3.8-8.6l-0.7-0.1L65.9,22.3z"></path> <path class="st1" d="M30.8,31.4h5.6c0-11.4,0-18.1,0-29.7h-5.6V31.4z"></path> <path class="st1" d="M14.4,13.3c-3.6-0.4-6.6-1.2-6.6-3.7c0-2.2,2-4,6.2-4c3.2,0,6,1.6,7.1,3.3l4.5-2.3C23.2,2,18.4,0.7,13.8,0.7 C8.3,0.7,2.2,3.2,2.2,9.3c0,6.7,5.6,8.4,11.7,9.1c4,0.4,6.8,1.5,6.8,4.2c0,3.2-3.3,4.5-6.8,4.5c-3.6,0-7.1-1.5-8.4-4.8l-4.7,2.4 c2.2,5.4,6.8,7.3,13,7.3c6.6,0,12.5-2.8,12.5-9.5C26.4,15.7,20.6,14,14.4,13.3z"></path> <path class="st1" d="M68.1,16l2,0.4l1.4,0.2c1-2.3,2.2-5.1,3.8-8.7c1.8,4.2,3.1,7.3,4.2,9.9h0.1l1.7,0.1l1.7,0.1l1.6-0.1l1-0.1 L78.3,1.6h-6.1l-6.3,14l0.1,0.1L68.1,16z"></path> <polygon class="st1" points="53.9,13.9 55.9,14 56.7,14.2 56.7,1.7 51.1,1.7 51.1,13.7 51.9,13.7 "></polygon> <path class="st1" d="M176.1,1.1c-10.3,0-15.3,7.8-15.3,15.7c0,7.7,4.8,15.3,15.3,15.3c10.5,0,15.2-7.7,15.3-15.3 C191.5,9,186.4,1.1,176.1,1.1z M176.1,27c-7-0.1-9.6-5.2-9.8-10.1c-0.1-5,2.8-10.7,9.8-10.7c7.1,0,9.9,5.7,9.8,10.7 C185.8,21.7,183.2,27,176.1,27z"></path> <path class="st1" d="M158.3,11.6c0-5.2-3.7-9.9-10.7-9.9c-0.6,0-1.2,0-1.7,0c-4.1,0.1-8.3,0-12.5,0v29.8h5.6v-9.9h5.4l1.4,1.6 l7.3,8.4h6.7V31l-9-10.1C156.5,19.8,158.3,15.7,158.3,11.6z M145.9,16.5H139V6.9h6.8h1.7c3.5,0,5.1,2.4,5.1,4.8 c0,2.4-1.5,4.8-5.1,4.8H145.9z"></path> <rect x="122.6" y="1.6" class="st1" width="5.5" height="29.8"></rect> <path class="st1" d="M107.9,1.6c-0.5,0-1,0-1.5,0c-4.2,0-8.4,0-12.5,0v12.9v0.1v16.8h5.6v-8.8h6.9h1.5 C122.5,22.7,122.4,1.6,107.9,1.6z M107.9,17.6h-1.5h-6.9V7h6.9h1.5C115,7,115.1,17.6,107.9,17.6z"></path> <path class="st1" d="M86.6,22.6L85,23.1l-1.7,0.4l-1.3,0.1c1,2.3,2.1,4.8,3.5,7.8h6.1l-4.2-9.3L86.6,22.6z"></path> <path class="st1" d="M36.6,18.3c14.5-4.9,46.3,12.3,55.9-2.2C84.3,26.7,48.6,7.9,36.6,18.3z"></path> </g> </g> </svg> 