<svg xmlns="http://www.w3.org/2000/svg" width="57.414" height="58.809" viewBox="0 0 57.414 58.809">
    <defs>
        <style>
            .prefix__cls-3,.prefix__cls-4{fill:none;stroke-miterlimit:10}.prefix__cls-3{stroke:#fff}.prefix__cls-2{fill:#fff}.prefix__cls-3,.prefix__cls-4{stroke-width:.223px}.prefix__cls-4{stroke:#161615}
        </style>
    </defs>
    <g id="prefix__Component_92_1" data-name="Component 92 – 1" transform="translate(0 1.086)">
        <path id="prefix__Path_235" fill="none" stroke="#fff" stroke-miterlimit="10" stroke-width="6.471px" d="M717.392 405.408c14.2.292 25.623 11.1 25.623 26.166a26.175 26.175 0 0 1-48.686 13.353" data-name="Path 235" transform="translate(-688.838 -403.26)"/>
        <path id="prefix__Path_236" d="M714.316 427.455h3.969a5.9 5.9 0 0 1 2.215.271 3.313 3.313 0 0 1 2.1 3.315 3.469 3.469 0 0 1-1.7 3.108v.031a6.65 6.65 0 0 1 .43.685l2.215 3.984h-3.107l-2.024-3.841h-1.307v3.841h-2.789zm4 5.163a1.3 1.3 0 0 0 1.45-1.4c0-.861-.319-1.371-1.721-1.371h-.94v2.772z" class="prefix__cls-2" data-name="Path 236" transform="translate(-695.513 -410.624)"/>
        <path id="prefix__Path_237" d="M732.251 429.846h-3.458v-2.391h9.707v2.391h-3.46v9h-2.788z" class="prefix__cls-2" data-name="Path 237" transform="translate(-700.349 -410.624)"/>
        <g id="prefix__Group_337" data-name="Group 337" transform="translate(17.806 29.209)">
            <path id="prefix__Path_238" d="M715.121 452.35a4.723 4.723 0 0 0 1.831 2.338c.5.274 1.156.375 1.484-.227.647-1.19-3.884-3.6-2.208-6.68 1-1.848 3.221-2.22 5.209-1.139a5.167 5.167 0 0 1 2.6 2.886l-2.124 1.439a4.35 4.35 0 0 0-1.733-2.085c-.5-.274-1.186-.355-1.49.205-.685 1.26 3.945 3.488 2.224 6.652-.906 1.666-2.964 2.415-5.218 1.189a5.883 5.883 0 0 1-2.878-3.416z" class="prefix__cls-2" data-name="Path 238" transform="translate(-712.82 -446.04)"/>
        </g>
        <path id="prefix__Path_239" d="M730.763 446.04h4.192c2.279 0 3.873 1.02 3.873 2.98a2.782 2.782 0 0 1-1.323 2.422v.032a2.556 2.556 0 0 1 1.785 2.566c0 2.486-2.072 3.395-4.335 3.395h-4.192zm4.224 4.415a.964.964 0 0 0 1-1.052.927.927 0 0 0-1.052-.972h-1.387v2.024zm.239 4.589a1.132 1.132 0 0 0 1.211-1.195 1.1 1.1 0 0 0-1.195-1.163h-1.69v2.358z" class="prefix__cls-2" data-name="Path 239" transform="translate(-701.007 -416.832)"/>
        <path id="prefix__Line_1" d="M0 0.438L4.165 0" class="prefix__cls-3" data-name="Line 1" transform="translate(.155 30.755)"/>
        <path id="prefix__Line_2" d="M0 0.897L4.221 0" class="prefix__cls-3" data-name="Line 2" transform="translate(.62 33.23)"/>
        <path id="prefix__Line_3" d="M0 1.333L4.103 0" class="prefix__cls-3" data-name="Line 3" transform="translate(1.389 35.663)"/>
        <path id="prefix__Line_4" d="M0 1.755L3.942 0" class="prefix__cls-3" data-name="Line 4" transform="translate(2.454 38.015)"/>
        <path id="prefix__Line_5" d="M0.452 4.299L0 0" class="prefix__cls-3" data-name="Line 5" transform="translate(25.415)"/>
        <path id="prefix__Line_6" d="M0.898 4.225L0 0" class="prefix__cls-3" data-name="Line 6" transform="translate(22.481 .465)"/>
        <path id="prefix__Line_7" d="M1.334 4.106L0 0" class="prefix__cls-3" data-name="Line 7" transform="translate(19.611 1.234)"/>
        <path id="prefix__Line_8" d="M1.756 3.944L0 0" class="prefix__cls-3" data-name="Line 8" transform="translate(16.838 2.298)"/>
        <path id="prefix__Line_9" d="M2.1 3.637L0 0" class="prefix__cls-3" data-name="Line 9" transform="translate(14.191 3.647)"/>
        <path id="prefix__Line_10" d="M2.54 3.496L0 0" class="prefix__cls-3" data-name="Line 10" transform="translate(11.699 5.265)"/>
        <path id="prefix__Line_11" d="M2.892 3.212L0 0" class="prefix__cls-3" data-name="Line 11" transform="translate(9.391 7.135)"/>
        <path id="prefix__Line_12" d="M3.212 2.892L0 0" class="prefix__cls-3" data-name="Line 12" transform="translate(7.29 9.235)"/>
        <path id="prefix__Line_13" d="M3.495 2.539L0 0" class="prefix__cls-3" data-name="Line 13" transform="translate(5.42 11.544)"/>
        <path id="prefix__Line_14" d="M3.739 2.159L0 0" class="prefix__cls-3" data-name="Line 14" transform="translate(3.802 14.035)"/>
        <path id="prefix__Line_15" d="M3.942 1.755L0 0" class="prefix__cls-3" data-name="Line 15" transform="translate(2.454 16.682)"/>
        <path id="prefix__Line_16" d="M4.104 1.333L0 0" class="prefix__cls-3" data-name="Line 16" transform="translate(1.389 19.456)"/>
        <path id="prefix__Line_17" d="M4.222 0.897L0 0" class="prefix__cls-3" data-name="Line 17" transform="translate(.62 22.325)"/>
        <path id="prefix__Line_18" d="M4.165 0.438L0 0" class="prefix__cls-3" data-name="Line 18" transform="translate(.155 25.26)"/>
        <path id="prefix__Line_19" d="M0 0L4.321 0" class="prefix__cls-3" data-name="Line 19" transform="translate(0 28.226)"/>
    </g>
</svg>
