<svg xmlns="http://www.w3.org/2000/svg" width="30" height="30" fill="none" viewBox="0 0 30 30">
    <path fill="#003485" d="M6.53 4h16.94C27.07 4 30 6.93 30 10.53v6.97c0 3.6-2.93 6.53-6.53 6.53h-7.107v2.478a.883.883 0 0 1-1.507.625l-3.103-3.104H6.53C2.93 24.03 0 21.1 0 17.5v-6.97C0 6.93 2.93 4 6.53 4zM1.764 17.5a4.77 4.77 0 0 0 4.764 4.765h5.59c.234 0 .458.093.624.258l1.855 1.855v-1.231c0-.487.395-.882.882-.882h7.99a4.77 4.77 0 0 0 4.765-4.765v-6.97a4.77 4.77 0 0 0-4.764-4.765H6.529a4.77 4.77 0 0 0-4.764 4.764V17.5z"/>
    <path fill="#003485" d="M9.49 16.309H7.63c1.062-1.023 2.14-2.369 2.14-3.62 0-1.635-1.1-2.733-2.734-2.733a2.736 2.736 0 0 0-2.733 2.733.882.882 0 1 0 1.764 0 .97.97 0 0 1 .969-.968c.868 0 .968.553.968.968 0 .966-1.987 2.828-3.33 3.783a.882.882 0 0 0 .511 1.602H9.49a.882.882 0 0 0 0-1.765z"/>
    <path fill="#003485" d="M13.896 12.483a.882.882 0 0 0-.883.883v.616h-.863l1.54-2.708a.882.882 0 1 0-1.534-.872l-2.29 4.026a.882.882 0 0 0 .767 1.318h2.38v1.445a.882.882 0 0 0 1.765 0v-3.825a.882.882 0 0 0-.883-.883zM19.599 10.015a.882.882 0 0 0-1.14.506l-2.445 6.353a.882.882 0 1 0 1.647.634l2.444-6.353a.882.882 0 0 0-.506-1.14zM25.54 10.335a.883.883 0 0 0-.724-.379h-3.103a.882.882 0 0 0 0 1.765h1.833l-1.92 5.163a.882.882 0 1 0 1.653.615l2.364-6.353a.883.883 0 0 0-.102-.811z"/>
</svg>
