<svg xmlns="http://www.w3.org/2000/svg" xmlns:xlink="http://www.w3.org/1999/xlink" width="398" height="183" viewBox="0 0 398 183">
    <defs>
        <rect id="a" width="201" height="153" rx="8"/>
        <path id="b" d="M146.5 68H122a3 3 0 0 0-3 3v40l3.08-2 3.095 2 3.074-2 3.062 2 3.107-2 3.05 2 3.098-2 2.66 1.74v.26l.2-.13.199.13 2.858-1.887L149.4 111l.185-.12.188.12v-.242l2.7-1.758 3.063 2 3.107-2 3.05 2 3.098-2 3.059 2 3.03-2 3.119 2V71a3 3 0 0 0-3-3h-24.5z"/>
        <rect id="c" width="201" height="153" rx="8"/>
        <path id="d" d="M148.5 68H124a3 3 0 0 0-3 3v40l3.08-2 3.095 2 3.074-2 3.062 2 3.107-2 3.05 2 3.098-2 2.66 1.74v.26l.2-.13.199.13 2.858-1.887L151.4 111l.185-.12.188.12v-.242l2.7-1.758 3.063 2 3.107-2 3.05 2 3.098-2 3.059 2 3.03-2 3.119 2V71a3 3 0 0 0-3-3h-24.5z"/>
        <rect id="e" width="82" height="10" x="24" y="54" rx="5"/>
        <rect id="f" width="82" height="10" x="24" y="70" rx="5"/>
        <rect id="g" width="82" height="10" x="24" y="87" rx="5"/>
        <rect id="h" width="82" height="10" x="24" y="104" rx="5"/>
    </defs>
    <g fill="none" fill-rule="evenodd">
        <g transform="translate(1)">
            <use fill="#FFF" xlink:href="#a"/>
            <rect width="199" height="151" x="1" y="1" stroke="#DEE1E2" stroke-width="2" rx="8"/>
            <use fill="#FFF" xlink:href="#b"/>
            <path stroke="#DEE1E2" stroke-width="2" d="M173 109.17V111l1.54-.842-1.54-.987zm-5.152.633l-.548.362 1.098-.002-.55-.36zm-6.15.004l-.547.353 1.091.004-.544-.357zm-6.157.001l-.545.351 1.088.004-.543-.355zm-6.141 0l-.544.354.545.838.543-.84-.544-.352zm-11.928-.001l-.547.353 1.09.004-.543-.357zm-6.157.001l-.546.351 1.089.004-.543-.355zm-6.142 0l-.543.354 1.088-.002-.545-.352zm-5.173-.65l-1.545 1.003L120 111v-1.842zm27.026-.884l-.549-.355-2.855 1.884-.194-.127-.746.485.544.839h1v-.802l-.604-.395z"/>
            <rect width="19" height="4" x="119" y="55" fill="#FF9000" rx="2"/>
            <rect width="19" height="4" x="141" y="55" fill="#FF9000" rx="2"/>
            <path fill="#DEE1E2" d="M130 79h23a1 1 0 1 1 0 2h-23a1 1 0 1 1 0-2zm27 0h6a1 1 0 1 1 0 2h-6a1 1 0 1 1 0-2zm-17 4h23a1 1 0 1 1 0 2h-23a1 1 0 1 1 0-2zm-10 0h6a1 1 0 1 1 0 2h-6a1 1 0 1 1 0-2zm0 4h23a1 1 0 1 1 0 2h-23a1 1 0 1 1 0-2zm0 8h23a1 1 0 1 1 0 2h-23a1 1 0 1 1 0-2zm27-8h6a1 1 0 1 1 0 2h-6a1 1 0 1 1 0-2zm-17 4h23a1 1 0 1 1 0 2h-23a1 1 0 1 1 0-2zm-10 0h6a1 1 0 1 1 0 2h-6a1 1 0 1 1 0-2z"/>
            <rect width="82" height="10" x="24" y="121" fill="#003485" rx="5"/>
            <circle cx="12" cy="10" r="2" fill="#DEE1E2"/>
            <circle cx="19" cy="10" r="2" fill="#DEE1E2"/>
            <circle cx="26" cy="10" r="2" fill="#DEE1E2"/>
            <text fill="#FF9000" font-family="HelveticaNeue-Bold, Helvetica Neue" font-size="16" font-weight="bold" letter-spacing="-.571">
                <tspan x="58" y="42">u</tspan> <tspan x="66.917" y="42" letter-spacing="-.508">p</tspan>
            </text>
            <text fill="#003485" font-family="HelveticaNeue-Bold, Helvetica Neue" font-size="16" font-weight="bold" letter-spacing="-.571">
                <tspan x="24" y="42">cash</tspan>
            </text>
            <rect width="80" height="4" x="24" y="56" fill="#003485" rx="2"/>
            <rect width="41" height="4" x="24" y="63" fill="#003485" rx="2"/>
            <rect width="57" height="2" x="24" y="74" fill="#D8D8D8" rx="1"/>
            <rect width="57" height="2" x="47" y="80" fill="#D8D8D8" rx="1"/>
            <rect width="20" height="2" x="84" y="74" fill="#D8D8D8" rx="1"/>
            <rect width="20" height="2" x="24" y="80" fill="#D8D8D8" rx="1"/>
            <rect width="57" height="2" x="24" y="86" fill="#D8D8D8" rx="1"/>
            <rect width="20" height="2" x="84" y="86" fill="#D8D8D8" rx="1"/>
            <rect width="57" height="2" x="47" y="92" fill="#D8D8D8" rx="1"/>
            <rect width="20" height="2" x="24" y="92" fill="#D8D8D8" rx="1"/>
            <rect width="57" height="2" x="24" y="98" fill="#D8D8D8" rx="1"/>
            <rect width="20" height="2" x="84" y="98" fill="#D8D8D8" rx="1"/>
            <rect width="57" height="2" x="47" y="104" fill="#D8D8D8" rx="1"/>
            <rect width="20" height="2" x="24" y="104" fill="#D8D8D8" rx="1"/>
            <rect width="57" height="2" x="24" y="110" fill="#D8D8D8" rx="1"/>
            <path stroke="#DEE1E2" stroke-linecap="square" stroke-width="2" d="M3 19h196"/>
        </g>
        <g transform="translate(153 9)">
            <use fill="#FFF" xlink:href="#c"/>
            <rect width="199" height="151" x="1" y="1" stroke="#DEE1E2" stroke-width="2" rx="8"/>
            <use fill="#FFF" xlink:href="#d"/>
            <path stroke="#DEE1E2" stroke-width="2" d="M175 109.17V111l1.54-.842-1.54-.987zm-5.152.633l-.548.362 1.098-.002-.55-.36zm-6.15.004l-.547.353 1.091.004-.544-.357zm-6.157.001l-.545.351 1.088.004-.543-.355zm-11.919-.005l-.548.362.55.835.548-.837-.55-.36zm-6.15.004l-.547.353 1.09.004-.543-.357zm-6.157.001l-.546.351 1.089.004-.543-.355zm-6.142 0l-.543.354 1.088-.002-.545-.352zm-5.173-.65l-1.545 1.003L122 111v-1.842z"/>
            <path fill="#DEE1E2" d="M132 80h23a1 1 0 1 1 0 2h-23a1 1 0 1 1 0-2zm27 0h6a1 1 0 1 1 0 2h-6a1 1 0 1 1 0-2zm-17 4h23a1 1 0 1 1 0 2h-23a1 1 0 1 1 0-2zm-10 0h6a1 1 0 1 1 0 2h-6a1 1 0 1 1 0-2zm0 4h23a1 1 0 1 1 0 2h-23a1 1 0 1 1 0-2zm0 8h23a1 1 0 1 1 0 2h-23a1 1 0 1 1 0-2zm27-8h6a1 1 0 1 1 0 2h-6a1 1 0 1 1 0-2zm-17 4h23a1 1 0 1 1 0 2h-23a1 1 0 1 1 0-2zm-10 0h6a1 1 0 1 1 0 2h-6a1 1 0 1 1 0-2z"/>
            <rect width="17" height="4" x="121" y="54" fill="#FF9000" rx="2"/>
            <rect width="17" height="4" x="140" y="54" fill="#FF9000" rx="2"/>
            <rect width="17" height="4" x="159" y="54" fill="#FF9000" rx="2"/>
            <use fill="#FFF" xlink:href="#e"/>
            <rect width="80" height="8" x="25" y="55" stroke="#DEE1E2" stroke-width="2" rx="4"/>
            <use fill="#FFF" xlink:href="#f"/>
            <rect width="80" height="8" x="25" y="71" stroke="#DEE1E2" stroke-width="2" rx="4"/>
            <use fill="#FFF" xlink:href="#g"/>
            <rect width="80" height="8" x="25" y="88" stroke="#DEE1E2" stroke-width="2" rx="4"/>
            <rect width="82" height="10" x="24" y="121" fill="#003485" rx="5"/>
            <use fill="#FFF" xlink:href="#h"/>
            <rect width="80" height="8" x="25" y="105" stroke="#DEE1E2" stroke-width="2" rx="4"/>
            <circle cx="12" cy="10" r="2" fill="#DEE1E2"/>
            <circle cx="19" cy="10" r="2" fill="#DEE1E2"/>
            <circle cx="26" cy="10" r="2" fill="#DEE1E2"/>
            <text fill="#FF9000" font-family="HelveticaNeue-Bold, Helvetica Neue" font-size="16" font-weight="bold" letter-spacing="-.571">
                <tspan x="58" y="42">u</tspan> <tspan x="66.917" y="42" letter-spacing="-.508">p</tspan>
            </text>
            <text fill="#003485" font-family="HelveticaNeue-Bold, Helvetica Neue" font-size="16" font-weight="bold" letter-spacing="-.571">
                <tspan x="24" y="42">cash</tspan>
            </text>
            <path stroke="#DEE1E2" stroke-linecap="square" stroke-width="2" d="M3 19h196"/>
        </g>
        <path fill="#DEE1E2" fill-rule="nonzero" d="M84 172a1 1 0 1 1 0-2h74a1 1 0 1 1 0 2H84zm87.47 0c-.812 0-1.47-.448-1.47-1s.658-1 1.47-1h213.06c.812 0 1.47.448 1.47 1s-.658 1-1.47 1H171.47zM74 170a1 1 0 1 1 0 2H64a1 1 0 1 1 0-2h10zm197 13a1 1 0 1 1 0-2h74a1 1 0 1 1 0 2h-74zm93-2a1 1 0 1 1 0 2h-10a1 1 0 1 1 0-2h10zm-220 2a1 1 0 1 1 0-2h74a1 1 0 1 1 0 2h-74zm93-2a1 1 0 1 1 0 2h-10a1 1 0 1 1 0-2h10zM21 162a1 1 0 1 1 0-2h74a1 1 0 1 1 0 2H21zm-10-2a1 1 0 1 1 0 2H1a1 1 0 1 1 0-2h10zm342.355-10c-.196 0-.355-.448-.355-1s.16-1 .355-1h26.29c.196 0 .355.448.355 1s-.16 1-.355 1h-26.29zM397 148a1 1 0 1 1 0 2h-10a1 1 0 1 1 0-2h10z"/>
    </g>
</svg>
