<svg xmlns="http://www.w3.org/2000/svg" width="26" height="26" fill="none" viewBox="0 0 26 26">
    <path fill="#fff" stroke="#C6C9CE" stroke-width="2" d="M25 13c0 6.627-5.373 12-12 12S1 19.627 1 13 6.373 1 13 1s12 5.373 12 12z"/>
    <path fill="#C6C9CE" fill-rule="evenodd" d="M14.559 9.544l2.565 2.565c.15.15.22.348.21.544v.03a.715.715 0 0 1-.21.542l-2.565 2.565a.717.717 0 0 1-1.015-1.014l1.442-1.442h-6.32a.667.667 0 1 1 0-1.334h6.32l-1.442-1.442a.717.717 0 0 1 1.015-1.014z" clip-rule="evenodd"/>
</svg>
