<svg xmlns="http://www.w3.org/2000/svg" width="180" height="180" fill="none" viewBox="0 0 180 180">
    <circle cx="90" cy="90" r="70" fill="#fff" filter="url(#a)"/>
    <mask id="b" width="140" height="140" x="20" y="20" maskUnits="userSpaceOnUse">
        <path fill="#C4C4C4" d="M20 20h140v140H20z"/>
    </mask>
    <g mask="url(#b)">
        <path fill="#394561" d="M119.906 70.563h-2.802L90.54 54.215a1.031 1.031 0 0 0-1.08 0L62.896 70.563h-2.802a1.031 1.031 0 0 0-1.032 1.031v4.125a1.031 1.031 0 0 0 1.032 1.031h2.062v3.094a1.031 1.031 0 0 0 1.032 1.031h3.093V101.5H65.25a1.033 1.033 0 0 0-1.031 1.032v3.093h-3.094v4.125h-2.063v6.188h61.876v-6.188h-2.063v-4.125h-3.094v-3.093a1.03 1.03 0 0 0-1.031-1.032h-1.031V80.875h3.093a1.033 1.033 0 0 0 1.032-1.031V76.75h2.062a1.03 1.03 0 0 0 1.032-1.031v-4.125a1.03 1.03 0 0 0-1.032-1.031zM90 56.305l23.169 14.258h-18.57a6.188 6.188 0 1 0-9.198 0H66.83L90 56.305zm-4.125 10.133a4.124 4.124 0 1 1 8.249 0 4.124 4.124 0 0 1-8.249 0zM64.219 76.75h12.375v2.063H64.219V76.75zm17.531 0v3.094a1.031 1.031 0 0 0 1.031 1.031h3.094V101.5h-3.094a1.033 1.033 0 0 0-1.031 1.032v3.093h-5.156v-3.093a1.033 1.033 0 0 0-1.031-1.032H74.53V80.875h3.094a1.031 1.031 0 0 0 1.031-1.031V76.75h3.094zm19.594 0v3.094a1.029 1.029 0 0 0 1.031 1.031h3.094V101.5h-1.031a1.035 1.035 0 0 0-1.032 1.032v3.093H98.25v-3.093a1.034 1.034 0 0 0-1.031-1.032h-3.094V80.875h3.094a1.031 1.031 0 0 0 1.031-1.031V76.75h3.094zM87.938 90.156H90v-2.062h-2.063v-7.219h4.126v13.406H90v2.063h2.063v5.156h-4.126V90.156zm8.25 13.407v2.062H83.811v-2.062h12.376zm0-24.75H83.811V76.75h12.376v2.063zM68.344 99.438h2.062v-2.063h-2.062v-2.062h2.062V93.25h-2.062V80.875h4.125V85h-2.063v2.063h2.063V101.5h-4.125v-2.062zm-2.063 4.125h8.25v2.062h-8.25v-2.062zm52.594 10.312h-57.75v-2.062h57.75v2.062zm-2.063-4.125H63.188v-2.062h53.624v2.062zm-11.343-4.125v-2.062h8.25v2.062h-8.25zm6.187-10.312h-2.062v2.062h2.062v4.125h-4.125V90.156h2.063v-2.062h-2.063v-2.063h2.063V83.97h-2.063v-3.094h4.125v14.438zm4.125-16.5h-12.375V76.75h12.375v2.063zm3.094-4.125h-57.75v-2.063h57.75v2.063z"/>
    </g>
    <defs>
        <filter id="a" width="180" height="180" x="0" y="0" color-interpolation-filters="sRGB" filterUnits="userSpaceOnUse">
            <feFlood flood-opacity="0" result="BackgroundImageFix"/>
            <feColorMatrix in="SourceAlpha" values="0 0 0 0 0 0 0 0 0 0 0 0 0 0 0 0 0 0 127 0"/>
            <feOffset/>
            <feGaussianBlur stdDeviation="10"/>
            <feColorMatrix values="0 0 0 0 0.776471 0 0 0 0 0.788235 0 0 0 0 0.807843 0 0 0 0.4 0"/>
            <feBlend in2="BackgroundImageFix" result="effect1_dropShadow"/>
            <feBlend in="SourceGraphic" in2="effect1_dropShadow" result="shape"/>
        </filter>
    </defs>
</svg>
