<svg xmlns="http://www.w3.org/2000/svg" xmlns:xlink="http://www.w3.org/1999/xlink" width="345" height="199" viewBox="0 0 345 199">
    <defs>
        <rect id="a" width="200" height="115" x="11" y="47" rx="15"/>
        <circle id="b" cx="41" cy="127" r="15"/>
        <circle id="c" cx="61" cy="127" r="15"/>
        <path id="d" d="M6 1h117a6 6 0 0 1 6 6v156a6 6 0 0 1-6 6H6a6 6 0 0 1-6-6V7a6 6 0 0 1 6-6z"/>
        <path id="e" d="M64.5 1H8.156C5.422.924 3.43 1.404 2.178 2.44.726 3.642 0 5.485 0 7.97c.246-.646 1.917-.522 1.945-.973.073-1.207.459-1.979 1.075-1.981 1.82-.007 3.035 2.23 3.6 2.954l12.424 17.554C20.552 27.695 23.097 29 25.824 29H103.176c2.726 0 5.271-1.305 6.78-3.476L122.378 7.97c.685-.905 2.062-2.97 3.533-2.941 1.128.022 1.105 1.61 1.128 1.96.023.35 1.733.384 1.96.98-.446-1.7 0-3.314-1.54-4.983-.518-.561-1.53-1.407-2.902-1.72-.618-.14-2.002-.217-3.714-.266H64.5z"/>
        <path id="f" d="M120.844 141.008H8.156c-2.734-.076-4.726.404-5.978 1.44C.726 143.648 0 145.492 0 147.977c.246-.647 1.917-.522 1.945-.974.073-1.206.459-1.978 1.075-1.98 1.82-.008 3.035 2.23 3.6 2.954l12.424 17.554c1.508 2.171 4.053 3.476 6.78 3.476H103.176c2.726 0 5.271-1.305 6.78-3.476l12.422-17.554c.685-.905 2.062-2.97 3.533-2.941 1.128.022 1.105 1.61 1.128 1.96.023.35 1.733.384 1.96.98-.446-1.7 0-3.314-1.54-4.984-.518-.56-1.53-1.406-2.902-1.72-.618-.14-2.002-.216-3.714-.265z"/>
        <ellipse id="g" cx="10.065" cy="10" rx="10.065" ry="10"/>
        <ellipse id="h" cx="10.048" cy="10.01" rx="5.952" ry="5.913"/>
        <circle id="i" cx="65" cy="15" r="8"/>
        <circle id="j" cx="65" cy="43" r="8"/>
    </defs>
    <g fill="none" fill-rule="evenodd">
        <path fill="#DEE1E2" d="M21 188h74a1 1 0 1 0 0-2H21a1 1 0 1 0 0 2zM108.47 188h213.06c.812 0 1.47-.448 1.47-1s-.658-1-1.47-1H108.47c-.812 0-1.47.448-1.47 1s.658 1 1.47 1zM11 186H1a1 1 0 1 0 0 2h10a1 1 0 1 0 0-2zM208 199h74a1 1 0 1 0 0-2h-74a1 1 0 1 0 0 2zM301 197h-10a1 1 0 1 0 0 2h10a1 1 0 1 0 0-2zM81 199h74a1 1 0 1 0 0-2H81a1 1 0 1 0 0 2zM174 197h-10a1 1 0 1 0 0 2h10a1 1 0 1 0 0-2zM300.355 149h26.29c.196 0 .355-.448.355-1s-.16-1-.355-1h-26.29c-.196 0-.355.448-.355 1s.16 1 .355 1zM344 147h-10a1 1 0 1 0 0 2h10a1 1 0 1 0 0-2zM54 22h74a1 1 0 1 0 0-2H54a1 1 0 0 0 0 2zM44 20H34a1 1 0 0 0 0 2h10a1 1 0 0 0 0-2zM69 13h74a1 1 0 1 0 0-2H69a1 1 0 0 0 0 2zM162 11h-10a1 1 0 1 0 0 2h10a1 1 0 1 0 0-2z"/>
        <g transform="translate(0 -1)">
            <use fill="#FFF" xlink:href="#a"/>
            <rect width="198" height="113" x="12" y="48" stroke="#DEE1E2" stroke-width="2" rx="15"/>
        </g>
        <g fill="#DEE1E2" transform="translate(88 116)">
            <rect width="76" height="4" rx="2"/>
            <rect width="76" height="4" y="18" rx="2"/>
            <rect width="27" height="4" x="80" rx="2"/>
            <rect width="27" height="4" y="9" rx="2"/>
            <rect width="76" height="4" x="31" y="9" rx="2"/>
        </g>
        <path stroke="#DEE1E2" stroke-linecap="square" stroke-width="2" d="M12.366 66h198.28M12.366 97h198.28"/>
        <g transform="translate(0 -1)">
            <use fill="#FFF" xlink:href="#b"/>
            <circle cx="41" cy="127" r="13" stroke="#003485" stroke-width="4"/>
        </g>
        <g transform="translate(0 -1)">
            <use fill="#FFF" xlink:href="#c"/>
            <circle cx="61" cy="127" r="13" stroke="#FF9000" stroke-width="4"/>
        </g>
        <g transform="translate(181 -1)">
            <use fill="#FFF" xlink:href="#d"/>
            <path stroke="#DEE1E2" stroke-width="2" d="M6 2a5 5 0 0 0-5 5v156a5 5 0 0 0 5 5h117a5 5 0 0 0 5-5V7a5 5 0 0 0-5-5H6z"/>
            <use fill="#FFF" xlink:href="#e"/>
            <path stroke="#DEE1E2" stroke-width="2" d="M25.823 28h77.354c2.402 0 4.639-1.147 5.963-3.053l12.442-17.58.427-.574c.204-.272.385-.503.572-.727 1.092-1.306 2.129-2.061 3.35-2.037.659.013 1.149.283 1.489.717a3.424 3.424 0 0 0-.696-1.082c-.604-.655-1.449-1.209-2.389-1.423-.475-.108-1.665-.188-3.49-.241H8.127c-2.514-.07-4.279.355-5.312 1.21a4.461 4.461 0 0 0-1.134 1.421c.328-.389.77-.613 1.334-.615 1.32-.005 2.385.726 3.385 1.959.311.383 1.003 1.373 1.036 1.417l12.428 17.562c1.32 1.9 3.556 3.046 5.958 3.046zM1.02 6.392l.107-.026a7.805 7.805 0 0 0-.017.108.745.745 0 0 0-.151.358c.008-.16.023-.3.042-.436l.019-.004zm126.723-.076l-.003-.025a4.232 4.232 0 0 0 .264.076c.013.14.023.304.033.529l.002.027c-.022-.324-.149-.502-.296-.607z"/>
            <g transform="matrix(1 0 0 -1 0 310.008)">
                <use fill="#FFF" xlink:href="#f"/>
                <path stroke="#DEE1E2" stroke-width="2" d="M109.14 164.955l12.442-17.58c.06-.081.348-.47.427-.574.204-.273.385-.503.572-.728 1.092-1.305 2.129-2.06 3.35-2.036.659.013 1.149.283 1.489.717a3.424 3.424 0 0 0-.696-1.082c-.604-.655-1.449-1.209-2.389-1.423-.474-.108-1.659-.188-3.505-.241H8.128c-2.514-.07-4.279.355-5.312 1.21a4.461 4.461 0 0 0-1.134 1.42c.328-.388.77-.612 1.334-.614 1.32-.006 2.385.726 3.385 1.958.311.384 1.003 1.374 1.036 1.418l12.428 17.562c1.32 1.899 3.556 3.046 5.958 3.046h77.354c2.402 0 4.639-1.147 5.963-3.053zm18.706-18.624l.157.044c.013.14.023.304.033.529l.002.027c-.022-.324-.149-.503-.296-.607l-.003-.025.107.032zM1.02 146.4l.107-.026a7.806 7.806 0 0 0-.017.109.745.745 0 0 0-.151.358c.008-.16.023-.3.042-.436l.019-.005z"/>
            </g>
            <path fill="#003680" fill-rule="nonzero" d="M95.555 75.284c1.432-1.465 3.322-2.146 5.728-2.043 1.455.062 2.42.412 4.279 1.388l.172.09c2.137 1.123 3.302 1.552 5.13 1.65 2.963.158 5.25-.752 6.77-2.733a.766.766 0 0 0-.145-1.078.778.778 0 0 0-1.085.145c-1.19 1.55-2.979 2.262-5.457 2.13-1.547-.084-2.535-.447-4.49-1.474l-.172-.09c-2.046-1.075-3.193-1.491-4.935-1.565-2.832-.121-5.153.715-6.905 2.508a.766.766 0 0 0 .016 1.087.778.778 0 0 0 1.094-.015zM95.555 70.668c1.432-1.464 3.322-2.145 5.728-2.043 1.455.062 2.42.413 4.279 1.388l.172.09c2.137 1.124 3.302 1.552 5.13 1.65 2.963.158 5.25-.75 6.77-2.732a.766.766 0 0 0-.145-1.078.778.778 0 0 0-1.085.145c-1.19 1.55-2.979 2.261-5.457 2.129-1.547-.083-2.535-.447-4.49-1.473l-.172-.091c-2.046-1.074-3.193-1.49-4.935-1.565-2.832-.12-5.153.716-6.905 2.508a.766.766 0 0 0 .016 1.088.778.778 0 0 0 1.094-.016zM95.555 79.899c1.432-1.465 3.322-2.145 5.728-2.043 1.455.062 2.42.412 4.279 1.388l.172.09c2.137 1.123 3.302 1.552 5.13 1.65 2.963.158 5.25-.751 6.77-2.732a.766.766 0 0 0-.145-1.078.778.778 0 0 0-1.085.145c-1.19 1.55-2.979 2.261-5.457 2.129-1.547-.083-2.535-.447-4.49-1.473l-.172-.091c-2.046-1.074-3.193-1.49-4.935-1.565-2.832-.12-5.153.716-6.905 2.508a.766.766 0 0 0 .016 1.088.778.778 0 0 0 1.094-.016z"/>
            <g transform="translate(71 64)">
                <use fill="#FFF" xlink:href="#g"/>
                <ellipse cx="10.065" cy="10" stroke="#003680" stroke-width="2" rx="9.065" ry="9"/>
            </g>
            <g transform="translate(71 64)">
                <use fill="#FFF" xlink:href="#h"/>
                <ellipse cx="10.048" cy="10.01" stroke="#003680" stroke-width="2" rx="4.952" ry="4.913"/>
            </g>
            <path stroke="#DEE1E2" stroke-linecap="square" d="M60 16l10 26-10-26zM70 16L60 42l10-26z"/>
            <use fill="#FFF" xlink:href="#i"/>
            <circle cx="65" cy="15" r="7" stroke="#DEE1E2" stroke-width="2"/>
            <use fill="#FFF" xlink:href="#j"/>
            <circle cx="65" cy="43" r="7" stroke="#DEE1E2" stroke-width="2"/>
            <rect width="39" height="36" fill="#FF9000" rx="2" transform="translate(21 63)"/>
            <rect width="6" height="2" x="29" y="70" fill="#FFF" rx="1"/>
            <rect width="15" height="2" x="37" y="70" fill="#FFF" rx="1"/>
            <rect width="6" height="2" x="29" y="78" fill="#FFF" rx="1"/>
            <rect width="6" height="2" x="46" y="74" fill="#FFF" rx="1"/>
            <rect width="15" height="2" x="37" y="78" fill="#FFF" rx="1"/>
            <rect width="6" height="2" x="29" y="86" fill="#FFF" rx="1"/>
            <rect width="15" height="2" x="37" y="86" fill="#FFF" rx="1"/>
            <rect width="15" height="2" x="29" y="74" fill="#FFF" rx="1"/>
            <rect width="6" height="2" x="46" y="82" fill="#FFF" rx="1"/>
            <rect width="15" height="2" x="29" y="82" fill="#FFF" rx="1"/>
            <rect width="15" height="2" x="29" y="90" fill="#FFF" rx="1"/>
            <path fill="#DEE1E2" d="M22 107h9a1 1 0 1 1 0 2h-9a1 1 0 1 1 0-2zm14 0h23a1 1 0 1 1 0 2H36a1 1 0 1 1 0-2zm14 4h9a1 1 0 1 1 0 2h-9a1 1 0 1 1 0-2zm-28 0h24a1 1 0 1 1 0 2H22a1 1 0 1 1 0-2zm0 4h9a1 1 0 1 1 0 2h-9a1 1 0 1 1 0-2zm14 0h23a1 1 0 1 1 0 2H36a1 1 0 1 1 0-2zm-14 8h9a1 1 0 1 1 0 2h-9a1 1 0 1 1 0-2zm14 0h23a1 1 0 1 1 0 2H36a1 1 0 1 1 0-2zm14-4h9a1 1 0 1 1 0 2h-9a1 1 0 1 1 0-2zm-28 0h24a1 1 0 1 1 0 2H22a1 1 0 1 1 0-2zm0 8h24a1 1 0 1 1 0 2H22a1 1 0 1 1 0-2z"/>
        </g>
    </g>
</svg>
