<svg xmlns="http://www.w3.org/2000/svg" width="108" height="76" fill="none" viewBox="0 0 108 76">
    <mask id="a" width="142" height="122" x="-18" y="-28" maskUnits="userSpaceOnUse">
        <path fill="#C4C4C4" d="M-17.029-27.154h140.8V93.532h-140.8z"/>
    </mask>
    <g mask="url(#a)">
        <path fill="#fff" fill-rule="evenodd" d="M3.969 18.05L70.67.184a5.353 5.353 0 0 1 6.556 3.784l10.391 38.767a5.351 5.351 0 0 1-3.785 6.554L17.131 67.155a5.353 5.353 0 0 1-6.556-3.784L.184 24.604a5.351 5.351 0 0 1 3.785-6.554z" clip-rule="evenodd"/>
        <path fill="#FF9000" fill-rule="evenodd" d="M70.67.184L3.97 18.05a5.351 5.351 0 0 0-3.785 6.554l10.39 38.767a5.353 5.353 0 0 0 6.557 3.784L83.832 49.29a5.351 5.351 0 0 0 3.785-6.554L77.227 3.968A5.353 5.353 0 0 0 70.67.184zM1.218 24.327a4.28 4.28 0 0 1 3.028-5.243L70.947 1.218a4.282 4.282 0 0 1 5.245 3.027l10.391 38.767a4.28 4.28 0 0 1-3.028 5.243L16.854 66.122a4.283 4.283 0 0 1-5.245-3.028L1.218 24.327z" clip-rule="evenodd"/>
        <path fill="#FF9000" fill-rule="evenodd" d="M78.058 7.069L1.016 27.706l3.602 13.439L81.66 20.508 78.058 7.07zm2.292 12.682L5.376 39.834 2.327 28.462 77.302 8.38 80.35 19.75z" clip-rule="evenodd"/>
        <path fill="#fff" fill-rule="evenodd" d="M19.14 35.077c0-5.554 4.503-10.057 10.057-10.057h59.646c5.555 0 10.057 4.503 10.057 10.057V65.8c0 5.555-4.502 10.057-10.057 10.057H29.197c-5.554 0-10.057-4.502-10.057-10.057V35.077z" clip-rule="evenodd"/>
        <path fill="#FF9000" fill-rule="evenodd" d="M93.547 25.02H24.493a5.352 5.352 0 0 0-5.353 5.351v40.135a5.352 5.352 0 0 0 5.353 5.351h69.054a5.352 5.352 0 0 0 5.353-5.351V30.371a5.352 5.352 0 0 0-5.353-5.35zM20.21 30.371a4.282 4.282 0 0 1 4.283-4.28h69.054a4.282 4.282 0 0 1 4.283 4.28v40.135a4.282 4.282 0 0 1-4.283 4.28H24.493a4.282 4.282 0 0 1-4.282-4.28V30.37z" clip-rule="evenodd"/>
        <path fill="#FF9000" fill-rule="evenodd" d="M39.482 31.441h-10.17c-.888 0-1.607.72-1.607 1.606v6.421c0 .887.72 1.606 1.606 1.606h10.171c.887 0 1.606-.719 1.606-1.606v-6.421c0-.887-.72-1.606-1.606-1.606zm-10.706 1.606c0-.296.24-.535.535-.535h10.171c.296 0 .535.24.535.535v6.421c0 .296-.24.535-.535.535h-10.17a.535.535 0 0 1-.536-.535v-6.421zM39.482 50.17h-10.17c-.888 0-1.607.72-1.607 1.606v2.14c0 .888.72 1.606 1.606 1.606h10.171c.887 0 1.606-.718 1.606-1.605v-2.14c0-.887-.72-1.606-1.606-1.606zm-10.706 1.606c0-.295.24-.535.535-.535h10.171c.296 0 .535.24.535.535v2.14c0 .297-.24.536-.535.536h-10.17a.535.535 0 0 1-.536-.535v-2.14zm16.595-.535a.535.535 0 0 0-.536.535v2.14c0 .297.24.536.536.536h10.17c.296 0 .536-.24.536-.535v-2.14a.535.535 0 0 0-.536-.536h-10.17zm10.17-1.07h-10.17c-.887 0-1.606.719-1.606 1.605v2.14c0 .888.719 1.606 1.606 1.606h10.17c.887 0 1.606-.718 1.606-1.605v-2.14c0-.887-.719-1.606-1.606-1.606zm5.889 1.07a.535.535 0 0 0-.535.535v2.14c0 .297.24.536.535.536H71.6c.296 0 .536-.24.536-.535v-2.14a.535.535 0 0 0-.535-.536H61.43zm10.17-1.07H61.43c-.887 0-1.606.719-1.606 1.605v2.14c0 .888.719 1.606 1.606 1.606H71.6c.888 0 1.607-.718 1.607-1.605v-2.14c0-.887-.72-1.606-1.606-1.606zm5.888 1.07a.535.535 0 0 0-.535.535v2.14c0 .297.24.536.535.536H87.66c.296 0 .535-.24.535-.535v-2.14a.535.535 0 0 0-.535-.536H77.49zm10.171-1.07H77.49c-.888 0-1.607.719-1.607 1.605v2.14c0 .888.72 1.606 1.606 1.606H87.66c.887 0 1.606-.718 1.606-1.605v-2.14c0-.887-.719-1.606-1.606-1.606zM88.73 64.62H76.418a.535.535 0 1 0 0 1.07H88.73a.535.535 0 1 0 0-1.07zm-44.43 0H28.24a.535.535 0 1 0 0 1.07H44.3a.535.535 0 1 0 0-1.07zm-16.06 2.675h20.342a.535.535 0 1 1 0 1.07H28.241a.535.535 0 1 1 0-1.07zm22.483 0h5.889a.535.535 0 1 1 0 1.07h-5.889a.535.535 0 1 1 0-1.07zm25.695 0h8.709a.535.535 0 1 1 0 1.07h-8.71a.535.535 0 1 1 0-1.07z" clip-rule="evenodd"/>
        <path fill="#FF9000" d="M38.41 34.652h2.142a.535.535 0 1 1 0 1.07h-2.141a.535.535 0 1 1 0-1.07zM38.41 36.793h2.142a.535.535 0 1 1 0 1.07h-2.141a.535.535 0 1 1 0-1.07zM28.24 34.652h2.142a.535.535 0 1 1 0 1.07H28.24a.535.535 0 1 1 0-1.07zM28.24 36.793h2.142a.535.535 0 1 1 0 1.07H28.24a.535.535 0 1 1 0-1.07zM35.216 40.58a.535.535 0 1 0 1.07 0v-3.223a.535.535 0 0 0-.197-.416l-2.465-2V31.96a.535.535 0 1 0-1.07 0v3.237c0 .16.072.313.197.415l2.465 2v2.968zM97.83 16.458c.295 0 .535.24.535.535v4.281a.535.535 0 0 1-1.07 0v-4.281c0-.296.239-.535.535-.535zM108 28.766c0 .296-.24.535-.535.535h-4.283a.535.535 0 0 1 0-1.07h4.283c.295 0 .535.24.535.535zM106.276 20.047a.535.535 0 0 1 0 .757l-3.029 3.027a.536.536 0 0 1-.757-.757l3.029-3.027a.536.536 0 0 1 .757 0z"/>
    </g>
</svg>
