<svg xmlns="http://www.w3.org/2000/svg" width="73" height="54" fill="none" viewBox="0 0 73 54">
    <mask id="a" width="82" height="82" x="-2" y="-13" maskUnits="userSpaceOnUse">
        <path fill="#C4C4C4" d="M-1.862-12.14h80.933v80.933H-1.862z"/>
    </mask>
    <g fill="#144487" mask="url(#a)">
        <path d="M71.574 25.798H63.13c-.788 0-1.426.639-1.426 1.426v1.205h-8.88a1.42 1.42 0 0 0-.545.108l-11.374 4.708a5.266 5.266 0 0 0-2.878 2.89 5.265 5.265 0 0 0 .023 4.077l.039.09c.33.78.815 1.442 1.405 1.965-1.731.47-3.546.508-5.31.104l-11.167-2.557a5.136 5.136 0 0 0-3.948.689 5.135 5.135 0 0 0-2.272 3.3 5.163 5.163 0 0 0 3.791 6.068l13.323 3.386a13.752 13.752 0 0 0 8.446-.529l16.945-6.645h2.402v.75c0 .788.639 1.426 1.426 1.426h8.444c.788 0 1.426-.638 1.426-1.426V27.224c0-.788-.638-1.426-1.426-1.426zM59.032 43.231a1.43 1.43 0 0 0-.52.098l-17.196 6.745a10.903 10.903 0 0 1-6.702.419L21.29 47.107a2.317 2.317 0 0 1-1.701-2.723 2.302 2.302 0 0 1 1.02-1.481 2.3 2.3 0 0 1 1.771-.31l11.167 2.557c2.686.615 5.466.418 8.04-.571l3.24-1.246c.066-.023.133-.048.199-.073 2.864-1.105 6.52-2.51 7.306-2.813l.153-.059a1.426 1.426 0 0 0-1.023-2.661l-.167.064-7.431 2.857a2.559 2.559 0 0 1-3.15-1.457l-.038-.091a2.434 2.434 0 0 1-.011-1.885c.25-.61.722-1.084 1.33-1.335l11.113-4.6h8.596v11.951h-2.672zm11.116 2.176h-5.593V28.65h5.593v16.757zM13.885 25.201h-2.588V11.88h.394a6.7 6.7 0 0 0 3.045-.734c.044-.023.087-.048.128-.075l9.234-6.025a3.843 3.843 0 0 1 3.969.37l.666.497-.12.173a13.832 13.832 0 0 0-2.356 6.174 4.27 4.27 0 0 0-2.572 1.234 4.273 4.273 0 0 0-1.259 3.041c0 2.371 1.93 4.3 4.3 4.3h10.556c.582 0 1.131.228 1.543.638.413.415.64.964.641 1.546a2.177 2.177 0 0 1-1.556 2.093l-.022.006a2.176 2.176 0 0 1-.606.084H25.288a1.426 1.426 0 0 0 0 2.852h11.994c.368 0 .731-.04 1.084-.117.599.076 1.205.118 1.809.118 7.734 0 14.027-6.292 14.027-14.027C54.202 6.292 47.909 0 40.175 0a14.027 14.027 0 0 0-9.557 3.761l-.846-.63a6.712 6.712 0 0 0-7.037-.592 1.457 1.457 0 0 0-.128.074l-9.233 6.024a3.837 3.837 0 0 1-1.683.39h-.395v-.516c0-.787-.638-1.425-1.426-1.425H1.426C.638 7.086 0 7.724 0 8.51v19.61c0 .787.638 1.425 1.426 1.425H9.87c.788 0 1.426-.638 1.426-1.425v-.068h2.589a1.426 1.426 0 0 0 0-2.852zm11.393-8.667a1.438 1.438 0 0 1 .917-1.348c.077.954.25 1.887.518 2.796a1.45 1.45 0 0 1-1.435-1.448zm26.072-2.507c0 5.582-4.113 10.221-9.468 11.045.286-.642.436-1.35.436-2.054 0-.864-.218-1.694-.626-2.431a2.962 2.962 0 0 0 1.642-.835 2.966 2.966 0 0 0 .876-2.113v-2.108a2.992 2.992 0 0 0-2.988-2.988H39.13a.137.137 0 0 1-.137-.137v-1.99c0-.076.062-.136.137-.136H41.222c.075 0 .136.06.136.136a1.426 1.426 0 1 0 2.852 0 2.99 2.99 0 0 0-2.608-2.961V6.96a1.426 1.426 0 1 0-2.852 0v.494a2.99 2.99 0 0 0-2.608 2.96v1.991a2.992 2.992 0 0 0 2.988 2.988h2.092c.075 0 .136.061.136.137v2.108c0 .038-.013.07-.04.097a.133.133 0 0 1-.096.04H39.13a.137.137 0 0 1-.137-.137v-.193a1.426 1.426 0 1 0-2.851 0v.193c0 .116.008.23.02.343H29.72a11.08 11.08 0 0 1-.72-3.955A11.175 11.175 0 0 1 40.175 2.852c6.162 0 11.175 5.013 11.175 11.175zM8.444 26.695H2.852V9.937h5.592v16.758z"/>
        <path d="M20.73 25.837a1.434 1.434 0 0 0-1.577-.58 1.442 1.442 0 0 0-1.029 1.255c-.051.592.292 1.17.833 1.413a1.44 1.44 0 0 0 1.596-.289 1.44 1.44 0 0 0 .176-1.8z"/>
    </g>
</svg>
