<svg xmlns="http://www.w3.org/2000/svg" xmlns:xlink="http://www.w3.org/1999/xlink" width="406" height="179" viewBox="0 0 406 179">
    <defs>
        <rect id="a" width="39" height="8" x="210" y="22" rx="4"/>
        <rect id="b" width="12" height="8" x="253" y="22" rx="4"/>
        <path id="c" d="M237.5 54H213a3 3 0 0 0-3 3v40l3.08-2 3.095 2 3.074-2 3.062 2 3.107-2 3.05 2 3.098-2 2.66 1.74V97l.2-.13.199.13 2.858-1.886L240.4 97l.185-.12.188.12v-.242l2.7-1.758 3.063 2 3.107-2 3.05 2 3.098-2 3.059 2 3.03-2L265 97V57a3 3 0 0 0-3-3h-24.5z"/>
        <circle id="d" cx="159" cy="72" r="5"/>
        <circle id="e" cx="179" cy="57" r="5"/>
        <circle id="f" cx="179" cy="57" r="5"/>
    </defs>
    <g fill="none" fill-rule="evenodd">
        <path fill="#DEE1E2" fill-rule="nonzero" d="M107.997 169H284a1 1 0 1 0 0-2H107.997a1 1 0 1 0 0 2zM84 179h74a1 1 0 1 0 0-2H84a1 1 0 1 0 0 2zM171 179h145a1 1 0 1 0 0-2H171a1 1 0 1 0 0 2zM74 177H64a1 1 0 1 0 0 2h10a1 1 0 1 0 0-2zM334 177h-10a1 1 0 1 0 0 2h10a1 1 0 1 0 0-2zM21 169h74a1 1 0 1 0 0-2H21a1 1 0 1 0 0 2zM11 167H1a1 1 0 1 0 0 2h10a1 1 0 1 0 0-2zM405 167h-10a1 1 0 1 0 0 2h10a1 1 0 1 0 0-2zM294 169h94a1 1 0 1 0 0-2h-94a1 1 0 1 0 0 2zM38 123h-3c-5.523 0-10 4.477-10 10v6c0 5.523 4.477 10 10 10h3v-26zm2-2v30h-5c-6.627 0-12-5.373-12-12v-6c0-6.627 5.373-12 12-12h5zm-2 10.051h-3c-1.376 0-2 .674-2 1.949v6c0 1.395.676 2 2 2h3v-9.949zm-3-1.897h5V143h-5c-2.4 0-4-1.715-4-4v-6c0-2.542 1.471-3.846 4-3.846z"/>
        <path fill="#DEE1E2" fill-rule="nonzero" d="M40 115v44a8 8 0 0 0 8 8h26a8 8 0 0 0 8-8v-44H40zm44-2v46c0 5.523-4.477 10-10 10H48c-5.523 0-10-4.477-10-10v-46h46z"/>
        <path fill="#DEE1E2" fill-rule="nonzero" d="M75 120.5v22a1 1 0 1 0 2 0v-22a1 1 0 1 0-2 0zM75 148v5.759a1 1 0 1 0 2 0V148a1 1 0 1 0-2 0zM56.394 105.777c-1.855-3.416-1.855-6.582-.021-9.635 2.207-3.675 2.207-7.594.021-11.62a1 1 0 0 0-1.757.955c1.855 3.417 1.855 6.582.021 9.635-2.207 3.676-2.207 7.595-.021 11.62a1 1 0 1 0 1.757-.955zM66.053 106.023c-2.734-5.035-2.734-9.741-.021-14.258 3.086-5.139 3.086-10.599.021-16.242a1 1 0 0 0-1.757.954c2.734 5.035 2.734 9.741.021 14.258-3.086 5.139-3.086 10.599-.021 16.242a1 1 0 0 0 1.757-.954zM309 75a2 2 0 0 0-2 2v88a2 2 0 0 0 2 2h20a2 2 0 0 0 2-2V77a2 2 0 0 0-2-2h-20zm0-2h20a4 4 0 0 1 4 4v88a4 4 0 0 1-4 4h-20a4 4 0 0 1-4-4V77a4 4 0 0 1 4-4z"/>
        <path fill="#DEE1E2" fill-rule="nonzero" d="M306.962 82h24.076c.531 0 .962-.448.962-1s-.43-1-.962-1h-24.076c-.531 0-.962.448-.962 1s.43 1 .962 1z"/>
        <path fill="#DEE1E2" fill-rule="nonzero" d="M306.962 82h24.076c.531 0 .962-.448.962-1s-.43-1-.962-1h-24.076c-.531 0-.962.448-.962 1s.43 1 .962 1zM332.962 82h24.076c.531 0 .962-.448.962-1s-.43-1-.962-1h-24.076c-.531 0-.962.448-.962 1s.43 1 .962 1zM306.962 161h24.076c.531 0 .962-.448.962-1s-.43-1-.962-1h-24.076c-.531 0-.962.448-.962 1s.43 1 .962 1zM332.962 161h24.076c.531 0 .962-.448.962-1s-.43-1-.962-1h-24.076c-.531 0-.962.448-.962 1s.43 1 .962 1zM312.966 91.058h12.068c.534 0 .966-.448.966-1 0-.553-.432-1-.966-1h-12.068c-.534 0-.966.447-.966 1 0 .552.432 1 .966 1zM312.966 95h12.068c.534 0 .966-.448.966-1s-.432-1-.966-1h-12.068c-.534 0-.966.448-.966 1s.432 1 .966 1z"/>
        <path fill="#DEE1E2" fill-rule="nonzero" d="M335 75a2 2 0 0 0-2 2v88a2 2 0 0 0 2 2h20a2 2 0 0 0 2-2V77a2 2 0 0 0-2-2h-20zm0-2h20a4 4 0 0 1 4 4v88a4 4 0 0 1-4 4h-20a4 4 0 0 1-4-4V77a4 4 0 0 1 4-4z"/>
        <path fill="#DEE1E2" fill-rule="nonzero" d="M338.966 91h12.068c.534 0 .966-.448.966-1s-.432-1-.966-1h-12.068c-.534 0-.966.448-.966 1s.432 1 .966 1zM338.966 95h12.068c.534 0 .966-.448.966-1s-.432-1-.966-1h-12.068c-.534 0-.966.448-.966 1s.432 1 .966 1zM362.187 74.616a2 2 0 0 0-1.78 2.198l9.199 87.518a2 2 0 0 0 2.198 1.78l1.989-.209a2 2 0 0 0 1.78-2.198l-9.199-87.518a2 2 0 0 0-2.198-1.78l-1.989.21zm-.209-1.989l1.99-.209a4 4 0 0 1 4.395 3.56l9.199 87.518a4 4 0 0 1-3.56 4.396l-1.99.21a4 4 0 0 1-4.395-3.56l-9.199-87.519a4 4 0 0 1 3.56-4.396z"/>
        <g transform="translate(94)">
            <path fill="#DEE1E2" fill-rule="nonzero" d="M8 2a6 6 0 0 0-6 6v122a6 6 0 0 0 6 6h184a6 6 0 0 0 6-6V8a6 6 0 0 0-6-6H8zm0-2h184a8 8 0 0 1 8 8v122a8 8 0 0 1-8 8H8a8 8 0 0 1-8-8V8a8 8 0 0 1 8-8z"/>
            <circle cx="101.5" cy="128.5" r="2.5" stroke="#DEE1E2" stroke-width="2"/>
            <path fill="#DEE1E2" fill-rule="nonzero" d="M1 120h198.09v-2H1zM70.5 164a1.5 1.5 0 0 0 0 3h60a1.5 1.5 0 0 0 0-3h-60zm0-2h60a3.5 3.5 0 1 1 0 7h-60a3.5 3.5 0 1 1 0-7zM11 109h179V11H11v98zM9 9h183v102H9V9z"/>
            <path fill="#DEE1E2" d="M77.002 138L76 153c-.132 1.826-.446 3.363-.941 4.612-.495 1.25-1.515 2.712-3.059 4.388l2.57.01c1.144-1.327 1.955-2.64 2.432-3.942.476-1.301.81-2.99.998-5.068l1-15h-1.998zM123.998 138L125 153c.132 1.826.446 3.363.941 4.612.495 1.25 1.515 2.712 3.059 4.388l-2.57.01c-1.144-1.327-1.955-2.64-2.432-3.942-.476-1.301-.81-2.99-.998-5.068l-1-15h1.998z"/>
        </g>
        <g>
            <use fill="#FFF" xlink:href="#a"/>
            <rect width="37" height="6" x="211" y="23" stroke="#DEE1E2" stroke-width="2" rx="3"/>
        </g>
        <g>
            <use fill="#FFF" xlink:href="#b"/>
            <rect width="10" height="6" x="254" y="23" stroke="#DEE1E2" stroke-width="2" rx="3"/>
        </g>
        <path stroke="#DEE1E2" stroke-linecap="square" stroke-width="2" d="M104.5 38H284"/>
        <text fill="#FF9000" font-family="HelveticaNeue-Bold, Helvetica Neue" font-size="16" font-weight="bold" letter-spacing="-.571">
            <tspan x="156" y="30">u</tspan> <tspan x="164.917" y="30" letter-spacing="-.508">p</tspan>
        </text>
        <text fill="#003485" font-family="HelveticaNeue-Bold, Helvetica Neue" font-size="16" font-weight="bold" letter-spacing="-.571">
            <tspan x="122" y="30">cash</tspan>
        </text>
        <g>
            <use fill="#FFF" xlink:href="#c"/>
            <path stroke="#DEE1E2" stroke-width="2" d="M264 95.17V97l1.54-.842-1.54-.987zm-5.152.634l-.548.361 1.098-.002-.55-.36zm-6.15.003l-.547.353 1.091.004-.544-.357zm-6.157.001l-.545.351 1.088.004-.543-.355zm-11.919-.004l-.548.361.55.835.548-.837-.55-.36zm-6.15.003l-.547.353 1.09.004-.543-.357zm-6.157.001l-.546.351 1.089.004-.543-.355zm-6.142 0l-.543.354 1.088-.002-.545-.352zm-5.173-.65l-1.545 1.003L211 97v-1.841z"/>
        </g>
        <rect width="71" height="10" x="123" y="84" fill="#003485" rx="5"/>
        <path fill="#DEE1E2" d="M221 66h23a1 1 0 1 1 0 2h-23a1 1 0 1 1 0-2zm27 0h6a1 1 0 1 1 0 2h-6a1 1 0 1 1 0-2zm-17 4h23a1 1 0 1 1 0 2h-23a1 1 0 1 1 0-2zm-10 0h6a1 1 0 1 1 0 2h-6a1 1 0 1 1 0-2zm0 4h23a1 1 0 1 1 0 2h-23a1 1 0 1 1 0-2zm0 8h23a1 1 0 1 1 0 2h-23a1 1 0 1 1 0-2zm27-8h6a1 1 0 1 1 0 2h-6a1 1 0 1 1 0-2zm-17 4h23a1 1 0 1 1 0 2h-23a1 1 0 1 1 0-2zm-10 0h6a1 1 0 1 1 0 2h-6a1 1 0 1 1 0-2z"/>
        <rect width="71" height="4" x="122" y="55" fill="#DEE1E2" rx="2"/>
        <rect width="58" height="4" x="122" y="55" fill="#FF9000" rx="2"/>
        <rect width="71" height="4" x="122" y="70" fill="#DEE1E2" rx="2"/>
        <rect width="39" height="4" x="122" y="70" fill="#FF9000" rx="2"/>
        <g>
            <use fill="#FFF" xlink:href="#d"/>
            <circle cx="159" cy="72" r="4" stroke="#FF9000" stroke-width="2"/>
        </g>
        <g>
            <use fill="#FFF" xlink:href="#e"/>
            <circle cx="179" cy="57" r="4" stroke="#FF9000" stroke-width="2"/>
        </g>
        <g>
            <use fill="#FFF" xlink:href="#f"/>
            <circle cx="179" cy="57" r="4" stroke="#FF9000" stroke-width="2"/>
        </g>
    </g>
</svg>
