<svg xmlns="http://www.w3.org/2000/svg" width="119" height="101" fill="none" viewBox="0 0 119 101">
    <mask id="a" width="141" height="120" x="-10" y="0" maskUnits="userSpaceOnUse">
        <path fill="#C4C4C4" d="M-9.694 0h140v120h-140z"/>
    </mask>
    <g mask="url(#a)">
        <path fill="#fff" fill-rule="evenodd" d="M79.98 14.864l29.123 29.114a1.93 1.93 0 0 1 0 2.73l-1.269 1.268a1.93 1.93 0 0 1-2.73 0L75.98 18.862a1.93 1.93 0 0 1 0-2.73l1.27-1.268a1.931 1.931 0 0 1 2.73 0z" clip-rule="evenodd"/>
        <path fill="#FF9000" fill-rule="evenodd" d="M109.103 43.978L79.98 14.864a1.931 1.931 0 0 0-2.73 0l-1.27 1.269a1.93 1.93 0 0 0 0 2.73l29.124 29.113a1.93 1.93 0 0 0 2.73 0l1.269-1.269a1.93 1.93 0 0 0 0-2.73zM76.892 17.042l1.269-1.268a.644.644 0 0 1 .91 0l29.123 29.114a.644.644 0 0 1 0 .91l-1.269 1.268a.644.644 0 0 1-.91 0L76.892 17.952a.643.643 0 0 1 0-.91z" clip-rule="evenodd"/>
        <path fill="#fff" fill-rule="evenodd" d="M112.613 52.538l-10.66 39.77a1.93 1.93 0 0 1-2.365 1.365l-1.733-.464a1.93 1.93 0 0 1-1.365-2.364l10.66-39.77a1.93 1.93 0 0 1 2.364-1.365l1.734.465a1.93 1.93 0 0 1 1.365 2.363z" clip-rule="evenodd"/>
        <path fill="#FF9000" fill-rule="evenodd" d="M101.953 92.308l10.66-39.77a1.93 1.93 0 0 0-1.365-2.363l-1.734-.465a1.93 1.93 0 0 0-2.364 1.365l-10.66 39.77a1.93 1.93 0 0 0 1.365 2.364l1.733.464a1.93 1.93 0 0 0 2.365-1.365zm7.23-41.354l1.733.464a.643.643 0 0 1 .456.788l-10.66 39.77a.644.644 0 0 1-.788.455l-1.734-.465a.643.643 0 0 1-.455-.787l10.66-39.77a.643.643 0 0 1 .788-.455zM54.88 26.48c0 4.488 3.681 8.127 8.223 8.127 4.541 0 8.223-3.639 8.223-8.128 0-4.489-3.682-8.127-8.223-8.127-4.542 0-8.223 3.638-8.223 8.127zm15.158-.001c0 3.775-3.102 6.84-6.936 6.84s-6.936-3.065-6.936-6.84 3.102-6.841 6.936-6.841 6.936 3.066 6.936 6.84z" clip-rule="evenodd"/>
        <path fill="#fff" fill-rule="evenodd" d="M103.474 53.345c2.792 2.792 7.294 2.817 10.055.057 2.761-2.76 2.735-7.26-.057-10.052-2.793-2.791-7.294-2.817-10.055-.057-2.761 2.76-2.736 7.26.057 10.052z" clip-rule="evenodd"/>
        <path fill="#FF9000" fill-rule="evenodd" d="M101.323 48.347c0 3.904 3.201 7.068 7.15 7.068 3.95 0 7.151-3.164 7.151-7.068 0-3.903-3.201-7.067-7.151-7.067-3.949 0-7.15 3.164-7.15 7.067zm13.012 0c0 3.19-2.622 5.78-5.864 5.78-3.241 0-5.863-2.59-5.863-5.78 0-3.19 2.622-5.78 5.863-5.78 3.242 0 5.864 2.59 5.864 5.78z" clip-rule="evenodd"/>
        <path fill="#fff" fill-rule="evenodd" d="M106.475 50.346c1.117 1.117 2.918 1.127 4.022.023 1.105-1.104 1.094-2.904-.023-4.021s-2.917-1.127-4.022-.023c-1.104 1.104-1.094 2.904.023 4.02z" clip-rule="evenodd"/>
        <path fill="#FF9000" fill-rule="evenodd" d="M105.614 48.346c0 1.562 1.281 2.828 2.86 2.828 1.58 0 2.86-1.266 2.86-2.828 0-1.56-1.28-2.827-2.86-2.827-1.579 0-2.86 1.266-2.86 2.827zm4.433 0c0 .848-.701 1.54-1.573 1.54s-1.573-.692-1.573-1.54c0-.847.701-1.54 1.573-1.54s1.573.693 1.573 1.54z" clip-rule="evenodd"/>
        <path fill="#fff" fill-rule="evenodd" d="M75.05.942l13.456 13.451a3.216 3.216 0 0 1 .155 4.384L72.005 37.955a1.931 1.931 0 0 1-2.823.1l-17.8-17.795a1.93 1.93 0 0 1 .1-2.822L70.665.788a3.219 3.219 0 0 1 4.385.154z" clip-rule="evenodd"/>
        <path fill="#FF9000" fill-rule="evenodd" d="M88.506 14.393L75.05.943a3.219 3.219 0 0 0-4.384-.155L51.48 17.438a1.93 1.93 0 0 0-.1 2.822l17.801 17.794a1.931 1.931 0 0 0 2.823-.1l16.656-19.177a3.216 3.216 0 0 0-.155-4.384zm-36.18 4.016L71.51 1.76a1.931 1.931 0 0 1 2.631.093l13.456 13.451a1.93 1.93 0 0 1 .093 2.63L71.034 37.111c-.233.269-.64.297-.941.033l-17.8-17.794c-.252-.251-.252-.659.033-.94z" clip-rule="evenodd"/>
        <path fill="#fff" fill-rule="evenodd" d="M80.442 93.28a3.217 3.217 0 0 1 3.217-3.216h31.535a3.217 3.217 0 1 1 0 6.433H83.659a3.217 3.217 0 0 1-3.217-3.217z" clip-rule="evenodd"/>
        <path fill="#FF9000" fill-rule="evenodd" d="M115.193 90.064H83.66a3.217 3.217 0 1 0 0 6.433h31.533a3.217 3.217 0 1 0 0-6.433zM81.731 93.28a1.93 1.93 0 0 1 1.93-1.93h31.534a1.93 1.93 0 1 1 0 3.86H83.661a1.93 1.93 0 0 1-1.93-1.93z" clip-rule="evenodd"/>
        <path fill="#fff" fill-rule="evenodd" d="M11.584 47.457a5 5 0 0 1 5-5h70.442a5 5 0 0 1 5 5v45.327a5 5 0 0 1-5 5H16.585a5 5 0 0 1-5-5V47.457z" clip-rule="evenodd"/>
        <path fill="#fff" stroke="#FF9000" stroke-width="2" d="M12.584 47.457a4 4 0 0 1 4-4h70.442a4 4 0 0 1 4 4v45.327a4 4 0 0 1-4 4H16.585a4 4 0 0 1-4-4V47.457z"/>
        <path fill="#fff" fill-rule="evenodd" d="M16.09 47.96a1 1 0 0 1 1-1h69.433a1 1 0 0 1 1 1v46.25a1 1 0 0 1-1 1H17.09a1 1 0 0 1-1-1V47.96z" clip-rule="evenodd"/>
        <path fill="#fff" fill-rule="evenodd" d="M16.09 47.39a1 1 0 0 1 1-1h69.433a1 1 0 0 1 1 1v46.249a1 1 0 0 1-1 1H17.09a1 1 0 0 1-1-1v-46.25z" clip-rule="evenodd"/>
        <path fill="#FF9000" fill-rule="evenodd" d="M86.88 46.96H16.732a.643.643 0 0 0-.643.644v46.963c0 .355.288.643.643.643H86.88a.643.643 0 0 0 .644-.643V47.604a.644.644 0 0 0-.644-.644zm-.644 46.964H17.377V48.247h68.859v45.677zM12.871 28.305a.643.643 0 1 1 1.287 0v5.146a.644.644 0 1 1-1.287 0v-5.146zM.643 41.814a.643.643 0 0 1 0-1.286h5.15a.643.643 0 1 1 0 1.286H.642zM3.673 32.243a.643.643 0 1 1 .91-.91l3.64 3.64a.643.643 0 1 1-.91.91l-3.64-3.64z" clip-rule="evenodd"/>
        <path fill="#fff" fill-rule="evenodd" d="M5.148 94.567c0-.71.576-1.287 1.287-1.287H97.82c.71 0 1.286.576 1.286 1.287A6.433 6.433 0 0 1 92.672 101h-81.09a6.433 6.433 0 0 1-6.434-6.433z" clip-rule="evenodd"/>
        <path fill="#FF9000" fill-rule="evenodd" d="M97.818 93.28H6.436c-.711 0-1.288.576-1.288 1.287v2.573A3.86 3.86 0 0 0 9.01 101h86.234a3.86 3.86 0 0 0 3.861-3.86v-2.573c0-.71-.576-1.287-1.287-1.287zM6.436 97.14v-2.573H97.82v2.574a2.574 2.574 0 0 1-2.574 2.573H9.01a2.574 2.574 0 0 1-2.574-2.573z" clip-rule="evenodd"/>
        <path fill="#FF9000" d="M61.956 9.43l18.209 18.202-.91.91-18.21-18.203.91-.91zM21.55 61.749c0-.53.43-.96.96-.96h58.558a.96.96 0 1 1 0 1.92H22.51a.96.96 0 0 1-.96-.96z"/>
        <rect width="60.478" height="1.92" x="21.55" y="80.948" fill="#FF9000" rx=".96"/>
        <circle cx="63.789" cy="81.908" r="3.34" fill="#FFFEFE" stroke="#FF9000"/>
        <circle cx="74.349" cy="61.748" r="3.34" fill="#FFFEFE" stroke="#FF9000"/>
    </g>
</svg>
