<?xml version="1.0" encoding="UTF-8"?>
<svg width="12px" height="6px" viewBox="0 0 12 6" version="1.1" xmlns="http://www.w3.org/2000/svg" xmlns:xlink="http://www.w3.org/1999/xlink">
    <!-- Generator: Sketch 45.2 (43514) - http://www.bohemiancoding.com/sketch -->
    <title>Artboard 2</title>
    <desc>Created with Sketch.</desc>
    <defs></defs>
    <g id="Page-1" stroke="none" stroke-width="1" fill="none" fill-rule="evenodd">
        <g id="Artboard-2" fill="#c6c9ce">
            <path d="M2,0 L3.58578644,0 L3.58578644,-8.8817842e-16 C3.85100293,-9.36897899e-16 4.10535684,0.10535684 4.29289322,0.292893219 L5.29289322,1.29289322 L5.29289322,1.29289322 C5.68341751,1.68341751 6.31658249,1.68341751 6.70710678,1.29289322 L7.70710678,0.292893219 L7.70710678,0.292893219 C7.89464316,0.10535684 8.14899707,4.87194788e-17 8.41421356,0 L10,0 L10,0 C10.4575277,-8.4046469e-17 10.8284271,0.370899457 10.8284271,0.828427125 C10.8284271,1.04813966 10.7411467,1.25885334 10.5857864,1.41421356 L6.70710678,5.29289322 L6.70710678,5.29289322 C6.31658249,5.68341751 5.68341751,5.68341751 5.29289322,5.29289322 L1.41421356,1.41421356 L1.41421356,1.41421356 C1.09069265,1.09069265 1.09069265,0.566161603 1.41421356,0.242640687 C1.56957379,0.0872804643 1.78028747,4.03605377e-17 2,0 Z" id="Rectangle-41"></path>
        </g>
    </g>
</svg>