<svg xmlns="http://www.w3.org/2000/svg" width="25" height="25" viewBox="0 0 25 25">
    <path fill="#4267B2" fill-rule="evenodd" d="M2.964 0A2.965 2.965 0 0 0 0 2.964v19.071A2.964 2.964 0 0 0 2.964 25h10.927l.013-7.862h-2.042a.482.482 0 0 1-.482-.48l-.01-2.534a.482.482 0 0 1 .482-.484h2.039v-2.448c0-2.842 1.735-4.39 4.27-4.39h2.08c.266 0 .482.217.482.483v2.137a.482.482 0 0 1-.481.482h-1.277c-1.379 0-1.646.655-1.646 1.617v2.12h3.03c.288 0 .512.252.478.538l-.3 2.534a.482.482 0 0 1-.479.425h-2.715L17.32 25h4.717A2.965 2.965 0 0 0 25 22.036V2.964A2.965 2.965 0 0 0 22.036 0H2.964z"/>
</svg>
