<svg xmlns="http://www.w3.org/2000/svg" xmlns:xlink="http://www.w3.org/1999/xlink" width="398" height="204" viewBox="0 0 398 204">
    <defs>
        <path id="a" d="M185.5 65H161a3 3 0 0 0-3 3v40l3.08-2 3.095 2 3.074-2 3.062 2 3.107-2 3.05 2 3.098-2 2.66 1.74v.26l.2-.13.199.13 2.858-1.887L188.4 108l.185-.12.188.12v-.242l2.7-1.758 3.063 2 3.107-2 3.05 2 3.098-2 3.059 2 3.03-2 3.119 2V68a3 3 0 0 0-3-3h-24.5z"/>
        <rect id="b" width="82" height="8" x="61" y="55" rx="4"/>
        <rect id="c" width="156" height="195" rx="8"/>
        <circle id="d" cx="14.5" cy="14.5" r="14.5"/>
        <circle id="e" cx="14.5" cy="14.5" r="10.5"/>
        <rect id="f" width="82" height="8" x="61" y="70" rx="4"/>
        <rect id="g" width="82" height="8" x="61" y="85" rx="4"/>
        <rect id="h" width="82" height="8" x="61" y="100" rx="4"/>
    </defs>
    <g fill="none" fill-rule="evenodd">
        <path fill="#DEE1E2" fill-rule="nonzero" d="M141 202H84a1 1 0 1 0 0 2h114a1 1 0 1 0 0-2h-57zM31.47 178c-.812 0-1.47-.448-1.47-1s.658-1 1.47-1h213.06c.812 0 1.47.448 1.47 1s-.658 1-1.47 1H31.47zM74 202a1 1 0 1 1 0 2H64a1 1 0 1 1 0-2h10zm177 2a1 1 0 1 1 0-2h74a1 1 0 1 1 0 2h-74zm93-2a1 1 0 1 1 0 2h-10a1 1 0 1 1 0-2h10zm-127 0a1 1 0 1 1 0 2h-10a1 1 0 1 1 0-2h10zM21 190a1 1 0 1 1 0-2h74a1 1 0 1 1 0 2H21zm-10-2a1 1 0 1 1 0 2H1a1 1 0 1 1 0-2h10zm130 2a1 1 0 1 1 0-2h74a1 1 0 1 1 0 2h-74zm-10-2a1 1 0 1 1 0 2h-10a1 1 0 1 1 0-2h10zm222.355-7c-.196 0-.355-.448-.355-1s.16-1 .355-1h26.29c.196 0 .355.448.355 1s-.16 1-.355 1h-26.29zM397 179a1 1 0 1 1 0 2h-10a1 1 0 1 1 0-2h10z"/>
        <g transform="translate(31 9)">
            <path fill="#DEE1E2" fill-rule="nonzero" d="M8 2a6 6 0 0 0-6 6v122a6 6 0 0 0 6 6h184a6 6 0 0 0 6-6V8a6 6 0 0 0-6-6H8zm0-2h184a8 8 0 0 1 8 8v122a8 8 0 0 1-8 8H8a8 8 0 0 1-8-8V8a8 8 0 0 1 8-8z"/>
            <circle cx="101.5" cy="128.5" r="2.5" stroke="#DEE1E2" stroke-width="2"/>
            <path fill="#DEE1E2" fill-rule="nonzero" d="M1 120h198.09v-2H1zM70.5 164a1.5 1.5 0 0 0 0 3h60a1.5 1.5 0 0 0 0-3h-60zm0-2h60a3.5 3.5 0 1 1 0 7h-60a3.5 3.5 0 1 1 0-7zM11 109h179V11H11v98zM9 9h183v102H9V9z"/>
            <path fill="#DEE1E2" d="M77.002 138L76 153c-.132 1.826-.446 3.363-.941 4.612-.495 1.25-1.515 2.712-3.059 4.388l2.57.01c1.144-1.327 1.955-2.64 2.432-3.942.476-1.301.81-2.99.998-5.068l1-15h-1.998zM123.998 138L125 153c.132 1.826.446 3.363.941 4.612.495 1.25 1.515 2.712 3.059 4.388l-2.57.01c-1.144-1.327-1.955-2.64-2.432-3.942-.476-1.301-.81-2.99-.998-5.068l-1-15h1.998z"/>
        </g>
        <use fill="#FFF" xlink:href="#a"/>
        <path stroke="#DEE1E2" stroke-width="2" d="M212 106.17V108l1.54-.842-1.54-.987zm-5.152.633l-.548.362 1.098-.002-.55-.36zm-6.15.004l-.547.353 1.091.004-.544-.357zm-6.157.001l-.545.351 1.088.004-.543-.355zm-18.07-.001l-.546.353 1.09.004-.543-.357zm-6.156.001l-.546.351 1.089.004-.543-.355zm-6.142 0l-.543.354 1.088-.002-.545-.352zm-5.173-.65l-1.545 1.003L159 108v-1.842zm23.428.518l-.746.485.544.839h1v-.802l-.798-.522zm6.154.013l-.808.526V108h1l.54-.842-.732-.469z"/>
        <path fill="#DEE1E2" d="M169 77h23a1 1 0 1 1 0 2h-23a1 1 0 1 1 0-2zm27 0h6a1 1 0 1 1 0 2h-6a1 1 0 1 1 0-2zm-17 4h23a1 1 0 1 1 0 2h-23a1 1 0 1 1 0-2zm-10 0h6a1 1 0 1 1 0 2h-6a1 1 0 1 1 0-2zm0 4h23a1 1 0 1 1 0 2h-23a1 1 0 1 1 0-2zm0 8h23a1 1 0 1 1 0 2h-23a1 1 0 1 1 0-2zm27-8h6a1 1 0 1 1 0 2h-6a1 1 0 1 1 0-2zm-17 4h23a1 1 0 1 1 0 2h-23a1 1 0 1 1 0-2zm-10 0h6a1 1 0 1 1 0 2h-6a1 1 0 1 1 0-2z"/>
        <rect width="17" height="4" x="158" y="55" fill="#FF9000" rx="2"/>
        <rect width="17" height="4" x="177" y="55" fill="#FF9000" rx="2"/>
        <rect width="17" height="4" x="196" y="55" fill="#FF9000" rx="2"/>
        <use fill="#FFF" xlink:href="#b"/>
        <rect width="80" height="6" x="62" y="56" stroke="#DEE1E2" stroke-width="2" rx="3"/>
        <g transform="translate(205)">
            <use fill="#FFF" xlink:href="#c"/>
            <rect width="154" height="193" x="1" y="1" stroke="#DEE1E2" stroke-width="2" rx="8"/>
            <text fill="#FF9000" font-family="HelveticaNeue-Bold, Helvetica Neue" font-size="16" font-weight="bold" letter-spacing="-.571">
                <tspan x="87" y="41">u</tspan> <tspan x="95.917" y="41" letter-spacing="-.508">p</tspan>
            </text>
            <text fill="#003485" font-family="HelveticaNeue-Bold, Helvetica Neue" font-size="16" font-weight="bold" letter-spacing="-.571">
                <tspan x="53" y="41">cash</tspan>
            </text>
            <rect width="99" height="3" x="28" y="56" fill="#003485" rx="1.5"/>
            <rect width="51" height="3" x="28" y="63" fill="#003485" rx="1.5"/>
            <g fill="#D8D8D8" transform="translate(28 77)">
                <rect width="71" height="3" rx="1.5"/>
                <rect width="74" height="3" x="25" y="9" rx="1.5"/>
                <rect width="22" height="3" y="9" rx="1.5"/>
                <rect width="71" height="3" y="18" rx="1.5"/>
                <rect width="25" height="3" x="74" y="18" rx="1.5"/>
                <rect width="25" height="3" x="74" y="36" rx="1.5"/>
                <rect width="25" height="3" x="74" rx="1.5"/>
                <rect width="74" height="3" x="25" y="27" rx="1.5"/>
                <rect width="22" height="3" y="27" rx="1.5"/>
                <rect width="74" height="3" x="25" y="45" rx="1.5"/>
                <rect width="22" height="3" y="45" rx="1.5"/>
                <rect width="71" height="3" y="36" rx="1.5"/>
                <rect width="71" height="3" y="54" rx="1.5"/>
            </g>
            <g transform="translate(99 148)">
                <use fill="#FFF" xlink:href="#d"/>
                <circle cx="14.5" cy="14.5" r="13.5" stroke="#003680" stroke-width="2"/>
                <use fill="#FFF" xlink:href="#e"/>
                <circle cx="14.5" cy="14.5" r="9.5" stroke="#003680" stroke-width="2"/>
                <rect width="11" height="2" x="9" y="12" fill="#003680" rx="1"/>
                <rect width="7" height="2" x="11" y="16" fill="#003680" rx="1"/>
            </g>
        </g>
        <use fill="#FFF" xlink:href="#f"/>
        <rect width="80" height="6" x="62" y="71" stroke="#DEE1E2" stroke-width="2" rx="3"/>
        <use fill="#FFF" xlink:href="#g"/>
        <rect width="80" height="6" x="62" y="86" stroke="#DEE1E2" stroke-width="2" rx="3"/>
        <g>
            <use fill="#FFF" xlink:href="#h"/>
            <rect width="80" height="6" x="62" y="101" stroke="#DEE1E2" stroke-width="2" rx="3"/>
        </g>
        <text fill="#FF9000" font-family="HelveticaNeue-Bold, Helvetica Neue" font-size="16" font-weight="bold" letter-spacing="-.571">
            <tspan x="95" y="43">u</tspan> <tspan x="103.917" y="43" letter-spacing="-.508">p</tspan>
        </text>
        <text fill="#003485" font-family="HelveticaNeue-Bold, Helvetica Neue" font-size="16" font-weight="bold" letter-spacing="-.571">
            <tspan x="61" y="43">cash</tspan>
        </text>
    </g>
</svg>
