<svg xmlns="http://www.w3.org/2000/svg" xmlns:xlink="http://www.w3.org/1999/xlink" width="136" height="30" viewBox="0 0 136 30">
    <defs>
        <path id="a" d="M0 29.761h29.485V.211H0z"/>
    </defs>
    <g fill="none" fill-rule="evenodd">
        <path fill="#C4C7CC" fill-rule="nonzero" d="M51 7.979h-7.676v5.045h7.404v2.979h-7.404V26H40V5h11z"/>
        <path fill="#DBDDE1" fill-rule="nonzero" d="M57.203 14.945c0 2.344.782 4.27 2.345 5.78 1.554 1.51 3.348 2.266 5.384 2.266 2.208 0 4.07-.769 5.588-2.306 1.518-1.557 2.277-3.452 2.277-5.684 0-2.261-.75-4.156-2.25-5.685-1.49-1.538-3.335-2.306-5.534-2.306-2.19 0-4.039.768-5.547 2.306-1.509 1.52-2.263 3.396-2.263 5.63M54 14.91c0-2.986 1.086-5.551 3.257-7.695C59.42 5.072 62.02 4 65.054 4c3 0 5.57 1.081 7.715 3.244C74.923 9.405 76 12.003 76 15.035c0 3.05-1.082 5.638-3.244 7.764C70.584 24.933 67.962 26 64.89 26c-2.717 0-5.157-.948-7.32-2.844C55.191 21.058 54 18.31 54 14.911"/>
        <path fill="#C4C7CC" fill-rule="nonzero" d="M105.318 23.021h1.494c1.49 0 2.73-.15 3.716-.449a7.625 7.625 0 0 0 2.677-1.51c1.633-1.423 2.449-3.277 2.449-5.562 0-2.303-.807-4.171-2.42-5.604-1.453-1.278-3.593-1.917-6.422-1.917h-1.494V23.02zM102 26V5h4.613c2.212 0 3.958.209 5.24.626a9.92 9.92 0 0 1 3.744 2.08C117.865 9.684 119 12.282 119 15.5c0 3.227-1.182 5.84-3.545 7.834-1.187.997-2.43 1.69-3.73 2.08-1.216.39-2.938.586-5.169.586H102zM125.298 16.928L118 5h3.881l5.112 8.392L132.119 5H136l-7.328 11.928V26h-3.374zM94.751 5v15.444L82.13 5H79v21h3.249V10.529L94.869 26H98V5z"/>
        <g>
            <mask id="b" fill="#fff">
                <use xlink:href="#a"/>
            </mask>
            <path fill="#C4C7CC" fill-rule="nonzero" d="M14.616.21l-.433.26L9.23 3.434l-.385.246v5.233l-4.022 2.403-.401.247v5.232L.4 19.199l-.4.247V26.286l.358.246 4.952 2.966.415.255.424-.25 4.124-2.402 4.073 2.399.43.254.43-.255 4.033-2.388 3.813 2.378.438.273.443-.264 5.064-2.965.487-.247V19.446l-.401-.247-4.022-2.403v-5.232l-.4-.247-4.023-2.403V3.68l-.512-.246L15.098.469l-.482-.258zm.126.988l5.013 2.966v5.232l4.422 2.65v5.232l4.423 2.65v5.875l-5.045 2.966-4.278-2.65-4.489 2.65-4.509-2.65-4.485 2.65-4.91-2.966V19.93l4.423-2.65v-5.233l4.423-2.65V4.164l5.012-2.966z" mask="url(#b)"/>
        </g>
        <path fill="#DBDDE1" fill-rule="nonzero" d="M18.575 9.436l-3.833 2.335-3.833-2.335v-4.67l3.833-2.334 3.833 2.335z"/>
        <path fill="#C4C7CC" fill-rule="nonzero" d="M18.575 25.2l-3.833 2.335-3.833-2.335v-4.669l3.833-2.334 3.833 2.334zM27.42 25.2l-3.832 2.335-3.833-2.335v-4.669l3.833-2.334 3.833 2.334zM9.73 25.2l-3.98 2.335L1.77 25.2v-4.669l3.98-2.334 3.98 2.334zM14.153 17.318l-3.833 2.335-3.833-2.335V12.65l3.833-2.335 3.833 2.335zM22.998 17.318l-3.833 2.335-3.833-2.335V12.65l3.833-2.335 3.833 2.335z"/>
    </g>
</svg>
