<svg xmlns="http://www.w3.org/2000/svg" width="180" height="180" fill="none" viewBox="0 0 180 180">
    <circle cx="90" cy="90" r="70" fill="#fff" filter="url(#a)"/>
    <mask id="b" width="140" height="140" x="20" y="20" maskUnits="userSpaceOnUse">
        <path fill="#C4C4C4" d="M20 20h140v140H20z"/>
    </mask>
    <g fill="#394561" mask="url(#b)">
        <path d="M119.221 65.067h-58.44a4.785 4.785 0 0 0-4.78 4.78v40.307a4.785 4.785 0 0 0 4.78 4.779h58.44a4.785 4.785 0 0 0 4.779-4.779V69.847a4.785 4.785 0 0 0-4.779-4.78zm2.512 45.087a2.515 2.515 0 0 1-2.512 2.513h-58.44a2.516 2.516 0 0 1-2.513-2.513V69.847a2.515 2.515 0 0 1 2.512-2.513h58.441a2.515 2.515 0 0 1 2.512 2.513v40.307z"/>
        <path d="M74.134 97.934h-10.2a1.133 1.133 0 1 0 0 2.266h10.2a1.133 1.133 0 1 0 0-2.266zM88.866 97.934h-10.2a1.133 1.133 0 1 0 0 2.266h10.2a1.133 1.133 0 1 0 0-2.266zM65.067 103.6h-1.133a1.132 1.132 0 1 0 0 2.266h1.133a1.132 1.132 0 1 0 0-2.266zM71.869 103.6h-2.267a1.132 1.132 0 1 0 0 2.266h2.267a1.132 1.132 0 1 0 0-2.266zM77.535 103.6h-1.133a1.132 1.132 0 1 0 0 2.266h1.133a1.132 1.132 0 1 0 0-2.266zM84.334 103.6h-2.267a1.132 1.132 0 1 0 0 2.266h2.267a1.132 1.132 0 1 0 0-2.266zM88.062 103.93c-.205.215-.329.51-.329.804 0 .295.124.59.33.805.213.204.51.329.804.329.294 0 .589-.125.804-.329.204-.215.329-.51.329-.805a1.19 1.19 0 0 0-.329-.804c-.43-.42-1.202-.42-1.609 0zM110.4 93.4a7.88 7.88 0 0 0-3.967 1.074 7.877 7.877 0 0 0-3.967-1.074c-4.373 0-7.933 3.559-7.933 7.934 0 4.374 3.56 7.933 7.933 7.933a7.884 7.884 0 0 0 3.967-1.073 7.887 7.887 0 0 0 3.967 1.073c4.373 0 7.933-3.559 7.933-7.933 0-4.375-3.56-7.934-7.933-7.934zm-2.267 7.934a5.645 5.645 0 0 1-1.7 4.036 5.645 5.645 0 0 1 0-8.073 5.646 5.646 0 0 1 1.7 4.037zm-11.333 0a5.673 5.673 0 0 1 5.666-5.667 5.61 5.61 0 0 1 2.026.391 7.89 7.89 0 0 0-2.026 5.276 7.89 7.89 0 0 0 2.026 5.275 5.602 5.602 0 0 1-2.026.391 5.673 5.673 0 0 1-5.666-5.666zM110.4 107a5.602 5.602 0 0 1-2.026-.391 7.89 7.89 0 0 0 2.026-5.275 7.89 7.89 0 0 0-2.026-5.276 5.61 5.61 0 0 1 2.026-.391 5.673 5.673 0 0 1 5.666 5.667A5.673 5.673 0 0 1 110.4 107zM65.356 90H80.645a2.56 2.56 0 0 0 2.556-2.555V76.689a2.56 2.56 0 0 0-2.556-2.555H65.356a2.56 2.56 0 0 0-2.555 2.555v10.756A2.56 2.56 0 0 0 65.356 90zm4.245-6.8h-4.534v-2.266h4.534V83.2zm-4.534 4.245v-1.978h4.534v1.978c0 .098.018.192.03.289h-4.275a.289.289 0 0 1-.289-.29zM80.934 83.2H76.4v-1.977c0-.16.129-.29.289-.29h3.955c.098 0 .193-.017.289-.029V83.2zm-.29 4.534h-4.273c.011-.097.03-.19.03-.29v-1.977h4.533v1.978c0 .16-.13.289-.29.289zm0-11.334c.16 0 .29.13.29.29v1.688c0 .16-.13.29-.29.29H76.69a2.56 2.56 0 0 0-2.556 2.555v6.222c0 .16-.13.289-.29.289h-1.688a.289.289 0 0 1-.289-.29V76.69c0-.16.13-.289.29-.289h8.488zm-15.288 0h4.274c-.011.097-.03.19-.03.29v1.977h-4.533V76.69c0-.16.13-.289.29-.289z"/>
    </g>
    <defs>
        <filter id="a" width="180" height="180" x="0" y="0" color-interpolation-filters="sRGB" filterUnits="userSpaceOnUse">
            <feFlood flood-opacity="0" result="BackgroundImageFix"/>
            <feColorMatrix in="SourceAlpha" values="0 0 0 0 0 0 0 0 0 0 0 0 0 0 0 0 0 0 127 0"/>
            <feOffset/>
            <feGaussianBlur stdDeviation="10"/>
            <feColorMatrix values="0 0 0 0 0.776471 0 0 0 0 0.788235 0 0 0 0 0.807843 0 0 0 0.4 0"/>
            <feBlend in2="BackgroundImageFix" result="effect1_dropShadow"/>
            <feBlend in="SourceGraphic" in2="effect1_dropShadow" result="shape"/>
        </filter>
    </defs>
</svg>
