<?xml version="1.0" encoding="utf-8"?>
<!-- Generator: Adobe Illustrator 19.2.0, SVG Export Plug-In . SVG Version: 6.00 Build 0)  -->
<svg version="1.1" id="Layer_1" xmlns="http://www.w3.org/2000/svg" xmlns:xlink="http://www.w3.org/1999/xlink" x="0px" y="0px"
	 viewBox="0 0 90 25" style="enable-background:new 0 0 90 25;" xml:space="preserve">
<style type="text/css">
	.st0{clip-path:url(#SVGID_2_);fill:#f69434;}
	.st1{fill:#f69434;}
	.st2{fill:#003680;}
</style>
<title>Artboard 2</title>
<desc>Created with Sketch.</desc>
<g>
	<defs>
		<polygon id="SVGID_1_" points="60.9,-0.1 65.9,5.9 55.9,5.9 		"/>
	</defs>
	<clipPath id="SVGID_2_">
		<use xlink:href="#SVGID_1_"  style="overflow:visible;"/>
	</clipPath>
	<!--<rect x="50.9" y="-5.1" class="st0" width="20" height="16"/>-->
</g>
<g>
	<path class="st1" d="M69.2,19.9v-2h-0.1c-0.5,0.8-1.2,1.4-2,1.8s-1.6,0.6-2.5,0.6c-1.1,0-1.9-0.1-2.6-0.4c-0.7-0.3-1.2-0.7-1.6-1.2
		c-0.4-0.5-0.7-1.1-0.8-1.9s-0.2-1.6-0.2-2.5V5.5h4v8.2c0,1.2,0.2,2.1,0.6,2.7s1,0.9,2,0.9c1.1,0,1.9-0.3,2.4-1
		c0.5-0.6,0.7-1.7,0.7-3.2V5.5h4v14.5H69.2z"/>
</g>
<g>
	<path class="st1" d="M78.8,5.5v1.8h0.1C79.4,6.5,80,6,80.7,5.6s1.6-0.5,2.5-0.5c1.1,0,2.1,0.2,2.9,0.6s1.5,1,2,1.7
		c0.5,0.7,0.9,1.5,1.2,2.5c0.3,0.9,0.4,1.9,0.4,3c0,1-0.1,1.9-0.4,2.8c-0.3,0.9-0.7,1.7-1.2,2.4c-0.5,0.7-1.2,1.2-2,1.7
		c-0.8,0.4-1.7,0.6-2.8,0.6c-0.9,0-1.7-0.2-2.5-0.5c-0.8-0.4-1.4-0.9-1.9-1.6H79V25h-4V5.5H78.8z M84,16.9c0.4-0.3,0.8-0.6,1.1-1
		c0.3-0.4,0.5-0.9,0.6-1.5c0.1-0.6,0.2-1.1,0.2-1.7c0-0.6-0.1-1.1-0.2-1.7c-0.1-0.6-0.3-1.1-0.6-1.5c-0.3-0.4-0.6-0.8-1.1-1.1
		s-1-0.4-1.6-0.4c-0.7,0-1.2,0.1-1.6,0.4s-0.8,0.6-1.1,1c-0.3,0.4-0.5,0.9-0.6,1.5c-0.1,0.6-0.2,1.1-0.2,1.7c0,0.6,0.1,1.1,0.2,1.7
		c0.1,0.6,0.3,1,0.6,1.5c0.3,0.4,0.6,0.8,1.1,1c0.4,0.3,1,0.4,1.6,0.4C83,17.3,83.6,17.2,84,16.9z"/>
</g>
<g>
	<path class="st2" d="M7.4,8.1c-0.6,0-1.2,0.1-1.6,0.4C5.3,8.8,5,9.2,4.7,9.6c-0.3,0.5-0.5,1-0.6,1.5S4,12.2,4,12.8
		c0,0.5,0.1,1.1,0.2,1.6c0.1,0.5,0.3,1,0.5,1.5s0.6,0.8,1,1.1c0.4,0.3,1,0.4,1.6,0.4c1,0,1.7-0.3,2.2-0.8c0.5-0.5,0.8-1.2,1-2.1h3.8
		c-0.3,1.9-1,3.4-2.2,4.4c-1.2,1-2.8,1.5-4.7,1.5c-1.1,0-2.1-0.2-3-0.5c-0.9-0.4-1.7-0.9-2.3-1.5c-0.6-0.7-1.1-1.4-1.5-2.3
		C0.2,15,0,14,0,12.9c0-1.1,0.2-2.2,0.5-3.1c0.3-1,0.8-1.8,1.4-2.5C2.6,6.6,3.3,6,4.3,5.7c0.9-0.4,2-0.6,3.1-0.6
		c0.9,0,1.7,0.1,2.5,0.3c0.8,0.2,1.5,0.6,2.1,1c0.6,0.5,1.1,1,1.5,1.7s0.6,1.5,0.7,2.4h-3.9C10,8.9,9.1,8.1,7.4,8.1z"/>
	<path class="st2" d="M15.4,9.9c0.1-0.9,0.3-1.7,0.7-2.3C16.5,7,17,6.5,17.6,6.1c0.6-0.4,1.3-0.6,2.1-0.8c0.8-0.2,1.6-0.2,2.4-0.2
		c0.7,0,1.5,0.1,2.2,0.2s1.4,0.3,2,0.6c0.6,0.3,1.1,0.7,1.5,1.2s0.6,1.2,0.6,2.1v7.5c0,0.7,0,1.3,0.1,1.9c0.1,0.6,0.2,1,0.4,1.3h-4
		c-0.1-0.2-0.1-0.5-0.2-0.7c0-0.2-0.1-0.5-0.1-0.7c-0.6,0.7-1.4,1.1-2.2,1.4c-0.9,0.3-1.7,0.4-2.6,0.4c-0.7,0-1.3-0.1-1.9-0.3
		c-0.6-0.2-1.1-0.4-1.6-0.8c-0.4-0.4-0.8-0.8-1.1-1.3c-0.3-0.5-0.4-1.2-0.4-1.9c0-0.8,0.1-1.5,0.4-2c0.3-0.5,0.7-1,1.1-1.3
		c0.5-0.3,1-0.6,1.6-0.7s1.2-0.3,1.8-0.4c0.6-0.1,1.2-0.2,1.8-0.2c0.6-0.1,1.1-0.1,1.5-0.3c0.4-0.1,0.8-0.3,1.1-0.5
		c0.3-0.2,0.4-0.5,0.4-0.9c0-0.4-0.1-0.8-0.2-1c-0.1-0.3-0.3-0.4-0.6-0.6c-0.2-0.1-0.5-0.2-0.8-0.3c-0.3,0-0.6-0.1-1-0.1
		c-0.8,0-1.4,0.2-1.8,0.5c-0.4,0.3-0.7,0.9-0.8,1.7H15.4z M24.6,12.8c-0.2,0.1-0.4,0.3-0.6,0.3s-0.5,0.2-0.8,0.2
		c-0.3,0.1-0.6,0.1-0.9,0.1s-0.6,0.1-1,0.1c-0.3,0.1-0.6,0.1-0.9,0.2c-0.3,0.1-0.5,0.2-0.8,0.4c-0.2,0.2-0.4,0.4-0.5,0.6
		c-0.1,0.2-0.2,0.6-0.2,0.9c0,0.4,0.1,0.7,0.2,0.9c0.1,0.2,0.3,0.4,0.5,0.6c0.2,0.1,0.5,0.2,0.8,0.3c0.3,0.1,0.6,0.1,0.9,0.1
		c0.8,0,1.4-0.1,1.8-0.4c0.4-0.3,0.7-0.6,1-0.9c0.2-0.4,0.3-0.7,0.4-1.1c0-0.4,0.1-0.7,0.1-0.9V12.8z"/>
	<path class="st2" d="M34,16.3c0.2,0.3,0.4,0.6,0.7,0.8c0.3,0.2,0.6,0.3,1,0.4c0.4,0.1,0.7,0.1,1.1,0.1c0.3,0,0.6,0,0.9-0.1
		s0.6-0.2,0.8-0.3c0.3-0.1,0.5-0.3,0.6-0.6c0.2-0.2,0.3-0.5,0.3-0.9c0-0.6-0.4-1-1.2-1.3c-0.8-0.3-1.9-0.6-3.3-0.9
		c-0.6-0.1-1.1-0.3-1.7-0.5c-0.6-0.2-1-0.4-1.5-0.7c-0.4-0.3-0.8-0.7-1-1.1c-0.3-0.4-0.4-1-0.4-1.6c0-0.9,0.2-1.7,0.5-2.3
		c0.4-0.6,0.8-1.1,1.4-1.4c0.6-0.3,1.3-0.6,2-0.7c0.7-0.1,1.5-0.2,2.3-0.2c0.8,0,1.5,0.1,2.3,0.2c0.7,0.1,1.4,0.4,2,0.8
		c0.6,0.4,1.1,0.8,1.4,1.4C42.6,8,42.9,8.8,43,9.7h-3.8c-0.1-0.8-0.3-1.3-0.9-1.6c-0.5-0.3-1.1-0.4-1.8-0.4c-0.2,0-0.5,0-0.7,0
		c-0.3,0-0.5,0.1-0.7,0.2c-0.2,0.1-0.4,0.2-0.5,0.4c-0.1,0.2-0.2,0.4-0.2,0.7c0,0.4,0.1,0.6,0.4,0.9c0.3,0.2,0.6,0.4,1,0.5
		c0.4,0.1,0.9,0.3,1.4,0.4c0.5,0.1,1.1,0.2,1.7,0.4c0.6,0.1,1.1,0.3,1.7,0.5c0.6,0.2,1,0.4,1.5,0.7c0.4,0.3,0.8,0.7,1,1.1
		c0.3,0.5,0.4,1,0.4,1.7c0,1-0.2,1.8-0.6,2.4c-0.4,0.6-0.9,1.2-1.5,1.6c-0.6,0.4-1.3,0.7-2.1,0.8c-0.8,0.2-1.6,0.2-2.4,0.2
		c-0.8,0-1.7-0.1-2.5-0.3s-1.5-0.4-2.1-0.8c-0.6-0.4-1.1-0.9-1.5-1.6c-0.4-0.6-0.6-1.5-0.7-2.4h3.8C33.7,15.7,33.8,16,34,16.3z"/>
	<path class="st2" d="M48.7-0.1v7.5h0.1c0.5-0.8,1.1-1.5,1.9-1.8s1.5-0.6,2.3-0.6c1.1,0,1.9,0.1,2.6,0.4c0.7,0.3,1.2,0.7,1.6,1.2
		c0.4,0.5,0.7,1.1,0.8,1.9c0.2,0.7,0.2,1.6,0.2,2.4v8.9h-4v-8.2c0-1.2-0.2-2.1-0.6-2.7c-0.4-0.6-1-0.9-2-0.9c-1.1,0-1.9,0.3-2.4,1
		c-0.5,0.6-0.7,1.7-0.7,3.2v7.6h-4v-20H48.7z"/>
</g>
</svg>
