<svg xmlns="http://www.w3.org/2000/svg" width="65" height="51" viewBox="0 0 65 51">
    <g fill="none" fill-rule="evenodd">
        <path d="M-8-9h82v68H-8z"/>
        <path fill="#C4C7CC" fill-rule="nonzero" d="M11.997 50.658v-3.476a2.115 2.115 0 0 0-.567-1.593 1.93 1.93 0 0 0-1.519-.609 2.027 2.027 0 0 0-1.864.985 1.928 1.928 0 0 0-1.753-.985 1.731 1.731 0 0 0-1.553.823v-.684H3.587v5.539h1.165V47.61c-.05-.383.066-.77.317-1.054.251-.285.61-.438.981-.417.766 0 1.154.521 1.154 1.46v3.082h1.165v-3.07a1.341 1.341 0 0 1 .32-1.053c.25-.284.608-.438.978-.419.788 0 1.165.521 1.165 1.46v3.082l1.165-.023zm17.235-5.539h-1.897v-1.68H26.17v1.68h-1.054v1.101h1.076v2.55c0 1.285.478 2.05 1.842 2.05.51.002 1.01-.147 1.442-.429l-.332-1.031c-.31.193-.661.3-1.021.313-.555 0-.766-.37-.766-.927V46.22h1.887l-.012-1.1zm9.841-.139a1.551 1.551 0 0 0-1.397.811v-.672h-1.143v5.539h1.154v-3.105c0-.916.377-1.426 1.11-1.426a1.81 1.81 0 0 1 .72.14l.355-1.16a2.375 2.375 0 0 0-.82-.15l.021.023zm-14.878.58a3.836 3.836 0 0 0-2.163-.58c-1.343 0-2.219.672-2.219 1.773 0 .904.643 1.46 1.83 1.634l.555.08c.633.094.932.267.932.58 0 .429-.421.672-1.209.672a2.742 2.742 0 0 1-1.764-.58l-.555.94c.672.49 1.477.741 2.297.718 1.53 0 2.418-.753 2.418-1.808 0-1.054-.699-1.483-1.852-1.657l-.555-.08c-.5-.07-.899-.175-.899-.545 0-.371.377-.65 1.01-.65.584.008 1.157.172 1.664.476l.51-.973zm30.905-.58a1.551 1.551 0 0 0-1.398.811v-.672h-1.143v5.539h1.154v-3.105c0-.916.377-1.426 1.11-1.426a1.81 1.81 0 0 1 .72.14l.356-1.16a2.375 2.375 0 0 0-.821-.15l.022.023zm-14.867 2.897c-.028.787.263 1.55.802 2.101.538.551 1.274.84 2.027.796a2.698 2.698 0 0 0 1.908-.66l-.554-.974a2.267 2.267 0 0 1-1.387.498c-.885-.075-1.566-.846-1.566-1.773 0-.926.681-1.698 1.566-1.772.501.005.988.18 1.387.498l.554-.973a2.698 2.698 0 0 0-1.908-.66 2.616 2.616 0 0 0-2.027.795 2.865 2.865 0 0 0-.802 2.1v.024zm10.806 0v-2.758h-1.154v.672a1.981 1.981 0 0 0-1.664-.81c-1.532 0-2.774 1.296-2.774 2.896 0 1.6 1.242 2.897 2.774 2.897a1.981 1.981 0 0 0 1.664-.811v.672h1.154v-2.758zm-4.294 0c.052-.91.79-1.609 1.661-1.575.871.035 1.557.79 1.543 1.7-.014.911-.723 1.643-1.595 1.648a1.56 1.56 0 0 1-1.176-.52 1.707 1.707 0 0 1-.433-1.253zM32.822 44.98c-1.532.023-2.757 1.338-2.735 2.937.021 1.6 1.28 2.879 2.812 2.857a3.134 3.134 0 0 0 2.203-.754l-.555-.892a2.46 2.46 0 0 1-1.542.58c-.793.07-1.497-.53-1.587-1.356h3.939v-.463c0-1.738-1.032-2.897-2.519-2.897l-.016-.012zm0 1.078c.348-.008.686.13.937.381.252.252.398.599.405.963H31.39c.042-.774.668-1.37 1.41-1.344h.022zm28.907 1.83v-4.993h-1.11v2.896a1.981 1.981 0 0 0-1.664-.81c-1.532 0-2.773 1.296-2.773 2.896 0 1.6 1.241 2.897 2.773 2.897a1.981 1.981 0 0 0 1.664-.811v.672h1.11v-2.746zm1.925 1.964a.534.534 0 0 1 .5.33.56.56 0 0 1-.117.603.553.553 0 0 1-.383.162.554.554 0 0 1-.5-.336.567.567 0 0 1 0-.428.553.553 0 0 1 .288-.29.534.534 0 0 1 .228-.04h-.016zm0 .98a.38.38 0 0 0 .288-.128.443.443 0 0 0 0-.58.385.385 0 0 0-.45-.093.404.404 0 0 0-.132.094.443.443 0 0 0 0 .58.41.41 0 0 0 .31.127h-.016zm.033-.69a.215.215 0 0 1 .144.046c.035.03.053.076.05.122a.142.142 0 0 1-.039.104.19.19 0 0 1-.116.053l.16.19h-.127l-.15-.19h-.05v.19h-.105v-.51l.233-.005zm-.122.099v.139h.122a.112.112 0 0 0 .067 0 .06.06 0 0 0 0-.053.06.06 0 0 0 0-.052.112.112 0 0 0-.067 0l-.122-.034zm-6.102-2.352c.051-.91.789-1.61 1.66-1.575.872.034 1.557.79 1.543 1.7-.014.91-.722 1.643-1.594 1.647a1.56 1.56 0 0 1-1.176-.519 1.707 1.707 0 0 1-.433-1.253zm-38.96 0v-2.77H17.35v.672a1.981 1.981 0 0 0-1.664-.81c-1.532 0-2.774 1.296-2.774 2.896 0 1.6 1.242 2.897 2.774 2.897a1.981 1.981 0 0 0 1.664-.811v.672h1.154v-2.746zm-4.293 0c.051-.91.79-1.61 1.66-1.575.872.034 1.558.79 1.544 1.7-.015.91-.723 1.643-1.595 1.647a1.56 1.56 0 0 1-1.183-.514 1.707 1.707 0 0 1-.437-1.258h.011z"/>
        <g fill-rule="nonzero">
            <path fill="#DBDDE1" d="M23.74 4.47h17.518v32.61H23.74z"/>
            <path fill="#C4C7CC" d="M24.852 20.778c-.006-6.365 2.813-12.379 7.647-16.309C24.29-2.213 12.503-1.24 5.42 6.705c-7.083 7.945-7.083 20.195 0 28.14 7.083 7.944 18.87 8.918 27.079 2.235-4.832-3.928-7.652-9.94-7.647-16.302z"/>
            <path fill="#E4E6E9" d="M64.892 20.778c0 7.94-4.377 15.183-11.271 18.653-6.895 3.47-15.096 2.557-21.122-2.35 4.83-3.932 7.65-9.943 7.65-16.306 0-6.363-2.82-12.374-7.65-16.306C38.525-.438 46.726-1.35 53.62 2.12c6.894 3.47 11.271 10.713 11.271 18.653v.006z"/>
            <path fill="#F79E1B" d="M62.98 33.624v-.668h.26v-.138h-.661v.138h.284v.668h.116zm1.284 0v-.806h-.2l-.234.576-.233-.576h-.178v.806h.144v-.605l.217.524h.15l.217-.524v.61l.117-.005z"/>
        </g>
    </g>
</svg>
