<svg xmlns="http://www.w3.org/2000/svg" width="65" height="62" fill="none" viewBox="0 0 65 62">
    <mask id="a" width="80" height="80" x="-5" y="-7" maskUnits="userSpaceOnUse">
        <path fill="#C4C4C4" d="M-5-7h80v80H-5z"/>
    </mask>
    <g fill="#FF9000" mask="url(#a)">
        <path d="M64.882 50.973a5.492 5.492 0 0 0-2.43-3.532 5.494 5.494 0 0 0-4.223-.736l-6.775 1.551v-2.77c1.359-1.28 2.774-2.95 3.78-4.478a26.257 26.257 0 0 0 3.712-8.74c.83-3.714.848-7.644.05-11.369a1.27 1.27 0 1 0-2.483.532 24.211 24.211 0 0 1-.046 10.282 23.726 23.726 0 0 1-3.353 7.898 22.593 22.593 0 0 1-1.66 2.19V27.727a1.27 1.27 0 0 0-1.27-1.27H40.143V12.903c0-.7-.566-1.268-1.265-1.27l-11.312-.038h-.004a1.267 1.267 0 0 0-1.27 1.27v7.052H16.247c-.7 0-1.27.568-1.27 1.27v12.571H12.15v-1.724c0-.701-.568-1.27-1.27-1.27H9.577c-.222-1.22-.35-2.46-.38-3.697a23.847 23.847 0 0 1 2.215-10.687 1.27 1.27 0 0 0-2.301-1.071 26.397 26.397 0 0 0-2.453 11.82c.03 1.216.146 2.433.343 3.636H1.27A1.27 1.27 0 0 0 0 32.034v22.314c0 .701.568 1.27 1.27 1.27h9.61a1.27 1.27 0 0 0 1.269-1.27v-1.207h4.775L36.27 60.73a15.3 15.3 0 0 0 9.396.587l15.162-3.854a5.523 5.523 0 0 0 4.055-6.489zM48.916 28.998v19.84l-3.394.776a12.888 12.888 0 0 1-5.362.077l-.018-.003v-1.925c.968-1.445 1.289-3.276.782-4.947a5.703 5.703 0 0 0-.78-1.607l-.002-.004V28.997h8.774zM28.83 14.138l8.773.028v25.022L32.7 37.16l-3.87-1.602v-21.42zm-11.313 8.317h8.773v12.05l-1.575-.652a1.267 1.267 0 0 0-.485-.096h-6.713V22.455zM9.61 53.079H2.54V33.302H9.61V53.08zm50.592 1.923L45.04 58.855c-2.618.666-5.33.495-7.844-.49L17.628 50.69a1.268 1.268 0 0 0-.463-.087h-5.016V36.296h11.828l8.214 3.4 4.495 1.86c1.59.66 2.352 2.526 1.7 4.114-.131.32-.294.622-.509.892a3.273 3.273 0 0 1-3.327 1.148l-.03-.007a3.11 3.11 0 0 1-.219-.064l-8.542-3.283-.106-.041a1.27 1.27 0 1 0-.911 2.37s4.816 1.852 8.489 3.268c.074.029.147.055.221.08l2.82 1.085c.853.328 1.701.654 2.589.88 1.506.385 3.07.54 4.623.455a15.48 15.48 0 0 0 2.605-.364l4.38-1.002c.004 0 .008-.003.013-.004l8.314-1.903a2.972 2.972 0 0 1 2.285.398 2.972 2.972 0 0 1 1.316 1.912 2.989 2.989 0 0 1-2.195 3.512zM16.235 9.03c.303 0 .608-.109.85-.328a24.133 24.133 0 0 1 7.825-4.72 24.182 24.182 0 0 1 9.802-1.392c2.377.156 4.706.664 6.922 1.508a1.27 1.27 0 1 0 .903-2.373A26.345 26.345 0 0 0 34.88.057c-3.67-.241-7.42.291-10.84 1.54a26.692 26.692 0 0 0-8.655 5.22 1.27 1.27 0 0 0 .85 2.213z"/>
        <path d="M45.055 18.09a1.269 1.269 0 0 0 1.791-.125L57.291 5.94a1.27 1.27 0 1 0-1.916-1.665L44.93 16.299c-.46.529-.404 1.33.125 1.79zM54.415 12.662a3.19 3.19 0 0 0-3.188 3.187 3.19 3.19 0 0 0 3.188 3.188 3.191 3.191 0 0 0 3.187-3.188 3.19 3.19 0 0 0-3.187-3.187zm0 3.835a.649.649 0 1 1 0-1.297.649.649 0 0 1 0 1.297zM47.365 9.836a3.19 3.19 0 0 0 3.187-3.187 3.19 3.19 0 0 0-3.187-3.187 3.19 3.19 0 0 0-3.187 3.187 3.19 3.19 0 0 0 3.187 3.187zm0-3.836a.65.65 0 1 1-.002 1.299A.65.65 0 0 1 47.365 6zM11.72 12.013c.204.488.704.81 1.235.782a1.282 1.282 0 0 0 1.145-.88 1.28 1.28 0 0 0-.435-1.395 1.283 1.283 0 0 0-1.477-.049 1.28 1.28 0 0 0-.467 1.542z"/>
    </g>
</svg>
