<?xml version="1.0" encoding="UTF-8"?>
<svg width="16px" height="16px" viewBox="0 0 16 16" version="1.1" xmlns="http://www.w3.org/2000/svg" xmlns:xlink="http://www.w3.org/1999/xlink">
    <!-- Generator: Sketch 45.2 (43514) - http://www.bohemiancoding.com/sketch -->
    <title>Artboard 5</title>
    <desc>Created with Sketch.</desc>
    <defs></defs>
    <g id="Page-1" stroke="none" stroke-width="1" fill="none" fill-rule="evenodd">
        <g id="Artboard-5" fill-rule="nonzero" fill="#f69434">
            <path d="M2.52264203,0.0145747743 C2.41199736,-0.00761397504 2.27922377,-0.00761397504 2.19070804,0.0367635236 C0.995745672,0.502727259 0.243361961,2.21126096 0.0663304993,3.38726467 C-0.486892818,7.20372955 2.52264203,10.5098532 5.28875861,12.6843506 C7.74507014,14.6147718 12.4585328,17.787763 15.2467783,14.7257156 C15.6008412,14.3485068 16.021291,13.7937881 15.999162,13.2390694 C15.9327752,12.3071419 15.0697469,11.6414794 14.4058789,11.1311382 C13.8969134,10.7539294 12.8347247,9.71105823 12.1708567,9.73324698 C11.5733755,9.75543573 11.1971836,10.3767207 10.8209918,10.7539294 L10.1571238,11.4195919 C10.0464791,11.5305357 8.63022745,10.5986082 8.47532492,10.4876645 C7.89997267,10.1104557 7.34674935,9.68886948 6.85991284,9.22290574 C6.37307632,8.75694201 5.93049766,8.24660077 5.55430581,7.71407079 C5.44366114,7.55874954 4.5363749,6.20523584 4.62489063,6.09429209 C4.62489063,6.09429209 5.39940328,5.25111961 5.6206926,4.91828837 C6.08540019,4.2082484 6.43946311,3.65352966 5.90836873,2.81035719 C5.70920834,2.4997147 5.46579008,2.25563846 5.20024288,1.98937346 C4.7355353,1.54559848 4.27082771,1.07963474 3.73973333,0.702426003 C3.4520572,0.48053851 2.96522068,0.0811410222 2.52264203,0.0145747743 Z" id="Shape" transform="translate(8.000000, 8.000000) rotate(-360.000000) translate(-8.000000, -8.000000) "></path>
        </g>
    </g>
</svg>