<svg xmlns="http://www.w3.org/2000/svg" width="98" height="71" fill="none" viewBox="0 0 98 71">
    <mask id="a" width="142" height="122" x="-22" y="-33" maskUnits="userSpaceOnUse">
        <path fill="#C4C4C4" d="M-21.136-32.207h140.904V88.568H-21.136z"/>
    </mask>
    <g mask="url(#a)">
        <path fill="#fff" stroke="#FF9000" stroke-width="2" d="M7.615 15.848a4.026 4.026 0 0 1 4.026-4.026h72.545a4.026 4.026 0 0 1 4.026 4.026v46.603a4.026 4.026 0 0 1-4.026 4.026H11.641a4.026 4.026 0 0 1-4.026-4.026V15.848z"/>
        <path fill="#fff" fill-rule="evenodd" d="M11.235 15.85c0-.557.45-1.007 1.007-1.007h71.344c.556 0 1.007.45 1.007 1.006v47.406c0 .556-.45 1.007-1.007 1.007H12.242c-.556 0-1.007-.45-1.007-1.007V15.85z" clip-rule="evenodd"/>
        <path fill="#FF9000" fill-rule="evenodd" d="M83.932 15.428H11.896a.66.66 0 0 0-.66.659v48.101a.66.66 0 0 0 .66.66h72.036a.66.66 0 0 0 .66-.66V16.087a.66.66 0 0 0-.66-.659zM83.27 63.53H12.556V16.746H83.27v46.783z" clip-rule="evenodd"/>
        <path fill="#FF9000" d="M38.927 39.724c-.9-.9-1.911-1.648-3.003-2.232-.728-.389-.885-1.5-.354-2.132a7.31 7.31 0 0 0 1.718-4.716c0-4.05-3.294-7.345-7.344-7.345-4.05 0-7.344 3.295-7.344 7.345a7.31 7.31 0 0 0 1.719 4.716c.53.632.373 1.743-.355 2.132a12.74 12.74 0 0 0-3.003 2.232 12.61 12.61 0 0 0-3.683 7.991c-.041.547.407.992.955.992s.988-.446 1.038-.992c.502-5.447 5.097-9.727 10.673-9.727s10.171 4.28 10.673 9.727c.05.546.49.992 1.038.992s.997-.445.955-.992a12.61 12.61 0 0 0-3.683-7.991zm-8.983-3.72a5.365 5.365 0 0 1-5.36-5.36 5.365 5.365 0 0 1 5.36-5.36 5.365 5.365 0 0 1 5.36 5.36 5.365 5.365 0 0 1-5.36 5.36z"/>
        <path fill="#fff" fill-rule="evenodd" d="M0 64.189c0-.728.59-1.318 1.318-1.318H95.17c.728 0 1.318.59 1.318 1.318a6.59 6.59 0 0 1-6.589 6.589H6.589A6.59 6.59 0 0 1 0 64.188z" clip-rule="evenodd"/>
        <path fill="#FF9000" fill-rule="evenodd" d="M95.166 62.87H1.323C.592 62.87 0 63.46 0 64.19v2.635a3.96 3.96 0 0 0 3.965 3.954h88.558a3.96 3.96 0 0 0 3.965-3.954V64.19a1.32 1.32 0 0 0-1.322-1.318zM1.323 66.825V64.19h93.845v2.635a2.64 2.64 0 0 1-2.644 2.636H3.966a2.64 2.64 0 0 1-2.644-2.636z" clip-rule="evenodd"/>
        <path fill="#FF9000" d="M51.577 45.077h-.035a1.264 1.264 0 1 0 0 2.528h.035a1.264 1.264 0 1 0 0-2.528zM57.492 45.077h-.035a1.264 1.264 0 1 0 0 2.528h.035a1.264 1.264 0 0 0 0-2.528z"/>
        <path fill="#FF9000" fill-rule="evenodd" d="M86.104.66a.66.66 0 0 0-1.321 0v5.268a.66.66 0 0 0 1.321 0V.661zM97.341 15.814a.659.659 0 0 0 0-1.318h-5.29a.659.659 0 0 0 0 1.318h5.29zM95.87 5.351a.658.658 0 0 0 0-.932.662.662 0 0 0-.934 0l-3.738 3.728a.658.658 0 0 0 0 .932.662.662 0 0 0 .934 0l3.739-3.728zM50.94 22.614h19.826a.66.66 0 1 1 0 1.318H50.939a.66.66 0 1 1 0-1.318zm25.113 3.295H50.939a.66.66 0 1 0 0 1.318h25.114a.66.66 0 1 0 0-1.318zm0 11.908H50.939a.66.66 0 1 0 0 1.318h25.114a.66.66 0 1 0 0-1.318zm-25.114 3.63h25.114a.66.66 0 1 1 0 1.318H50.939a.66.66 0 1 1 0-1.318zm7.27-7.79h-7.27a.66.66 0 1 0 0 1.318h7.27a.66.66 0 1 0 0-1.318zm12.557-4.006H50.939a.66.66 0 1 0 0 1.318h19.827a.66.66 0 1 0 0-1.318zm-52.36 28.705H29.16a.66.66 0 1 1 0 1.318H18.407a.66.66 0 1 1 0-1.318zm15.2-3.294h-15.2a.66.66 0 1 0 0 1.317h15.2a.66.66 0 1 0 0-1.317z" clip-rule="evenodd"/>
    </g>
</svg>
