<svg xmlns="http://www.w3.org/2000/svg" xmlns:xlink="http://www.w3.org/1999/xlink" width="408" height="236" viewBox="0 0 408 236">
    <defs>
        <rect id="a" width="200" height="115" rx="15"/>
        <circle id="b" cx="30" cy="80" r="15"/>
        <circle id="c" cx="50" cy="80" r="15"/>
        <rect id="d" width="124" height="236" rx="15"/>
        <path id="e" d="M7 27h110v174H7z"/>
        <path id="f" d="M28 72h68c5.523 0 10 4.477 10 10v43c0 5.523-4.477 10-10 10H48.293l-15.69 10.154V135H28c-5.523 0-10-4.477-10-10V82c0-5.523 4.477-10 10-10z"/>
        <circle id="g" cx="64" cy="218" r="11"/>
    </defs>
    <g fill="none" fill-rule="evenodd">
        <path fill="#DEE1E2" fill-rule="nonzero" d="M227.5 225H154a1 1 0 1 0 0 2h83a1 1 0 1 0 0-2h-9.5zM84 216a1 1 0 1 1 0-2h74a1 1 0 1 1 0 2H84zm87.47 0c-.812 0-1.47-.448-1.47-1s.658-1 1.47-1h213.06c.812 0 1.47.448 1.47 1s-.658 1-1.47 1H171.47zM74 214a1 1 0 1 1 0 2H64a1 1 0 1 1 0-2h10zm197 13a1 1 0 1 1 0-2h74a1 1 0 1 1 0 2h-74zm93-2a1 1 0 1 1 0 2h-10a1 1 0 1 1 0-2h10zM21 206a1 1 0 1 1 0-2h228.001c.553 0 1 .655 1 1s-.447 1-1 1H21zm-10-2a1 1 0 1 1 0 2H1a1 1 0 1 1 0-2h10zm352.355-10c-.196 0-.355-.448-.355-1s.16-1 .355-1h26.29c.196 0 .355.448.355 1s-.16 1-.355 1h-26.29zM407 192a1 1 0 1 1 0 2h-10a1 1 0 1 1 0-2h10zM68.5 42c-.828 0-1.5.448-1.5 1s.672 1 1.5 1h111c.828 0 1.5-.448 1.5-1s-.672-1-1.5-1h-111zM58 44a1 1 0 0 0 0-2H48a1 1 0 0 0 0 2h10zm70-13a1 1 0 1 0 0 2h74a1 1 0 1 0 0-2h-74zm93 2a1 1 0 1 0 0-2h-10a1 1 0 1 0 0 2h10z"/>
        <g transform="translate(54 70)">
            <use fill="#FFF" xlink:href="#a"/>
            <rect width="198" height="113" x="1" y="1" stroke="#DEE1E2" stroke-width="2" rx="15"/>
        </g>
        <g fill="#DEE1E2" transform="translate(131 140)">
            <rect width="76" height="4" rx="2"/>
            <rect width="76" height="4" y="18" rx="2"/>
            <rect width="27" height="4" x="80" rx="2"/>
            <rect width="27" height="4" y="9" rx="2"/>
            <rect width="76" height="4" x="31" y="9" rx="2"/>
        </g>
        <path stroke="#DEE1E2" stroke-linecap="square" stroke-width="2" d="M55.366 90h198.28M55.366 121h198.28"/>
        <g transform="translate(54 70)">
            <use fill="#FFF" xlink:href="#b"/>
            <circle cx="30" cy="80" r="13" stroke="#003485" stroke-width="4"/>
        </g>
        <g transform="translate(54 70)">
            <use fill="#FFF" xlink:href="#c"/>
            <circle cx="50" cy="80" r="13" stroke="#FF9000" stroke-width="4"/>
        </g>
        <g transform="translate(231)">
            <use fill="#FFF" xlink:href="#d"/>
            <rect width="122" height="234" x="1" y="1" stroke="#DEE1E2" stroke-width="2" rx="15"/>
            <use fill="#FFF" xlink:href="#e"/>
            <path stroke="#DEE1E2" stroke-width="2" d="M8 28h108v172H8z"/>
            <rect width="25" height="4" x="47" y="13" fill="#DEE1E2" rx="2"/>
            <rect width="4" height="4" x="74" y="13" fill="#DEE1E2" rx="2"/>
            <use fill="#FFF" xlink:href="#f"/>
            <path stroke="#DEE1E2" stroke-width="2" d="M33.604 143.316L47.998 134H96a9 9 0 0 0 9-9V82a9 9 0 0 0-9-9H28a9 9 0 0 0-9 9v43a9 9 0 0 0 9 9h5.604v9.316z"/>
            <rect width="42" height="4" x="32" y="85" fill="#FF9000" rx="2"/>
            <rect width="15" height="4" x="76" y="85" fill="#FF9000" rx="2"/>
            <rect width="42" height="4" x="49" y="93" fill="#FF9000" rx="2"/>
            <rect width="15" height="4" x="32" y="93" fill="#FF9000" rx="2"/>
            <rect width="42" height="4" x="32" y="101" fill="#FF9000" rx="2"/>
            <rect width="42" height="4" x="32" y="117" fill="#FF9000" rx="2"/>
            <rect width="15" height="4" x="76" y="101" fill="#FF9000" rx="2"/>
            <rect width="42" height="4" x="49" y="109" fill="#FF9000" rx="2"/>
            <rect width="15" height="4" x="32" y="109" fill="#FF9000" rx="2"/>
            <g>
                <use fill="#FFF" xlink:href="#g"/>
                <circle cx="64" cy="218" r="10" stroke="#DEE1E2" stroke-width="2"/>
            </g>
            <text fill="#FF9000" font-family="HelveticaNeue-Bold, Helvetica Neue" font-size="16" font-weight="bold" letter-spacing="-.571">
                <tspan x="68" y="58">u</tspan> <tspan x="76.917" y="58" letter-spacing="-.508">p</tspan>
            </text>
            <text fill="#003485" font-family="HelveticaNeue-Bold, Helvetica Neue" font-size="16" font-weight="bold" letter-spacing="-.571">
                <tspan x="34" y="58">cash</tspan>
            </text>
        </g>
    </g>
</svg>
