<svg xmlns="http://www.w3.org/2000/svg" xmlns:xlink="http://www.w3.org/1999/xlink" width="379" height="228" viewBox="0 0 379 228">
    <defs>
        <rect id="a" width="321" height="217" x="35" rx="14"/>
        <path id="b" d="M60 25h272v170H60z"/>
        <rect id="c" width="76" height="51" x="78" y="64" rx="8"/>
        <rect id="d" width="76" height="51" x="161" y="64" rx="8"/>
        <rect id="e" width="76" height="51" x="244" y="64" rx="8"/>
        <rect id="f" width="76" height="51" x="161" y="127" rx="8"/>
        <rect id="g" width="76" height="51" x="78" y="127" rx="8"/>
        <rect id="h" width="76" height="51" x="244" y="127" rx="8"/>
    </defs>
    <g fill="none" fill-rule="evenodd">
        <path fill="#DEE1E2" d="M21 210h74a1 1 0 1 0 0-2H21a1 1 0 1 0 0 2zM11 208H1a1 1 0 1 0 0 2h10a1 1 0 1 0 0-2zM304 143h74a1 1 0 1 0 0-2h-74a1 1 0 1 0 0 2zM365 126h-10a1 1 0 1 0 0 2h10a1 1 0 1 0 0-2z"/>
        <use fill="#FFF" xlink:href="#a"/>
        <rect width="319" height="215" x="36" y="1" stroke="#DEE1E2" stroke-width="2" rx="14"/>
        <path fill="#DEE1E2" d="M298 226h-10a1 1 0 1 0 0 2h10a1 1 0 1 0 0-2zM130.974 228h146.052c1.09 0 1.974-.448 1.974-1s-.884-1-1.974-1H130.974c-1.09 0-1.974.448-1.974 1s.884 1 1.974 1zM118 226h-10a1 1 0 1 0 0 2h10a1 1 0 1 0 0-2z"/>
        <use fill="#FFF" xlink:href="#b"/>
        <path stroke="#DEE1E2" stroke-width="2" d="M61 26h270v168H61z"/>
        <use fill="#FFF" xlink:href="#c"/>
        <rect width="74" height="49" x="79" y="65" stroke="#003485" stroke-width="2" rx="8"/>
        <use fill="#FFF" xlink:href="#d"/>
        <rect width="74" height="49" x="162" y="65" stroke="#DEE1E2" stroke-width="2" rx="8"/>
        <text fill="#FF9000" font-family="HelveticaNeue-Bold, Helvetica Neue" font-size="16" font-weight="bold" letter-spacing="-.571">
            <tspan x="123" y="95">u</tspan> <tspan x="131.917" y="95" letter-spacing="-.508">p</tspan>
        </text>
        <text fill="#003485" font-family="HelveticaNeue-Bold, Helvetica Neue" font-size="16" font-weight="bold" letter-spacing="-.571">
            <tspan x="89" y="95">cash</tspan>
        </text>
        <rect width="52" height="4" x="173" y="84" fill="#DEE1E2" rx="2"/>
        <rect width="32" height="4" x="183" y="92" fill="#DEE1E2" rx="2"/>
        <rect width="100" height="4" x="79" y="43" fill="#DEE1E2" rx="2"/>
        <rect width="15" height="4" x="303" y="43" fill="#DEE1E2" rx="2"/>
        <rect width="15" height="4" x="284" y="43" fill="#DEE1E2" rx="2"/>
        <rect width="32" height="4" x="185" y="43" fill="#DEE1E2" rx="2"/>
        <use fill="#FFF" xlink:href="#e"/>
        <rect width="74" height="49" x="245" y="65" stroke="#DEE1E2" stroke-width="2" rx="8"/>
        <rect width="52" height="4" x="256" y="84" fill="#DEE1E2" rx="2"/>
        <rect width="32" height="4" x="266" y="92" fill="#DEE1E2" rx="2"/>
        <use fill="#FFF" xlink:href="#f"/>
        <rect width="74" height="49" x="162" y="128" stroke="#DEE1E2" stroke-width="2" rx="8"/>
        <rect width="52" height="4" x="173" y="147" fill="#DEE1E2" rx="2"/>
        <rect width="32" height="4" x="183" y="155" fill="#DEE1E2" rx="2"/>
        <g>
            <use fill="#FFF" xlink:href="#g"/>
            <rect width="74" height="49" x="79" y="128" stroke="#DEE1E2" stroke-width="2" rx="8"/>
        </g>
        <rect width="52" height="4" x="90" y="147" fill="#DEE1E2" rx="2"/>
        <rect width="32" height="4" x="100" y="155" fill="#DEE1E2" rx="2"/>
        <g>
            <use fill="#FFF" xlink:href="#h"/>
            <rect width="74" height="49" x="245" y="128" stroke="#DEE1E2" stroke-width="2" rx="8"/>
        </g>
        <rect width="52" height="4" x="256" y="147" fill="#DEE1E2" rx="2"/>
        <rect width="32" height="4" x="266" y="155" fill="#DEE1E2" rx="2"/>
    </g>
</svg>
