<svg xmlns="http://www.w3.org/2000/svg" width="126" height="46" viewBox="0 0 126 46">
    <g fill="none" fill-rule="evenodd">
        <path fill="#C4C7CC" d="M70.531 11l-1.797 16.766c-.28 2.645-.583 4.502-.906 5.57-.323 1.068-.948 1.83-1.875 2.289-.927.458-2.453.688-4.578.688h-3.844v-3.266h.39c.865 0 1.4-.07 1.602-.211.204-.14.305-.357.305-.648 0-.021-.125-.735-.375-2.141L56 11h5.719l2.078 15.75 1-15.75h5.734zm20.603 19.39c0 1.886-.245 3.24-.735 4.063-.49.823-1.231 1.339-2.226 1.547-.995.208-2.58.313-4.758.313h-7.61V11h12.891v4.39H82.4v4.282h1.016c2.031 0 3.568.12 4.61.36 1.041.239 1.82.767 2.335 1.585.516.818.774 2.102.774 3.852v4.922zm-6.594-.765v-3.656c0-1.063-.107-1.709-.32-1.938-.214-.229-.82-.36-1.82-.39v8.312c.833 0 1.398-.107 1.695-.32.297-.214.445-.883.445-2.008zM97.424 11h6.594l.03 10.688c1.24-.032 1.881-.72 1.923-2.063l.125-4.938c.041-1.822.396-3.052 1.062-3.687h6.078c-.593.615-.885 1.885-.875 3.813l.032 4.343c.02 2.625-1.459 4.12-4.438 4.485 2.98.364 4.458 1.88 4.438 4.547l-.032 4.03c-.01 1.917.282 3.282.875 4.094h-6.078c-.708-.635-1.062-1.864-1.062-3.687v-4.938c0-.625-.19-1.127-.57-1.507-.38-.38-.873-.576-1.477-.586l-.031 10.718h-6.594V11zm27.696.016v25.297h-6.578V11.015h6.578z"/>
        <path fill="#DEDFE2" d="M0 21.982C.253 10.165 9.461.593 20.995.01v21.972H0zM22.995 0c11.64.466 20.97 10.087 21.224 21.982H22.995V0zm21.18 24.001c-.748 11.422-9.874 20.51-21.18 20.964v-20.82L44.175 24z"/>
        <path fill="#C4C7CC" d="M20.911 45.272C9.751 44.68.781 35.666.021 24.36h20.89v20.913z"/>
    </g>
</svg>
