<svg xmlns="http://www.w3.org/2000/svg" xmlns:xlink="http://www.w3.org/1999/xlink" width="104" height="33" viewBox="0 0 104 33">
    <defs>
        <path id="a" d="M53.754 22.373c-.059-4.563 4.161-7.11 7.34-8.624 3.266-1.553 4.363-2.55 4.351-3.938-.025-2.127-2.606-3.065-5.02-3.101-4.215-.064-6.664 1.111-8.612 2L50.295 1.77C52.249.889 55.867.12 59.62.087c8.808 0 14.57 4.25 14.602 10.838.034 8.362-11.834 8.825-11.753 12.563.028 1.133 1.134 2.343 3.559 2.65 1.2.156 4.513.274 8.268-1.416l1.475 6.717c-2.02.718-4.616 1.407-7.848 1.407-8.29 0-14.122-4.307-14.169-10.473zm36.182 9.894c-1.608 0-2.964-.917-3.569-2.324L73.785.58h8.802l1.751 4.73h10.756L96.11.581h7.757l-6.769 31.686h-7.162zm1.231-8.56L86.751 11.81h6.956l-2.54 11.898zm-48.084 8.56L36.145.581h8.387l6.935 31.686h-8.384zm-12.408 0L21.945 10.7l-3.53 18.338c-.415 2.047-2.051 3.23-3.868 3.23H.275l-.2-.92c2.93-.622 6.26-1.624 8.276-2.697 1.234-.655 1.586-1.227 1.991-2.784L17.031.581h8.863l13.59 31.686h-8.809z"/>
    </defs>
    <use fill="#C4C7CC" fill-rule="evenodd" transform="matrix(1 0 0 -1 0 33)" xlink:href="#a"/>
</svg>
