<svg xmlns="http://www.w3.org/2000/svg" xmlns:xlink="http://www.w3.org/1999/xlink" width="25" height="25" viewBox="0 0 25 25">
    <defs>
        <path id="a" d="M0 25V0h25v25z"/>
    </defs>
    <g fill="none" fill-rule="evenodd">
        <g>
            <mask id="b" fill="#fff">
                <use xlink:href="#a"/>
            </mask>
            <path fill="#5189C2" d="M3.369 0A3.369 3.369 0 0 0 0 3.369V21.63A3.369 3.369 0 0 0 3.369 25H21.63A3.369 3.369 0 0 0 25 21.631V3.37A3.369 3.369 0 0 0 21.631 0H3.37z" mask="url(#b)"/>
        </g>
        <path fill="#FFF" fill-rule="nonzero" d="M19.915 17.128a1.075 1.075 0 0 0-.054-.103c-.278-.493-.808-1.098-1.591-1.815l-.017-.016-.008-.008-.008-.009h-.009c-.355-.334-.58-.558-.674-.673-.173-.22-.212-.44-.117-.666.066-.17.316-.528.75-1.075.227-.29.408-.523.54-.698.962-1.26 1.378-2.065 1.25-2.415l-.05-.082c-.032-.05-.119-.094-.257-.136a1.33 1.33 0 0 0-.534-.02l-2.399.016a.316.316 0 0 0-.166.004l-.109.025-.041.02-.034.025a.368.368 0 0 0-.091.087.562.562 0 0 0-.083.143 13.328 13.328 0 0 1-.892 1.848c-.205.34-.394.634-.566.883-.173.25-.317.433-.433.55a3.007 3.007 0 0 1-.317.284c-.095.071-.167.101-.217.09a6.178 6.178 0 0 1-.141-.033.55.55 0 0 1-.188-.201.892.892 0 0 1-.096-.32 3.483 3.483 0 0 1-.029-.333 6.851 6.851 0 0 1 .005-.394c.005-.17.008-.285.008-.345 0-.208.004-.434.012-.678l.021-.579c.006-.142.008-.293.008-.452 0-.158-.01-.283-.029-.373a1.266 1.266 0 0 0-.087-.263.444.444 0 0 0-.17-.197.97.97 0 0 0-.28-.111A5.62 5.62 0 0 0 11.697 9c-1.032-.01-1.696.055-1.99.197a1.12 1.12 0 0 0-.317.247c-.1.12-.114.186-.042.197.333.049.57.167.708.353l.05.098c.04.072.078.198.117.378.039.181.064.38.075.6.028.4.028.742 0 1.026-.028.285-.054.507-.08.666a1.318 1.318 0 0 1-.212.566.142.142 0 0 1-.041.041.632.632 0 0 1-.225.042c-.078 0-.172-.039-.283-.116a1.988 1.988 0 0 1-.346-.316 4.228 4.228 0 0 1-.404-.562 9.773 9.773 0 0 1-.467-.854l-.133-.239a20.376 20.376 0 0 1-.341-.669 12.815 12.815 0 0 1-.384-.85.542.542 0 0 0-.2-.263l-.041-.025a.894.894 0 0 0-.325-.123l-2.283.017c-.233 0-.391.052-.475.156l-.033.049A.263.263 0 0 0 4 9.748c0 .06.017.135.05.222a26.94 26.94 0 0 0 1.087 2.234c.392.717.732 1.295 1.02 1.733.29.438.584.851.884 1.24.3.389.498.638.595.747.097.11.174.192.23.247l.208.197c.133.131.329.289.587.472.258.184.544.364.858.542.314.178.679.323 1.095.435a3.84 3.84 0 0 0 1.217.136h.958c.194-.016.341-.077.441-.18l.033-.042a.54.54 0 0 0 .063-.152.823.823 0 0 0 .029-.225 2.67 2.67 0 0 1 .054-.637c.042-.189.089-.331.142-.427a1.05 1.05 0 0 1 .32-.361.548.548 0 0 1 .067-.029c.133-.044.29-.001.471.127.18.13.35.288.508.477.158.189.349.4.57.636.223.236.417.41.584.526l.166.099c.112.065.256.126.434.18a.946.946 0 0 0 .466.041l2.133-.032c.21 0 .375-.035.491-.103.117-.069.186-.144.209-.226a.627.627 0 0 0 .004-.28 1.02 1.02 0 0 0-.059-.217z"/>
    </g>
</svg>
