<svg id="axia" xmlns="http://www.w3.org/2000/svg" xmlns:xlink="http://www.w3.org/1999/xlink" width="162" height="45" viewBox="0 0 162 45">
  <defs>
    <clipPath id="clip-path">
      <path id="Clip_32" data-name="Clip 32" d="M0,0H5.814V8.4H0Z" fill="none"/>
    </clipPath>
  </defs>
  <g id="axia-logo-FullColor">
    <path id="Fill_1" data-name="Fill 1" d="M6.131,20.251h0c-.158,0-.317,0-.473-.014a6.337,6.337,0,0,1-4.251-1.7A5.174,5.174,0,0,1,0,14.823c0-2.59,1.691-5.676,9.745-5.676h2.574a22.189,22.189,0,0,0-.284-4.012C11.522,2.97,10.712.858,7,.858q-.129,0-.262,0A4.5,4.5,0,0,0,3.045,2.709a5.01,5.01,0,0,0-.822,1.774H1.079C1.813,1.508,4.057,0,7.75,0c.2,0,.411,0,.622.014A6.783,6.783,0,0,1,13.99,2.7,8.019,8.019,0,0,1,15.271,7.19v9.329c0,3.515,2.3,3.652,2.322,3.653H14.356c-1.026-.128-1.648-.851-1.9-2.21A11.176,11.176,0,0,1,6.131,20.251ZM9.581,9.962c-1.554,0-5.73.727-6.376,4.044a4.569,4.569,0,0,0,.8,3.473,4.194,4.194,0,0,0,2.8,1.681,6.65,6.65,0,0,0,.931.068,5.035,5.035,0,0,0,4.6-3.044V10.353c0-.069,0-.135,0-.2s0-.127,0-.191Z" transform="translate(77.851 16.068)" fill="#007398"/>
    <path id="Fill_3" data-name="Fill 3" d="M0,.033S2.518.065,2.518,3.914V15.82c0,3.066.817,3.686,1.995,3.816s3.4.163,3.4.163-2.42-.261-2.42-3.783V4.306C5.494,1.24,4.84,0,2.649,0S0,.033,0,.033" transform="translate(67.975 16.537)" fill="#007398"/>
    <path id="Fill_5" data-name="Fill 5" d="M15.435,16.864c-.525-.736-2.455-4.175-4.362-7.558L17.626.033H16.547L10.7,8.642C9.525,6.562,8.4,4.573,7.652,3.327,5.624-.065,4.055,0,2.747,0H0A6.085,6.085,0,0,1,3.891,2.805c.563.878,2.529,4.269,4.417,7.56l-6.543,9.4h.981l5.98-8.673c1.465,2.556,2.815,4.932,3.34,5.868,1.243,2.218,2.877,2.8,3.957,2.8h3.27a7.87,7.87,0,0,1-3.858-2.9" transform="translate(48.452 16.57)" fill="#007398"/>
    <path id="Fill_7" data-name="Fill 7" d="M25.036,28.131h0a6.805,6.805,0,0,1-5.84-3.569c-.485-1.223-1.947-4.663-1.962-4.7l-.152-.359H4.469L1.014,27.791H0L11.674,0h.752c.079.2,8.162,21.044,9.68,24.04s2.633,3.651,4.415,3.915A6.451,6.451,0,0,1,25.036,28.131ZM10.726,4.5,4.8,18.723H16.75Z" transform="translate(22.651 8.416)" fill="#007398"/>
    <path id="Fill_9" data-name="Fill 9" d="M13.44,6.915A18.707,18.707,0,0,0,11.61,0a12.9,12.9,0,0,1-.491,9.818C9.615,12.982,5,17.092,2.911,20.224A15.277,15.277,0,0,0,0,29.455a23.113,23.113,0,0,0,1.7,7.307A16.76,16.76,0,0,1,2.813,25.605c2.013-4.35,5.535-7.176,8.02-10.878A13.344,13.344,0,0,0,13.44,6.915" transform="translate(11.172)" fill="#3aafc7"/>
    <path id="Fill_11" data-name="Fill 11" d="M0,0S.829,2.131,7.064,4.088c6.191,1.957,9.548,2.653,10.9,4.523s-.174,3.87-2.224,5.7c.611-1.609.152-3.572-2.311-5.219C9.592,6.524,1.7,5.219,0,0" transform="translate(0 2.718)" fill="#3aafc7"/>
    <path id="Fill_13" data-name="Fill 13" d="M6.889,3.436A3.444,3.444,0,1,1,3.444,0,3.44,3.44,0,0,1,6.889,3.436" transform="translate(14.868 1.022)" fill="#007398"/>
    <path id="Fill_15" data-name="Fill 15" d="M8.153,0s-4.8,4.653-6.758,9.22-2.05,8.437,1,18.005a19.8,19.8,0,0,1-.523-10.872c1-4.784,5.712-10.307,6.584-13.091S8.153,0,8.153,0" transform="translate(13.125 17.07)" fill="#007398"/>
    <path id="Fill_17" data-name="Fill 17" d="M3.837,1.914A1.919,1.919,0,1,1,1.919,0,1.916,1.916,0,0,1,3.837,1.914" transform="translate(69.109 9.677)" fill="#007398"/>
    <path id="Fill_19" data-name="Fill 19" d="M8.617,5.627,10.654.135H12.1L8.925,8.4H8.481L6.049,2.635,3.617,8.4H3.173L0,.135H1.445l2.024,5.5L5.827,0h.444Z" transform="translate(99.989 16.203)" fill="#007398"/>
    <path id="Fill_21" data-name="Fill 21" d="M4.272,8.4A4.4,4.4,0,0,1,2.6,8.078a4.142,4.142,0,0,1-1.357-.887A4.22,4.22,0,0,1,.333,5.855,4.149,4.149,0,0,1,0,4.2,4.148,4.148,0,0,1,1.247,1.207,4.259,4.259,0,0,1,2.605.32,4.354,4.354,0,0,1,4.272,0,4.354,4.354,0,0,1,5.938.32,4.194,4.194,0,0,1,8.216,2.542,4.085,4.085,0,0,1,8.555,4.2a4.106,4.106,0,0,1-.34,1.668A4.165,4.165,0,0,1,7.3,7.2a4.292,4.292,0,0,1-1.357.881A4.354,4.354,0,0,1,4.272,8.4Zm.012-7.2a2.97,2.97,0,0,0-1.166.227A2.783,2.783,0,0,0,1.58,2.992a3.2,3.2,0,0,0-.221,1.194A3.235,3.235,0,0,0,1.58,5.393a2.921,2.921,0,0,0,.612.955,2.81,2.81,0,0,0,.926.628A2.954,2.954,0,0,0,4.284,7.2,2.883,2.883,0,0,0,6.37,6.347a2.863,2.863,0,0,0,.617-.955A3.217,3.217,0,0,0,7.21,4.186,3.14,3.14,0,0,0,6.987,3,2.848,2.848,0,0,0,5.444,1.422,2.929,2.929,0,0,0,4.284,1.195Z" transform="translate(113.358 16.202)" fill="#007398"/>
    <path id="Fill_23" data-name="Fill 23" d="M7.74,8.262H6.431v-5.1L4.086,6.218H3.654L1.309,3.152v5.11H0V0H.444l3.42,4.544L7.3,0H7.74Z" transform="translate(124.407 16.202)" fill="#007398"/>
    <path id="Fill_25" data-name="Fill 25" d="M5.357,1.17H1.308V3.251H4.345V4.384H1.308V6.957h4.2v1.17H0V0H5.357Z" transform="translate(135.122 16.338)" fill="#007398"/>
    <path id="Fill_27" data-name="Fill 27" d="M5.407,5.627V.135H6.716V8.4H6.271L1.309,2.77V8.262H0V0H.444Z" transform="translate(143.072 16.203)" fill="#007398"/>
    <path id="Fill_29" data-name="Fill 29" d="M1,3.3H0L.111,0H1.6Z" transform="translate(152.541 16.338)" fill="#007398"/>
    <g id="Group_33" data-name="Group 33" transform="translate(155.478 16.203)">
      <path id="Clip_32-2" data-name="Clip 32" d="M0,0H5.814V8.4H0Z" transform="translate(0 0)" fill="none"/>
      <g id="Group_33-2" data-name="Group 33" transform="translate(0 0)" clip-path="url(#clip-path)">
        <path id="Fill_31" data-name="Fill 31" d="M3.037,0A2.992,2.992,0,0,1,5.666,1.453l-.914.7A2.434,2.434,0,0,0,4,1.428a1.839,1.839,0,0,0-.963-.259,1.553,1.553,0,0,0-.864.24.825.825,0,0,0-.37.745.856.856,0,0,0,.086.4,1,1,0,0,0,.235.3,1.673,1.673,0,0,0,.358.234l.457.228.914.419a7.071,7.071,0,0,1,.827.443,2.885,2.885,0,0,1,.617.511,2.118,2.118,0,0,1,.383.61,1.973,1.973,0,0,1,.136.751,2.233,2.233,0,0,1-.21.979,2.129,2.129,0,0,1-.58.739,2.727,2.727,0,0,1-.87.468,3.406,3.406,0,0,1-1.08.166,3.457,3.457,0,0,1-1.815-.474A3.535,3.535,0,0,1,0,6.637l.926-.7a3.977,3.977,0,0,0,.389.492,2.81,2.81,0,0,0,.475.413,2.261,2.261,0,0,0,.574.283,2.2,2.2,0,0,0,.7.1,1.615,1.615,0,0,0,1.019-.3A.994.994,0,0,0,4.469,6.1a.939.939,0,0,0-.086-.413.955.955,0,0,0-.247-.314,2.25,2.25,0,0,0-.376-.253Q3.543,5,3.271,4.876l-.9-.419a7.681,7.681,0,0,1-.741-.394,2.918,2.918,0,0,1-.6-.48,2.083,2.083,0,0,1-.407-.61A1.9,1.9,0,0,1,.469,2.2a2,2,0,0,1,.2-.911A2.124,2.124,0,0,1,1.228.6,2.534,2.534,0,0,1,2.043.154,3.134,3.134,0,0,1,3.037,0" transform="translate(0 0)" fill="#007398"/>
      </g>
    </g>
    <path id="Fill_34" data-name="Fill 34" d="M6.716,8.127H5.407V4.408h-4.1V8.127H0V0H1.309V3.238h4.1V0H6.716Z" transform="translate(100.816 28.08)" fill="#007398"/>
    <path id="Fill_36" data-name="Fill 36" d="M5.357,1.17H1.308V3.251H4.345V4.384H1.308V6.957h4.2v1.17H0V0H5.357Z" transform="translate(110.52 28.08)" fill="#007398"/>
    <path id="Fill_38" data-name="Fill 38" d="M1.395,8.263H0L3.592,0h.445L7.628,8.261H6.221l-.58-1.354H1.975L1.4,8.262ZM3.814,2.425,2.444,5.788H5.16Z" transform="translate(117.716 27.945)" fill="#007398"/>
    <path id="Fill_40" data-name="Fill 40" d="M1.309,6.957H5.037v1.17H0V0H1.309Z" transform="translate(127.567 28.08)" fill="#007398"/>
    <path id="Fill_42" data-name="Fill 42" d="M6.789,1.17H4.049V8.127H2.74V1.17H0V0H6.789Z" transform="translate(132.851 28.08)" fill="#007398"/>
    <path id="Fill_44" data-name="Fill 44" d="M6.716,8.127H5.407V4.408h-4.1V8.127H0V0H1.309V3.238h4.1V0H6.716Z" transform="translate(141.801 28.08)" fill="#007398"/>
  </g>
</svg>
