<svg xmlns="http://www.w3.org/2000/svg" xmlns:xlink="http://www.w3.org/1999/xlink" width="108" height="108" viewBox="0 0 108 108">
  <defs>
    <clipPath id="clip-path">
      <circle id="mask-bg" cx="30" cy="30" r="30" fill="#d8d8d8"/>
    </clipPath>
  </defs>
  <g id="hubbox-closed" transform="translate(24 24)">
    <circle id="hubbox-shadow" cx="30" cy="30" r="30" opacity="0.261"/>
    <g id="Group_18" data-name="Group 18">
      <circle id="mask-bg-2" data-name="mask-bg" cx="30" cy="30" r="30" fill="#d8d8d8"/>
      <g id="Group_18-2" data-name="Group 18" clip-path="url(#clip-path)">
        <circle id="hubbox-btn" cx="30" cy="30" r="30" fill="#060c3b"/>
      </g>
    </g>
    <g id="sofy-for-hubbox" transform="translate(6 6)">
      <g id="sofy-for-hubbox-2" data-name="sofy-for-hubbox">
        <g id="Group_21" data-name="Group 21" transform="translate(0.3)">
          <g id="Stroke_19" data-name="Stroke 19" fill="none" stroke-linecap="round" stroke-linejoin="round" stroke-miterlimit="10">
            <path d="M48,24A24,24,0,1,1,24,0,24,24,0,0,1,48,24Z" stroke="none"/>
            <path d="M 24 2.152000427246094 C 21.04940032958984 2.152000427246094 18.18825531005859 2.729389190673828 15.49604415893555 3.868144989013672 C 12.8946647644043 4.968467712402344 10.55794525146484 6.544143676757812 8.550800323486328 8.551387786865234 C 6.543712615966797 10.55857849121094 4.968166351318359 12.89533233642578 3.867923736572266 15.49673461914062 C 2.729320526123047 18.18882179260254 2.152000427246094 21.04973411560059 2.152000427246094 24 C 2.152000427246094 26.9506893157959 2.729320526123047 29.81185531616211 3.867923736572266 32.50403213500977 C 4.968143463134766 35.10544586181641 6.543678283691406 37.44214630126953 8.550765991210938 39.44923400878906 C 10.55785369873047 41.45632171630859 12.89455413818359 43.03185653686523 15.49596786499023 44.13207626342773 C 18.18814468383789 45.27067947387695 21.0493106842041 45.84799957275391 24 45.84799957275391 C 26.9506893157959 45.84799957275391 29.81185531616211 45.27067947387695 32.50403213500977 44.13207626342773 C 35.10544586181641 43.03185653686523 37.44214630126953 41.45632171630859 39.44923400878906 39.44923400878906 C 41.45632171630859 37.44214630126953 43.03185653686523 35.10544586181641 44.13207626342773 32.50403213500977 C 45.27067947387695 29.81185531616211 45.84799957275391 26.9506893157959 45.84799957275391 24 C 45.84799957275391 21.04973411560059 45.27067947387695 18.18882179260254 44.13207626342773 15.49673461914062 C 43.03183364868164 12.89533233642578 41.4562873840332 10.55857849121094 39.44919967651367 8.551387786865234 C 37.44205474853516 6.544143676757812 35.10533142089844 4.968467712402344 32.50395584106445 3.868144989013672 C 29.81174468994141 2.729389190673828 26.95059967041016 2.152000427246094 24 2.152000427246094 M 24 0 C 37.25580978393555 0 48 10.74595642089844 48 24 C 48 37.25580978393555 37.25580978393555 48 24 48 C 10.74419021606445 48 0 37.25580978393555 0 24 C 0 10.74595642089844 10.74419021606445 0 24 0 Z" stroke="none" fill="#00d184"/>
          </g>
          <g id="Group_52" data-name="Group 52" transform="translate(6 6)">
            <path id="Stroke_7" data-name="Stroke 7" d="M0,3.755a18.069,18.069,0,0,1,28.434,9.474" transform="translate(7.033 0)" fill="none" stroke="#fff" stroke-linecap="round" stroke-linejoin="round" stroke-miterlimit="10" stroke-width="1.595"/>
            <path id="Stroke_9" data-name="Stroke 9" d="M21.884,0A18.064,18.064,0,0,1,0,19.2" transform="translate(14.17 16.502)" fill="none" stroke="#fff" stroke-linecap="round" stroke-linejoin="round" stroke-miterlimit="10" stroke-width="1.595"/>
            <path id="Stroke_11" data-name="Stroke 11" d="M10.988,28.47A18.072,18.072,0,0,1,4.427,0" transform="translate(0 6.213)" fill="none" stroke="#fff" stroke-linecap="round" stroke-linejoin="round" stroke-miterlimit="10" stroke-width="1.595"/>
          </g>
        </g>
        <path id="Stroke_1" data-name="Stroke 1" d="M5.123,11.633a7.192,7.192,0,0,0,1.377.132c3.59,0,6.5-2.634,6.5-5.881S10.09,0,6.5,0,0,2.634,0,5.884a5.679,5.679,0,0,0,2.408,4.57l.063.045V13Z" transform="translate(18 18)" fill="#fcfaf8" stroke="#fcfaf8" stroke-linecap="round" stroke-linejoin="round" stroke-miterlimit="10" stroke-width="1.089"/>
      </g>
    </g>
  </g>
</svg>
