<svg xmlns="http://www.w3.org/2000/svg" xmlns:xlink="http://www.w3.org/1999/xlink" width="129.559" height="112.715" viewBox="0 0 129.559 112.715">
  <defs>
    <clipPath id="clip-path">
      <path id="Clip_20" data-name="Clip 20" d="M0,0H21.035V25.253H0Z" transform="translate(0 0.093)" fill="none"/>
    </clipPath>
  </defs>
  <g id="ic-sofy-1" transform="translate(0 3.923)">
    <g id="Group_41" data-name="Group 41" transform="translate(0 0.387)">
      <path id="Fill_1" data-name="Fill 1" d="M33.727,67.451A33.734,33.734,0,0,1,20.6,2.65,33.734,33.734,0,0,1,46.853,64.8,33.513,33.513,0,0,1,33.727,67.451Zm0-37.211a3.486,3.486,0,1,0,3.485,3.487A3.491,3.491,0,0,0,33.727,30.24Z" transform="translate(11.57 19.129)" fill="#6ebbfd"/>
      <path id="Stroke_3" data-name="Stroke 3" d="M24.561,12.28A12.28,12.28,0,1,1,12.28,0,12.281,12.281,0,0,1,24.561,12.28Z" transform="translate(79.671 76.283)" fill="none" stroke="#6ebbfd" stroke-linecap="round" stroke-miterlimit="10" stroke-width="15.12" opacity="0.235"/>
      <path id="Stroke_5" data-name="Stroke 5" d="M5.912,0A12.28,12.28,0,1,1,0,23.046" transform="translate(86.039 76.284)" fill="none" stroke="#6ebbfd" stroke-miterlimit="10" stroke-width="15.12"/>
      <path id="Fill_7" data-name="Fill 7" d="M29.554,67.766H6.048A6.066,6.066,0,0,1,0,61.718V6.048A6.066,6.066,0,0,1,6.048,0H29.554A6.066,6.066,0,0,1,35.6,6.048v55.67a6.066,6.066,0,0,1-6.048,6.048" transform="translate(47.87 26.867)" fill="#fff"/>
      <path id="Stroke_9" data-name="Stroke 9" d="M29.554,67.766H6.048A6.066,6.066,0,0,1,0,61.718V6.048A6.066,6.066,0,0,1,6.048,0H29.554A6.066,6.066,0,0,1,35.6,6.048v55.67A6.066,6.066,0,0,1,29.554,67.766Z" transform="translate(47.87 26.867)" fill="none" stroke="#060c3b" stroke-miterlimit="10" stroke-width="1.5"/>
      <path id="Fill_11" data-name="Fill 11" d="M22.731,6.5H3.246a3.248,3.248,0,0,1,0-6.5H22.731a3.248,3.248,0,0,1,0,6.5" transform="translate(53.042 82.845)" fill="#00d184"/>
      <path id="Stroke_13" data-name="Stroke 13" d="M0,.756H22.372" transform="translate(54.966 63.447)" fill="none" stroke="#060c3b" stroke-linecap="round" stroke-linejoin="round" stroke-miterlimit="10" stroke-width="1.5"/>
      <path id="Stroke_15" data-name="Stroke 15" d="M0,.756H22.372" transform="translate(54.966 68.378)" fill="none" stroke="#060c3b" stroke-linecap="round" stroke-linejoin="round" stroke-miterlimit="10" stroke-width="1.5"/>
      <path id="Stroke_17" data-name="Stroke 17" d="M0,.756H12.63" transform="translate(54.966 73.43)" fill="none" stroke="#060c3b" stroke-linecap="round" stroke-linejoin="round" stroke-miterlimit="10" stroke-width="1.5"/>
      <g id="Group_21" data-name="Group 21" transform="translate(0 58.508)">
        <path id="Clip_20-2" data-name="Clip 20" d="M0,0H21.035V25.253H0Z" transform="translate(0 0.093)" fill="none"/>
        <g id="Group_21-2" data-name="Group 21" clip-path="url(#clip-path)">
          <path id="Fill_19" data-name="Fill 19" d="M10.517,25.253h0c-4.727-3.192-8.777-8.943-8.818-9A10.518,10.518,0,0,1,17.955,3.08a10.521,10.521,0,0,1,1.312,13.276,42.621,42.621,0,0,1-8.409,8.636l-.34.26Zm0-17.889a3.154,3.154,0,1,0,3.155,3.154A3.158,3.158,0,0,0,10.517,7.364Z" transform="translate(0 0.093)" fill="#488dfd"/>
        </g>
      </g>
      <path id="Stroke_22" data-name="Stroke 22" d="M7.766.307A10.245,10.245,0,1,1,5.7,1.069,9.117,9.117,0,0,1,6.852.575Z" transform="translate(55.407 35.766)" fill="none" stroke="#060c3b" stroke-miterlimit="10" stroke-width="1.5"/>
      <path id="Stroke_24" data-name="Stroke 24" d="M.1.02c.617-.088,1.114.1,1.007.995C.965,2.233-.244,3.278.044,4.471c.243,1,1.423,1.456,2.454,1.515a8.219,8.219,0,0,1,3.053.33c.384.18.718.451,1.087.662a4.067,4.067,0,0,0,5.318-1.4" transform="translate(62.748 36.176)" fill="none" stroke="#060c3b" stroke-miterlimit="10" stroke-width="1.5"/>
      <path id="Stroke_26" data-name="Stroke 26" d="M0,0A3.76,3.76,0,0,0,.874,2.5a3.506,3.506,0,0,0,1.946.98,7.871,7.871,0,0,0,2.6-.177,12.094,12.094,0,0,1,3.792-.11c.913.172,2.118.987,1.467,2.046a2.915,2.915,0,0,1-.916.832,3.178,3.178,0,0,0-.93.816c-.918,1.387,1.423,3.8,2.719,4.479" transform="translate(55.465 44.838)" fill="none" stroke="#060c3b" stroke-miterlimit="10" stroke-width="1.5"/>
      <path id="Stroke_28" data-name="Stroke 28" d="M.173,2.088a.493.493,0,0,0,.073.256.34.34,0,0,0,.349.106.971.971,0,0,0,.342-.177,2.078,2.078,0,0,0,.706-.726,2.281,2.281,0,0,0,.136-1.1.579.579,0,0,0-.071-.3c-.119-.174-.378-.16-.587-.118C.937.065.755.11.574.162A1.122,1.122,0,0,0,.165.345C-.151.6.072.854.135,1.157A7.955,7.955,0,0,1,.173,2.088Z" transform="translate(69.357 46.854)" fill="none" stroke="#060c3b" stroke-miterlimit="10" stroke-width="1.5"/>
      <path id="Fill_30" data-name="Fill 30" d="M32.57,37.157H3.024A3.033,3.033,0,0,1,0,34.133V3.024A3.033,3.033,0,0,1,3.024,0H32.57a3.033,3.033,0,0,1,3.024,3.024V34.133a3.033,3.033,0,0,1-3.024,3.024" transform="translate(22.691 11.161)" fill="#060c3b"/>
      <g id="Group_34" data-name="Group 34" transform="translate(91.62 31.292)">
        <path id="Fill_32" data-name="Fill 32" d="M35.173,15.4H2.627A2.534,2.534,0,0,1,0,12.985V2.413A2.534,2.534,0,0,1,2.627,0H35.173A2.534,2.534,0,0,1,37.8,2.413V12.985A2.534,2.534,0,0,1,35.173,15.4" transform="translate(0.139 0.115)" fill="#00b975"/>
        <path id="Fill_39" data-name="Fill 39" d="M4.137,2.068A2.068,2.068,0,1,1,2.068,0,2.068,2.068,0,0,1,4.137,2.068" transform="translate(6.275 5.988)" fill="#fff"/>
        <text id="LIVE" transform="translate(13.826 10.637)" fill="#fff" font-size="7.56" font-family="NunitoSans-Black, Nunito Sans" font-weight="800" letter-spacing="0.015em"><tspan x="0" y="0">LIVE</tspan></text>
      </g>
      <path id="Stroke_35" data-name="Stroke 35" d="M8.853,4.427A4.426,4.426,0,1,1,4.426,0,4.427,4.427,0,0,1,8.853,4.427Z" transform="translate(18.265 86.11)" fill="none" stroke="#6ebbfd" stroke-linecap="round" stroke-miterlimit="10" stroke-width="4.536" opacity="0.64"/>
      <path id="Stroke_37" data-name="Stroke 37" d="M14.021,7.01A7.01,7.01,0,1,1,7.01,0,7.011,7.011,0,0,1,14.021,7.01Z" transform="translate(80.675 0.226)" fill="none" stroke="#6ebbfd" stroke-linecap="round" stroke-miterlimit="10" stroke-width="9.072" opacity="0.209"/>
    </g>
    <path id="Stroke_42" data-name="Stroke 42" d="M0,7.309l5.82,5.82L18.948,0" transform="translate(31.408 22.633)" fill="none" stroke="#00d184" stroke-miterlimit="10" stroke-width="4.536"/>
  </g>
</svg>
