<svg width="130" height="113" viewBox="0 0 130 113" fill="none" xmlns="http://www.w3.org/2000/svg">
<path fill-rule="evenodd" clip-rule="evenodd" d="M11.5695 57.2434C11.5695 75.8697 26.6699 90.9686 45.2962 90.9686C63.921 90.9686 79.0214 75.8697 79.0214 57.2434C79.0214 38.6156 63.921 23.5167 45.2962 23.5167C26.6699 23.5167 11.5695 38.6156 11.5695 57.2434ZM45.2962 53.7567C47.2179 53.7567 48.7813 55.3201 48.7813 57.2434C48.7813 59.1651 47.2179 60.7286 45.2962 60.7286C43.3744 60.7286 41.8095 59.1651 41.8095 57.2434C41.8095 55.3201 43.3744 53.7567 45.2962 53.7567Z" fill="#6EBBFD"/>
<path opacity="0.234982" fill-rule="evenodd" clip-rule="evenodd" d="M104.232 92.9506C104.232 99.7335 98.7326 105.231 91.9512 105.231C85.1699 105.231 79.6708 99.7335 79.6708 92.9506C79.6708 86.1693 85.1699 80.6702 91.9512 80.6702C98.7326 80.6702 104.232 86.1693 104.232 92.9506Z" stroke="#6EBBFD" stroke-width="15.12" stroke-linecap="round"/>
<path d="M91.9512 80.6708C98.7325 80.6708 104.232 86.1684 104.232 92.9512C104.232 99.7326 98.7325 105.232 91.9512 105.232C89.8072 105.232 87.7932 104.681 86.0393 103.717" stroke="#6EBBFD" stroke-width="15.12"/>
<path fill-rule="evenodd" clip-rule="evenodd" d="M77.4233 99.0201H53.9178C50.5914 99.0201 47.8698 96.2985 47.8698 92.9721V37.3018C47.8698 33.9754 50.5914 31.2538 53.9178 31.2538H77.4233C80.7497 31.2538 83.4713 33.9754 83.4713 37.3018V92.9721C83.4713 96.2985 80.7497 99.0201 77.4233 99.0201Z" fill="white"/>
<path fill-rule="evenodd" clip-rule="evenodd" d="M77.4233 99.0201H53.9178C50.5914 99.0201 47.8698 96.2985 47.8698 92.9721V37.3018C47.8698 33.9754 50.5914 31.2538 53.9178 31.2538H77.4233C80.7497 31.2538 83.4713 33.9754 83.4713 37.3018V92.9721C83.4713 96.2985 80.7497 99.0201 77.4233 99.0201Z" stroke="#060C3B" stroke-width="1.5"/>
<path fill-rule="evenodd" clip-rule="evenodd" d="M75.7739 93.7281H56.2887C54.5031 93.7281 53.0425 92.266 53.0425 90.4803C53.0425 88.6946 54.5031 87.2325 56.2887 87.2325H75.7739C77.5596 87.2325 79.0202 88.6946 79.0202 90.4803C79.0202 92.266 77.5596 93.7281 75.7739 93.7281Z" fill="#00D184"/>
<path d="M54.9662 68.5904H77.3377" stroke="#060C3B" stroke-width="1.5" stroke-linecap="round" stroke-linejoin="round"/>
<path d="M54.9662 73.5213H77.3377" stroke="#060C3B" stroke-width="1.5" stroke-linecap="round" stroke-linejoin="round"/>
<path d="M54.9662 78.5733H67.5959" stroke="#060C3B" stroke-width="1.5" stroke-linecap="round" stroke-linejoin="round"/>
<mask id="mask0" mask-type="alpha" maskUnits="userSpaceOnUse" x="0" y="62" width="22" height="27">
<path fill-rule="evenodd" clip-rule="evenodd" d="M0 62.9883H21.0346V88.2417H0V62.9883Z" fill="white"/>
</mask>
<g mask="url(#mask0)">
<path fill-rule="evenodd" clip-rule="evenodd" d="M10.5172 76.6613C8.77534 76.6613 7.36162 75.2491 7.36162 73.5058C7.36162 71.7639 8.77534 70.3517 10.5172 70.3517C12.259 70.3517 13.6727 71.7639 13.6727 73.5058C13.6727 75.2491 12.259 76.6613 10.5172 76.6613ZM10.5172 62.9883C4.70806 62.9883 -0.000305176 67.6966 -0.000305176 73.5058C-0.000305176 75.621 0.624151 77.5912 1.69918 79.2408C1.69918 79.2408 5.73471 85.0121 10.5172 88.2417L10.8574 87.9816C15.5204 84.6386 19.2656 79.3451 19.2656 79.3451C20.383 77.6758 21.0346 75.6664 21.0346 73.5058C21.0346 67.6966 16.3263 62.9883 10.5172 62.9883Z" fill="#488DFD"/>
</g>
<path fill-rule="evenodd" clip-rule="evenodd" d="M63.173 40.4603C63.9713 40.2607 64.809 40.1533 65.6708 40.1533C71.3378 40.1533 75.9328 44.7483 75.9328 50.4168C75.9328 56.0853 71.3378 60.6817 65.6708 60.6817C60.0023 60.6817 55.4074 56.0853 55.4074 50.4168C55.4074 47.8751 56.3675 45.3894 58.0806 43.5084C58.9364 42.5695 59.9676 41.7893 61.1061 41.2223C61.3677 41.0923 61.8077 40.8776 62.2598 40.7279L63.173 40.4603Z" stroke="#060C3B" stroke-width="1.5"/>
<path d="M62.8511 40.5828C63.468 40.4951 63.9655 40.6781 63.8581 41.5777C63.713 42.7964 62.5034 43.8412 62.7922 45.0342C63.0356 46.0366 64.2149 46.4902 65.2461 46.5492C66.2758 46.6066 67.3614 46.4433 68.2989 46.8788C68.6829 47.0587 69.0171 47.3294 69.386 47.5411C71.1475 48.5526 73.6665 47.8918 74.7037 46.144" stroke="#060C3B" stroke-width="1.5"/>
<path d="M55.4653 49.2252C55.494 50.5059 55.9098 51.1969 56.3392 51.7261C56.7732 52.2598 57.5972 52.5622 58.2852 52.7058C59.1485 52.8858 60.027 52.6378 60.8813 52.5289C62.1362 52.3687 63.4139 52.1797 64.6734 52.4186C65.5866 52.5909 66.7917 53.4059 66.14 54.4643C65.9223 54.8181 65.57 55.0646 65.2237 55.2959C64.8805 55.5272 64.5222 55.7661 64.2939 56.1124C63.3761 57.4989 65.7167 59.9135 67.0124 60.5909" stroke="#060C3B" stroke-width="1.5"/>
<path fill-rule="evenodd" clip-rule="evenodd" d="M69.5296 53.3292C69.5372 53.4184 69.5493 53.5137 69.6022 53.5848C69.6793 53.6891 69.826 53.7193 69.9515 53.6906C70.0769 53.6634 70.1888 53.5878 70.2932 53.5137C70.5699 53.3156 70.8496 53.0949 70.9993 52.7879C71.1626 52.4523 71.1505 52.0622 71.1353 51.6902C71.1308 51.5844 71.1233 51.474 71.0643 51.3863C70.9448 51.2124 70.6863 51.226 70.4776 51.2684C70.2932 51.3062 70.1117 51.3515 69.9303 51.4029C69.7851 51.4438 69.6385 51.4921 69.522 51.5859C69.206 51.8369 69.4283 52.0954 69.4918 52.3978C69.5553 52.6972 69.5024 53.0253 69.5296 53.3292Z" stroke="#060C3B" stroke-width="1.5"/>
<path fill-rule="evenodd" clip-rule="evenodd" d="M55.2615 52.7054H25.7155C24.0523 52.7054 22.6915 51.3446 22.6915 49.6814V18.572C22.6915 16.9088 24.0523 15.548 25.7155 15.548H55.2615C56.9247 15.548 58.2855 16.9088 58.2855 18.572V49.6814C58.2855 51.3446 56.9247 52.7054 55.2615 52.7054Z" fill="#060C3B"/>
<g clip-path="url(#clip0)">
<path fill-rule="evenodd" clip-rule="evenodd" d="M126.932 51.192H94.3863C92.9412 51.192 91.7593 50.1064 91.7593 48.7789V38.207C91.7593 36.8794 92.9412 35.7938 94.3863 35.7938H126.932C128.378 35.7938 129.559 36.8794 129.559 38.207V48.7789C129.559 50.1064 128.378 51.192 126.932 51.192Z" fill="#00B975"/>
<path fill-rule="evenodd" clip-rule="evenodd" d="M102.032 43.7353C102.032 44.8784 101.105 45.8037 99.9632 45.8037C98.8201 45.8037 97.8947 44.8784 97.8947 43.7353C97.8947 42.5937 98.8201 41.6669 99.9632 41.6669C101.105 41.6669 102.032 42.5937 102.032 43.7353Z" fill="white"/>
<path d="M105.93 45.3159V39.9861H107.321V44.1592H109.695V45.3159H105.93ZM110.465 45.3159V39.9861H111.856V45.3159H110.465ZM114.703 45.3159L112.276 39.9861H113.758L115.285 43.5318L116.812 39.9861H118.241L115.807 45.3159H114.703ZM118.658 45.3159V39.9861H122.423V41.0596H119.989V42.0727H122.249V43.1462H119.989V44.2424H122.423V45.3159H118.658Z" fill="white"/>
</g>
<path opacity="0.64023" fill-rule="evenodd" clip-rule="evenodd" d="M27.1182 94.9248C27.1182 97.3697 25.1359 99.352 22.691 99.352C20.2476 99.352 18.2654 97.3697 18.2654 94.9248C18.2654 92.4799 20.2476 90.4977 22.691 90.4977C25.1359 90.4977 27.1182 92.4799 27.1182 94.9248Z" stroke="#6EBBFD" stroke-width="4.536" stroke-linecap="round"/>
<path opacity="0.209382" fill-rule="evenodd" clip-rule="evenodd" d="M94.6961 11.6224C94.6961 15.4947 91.5572 18.6336 87.685 18.6336C83.8127 18.6336 80.6753 15.4947 80.6753 11.6224C80.6753 7.75019 83.8127 4.61279 87.685 4.61279C91.5572 4.61279 94.6961 7.75019 94.6961 11.6224Z" stroke="#6EBBFD" stroke-width="9.072" stroke-linecap="round"/>
<path d="M31.4077 33.9421L37.2274 39.7618C37.2274 39.7618 46.6517 30.3375 50.3561 26.6331" stroke="#00D184" stroke-width="4.536"/>
<defs>
<clipPath id="clip0">
<rect width="38" height="16" fill="white" transform="translate(91.62 35.6792)"/>
</clipPath>
</defs>
</svg>
