<svg width="211" height="28" viewBox="0 0 211 28" fill="none" xmlns="http://www.w3.org/2000/svg">
<path d="M39.3407 3.23999H42.1919V17.712C42.1919 21.546 40.5143 24.192 36.5831 24.192C35.4205 24.2096 34.2637 24.0269 33.1631 23.652V20.88C34.1019 21.244 35.101 21.4272 36.1079 21.42C38.5163 21.42 39.3479 19.98 39.3479 17.9028L39.3407 3.23999Z" fill="#253858"/>
<path fill-rule="evenodd" clip-rule="evenodd" d="M48.7712 2.64393C48.4065 2.27918 47.9013 2.09077 47.3868 2.12759C46.8723 2.09077 46.3671 2.27918 46.0023 2.64393C45.6376 3.00869 45.4492 3.51386 45.486 4.02839C45.486 5.07817 46.337 5.92919 47.3868 5.92919C48.4366 5.92919 49.2876 5.07817 49.2876 4.02839C49.3244 3.51386 49.136 3.00869 48.7712 2.64393ZM48.7188 8.21159H45.9936V24.0516H48.7188V8.21159Z" fill="#253858"/>
<path d="M52.8335 8.20793H55.4939V10.9943C56.4119 9.12593 58.0139 7.79393 61.1027 7.98473V10.6451C57.6179 10.2851 55.4939 11.3435 55.4939 14.6987V24.0587H52.8335V8.20793Z" fill="#253858"/>
<path fill-rule="evenodd" clip-rule="evenodd" d="M68.5152 24.3647C70.9524 24.3647 72.8532 23.2883 73.8684 21.1967L73.872 24.0479H76.5972V8.20791H73.872V10.9943C72.918 8.93511 71.1432 7.89111 68.832 7.89111C64.3968 7.89111 62.1792 11.6603 62.1792 16.1279C62.1792 20.7863 64.3032 24.3647 68.5152 24.3647ZM73.8684 16.7615C73.8684 20.2787 71.6832 21.8303 69.2424 21.8303H69.246C66.4236 21.8303 64.9044 19.9295 64.89 16.1135C64.89 12.4379 66.474 10.4111 69.5484 10.4111C71.874 10.4111 73.8684 11.9627 73.8684 15.4799V16.7615Z" fill="#253858"/>
<path d="M92.7181 24.3649C88.6933 24.3649 86.8249 23.5729 85.2085 22.7485V19.8361C87.1417 20.8513 90.1189 21.5785 92.8729 21.5785C96.0085 21.5785 97.1929 20.3437 97.1929 18.5041C97.1929 16.6645 96.0517 15.6853 92.0917 14.7349C87.4117 13.5937 85.3129 11.9773 85.3129 8.55728C85.3129 5.31728 87.7825 2.91968 92.6317 2.91968C95.6413 2.91968 97.5745 3.63968 99.0001 4.43888V7.29008C97.0183 6.19804 94.7822 5.65144 92.5201 5.70608C89.7949 5.70608 88.1785 6.65648 88.1785 8.55728C88.1785 10.2673 89.5105 11.1241 93.1825 12.0421C97.5853 13.1509 100.058 14.5621 100.058 18.3133C100.037 21.9241 97.8841 24.3649 92.7181 24.3649Z" fill="#253858"/>
<path fill-rule="evenodd" clip-rule="evenodd" d="M109.984 7.89111C105.232 7.89111 102.445 11.3435 102.445 16.0955C102.445 20.8475 105.264 24.3755 109.984 24.3755C114.703 24.3755 117.461 20.8475 117.461 16.0955C117.461 11.3435 114.736 7.89111 109.984 7.89111ZM109.984 21.8303C106.596 21.8303 105.106 19.1051 105.106 16.0955H105.12C105.12 13.0859 106.625 10.4399 109.984 10.4399C113.343 10.4399 114.801 13.0859 114.801 16.0955C114.801 19.1051 113.371 21.8303 109.984 21.8303Z" fill="#253858"/>
<path d="M124.398 8.20801H128.484V10.728H124.398V24.048H121.738V10.728H119.16V8.20801H121.727V6.48001C121.727 3.53521 123.376 1.53721 126.767 1.53721C127.388 1.53375 128.006 1.6186 128.603 1.78921V4.30921C128.039 4.20203 127.466 4.14898 126.893 4.15081C125.215 4.15081 124.373 5.13361 124.373 6.55921L124.398 8.20801Z" fill="#253858"/>
<path d="M137.704 21.3875C138.28 21.3703 138.852 21.2956 139.414 21.1643V23.7923C138.817 23.9631 138.198 24.048 137.578 24.0443C134.186 24.0443 132.538 22.0499 132.538 19.1015V10.7423H129.96V8.22232H132.527V4.84912H135.187V8.20792H139.399V10.7279H135.187V19.0439C135.202 20.4371 136.026 21.3875 137.704 21.3875Z" fill="#253858"/>
<path d="M140.177 8.20801H143.186L147.748 21.6396L152.37 8.20801H154.969L159.595 21.6396L164.16 8.20801H167.17L161.341 24.048H157.856L155.131 16.3836L153.691 11.5056L152.251 16.3836L149.49 24.048H146.005L140.177 8.20801Z" fill="#253858"/>
<path fill-rule="evenodd" clip-rule="evenodd" d="M174.262 24.3647C176.699 24.3647 178.6 23.2883 179.615 21.1967L179.618 24.0479H182.344V8.20791H179.618V10.9943C178.664 8.93511 176.89 7.89111 174.578 7.89111C170.143 7.89111 167.926 11.6603 167.926 16.1279C167.926 20.7863 170.05 24.3647 174.262 24.3647ZM179.615 16.7615C179.615 20.2787 177.43 21.8303 174.989 21.8303H174.992C172.17 21.8303 170.64 19.9295 170.64 16.1279C170.64 12.4523 172.235 10.4399 175.295 10.4111C177.62 10.4111 179.615 11.9627 179.615 15.4799V16.7615Z" fill="#253858"/>
<path d="M186.458 8.20793H189.119V10.9943C190.037 9.12593 191.639 7.79393 194.728 7.98473V10.6451C191.243 10.2851 189.119 11.3435 189.119 14.6987V24.0587H186.458V8.20793Z" fill="#253858"/>
<path fill-rule="evenodd" clip-rule="evenodd" d="M195.804 16.0848C195.804 20.9448 198.4 24.3648 204.325 24.3648C205.942 24.3648 207.94 24.12 209.239 23.418V20.898C207.696 21.4633 206.066 21.7533 204.422 21.7548C200.686 21.7548 198.943 20.0124 198.562 17.3196H210.121V16.0848C210.121 11.2716 208.159 7.88037 203.281 7.88037C198.464 7.88037 195.804 11.3004 195.804 16.0848ZM207.36 15.0048H198.529V14.9868C198.814 12.24 200.272 10.3644 203.148 10.3788C205.87 10.3788 207.202 12.06 207.36 15.0048Z" fill="#253858"/>
<path fill-rule="evenodd" clip-rule="evenodd" d="M14.328 1.1376L26.064 12.8736C26.4852 13.2953 26.4852 13.9783 26.064 14.4L22.1616 18.3024L22.0248 18.4392L13.1904 27.2736L8.38803 22.4712L0.316826 14.4C-0.104307 13.9783 -0.104307 13.2953 0.316826 12.8736L4.35603 8.8344L13.1904 0L14.328 1.1376ZM9.15843 13.6368L13.1904 17.6688L17.2224 13.6368L13.1904 9.6048L9.15843 13.6368Z" fill="#2684FF"/>
<path d="M13.1903 9.60487C10.5504 6.96471 10.5376 2.68847 13.1615 0.0324707L4.33789 8.85247L9.14029 13.6549L13.1903 9.60487Z" fill="url(#paint0_linear)"/>
<path d="M17.2332 13.626L13.1904 17.6688C14.4646 18.9422 15.1805 20.6698 15.1805 22.4712C15.1805 24.2726 14.4646 26.0002 13.1904 27.2736L22.0356 18.4284L17.2332 13.626Z" fill="url(#paint1_linear)"/>
<defs>
<linearGradient id="paint0_linear" x1="10.6409" y1="1.19394" x2="3.84474" y2="4.0639" gradientUnits="userSpaceOnUse">
<stop offset="0.18" stop-color="#0052CC"/>
<stop offset="1" stop-color="#2684FF"/>
</linearGradient>
<linearGradient id="paint1_linear" x1="15.7819" y1="26.0361" x2="22.5652" y2="23.1868" gradientUnits="userSpaceOnUse">
<stop offset="0.18" stop-color="#0052CC"/>
<stop offset="1" stop-color="#2684FF"/>
</linearGradient>
</defs>
</svg>
