<svg width="128" height="33" viewBox="0 0 128 33" fill="none" xmlns="http://www.w3.org/2000/svg">
<path d="M40.832 25.472L42.4192 21.7856C44.1344 23.0656 46.4128 23.7312 48.6656 23.7312C50.3296 23.7312 51.3792 23.0912 51.3792 22.1184C51.3536 19.4048 41.4208 21.5296 41.344 14.72C41.3184 11.264 44.3904 8.60156 48.7424 8.60156C51.328 8.60156 53.9136 9.24156 55.7568 10.7008L54.272 14.464C52.5824 13.3888 50.4832 12.6208 48.4864 12.6208C47.1296 12.6208 46.2336 13.2608 46.2336 14.08C46.2592 16.7424 56.2688 15.2832 56.3712 21.7856C56.3712 25.3184 53.376 27.8016 49.0752 27.8016C45.9264 27.8016 43.0336 27.0592 40.832 25.472Z" fill="black"/>
<path d="M101.734 20.4544C100.941 21.8368 99.4561 22.784 97.7409 22.784C95.2065 22.784 93.1585 20.736 93.1585 18.2016C93.1585 15.6672 95.2065 13.6192 97.7409 13.6192C99.4561 13.6192 100.941 14.5664 101.734 15.9488L106.112 13.5168C104.474 10.5984 101.325 8.60156 97.7409 8.60156C92.4417 8.60156 88.1409 12.9024 88.1409 18.2016C88.1409 23.5008 92.4417 27.8016 97.7409 27.8016C101.35 27.8016 104.474 25.8304 106.112 22.8864L101.734 20.4544Z" fill="black"/>
<rect x="58.573" y="0.639893" width="5.4784" height="26.8032" fill="black"/>
<path d="M108.262 0.639893V27.4431H113.741V19.4047L120.243 27.4431H127.258L118.989 17.8943L126.643 8.98549H119.936L113.741 16.3839V0.639893H108.262Z" fill="black"/>
<path fill-rule="evenodd" clip-rule="evenodd" d="M80.333 11.1616V8.98556H85.8114V27.4176H80.333V25.2416C79.437 26.752 77.2098 27.8016 74.8802 27.8016C70.0674 27.8016 66.2786 23.5008 66.2786 18.176C66.2786 12.8512 70.0674 8.60156 74.8802 8.60156C77.2098 8.60156 79.437 9.65116 80.333 11.1616ZM76.0578 22.784C77.901 22.784 79.5394 21.8112 80.333 20.5056V15.9744C79.5394 14.6432 77.901 13.6192 76.0578 13.6192C73.5234 13.6192 71.4754 15.6672 71.4754 18.2016C71.4754 20.736 73.5234 22.784 76.0578 22.784Z" fill="black"/>
<path d="M6.96323 20.48C6.96323 22.3488 5.45283 23.8592 3.58403 23.8592C1.71523 23.8592 0.204834 22.3488 0.204834 20.48C0.204834 18.6112 1.71523 17.1008 3.58403 17.1008H6.96323V20.48Z" fill="#E01E5A"/>
<path d="M8.65283 20.48C8.65283 18.6112 10.1632 17.1008 12.032 17.1008C13.9008 17.1008 15.4112 18.6112 15.4112 20.48V28.928C15.4112 30.7968 13.9008 32.3072 12.032 32.3072C10.1632 32.3072 8.65283 30.7968 8.65283 28.928V20.48Z" fill="#E01E5A"/>
<path d="M12.032 6.91196C10.1632 6.91196 8.65283 5.40156 8.65283 3.53276C8.65283 1.66396 10.1632 0.153564 12.032 0.153564C13.9008 0.153564 15.4112 1.66396 15.4112 3.53276V6.91196H12.032Z" fill="#36C5F0"/>
<path d="M12.032 8.6272C13.9008 8.6272 15.4112 10.1376 15.4112 12.0064C15.4112 13.8752 13.9008 15.3856 12.032 15.3856H3.5584C1.6896 15.3856 0.179199 13.8752 0.179199 12.0064C0.179199 10.1376 1.6896 8.6272 3.5584 8.6272H12.032Z" fill="#36C5F0"/>
<path d="M25.5745 12.0064C25.5745 10.1376 27.0849 8.6272 28.9537 8.6272C30.8225 8.6272 32.3329 10.1376 32.3329 12.0064C32.3329 13.8752 30.8225 15.3856 28.9537 15.3856H25.5745V12.0064Z" fill="#2EB67D"/>
<path d="M23.8849 12.0064C23.8849 13.8752 22.3745 15.3856 20.5057 15.3856C18.6369 15.3856 17.1265 13.8752 17.1265 12.0064V3.53276C17.1265 1.66396 18.6369 0.153564 20.5057 0.153564C22.3745 0.153564 23.8849 1.66396 23.8849 3.53276V12.0064Z" fill="#2EB67D"/>
<path d="M20.5057 25.5488C22.3745 25.5488 23.8849 27.0592 23.8849 28.928C23.8849 30.7968 22.3745 32.3072 20.5057 32.3072C18.6369 32.3072 17.1265 30.7968 17.1265 28.928V25.5488H20.5057Z" fill="#ECB22E"/>
<path d="M20.5057 23.8592C18.6369 23.8592 17.1265 22.3488 17.1265 20.48C17.1265 18.6112 18.6369 17.1008 20.5057 17.1008H28.9793C30.8481 17.1008 32.3585 18.6112 32.3585 20.48C32.3585 22.3488 30.8481 23.8592 28.9793 23.8592H20.5057Z" fill="#ECB22E"/>
</svg>
