<?xml version="1.0" standalone="no"?>
<!DOCTYPE svg PUBLIC "-//W3C//DTD SVG 1.1//EN" "http://www.w3.org/Graphics/SVG/1.1/DTD/svg11.dtd" >
<svg xmlns="http://www.w3.org/2000/svg" xmlns:xlink="http://www.w3.org/1999/xlink" version="1.1">
<metadata>
Created by FontForge 20170731 at Mon Aug 31 11:43:40 2020
 By Aleksey,,,
Copyright (c) 2020 by MadeType. All rights reserved.
</metadata>
<defs>
<font id="MADETOMMY" horiz-adv-x="1171" >
  <font-face 
    font-family="MADE TOMMY"
    font-weight="400"
    font-stretch="normal"
    units-per-em="2048"
    panose-1="2 0 5 3 0 0 0 2 0 4"
    ascent="1638"
    descent="-410"
    x-height="1038"
    cap-height="1434"
    bbox="-109 -516 2527 1978"
    underline-thickness="102"
    underline-position="-307"
    unicode-range="U+0020-F6C3"
  />
<missing-glyph horiz-adv-x="552" 
 />
    <glyph glyph-name=".notdef" horiz-adv-x="552" 
 />
    <glyph glyph-name=".null" horiz-adv-x="0" 
 />
    <glyph glyph-name="nonmarkingreturn" horiz-adv-x="682" 
 />
    <glyph glyph-name="space" unicode=" " horiz-adv-x="552" 
 />
    <glyph glyph-name="exclam" unicode="!" horiz-adv-x="542" 
d="M272 229q52 0 89.5 -37.5t37.5 -89.5q0 -54 -37 -91.5t-90 -37.5q-54 0 -91.5 37.5t-37.5 91.5q0 53 37.5 90t91.5 37zM344 426h-145l-29 1008h203z" />
    <glyph glyph-name="quotedbl" unicode="&#x22;" horiz-adv-x="825" 
d="M143 958v476h183v-476h-183zM500 1434h182v-476h-182v476z" />
    <glyph glyph-name="numbersign" unicode="#" horiz-adv-x="1341" 
d="M1219 848h-230l-43 -260h232l-23 -148h-231l-58 -350h-151l57 350h-293l-57 -350h-150l58 350h-228l23 148h227l43 260h-229l22 147h232l57 346h150l-58 -346h295l58 346h149l-57 -346h225zM797 588l43 260h-293l-43 -260h293z" />
    <glyph glyph-name="dollar" unicode="$" horiz-adv-x="1142" 
d="M1081 397q0 -71 -23 -137.5t-70.5 -126t-129.5 -100.5t-190 -53v-207h-164v204q-103 10 -189.5 46.5t-155.5 106.5t-98 167l201 63q19 -79 102 -136.5t218 -57.5q80 0 144.5 22.5t106 72t41.5 120.5q0 36 -9 65t-21.5 49.5t-38 38.5t-47 28.5t-61 22.5t-66.5 18t-78 17.5
t-82 18.5q-105 25 -176.5 66t-108.5 95.5t-52 113t-15 133.5q0 159 107.5 269.5t277.5 135.5v207h164v-205q130 -21 224 -99.5t132 -205.5l-201 -49q-57 168 -252 168q-107 0 -178 -60.5t-71 -160.5q0 -50 19 -88.5t46 -61.5t75 -42.5t87 -29.5t101 -24q7 -1 10 -2t8.5 -2
t9.5 -2q215 -51 309 -140t94 -258z" />
    <glyph glyph-name="percent" unicode="%" horiz-adv-x="1789" 
d="M1286 1434h164l-946 -1434h-164zM774 1081q0 -139 -99 -237.5t-237 -98.5t-237 98.5t-99 237.5q0 138 99 237t237 99t237 -99t99 -237zM248 1081q0 -78 56 -134t134 -56t134.5 56t56.5 134t-56.5 133.5t-134.5 55.5t-134 -55.5t-56 -133.5zM1352 688q139 0 237.5 -99
t98.5 -237t-98.5 -237t-237.5 -99q-138 0 -236 99t-98 237t98 237t236 99zM1352 162q79 0 134.5 56t55.5 134t-55.5 134.5t-134.5 56.5q-78 0 -133.5 -56.5t-55.5 -134.5t55.5 -134t133.5 -56z" />
    <glyph glyph-name="ampersand" unicode="&#x26;" horiz-adv-x="1509" 
d="M1147 317q258 -229 362 -317h-276q-3 2 -197 170q-86 -95 -196.5 -146t-268.5 -51q-138 0 -251.5 51.5t-180.5 147.5t-67 217q0 66 21.5 126t54 103t77.5 80.5t84.5 60.5t81.5 42q-106 166 -106 307q0 152 111.5 251t262.5 99q163 0 264 -96t101 -232q0 -45 -11.5 -84.5
t-28.5 -70t-47 -59t-56.5 -48t-68 -41.5t-71 -35t-75.5 -32q15 -14 53 -50.5t53 -50.5l27 -26q193 -179 207 -191q50 98 65 207l180 -24q-22 -168 -104 -308zM659 1294q-49 0 -90.5 -17t-71.5 -60.5t-30 -108.5q0 -112 96 -242q143 55 211 116.5t68 147.5q0 65 -49.5 114.5
t-133.5 49.5zM567 137q220 0 332 156q-114 102 -225 207l-27 26q-73 68 -158 160q-235 -81 -235 -297q0 -109 90.5 -180.5t222.5 -71.5z" />
    <glyph glyph-name="quotesingle" unicode="'" horiz-adv-x="468" 
d="M143 1434h183v-476h-183v476z" />
    <glyph glyph-name="parenleft" unicode="(" horiz-adv-x="673" 
d="M551 1499q-225 -359 -225 -782q0 -424 225 -783l-127 -94q-55 82 -96.5 158t-87.5 187.5t-71.5 247.5t-25.5 284q0 120 18.5 235t45 201t67.5 174t74 144.5t76 121.5z" />
    <glyph glyph-name="parenright" unicode=")" horiz-adv-x="673" 
d="M250 1593q43 -65 76 -121.5t74 -144.5t67 -174t44.5 -201t18.5 -235q0 -148 -25 -284t-71 -247.5t-87.5 -187.5t-96.5 -158l-127 94q225 359 225 783q0 423 -225 782z" />
    <glyph glyph-name="asterisk" unicode="*" horiz-adv-x="931" 
d="M840 1104l-289 -66l194 -221l-129 -94l-151 254l-150 -254l-131 94l197 221l-289 66l49 151l273 -116l-29 295h162l-29 -295l273 116z" />
    <glyph glyph-name="plus" unicode="+" horiz-adv-x="1089" 
d="M946 700v-182h-309v-309h-182v309h-312v182h312v312h182v-312h309z" />
    <glyph glyph-name="comma" unicode="," horiz-adv-x="499" 
d="M225 231l172 -98l-235 -360l-121 69z" />
    <glyph glyph-name="hyphen" unicode="-" horiz-adv-x="944" 
d="M143 700h658v-182h-658v182z" />
    <glyph glyph-name="period" unicode="." horiz-adv-x="460" 
d="M229 229q54 0 91.5 -37t37.5 -90q0 -54 -37.5 -91.5t-91.5 -37.5q-53 0 -90 37.5t-37 91.5q0 52 37 89.5t90 37.5z" />
    <glyph glyph-name="slash" unicode="/" horiz-adv-x="978" 
d="M694 1630h183l-592 -1829h-183z" />
    <glyph glyph-name="zero" unicode="0" horiz-adv-x="1302" 
d="M651 1458q119 0 215.5 -43t159.5 -114t105.5 -168t60.5 -200.5t18 -215.5t-18 -216t-60.5 -201.5t-105.5 -169t-159.5 -114.5t-215.5 -43t-215.5 43t-159.5 114.5t-105.5 169t-60.5 201.5t-18 216t18 215.5t60.5 200.5t105.5 168t159.5 114t215.5 43zM651 166
q66 0 121 23.5t93 65t66 94.5t44 116t23.5 125t7.5 127t-7.5 127t-23.5 125t-44 116t-66 94.5t-93 65t-121 23.5q-79 0 -141.5 -34t-101.5 -88.5t-65 -128.5t-36 -148t-10 -152t10 -152t36 -148t65 -128.5t101.5 -88.5t141.5 -34z" />
    <glyph glyph-name="one" unicode="1" horiz-adv-x="897" 
d="M500 1434h131v-1434h-205v1171l-272 -182l-93 150z" />
    <glyph glyph-name="two" unicode="2" horiz-adv-x="1110" 
d="M397 184h590v-184h-883v141q145 160 314 359q12 14 37 43q76 87 115 135t92.5 121.5t77.5 131t24 105.5q0 107 -58.5 173.5t-164.5 66.5q-56 0 -102 -20t-74.5 -53t-46 -69t-25.5 -75l-191 45q40 170 164 262t295 92q174 0 290 -122t116 -300q0 -48 -11.5 -94.5
t-40.5 -100t-59 -99.5t-86.5 -116t-102.5 -124t-127.5 -149.5t-142.5 -168.5z" />
    <glyph glyph-name="three" unicode="3" horiz-adv-x="1163" 
d="M815 758q124 -43 190 -129t66 -205q0 -199 -133.5 -325t-362.5 -126q-180 0 -318.5 89.5t-164.5 226.5l191 43q15 -66 89 -121t203 -55q134 0 213.5 69t79.5 199q0 54 -20.5 95.5t-51.5 65.5t-74 39t-81.5 20t-79.5 5h-121v172h121q49 0 92 11.5t80.5 36t59.5 71
t22 109.5q0 95 -62 161t-178 66q-106 0 -167.5 -49t-81.5 -119l-189 41q38 140 161 224.5t277 84.5q197 0 314 -111t117 -282q0 -101 -50 -181t-141 -126z" />
    <glyph glyph-name="four" unicode="4" horiz-adv-x="1284" 
d="M1182 504v-182h-187v-322h-204v322h-689v163l600 949h293v-930h187zM328 504h463v729z" />
    <glyph glyph-name="five" unicode="5" horiz-adv-x="1165" 
d="M602 926q210 0 340.5 -132.5t130.5 -334.5q0 -130 -59.5 -240t-175.5 -178t-267 -68q-179 0 -315 89.5t-164 228.5l189 43q17 -67 90 -122.5t200 -55.5q131 0 216 85.5t85 217.5q0 136 -80 211t-208 75q-92 0 -166 -37.5t-113 -82.5l-164 41l90 768h756v-187h-598
l-47 -409q121 88 260 88z" />
    <glyph glyph-name="six" unicode="6" horiz-adv-x="1191" 
d="M596 946q139 0 253.5 -60t182.5 -172t68 -255q0 -97 -35.5 -185t-99 -155t-159.5 -106.5t-210 -39.5q-151 0 -267.5 68t-176.5 178t-60 240q0 36 5.5 73t12 66t20 63t22.5 54.5t27.5 51.5t25.5 42.5t26 40l21 31.5l381 553h231l-354 -498q42 10 86 10zM596 156
q130 0 216.5 86t86.5 217q0 137 -88.5 221t-214.5 84q-131 0 -217 -85t-86 -220q0 -131 87 -217t216 -86z" />
    <glyph glyph-name="seven" unicode="7" horiz-adv-x="1081" 
d="M102 1434h877v-156l-506 -1278h-207l496 1247h-660v187z" />
    <glyph glyph-name="eight" unicode="8" horiz-adv-x="1220" 
d="M889 774q112 -55 175.5 -150t63.5 -216q0 -193 -143.5 -314t-374.5 -121t-374.5 121t-143.5 314q0 120 64.5 215.5t175.5 150.5q-83 51 -124.5 129t-41.5 170q0 167 117.5 276t326.5 109q210 0 328.5 -109.5t118.5 -275.5q0 -92 -41.5 -170t-126.5 -129zM610 1276
q-114 0 -181 -58t-67 -155q0 -98 71.5 -156.5t176.5 -58.5t177.5 58.5t72.5 156.5q0 97 -67.5 155t-182.5 58zM610 156q133 0 218 69.5t85 188.5q0 126 -86 191t-217 65q-130 0 -216.5 -65.5t-86.5 -190.5q0 -119 85.5 -188.5t217.5 -69.5z" />
    <glyph glyph-name="nine" unicode="9" horiz-adv-x="1193" 
d="M596 487q-213 0 -358.5 136t-145.5 350q0 131 60 240.5t176.5 177t267.5 67.5q152 0 269 -67.5t177 -177t60 -240.5q0 -29 -3.5 -59t-8 -54t-14 -52.5t-16 -47t-20 -45t-20 -39.5t-22.5 -37.5t-20.5 -32t-20.5 -30.5t-17 -25l-379 -551h-231l354 498q-50 -11 -88 -11z
M596 1276q-129 0 -216 -85.5t-87 -217.5q0 -135 89 -219t214 -84q132 0 218.5 84.5t86.5 218.5q0 132 -87.5 217.5t-217.5 85.5z" />
    <glyph glyph-name="colon" unicode=":" horiz-adv-x="501" 
d="M250 229q54 0 91.5 -37t37.5 -90q0 -54 -37.5 -91.5t-91.5 -37.5q-53 0 -90 37.5t-37 91.5q0 52 37.5 89.5t89.5 37.5zM250 807q-53 0 -90 37.5t-37 91.5q0 52 37.5 89.5t89.5 37.5q54 0 91.5 -37t37.5 -90q0 -54 -37.5 -91.5t-91.5 -37.5z" />
    <glyph glyph-name="semicolon" unicode=";" horiz-adv-x="569" 
d="M319 807q-53 0 -89.5 37.5t-36.5 91.5q0 53 37 90t89 37q54 0 90.5 -37t36.5 -90q0 -54 -36.5 -91.5t-90.5 -37.5zM61 -158l185 389l172 -98l-234 -360z" />
    <glyph glyph-name="less" unicode="&#x3c;" horiz-adv-x="1052" 
d="M909 997v-182l-604 -252l604 -252v-182l-766 332v205z" />
    <glyph glyph-name="equal" unicode="=" horiz-adv-x="1052" 
d="M143 883h766v-183h-766v183zM143 336v182h766v-182h-766z" />
    <glyph glyph-name="greater" unicode="&#x3e;" horiz-adv-x="1052" 
d="M143 815v182l766 -331v-205l-766 -332v182l605 252z" />
    <glyph glyph-name="question" unicode="?" horiz-adv-x="946" 
d="M477 229q54 0 91.5 -37t37.5 -90q0 -54 -37.5 -91.5t-91.5 -37.5q-53 0 -90 37.5t-37 91.5q0 52 37 89.5t90 37.5zM688 1061q0 86 -59 150.5t-160 64.5q-93 0 -151.5 -54t-71.5 -128l-185 45q44 156 161.5 237.5t266.5 81.5q163 0 279.5 -112t116.5 -267q0 -65 -17 -121
t-44.5 -97t-61 -79.5t-67 -75.5t-61 -76.5t-44.5 -91.5t-17 -112h-192q0 71 17 132.5t44 106.5t59.5 85t65.5 75t60 70t44 77t17 89z" />
    <glyph glyph-name="at" unicode="@" horiz-adv-x="1916" 
d="M969 1493q153 0 286.5 -40t231 -109.5t167.5 -162.5t105 -201t35 -222q0 -110 -29.5 -202.5t-79 -152.5t-112 -93.5t-129.5 -33.5q-164 0 -219 170q-49 -74 -129 -116.5t-185 -42.5q-169 0 -275 117t-106 284q0 162 112 282t278 120q183 0 290 -148v127h133v-442
q0 -52 3.5 -86t14 -69.5t34.5 -53t61 -17.5q93 0 152 101t59 256q0 130 -50.5 244.5t-140 199t-221 133.5t-286.5 49q-206 0 -370 -87.5t-256.5 -247.5t-92.5 -365q0 -155 56.5 -287t151.5 -219.5t220 -136.5t262 -49q147 0 249.5 43t156.5 92l79 -94q-187 -152 -485 -152
q-177 0 -329.5 61.5t-259 168.5t-167.5 255.5t-61 317.5q0 170 61 319t170 257t268 170.5t347 62.5zM950 436q117 0 184.5 78t67.5 174q0 105 -73.5 177.5t-178.5 72.5q-103 0 -176.5 -70t-73.5 -180q0 -111 71 -181.5t179 -70.5z" />
    <glyph glyph-name="A" unicode="A" horiz-adv-x="1380" 
d="M1118 0l-121 344h-614l-121 -344h-221l532 1434h234l532 -1434h-221zM449 532h481l-240 682z" />
    <glyph glyph-name="B" unicode="B" horiz-adv-x="1236" 
d="M924 748q231 -86 231 -332q0 -187 -126 -301.5t-365 -114.5h-521v1434h465q236 0 362 -102.5t126 -278.5q0 -206 -172 -301v-4zM608 1247h-260v-432h242q301 0 301 221q0 211 -283 211zM664 186q130 0 205 59t75 171q0 63 -24.5 109t-68 71t-94 36t-112.5 11h-297v-457
h316z" />
    <glyph glyph-name="C" unicode="C" horiz-adv-x="1441" 
d="M821 166q126 0 228 49.5t172 136.5l170 -112q-100 -126 -247.5 -196.5t-322.5 -70.5q-208 0 -375.5 98t-260.5 268t-93 378q0 156 54.5 293t150.5 235.5t232 155.5t292 57q176 0 323 -70t247 -196l-170 -111q-71 87 -172.5 137t-227.5 50q-121 0 -221.5 -46.5
t-164.5 -124.5t-99 -176t-35 -204t35 -204t99 -176t164.5 -124.5t221.5 -46.5z" />
    <glyph glyph-name="D" unicode="D" horiz-adv-x="1388" 
d="M549 1434q143 0 263.5 -36t209 -100.5t151 -154t93 -197.5t30.5 -229q0 -153 -49 -283.5t-141.5 -227t-235.5 -151.5t-321 -55h-406v1434h406zM549 186q253 0 397 143.5t144 387.5t-144 387t-397 143h-201v-1061h201z" />
    <glyph glyph-name="E" unicode="E" horiz-adv-x="1056" 
d="M350 186h604v-186h-811v1434h791v-187h-584v-411h539v-187h-539v-463z" />
    <glyph glyph-name="F" unicode="F" horiz-adv-x="1067" 
d="M965 1247h-617v-426h539v-186h-539v-635h-205v1434h822v-187z" />
    <glyph glyph-name="G" unicode="G" horiz-adv-x="1601" 
d="M840 774h639v-774h-131l-19 233q-157 -260 -508 -260q-209 0 -376.5 98t-260 268t-92.5 378t92.5 377t260 266.5t376.5 97.5q176 0 323 -69.5t247 -194.5l-172 -113q-69 87 -170.5 137t-227.5 50q-98 0 -182.5 -30.5t-146 -83t-105 -123t-65 -150.5t-21.5 -164t21.5 -164
t65 -150.5t105 -123t146 -83t182.5 -30.5q215 0 342.5 117.5t153.5 304.5h-477v186z" />
    <glyph glyph-name="H" unicode="H" horiz-adv-x="1376" 
d="M1028 1434h205v-1434h-205v629h-680v-629h-205v1434h205v-617h680v617z" />
    <glyph glyph-name="I" unicode="I" horiz-adv-x="491" 
d="M143 1434h205v-1434h-205v1434z" />
    <glyph glyph-name="J" unicode="J" horiz-adv-x="1163" 
d="M815 1434h205v-971q0 -109 -26 -196t-80 -154t-146.5 -103.5t-218.5 -36.5q-216 0 -345 112.5t-143 289.5l207 39q3 -34 13 -66.5t32 -66.5t52 -58.5t78 -40.5t106 -16q266 0 266 297v971z" />
    <glyph glyph-name="K" unicode="K" horiz-adv-x="1234" 
d="M1194 0h-264l-582 670v-670h-205v1434h205v-686l549 686h244l-576 -709z" />
    <glyph glyph-name="L" unicode="L" horiz-adv-x="1019" 
d="M348 186h590v-186h-795v1434h205v-1248z" />
    <glyph glyph-name="M" unicode="M" horiz-adv-x="1757" 
d="M1409 1434h205v-1434h-205v1055l-494 -727h-73l-494 727v-1055h-205v1434h205l531 -789z" />
    <glyph glyph-name="N" unicode="N" horiz-adv-x="1413" 
d="M1065 1434h205v-1434h-178l-744 1057v-1057h-205v1434h179l743 -1057v1057z" />
    <glyph glyph-name="O" unicode="O" horiz-adv-x="1640" 
d="M821 1458q208 0 375 -97.5t259.5 -266.5t92.5 -377t-92.5 -378t-259.5 -268t-375 -98q-209 0 -376.5 98t-260 268t-92.5 378t92.5 377t260 266.5t376.5 97.5zM821 166q121 0 221.5 46.5t164.5 124.5t99 176t35 204t-35 204t-99 176t-164.5 124.5t-221.5 46.5
t-221.5 -46.5t-164.5 -124.5t-99 -176t-35 -204t35 -204t99 -176t164.5 -124.5t221.5 -46.5z" />
    <glyph glyph-name="P" unicode="P" horiz-adv-x="1200" 
d="M600 1434q237 0 377.5 -133.5t140.5 -335.5t-140.5 -334.5t-377.5 -132.5h-252v-498h-205v1434h457zM600 684q143 0 225 76.5t82 204.5t-82 205t-225 77h-252v-563h252z" />
    <glyph glyph-name="Q" unicode="Q" horiz-adv-x="1640" 
d="M1548 717q0 -300 -182 -504l145 -147l-129 -129l-153 155q-180 -119 -408 -119q-209 0 -376.5 98t-260 268t-92.5 378t92.5 377t260 266.5t376.5 97.5q208 0 375 -97.5t259.5 -266.5t92.5 -377zM821 166q144 0 264 70l-217 219l129 129l226 -226q116 149 116 359
q0 106 -34.5 204t-98.5 176t-164 124.5t-221 46.5t-221.5 -46.5t-164.5 -124.5t-99 -176t-35 -204t35 -204t99 -176t164.5 -124.5t221.5 -46.5z" />
    <glyph glyph-name="R" unicode="R" horiz-adv-x="1224" 
d="M1184 0h-246l-297 555q-16 -2 -55 -2h-238v-553h-205v1434h443q239 0 377.5 -124.5t138.5 -316.5q0 -132 -67 -234.5t-191 -156.5zM348 739h238q147 0 226 68t79 186t-79 186t-226 68h-238v-508z" />
    <glyph glyph-name="S" unicode="S" horiz-adv-x="1144" 
d="M680 795q215 -51 309 -140t94 -258q0 -79 -28 -151.5t-85 -135t-158.5 -100t-233.5 -37.5q-114 0 -216 33t-184.5 108t-116.5 183l203 63q17 -78 101 -136t217 -58q125 0 208.5 55t83.5 160q0 36 -9 65t-21 49.5t-38 38.5t-46.5 28.5t-60.5 22.5t-66.5 18t-78 17.5
t-81.5 18.5q-105 25 -176.5 66t-109.5 95.5t-53 113t-15 133.5q0 119 62.5 213.5t170.5 146t240 51.5q157 0 273.5 -81t160.5 -228l-201 -49q-25 73 -87 120.5t-167 47.5q-106 0 -176.5 -60.5t-70.5 -160.5q0 -50 19 -88.5t46 -61.5t75 -42.5t87 -29.5t101 -24q7 -1 10 -2
t8.5 -2t9.5 -2z" />
    <glyph glyph-name="T" unicode="T" horiz-adv-x="1093" 
d="M1012 1434v-187h-363v-1247h-205v1247h-362v187h930z" />
    <glyph glyph-name="U" unicode="U" horiz-adv-x="1376" 
d="M1026 1434h207v-889q0 -278 -141.5 -425t-403.5 -147q-264 0 -404.5 146.5t-140.5 425.5v889h205v-852q0 -220 88 -317t252 -97q163 0 250.5 97t87.5 317v852z" />
    <glyph glyph-name="V" unicode="V" horiz-adv-x="1382" 
d="M1120 1434h221l-534 -1434h-232l-534 1434h221l428 -1215z" />
    <glyph glyph-name="W" unicode="W" horiz-adv-x="2023" 
d="M1759 1434h223l-462 -1434h-195l-313 1016l-316 -1016h-194l-461 1434h221l338 -1112l340 1112h141l340 -1112z" />
    <glyph glyph-name="X" unicode="X" horiz-adv-x="1282" 
d="M1241 0h-248l-352 551l-350 -551h-250l467 729l-430 705h248l315 -537l315 537h250l-430 -705z" />
    <glyph glyph-name="Y" unicode="Y" horiz-adv-x="1355" 
d="M1315 1434l-535 -897v-537h-205v537l-534 897h229l408 -713l405 713h232z" />
    <glyph glyph-name="Z" unicode="Z" horiz-adv-x="1175" 
d="M348 186h746v-186h-1012v150l745 1097h-710v187h958v-152z" />
    <glyph glyph-name="bracketleft" unicode="[" horiz-adv-x="677" 
d="M555 1454h-229v-1477h229v-176h-412v1829h412v-176z" />
    <glyph glyph-name="backslash" unicode="\" horiz-adv-x="978" 
d="M285 1630l592 -1829h-183l-592 1829h183z" />
    <glyph glyph-name="bracketright" unicode="]" horiz-adv-x="675" 
d="M123 1630h409v-1829h-409v176h227v1477h-227v176z" />
    <glyph glyph-name="asciicircum" unicode="^" horiz-adv-x="1081" 
d="M979 821h-199l-239 443l-242 -443h-197l347 613h184z" />
    <glyph glyph-name="underscore" unicode="_" horiz-adv-x="872" 
d="M61 -180h750v-166h-750v166z" />
    <glyph glyph-name="grave" unicode="`" horiz-adv-x="622" 
d="M344 1489l135 -287h-137l-199 287h201z" />
    <glyph glyph-name="a" unicode="a" horiz-adv-x="1099" 
d="M569 1063q398 0 398 -436v-627h-187v143q-39 -67 -132 -118.5t-208 -51.5q-99 0 -182.5 37t-134.5 108t-51 161q0 333 540 333h168q0 66 -9 111.5t-34 87t-76 62t-129 20.5q-75 0 -151.5 -29.5t-116.5 -62.5l-131 100q86 78 199.5 120t236.5 42zM780 297v170h-71h-6h-67
t-65.5 -2t-67.5 -5t-61.5 -9t-58.5 -15t-47.5 -22.5t-39 -31t-23 -42t-9.5 -53.5q0 -69 51 -115.5t166 -46.5q62 0 119 20t93.5 49t59 56t27.5 47z" />
    <glyph glyph-name="b" unicode="b" horiz-adv-x="1286" 
d="M696 1063q117 0 216.5 -47t164.5 -124t101 -174t36 -200t-36 -200t-101 -174t-164.5 -124t-216.5 -47q-240 0 -377 172v-145h-186v1434h186v-541q138 170 377 170zM678 152q158 0 251 103t93 263q0 161 -93 265t-251 104q-165 0 -262 -105t-97 -264t96.5 -262.5
t262.5 -103.5z" />
    <glyph glyph-name="c" unicode="c" horiz-adv-x="1118" 
d="M616 152q97 0 176.5 44t125.5 121l159 -86q-73 -119 -193 -188.5t-268 -69.5q-153 0 -278.5 73.5t-195.5 198.5t-70 273t70 273t195.5 198.5t278.5 73.5q148 0 268 -69t193 -187l-159 -88q-47 78 -126 123t-176 45q-154 0 -254 -104.5t-100 -264.5q0 -158 100 -262
t254 -104z" />
    <glyph glyph-name="d" unicode="d" horiz-adv-x="1286" 
d="M967 1434h186v-1434h-186v145q-137 -172 -377 -172q-117 0 -216.5 47t-164.5 124t-101 174t-36 200t36 200t101 174t164.5 124t216.5 47q239 0 377 -170v541zM608 152q166 0 262.5 103.5t96.5 262.5t-97 264t-262 105q-158 0 -251 -104t-93 -265q0 -160 93 -263t251 -103
z" />
    <glyph glyph-name="e" unicode="e" horiz-adv-x="1173" 
d="M598 1063q107 0 204 -44t169.5 -122.5t107.5 -198.5t17 -260h-826q22 -131 116 -208.5t243 -77.5q85 0 157.5 30.5t114.5 85.5l154 -98q-69 -94 -179.5 -145.5t-246.5 -51.5q-167 0 -295.5 74t-195 197.5t-66.5 273.5q0 148 67 273t188.5 198.5t270.5 73.5zM270 598h637
q-19 135 -99 212t-210 77q-131 0 -218.5 -79t-109.5 -210z" />
    <glyph glyph-name="f" unicode="f" horiz-adv-x="724" 
d="M614 1303q-49 0 -84 -13.5t-55 -34.5t-31.5 -57t-15 -71.5t-4.5 -88.5h240v-178h-240v-860h-186v860h-166v178h166q0 420 356 420q45 0 70 -4v-154q-6 0 -24.5 1.5t-25.5 1.5z" />
    <glyph glyph-name="g" unicode="g" horiz-adv-x="1263" 
d="M942 1038h188v-929q0 -113 -31 -206.5t-93.5 -165t-166.5 -111.5t-241 -40q-153 0 -280.5 56.5t-190.5 152.5l160 94q35 -51 114.5 -89t196.5 -38q177 0 260.5 99.5t83.5 265.5v80q-125 -178 -352 -178q-111 0 -209 44.5t-165 117.5t-105.5 166.5t-38.5 189.5t38.5 188.5
t105.5 165.5t165 117.5t209 44.5q226 0 352 -176v151zM608 205q148 0 241 96.5t93 245.5q0 148 -93 244t-241 96q-147 0 -245.5 -97t-98.5 -243q0 -147 98.5 -244.5t245.5 -97.5z" />
    <glyph glyph-name="h" unicode="h" horiz-adv-x="1173" 
d="M641 1063q171 0 285 -123t114 -291v-649h-188v596q0 58 -13 107.5t-41.5 92t-80 67t-121.5 24.5t-125.5 -28t-87.5 -72.5t-48 -93.5t-16 -97v-596h-186v1434h186v-541q113 170 322 170z" />
    <glyph glyph-name="i" unicode="i" horiz-adv-x="454" 
d="M133 0v1038h189v-1038h-189zM227 1223q-44 0 -75 31t-31 75q0 43 31 75t75 32t75.5 -32t31.5 -75q0 -44 -31.5 -75t-75.5 -31z" />
    <glyph glyph-name="j" unicode="j" horiz-adv-x="454" 
d="M135 18v1020h187v-1056q0 -157 -91 -259t-270 -102q-30 0 -70 4v166q140 -4 192 54t52 173zM227 1223q-43 0 -74.5 31t-31.5 75q0 43 31.5 75t74.5 32q44 0 75.5 -32t31.5 -75q0 -44 -31.5 -75t-75.5 -31z" />
    <glyph glyph-name="k" unicode="k" horiz-adv-x="1028" 
d="M520 553l467 -553h-244l-424 498v-498h-186v1434h186v-859l377 463h228z" />
    <glyph glyph-name="l" unicode="l" horiz-adv-x="452" 
d="M133 1434h186v-1434h-186v1434z" />
    <glyph glyph-name="m" unicode="m" horiz-adv-x="1726" 
d="M1229 1063q150 0 257 -107.5t107 -269.5v-686h-186v631q0 115 -56.5 185.5t-166.5 70.5q-104 0 -166 -75.5t-62 -180.5v-631h-186v631q0 115 -56.5 185.5t-164.5 70.5q-106 0 -168 -75.5t-62 -180.5v-631h-186v1038h186v-123q103 148 279 148q93 0 172 -45t127 -123
q54 75 138 121.5t194 46.5z" />
    <glyph glyph-name="n" unicode="n" 
d="M641 1063q171 0 284 -123t113 -291v-649h-186v596q0 58 -13 107.5t-41.5 92t-80 67t-121.5 24.5t-125.5 -28t-87.5 -72.5t-48 -93.5t-16 -97v-596h-186v1038h186v-145q113 170 322 170z" />
    <glyph glyph-name="o" unicode="o" horiz-adv-x="1232" 
d="M616 1063q115 0 217 -43.5t173.5 -117t113 -173.5t41.5 -211t-41.5 -211t-113 -173.5t-173.5 -117t-217 -43.5q-153 0 -278.5 73.5t-195.5 198.5t-70 273t70 273t195.5 198.5t278.5 73.5zM616 152q154 0 254.5 104t100.5 262q0 160 -100.5 264.5t-254.5 104.5
q-153 0 -252.5 -104.5t-99.5 -264.5q0 -159 99.5 -262.5t252.5 -103.5z" />
    <glyph glyph-name="p" unicode="p" horiz-adv-x="1286" 
d="M698 1063q117 0 216.5 -47t164 -124t100 -174t35.5 -200t-35.5 -200t-100 -174t-164 -124t-216.5 -47q-242 0 -379 172v-540h-186v1433h186v-145q138 170 379 170zM680 152q157 0 250.5 103t93.5 263t-93.5 264.5t-250.5 104.5q-167 0 -264 -105t-97 -264t97 -262.5
t264 -103.5z" />
    <glyph glyph-name="q" unicode="q" horiz-adv-x="1286" 
d="M967 1038h186v-1433h-186v540q-137 -172 -377 -172q-117 0 -216.5 47t-164.5 124t-101 174t-36 200t36 200t101 174t164.5 124t216.5 47q239 0 377 -170v145zM608 152q166 0 262.5 103.5t96.5 262.5t-97 264t-262 105q-158 0 -251 -104t-93 -265q0 -160 93 -263t251 -103
z" />
    <glyph glyph-name="r" unicode="r" horiz-adv-x="737" 
d="M319 858q50 100 145.5 152.5t201.5 52.5v-211q-88 11 -153.5 -8.5t-101.5 -56t-57.5 -94.5t-28 -110.5t-6.5 -117.5v-465h-186v1038h186v-180z" />
    <glyph glyph-name="s" unicode="s" horiz-adv-x="927" 
d="M528 602q188 -39 263 -105.5t75 -185.5q0 -70 -25.5 -130.5t-74 -107.5t-127.5 -73.5t-180 -26.5q-159 0 -273.5 62t-144.5 176l182 61q15 -51 71 -89t169 -38q101 0 156 39.5t55 108.5q0 29 -14.5 51t-35.5 35t-56.5 23.5t-65 16t-74 13.5t-72.5 14q-145 32 -211.5 103
t-66.5 188q0 143 107.5 234.5t275.5 91.5q130 0 228.5 -64t125.5 -176l-174 -47q-15 49 -65.5 84t-131.5 35q-77 0 -127.5 -39.5t-50.5 -103.5q0 -24 7.5 -43.5t24.5 -33.5t33 -23.5t45 -17t47.5 -12t53.5 -11t51 -9.5z" />
    <glyph glyph-name="t" unicode="t" horiz-adv-x="751" 
d="M649 860h-239v-454v-43t1 -39t3.5 -36.5t6.5 -31.5t10 -28.5t14.5 -22.5t20.5 -20t27.5 -13.5t35.5 -9t44 -2.5q30 0 76 4v-164q-45 -10 -100 -10q-326 0 -326 348v522h-162v178h162v217h187v-217h239v-178z" />
    <glyph glyph-name="u" unicode="u" 
d="M852 1038h186v-1038h-186v143q-113 -170 -320 -170q-171 0 -285 123t-114 291v651h186v-596q0 -58 13 -107.5t41.5 -92t80 -66.5t121.5 -24t125.5 27.5t87.5 71.5t48 93t16 98v596z" />
    <glyph glyph-name="v" unicode="v" horiz-adv-x="1101" 
d="M854 1038h207l-404 -1038h-213l-403 1038h209l301 -815z" />
    <glyph glyph-name="w" unicode="w" horiz-adv-x="1585" 
d="M1337 1038h207l-348 -1038h-176l-227 707l-226 -707h-176l-350 1038h209l231 -766l244 766h135l244 -766z" />
    <glyph glyph-name="x" unicode="x" horiz-adv-x="1044" 
d="M1004 0h-228l-254 375l-254 -375h-227l362 535l-346 503h230l233 -366l238 366h229l-348 -506z" />
    <glyph glyph-name="y" unicode="y" horiz-adv-x="1099" 
d="M852 1038h207l-567 -1433h-201l184 448l-434 985h207l319 -749z" />
    <glyph glyph-name="z" unicode="z" horiz-adv-x="970" 
d="M328 176h551v-176h-787v152l531 708h-514v178h751v-151z" />
    <glyph glyph-name="braceleft" unicode="{" horiz-adv-x="804" 
d="M465 956q0 -197 -160 -237v-6q160 -37 160 -238v-227q0 -31 0.5 -50t2 -46t4.5 -43t9 -37t15 -33t22 -25.5t29.5 -20.5t39 -11.5t50.5 -4.5h45v-176h-68q-175 0 -253 83.5t-78 269.5v321q0 91 -33 124.5t-107 33.5v166q74 0 107 33.5t33 123.5v322q0 187 78 269.5
t253 82.5h68v-176h-45q-31 0 -55.5 -4.5t-42 -16t-30.5 -23.5t-21 -33t-13 -38t-7 -46.5t-2.5 -50.5t-0.5 -56v-230z" />
    <glyph glyph-name="bar" unicode="|" horiz-adv-x="468" 
d="M143 1550h183v-1855h-183v1855z" />
    <glyph glyph-name="braceright" unicode="}" horiz-adv-x="804" 
d="M522 956q0 -90 33 -123.5t107 -33.5v-166q-74 0 -107 -33.5t-33 -124.5v-321q0 -186 -78.5 -269.5t-253.5 -83.5h-67v176h45q28 0 50.5 4.5t39 11.5t29.5 20.5t22 25.5t15 33t9 37t4.5 43t2 46t0.5 50v227q0 201 160 238v6q-160 40 -160 237v230q0 35 -0.5 56t-2.5 50.5
t-7 46.5t-13 38t-21 33t-30.5 23.5t-42 16t-55.5 4.5h-45v176h67q175 0 253.5 -82.5t78.5 -269.5v-322z" />
    <glyph glyph-name="asciitilde" unicode="~" horiz-adv-x="1210" 
d="M915 756l172 -35q-49 -242 -268 -242q-69 0 -144.5 23.5t-143 47t-117.5 23.5q-51 0 -81 -29.5t-40 -78.5l-170 35q27 120 93 179.5t185 59.5q68 0 143 -23.5t141.5 -47t113.5 -23.5q99 0 116 111z" />
    <glyph glyph-name="exclamdown" unicode="&#xa1;" horiz-adv-x="540" 
d="M270 807q-54 0 -90.5 37.5t-36.5 91.5q0 53 36.5 90t90.5 37q52 0 89.5 -37.5t37.5 -89.5q0 -54 -37 -91.5t-90 -37.5zM197 610h147l29 -1005h-205z" />
    <glyph glyph-name="cent" unicode="&#xa2;" horiz-adv-x="1208" 
d="M647 348q97 0 175.5 45t123.5 123l160 -88q-67 -108 -174 -176t-238 -78v-174h-164v184q-189 38 -308.5 187t-119.5 346q0 195 119.5 344.5t308.5 187.5v185h164v-174q132 -12 239 -80t173 -176l-160 -86q-45 77 -123.5 121t-175.5 44q-154 0 -254 -104t-100 -262
q0 -160 100 -264.5t254 -104.5z" />
    <glyph glyph-name="sterling" unicode="&#xa3;" horiz-adv-x="1189" 
d="M319 184h768v-184h-985v184q209 133 209 369q0 37 -6 72h-203v127h172q-4 13 -17.5 53t-18.5 59t-13.5 53t-12 65t-3.5 65q0 179 116.5 295t311.5 116q161 0 265 -77.5t134 -229.5l-196 -49q-13 72 -60.5 123t-136.5 51q-105 0 -158 -64t-53 -163q0 -55 11.5 -102
t33.5 -104t31 -91h399v-127h-379v-37q0 -124 -61 -228t-148 -172v-4z" />
    <glyph glyph-name="currency" unicode="&#xa4;" horiz-adv-x="1050" 
d="M877 717q0 -109 -64 -199l135 -135l-90 -90l-135 135q-86 -61 -199 -61q-109 0 -198 61l-133 -135l-91 90l134 135q-62 87 -62 199q0 107 62 198l-134 134l91 90l133 -133q89 61 198 61q113 0 199 -61l135 133l90 -90l-135 -134q64 -94 64 -198zM524 530q78 0 132.5 55
t54.5 132t-54.5 131.5t-132.5 54.5q-76 0 -131 -54.5t-55 -131.5t55 -132t131 -55z" />
    <glyph glyph-name="yen" unicode="&#xa5;" horiz-adv-x="1355" 
d="M1315 1434l-461 -777h272v-127h-346v-135h346v-129h-346v-266h-205v266h-346v129h346v135h-346v127h275l-463 777h231l406 -713l407 713h230z" />
    <glyph glyph-name="brokenbar" unicode="&#xa6;" horiz-adv-x="468" 
d="M143 -305v727h183v-727h-183zM143 1550h183v-727h-183v727z" />
    <glyph glyph-name="section" unicode="&#xa7;" horiz-adv-x="1163" 
d="M872 313q78 -75 78 -186q0 -114 -56 -199t-145.5 -126.5t-197.5 -41.5q-158 0 -260 70t-129 193l184 49q6 -47 58.5 -93.5t140.5 -46.5q97 0 148.5 47.5t51.5 112.5q0 52 -34.5 90.5t-89 63t-121 46.5t-133 49t-121 62t-89 94t-34.5 138q0 163 168 270q-76 76 -76 187
q0 168 115 267t282 99q160 0 263 -69.5t129 -192.5l-187 -49q-6 47 -58.5 93t-140.5 46q-96 0 -147 -47.5t-51 -112.5q0 -46 26.5 -81.5t70 -57.5t99.5 -44t114 -39.5t114 -46t99.5 -62t70 -88t26.5 -123.5q0 -164 -168 -271zM625 444q83 -27 139 -57q41 26 70.5 70t29.5 92
q0 34 -18 63.5t-44.5 50t-71 41t-82.5 34t-93 31.5q-11 3 -16 5q-87 28 -138 57q-43 -28 -72.5 -71t-29.5 -92q0 -34 17.5 -63t44 -49t69 -40t80 -33.5t90.5 -30.5l9 -3l7.5 -2.5t8.5 -2.5z" />
    <glyph glyph-name="dieresis" unicode="&#xa8;" horiz-adv-x="927" 
d="M260 1444q50 0 84.5 -34t34.5 -83t-34.5 -84t-84.5 -35q-49 0 -83 34.5t-34 84.5q0 49 33.5 83t83.5 34zM666 1444q50 0 84 -34t34 -83q0 -50 -34.5 -84.5t-83.5 -34.5q-48 0 -82.5 35t-34.5 84t34.5 83t82.5 34z" />
    <glyph glyph-name="copyright" unicode="&#xa9;" horiz-adv-x="1675" 
d="M852 1001q-123 0 -195.5 -85t-72.5 -199q0 -73 30.5 -137t93 -106t144.5 -42q129 0 205 96l88 -57q-50 -65 -126 -101t-167 -36q-163 0 -270 109.5t-107 273.5t107 273.5t270 109.5q91 0 166.5 -36.5t126.5 -100.5l-88 -58q-76 96 -205 96zM838 1442q197 0 364 -97.5
t264 -264.5t97 -363t-97 -363t-264 -264.5t-364 -97.5q-196 0 -363 97.5t-264.5 264.5t-97.5 363t97.5 363t264.5 264.5t363 97.5zM838 100q125 0 239 49t196.5 131.5t131.5 197t49 239.5q0 167 -82.5 309t-224.5 224.5t-309 82.5q-125 0 -238.5 -49t-196 -131.5
t-131.5 -196.5t-49 -239t49 -239.5t131.5 -197t196 -131.5t238.5 -49z" />
    <glyph glyph-name="guillemotleft" unicode="&#xab;" horiz-adv-x="1114" 
d="M348 877h201l-246 -363l246 -362h-201l-246 362zM1012 877l-246 -363l246 -362h-201l-246 362l246 363h201z" />
    <glyph glyph-name="registered" unicode="&#xae;" horiz-adv-x="1675" 
d="M838 1442q196 0 363 -97.5t264.5 -264.5t97.5 -363t-97.5 -363t-264.5 -264.5t-363 -97.5t-363 97.5t-264.5 264.5t-97.5 363t97.5 363t264.5 264.5t363 97.5zM838 100q125 0 239 49t196.5 131.5t131.5 197t49 239.5q0 167 -82.5 308.5t-224.5 223.5t-309 82t-309 -82
t-225 -223.5t-83 -308.5q0 -125 49 -239.5t131.5 -197t197 -131.5t239.5 -49zM1130 872q0 -76 -42 -133.5t-119 -83.5l205 -311h-130l-192 295h-158v-295h-108v762h272q126 0 199 -66.5t73 -167.5zM694 737h164q77 0 119.5 36.5t42.5 98.5t-42.5 99t-119.5 37h-164v-271z
" />
    <glyph glyph-name="macron" unicode="&#xaf;" horiz-adv-x="845" 
d="M143 1391h559v-146h-559v146z" />
    <glyph glyph-name="degree" unicode="&#xb0;" horiz-adv-x="833" 
d="M416 1434q130 0 222.5 -92.5t92.5 -221.5q0 -130 -92.5 -222.5t-222.5 -92.5q-129 0 -221.5 92.5t-92.5 222.5q0 129 92.5 221.5t221.5 92.5zM416 950q70 0 119 49.5t49 120.5q0 69 -49 118.5t-119 49.5q-69 0 -118.5 -49.5t-49.5 -118.5q0 -70 49.5 -120t118.5 -50z" />
    <glyph glyph-name="plusminus" unicode="&#xb1;" horiz-adv-x="1089" 
d="M635 864h311v-182h-311v-309h-182v309h-310v182h310v312h182v-312zM143 0v182h803v-182h-803z" />
    <glyph glyph-name="acute" unicode="&#xb4;" horiz-adv-x="622" 
d="M279 1489h200l-198 -287h-138z" />
    <glyph glyph-name="paragraph" unicode="&#xb6;" horiz-adv-x="1310" 
d="M1188 1434v-195h-154v-1421h-182v1421h-223v-1421h-183v936q-159 5 -261.5 94t-102.5 246q0 160 108.5 250t272.5 90h725z" />
    <glyph glyph-name="cedilla" unicode="&#xb8;" horiz-adv-x="714" 
d="M336 -100q101 10 168 -38t67 -153q0 -97 -68 -160t-181 -63q-102 0 -179 45l64 115q45 -27 102 -27q61 0 96 28.5t35 76.5q0 44 -26.5 68t-75.5 24t-90 -23l-47 64l71 143h113z" />
    <glyph glyph-name="guillemotright" unicode="&#xbb;" horiz-adv-x="1116" 
d="M766 877l248 -363l-248 -362h-199l246 362l-246 363h199zM102 877h201l246 -363l-246 -362h-201l248 362z" />
    <glyph glyph-name="questiondown" unicode="&#xbf;" horiz-adv-x="946" 
d="M469 807q-54 0 -90.5 37.5t-36.5 91.5q0 53 36.5 90t90.5 37q53 0 90 -37.5t37 -89.5q0 -54 -37 -91.5t-90 -37.5zM700 -57l185 -45q-44 -156 -161.5 -238t-264.5 -82q-164 0 -281 112.5t-117 266.5q0 65 17 121t44.5 97.5t61 80t67 75.5t61 76.5t44.5 91.5t17 111h192
q0 -71 -17 -132.5t-44 -106.5t-59.5 -85t-65.5 -75t-60 -70t-44 -77t-17 -89q0 -86 59 -150.5t160 -64.5q93 0 151.5 54.5t71.5 128.5z" />
    <glyph glyph-name="Agrave" unicode="&#xc0;" horiz-adv-x="1380" 
d="M1118 0l-121 344h-614l-121 -344h-221l532 1434h234l532 -1434h-221zM449 532h481l-240 682zM621 1898l135 -286h-138l-198 286h201z" />
    <glyph glyph-name="Aacute" unicode="&#xc1;" horiz-adv-x="1380" 
d="M1118 0l-121 344h-614l-121 -344h-221l532 1434h234l532 -1434h-221zM449 532h481l-240 682zM780 1898h201l-199 -286h-137z" />
    <glyph glyph-name="Acircumflex" unicode="&#xc2;" horiz-adv-x="1380" 
d="M1118 0l-121 344h-614l-121 -344h-221l532 1434h234l532 -1434h-221zM449 532h481l-240 682zM1006 1612h-177l-137 188l-139 -188h-176l225 286h178z" />
    <glyph glyph-name="Atilde" unicode="&#xc3;" horiz-adv-x="1380" 
d="M1118 0l-121 344h-614l-121 -344h-221l532 1434h234l532 -1434h-221zM449 532h481l-240 682zM879 1812l122 -22q-24 -186 -174 -186q-53 0 -133 33.5t-116 33.5q-35 0 -52.5 -25t-21.5 -59l-123 23q29 186 176 186q47 0 128 -33.5t120 -33.5q65 0 74 83z" />
    <glyph glyph-name="Adieresis" unicode="&#xc4;" horiz-adv-x="1380" 
d="M1118 0l-121 344h-614l-121 -344h-221l532 1434h234l532 -1434h-221zM449 532h481l-240 682zM487 1853q50 0 84.5 -33.5t34.5 -82.5t-35 -84t-84 -35t-82.5 34.5t-33.5 84.5q0 49 33.5 82.5t82.5 33.5zM893 1853q50 0 84.5 -33.5t34.5 -82.5t-35 -84t-84 -35
q-48 0 -82.5 35t-34.5 84t34.5 82.5t82.5 33.5z" />
    <glyph glyph-name="Aring" unicode="&#xc5;" horiz-adv-x="1382" 
d="M1118 0l-121 344h-614l-121 -344h-221l532 1434h234l532 -1434h-221zM449 532h481l-240 682zM690 1978q93 0 158 -65t65 -158t-65 -158t-158 -65q-92 0 -157.5 65.5t-65.5 157.5t65.5 157.5t157.5 65.5zM690 1640q47 0 81 34t34 81q0 46 -34 79.5t-81 33.5
q-46 0 -79 -33.5t-33 -79.5q0 -47 33 -81t79 -34z" />
    <glyph glyph-name="AE" unicode="&#xc6;" horiz-adv-x="1914" 
d="M1208 186h604v-186h-808v344h-580l-162 -344h-221l698 1434h1055v-187h-586v-411h539v-187h-539v-463zM510 532h494v715h-160z" />
    <glyph glyph-name="Ccedilla" unicode="&#xc7;" horiz-adv-x="1441" 
d="M821 166q126 0 227.5 49.5t170.5 136.5l172 -112q-100 -125 -246 -195.5t-322 -71.5l-39 -75q101 10 169.5 -38.5t68.5 -152.5q0 -97 -69 -160t-183 -63q-101 0 -178 45l63 115q45 -27 103 -27q61 0 96 28t35 76q0 44 -27 68.5t-76 24.5t-90 -23l-47 64l64 127
q-275 37 -448 242t-173 493q0 208 92.5 377t260 266.5t376.5 97.5q176 0 323 -70t247 -196l-172 -111q-69 87 -170.5 137t-227.5 50q-98 0 -182.5 -30.5t-146 -83t-105 -123t-65 -150.5t-21.5 -164t21.5 -164t65 -150.5t105 -123t146 -83t182.5 -30.5z" />
    <glyph glyph-name="Egrave" unicode="&#xc8;" horiz-adv-x="1056" 
d="M350 186h604v-186h-811v1434h791v-187h-584v-411h539v-187h-539v-463zM500 1898l135 -286h-137l-199 286h201z" />
    <glyph glyph-name="Eacute" unicode="&#xc9;" horiz-adv-x="1056" 
d="M350 186h604v-186h-811v1434h791v-187h-584v-411h539v-187h-539v-463zM598 1898h201l-199 -286h-137z" />
    <glyph glyph-name="Ecircumflex" unicode="&#xca;" horiz-adv-x="1056" 
d="M350 186h604v-186h-811v1434h791v-187h-584v-411h539v-187h-539v-463zM864 1612h-176l-137 188l-139 -188h-176l225 286h178z" />
    <glyph glyph-name="Edieresis" unicode="&#xcb;" horiz-adv-x="1056" 
d="M350 186h604v-186h-811v1434h791v-187h-584v-411h539v-187h-539v-463zM346 1853q50 0 84.5 -33.5t34.5 -82.5t-34.5 -84t-84.5 -35q-49 0 -83 34.5t-34 84.5q0 49 33.5 82.5t83.5 33.5zM752 1853q50 0 84 -33.5t34 -82.5q0 -50 -34.5 -84.5t-83.5 -34.5q-48 0 -82.5 35
t-34.5 84t34.5 82.5t82.5 33.5z" />
    <glyph glyph-name="Igrave" unicode="&#xcc;" horiz-adv-x="491" 
d="M143 1434h205v-1434h-205v1434zM176 1898l135 -286h-137l-199 286h201z" />
    <glyph glyph-name="Iacute" unicode="&#xcd;" horiz-adv-x="491" 
d="M143 1434h205v-1434h-205v1434zM315 1898h201l-199 -286h-137z" />
    <glyph glyph-name="Icircumflex" unicode="&#xce;" horiz-adv-x="491" 
d="M143 1434h205v-1434h-205v1434zM561 1612h-176l-137 188l-139 -188h-177l226 286h178z" />
    <glyph glyph-name="Idieresis" unicode="&#xcf;" horiz-adv-x="491" 
d="M143 1434h205v-1434h-205v1434zM43 1853q50 0 84.5 -33.5t34.5 -82.5t-35 -84t-84 -35t-83 34.5t-34 84.5q0 49 33.5 82.5t83.5 33.5zM449 1853q50 0 84 -33.5t34 -82.5q0 -50 -34.5 -84.5t-83.5 -34.5q-48 0 -82.5 35t-34.5 84t34.5 82.5t82.5 33.5z" />
    <glyph glyph-name="Eth" unicode="&#xd0;" horiz-adv-x="1466" 
d="M627 1434q143 0 263.5 -36t209 -100.5t151 -154t93 -197.5t30.5 -229q0 -153 -49 -283.5t-141.5 -227t-235.5 -151.5t-321 -55h-406v643h-201v145h201v646h406zM627 186q253 0 396.5 143.5t143.5 387.5t-143.5 387t-396.5 143h-201v-459h362v-145h-362v-457h201z" />
    <glyph glyph-name="Ntilde" unicode="&#xd1;" horiz-adv-x="1413" 
d="M1065 1434h205v-1434h-178l-744 1057v-1057h-205v1434h179l743 -1057v1057zM895 1812l123 -22q-24 -186 -174 -186q-53 0 -133.5 33.5t-116.5 33.5q-35 0 -52.5 -25t-21.5 -59l-123 23q29 186 176 186q47 0 128 -33.5t120 -33.5q65 0 74 83z" />
    <glyph glyph-name="Ograve" unicode="&#xd2;" horiz-adv-x="1640" 
d="M821 1458q208 0 375 -97.5t259.5 -266.5t92.5 -377t-92.5 -378t-259.5 -268t-375 -98q-209 0 -376.5 98t-260 268t-92.5 378t92.5 377t260 266.5t376.5 97.5zM821 166q121 0 221.5 46.5t164.5 124.5t99 176t35 204t-35 204t-99 176t-164.5 124.5t-221.5 46.5
t-221.5 -46.5t-164.5 -124.5t-99 -176t-35 -204t35 -204t99 -176t164.5 -124.5t221.5 -46.5zM770 1898l135 -286h-137l-199 286h201z" />
    <glyph glyph-name="Oacute" unicode="&#xd3;" horiz-adv-x="1640" 
d="M821 1458q208 0 375 -97.5t259.5 -266.5t92.5 -377t-92.5 -378t-259.5 -268t-375 -98q-209 0 -376.5 98t-260 268t-92.5 378t92.5 377t260 266.5t376.5 97.5zM821 166q121 0 221.5 46.5t164.5 124.5t99 176t35 204t-35 204t-99 176t-164.5 124.5t-221.5 46.5
t-221.5 -46.5t-164.5 -124.5t-99 -176t-35 -204t35 -204t99 -176t164.5 -124.5t221.5 -46.5zM868 1898h201l-199 -286h-137z" />
    <glyph glyph-name="Ocircumflex" unicode="&#xd4;" horiz-adv-x="1640" 
d="M821 1458q208 0 375 -97.5t259.5 -266.5t92.5 -377t-92.5 -378t-259.5 -268t-375 -98q-209 0 -376.5 98t-260 268t-92.5 378t92.5 377t260 266.5t376.5 97.5zM821 166q121 0 221.5 46.5t164.5 124.5t99 176t35 204t-35 204t-99 176t-164.5 124.5t-221.5 46.5
t-221.5 -46.5t-164.5 -124.5t-99 -176t-35 -204t35 -204t99 -176t164.5 -124.5t221.5 -46.5zM1135 1612h-177l-137 188l-139 -188h-176l225 286h178z" />
    <glyph glyph-name="Otilde" unicode="&#xd5;" horiz-adv-x="1640" 
d="M821 1458q208 0 375 -97.5t259.5 -266.5t92.5 -377t-92.5 -378t-259.5 -268t-375 -98q-209 0 -376.5 98t-260 268t-92.5 378t92.5 377t260 266.5t376.5 97.5zM821 166q121 0 221.5 46.5t164.5 124.5t99 176t35 204t-35 204t-99 176t-164.5 124.5t-221.5 46.5
t-221.5 -46.5t-164.5 -124.5t-99 -176t-35 -204t35 -204t99 -176t164.5 -124.5t221.5 -46.5zM1008 1812l122 -22q-24 -186 -174 -186q-53 0 -133 33.5t-116 33.5q-35 0 -52.5 -25t-21.5 -59l-123 23q29 186 176 186q48 0 129 -33.5t119 -33.5q65 0 74 83z" />
    <glyph glyph-name="Odieresis" unicode="&#xd6;" horiz-adv-x="1640" 
d="M821 1458q208 0 375 -97.5t259.5 -266.5t92.5 -377t-92.5 -378t-259.5 -268t-375 -98q-209 0 -376.5 98t-260 268t-92.5 378t92.5 377t260 266.5t376.5 97.5zM821 166q121 0 221.5 46.5t164.5 124.5t99 176t35 204t-35 204t-99 176t-164.5 124.5t-221.5 46.5
t-221.5 -46.5t-164.5 -124.5t-99 -176t-35 -204t35 -204t99 -176t164.5 -124.5t221.5 -46.5zM616 1853q50 0 84.5 -33.5t34.5 -82.5t-34.5 -84t-84.5 -35q-49 0 -82.5 34.5t-33.5 84.5q0 49 33 82.5t83 33.5zM1022 1853q50 0 84.5 -33.5t34.5 -82.5t-34.5 -84t-84.5 -35
q-48 0 -82.5 35t-34.5 84t34.5 82.5t82.5 33.5z" />
    <glyph glyph-name="multiply" unicode="&#xd7;" horiz-adv-x="942" 
d="M819 829l-219 -219l219 -219l-129 -129l-219 219l-219 -219l-129 129l219 219l-219 219l129 129l219 -219l219 219z" />
    <glyph glyph-name="Oslash" unicode="&#xd8;" horiz-adv-x="1640" 
d="M1415 1159q133 -190 133 -442q0 -208 -92.5 -378t-259.5 -268t-375 -98q-292 0 -497 189l-125 -113l-99 109l127 116q-135 190 -135 443q0 156 54.5 293t150.5 235.5t232 155.5t292 57q297 0 498 -188l125 114l100 -110zM301 717q0 -167 80 -303l788 721
q-143 133 -348 133q-121 0 -221.5 -46.5t-164.5 -124.5t-99 -176t-35 -204zM821 166q121 0 221.5 46.5t164.5 124.5t99 176t35 204q0 162 -79 301l-789 -719q139 -133 348 -133z" />
    <glyph glyph-name="Ugrave" unicode="&#xd9;" horiz-adv-x="1376" 
d="M1026 1434h207v-889q0 -278 -141.5 -425t-403.5 -147q-264 0 -404.5 146.5t-140.5 425.5v889h205v-852q0 -220 88 -317t252 -97q163 0 250.5 97t87.5 317v852zM659 1898l136 -286h-138l-198 286h200z" />
    <glyph glyph-name="Uacute" unicode="&#xda;" horiz-adv-x="1376" 
d="M1026 1434h207v-889q0 -278 -141.5 -425t-403.5 -147q-264 0 -404.5 146.5t-140.5 425.5v889h205v-852q0 -220 88 -317t252 -97q163 0 250.5 97t87.5 317v852zM737 1898h201l-199 -286h-137z" />
    <glyph glyph-name="Ucircumflex" unicode="&#xdb;" horiz-adv-x="1376" 
d="M1026 1434h207v-889q0 -278 -141.5 -425t-403.5 -147q-264 0 -404.5 146.5t-140.5 425.5v889h205v-852q0 -220 88 -317t252 -97q163 0 250.5 97t87.5 317v852zM1001 1612h-176l-137 188l-139 -188h-176l225 286h178z" />
    <glyph glyph-name="Udieresis" unicode="&#xdc;" horiz-adv-x="1376" 
d="M1026 1434h207v-889q0 -278 -141.5 -425t-403.5 -147q-264 0 -404.5 146.5t-140.5 425.5v889h205v-852q0 -220 88 -317t252 -97q163 0 250.5 97t87.5 317v852zM485 1853q50 0 84.5 -33.5t34.5 -82.5t-35 -84t-84 -35t-82.5 34.5t-33.5 84.5q0 49 33.5 82.5t82.5 33.5z
M891 1853q50 0 84.5 -33.5t34.5 -82.5t-35 -84t-84 -35q-48 0 -82.5 35t-34.5 84t34.5 82.5t82.5 33.5z" />
    <glyph glyph-name="Yacute" unicode="&#xdd;" horiz-adv-x="1355" 
d="M1315 1434l-535 -897v-537h-205v537l-534 897h229l408 -713l405 713h232zM748 1898h200l-198 -286h-138z" />
    <glyph glyph-name="Thorn" unicode="&#xde;" horiz-adv-x="1200" 
d="M602 1184q236 0 376 -132.5t140 -334.5q0 -98 -36 -183.5t-101 -149t-163 -100t-216 -36.5h-254v-248h-205v1434h205v-250h254zM602 436q143 0 225 76.5t82 204.5q0 127 -82 203.5t-225 76.5h-254v-561h254z" />
    <glyph glyph-name="germandbls" unicode="&#xdf;" horiz-adv-x="1185" 
d="M834 774q133 -40 206.5 -132t73.5 -226q0 -99 -38 -184t-107.5 -144.5t-176.5 -84t-235 -3.5v168q172 -21 268.5 49.5t96.5 200.5q0 64 -24.5 111t-67.5 74t-95.5 39.5t-116.5 12.5h-61v168q126 0 188 64.5t62 173.5q0 95 -60 158t-176 63t-184 -79.5t-68 -215.5v-987
h-186v1018q0 193 127 316.5t311 123.5q197 0 313.5 -109t116.5 -274q0 -98 -44 -175.5t-123 -125.5z" />
    <glyph glyph-name="agrave" unicode="&#xe0;" horiz-adv-x="1099" 
d="M569 1063q398 0 398 -436v-627h-187v143q-39 -67 -132 -118.5t-208 -51.5q-99 0 -182.5 37t-134.5 108t-51 161q0 333 540 333h168q0 66 -9 111.5t-34 87t-76 62t-129 20.5q-75 0 -151.5 -29.5t-116.5 -62.5l-131 100q86 78 199.5 120t236.5 42zM780 297v170h-71h-6h-67
t-65.5 -2t-67.5 -5t-61.5 -9t-58.5 -15t-47.5 -22.5t-39 -31t-23 -42t-9.5 -53.5q0 -69 51 -115.5t166 -46.5q62 0 119 20t93.5 49t59 56t27.5 47zM530 1489l136 -287h-138l-198 287h200z" />
    <glyph glyph-name="aacute" unicode="&#xe1;" horiz-adv-x="1099" 
d="M569 1063q398 0 398 -436v-627h-187v143q-39 -67 -132 -118.5t-208 -51.5q-99 0 -182.5 37t-134.5 108t-51 161q0 333 540 333h168q0 66 -9 111.5t-34 87t-76 62t-129 20.5q-75 0 -151.5 -29.5t-116.5 -62.5l-131 100q86 78 199.5 120t236.5 42zM780 297v170h-71h-6h-67
t-65.5 -2t-67.5 -5t-61.5 -9t-58.5 -15t-47.5 -22.5t-39 -31t-23 -42t-9.5 -53.5q0 -69 51 -115.5t166 -46.5q62 0 119 20t93.5 49t59 56t27.5 47zM588 1489h200l-198 -287h-137z" />
    <glyph glyph-name="acircumflex" unicode="&#xe2;" horiz-adv-x="1099" 
d="M569 1063q398 0 398 -436v-627h-187v143q-39 -67 -132 -118.5t-208 -51.5q-99 0 -182.5 37t-134.5 108t-51 161q0 333 540 333h168q0 66 -9 111.5t-34 87t-76 62t-129 20.5q-75 0 -151.5 -29.5t-116.5 -62.5l-131 100q86 78 199.5 120t236.5 42zM780 297v170h-71h-6h-67
t-65.5 -2t-67.5 -5t-61.5 -9t-58.5 -15t-47.5 -22.5t-39 -31t-23 -42t-9.5 -53.5q0 -69 51 -115.5t166 -46.5q62 0 119 20t93.5 49t59 56t27.5 47zM874 1202h-176l-137 189l-139 -189h-176l225 287h178z" />
    <glyph glyph-name="atilde" unicode="&#xe3;" horiz-adv-x="1099" 
d="M569 1063q398 0 398 -436v-627h-187v143q-39 -67 -132 -118.5t-208 -51.5q-99 0 -182.5 37t-134.5 108t-51 161q0 333 540 333h168q0 66 -9 111.5t-34 87t-76 62t-129 20.5q-75 0 -151.5 -29.5t-116.5 -62.5l-131 100q86 78 199.5 120t236.5 42zM780 297v170h-71h-6h-67
t-65.5 -2t-67.5 -5t-61.5 -9t-58.5 -15t-47.5 -22.5t-39 -31t-23 -42t-9.5 -53.5q0 -69 51 -115.5t166 -46.5q62 0 119 20t93.5 49t59 56t27.5 47zM748 1403l122 -23q-24 -186 -174 -186q-53 0 -133.5 34t-116.5 34q-35 0 -52 -25t-21 -59l-123 22q29 186 176 186
q48 0 129 -33.5t119 -33.5q64 0 74 84z" />
    <glyph glyph-name="adieresis" unicode="&#xe4;" horiz-adv-x="1099" 
d="M569 1063q398 0 398 -436v-627h-187v143q-39 -67 -132 -118.5t-208 -51.5q-99 0 -182.5 37t-134.5 108t-51 161q0 333 540 333h168q0 66 -9 111.5t-34 87t-76 62t-129 20.5q-75 0 -151.5 -29.5t-116.5 -62.5l-131 100q86 78 199.5 120t236.5 42zM780 297v170h-71h-6h-67
t-65.5 -2t-67.5 -5t-61.5 -9t-58.5 -15t-47.5 -22.5t-39 -31t-23 -42t-9.5 -53.5q0 -69 51 -115.5t166 -46.5q62 0 119 20t93.5 49t59 56t27.5 47zM356 1444q50 0 84.5 -34t34.5 -83t-34.5 -84t-84.5 -35q-49 0 -82.5 34.5t-33.5 84.5t33.5 83.5t82.5 33.5zM762 1444
q50 0 84.5 -34t34.5 -83t-34.5 -84t-84.5 -35q-48 0 -82.5 35t-34.5 84t34.5 83t82.5 34z" />
    <glyph glyph-name="aring" unicode="&#xe5;" horiz-adv-x="1099" 
d="M569 1063q398 0 398 -436v-627h-187v143q-39 -67 -132 -118.5t-208 -51.5q-99 0 -182.5 37t-134.5 108t-51 161q0 333 540 333h168q0 66 -9 111.5t-34 87t-76 62t-129 20.5q-75 0 -151.5 -29.5t-116.5 -62.5l-131 100q86 78 199.5 120t236.5 42zM780 297v170h-71h-6h-67
t-65.5 -2t-67.5 -5t-61.5 -9t-58.5 -15t-47.5 -22.5t-39 -31t-23 -42t-9.5 -53.5q0 -69 51 -115.5t166 -46.5q62 0 119 20t93.5 49t59 56t27.5 47zM559 1589q93 0 158 -65t65 -158t-65 -158t-158 -65q-92 0 -157.5 65.5t-65.5 157.5t65.5 157.5t157.5 65.5zM559 1251
q47 0 81 34t34 81q0 46 -34 79.5t-81 33.5q-46 0 -79.5 -33.5t-33.5 -79.5q0 -47 33.5 -81t79.5 -34z" />
    <glyph glyph-name="ae" unicode="&#xe6;" horiz-adv-x="1845" 
d="M1282 1063q107 0 202 -44t164 -122.5t102 -198.5t15 -260h-807q21 -130 107.5 -208t232.5 -78q85 0 157 30.5t116 85.5l153 -98q-69 -94 -179.5 -145.5t-246.5 -51.5q-143 0 -251 55t-173 152q-53 -87 -160.5 -147t-254.5 -60q-164 0 -275.5 85t-111.5 221q0 66 22.5 118
t55 85t85 56.5t94.5 34.5t103.5 17.5t92 7t78.5 0.5h9h168v10q0 67 -9 113t-34 88t-76 63t-129 21q-74 0 -151 -29.5t-119 -62.5l-131 100q86 78 200.5 120t237.5 42q119 0 199.5 -51t124.5 -138q68 89 167 139t222 50zM780 297v156h-71q-180 0 -230 -5q-181 -18 -209 -117
q-6 -20 -6 -44q0 -69 51 -115.5t166 -46.5q123 0 204 54.5t95 117.5zM958 598h619q-18 136 -92 212.5t-203 76.5q-131 0 -217 -79t-107 -210z" />
    <glyph glyph-name="ccedilla" unicode="&#xe7;" horiz-adv-x="1118" 
d="M616 152q97 0 176.5 44t125.5 121l159 -86q-73 -119 -193 -188.5t-268 -69.5h-8l-39 -75q101 10 169.5 -38.5t68.5 -152.5q0 -97 -69 -160t-183 -63q-101 0 -178 45l63 115q45 -27 103 -27q62 0 96.5 28t34.5 76q0 44 -27 68.5t-76 24.5t-90 -23l-47 64l66 131
q-189 40 -308.5 188.5t-119.5 343.5q0 148 70 273t195.5 198.5t278.5 73.5q148 0 268 -69t193 -187l-159 -88q-47 78 -126 123t-176 45q-154 0 -254 -104.5t-100 -264.5q0 -158 100 -262t254 -104z" />
    <glyph glyph-name="egrave" unicode="&#xe8;" horiz-adv-x="1173" 
d="M598 1063q107 0 204 -44t169.5 -122.5t107.5 -198.5t17 -260h-826q22 -131 116 -208.5t243 -77.5q85 0 157.5 30.5t114.5 85.5l154 -98q-69 -94 -179.5 -145.5t-246.5 -51.5q-167 0 -295.5 74t-195 197.5t-66.5 273.5q0 148 67 273t188.5 198.5t270.5 73.5zM270 598h637
q-19 135 -99 212t-210 77q-131 0 -218.5 -79t-109.5 -210zM557 1489l135 -287h-137l-199 287h201z" />
    <glyph glyph-name="eacute" unicode="&#xe9;" horiz-adv-x="1173" 
d="M598 1063q107 0 204 -44t169.5 -122.5t107.5 -198.5t17 -260h-826q22 -131 116 -208.5t243 -77.5q85 0 157.5 30.5t114.5 85.5l154 -98q-69 -94 -179.5 -145.5t-246.5 -51.5q-167 0 -295.5 74t-195 197.5t-66.5 273.5q0 148 67 273t188.5 198.5t270.5 73.5zM270 598h637
q-19 135 -99 212t-210 77q-131 0 -218.5 -79t-109.5 -210zM635 1489h201l-199 -287h-137z" />
    <glyph glyph-name="ecircumflex" unicode="&#xea;" horiz-adv-x="1173" 
d="M598 1063q107 0 204 -44t169.5 -122.5t107.5 -198.5t17 -260h-826q22 -131 116 -208.5t243 -77.5q85 0 157.5 30.5t114.5 85.5l154 -98q-69 -94 -179.5 -145.5t-246.5 -51.5q-167 0 -295.5 74t-195 197.5t-66.5 273.5q0 148 67 273t188.5 198.5t270.5 73.5zM270 598h637
q-19 135 -99 212t-210 77q-131 0 -218.5 -79t-109.5 -210zM901 1202h-176l-137 189l-139 -189h-177l226 287h178z" />
    <glyph glyph-name="edieresis" unicode="&#xeb;" horiz-adv-x="1173" 
d="M598 1063q107 0 204 -44t169.5 -122.5t107.5 -198.5t17 -260h-826q22 -131 116 -208.5t243 -77.5q85 0 157.5 30.5t114.5 85.5l154 -98q-69 -94 -179.5 -145.5t-246.5 -51.5q-167 0 -295.5 74t-195 197.5t-66.5 273.5q0 148 67 273t188.5 198.5t270.5 73.5zM270 598h637
q-19 135 -99 212t-210 77q-131 0 -218.5 -79t-109.5 -210zM383 1444q50 0 84.5 -34t34.5 -83t-35 -84t-84 -35t-83 34.5t-34 84.5q0 49 34 83t83 34zM788 1444q50 0 84.5 -34t34.5 -83t-34.5 -84t-84.5 -35q-47 0 -81.5 35t-34.5 84t34 83t82 34z" />
    <glyph glyph-name="igrave" unicode="&#xec;" horiz-adv-x="454" 
d="M133 0v1038h189v-1038h-189zM158 1489l135 -287h-137l-199 287h201z" />
    <glyph glyph-name="iacute" unicode="&#xed;" horiz-adv-x="454" 
d="M133 0v1038h189v-1038h-189zM297 1489h201l-199 -287h-137z" />
    <glyph glyph-name="icircumflex" unicode="&#xee;" horiz-adv-x="454" 
d="M133 0v1038h189v-1038h-189zM543 1202h-176l-138 189l-139 -189h-176l225 287h178z" />
    <glyph glyph-name="idieresis" unicode="&#xef;" horiz-adv-x="454" 
d="M133 0v1038h189v-1038h-189zM25 1444q50 0 84 -34t34 -83q0 -50 -34.5 -84.5t-83.5 -34.5t-83 34.5t-34 84.5q0 49 34 83t83 34zM430 1444q50 0 84.5 -34t34.5 -83t-34.5 -84t-84.5 -35q-48 0 -82.5 35t-34.5 84t34.5 83t82.5 34z" />
    <glyph glyph-name="eth" unicode="&#xf0;" horiz-adv-x="1210" 
d="M788 1255q158 -153 254.5 -345t96.5 -414q0 -231 -145.5 -377t-387.5 -146q-235 0 -384.5 141t-149.5 363q0 108 42 201t112.5 155t164.5 97t197 35q83 0 158 -25t112 -57l2 2q-66 142 -231 293l-271 -131l-49 98l228 110q-128 97 -234 140l156 106q117 -63 241 -166
l236 115l49 -98zM606 152q109 0 188 47t115.5 119t36.5 159q0 145 -94.5 236.5t-245.5 91.5q-83 0 -149.5 -27.5t-108 -74t-63 -104.5t-21.5 -122q0 -135 89.5 -230t252.5 -95z" />
    <glyph glyph-name="ntilde" unicode="&#xf1;" 
d="M641 1063q171 0 284 -123t113 -291v-649h-186v596q0 58 -13 107.5t-41.5 92t-80 67t-121.5 24.5t-125.5 -28t-87.5 -72.5t-48 -93.5t-16 -97v-596h-186v1038h186v-145q113 170 322 170zM774 1403l123 -23q-24 -186 -174 -186q-53 0 -133.5 34t-116.5 34q-35 0 -52.5 -25
t-21.5 -59l-123 22q29 186 177 186q47 0 128 -33.5t119 -33.5q64 0 74 84z" />
    <glyph glyph-name="ograve" unicode="&#xf2;" horiz-adv-x="1232" 
d="M616 1063q115 0 217 -43.5t173.5 -117t113 -173.5t41.5 -211t-41.5 -211t-113 -173.5t-173.5 -117t-217 -43.5q-153 0 -278.5 73.5t-195.5 198.5t-70 273t70 273t195.5 198.5t278.5 73.5zM616 152q154 0 254.5 104t100.5 262q0 160 -100.5 264.5t-254.5 104.5
q-153 0 -252.5 -104.5t-99.5 -264.5q0 -159 99.5 -262.5t252.5 -103.5zM547 1489l135 -287h-137l-199 287h201z" />
    <glyph glyph-name="oacute" unicode="&#xf3;" horiz-adv-x="1232" 
d="M616 1063q115 0 217 -43.5t173.5 -117t113 -173.5t41.5 -211t-41.5 -211t-113 -173.5t-173.5 -117t-217 -43.5q-153 0 -278.5 73.5t-195.5 198.5t-70 273t70 273t195.5 198.5t278.5 73.5zM616 152q154 0 254.5 104t100.5 262q0 160 -100.5 264.5t-254.5 104.5
q-153 0 -252.5 -104.5t-99.5 -264.5q0 -159 99.5 -262.5t252.5 -103.5zM666 1489h200l-198 -287h-138z" />
    <glyph glyph-name="ocircumflex" unicode="&#xf4;" horiz-adv-x="1232" 
d="M616 1063q115 0 217 -43.5t173.5 -117t113 -173.5t41.5 -211t-41.5 -211t-113 -173.5t-173.5 -117t-217 -43.5q-153 0 -278.5 73.5t-195.5 198.5t-70 273t70 273t195.5 198.5t278.5 73.5zM616 152q154 0 254.5 104t100.5 262q0 160 -100.5 264.5t-254.5 104.5
q-153 0 -252.5 -104.5t-99.5 -264.5q0 -159 99.5 -262.5t252.5 -103.5zM930 1202h-176l-138 189l-139 -189h-176l225 287h179z" />
    <glyph glyph-name="otilde" unicode="&#xf5;" horiz-adv-x="1232" 
d="M616 1063q115 0 217 -43.5t173.5 -117t113 -173.5t41.5 -211t-41.5 -211t-113 -173.5t-173.5 -117t-217 -43.5q-153 0 -278.5 73.5t-195.5 198.5t-70 273t70 273t195.5 198.5t278.5 73.5zM616 152q154 0 254.5 104t100.5 262q0 160 -100.5 264.5t-254.5 104.5
q-153 0 -252.5 -104.5t-99.5 -264.5q0 -159 99.5 -262.5t252.5 -103.5zM803 1403l123 -23q-24 -186 -174 -186q-53 0 -133.5 34t-116.5 34q-35 0 -52.5 -25t-21.5 -59l-123 22q29 186 176 186q47 0 128 -33.5t120 -33.5q64 0 74 84z" />
    <glyph glyph-name="odieresis" unicode="&#xf6;" horiz-adv-x="1232" 
d="M616 1063q115 0 217 -43.5t173.5 -117t113 -173.5t41.5 -211t-41.5 -211t-113 -173.5t-173.5 -117t-217 -43.5q-153 0 -278.5 73.5t-195.5 198.5t-70 273t70 273t195.5 198.5t278.5 73.5zM616 152q154 0 254.5 104t100.5 262q0 160 -100.5 264.5t-254.5 104.5
q-153 0 -252.5 -104.5t-99.5 -264.5q0 -159 99.5 -262.5t252.5 -103.5zM412 1444q50 0 84 -34t34 -83q0 -50 -34.5 -84.5t-83.5 -34.5t-83 34.5t-34 84.5q0 49 33.5 83t83.5 34zM817 1444q50 0 84.5 -34t34.5 -83t-35 -84t-84 -35q-48 0 -82.5 35t-34.5 84t34.5 83t82.5 34z
" />
    <glyph glyph-name="divide" unicode="&#xf7;" horiz-adv-x="1089" 
d="M143 700h803v-182h-803v182zM545 911q-49 0 -84 35.5t-35 85.5t35 85.5t84 35.5q51 0 86 -35.5t35 -85.5t-35 -85.5t-86 -35.5zM545 307q51 0 86 -35t35 -86q0 -50 -35 -84t-86 -34q-50 0 -84.5 34.5t-34.5 83.5q0 51 34.5 86t84.5 35z" />
    <glyph glyph-name="oslash" unicode="&#xf8;" horiz-adv-x="1232" 
d="M1057 846q104 -145 104 -328q0 -111 -41.5 -211t-113 -173.5t-173.5 -117t-217 -43.5q-210 0 -364 138l-105 -95l-73 82l104 95q-106 140 -106 325q0 148 70 273t195.5 198.5t278.5 73.5q214 0 367 -137l102 94l74 -82zM264 518q0 -113 51 -201l533 486q-97 84 -232 84
q-153 0 -252.5 -104.5t-99.5 -264.5zM616 152q154 0 254.5 104t100.5 262q0 109 -53 201l-533 -486q97 -81 231 -81z" />
    <glyph glyph-name="ugrave" unicode="&#xf9;" 
d="M852 1038h186v-1038h-186v143q-113 -170 -320 -170q-171 0 -285 123t-114 291v651h186v-596q0 -58 13 -107.5t41.5 -92t80 -66.5t121.5 -24t125.5 27.5t87.5 71.5t48 93t16 98v596zM557 1489l135 -287h-137l-199 287h201z" />
    <glyph glyph-name="uacute" unicode="&#xfa;" 
d="M852 1038h186v-1038h-186v143q-113 -170 -320 -170q-171 0 -285 123t-114 291v651h186v-596q0 -58 13 -107.5t41.5 -92t80 -66.5t121.5 -24t125.5 27.5t87.5 71.5t48 93t16 98v596zM635 1489h201l-199 -287h-137z" />
    <glyph glyph-name="ucircumflex" unicode="&#xfb;" 
d="M852 1038h186v-1038h-186v143q-113 -170 -320 -170q-171 0 -285 123t-114 291v651h186v-596q0 -58 13 -107.5t41.5 -92t80 -66.5t121.5 -24t125.5 27.5t87.5 71.5t48 93t16 98v596zM901 1202h-176l-137 189l-139 -189h-177l226 287h178z" />
    <glyph glyph-name="udieresis" unicode="&#xfc;" 
d="M852 1038h186v-1038h-186v143q-113 -170 -320 -170q-171 0 -285 123t-114 291v651h186v-596q0 -58 13 -107.5t41.5 -92t80 -66.5t121.5 -24t125.5 27.5t87.5 71.5t48 93t16 98v596zM381 1444q50 0 84.5 -34t34.5 -83t-35 -84t-84 -35t-83 34.5t-34 84.5q0 49 34 83t83 34
zM786 1444q50 0 84.5 -34t34.5 -83t-34.5 -84t-84.5 -35q-47 0 -81.5 35t-34.5 84t34 83t82 34z" />
    <glyph glyph-name="yacute" unicode="&#xfd;" horiz-adv-x="1099" 
d="M852 1038h207l-567 -1433h-201l184 448l-434 985h207l319 -749zM618 1489h201l-198 -287h-138z" />
    <glyph glyph-name="thorn" unicode="&#xfe;" horiz-adv-x="1286" 
d="M698 1063q117 0 216.5 -47t164 -124t100 -174t35.5 -200t-35.5 -200t-100 -174t-164 -124t-216.5 -47q-243 0 -376 172v-540h-189v1829h189v-541q135 170 376 170zM680 152q158 0 251 103t93 263q0 161 -93 265t-251 104q-167 0 -262.5 -105t-95.5 -264t95.5 -262.5
t262.5 -103.5z" />
    <glyph glyph-name="ydieresis" unicode="&#xff;" horiz-adv-x="1099" 
d="M852 1038h207l-567 -1433h-201l184 448l-434 985h207l319 -749zM346 1444q50 0 84.5 -34t34.5 -83t-34.5 -84t-84.5 -35q-49 0 -83 34.5t-34 84.5q0 49 33.5 83t83.5 34zM752 1444q50 0 84 -34t34 -83q0 -50 -34.5 -84.5t-83.5 -34.5q-48 0 -82.5 35t-34.5 84t34.5 83
t82.5 34z" />
    <glyph glyph-name="Amacron" unicode="&#x100;" horiz-adv-x="1380" 
d="M1118 0l-121 344h-614l-121 -344h-221l532 1434h234l532 -1434h-221zM449 532h481l-240 682zM412 1800h559v-145h-559v145z" />
    <glyph glyph-name="amacron" unicode="&#x101;" horiz-adv-x="1099" 
d="M569 1063q398 0 398 -436v-627h-187v143q-39 -67 -132 -118.5t-208 -51.5q-99 0 -182.5 37t-134.5 108t-51 161q0 333 540 333h168q0 66 -9 111.5t-34 87t-76 62t-129 20.5q-75 0 -151.5 -29.5t-116.5 -62.5l-131 100q86 78 199.5 120t236.5 42zM780 297v170h-71h-6h-67
t-65.5 -2t-67.5 -5t-61.5 -9t-58.5 -15t-47.5 -22.5t-39 -31t-23 -42t-9.5 -53.5q0 -69 51 -115.5t166 -46.5q62 0 119 20t93.5 49t59 56t27.5 47zM281 1391h559v-146h-559v146z" />
    <glyph glyph-name="Abreve" unicode="&#x102;" horiz-adv-x="1380" 
d="M1118 0l-121 344h-614l-121 -344h-221l532 1434h234l532 -1434h-221zM449 532h481l-240 682zM844 1872h141q-5 -121 -84.5 -195.5t-208.5 -74.5t-209 74.5t-86 195.5h142q0 -52 38.5 -96.5t114.5 -44.5q75 0 113.5 44.5t38.5 96.5z" />
    <glyph glyph-name="abreve" unicode="&#x103;" horiz-adv-x="1099" 
d="M569 1063q398 0 398 -436v-627h-187v143q-39 -67 -132 -118.5t-208 -51.5q-99 0 -182.5 37t-134.5 108t-51 161q0 333 540 333h168q0 66 -9 111.5t-34 87t-76 62t-129 20.5q-75 0 -151.5 -29.5t-116.5 -62.5l-131 100q86 78 199.5 120t236.5 42zM780 297v170h-71h-6h-67
t-65.5 -2t-67.5 -5t-61.5 -9t-58.5 -15t-47.5 -22.5t-39 -31t-23 -42t-9.5 -53.5q0 -69 51 -115.5t166 -46.5q62 0 119 20t93.5 49t59 56t27.5 47zM713 1462h141q-5 -121 -84.5 -195.5t-208.5 -74.5t-209 74.5t-86 195.5h142q0 -52 38.5 -96.5t114.5 -44.5q75 0 113.5 44.5
t38.5 96.5z" />
    <glyph glyph-name="Aogonek" unicode="&#x104;" horiz-adv-x="1382" 
d="M1323 0q-72 -45 -119 -111.5t-47 -128.5q0 -59 41.5 -88t124.5 -16v-131q-38 -10 -78 -10q-102 0 -163.5 56t-61.5 142q0 89 58 165.5t130 121.5h-88l-123 344h-612l-121 -344h-223l534 1434h232l534 -1434h-18zM451 532h481l-240 682z" />
    <glyph glyph-name="aogonek" unicode="&#x105;" horiz-adv-x="1099" 
d="M967 0q-72 -45 -119 -111.5t-47 -128.5q0 -59 41.5 -88t124.5 -16v-131q-38 -10 -78 -10q-102 0 -163.5 56t-61.5 142q0 89 58 165.5t130 121.5h-72v143q-39 -67 -132 -118.5t-208 -51.5q-99 0 -182.5 37t-134.5 108t-51 161q0 333 540 333h168q0 66 -9 111.5t-34 87
t-76 62t-129 20.5q-75 0 -151.5 -29.5t-116.5 -62.5l-131 100q86 78 199.5 120t236.5 42q398 0 398 -436v-627zM780 297v170h-71h-6h-67t-65.5 -2t-67.5 -5t-61.5 -9t-58.5 -15t-47.5 -22.5t-39 -31t-23 -42t-9.5 -53.5q0 -69 51 -115.5t166 -46.5q62 0 119 20t93.5 49
t59 56t27.5 47z" />
    <glyph glyph-name="Cacute" unicode="&#x106;" horiz-adv-x="1441" 
d="M821 166q126 0 228 49.5t172 136.5l170 -112q-100 -126 -247.5 -196.5t-322.5 -70.5q-208 0 -375.5 98t-260.5 268t-93 378q0 156 54.5 293t150.5 235.5t232 155.5t292 57q176 0 323 -70t247 -196l-170 -111q-71 87 -172.5 137t-227.5 50q-121 0 -221.5 -46.5
t-164.5 -124.5t-99 -176t-35 -204t35 -204t99 -176t164.5 -124.5t221.5 -46.5zM831 1898h201l-198 -286h-138z" />
    <glyph glyph-name="cacute" unicode="&#x107;" horiz-adv-x="1118" 
d="M616 152q97 0 176.5 44t125.5 121l159 -86q-73 -119 -193 -188.5t-268 -69.5q-153 0 -278.5 73.5t-195.5 198.5t-70 273t70 273t195.5 198.5t278.5 73.5q148 0 268 -69t193 -187l-159 -88q-47 78 -126 123t-176 45q-154 0 -254 -104.5t-100 -264.5q0 -158 100 -262
t254 -104zM623 1489h200l-198 -287h-138z" />
    <glyph glyph-name="Ccircumflex" unicode="&#x108;" horiz-adv-x="1441" 
d="M821 166q126 0 228 49.5t172 136.5l170 -112q-100 -126 -247.5 -196.5t-322.5 -70.5q-208 0 -375.5 98t-260.5 268t-93 378q0 156 54.5 293t150.5 235.5t232 155.5t292 57q176 0 323 -70t247 -196l-170 -111q-71 87 -172.5 137t-227.5 50q-121 0 -221.5 -46.5
t-164.5 -124.5t-99 -176t-35 -204t35 -204t99 -176t164.5 -124.5t221.5 -46.5zM1096 1612h-176l-138 188l-139 -188h-176l225 286h178z" />
    <glyph glyph-name="ccircumflex" unicode="&#x109;" horiz-adv-x="1118" 
d="M616 152q97 0 176.5 44t125.5 121l159 -86q-73 -119 -193 -188.5t-268 -69.5q-153 0 -278.5 73.5t-195.5 198.5t-70 273t70 273t195.5 198.5t278.5 73.5q148 0 268 -69t193 -187l-159 -88q-47 78 -126 123t-176 45q-154 0 -254 -104.5t-100 -264.5q0 -158 100 -262
t254 -104zM909 1202h-176l-137 189l-139 -189h-176l225 287h178z" />
    <glyph glyph-name="Cdotaccent" unicode="&#x10a;" horiz-adv-x="1441" 
d="M821 166q126 0 228 49.5t172 136.5l170 -112q-100 -126 -247.5 -196.5t-322.5 -70.5q-208 0 -375.5 98t-260.5 268t-93 378q0 156 54.5 293t150.5 235.5t232 155.5t292 57q176 0 323 -70t247 -196l-170 -111q-71 87 -172.5 137t-227.5 50q-121 0 -221.5 -46.5
t-164.5 -124.5t-99 -176t-35 -204t35 -204t99 -176t164.5 -124.5t221.5 -46.5zM780 1853q50 0 84.5 -33.5t34.5 -82.5t-34.5 -84t-84.5 -35q-49 0 -82.5 34.5t-33.5 84.5q0 49 33 82.5t83 33.5z" />
    <glyph glyph-name="cdotaccent" unicode="&#x10b;" horiz-adv-x="1118" 
d="M616 152q97 0 176.5 44t125.5 121l159 -86q-73 -119 -193 -188.5t-268 -69.5q-153 0 -278.5 73.5t-195.5 198.5t-70 273t70 273t195.5 198.5t278.5 73.5q148 0 268 -69t193 -187l-159 -88q-47 78 -126 123t-176 45q-154 0 -254 -104.5t-100 -264.5q0 -158 100 -262
t254 -104zM594 1444q50 0 84.5 -34t34.5 -83t-34.5 -84t-84.5 -35q-49 0 -83 34.5t-34 84.5q0 49 33.5 83t83.5 34z" />
    <glyph glyph-name="Ccaron" unicode="&#x10c;" horiz-adv-x="1441" 
d="M821 166q126 0 228 49.5t172 136.5l170 -112q-100 -126 -247.5 -196.5t-322.5 -70.5q-208 0 -375.5 98t-260.5 268t-93 378q0 156 54.5 293t150.5 235.5t232 155.5t292 57q176 0 323 -70t247 -196l-170 -111q-71 87 -172.5 137t-227.5 50q-121 0 -221.5 -46.5
t-164.5 -124.5t-99 -176t-35 -204t35 -204t99 -176t164.5 -124.5t221.5 -46.5zM920 1898h176l-226 -286h-178l-225 286h176l139 -190z" />
    <glyph glyph-name="ccaron" unicode="&#x10d;" horiz-adv-x="1118" 
d="M616 152q97 0 176.5 44t125.5 121l159 -86q-73 -119 -193 -188.5t-268 -69.5q-153 0 -278.5 73.5t-195.5 198.5t-70 273t70 273t195.5 198.5t278.5 73.5q148 0 268 -69t193 -187l-159 -88q-47 78 -126 123t-176 45q-154 0 -254 -104.5t-100 -264.5q0 -158 100 -262
t254 -104zM733 1489h176l-225 -287h-178l-225 287h176l139 -191z" />
    <glyph glyph-name="Dcaron" unicode="&#x10e;" horiz-adv-x="1388" 
d="M549 1434q143 0 263.5 -36t209 -100.5t151 -154t93 -197.5t30.5 -229q0 -153 -49 -283.5t-141.5 -227t-235.5 -151.5t-321 -55h-406v1434h406zM549 186q253 0 397 143.5t144 387.5t-144 387t-397 143h-201v-1061h201zM797 1898h176l-225 -286h-179l-225 286h176l139 -190
z" />
    <glyph glyph-name="dcaron" unicode="&#x10f;" horiz-adv-x="1411" 
d="M1409 1434h197l-156 -287h-147zM967 1434h186v-1434h-186v145q-137 -172 -377 -172q-117 0 -216.5 47t-164.5 124t-101 174t-36 200t36 200t101 174t164.5 124t216.5 47q239 0 377 -170v541zM608 152q166 0 262.5 103.5t96.5 262.5t-97 264t-262 105q-158 0 -251 -104
t-93 -265q0 -160 93 -263t251 -103z" />
    <glyph glyph-name="Dcroat" unicode="&#x110;" horiz-adv-x="1466" 
d="M627 1434q143 0 263.5 -36t209 -100.5t151 -154t93 -197.5t30.5 -229q0 -153 -49 -283.5t-141.5 -227t-235.5 -151.5t-321 -55h-406v643h-201v145h201v646h406zM627 186q253 0 396.5 143.5t143.5 387.5t-143.5 387t-396.5 143h-201v-459h362v-145h-362v-457h201z" />
    <glyph glyph-name="dcroat" unicode="&#x111;" horiz-adv-x="1286" 
d="M1296 1239v-111h-143v-1128h-186v137q-139 -164 -377 -164q-118 0 -217 44t-164 117.5t-101 168t-36 197.5t36 197.5t101 167.5t164 117t217 44q240 0 377 -162v264h-328v111h328v195h186v-195h143zM608 133q166 0 262.5 104t96.5 263t-96.5 263.5t-262.5 104.5
q-158 0 -251 -103t-93 -265q0 -160 93 -263.5t251 -103.5z" />
    <glyph glyph-name="Emacron" unicode="&#x112;" horiz-adv-x="1056" 
d="M350 186h604v-186h-811v1434h791v-187h-584v-411h539v-187h-539v-463zM270 1800h559v-145h-559v145z" />
    <glyph glyph-name="emacron" unicode="&#x113;" horiz-adv-x="1173" 
d="M598 1063q107 0 204 -44t169.5 -122.5t107.5 -198.5t17 -260h-826q22 -131 116 -208.5t243 -77.5q85 0 157.5 30.5t114.5 85.5l154 -98q-69 -94 -179.5 -145.5t-246.5 -51.5q-167 0 -295.5 74t-195 197.5t-66.5 273.5q0 148 67 273t188.5 198.5t270.5 73.5zM270 598h637
q-19 135 -99 212t-210 77q-131 0 -218.5 -79t-109.5 -210zM307 1391h559v-146h-559v146z" />
    <glyph glyph-name="Ebreve" unicode="&#x114;" horiz-adv-x="1056" 
d="M350 186h604v-186h-811v1434h791v-187h-584v-411h539v-187h-539v-463zM702 1872h142q-5 -121 -84.5 -195.5t-208.5 -74.5t-209 74.5t-86 195.5h141q0 -51 39 -96t115 -45q75 0 113 44.5t38 96.5z" />
    <glyph glyph-name="ebreve" unicode="&#x115;" horiz-adv-x="1173" 
d="M598 1063q107 0 204 -44t169.5 -122.5t107.5 -198.5t17 -260h-826q22 -131 116 -208.5t243 -77.5q85 0 157.5 30.5t114.5 85.5l154 -98q-69 -94 -179.5 -145.5t-246.5 -51.5q-167 0 -295.5 74t-195 197.5t-66.5 273.5q0 148 67 273t188.5 198.5t270.5 73.5zM270 598h637
q-19 135 -99 212t-210 77q-131 0 -218.5 -79t-109.5 -210zM739 1462h142q-5 -121 -84.5 -195.5t-208.5 -74.5t-209 74.5t-86 195.5h141q0 -51 39 -96t115 -45q75 0 113 44.5t38 96.5z" />
    <glyph glyph-name="Edotaccent" unicode="&#x116;" horiz-adv-x="1056" 
d="M350 186h604v-186h-811v1434h791v-187h-584v-411h539v-187h-539v-463zM549 1853q50 0 84.5 -33.5t34.5 -82.5t-35 -84t-84 -35t-83 34.5t-34 84.5q0 49 33.5 82.5t83.5 33.5z" />
    <glyph glyph-name="edotaccent" unicode="&#x117;" horiz-adv-x="1173" 
d="M598 1063q107 0 204 -44t169.5 -122.5t107.5 -198.5t17 -260h-826q22 -131 116 -208.5t243 -77.5q85 0 157.5 30.5t114.5 85.5l154 -98q-69 -94 -179.5 -145.5t-246.5 -51.5q-167 0 -295.5 74t-195 197.5t-66.5 273.5q0 148 67 273t188.5 198.5t270.5 73.5zM270 598h637
q-19 135 -99 212t-210 77q-131 0 -218.5 -79t-109.5 -210zM586 1444q50 0 84.5 -34t34.5 -83t-34.5 -84t-84.5 -35q-49 0 -83 34.5t-34 84.5q0 49 33.5 83t83.5 34z" />
    <glyph glyph-name="Eogonek" unicode="&#x118;" horiz-adv-x="1056" 
d="M954 0q-73 -45 -120.5 -111.5t-47.5 -128.5q0 -59 42 -88t126 -16v-131q-38 -10 -80 -10q-102 0 -162.5 55.5t-60.5 142.5q0 89 58 165t131 122h-697v1434h793v-187h-586v-411h539v-187h-539v-463h604v-186z" />
    <glyph glyph-name="eogonek" unicode="&#x119;" horiz-adv-x="1173" 
d="M596 1063q86 0 166 -27.5t147 -81.5t114 -128t67 -174.5t6 -213.5h-826q22 -131 116 -208.5t243 -77.5q85 0 157.5 30.5t114.5 85.5l154 -98q-108 -147 -310 -186q-68 -46 -109.5 -105.5t-41.5 -118.5t42 -88t126 -16v-131q-38 -10 -80 -10q-102 0 -162.5 55.5
t-60.5 142.5q0 78 44 146t107 116q-162 4 -285.5 78.5t-188 196t-64.5 268.5q0 148 67 273t188 198.5t269 73.5zM270 598h637q-19 134 -100 211.5t-211 77.5t-217 -79t-109 -210z" />
    <glyph glyph-name="Ecaron" unicode="&#x11a;" horiz-adv-x="1056" 
d="M350 186h604v-186h-811v1434h791v-187h-584v-411h539v-187h-539v-463zM688 1898h176l-225 -286h-178l-225 286h176l139 -190z" />
    <glyph glyph-name="ecaron" unicode="&#x11b;" horiz-adv-x="1173" 
d="M598 1063q107 0 204 -44t169.5 -122.5t107.5 -198.5t17 -260h-826q22 -131 116 -208.5t243 -77.5q85 0 157.5 30.5t114.5 85.5l154 -98q-69 -94 -179.5 -145.5t-246.5 -51.5q-167 0 -295.5 74t-195 197.5t-66.5 273.5q0 148 67 273t188.5 198.5t270.5 73.5zM270 598h637
q-19 135 -99 212t-210 77q-131 0 -218.5 -79t-109.5 -210zM725 1489h176l-225 -287h-178l-226 287h177l139 -191z" />
    <glyph glyph-name="Gcircumflex" unicode="&#x11c;" horiz-adv-x="1601" 
d="M840 774h639v-774h-131l-19 233q-157 -260 -508 -260q-209 0 -376.5 98t-260 268t-92.5 378t92.5 377t260 266.5t376.5 97.5q176 0 323 -69.5t247 -194.5l-172 -113q-69 87 -170.5 137t-227.5 50q-98 0 -182.5 -30.5t-146 -83t-105 -123t-65 -150.5t-21.5 -164t21.5 -164
t65 -150.5t105 -123t146 -83t182.5 -30.5q215 0 342.5 117.5t153.5 304.5h-477v186zM1133 1612h-177l-137 188l-139 -188h-176l225 286h178z" />
    <glyph glyph-name="gcircumflex" unicode="&#x11d;" horiz-adv-x="1263" 
d="M942 1038h188v-929q0 -113 -31 -206.5t-93.5 -165t-166.5 -111.5t-241 -40q-153 0 -280.5 56.5t-190.5 152.5l160 94q35 -51 114.5 -89t196.5 -38q177 0 260.5 99.5t83.5 265.5v80q-125 -178 -352 -178q-111 0 -209 44.5t-165 117.5t-105.5 166.5t-38.5 189.5t38.5 188.5
t105.5 165.5t165 117.5t209 44.5q226 0 352 -176v151zM608 205q148 0 241 96.5t93 245.5q0 148 -93 244t-241 96q-147 0 -245.5 -97t-98.5 -243q0 -147 98.5 -244.5t245.5 -97.5zM936 1202h-176l-137 189l-140 -189h-176l225 287h179z" />
    <glyph glyph-name="Gbreve" unicode="&#x11e;" horiz-adv-x="1601" 
d="M840 774h639v-774h-131l-19 233q-157 -260 -508 -260q-209 0 -376.5 98t-260 268t-92.5 378t92.5 377t260 266.5t376.5 97.5q176 0 323 -69.5t247 -194.5l-172 -113q-69 87 -170.5 137t-227.5 50q-98 0 -182.5 -30.5t-146 -83t-105 -123t-65 -150.5t-21.5 -164t21.5 -164
t65 -150.5t105 -123t146 -83t182.5 -30.5q215 0 342.5 117.5t153.5 304.5h-477v186zM971 1872h141q-5 -121 -84.5 -195.5t-208.5 -74.5t-209 74.5t-86 195.5h142q0 -52 38.5 -96.5t114.5 -44.5q75 0 113.5 44.5t38.5 96.5z" />
    <glyph glyph-name="gbreve" unicode="&#x11f;" horiz-adv-x="1263" 
d="M942 1038h188v-929q0 -113 -31 -206.5t-93.5 -165t-166.5 -111.5t-241 -40q-153 0 -280.5 56.5t-190.5 152.5l160 94q35 -51 114.5 -89t196.5 -38q177 0 260.5 99.5t83.5 265.5v80q-125 -178 -352 -178q-111 0 -209 44.5t-165 117.5t-105.5 166.5t-38.5 189.5t38.5 188.5
t105.5 165.5t165 117.5t209 44.5q226 0 352 -176v151zM608 205q148 0 241 96.5t93 245.5q0 148 -93 244t-241 96q-147 0 -245.5 -97t-98.5 -243q0 -147 98.5 -244.5t245.5 -97.5zM774 1462h141q-5 -121 -84 -195.5t-208 -74.5t-209 74.5t-86 195.5h141q0 -51 39 -96t115 -45
q75 0 113 44.5t38 96.5z" />
    <glyph glyph-name="Gdotaccent" unicode="&#x120;" horiz-adv-x="1601" 
d="M840 774h639v-774h-131l-19 233q-157 -260 -508 -260q-209 0 -376.5 98t-260 268t-92.5 378t92.5 377t260 266.5t376.5 97.5q176 0 323 -69.5t247 -194.5l-172 -113q-69 87 -170.5 137t-227.5 50q-98 0 -182.5 -30.5t-146 -83t-105 -123t-65 -150.5t-21.5 -164t21.5 -164
t65 -150.5t105 -123t146 -83t182.5 -30.5q215 0 342.5 117.5t153.5 304.5h-477v186zM797 1853q50 0 84 -33.5t34 -82.5q0 -50 -34.5 -84.5t-83.5 -34.5t-83 34.5t-34 84.5q0 49 33.5 82.5t83.5 33.5z" />
    <glyph glyph-name="gdotaccent" unicode="&#x121;" horiz-adv-x="1263" 
d="M942 1038h188v-929q0 -113 -31 -206.5t-93.5 -165t-166.5 -111.5t-241 -40q-153 0 -280.5 56.5t-190.5 152.5l160 94q35 -51 114.5 -89t196.5 -38q177 0 260.5 99.5t83.5 265.5v80q-125 -178 -352 -178q-111 0 -209 44.5t-165 117.5t-105.5 166.5t-38.5 189.5t38.5 188.5
t105.5 165.5t165 117.5t209 44.5q226 0 352 -176v151zM608 205q148 0 241 96.5t93 245.5q0 148 -93 244t-241 96q-147 0 -245.5 -97t-98.5 -243q0 -147 98.5 -244.5t245.5 -97.5zM621 1444q50 0 84 -34t34 -83q0 -50 -34.5 -84.5t-83.5 -34.5t-83 34.5t-34 84.5q0 49 34 83
t83 34z" />
    <glyph glyph-name="Gcommaaccent" unicode="&#x122;" horiz-adv-x="1601" 
d="M840 774h639v-774h-131l-19 233q-157 -260 -508 -260q-209 0 -376.5 98t-260 268t-92.5 378t92.5 377t260 266.5t376.5 97.5q176 0 323 -69.5t247 -194.5l-172 -113q-69 87 -170.5 137t-227.5 50q-98 0 -182.5 -30.5t-146 -83t-105 -123t-65 -150.5t-21.5 -164t21.5 -164
t65 -150.5t105 -123t146 -83t182.5 -30.5q215 0 342.5 117.5t153.5 304.5h-477v186zM713 -186h196l-155 -287h-148z" />
    <glyph glyph-name="gcommaaccent" unicode="&#x123;" horiz-adv-x="1263" 
d="M942 1038h188v-929q0 -113 -31 -206.5t-93.5 -165t-166.5 -111.5t-241 -40q-153 0 -280.5 56.5t-190.5 152.5l160 94q35 -51 114.5 -89t196.5 -38q177 0 260.5 99.5t83.5 265.5v80q-125 -178 -352 -178q-111 0 -209 44.5t-165 117.5t-105.5 166.5t-38.5 189.5t38.5 188.5
t105.5 165.5t165 117.5t209 44.5q226 0 352 -176v151zM608 205q148 0 241 96.5t93 245.5q0 148 -93 244t-241 96q-147 0 -245.5 -97t-98.5 -243q0 -147 98.5 -244.5t245.5 -97.5zM721 1202h-197l156 287h147z" />
    <glyph glyph-name="Hcircumflex" unicode="&#x124;" horiz-adv-x="1376" 
d="M1028 1434h205v-1434h-205v629h-680v-629h-205v1434h205v-617h680v617zM1001 1612h-176l-137 188l-139 -188h-176l225 286h178z" />
    <glyph glyph-name="hcircumflex" unicode="&#x125;" horiz-adv-x="1173" 
d="M641 1063q171 0 285 -123t114 -291v-649h-188v596q0 58 -13 107.5t-41.5 92t-80 67t-121.5 24.5t-125.5 -28t-87.5 -72.5t-48 -93.5t-16 -97v-596h-186v1434h186v-541q113 170 322 170zM817 1612h-176l-137 188l-139 -188h-177l226 286h178z" />
    <glyph glyph-name="Hbar" unicode="&#x126;" horiz-adv-x="1517" 
d="M1497 1221v-148h-192v-1073h-205v629h-680v-629h-207v1073h-193v148h193v213h207v-213h680v213h205v-213h192zM1100 817v256h-680v-256h680z" />
    <glyph glyph-name="hbar" unicode="&#x127;" horiz-adv-x="1173" 
d="M641 1026q171 0 285 -122.5t114 -291.5v-612h-186v559q0 58 -13 107.5t-41.5 92t-80 67t-121.5 24.5t-125.5 -28t-87 -72.5t-47.5 -93.5t-16 -97v-559h-187v1128h-143v111h143v195h187v-195h327v-111h-327v-272q113 170 319 170z" />
    <glyph glyph-name="Itilde" unicode="&#x128;" horiz-adv-x="491" 
d="M143 1434h205v-1434h-205v1434zM434 1812l123 -22q-24 -186 -174 -186q-53 0 -133.5 33.5t-116.5 33.5q-35 0 -52.5 -25t-21.5 -59l-122 23q29 186 176 186q48 0 128.5 -33.5t118.5 -33.5q65 0 74 83z" />
    <glyph glyph-name="itilde" unicode="&#x129;" horiz-adv-x="454" 
d="M133 0v1038h189v-1038h-189zM416 1403l123 -23q-24 -186 -174 -186q-53 0 -133.5 34t-116.5 34q-35 0 -52.5 -25t-21.5 -59l-123 22q29 186 176 186q48 0 129 -33.5t119 -33.5q64 0 74 84z" />
    <glyph glyph-name="Imacron" unicode="&#x12a;" horiz-adv-x="491" 
d="M143 1434h205v-1434h-205v1434zM-33 1800h559v-145h-559v145z" />
    <glyph glyph-name="imacron" unicode="&#x12b;" horiz-adv-x="454" 
d="M133 0v1038h189v-1038h-189zM-51 1391h559v-146h-559v146z" />
    <glyph glyph-name="Ibreve" unicode="&#x12c;" horiz-adv-x="491" 
d="M143 1434h205v-1434h-205v1434zM399 1872h142q-5 -121 -84.5 -195.5t-208.5 -74.5t-209 74.5t-86 195.5h141q0 -51 39 -96t115 -45q75 0 113 44.5t38 96.5z" />
    <glyph glyph-name="ibreve" unicode="&#x12d;" horiz-adv-x="454" 
d="M133 0v1038h189v-1038h-189zM381 1462h141q-5 -121 -84.5 -195.5t-208.5 -74.5t-209 74.5t-86 195.5h142q0 -52 38.5 -96.5t114.5 -44.5q75 0 113.5 44.5t38.5 96.5z" />
    <glyph glyph-name="Iogonek" unicode="&#x12e;" horiz-adv-x="491" 
d="M348 0q-73 -45 -120.5 -111.5t-47.5 -128.5q0 -59 42 -88t126 -16v-131q-38 -10 -80 -10q-102 0 -162.5 55.5t-60.5 142.5q0 89 58 165.5t130 121.5h-92v1434h207v-1434z" />
    <glyph glyph-name="iogonek" unicode="&#x12f;" horiz-adv-x="454" 
d="M135 0v1038h187v-1038q-72 -45 -120 -112t-48 -128q0 -59 42 -88t126 -16v-131q-38 -10 -80 -10q-101 0 -162.5 56t-61.5 142q0 89 58 165t131 122h-72zM227 1223q-43 0 -74.5 31t-31.5 75q0 43 31.5 75t74.5 32q44 0 75.5 -32t31.5 -75q0 -44 -31.5 -75t-75.5 -31z" />
    <glyph glyph-name="Idotaccent" unicode="&#x130;" horiz-adv-x="491" 
d="M143 1434h205v-1434h-205v1434zM246 1853q50 0 84.5 -33.5t34.5 -82.5t-34.5 -84t-84.5 -35q-49 0 -83 34.5t-34 84.5q0 49 33.5 82.5t83.5 33.5z" />
    <glyph glyph-name="dotlessi" unicode="&#x131;" horiz-adv-x="454" 
d="M133 0v1038h189v-1038h-189z" />
    <glyph glyph-name="IJ" unicode="&#x132;" horiz-adv-x="1593" 
d="M143 1434h205v-1434h-205v1434zM1245 1434h205v-971q0 -109 -26 -196t-80 -154t-146.5 -103.5t-218.5 -36.5q-216 0 -344.5 112.5t-142.5 289.5l206 39q3 -34 13 -66.5t32 -66.5t52 -58.5t78 -40.5t106 -16q266 0 266 297v971z" />
    <glyph glyph-name="ij" unicode="&#x133;" horiz-adv-x="884" 
d="M133 0v1038h189v-1038h-189zM227 1223q-44 0 -75 31t-31 75q0 43 31 75t75 32t75.5 -32t31.5 -75q0 -44 -31.5 -75t-75.5 -31zM565 18v1020h187v-1056q0 -157 -91 -259t-270 -102q-29 0 -69 4v166q73 -2 122 13t74.5 47t36 71.5t10.5 95.5zM657 1223q-43 0 -74.5 31
t-31.5 75q0 43 31.5 75t74.5 32q44 0 75.5 -32t31.5 -75q0 -44 -31.5 -75t-75.5 -31z" />
    <glyph glyph-name="Jcircumflex" unicode="&#x134;" horiz-adv-x="1163" 
d="M815 1434h205v-971q0 -109 -26 -196t-80 -154t-146.5 -103.5t-218.5 -36.5q-216 0 -345 112.5t-143 289.5l207 39q3 -34 13 -66.5t32 -66.5t52 -58.5t78 -40.5t106 -16q266 0 266 297v971zM1223 1612h-176l-138 188l-139 -188h-176l225 286h178z" />
    <glyph glyph-name="jcircumflex" unicode="&#x135;" horiz-adv-x="454" 
d="M135 18v1020h187v-1056q0 -157 -91 -259t-270 -102q-30 0 -70 4v166q140 -4 192 54t52 173zM543 1202h-176l-138 189l-139 -189h-176l225 287h178z" />
    <glyph glyph-name="Kcommaaccent" unicode="&#x136;" horiz-adv-x="1234" 
d="M1194 0h-264l-582 670v-670h-205v1434h205v-686l549 686h244l-576 -709zM541 -186h196l-155 -287h-148z" />
    <glyph glyph-name="kcommaaccent" unicode="&#x137;" horiz-adv-x="1028" 
d="M520 553l467 -553h-244l-424 498v-498h-186v1434h186v-859l377 463h228zM453 -186h196l-155 -287h-148z" />
    <glyph glyph-name="kgreenlandic" unicode="&#x138;" horiz-adv-x="1028" 
d="M520 553l467 -553h-244l-424 498v-498h-186v1038h186v-463l377 463h228z" />
    <glyph glyph-name="Lacute" unicode="&#x139;" horiz-adv-x="1019" 
d="M348 186h590v-186h-795v1434h205v-1248zM324 1898h200l-198 -286h-138z" />
    <glyph glyph-name="lacute" unicode="&#x13a;" horiz-adv-x="452" 
d="M133 1434h186v-1434h-186v1434zM305 1898h201l-199 -286h-137z" />
    <glyph glyph-name="Lcommaaccent" unicode="&#x13b;" horiz-adv-x="1019" 
d="M348 186h590v-186h-795v1434h205v-1248zM455 -186h196l-155 -287h-148z" />
    <glyph glyph-name="lcommaaccent" unicode="&#x13c;" horiz-adv-x="452" 
d="M133 1434h186v-1434h-186v1434zM121 -186h196l-155 -287h-148z" />
    <glyph glyph-name="Lcaron" unicode="&#x13d;" horiz-adv-x="1019" 
d="M604 1434h197l-156 -287h-147zM348 186h590v-186h-795v1434h205v-1248z" />
    <glyph glyph-name="lcaron" unicode="&#x13e;" horiz-adv-x="577" 
d="M575 1434h197l-156 -287h-147zM133 1434h186v-1434h-186v1434z" />
    <glyph glyph-name="Ldot" unicode="&#x13f;" horiz-adv-x="1019" 
d="M694 551q-52 0 -88.5 37t-36.5 90q0 51 36.5 88t88.5 37t88.5 -37t36.5 -88q0 -53 -36.5 -90t-88.5 -37zM348 186h590v-186h-795v1434h205v-1248z" />
    <glyph glyph-name="ldot" unicode="&#x140;" horiz-adv-x="786" 
d="M621 803q52 0 88 -37t36 -88q0 -53 -36 -90t-88 -37t-88.5 37t-36.5 90q0 51 36.5 88t88.5 37zM133 1434h186v-1434h-186v1434z" />
    <glyph glyph-name="Lslash" unicode="&#x141;" horiz-adv-x="1107" 
d="M438 186h588v-186h-793v483l-143 -80l-70 123l213 119v789h205v-672l273 153l69 -122l-342 -193v-414z" />
    <glyph glyph-name="lslash" unicode="&#x142;" horiz-adv-x="624" 
d="M614 836l-208 -125v-711h-187v596l-151 -92l-58 94l209 127v709h187v-596l151 92z" />
    <glyph glyph-name="Nacute" unicode="&#x143;" horiz-adv-x="1413" 
d="M1065 1434h205v-1434h-178l-744 1057v-1057h-205v1434h179l743 -1057v1057zM776 1898h201l-199 -286h-137z" />
    <glyph glyph-name="nacute" unicode="&#x144;" 
d="M641 1063q171 0 284 -123t113 -291v-649h-186v596q0 58 -13 107.5t-41.5 92t-80 67t-121.5 24.5t-125.5 -28t-87.5 -72.5t-48 -93.5t-16 -97v-596h-186v1038h186v-145q113 170 322 170zM635 1489h201l-199 -287h-137z" />
    <glyph glyph-name="Ncommaaccent" unicode="&#x145;" horiz-adv-x="1413" 
d="M1065 1434h205v-1434h-178l-744 1057v-1057h-205v1434h179l743 -1057v1057zM621 -186h196l-155 -287h-148z" />
    <glyph glyph-name="ncommaaccent" unicode="&#x146;" 
d="M641 1063q171 0 284 -123t113 -291v-649h-186v596q0 58 -13 107.5t-41.5 92t-80 67t-121.5 24.5t-125.5 -28t-87.5 -72.5t-48 -93.5t-16 -97v-596h-186v1038h186v-145q113 170 322 170zM520 -186h197l-156 -287h-147z" />
    <glyph glyph-name="Ncaron" unicode="&#x147;" horiz-adv-x="1413" 
d="M1065 1434h205v-1434h-178l-744 1057v-1057h-205v1434h179l743 -1057v1057zM846 1898h176l-225 -286h-179l-225 286h176l140 -190z" />
    <glyph glyph-name="ncaron" unicode="&#x148;" 
d="M641 1063q171 0 284 -123t113 -291v-649h-186v596q0 58 -13 107.5t-41.5 92t-80 67t-121.5 24.5t-125.5 -28t-87.5 -72.5t-48 -93.5t-16 -97v-596h-186v1038h186v-145q113 170 322 170zM723 1489h176l-225 -287h-178l-226 287h176l140 -191z" />
    <glyph glyph-name="napostrophe" unicode="&#x149;" horiz-adv-x="1218" 
d="M686 1063q115 0 207.5 -58t142 -152t49.5 -204v-649h-186v596q0 58 -13 107.5t-41.5 92t-80 67t-121.5 24.5t-125.5 -28t-87 -72.5t-47.5 -93.5t-16 -97v-596h-187v1038h187v-145q113 170 319 170zM96 1434h199l-158 -287h-147z" />
    <glyph glyph-name="Eng" unicode="&#x14a;" horiz-adv-x="1413" 
d="M1065 1434h205v-1407q0 -441 -348 -441q-44 0 -91 6v191q73 -6 119 6t71 46.5t34 80.5t10 121l-717 1020v-1057h-205v1434h179l743 -1057v1057z" />
    <glyph glyph-name="eng" unicode="&#x14b;" 
d="M639 1063q115 0 207.5 -58t142 -152t49.5 -204v-649q0 -159 -89.5 -259.5t-268.5 -100.5q-26 0 -72 4v166q140 -4 192 54t52 173v559q0 58 -13 107.5t-41.5 92t-80 67t-121.5 24.5t-125.5 -28t-87.5 -72.5t-48 -93.5t-16 -97v-596h-186v1038h186v-145q113 170 320 170z
" />
    <glyph glyph-name="Omacron" unicode="&#x14c;" horiz-adv-x="1640" 
d="M821 1458q208 0 375 -97.5t259.5 -266.5t92.5 -377t-92.5 -378t-259.5 -268t-375 -98q-209 0 -376.5 98t-260 268t-92.5 378t92.5 377t260 266.5t376.5 97.5zM821 166q121 0 221.5 46.5t164.5 124.5t99 176t35 204t-35 204t-99 176t-164.5 124.5t-221.5 46.5
t-221.5 -46.5t-164.5 -124.5t-99 -176t-35 -204t35 -204t99 -176t164.5 -124.5t221.5 -46.5zM541 1800h559v-145h-559v145z" />
    <glyph glyph-name="omacron" unicode="&#x14d;" horiz-adv-x="1232" 
d="M616 1063q115 0 217 -43.5t173.5 -117t113 -173.5t41.5 -211t-41.5 -211t-113 -173.5t-173.5 -117t-217 -43.5q-153 0 -278.5 73.5t-195.5 198.5t-70 273t70 273t195.5 198.5t278.5 73.5zM616 152q154 0 254.5 104t100.5 262q0 160 -100.5 264.5t-254.5 104.5
q-153 0 -252.5 -104.5t-99.5 -264.5q0 -159 99.5 -262.5t252.5 -103.5zM338 1391h559v-146h-559v146z" />
    <glyph glyph-name="Obreve" unicode="&#x14e;" horiz-adv-x="1640" 
d="M821 1458q208 0 375 -97.5t259.5 -266.5t92.5 -377t-92.5 -378t-259.5 -268t-375 -98q-209 0 -376.5 98t-260 268t-92.5 378t92.5 377t260 266.5t376.5 97.5zM821 166q121 0 221.5 46.5t164.5 124.5t99 176t35 204t-35 204t-99 176t-164.5 124.5t-221.5 46.5
t-221.5 -46.5t-164.5 -124.5t-99 -176t-35 -204t35 -204t99 -176t164.5 -124.5t221.5 -46.5zM973 1872h141q-5 -121 -84.5 -195.5t-208.5 -74.5t-209 74.5t-86 195.5h142q0 -52 38.5 -96.5t114.5 -44.5q75 0 113.5 44.5t38.5 96.5z" />
    <glyph glyph-name="obreve" unicode="&#x14f;" horiz-adv-x="1232" 
d="M616 1063q115 0 217 -43.5t173.5 -117t113 -173.5t41.5 -211t-41.5 -211t-113 -173.5t-173.5 -117t-217 -43.5q-153 0 -278.5 73.5t-195.5 198.5t-70 273t70 273t195.5 198.5t278.5 73.5zM616 152q154 0 254.5 104t100.5 262q0 160 -100.5 264.5t-254.5 104.5
q-153 0 -252.5 -104.5t-99.5 -264.5q0 -159 99.5 -262.5t252.5 -103.5zM768 1462h141q-5 -121 -84.5 -195.5t-208.5 -74.5t-208.5 74.5t-85.5 195.5h141q0 -52 38.5 -96.5t114.5 -44.5q75 0 113.5 44.5t38.5 96.5z" />
    <glyph glyph-name="Ohungarumlaut" unicode="&#x150;" horiz-adv-x="1640" 
d="M821 1458q208 0 375 -97.5t259.5 -266.5t92.5 -377t-92.5 -378t-259.5 -268t-375 -98q-209 0 -376.5 98t-260 268t-92.5 378t92.5 377t260 266.5t376.5 97.5zM821 166q121 0 221.5 46.5t164.5 124.5t99 176t35 204t-35 204t-99 176t-164.5 124.5t-221.5 46.5
t-221.5 -46.5t-164.5 -124.5t-99 -176t-35 -204t35 -204t99 -176t164.5 -124.5t221.5 -46.5zM561 1612l135 286h201l-199 -286h-137zM1040 1898h203l-199 -286h-137z" />
    <glyph glyph-name="ohungarumlaut" unicode="&#x151;" horiz-adv-x="1232" 
d="M616 1063q115 0 217 -43.5t173.5 -117t113 -173.5t41.5 -211t-41.5 -211t-113 -173.5t-173.5 -117t-217 -43.5q-153 0 -278.5 73.5t-195.5 198.5t-70 273t70 273t195.5 198.5t278.5 73.5zM616 152q154 0 254.5 104t100.5 262q0 160 -100.5 264.5t-254.5 104.5
q-153 0 -252.5 -104.5t-99.5 -264.5q0 -159 99.5 -262.5t252.5 -103.5zM356 1202l136 287h200l-198 -287h-138zM836 1489h202l-198 -287h-138z" />
    <glyph glyph-name="OE" unicode="&#x152;" horiz-adv-x="1916" 
d="M1210 186h605v-186h-957q-178 0 -323.5 55t-242 151.5t-148.5 227.5t-52 283q0 151 52 282t148.5 227.5t242 152t323.5 55.5h938v-187h-586v-411h539v-187h-539v-463zM1004 186v1061h-146q-255 0 -407 -144t-152 -386t152 -386.5t407 -144.5h146z" />
    <glyph glyph-name="oe" unicode="&#x153;" horiz-adv-x="2037" 
d="M1475 1063q107 0 202 -44t164 -122.5t102 -198.5t15 -260h-807q21 -130 107.5 -208t232.5 -78q85 0 157.5 30.5t114.5 85.5l154 -98q-69 -94 -179.5 -145.5t-246.5 -51.5q-151 0 -262.5 61.5t-175.5 168.5q-71 -106 -184.5 -168t-252.5 -62q-153 0 -278.5 73.5
t-195.5 198.5t-70 273t70 273t195.5 198.5t278.5 73.5q141 0 255.5 -62.5t183.5 -169.5q67 108 175 170t245 62zM616 152q154 0 254.5 104t100.5 262q0 160 -100.5 264.5t-254.5 104.5q-152 0 -252 -104.5t-100 -264.5q0 -158 100 -262t252 -104zM1151 598h618
q-18 136 -92 212.5t-202 76.5q-131 0 -217 -79t-107 -210z" />
    <glyph glyph-name="Racute" unicode="&#x154;" horiz-adv-x="1224" 
d="M1184 0h-246l-297 555q-16 -2 -55 -2h-238v-553h-205v1434h443q239 0 377.5 -124.5t138.5 -316.5q0 -132 -67 -234.5t-191 -156.5zM348 739h238q147 0 226 68t79 186t-79 186t-226 68h-238v-508zM631 1898h200l-198 -286h-137z" />
    <glyph glyph-name="racute" unicode="&#x155;" horiz-adv-x="737" 
d="M319 858q50 100 145.5 152.5t201.5 52.5v-211q-88 11 -153.5 -8.5t-101.5 -56t-57.5 -94.5t-28 -110.5t-6.5 -117.5v-465h-186v1038h186v-180zM408 1489h200l-198 -287h-138z" />
    <glyph glyph-name="Rcommaaccent" unicode="&#x156;" horiz-adv-x="1224" 
d="M1184 0h-246l-297 555q-16 -2 -55 -2h-238v-553h-205v1434h443q239 0 377.5 -124.5t138.5 -316.5q0 -132 -67 -234.5t-191 -156.5zM348 739h238q147 0 226 68t79 186t-79 186t-226 68h-238v-508zM557 -186h197l-156 -287h-147z" />
    <glyph glyph-name="rcommaaccent" unicode="&#x157;" horiz-adv-x="737" 
d="M319 858q50 100 145.5 152.5t201.5 52.5v-211q-88 11 -153.5 -8.5t-101.5 -56t-57.5 -94.5t-28 -110.5t-6.5 -117.5v-465h-186v1038h186v-180zM121 -186h196l-155 -287h-148z" />
    <glyph glyph-name="Rcaron" unicode="&#x158;" horiz-adv-x="1224" 
d="M1184 0h-246l-297 555q-16 -2 -55 -2h-238v-553h-205v1434h443q239 0 377.5 -124.5t138.5 -316.5q0 -132 -67 -234.5t-191 -156.5zM348 739h238q147 0 226 68t79 186t-79 186t-226 68h-238v-508zM739 1898h176l-225 -286h-178l-225 286h176l139 -190z" />
    <glyph glyph-name="rcaron" unicode="&#x159;" horiz-adv-x="737" 
d="M319 858q50 100 145.5 152.5t201.5 52.5v-211q-88 11 -153.5 -8.5t-101.5 -56t-57.5 -94.5t-28 -110.5t-6.5 -117.5v-465h-186v1038h186v-180zM508 1489h176l-225 -287h-178l-226 287h176l140 -191z" />
    <glyph glyph-name="Sacute" unicode="&#x15a;" horiz-adv-x="1144" 
d="M680 795q215 -51 309 -140t94 -258q0 -79 -28 -151.5t-85 -135t-158.5 -100t-233.5 -37.5q-114 0 -216 33t-184.5 108t-116.5 183l203 63q17 -78 101 -136t217 -58q125 0 208.5 55t83.5 160q0 36 -9 65t-21 49.5t-38 38.5t-46.5 28.5t-60.5 22.5t-66.5 18t-78 17.5
t-81.5 18.5q-105 25 -176.5 66t-109.5 95.5t-53 113t-15 133.5q0 119 62.5 213.5t170.5 146t240 51.5q157 0 273.5 -81t160.5 -228l-201 -49q-25 73 -87 120.5t-167 47.5q-106 0 -176.5 -60.5t-70.5 -160.5q0 -50 19 -88.5t46 -61.5t75 -42.5t87 -29.5t101 -24q7 -1 10 -2
t8.5 -2t9.5 -2zM621 1898h200l-198 -286h-138z" />
    <glyph glyph-name="sacute" unicode="&#x15b;" horiz-adv-x="927" 
d="M528 602q188 -39 263 -105.5t75 -185.5q0 -70 -25.5 -130.5t-74 -107.5t-127.5 -73.5t-180 -26.5q-159 0 -273.5 62t-144.5 176l182 61q15 -51 71 -89t169 -38q101 0 156 39.5t55 108.5q0 29 -14.5 51t-35.5 35t-56.5 23.5t-65 16t-74 13.5t-72.5 14q-145 32 -211.5 103
t-66.5 188q0 143 107.5 234.5t275.5 91.5q130 0 228.5 -64t125.5 -176l-174 -47q-15 49 -65.5 84t-131.5 35q-77 0 -127.5 -39.5t-50.5 -103.5q0 -24 7.5 -43.5t24.5 -33.5t33 -23.5t45 -17t47.5 -12t53.5 -11t51 -9.5zM481 1489h201l-199 -287h-137z" />
    <glyph glyph-name="Scircumflex" unicode="&#x15c;" horiz-adv-x="1142" 
d="M680 795q215 -51 309 -140t94 -258q0 -79 -28 -151.5t-85 -135t-158.5 -100t-233.5 -37.5q-114 0 -216 33t-184.5 108t-116.5 183l203 63q17 -78 101 -136t217 -58q125 0 208.5 55t83.5 160q0 36 -9 65t-21 49.5t-38 38.5t-46.5 28.5t-60.5 22.5t-66.5 18t-78 17.5
t-81.5 18.5q-105 25 -176.5 66t-109.5 95.5t-53 113t-15 133.5q0 119 62.5 213.5t170.5 146t240 51.5q157 0 273.5 -81t160.5 -228l-201 -49q-25 73 -87 120.5t-167 47.5q-106 0 -176.5 -60.5t-70.5 -160.5q0 -50 19 -88.5t46 -61.5t75 -42.5t87 -29.5t101 -24q7 -1 10 -2
t8.5 -2t9.5 -2zM887 1612h-176l-138 188l-139 -188h-176l225 286h179z" />
    <glyph glyph-name="scircumflex" unicode="&#x15d;" horiz-adv-x="927" 
d="M528 602q188 -39 263 -105.5t75 -185.5q0 -70 -25.5 -130.5t-74 -107.5t-127.5 -73.5t-180 -26.5q-159 0 -273.5 62t-144.5 176l182 61q15 -51 71 -89t169 -38q101 0 156 39.5t55 108.5q0 29 -14.5 51t-35.5 35t-56.5 23.5t-65 16t-74 13.5t-72.5 14q-145 32 -211.5 103
t-66.5 188q0 143 107.5 234.5t275.5 91.5q130 0 228.5 -64t125.5 -176l-174 -47q-15 49 -65.5 84t-131.5 35q-77 0 -127.5 -39.5t-50.5 -103.5q0 -24 7.5 -43.5t24.5 -33.5t33 -23.5t45 -17t47.5 -12t53.5 -11t51 -9.5zM768 1202h-176l-137 189l-140 -189h-176l226 287h178z
" />
    <glyph glyph-name="Scedilla" unicode="&#x15e;" horiz-adv-x="1142" 
d="M1081 397q0 -78 -27 -149t-82.5 -133t-152.5 -100.5t-223 -41.5l-37 -75q100 10 168 -38.5t68 -152.5q0 -97 -69 -160t-183 -63q-101 0 -178 45l63 115q52 -27 102 -27q62 0 98 28t36 76q0 44 -27.5 68.5t-75.5 24.5q-49 0 -90 -23l-49 64l63 125q-153 20 -267.5 99
t-156.5 218l201 63q19 -79 102 -136.5t218 -57.5q80 0 144.5 22.5t106 72t41.5 120.5q0 36 -9 65t-21.5 49.5t-38 38.5t-47 28.5t-61 22.5t-66.5 18t-78 17.5t-82 18.5q-105 25 -176.5 66t-108.5 95.5t-52 113t-15 133.5q0 180 134.5 295.5t336.5 115.5q158 0 275 -81
t159 -228l-201 -49q-57 168 -252 168q-107 0 -178 -60.5t-71 -160.5q0 -50 19 -88.5t46 -61.5t75 -42.5t87 -29.5t101 -24q7 -1 10 -2t8.5 -2t9.5 -2q215 -51 309 -140t94 -258z" />
    <glyph glyph-name="scedilla" unicode="&#x15f;" horiz-adv-x="927" 
d="M866 311q0 -140 -97.5 -234.5t-279.5 -101.5l-38 -77q100 10 167.5 -38.5t67.5 -152.5q0 -97 -68.5 -160t-181.5 -63q-101 0 -178 45l64 115q45 -27 100 -27q62 0 97.5 28t35.5 76q0 44 -26.5 68.5t-75.5 24.5q-50 0 -91 -23l-47 64l62 125q-130 14 -220 74t-116 157
l182 61q15 -51 71 -89t169 -38q101 0 156 39.5t55 108.5q0 29 -14.5 51t-35.5 35t-56.5 23.5t-65 16t-74 13.5t-72.5 14q-145 32 -211.5 103t-66.5 188q0 143 106.5 234.5t276.5 91.5q130 0 228.5 -64t125.5 -176l-174 -47q-15 49 -65.5 84t-131.5 35q-77 0 -127.5 -39.5
t-50.5 -103.5q0 -24 7.5 -43.5t24.5 -33.5t33 -23.5t45 -17t47.5 -12t53.5 -11t51 -9.5q188 -39 263 -105.5t75 -185.5z" />
    <glyph glyph-name="Scaron" unicode="&#x160;" horiz-adv-x="1144" 
d="M680 795q215 -51 309 -140t94 -258q0 -79 -28 -151.5t-85 -135t-158.5 -100t-233.5 -37.5q-114 0 -216 33t-184.5 108t-116.5 183l203 63q17 -78 101 -136t217 -58q125 0 208.5 55t83.5 160q0 36 -9 65t-21 49.5t-38 38.5t-46.5 28.5t-60.5 22.5t-66.5 18t-78 17.5
t-81.5 18.5q-105 25 -176.5 66t-109.5 95.5t-53 113t-15 133.5q0 119 62.5 213.5t170.5 146t240 51.5q157 0 273.5 -81t160.5 -228l-201 -49q-25 73 -87 120.5t-167 47.5q-106 0 -176.5 -60.5t-70.5 -160.5q0 -50 19 -88.5t46 -61.5t75 -42.5t87 -29.5t101 -24q7 -1 10 -2
t8.5 -2t9.5 -2zM711 1898h176l-225 -286h-179l-225 286h176l139 -190z" />
    <glyph glyph-name="scaron" unicode="&#x161;" horiz-adv-x="927" 
d="M528 602q188 -39 263 -105.5t75 -185.5q0 -70 -25.5 -130.5t-74 -107.5t-127.5 -73.5t-180 -26.5q-159 0 -273.5 62t-144.5 176l182 61q15 -51 71 -89t169 -38q101 0 156 39.5t55 108.5q0 29 -14.5 51t-35.5 35t-56.5 23.5t-65 16t-74 13.5t-72.5 14q-145 32 -211.5 103
t-66.5 188q0 143 107.5 234.5t275.5 91.5q130 0 228.5 -64t125.5 -176l-174 -47q-15 49 -65.5 84t-131.5 35q-77 0 -127.5 -39.5t-50.5 -103.5q0 -24 7.5 -43.5t24.5 -33.5t33 -23.5t45 -17t47.5 -12t53.5 -11t51 -9.5zM592 1489h176l-225 -287h-178l-226 287h176l140 -191z
" />
    <glyph glyph-name="Tcommaaccent" unicode="&#x162;" horiz-adv-x="1093" 
d="M1012 1434v-187h-363v-1247h-205v1247h-362v187h930zM440 -186h197l-156 -287h-147z" />
    <glyph glyph-name="tcommaaccent" unicode="&#x163;" horiz-adv-x="751" 
d="M649 860h-239v-454v-43t1 -39t3.5 -36.5t6.5 -31.5t10 -28.5t14.5 -22.5t20.5 -20t27.5 -13.5t35.5 -9t44 -2.5q30 0 76 4v-164q-45 -10 -100 -10q-326 0 -326 348v522h-162v178h162v217h187v-217h239v-178zM309 -186h197l-156 -287h-147z" />
    <glyph glyph-name="Tcaron" unicode="&#x164;" horiz-adv-x="1093" 
d="M1012 1434v-187h-363v-1247h-205v1247h-362v187h930zM684 1898h176l-225 -286h-178l-226 286h177l139 -190z" />
    <glyph glyph-name="tcaron" unicode="&#x165;" horiz-adv-x="751" 
d="M743 1458h197l-156 -287h-147zM649 860h-239v-454v-43t1 -39t3.5 -36.5t6.5 -31.5t10 -28.5t14.5 -22.5t20.5 -20t27.5 -13.5t35.5 -9t44 -2.5q30 0 76 4v-164q-45 -10 -100 -10q-326 0 -326 348v522h-162v178h162v217h187v-217h239v-178z" />
    <glyph glyph-name="Tbar" unicode="&#x166;" horiz-adv-x="1093" 
d="M1012 1247h-363v-385h264v-145h-264v-717h-205v717h-264v145h264v385h-362v187h930v-187z" />
    <glyph glyph-name="tbar" unicode="&#x167;" horiz-adv-x="751" 
d="M649 860h-241v-170h241v-108h-241v-176q0 -39 0.5 -60.5t3.5 -52t9.5 -47t18 -35.5t29 -28.5t43 -16t59.5 -6.5q32 0 78 4v-164q-45 -10 -100 -10q-168 0 -248 87.5t-80 260.5v244h-160v108h160v170h-160v178h160v217h187v-217h241v-178z" />
    <glyph glyph-name="Utilde" unicode="&#x168;" horiz-adv-x="1376" 
d="M1026 1434h207v-889q0 -278 -141.5 -425t-403.5 -147q-264 0 -404.5 146.5t-140.5 425.5v889h205v-852q0 -220 88 -317t252 -97q163 0 250.5 97t87.5 317v852zM877 1812l122 -22q-24 -186 -174 -186q-53 0 -133.5 33.5t-116.5 33.5q-35 0 -52 -25t-21 -59l-123 23
q29 186 176 186q47 0 128 -33.5t120 -33.5q65 0 74 83z" />
    <glyph glyph-name="utilde" unicode="&#x169;" 
d="M852 1038h186v-1038h-186v143q-113 -170 -320 -170q-171 0 -285 123t-114 291v651h186v-596q0 -58 13 -107.5t41.5 -92t80 -66.5t121.5 -24t125.5 27.5t87.5 71.5t48 93t16 98v596zM774 1403l123 -23q-24 -186 -174 -186q-53 0 -133.5 34t-116.5 34q-35 0 -52.5 -25
t-21.5 -59l-123 22q29 186 177 186q47 0 128 -33.5t119 -33.5q64 0 74 84z" />
    <glyph glyph-name="Umacron" unicode="&#x16a;" horiz-adv-x="1376" 
d="M1026 1434h207v-889q0 -278 -141.5 -425t-403.5 -147q-264 0 -404.5 146.5t-140.5 425.5v889h205v-852q0 -220 88 -317t252 -97q163 0 250.5 97t87.5 317v852zM410 1800h559v-145h-559v145z" />
    <glyph glyph-name="umacron" unicode="&#x16b;" 
d="M852 1038h186v-1038h-186v143q-113 -170 -320 -170q-171 0 -285 123t-114 291v651h186v-596q0 -58 13 -107.5t41.5 -92t80 -66.5t121.5 -24t125.5 27.5t87.5 71.5t48 93t16 98v596zM307 1391h559v-146h-559v146z" />
    <glyph glyph-name="Ubreve" unicode="&#x16c;" horiz-adv-x="1376" 
d="M1026 1434h207v-889q0 -278 -141.5 -425t-403.5 -147q-264 0 -404.5 146.5t-140.5 425.5v889h205v-852q0 -220 88 -317t252 -97q163 0 250.5 97t87.5 317v852zM842 1872h141q-5 -121 -84.5 -195.5t-208.5 -74.5t-209 74.5t-86 195.5h142q0 -52 38.5 -96.5t114.5 -44.5
q75 0 113.5 44.5t38.5 96.5z" />
    <glyph glyph-name="ubreve" unicode="&#x16d;" 
d="M852 1038h186v-1038h-186v143q-113 -170 -320 -170q-171 0 -285 123t-114 291v651h186v-596q0 -58 13 -107.5t41.5 -92t80 -66.5t121.5 -24t125.5 27.5t87.5 71.5t48 93t16 98v596zM737 1462h142q-5 -121 -84.5 -195.5t-208.5 -74.5t-209 74.5t-86 195.5h141
q0 -51 39 -96t115 -45q75 0 113 44.5t38 96.5z" />
    <glyph glyph-name="Uring" unicode="&#x16e;" horiz-adv-x="1376" 
d="M1026 1434h207v-889q0 -278 -141.5 -425t-403.5 -147q-264 0 -404.5 146.5t-140.5 425.5v889h205v-852q0 -220 88 -317t252 -97q163 0 250.5 97t87.5 317v852zM688 1978q93 0 158 -65t65 -158t-65 -158t-158 -65q-92 0 -157.5 65.5t-65.5 157.5t65.5 157.5t157.5 65.5z
M688 1640q47 0 81 34t34 81q0 46 -34 79.5t-81 33.5q-46 0 -79.5 -33.5t-33.5 -79.5q0 -47 33.5 -81t79.5 -34z" />
    <glyph glyph-name="uring" unicode="&#x16f;" 
d="M852 1038h186v-1038h-186v143q-113 -170 -320 -170q-171 0 -285 123t-114 291v651h186v-596q0 -58 13 -107.5t41.5 -92t80 -66.5t121.5 -24t125.5 27.5t87.5 71.5t48 93t16 98v596zM586 1589q93 0 158 -65t65 -158t-65 -158t-158 -65q-92 0 -158 65.5t-66 157.5t66 157.5
t158 65.5zM586 1251q47 0 80.5 34t33.5 81q0 46 -33.5 79.5t-80.5 33.5q-46 0 -79.5 -33.5t-33.5 -79.5q0 -47 33.5 -81t79.5 -34z" />
    <glyph glyph-name="Uhungarumlaut" unicode="&#x170;" horiz-adv-x="1376" 
d="M1026 1434h207v-889q0 -278 -141.5 -425t-403.5 -147q-264 0 -404.5 146.5t-140.5 425.5v889h205v-852q0 -220 88 -317t252 -97q163 0 250.5 97t87.5 317v852zM428 1612l135 286h201l-199 -286h-137zM907 1898h203l-199 -286h-137z" />
    <glyph glyph-name="uhungarumlaut" unicode="&#x171;" 
d="M852 1038h186v-1038h-186v143q-113 -170 -320 -170q-171 0 -285 123t-114 291v651h186v-596q0 -58 13 -107.5t41.5 -92t80 -66.5t121.5 -24t125.5 27.5t87.5 71.5t48 93t16 98v596zM326 1202l135 287h201l-199 -287h-137zM805 1489h203l-199 -287h-137z" />
    <glyph glyph-name="Uogonek" unicode="&#x172;" horiz-adv-x="1376" 
d="M1026 1434h205v-889q0 -209 -80 -344t-233 -191q-71 -44 -118.5 -115.5t-47.5 -134.5q0 -59 42 -88t126 -16v-131q-38 -10 -80 -10q-102 0 -163 55.5t-61 142.5q0 79 46.5 149t111.5 118q-51 -7 -88 -7q-262 0 -402.5 146.5t-140.5 425.5v889h205v-852q0 -220 87.5 -317
t250.5 -97q164 0 252 97t88 317v852z" />
    <glyph glyph-name="uogonek" unicode="&#x173;" 
d="M1040 0q-73 -45 -120.5 -111.5t-47.5 -128.5q0 -59 42 -88t126 -16v-131q-38 -10 -79 -10q-102 0 -163 55.5t-61 142.5q0 89 58 165t131 122h-72v143q-113 -170 -322 -170q-171 0 -285 123t-114 291v651h189v-596q0 -58 13 -107.5t41.5 -92t80 -66.5t121.5 -24
t125.5 27.5t87 71.5t47.5 93t16 98v596h186v-1038z" />
    <glyph glyph-name="Wcircumflex" unicode="&#x174;" horiz-adv-x="2023" 
d="M1759 1434h223l-462 -1434h-195l-313 1016l-316 -1016h-194l-461 1434h221l338 -1112l340 1112h141l340 -1112zM1327 1612h-176l-137 188l-140 -188h-176l226 286h178z" />
    <glyph glyph-name="wcircumflex" unicode="&#x175;" horiz-adv-x="1585" 
d="M1337 1038h207l-348 -1038h-176l-227 707l-226 -707h-176l-350 1038h209l231 -766l244 766h135l244 -766zM1108 1202h-176l-137 189l-140 -189h-176l226 287h178z" />
    <glyph glyph-name="Ycircumflex" unicode="&#x176;" horiz-adv-x="1355" 
d="M1315 1434l-535 -897v-537h-205v537l-534 897h229l408 -713l405 713h232zM993 1612h-176l-137 188l-139 -188h-176l225 286h178z" />
    <glyph glyph-name="ycircumflex" unicode="&#x177;" horiz-adv-x="1099" 
d="M852 1038h207l-567 -1433h-201l184 448l-434 985h207l319 -749zM864 1202h-176l-137 189l-139 -189h-176l225 287h178z" />
    <glyph glyph-name="Ydieresis" unicode="&#x178;" horiz-adv-x="1355" 
d="M1315 1434l-535 -897v-537h-205v537l-534 897h229l408 -713l405 713h232zM475 1853q50 0 84.5 -33.5t34.5 -82.5t-35 -84t-84 -35t-83 34.5t-34 84.5q0 49 33.5 82.5t83.5 33.5zM881 1853q50 0 84 -33.5t34 -82.5q0 -50 -34.5 -84.5t-83.5 -34.5q-48 0 -82.5 35t-34.5 84
t34.5 82.5t82.5 33.5z" />
    <glyph glyph-name="Zacute" unicode="&#x179;" horiz-adv-x="1175" 
d="M348 186h746v-186h-1012v150l745 1097h-710v187h958v-152zM616 1898h201l-199 -286h-137z" />
    <glyph glyph-name="zacute" unicode="&#x17a;" horiz-adv-x="970" 
d="M328 176h551v-176h-787v152l531 708h-514v178h751v-151zM514 1489h201l-199 -287h-137z" />
    <glyph glyph-name="Zdotaccent" unicode="&#x17b;" horiz-adv-x="1175" 
d="M348 186h746v-186h-1012v150l745 1097h-710v187h958v-152zM588 1853q50 0 84.5 -33.5t34.5 -82.5t-34.5 -84t-84.5 -35q-49 0 -83 34.5t-34 84.5q0 49 33.5 82.5t83.5 33.5z" />
    <glyph glyph-name="zdotaccent" unicode="&#x17c;" horiz-adv-x="970" 
d="M328 176h551v-176h-787v152l531 708h-514v178h751v-151zM485 1444q50 0 84.5 -34t34.5 -83t-35 -84t-84 -35t-82.5 34.5t-33.5 84.5t33.5 83.5t82.5 33.5z" />
    <glyph glyph-name="Zcaron" unicode="&#x17d;" horiz-adv-x="1175" 
d="M348 186h746v-186h-1012v150l745 1097h-710v187h958v-152zM727 1898h176l-225 -286h-178l-226 286h177l139 -190z" />
    <glyph glyph-name="zcaron" unicode="&#x17e;" horiz-adv-x="970" 
d="M328 176h551v-176h-787v152l531 708h-514v178h751v-151zM625 1489h176l-226 -287h-178l-225 287h176l139 -191z" />
    <glyph glyph-name="longs" unicode="&#x17f;" horiz-adv-x="724" 
d="M614 1303q-49 0 -84 -13.5t-55 -34.5t-31.5 -57t-15 -71.5t-4.5 -88.5v-1038h-186v860h-166v178h166q0 420 356 420q45 0 70 -4v-154q-6 0 -24.5 1.5t-25.5 1.5z" />
    <glyph glyph-name="AEacute" unicode="&#x1fc;" horiz-adv-x="1914" 
d="M1208 186h604v-186h-808v344h-580l-162 -344h-221l698 1434h1055v-187h-586v-411h539v-187h-539v-463zM510 532h494v715h-160zM1221 1898h200l-198 -286h-138z" />
    <glyph glyph-name="aeacute" unicode="&#x1fd;" horiz-adv-x="1845" 
d="M1282 1063q107 0 202 -44t164 -122.5t102 -198.5t15 -260h-807q21 -130 107.5 -208t232.5 -78q85 0 157 30.5t116 85.5l153 -98q-69 -94 -179.5 -145.5t-246.5 -51.5q-143 0 -251 55t-173 152q-53 -87 -160.5 -147t-254.5 -60q-164 0 -275.5 85t-111.5 221q0 66 22.5 118
t55 85t85 56.5t94.5 34.5t103.5 17.5t92 7t78.5 0.5h9h168v10q0 67 -9 113t-34 88t-76 63t-129 21q-74 0 -151 -29.5t-119 -62.5l-131 100q86 78 200.5 120t237.5 42q119 0 199.5 -51t124.5 -138q68 89 167 139t222 50zM780 297v156h-71q-180 0 -230 -5q-181 -18 -209 -117
q-6 -20 -6 -44q0 -69 51 -115.5t166 -46.5q123 0 204 54.5t95 117.5zM958 598h619q-18 136 -92 212.5t-203 76.5q-131 0 -217 -79t-107 -210zM991 1489h201l-199 -287h-137z" />
    <glyph glyph-name="Oslashacute" unicode="&#x1fe;" horiz-adv-x="1640" 
d="M1415 1159q133 -190 133 -442q0 -208 -92.5 -378t-259.5 -268t-375 -98q-292 0 -497 189l-125 -113l-99 109l127 116q-135 190 -135 443q0 156 54.5 293t150.5 235.5t232 155.5t292 57q297 0 498 -188l125 114l100 -110zM301 717q0 -167 80 -303l788 721
q-143 133 -348 133q-121 0 -221.5 -46.5t-164.5 -124.5t-99 -176t-35 -204zM821 166q121 0 221.5 46.5t164.5 124.5t99 176t35 204q0 162 -79 301l-789 -719q139 -133 348 -133zM868 1898h201l-199 -286h-137z" />
    <glyph glyph-name="oslashacute" unicode="&#x1ff;" horiz-adv-x="1232" 
d="M1057 846q104 -145 104 -328q0 -111 -41.5 -211t-113 -173.5t-173.5 -117t-217 -43.5q-210 0 -364 138l-105 -95l-73 82l104 95q-106 140 -106 325q0 148 70 273t195.5 198.5t278.5 73.5q214 0 367 -137l102 94l74 -82zM264 518q0 -113 51 -201l533 486q-97 84 -232 84
q-153 0 -252.5 -104.5t-99.5 -264.5zM616 152q154 0 254.5 104t100.5 262q0 109 -53 201l-533 -486q97 -81 231 -81zM666 1489h200l-198 -287h-138z" />
    <glyph glyph-name="Scommaaccent" unicode="&#x218;" horiz-adv-x="1148" 
d="M680 795q215 -51 309 -140t94 -258q0 -79 -28 -151.5t-85 -135t-158.5 -100t-233.5 -37.5q-114 0 -216 33t-184.5 108t-116.5 183l203 63q17 -78 101 -136t217 -58q125 0 208.5 55t83.5 160q0 36 -9 65t-21 49.5t-38 38.5t-46.5 28.5t-60.5 22.5t-66.5 18t-78 17.5
t-81.5 18.5q-105 25 -176.5 66t-109.5 95.5t-53 113t-15 133.5q0 119 62.5 213.5t170.5 146t240 51.5q157 0 273.5 -81t160.5 -228l-201 -49q-25 73 -87 120.5t-167 47.5q-106 0 -176.5 -60.5t-70.5 -160.5q0 -50 19 -88.5t46 -61.5t75 -42.5t87 -29.5t101 -24q7 -1 10 -2
t8.5 -2t9.5 -2zM473 -186h197l-156 -287h-147z" />
    <glyph glyph-name="scommaaccent" unicode="&#x219;" horiz-adv-x="927" 
d="M528 602q188 -39 263 -105.5t75 -185.5q0 -70 -25.5 -130.5t-74 -107.5t-127.5 -73.5t-180 -26.5q-159 0 -273.5 62t-144.5 176l182 61q15 -51 71 -89t169 -38q101 0 156 39.5t55 108.5q0 29 -14.5 51t-35.5 35t-56.5 23.5t-65 16t-74 13.5t-72.5 14q-145 32 -211.5 103
t-66.5 188q0 143 107.5 234.5t275.5 91.5q130 0 228.5 -64t125.5 -176l-174 -47q-15 49 -65.5 84t-131.5 35q-77 0 -127.5 -39.5t-50.5 -103.5q0 -24 7.5 -43.5t24.5 -33.5t33 -23.5t45 -17t47.5 -12t53.5 -11t51 -9.5zM346 -186h197l-156 -287h-147z" />
    <glyph glyph-name="circumflex" unicode="&#x2c6;" horiz-adv-x="915" 
d="M772 1202h-176l-137 189l-140 -189h-176l226 287h178z" />
    <glyph glyph-name="caron" unicode="&#x2c7;" horiz-adv-x="915" 
d="M596 1489h176l-225 -287h-178l-226 287h176l140 -191z" />
    <glyph glyph-name="breve" unicode="&#x2d8;" horiz-adv-x="874" 
d="M590 1462h141q-5 -121 -84.5 -195.5t-208.5 -74.5t-209 74.5t-86 195.5h142q0 -52 38.5 -96.5t114.5 -44.5q75 0 113.5 44.5t38.5 96.5z" />
    <glyph glyph-name="dotaccent" unicode="&#x2d9;" horiz-adv-x="522" 
d="M260 1444q50 0 84.5 -34t34.5 -83t-34.5 -84t-84.5 -35q-49 0 -83 34.5t-34 84.5q0 49 33.5 83t83.5 34z" />
    <glyph glyph-name="ring" unicode="&#x2da;" horiz-adv-x="733" 
d="M367 1569q93 0 158 -65t65 -158t-65 -158.5t-158 -65.5q-92 0 -158 66t-66 158t66 157.5t158 65.5zM367 1231q47 0 80.5 34t33.5 81q0 46 -33.5 79t-80.5 33q-46 0 -79.5 -33t-33.5 -79q0 -47 33.5 -81t79.5 -34z" />
    <glyph glyph-name="ogonek" unicode="&#x2db;" horiz-adv-x="589" 
d="M281 -240q0 -59 40.5 -88t124.5 -16v-131q-38 -10 -79 -10q-101 0 -162.5 56t-61.5 142q0 89 58 165t131 122h114q-72 -45 -118.5 -111.5t-46.5 -128.5z" />
    <glyph glyph-name="tilde" unicode="&#x2dc;" horiz-adv-x="907" 
d="M641 1403l123 -23q-24 -186 -174 -186q-53 0 -133.5 34t-116.5 34q-35 0 -52.5 -25t-21.5 -59l-123 22q29 186 176 186q47 0 128 -33.5t120 -33.5q64 0 74 84z" />
    <glyph glyph-name="hungarumlaut" unicode="&#x2dd;" horiz-adv-x="968" 
d="M143 1202l136 287h200l-198 -287h-138zM623 1489h202l-198 -287h-138z" />
    <glyph glyph-name="Wgrave" unicode="&#x1e80;" horiz-adv-x="2023" 
d="M1759 1434h223l-462 -1434h-195l-313 1016l-316 -1016h-194l-461 1434h221l338 -1112l340 1112h141l340 -1112zM942 1898l135 -286h-137l-199 286h201z" />
    <glyph glyph-name="wgrave" unicode="&#x1e81;" horiz-adv-x="1585" 
d="M1337 1038h207l-348 -1038h-176l-227 707l-226 -707h-176l-350 1038h209l231 -766l244 766h135l244 -766zM723 1489l135 -287h-137l-199 287h201z" />
    <glyph glyph-name="Wacute" unicode="&#x1e82;" horiz-adv-x="2023" 
d="M1759 1434h223l-462 -1434h-195l-313 1016l-316 -1016h-194l-461 1434h221l338 -1112l340 1112h141l340 -1112zM1102 1898h201l-199 -286h-137z" />
    <glyph glyph-name="wacute" unicode="&#x1e83;" horiz-adv-x="1585" 
d="M1337 1038h207l-348 -1038h-176l-227 707l-226 -707h-176l-350 1038h209l231 -766l244 766h135l244 -766zM862 1489h201l-199 -287h-137z" />
    <glyph glyph-name="Wdieresis" unicode="&#x1e84;" horiz-adv-x="2023" 
d="M1759 1434h223l-462 -1434h-195l-313 1016l-316 -1016h-194l-461 1434h221l338 -1112l340 1112h141l340 -1112zM809 1853q50 0 84.5 -33.5t34.5 -82.5t-35 -84t-84 -35t-83 34.5t-34 84.5q0 49 33.5 82.5t83.5 33.5zM1214 1853q50 0 84.5 -33.5t34.5 -82.5t-34.5 -84
t-84.5 -35q-47 0 -81.5 35t-34.5 84t34 82.5t82 33.5z" />
    <glyph glyph-name="wdieresis" unicode="&#x1e85;" horiz-adv-x="1585" 
d="M1337 1038h207l-348 -1038h-176l-227 707l-226 -707h-176l-350 1038h209l231 -766l244 766h135l244 -766zM590 1444q50 0 84.5 -34t34.5 -83t-34.5 -84t-84.5 -35q-49 0 -83 34.5t-34 84.5q0 49 33.5 83t83.5 34zM995 1444q50 0 84.5 -34t34.5 -83t-35 -84t-84 -35
q-47 0 -81.5 35t-34.5 84t34 83t82 34z" />
    <glyph glyph-name="Ygrave" unicode="&#x1ef2;" horiz-adv-x="1355" 
d="M1315 1434l-535 -897v-537h-205v537l-534 897h229l408 -713l405 713h232zM629 1898l135 -286h-137l-199 286h201z" />
    <glyph glyph-name="ygrave" unicode="&#x1ef3;" horiz-adv-x="1099" 
d="M852 1038h207l-567 -1433h-201l184 448l-434 985h207l319 -749zM500 1489l135 -287h-137l-199 287h201z" />
    <glyph glyph-name="endash" unicode="&#x2013;" horiz-adv-x="1052" 
d="M143 700h766v-182h-766v182z" />
    <glyph glyph-name="emdash" unicode="&#x2014;" horiz-adv-x="1161" 
d="M143 700h875v-182h-875v182z" />
    <glyph glyph-name="quoteleft" unicode="&#x2018;" horiz-adv-x="555" 
d="M354 1440l99 -56l-199 -436l-152 88z" />
    <glyph glyph-name="quoteright" unicode="&#x2019;" horiz-adv-x="552" 
d="M301 1440l150 -86l-252 -406l-97 56z" />
    <glyph glyph-name="quotesinglbase" unicode="&#x201a;" horiz-adv-x="491" 
d="M238 260l151 -86l-252 -405l-96 55z" />
    <glyph glyph-name="quotedblleft" unicode="&#x201c;" horiz-adv-x="946" 
d="M102 1036l252 404l97 -56l-197 -436zM745 1440l99 -56l-199 -436l-151 88z" />
    <glyph glyph-name="quotedblright" unicode="&#x201d;" horiz-adv-x="946" 
d="M694 1440l150 -86l-252 -406l-96 56zM102 1004l199 436l152 -86l-252 -406z" />
    <glyph glyph-name="quotedblbase" unicode="&#x201e;" horiz-adv-x="884" 
d="M631 260l151 -86l-252 -405l-96 55zM41 -176l199 436l149 -86l-250 -405z" />
    <glyph glyph-name="dagger" unicode="&#x2020;" horiz-adv-x="1058" 
d="M915 1087v-182h-292v-905h-187v905h-293v182h293v347h187v-347h292z" />
    <glyph glyph-name="daggerdbl" unicode="&#x2021;" horiz-adv-x="1060" 
d="M918 905h-293v-377h293v-182h-293v-346h-189v346h-293v182h293v377h-293v182h293v347h189v-347h293v-182z" />
    <glyph glyph-name="bullet" unicode="&#x2022;" horiz-adv-x="649" 
d="M326 848q83 0 141.5 -59t58.5 -144q0 -83 -58.5 -142t-141.5 -59q-85 0 -144 59t-59 142q0 85 59 144t144 59z" />
    <glyph glyph-name="ellipsis" unicode="&#x2026;" horiz-adv-x="1382" 
d="M229 229q54 0 91.5 -37t37.5 -90q0 -54 -37.5 -91.5t-91.5 -37.5q-53 0 -90 37.5t-37 91.5q0 52 37 89.5t90 37.5zM690 229q54 0 91.5 -37t37.5 -90q0 -54 -37.5 -91.5t-91.5 -37.5q-53 0 -90 37.5t-37 91.5q0 52 37.5 89.5t89.5 37.5zM1151 229q54 0 91.5 -37t37.5 -90
q0 -54 -37.5 -91.5t-91.5 -37.5q-53 0 -90 37.5t-37 91.5q0 52 37 89.5t90 37.5z" />
    <glyph glyph-name="perthousand" unicode="&#x2030;" horiz-adv-x="2629" 
d="M1288 1434h164l-946 -1434h-164zM774 1081q0 -139 -98 -237.5t-238 -98.5q-138 0 -237 98.5t-99 237.5q0 138 99 237t237 99q139 0 237.5 -99t98.5 -237zM250 1081q0 -78 55 -134t133 -56t134.5 56t56.5 134t-56.5 133.5t-134.5 55.5t-133 -55.5t-55 -133.5zM1354 688
q138 0 237 -99t99 -237t-99 -237t-237 -99q-139 0 -237.5 99t-98.5 237t98.5 237t237.5 99zM1354 162q78 0 134 56t56 134t-56 134.5t-134 56.5t-134.5 -56.5t-56.5 -134.5t56.5 -134t134.5 -56zM2191 688q138 0 237 -99t99 -237t-99 -237t-237 -99t-237 99t-99 237t99 237
t237 99zM2191 162q78 0 134.5 56t56.5 134t-56.5 134.5t-134.5 56.5t-134 -56.5t-56 -134.5t56 -134t134 -56z" />
    <glyph glyph-name="guilsinglleft" unicode="&#x2039;" horiz-adv-x="651" 
d="M549 877l-246 -363l246 -362h-201l-246 362l246 363h201z" />
    <glyph glyph-name="guilsinglright" unicode="&#x203a;" horiz-adv-x="651" 
d="M301 877l248 -363l-248 -362h-199l246 362l-246 363h199z" />
    <glyph glyph-name="fraction" unicode="&#x2044;" horiz-adv-x="978" 
d="M694 1630h183l-592 -1829h-183z" />
    <glyph glyph-name="Euro" unicode="&#x20ac;" horiz-adv-x="1562" 
d="M932 166q248 0 399 186l170 -112q-101 -126 -247 -196.5t-322 -70.5q-263 0 -454.5 152t-250.5 395h-166v129h146q-4 46 -4 68q0 21 4 67h-146v127h166q59 245 250 396t455 151q177 0 323 -69.5t246 -196.5l-170 -111q-152 187 -399 187q-182 0 -309 -99.5t-179 -257.5
h531v-127h-559q-4 -46 -4 -67q0 -22 4 -68h559v-129h-531q52 -157 179 -255.5t309 -98.5z" />
    <glyph glyph-name="ruble" unicode="&#x20bd;" horiz-adv-x="1390" 
d="M793 498h-254v-154h440v-127h-440v-217h-205v217h-232v127h232v154h-232v186h232v750h459q118 0 216 -36.5t163 -100t101 -149t36 -183.5q0 -202 -140 -334.5t-376 -132.5zM539 1247v-563h254q143 0 225 76.5t82 204.5t-82 205t-225 77h-254z" />
    <glyph glyph-name="bitcoin" unicode="&#x20bf;" horiz-adv-x="1236" 
d="M1155 416q0 -145 -76.5 -249t-224.5 -144v-250h-164v227h-26h-121v-227h-164v227h-236v1434h236v225h164v-225h65q28 0 82 -4v229h164v-264q119 -44 180.5 -132t61.5 -210q0 -206 -172 -301v-4q231 -86 231 -332zM608 1247h-260v-432h244q299 0 299 221q0 211 -283 211z
M664 186q131 0 205.5 59t74.5 171q0 63 -24.5 109t-68 71t-94 36t-112.5 11h-297v-457h316z" />
    <glyph glyph-name="afii61352" unicode="&#x2116;" horiz-adv-x="2267" 
d="M1065 377v1057h205v-1434h-178l-744 1057v-1057h-205v1434h179zM1839 770q-135 0 -230.5 96t-95.5 230q0 135 95.5 230t230.5 95q134 0 230 -95t96 -230q0 -134 -96.5 -230t-229.5 -96zM1839 1257q-68 0 -115 -47t-47 -114q0 -66 47.5 -114t114.5 -48q66 0 114 48t48 114
q0 67 -48 114t-114 47zM1526 428v182h624v-182h-624z" />
    <glyph glyph-name="minus" unicode="&#x2212;" horiz-adv-x="944" 
d="M143 700h658v-182h-658v182z" />
    <glyph glyph-name="approxequal" unicode="&#x2248;" horiz-adv-x="1212" 
d="M416 766q-52 0 -82.5 -29.5t-38.5 -79.5l-172 35q29 121 95 180.5t185 59.5q67 0 142.5 -23.5t142 -47t113.5 -23.5q53 0 80 29t37 81l172 -35q-48 -239 -269 -239q-70 0 -145.5 23t-142.5 46t-117 23zM801 453q54 0 80.5 28t36.5 82l172 -35q-48 -241 -269 -241
q-70 0 -145.5 23.5t-142.5 47t-117 23.5q-52 0 -82.5 -30.5t-38.5 -80.5l-172 35q29 122 94.5 182t185.5 60q67 0 142.5 -23.5t142 -47t113.5 -23.5z" />
    <glyph glyph-name="notequal" unicode="&#x2260;" horiz-adv-x="1052" 
d="M909 700h-280l-80 -182h360v-182h-438l-98 -227h-125l96 227h-201v182h281l78 182h-359v183h439l98 227h125l-98 -227h202v-183z" />
    <glyph glyph-name="lessequal" unicode="&#x2264;" horiz-adv-x="1052" 
d="M143 0v182h766v-182h-766zM909 1145v-182l-565 -207l565 -205v-182l-766 290v195z" />
    <glyph glyph-name="greaterequal" unicode="&#x2265;" horiz-adv-x="1052" 
d="M143 182h766v-182h-766v182zM909 854v-195l-766 -290v182l566 205l-566 207v182z" />
    <glyph glyph-name="commaaccent" unicode="&#xf6c3;" horiz-adv-x="589" 
d="M250 -186h196l-155 -287h-148z" />
    </font>
</defs>
</svg>
