<?xml version="1.0" standalone="no"?>
<!DOCTYPE svg PUBLIC "-//W3C//DTD SVG 1.1//EN" "http://www.w3.org/Graphics/SVG/1.1/DTD/svg11.dtd" >
<svg xmlns="http://www.w3.org/2000/svg" xmlns:xlink="http://www.w3.org/1999/xlink" version="1.1">
<metadata>
Created by FontForge 20170731 at Sat Jan  7 00:27:54 2012
 By Aleksey,,,
Copyright (c) 2011, FontFuror (info@fontfuror), with Reserved Names "Magra" "Magra Pro"
</metadata>
<defs>
<font id="Magra" horiz-adv-x="481" >
  <font-face 
    font-family="Magra"
    font-weight="400"
    font-stretch="normal"
    units-per-em="1000"
    panose-1="2 0 0 0 0 0 0 0 0 0"
    ascent="800"
    descent="-200"
    x-height="525"
    cap-height="700"
    bbox="-49 -247 801 941"
    underline-thickness="50"
    underline-position="-150"
    unicode-range="U+0020-FB02"
  />
<missing-glyph horiz-adv-x="637" 
d="M537 760v-760h-438v760h438zM179 690v-620h277v620h-277z" />
    <glyph glyph-name=".notdef" horiz-adv-x="637" 
d="M537 760v-760h-438v760h438zM179 690v-620h277v620h-277z" />
    <glyph glyph-name=".null" horiz-adv-x="0" 
 />
    <glyph glyph-name="nonmarkingreturn" horiz-adv-x="333" 
 />
    <glyph glyph-name="space" unicode=" " horiz-adv-x="205" 
 />
    <glyph glyph-name="exclam" unicode="!" horiz-adv-x="260" 
d="M187 711l-17 -508l-70 -10l-17 508zM139 117q61 0 61 -68q0 -25 -16.5 -43t-51.5 -18q-61 0 -61 68q0 25 16.5 43t51.5 18z" />
    <glyph glyph-name="quotedbl" unicode="&#x22;" horiz-adv-x="359" 
d="M65 754h82v-86l-10 -153h-62l-10 153v86zM212 754h82v-86l-10 -153h-62l-10 153v86z" />
    <glyph glyph-name="numbersign" unicode="#" horiz-adv-x="603" 
d="M464 627l-24 -156h118l-11 -71h-117l-17 -114h114l-11 -70h-114l-21 -144l-72 -10l23 154h-116l-21 -144l-72 -10l23 154h-116l11 70h115l17 114h-113l11 71h113l22 146l72 10l-24 -156h116l22 146zM244 400l-17 -114h115l17 114h-115z" />
    <glyph glyph-name="dollar" unicode="$" horiz-adv-x="453" 
d="M388 495q-82 38 -136 38t-74 -20.5t-20 -49.5q0 -20 11 -31l17 -16q10 -11 28 -19q45 -21 63 -30q56 -27 87.5 -58t31.5 -87t-43.5 -100t-116.5 -56v-132l-82 -10l20 139q-75 4 -150 46l37 77q81 -42 146 -42q43 0 69 19t26 56q0 42 -70 73q-9 4 -36.5 16t-45.5 21.5
t-41 26.5q-45 35 -45 96t43.5 106.5t125.5 52.5v125l82 10l-23 -136q61 -5 132 -38z" />
    <glyph glyph-name="percent" unicode="%" horiz-adv-x="752" 
d="M196 712q47 0 81 -18t50 -46q29 -52 29 -102q0 -85 -46.5 -134.5t-119.5 -49.5q-47 0 -81 18t-50 46q-29 52 -29 102q0 85 46.5 134.5t119.5 49.5zM260.5 619q-23.5 30 -68 30t-67.5 -32.5t-23 -82t23.5 -79.5t68 -30t67.5 32.5t23 82t-23.5 79.5zM562 338q47 0 81 -18
t50 -46q29 -52 29 -102q0 -85 -46.5 -134.5t-119.5 -49.5q-47 0 -81 18t-50 46q-29 52 -29 102q0 85 46.5 134.5t119.5 49.5zM626.5 245q-23.5 30 -68 30t-67.5 -32.5t-23 -82t23.5 -79.5t68 -30t67.5 32.5t23 82t-23.5 79.5zM588 620l-390 -601l-55 36l391 601z" />
    <glyph glyph-name="ampersand" unicode="&#x26;" horiz-adv-x="637" 
d="M315.5 578.5q-24.5 18.5 -64 18.5t-67 -19.5t-27.5 -66t38 -78.5t124 -56l-8 -67l-43 -5q-60 -7 -96.5 -40t-36.5 -89.5t33 -82.5t83 -26q80 0 115 58v252h82l89 5l-9 -63l-78 -12v-176q0 -34 16 -51.5t45 -17.5t56 10l25 -54q-40 -30 -106 -30q-36 0 -63.5 17.5
t-34.5 46.5h-4q-50 -64 -153 -64q-83 0 -136.5 43.5t-53.5 125.5t42 126t104 63v4q-119 44 -119 153q0 75 51.5 122t136.5 47t128 -35t52 -106l-87 -15q-9 44 -33.5 62.5z" />
    <glyph glyph-name="quotesingle" unicode="'" horiz-adv-x="212" 
d="M65 754h82v-86l-10 -153h-62l-10 153v86z" />
    <glyph glyph-name="parenleft" unicode="(" horiz-adv-x="312" 
d="M65 303q0 147 45.5 268t112.5 196l73 -10q-135 -196 -135 -454t135 -454l-73 -10q-67 75 -112.5 196t-45.5 268z" />
    <glyph glyph-name="parenright" unicode=")" horiz-adv-x="312" 
d="M16 -152q135 196 135 454t-135 454l73 10q68 -77 113 -192.5t45 -262t-46 -273t-112 -200.5z" />
    <glyph glyph-name="asterisk" unicode="*" horiz-adv-x="396" 
d="M338 423l-101 54l-15 40l42 7l92 -57zM58 638l101 -53l15 -41l-42 -6l-92 57zM361 598l-97 -60l-42 6l15 41l96 51zM221 706l4 -114l-27 -34l-27 34l4 108zM175 356l-4 114l27 33l27 -33l-4 -108zM35 463l97 61l42 -7l-15 -40l-95 -51z" />
    <glyph glyph-name="plus" unicode="+" horiz-adv-x="492" 
d="M209 313v156l75 13v-169h168l-12 -75h-156v-156l-75 -13v169h-169l12 75h157z" />
    <glyph glyph-name="comma" unicode="," horiz-adv-x="214" 
d="M154 50q0 -26 -3.5 -45.5t-14.5 -46.5q-22 -55 -105 -105l-40 50q46 42 57.5 66.5t11.5 64t-3 70.5l94 14q3 -42 3 -68z" />
    <glyph glyph-name="hyphen" unicode="-" horiz-adv-x="330" 
d="M285 290v-75h-240v75h240z" />
    <glyph glyph-name="period" unicode="." horiz-adv-x="249" 
d="M121 -12q-61 0 -61 68q0 25 16.5 43t51.5 18q61 0 61 -68q0 -25 -16.5 -43t-51.5 -18z" />
    <glyph glyph-name="slash" unicode="/" horiz-adv-x="314" 
d="M221 750h79l-202 -860h-80z" />
    <glyph glyph-name="zero" unicode="0" horiz-adv-x="576" 
d="M299 531q57 0 101 -18.5t69 -46t41 -64.5q27 -61 27 -128q0 -128 -70 -204t-188 -76q-54 0 -97.5 18.5t-69 46.5t-42.5 64q-30 64 -30 128q0 127 72 203.5t187 76.5zM406 400.5q-38 50.5 -118 50.5t-116 -55.5t-36 -137t40 -133t116 -51.5q152 0 152 195q0 81 -38 131.5z
" />
    <glyph glyph-name="one" unicode="1" horiz-adv-x="408" 
d="M378 0h-314v65l118 10v260l8 81l-3 1l-40 -29l-75 -38l-30 57l122 85l44 38l72 -8l-8 -138v-309l106 -10v-65z" />
    <glyph glyph-name="two" unicode="2" horiz-adv-x="456" 
d="M53 491q86 46 175 46t137.5 -46.5t48.5 -124.5q0 -114 -147 -213q-27 -18 -62 -43t-49 -34l3 -4l60 6h209l-21 -78h-362v96q93 68 134.5 100t78.5 66t47.5 55.5t10.5 47.5q0 46 -30 69t-74.5 23t-125.5 -29z" />
    <glyph glyph-name="three" unicode="3" horiz-adv-x="470" 
d="M327 60q0 58 -34 84t-108 26h-52v76h12q87 0 131 56q25 31 25 61t-22 62t-92 32q-42 0 -114 -25l-28 63q81 42 170.5 42t134.5 -42t45 -109q0 -117 -98 -165q57 -15 91 -56.5t34 -106.5q0 -97 -59 -151t-164 -54t-180 53l29 68q91 -40 166 -40q113 0 113 126z" />
    <glyph glyph-name="four" unicode="4" horiz-adv-x="540" 
d="M419 77h111l-21 -77h-90v-138l-90 -10v148h-274v86l224 454l67 -50l-197 -413h180v83l12 140l78 10v-233z" />
    <glyph glyph-name="five" unicode="5" horiz-adv-x="489" 
d="M243 283q97 0 150.5 -49.5t53.5 -155.5t-66 -165.5t-155 -59.5q-115 0 -186 50l28 68q86 -38 149 -38q134 0 134 144q0 65 -37 96.5t-88.5 31.5t-102.5 -27l-45 30l32 317h311l-12 -83h-217l-17 -144l-5 -27q33 12 73 12z" />
    <glyph glyph-name="six" unicode="6" horiz-adv-x="519" 
d="M312 592q-79 0 -121 -65.5t-44 -160.5q63 48 140 48q110 0 158 -65q42 -57 42 -147t-55.5 -152t-154.5 -62q-117 0 -173 78.5t-56 246t66 263.5t186 96q75 0 156 -36l-29 -65q-59 21 -115 21zM147 261q0 -90 33.5 -141.5t92.5 -51.5t88.5 39t29.5 100q0 127 -116 127
q-82 0 -128 -53v-20z" />
    <glyph glyph-name="seven" unicode="7" horiz-adv-x="472" 
d="M440 428q-103 -200 -252 -574l-89 43l257 536h-318l11 92h391v-97z" />
    <glyph glyph-name="eight" unicode="8" horiz-adv-x="521" 
d="M118.5 623q49.5 49 144 49t139 -42.5t44.5 -108.5q0 -108 -100 -156q61 -28 95.5 -68t34.5 -117.5t-58 -134.5t-162.5 -57t-157.5 45t-53 121t31.5 117.5t89.5 72.5q-97 50 -97 154q0 76 49.5 125zM164 261q-25 -31 -25 -82t33 -81.5t96 -30.5q114 0 114 118q0 51 -42 80
q-32 22 -102 48q-49 -21 -74 -52zM253 601q-48 0 -71 -20.5t-23 -67.5t30 -72t89 -48q42 21 60 47.5t18 71t-27.5 67t-75.5 22.5z" />
    <glyph glyph-name="nine" unicode="9" horiz-adv-x="525" 
d="M98 476q58 61 167.5 61t160 -78t50.5 -242t-66 -264t-186 -100q-75 0 -156 36l29 65q59 -21 117 -21q75 0 118.5 67.5t45.5 162.5q-18 -21 -58 -36.5t-84 -15.5q-96 0 -146 54t-50 152t58 159zM248 457q-112 0 -112 -141q0 -54 28.5 -89.5t87.5 -35.5q82 0 125 53v25
q0 92 -30 140t-99 48z" />
    <glyph glyph-name="colon" unicode=":" horiz-adv-x="249" 
d="M128 117q61 0 61 -68q0 -25 -16.5 -43t-51.5 -18q-61 0 -61 68q0 25 16.5 43t51.5 18zM128 498q61 0 61 -68q0 -25 -16.5 -43t-51.5 -18q-61 0 -61 68q0 25 16.5 43t51.5 18z" />
    <glyph glyph-name="semicolon" unicode=";" horiz-adv-x="239" 
d="M114 498q61 0 61 -68q0 -25 -16.5 -43t-51.5 -18q-61 0 -61 68q0 25 16.5 43t51.5 18zM164 50q0 -26 -3.5 -45.5t-14.5 -46.5q-22 -55 -105 -105l-40 50q46 42 57.5 66.5t11.5 64t-3 70.5l94 14q3 -42 3 -68z" />
    <glyph glyph-name="less" unicode="&#x3c;" horiz-adv-x="498" 
d="M403 481l53 -55l-309 -188l310 -160l-52 -56l-344 178l-12 62z" />
    <glyph glyph-name="equal" unicode="=" horiz-adv-x="511" 
d="M471 238l-11 -75h-420l11 75h420zM471 418l-11 -75h-420l11 75h420z" />
    <glyph glyph-name="greater" unicode="&#x3e;" horiz-adv-x="498" 
d="M103 481l354 -219l-12 -62l-344 -178l-52 56l310 160l-309 188z" />
    <glyph glyph-name="question" unicode="?" horiz-adv-x="421" 
d="M24 667q73 45 165.5 45t138.5 -42.5t46 -114t-27 -113t-100 -99.5q-30 -24 -38 -42.5t-8 -55.5v-59l-80 -9q-5 86 -5 112q0 49 57 93q57 42 79.5 75t22.5 74q0 100 -116 100q-41 0 -110 -25zM166 117q61 0 61 -68q0 -25 -16.5 -43t-51.5 -18q-61 0 -61 68q0 25 16.5 43
t51.5 18z" />
    <glyph glyph-name="at" unicode="@" horiz-adv-x="853" 
d="M408 136q28 0 53 16t35 34q4 43 12 116.5t12 116.5q-24 8 -53 8q-47 0 -78 -31q-53 -54 -53 -157t72 -103zM590 461l-29 -303q0 -25 34 -25q48 0 88 68t40 198q0 64 -22.5 111t-61.5 72q-75 48 -182 48q-91 0 -169 -50q-43 -28 -75.5 -71t-53.5 -113t-21 -145
t13.5 -125.5t34 -82t51 -54.5t56.5 -34.5t59 -18.5q42 -8 87 -8q101 0 177 37l25 -60q-99 -47 -231 -47q-153 0 -247 84q-106 94 -106 285q0 121 36.5 214.5t98.5 148.5q122 110 280.5 110t243.5 -77t85 -211q0 -161 -64.5 -252.5t-157.5 -91.5q-41 0 -56.5 16.5t-18.5 46.5
h-4q-42 -59 -112.5 -59t-100.5 47.5t-30 113.5t21.5 121.5t69 95t113.5 39.5t129 -28z" />
    <glyph glyph-name="A" unicode="A" horiz-adv-x="534" 
d="M328 705l194 -705h-101l-47 185h-222l-49 -185h-93l195 693zM262 615l-87 -348h179l-85 348h-7z" />
    <glyph glyph-name="B" unicode="B" horiz-adv-x="563" 
d="M90 700h240q86 0 127.5 -45t41.5 -110.5t-32.5 -108.5t-88.5 -56v-4q158 -15 158 -178q0 -81 -63.5 -139.5t-163.5 -58.5h-219v700zM186 328v-250h106q83 0 112.5 33t29.5 91.5t-38.5 92t-120.5 33.5h-89zM186 627v-219h90q59 0 90 29t31 83t-25.5 80.5t-89.5 26.5h-96z
" />
    <glyph glyph-name="C" unicode="C" horiz-adv-x="542" 
d="M324 712q104 0 148 -51t44 -153l-102 -10q0 73 -26 100.5t-74.5 27.5t-77 -15.5t-45 -40.5t-25.5 -67q-14 -65 -14 -186t46 -182t142 -61q45 0 126 28q19 7 22 8l28 -72q-93 -50 -194 -50q-68 0 -118 21t-79 53.5t-47 81.5q-28 80 -28 178.5t15 162t46.5 116t86 82
t126.5 29.5z" />
    <glyph glyph-name="D" unicode="D" horiz-adv-x="612" 
d="M90 700h204q66 0 115.5 -21.5t78 -54.5t46.5 -82q28 -80 28 -198q0 -140 -58 -237q-30 -50 -83 -78.5t-124 -28.5h-207v700zM186 616v-532h100q111 0 145 83q17 41 23 84t6 103t-8.5 104.5t-27.5 81.5q-41 76 -146 76h-92z" />
    <glyph glyph-name="E" unicode="E" horiz-adv-x="499" 
d="M90 700h379l-12 -86h-271v-215h239l-12 -84h-227v-229h288l-12 -86h-372v700z" />
    <glyph glyph-name="F" unicode="F" horiz-adv-x="472" 
d="M90 700h371l-12 -85h-263v-224h226l-12 -84h-214v-307h-96v700z" />
    <glyph glyph-name="G" unicode="G" horiz-adv-x="602" 
d="M327 712q111 0 156 -51t45 -152l-102 -10q0 71 -26.5 99t-75 28t-78 -14.5t-46.5 -38.5t-27 -63q-16 -64 -16 -188.5t43.5 -186t140.5 -61.5q55 0 102 18v159h-135l10 84h215v-300q-102 -47 -208 -47q-153 0 -213 93q-49 77 -56 201q-1 31 -1 73q0 160 70.5 258.5
t201.5 98.5z" />
    <glyph glyph-name="H" unicode="H" horiz-adv-x="627" 
d="M441 0v321h-255v-321h-96v700h96v-295h255v295h96v-700h-96z" />
    <glyph glyph-name="I" unicode="I" horiz-adv-x="276" 
d="M186 700v-700h-96v700h96z" />
    <glyph glyph-name="J" unicode="J" horiz-adv-x="276" 
d="M186 700v-606q0 -95 -35.5 -158t-140.5 -110l-59 67q54 27 81 53q58 53 58 188v566h96z" />
    <glyph glyph-name="K" unicode="K" horiz-adv-x="519" 
d="M186 700v-700h-96v700h96zM428 701l83 -36l-218 -304l249 -361h-117l-235 350z" />
    <glyph glyph-name="L" unicode="L" horiz-adv-x="458" 
d="M186 700v-615h257l-12 -85h-341v700h96z" />
    <glyph glyph-name="M" unicode="M" horiz-adv-x="733" 
d="M640 700l37 -700h-94l-24 494l7 120h-6l-135 -574l-115 -10l-155 584h-7l12 -118l-17 -496h-82l27 700h140l120 -470l21 -110h5l18 107l108 473h140z" />
    <glyph glyph-name="N" unicode="N" horiz-adv-x="630" 
d="M540 700v-700h-101l-232 474l-33 92l-5 -3l17 -103v-460h-96v700h102l231 -486l34 -95l5 3l-18 118v460h96z" />
    <glyph glyph-name="O" unicode="O" horiz-adv-x="626" 
d="M378 611.5q-32 14.5 -77.5 14.5t-77 -22.5t-46.5 -65.5q-25 -73 -25 -196q0 -160 45 -216q41 -52 126 -52q40 0 68.5 16.5t44 41t24.5 64.5q14 62 14 137t-3 110.5t-13.5 72t-29 59t-50.5 37zM324 712q252 0 252 -347q0 -179 -69 -278t-205 -99q-252 0 -252 347
q0 179 69 278t205 99z" />
    <glyph glyph-name="P" unicode="P" horiz-adv-x="536" 
d="M90 700h230q110 0 152.5 -54.5t42.5 -145.5q0 -89 -48 -156q-26 -37 -79 -58.5t-128 -21.5h-74v-264h-96v700zM186 627v-283h100q127 0 127 136q0 74 -26.5 110.5t-109.5 36.5h-91z" />
    <glyph glyph-name="Q" unicode="Q" horiz-adv-x="625" 
d="M49 335q0 179 69 278t206 99q251 0 251 -347q0 -179 -69 -278t-206 -99v-4l260 -78l-37 -76l-269 102l17 57q-222 19 -222 346zM246 88.5q32 -14.5 74 -14.5t70.5 16.5t44 41t24.5 64.5q14 64 14 138.5t-3 109.5t-13.5 71.5t-28.5 58.5q-43 52 -127 52q-94 0 -125 -88
q-25 -73 -25 -197q0 -159 45 -215q18 -23 50 -37.5z" />
    <glyph glyph-name="R" unicode="R" horiz-adv-x="537" 
d="M90 700h226q107 0 147 -58q36 -53 36 -129t-40 -129.5t-108 -76.5l191 -307h-113l-172 291h-71v-291h-96v700zM186 626v-255h77q66 0 101 34.5t35 96t-29.5 93t-97.5 31.5h-86z" />
    <glyph glyph-name="S" unicode="S" horiz-adv-x="486" 
d="M97 658q60 54 153 54t141 -46t55 -126l-102 -10q-3 46 -30.5 71t-75 25t-74.5 -23t-27 -59q0 -48 31 -78t106 -68q66 -34 90.5 -49.5t49.5 -38.5q48 -43 48 -125t-62 -139.5t-167 -57.5t-199 65l41 74q93 -53 175 -53q49 0 80 24.5t31 71t-31.5 73.5t-79 49t-58.5 27.5
t-37 20t-38 24.5t-30.5 28.5t-26.5 35.5q-23 47 -23 96q0 80 60 134z" />
    <glyph glyph-name="T" unicode="T" horiz-adv-x="446" 
d="M276 616v-616h-96v616h-180l9 84h441l-9 -84h-165z" />
    <glyph glyph-name="U" unicode="U" horiz-adv-x="622" 
d="M532 700v-547l8 -147l-78 -11l-10 58h-4q-65 -65 -157 -65t-149 47t-57 142v523h96v-506q0 -63 38.5 -91.5t94.5 -28.5q82 0 122 62v564h96z" />
    <glyph glyph-name="V" unicode="V" horiz-adv-x="513" 
d="M514 693l-197 -693h-124l-191 693l94 12l144 -532l17 -80h4l18 80l143 532z" />
    <glyph glyph-name="W" unicode="W" horiz-adv-x="774" 
d="M762 694l-143 -694h-140l-90 535h-4l-5 -45l-84 -490h-134l-151 694l97 12l119 -579l5 -40h4l94 554l121 11l91 -525l4 -40h4l118 619z" />
    <glyph glyph-name="X" unicode="X" horiz-adv-x="501" 
d="M488 693l-183 -336l202 -350l-103 -12l-154 278l-148 -278l-90 12l184 350l-188 336l103 12l141 -267l145 267z" />
    <glyph glyph-name="Y" unicode="Y" horiz-adv-x="478" 
d="M290 0h-96v252q-111 253 -194 441l97 12l142 -360h6l142 360l91 -12l-188 -441v-252z" />
    <glyph glyph-name="Z" unicode="Z" horiz-adv-x="459" 
d="M435 700v-92l-307 -525h316l-9 -83h-410v93l303 524h-301l9 83h399z" />
    <glyph glyph-name="bracketleft" unicode="[" horiz-adv-x="304" 
d="M289 798v-65h-114v-826h114v-65h-194v956h194z" />
    <glyph glyph-name="backslash" unicode="\" horiz-adv-x="314" 
d="M97 750l203 -860h-80l-202 860h79z" />
    <glyph glyph-name="bracketright" unicode="]" horiz-adv-x="304" 
d="M209 798v-956h-194v65h114v826h-114v65h194z" />
    <glyph glyph-name="asciicircum" unicode="^" horiz-adv-x="609" 
d="M335 748l209 -449l-84 -17l-160 350l-150 -349l-85 15l191 436z" />
    <glyph glyph-name="underscore" unicode="_" horiz-adv-x="470" 
d="M475 -188h-480v65h480v-65z" />
    <glyph glyph-name="grave" unicode="`" horiz-adv-x="309" 
d="M93 750l176 -136l-42 -50l-187 117z" />
    <glyph glyph-name="a" unicode="a" 
d="M311 366q0 91 -83 91q-53 0 -143 -28l-32 63q86 45 186 45q121 0 148 -72q14 -37 14 -98v-213q0 -72 41 -114l-53 -52q-18 11 -36.5 32.5t-25.5 42.5h-3q-55 -75 -152 -75q-143 0 -143 149q0 132 186 159l96 14v56zM125 126q0 -58 71.5 -58t114.5 50v122
q-126 -17 -155 -40q-31 -25 -31 -74z" />
    <glyph glyph-name="b" unicode="b" horiz-adv-x="528" 
d="M442 460q41 -65 41 -186q0 -166 -72 -230q-63 -56 -158 -56t-178 58v699l90 10v-225l-5 -50l3 -2q46 59 138 59t141 -77zM347 99q40 40 40 157t-29.5 159t-86.5 42q-73 0 -106 -49v-312q39 -29 94.5 -29t87.5 32z" />
    <glyph glyph-name="c" unicode="c" horiz-adv-x="459" 
d="M103.5 460.5q58.5 76.5 156 76.5t130 -45.5t32.5 -132.5l-90 -6q0 57 -17 80.5t-69 23.5q-105 0 -105 -194.5t134 -194.5q59 0 125 33l27 -60q-25 -22 -71 -37.5t-99 -15.5q-212 0 -212 271q0 125 58.5 201.5z" />
    <glyph glyph-name="d" unicode="d" horiz-adv-x="533" 
d="M363 505q1 0 3 1l-3 26v213l90 10v-611l8 -139l-73 -10l-11 61h-4q-60 -68 -144 -68t-134 59.5t-50 211.5q0 62 14 112t36 80t51 50q51 36 114 36t103 -32zM269 457q-27 0 -46 -6.5t-39 -24.5q-43 -39 -43 -158.5t27.5 -159.5t88.5 -40q34 0 63 15.5t43 33.5v312
q-39 28 -94 28z" />
    <glyph glyph-name="e" unicode="e" 
d="M269 537q86 0 127 -52q34 -42 42 -141q3 -39 3 -97l-41 -6h-259q0 -126 67 -159q28 -14 77 -14t113 32l28 -62q-83 -50 -167 -50q-214 0 -214 270q0 128 56.5 203.5t167.5 75.5zM329 424.5q-16 32.5 -73.5 32.5t-81.5 -38.5t-30 -106.5h201q0 80 -16 112.5z" />
    <glyph glyph-name="f" unicode="f" horiz-adv-x="335" 
d="M95 573q0 99 52 143t130 44q57 0 110 -21l-18 -67q-43 9 -75 9q-109 0 -109 -107v-49h153l-12 -76h-141v-449h-90v449h-77l10 70l67 6v48z" />
    <glyph glyph-name="g" unicode="g" horiz-adv-x="490" 
d="M244 537q16 0 27.5 -1t58.5 -3q139 -6 152 -6l-11 -58l-69 -7q25 -42 25 -100q0 -86 -52 -136t-148 -50q-15 0 -39 2q-20 -16 -26 -23t-6 -16q0 -29 63 -35l75 -7q80 -5 125.5 -32.5t45.5 -91t-37 -101.5q-69 -72 -205 -72q-205 0 -205 124q0 49 62 102q7 6 10.5 8.5
t9.5 7t7 4.5q-39 23 -39 66q0 26 14 43t47 40q-85 41 -85 153q0 88 52 138.5t148 50.5zM142.5 -111q36.5 -18 95 -18t100 18t41.5 57q0 31 -19 43q-10 7 -18.5 11.5t-28.5 7.5q-36 5 -75.5 8t-72.5 10q-40 -31 -49.5 -47.5t-9.5 -33.5q0 -38 36.5 -56zM230 466
q-51 0 -72.5 -27t-21.5 -83q0 -111 105 -111q52 0 73 28t21 85q0 108 -105 108z" />
    <glyph glyph-name="h" unicode="h" horiz-adv-x="543" 
d="M169 480q59 57 134.5 57t120 -42.5t44.5 -134.5v-360h-91v354q0 103 -103 103q-30 0 -59 -14.5t-46 -33.5v-409h-89v745l89 10v-228l-4 -46z" />
    <glyph glyph-name="i" unicode="i" horiz-adv-x="250" 
d="M170 0h-90v520l90 10v-530zM121 559q-61 0 -61 68q0 25 16.5 43t51.5 18q61 0 61 -68q0 -25 -16.5 -43t-51.5 -18z" />
    <glyph glyph-name="j" unicode="j" horiz-adv-x="250" 
d="M170 -12q0 -79 -20.5 -113t-86.5 -75l-51 54q47 35 57.5 63.5t10.5 113.5v489l90 10v-542zM121 559q-61 0 -61 68q0 25 16.5 43t51.5 18q61 0 61 -68q0 -25 -16.5 -43t-51.5 -18z" />
    <glyph glyph-name="k" unicode="k" horiz-adv-x="467" 
d="M165 0h-90v745l90 10v-755zM473 0h-114l-191 266l193 264l89 -27l-186 -238z" />
    <glyph glyph-name="l" unicode="l" horiz-adv-x="245" 
d="M163 160q0 -49 8 -74.5t36 -54.5l-67 -53q-41 43 -54 73t-13 102v592l90 10v-595z" />
    <glyph glyph-name="m" unicode="m" horiz-adv-x="803" 
d="M162 471q45 66 135.5 66t128.5 -69q53 69 150 69q74 0 113 -47t39 -130v-360h-90v354q0 103 -89 103q-67 0 -100 -48v-409h-90v354q0 103 -89 103q-67 0 -100 -48v-409h-90v381l-8 139l73 10l13 -59h4z" />
    <glyph glyph-name="n" unicode="n" horiz-adv-x="543" 
d="M306 537q74 0 118 -42.5t44 -134.5v-360h-90v354q0 103 -103 103q-30 0 -59 -14.5t-46 -33.5v-409h-90v381l-8 139l73 10l13 -59h4q18 23 54.5 44.5t89.5 21.5z" />
    <glyph glyph-name="o" unicode="o" horiz-adv-x="524" 
d="M167.5 514q46.5 23 109 23t105 -24t62.5 -67q35 -77 35 -189q0 -108 -50 -183q-26 -40 -72.5 -63t-109 -23t-105 24t-62.5 68q-35 76 -35 188q0 108 50 184q26 39 72.5 62zM314 447q-23 10 -55.5 10t-55.5 -12t-35 -28.5t-18 -46.5q-9 -45 -9 -97t2 -76.5t9.5 -50.5
t21.5 -42q30 -36 92 -36q32 0 55 12t35 28.5t18 46.5q9 45 9 97t-2 76.5t-9.5 50.5t-21 42t-36.5 26z" />
    <glyph glyph-name="p" unicode="p" horiz-adv-x="532" 
d="M159 469q57 68 144 68t135.5 -61.5t48.5 -213.5q0 -77 -20.5 -133.5t-53.5 -85.5q-63 -55 -136 -55t-107 32l-3 -1l3 -25v-178l-90 -10v575l-8 139l73 10l10 -61h4zM170 94q43 -26 100 -26t89 42.5t32 157.5q0 139 -52 174q-22 15 -54 15q-76 0 -115 -50v-313z" />
    <glyph glyph-name="q" unicode="q" horiz-adv-x="528" 
d="M363 430q-44 27 -106 27t-89 -51t-27 -159q0 -179 114 -179q72 0 108 49v313zM226 -12q-68 0 -120 52q-61 61 -61 212q0 83 20 141.5t55 88.5q63 55 153 55q43 0 95 -10t85 -26v-684l-90 -10v185l5 51h-4q-46 -55 -138 -55z" />
    <glyph glyph-name="r" unicode="r" horiz-adv-x="365" 
d="M293 537q26 0 39.5 -4.5t22.5 -7t11 -3.5l-16 -90q-30 10 -71.5 10t-75 -35.5t-33.5 -85.5v-321h-90v381l-8 139l73 10l11 -101h4q17 49 51.5 78.5t81.5 29.5z" />
    <glyph glyph-name="s" unicode="s" horiz-adv-x="429" 
d="M88.5 496q48.5 41 125.5 41t120 -37.5t49 -100.5l-93 -19q-2 37 -24 58t-57 21t-54 -16.5t-19 -40.5t8 -39t26 -27q24 -17 67 -34.5t63 -28t46 -29.5q49 -35 49 -100.5t-52 -110.5t-137 -45t-169 54l35 66q94 -40 145 -40q82 0 82 64q0 29 -25.5 48.5t-68.5 38t-63.5 29
t-47.5 30.5q-54 40 -54 108.5t48.5 109.5z" />
    <glyph glyph-name="t" unicode="t" horiz-adv-x="350" 
d="M185 525h143l-12 -76h-131v-244q0 -78 13.5 -108.5t61.5 -30.5q27 0 53 11l26 -57q-12 -12 -44 -22t-58 -10q-88 0 -115 49t-27 162v250h-86l10 70l76 6l5 110l85 25v-135z" />
    <glyph glyph-name="u" unicode="u" horiz-adv-x="543" 
d="M231 -12q-68 0 -112 42t-44 130v361l90 9v-359q0 -103 97 -103q64 0 111 47v406l90 9v-386l8 -139l-73 -10l-11 61h-4q-57 -68 -152 -68z" />
    <glyph glyph-name="v" unicode="v" horiz-adv-x="435" 
d="M340 531l83 -10l-144 -521h-116l-151 521l90 10l118 -443h5z" />
    <glyph glyph-name="w" unicode="w" horiz-adv-x="683" 
d="M583 531l83 -10l-117 -521h-117l-89 391h-6l-85 -391h-117l-118 521l88 10l89 -441h7l91 405l101 10l96 -415h7z" />
    <glyph glyph-name="x" unicode="x" horiz-adv-x="428" 
d="M325 530l91 -10l-151 -242l175 -273l-97 -10l-125 210h-5l-123 -210l-92 10l164 272l-151 243l95 10l108 -182h5z" />
    <glyph glyph-name="y" unicode="y" horiz-adv-x="430" 
d="M333 529l87 -10l-123 -415q-41 -140 -76 -203q-22 -39 -71 -69.5t-85 -31.5l-37 73q48 4 91.5 36t52.5 83q-72 225 -167 528l94 10l114 -429h6z" />
    <glyph glyph-name="z" unicode="z" horiz-adv-x="407" 
d="M377 525v-83l-259 -366h279l-15 -76h-363v84l253 365h-251l13 76h343z" />
    <glyph glyph-name="braceleft" unicode="{" horiz-adv-x="347" 
d="M222 617l10 -163q0 -36 -13.5 -64t-33.5 -42q-41 -30 -70 -32v-6q55 -5 93 -59q24 -33 24 -69.5t-6 -90.5t-6 -83q0 -123 129 -135l11 -60h-36q-68 0 -126 39q-30 20 -49 55.5t-19 73t6 94.5t6 89q0 57 -24 81t-73 31v74q48 6 72.5 30t24.5 81q0 29 -6 87t-6 89
q0 88 61.5 132t132.5 44h35l-10 -60q-127 -11 -127 -136z" />
    <glyph glyph-name="bar" unicode="|" horiz-adv-x="265" 
d="M170 760v-910h-75v910h75z" />
    <glyph glyph-name="braceright" unicode="}" horiz-adv-x="346" 
d="M114 454l10 163q0 125 -127 136l-10 60h35q71 0 132.5 -44t61.5 -132q0 -31 -6 -89t-6 -87q0 -57 24.5 -81t72.5 -30v-74q-49 -7 -73 -31t-24 -81q0 -32 6 -89t6 -94.5t-19 -73t-49 -55.5q-59 -39 -126 -39h-36l11 60q129 12 129 135q0 29 -6 83t-6 90.5t24 69.5
q38 54 93 59v6q-29 2 -70 32q-20 14 -33.5 42t-13.5 64z" />
    <glyph glyph-name="asciitilde" unicode="~" horiz-adv-x="531" 
d="M367 209q-43 0 -107 25t-88.5 25t-39.5 -5t-22 -10q-22 -12 -44 -30l-25 61q69 64 118 64t113 -26t88.5 -26t39.5 5t22 10q22 12 44 30l25 -61q-67 -62 -124 -62z" />
    <glyph glyph-name="exclamdown" unicode="&#xa1;" horiz-adv-x="260" 
d="M170 323l17 -498l-104 -10l17 498zM138 538q61 0 61 -68q0 -25 -16.5 -43t-51.5 -18q-61 0 -61 68q0 25 16.5 43t51.5 18z" />
    <glyph glyph-name="cent" unicode="&#xa2;" horiz-adv-x="482" 
d="M306 536q-76 0 -115 -52.5t-39 -157t29 -142t91 -37.5t120 29l21 -59q-53 -43 -136 -50v-130l-82 -10l21 141q-76 11 -118 67.5t-42 152.5q0 139 54 228t162 99l5 124l82 10l-28 -135q63 -7 117 -44l-36 -61q-61 27 -106 27z" />
    <glyph glyph-name="sterling" unicode="&#xa3;" horiz-adv-x="459" 
d="M324 537q-86 0 -97 -84q-2 -12 -4 -62h167l-30 -69h-141q-7 -113 -52 -152q19 -3 62 -18t80 -15t87 32l21 -60q-55 -48 -122 -48q-42 0 -97 19.5t-85 19.5t-69 -27l-29 53q25 22 63 37q26 18 37 42.5t14 65.5l3 51h-87l18 60l73 9l4 56q8 96 66 135q51 34 119 34
q42 0 64 -6.5t27 -7.5t25.5 -10.5t21.5 -9.5l-34 -62q-44 17 -105 17z" />
    <glyph glyph-name="currency" unicode="&#xa4;" horiz-adv-x="618" 
d="M485 486q38 -48 38 -140t-55 -158l80 -80l-64 -52l-63 91q-54 -32 -130.5 -32t-121.5 28l-62 -87l-62 54l78 77q-34 47 -34 125q0 116 71 182l-73 85l67 48l58 -98q51 23 116.5 23t111.5 -26l83 101l60 -56zM314 471q-129 0 -129 -154q0 -121 112 -121q130 0 130 154
q0 121 -113 121z" />
    <glyph glyph-name="yen" unicode="&#xa5;" horiz-adv-x="459" 
d="M368 614l85 -10l-163 -301h121l-29 -58h-117l-7 -50h134l-29 -58h-113l-9 -67h-90l9 67h-137l29 58h116l7 50h-133l29 58h93l-100 301l85 10l76 -282h8z" />
    <glyph glyph-name="brokenbar" unicode="&#xa6;" horiz-adv-x="265" 
d="M95 190h75v-340h-75v340zM95 760h75v-340h-75v340z" />
    <glyph glyph-name="section" unicode="&#xa7;" horiz-adv-x="514" 
d="M321.5 673.5q-25.5 5.5 -58.5 5.5t-62.5 -20.5t-29.5 -58.5q0 -30 10 -42.5t14.5 -18t20.5 -14t22 -11.5q8 -5 52 -24.5t57.5 -26t38 -20t34.5 -24t24 -27.5q22 -27 22 -80q0 -111 -112 -150q92 -49 92 -140q0 -77 -56 -123.5t-152 -46.5t-195 54l33 74
q22 -13 74.5 -30.5t97 -17.5t72.5 20t28 60q0 57 -88 96q-72 31 -97 44t-54 34q-55 41 -55 114q0 50 30.5 88t77.5 61q-89 53 -89 134.5t54 129t153 47.5t178 -54l-31 -70q-1 0 -28.5 12t-39.5 16t-37.5 9.5zM152 313q0 -39 31 -64t94 -52q41 7 66.5 36t25.5 65.5t-27 60.5
t-104 54q-86 -26 -86 -100z" />
    <glyph glyph-name="dieresis" unicode="&#xa8;" horiz-adv-x="376" 
d="M100 711q52 0 52 -59q0 -52 -59 -52q-53 0 -53 59q0 25 12.5 38.5t47.5 13.5zM283 711q53 0 53 -59q0 -25 -12.5 -38.5t-47.5 -13.5q-52 0 -52 59q0 52 59 52z" />
    <glyph glyph-name="copyright" unicode="&#xa9;" horiz-adv-x="760" 
d="M277.5 405q41.5 55 114 55t96 -32t23.5 -94l-70 -6q0 36 -11.5 52t-48 16t-53.5 -32t-17 -100q0 -127 74 -127q27 0 41.5 13t14.5 48l70 -7q0 -55 -36.5 -87t-92.5 -32q-146 0 -146 185q0 93 41.5 148zM139.5 523.5q94.5 100.5 252 100.5t240.5 -98t83 -257.5
t-94.5 -259.5t-252 -100t-240.5 97.5t-83 257t94.5 260zM582.5 476q-62.5 77 -191 77t-202.5 -79.5t-74 -208.5t65.5 -207t191 -78t199.5 79t74 209.5t-62.5 207.5z" />
    <glyph glyph-name="ordfeminine" unicode="&#xaa;" horiz-adv-x="369" 
d="M300 676q19 -32 19 -87v-133q0 -63 8.5 -84t24.5 -39l-47 -36q-33 24 -48 53h-5q-51 -52 -112 -52q-104 0 -104 109q0 107 133 125l80 12v41q0 36 -16 54.5t-58 18.5t-102 -20l-22 48q71 31 149 31t100 -41zM112 412q0 -54 53 -54q48 0 84 39v99q-77 -13 -107 -28
t-30 -56z" />
    <glyph glyph-name="guillemotleft" unicode="&#xab;" horiz-adv-x="442" 
d="M222 447l-94 -199l94 -199l-63 -18l-119 217l119 217zM402 447l-94 -199l94 -199l-63 -18l-119 217l119 217z" />
    <glyph glyph-name="logicalnot" unicode="&#xac;" horiz-adv-x="561" 
d="M506 328v-231l-74 -10v166h-392l12 75h454z" />
    <glyph glyph-name="registered" unicode="&#xae;" horiz-adv-x="534" 
d="M184 645h101q36 0 53 -19.5t17 -50.5q0 -53 -53 -73l68 -109h-58l-58 98h-18v-98h-52v252zM236 608v-80h29q17 0 26.5 12t9.5 31q0 37 -34 37h-31zM104.5 692q64.5 68 171 68t162.5 -66t56 -174t-64 -176t-171 -68t-163 66t-56 174t64.5 176zM401.5 657
q-41.5 51 -126.5 51t-134.5 -52.5t-49.5 -138.5t43.5 -137.5t127 -51.5t132.5 52.5t49 139t-41.5 137.5z" />
    <glyph glyph-name="macron" unicode="&#xaf;" horiz-adv-x="340" 
d="M40 691h260v-70h-260v70z" />
    <glyph glyph-name="degree" unicode="&#xb0;" horiz-adv-x="344" 
d="M176 712q38 0 65.5 -13.5t40.5 -34.5q23 -41 23 -81q0 -64 -38 -102.5t-104 -38.5t-97 42t-31 87q0 64 39.5 102.5t101.5 38.5zM222 633.5q-17 20.5 -52 20.5t-51 -23t-16 -56t17.5 -54t51.5 -21q67 0 67 80q0 33 -17 53.5z" />
    <glyph glyph-name="plusminus" unicode="&#xb1;" horiz-adv-x="494" 
d="M284 387h168l-12 -75h-156v-156l-75 -13v169h-169l12 75h157v156l75 13v-169zM454 88l-12 -75h-400l12 75h400z" />
    <glyph glyph-name="twosuperior" unicode="&#xb2;" horiz-adv-x="380" 
d="M55 684q57 33 123 33t99.5 -32.5t33.5 -77.5t-21 -82t-44 -59q-22 -21 -123 -104l1 -5l53 10h143l-15 -63h-250v78l100 86q83 71 83 123q0 69 -74 69q-43 0 -87 -20z" />
    <glyph glyph-name="threesuperior" unicode="&#xb3;" horiz-adv-x="363" 
d="M51 689q62 28 123.5 28t90.5 -26t29 -67q0 -67 -64 -99q0 -3 21 -14.5t41.5 -35t20.5 -53.5q0 -60 -38.5 -92t-101.5 -32q-90 0 -138 39l22 44q65 -27 113 -27q70 0 70 70q0 31 -20.5 48t-56.5 17h-54v51q112 0 112 73q0 48 -60 48q-35 0 -86 -14z" />
    <glyph glyph-name="acute" unicode="&#xb4;" horiz-adv-x="309" 
d="M216 750l53 -69l-187 -117l-42 50z" />
    <glyph glyph-name="mu" unicode="&#xb5;" horiz-adv-x="569" 
d="M484 154q0 -72 41 -114l-53 -52q-41 23 -63 74q-60 -74 -157 -74q-22 0 -48.5 10.5t-36.5 28.5l-3 -1l11 -67v-143l-90 -10v715l91 9v-362q0 -50 29.5 -76t74.5 -26q67 0 114 49v406l90 9v-376z" />
    <glyph glyph-name="mu" unicode="&#x3bc;" horiz-adv-x="569" 
d="M484 154q0 -72 41 -114l-53 -52q-41 23 -63 74q-60 -74 -157 -74q-22 0 -48.5 10.5t-36.5 28.5l-3 -1l11 -67v-143l-90 -10v715l91 9v-362q0 -50 29.5 -76t74.5 -26q67 0 114 49v406l90 9v-376z" />
    <glyph glyph-name="paragraph" unicode="&#xb6;" horiz-adv-x="595" 
d="M538 700v-53h-43v-534q0 -63 -31.5 -106.5t-88.5 -84.5l-105 -76l-42 49q48 34 58.5 59.5t10.5 91.5v215h-66q-96 0 -142 63t-46 153q0 223 189 223h306zM372 647v-653q51 47 51 121v532h-51zM194.5 544.5q-2.5 -26.5 -2.5 -87t17.5 -103t61.5 -42.5h26v337h-26
q-50 0 -66 -52q-8 -26 -10.5 -52.5z" />
    <glyph glyph-name="periodcentered" unicode="&#xb7;" horiz-adv-x="206" 
d="M103 370q61 0 61 -68q0 -25 -16.5 -43t-51.5 -18q-61 0 -61 68q0 25 16.5 43t51.5 18z" />
    <glyph glyph-name="cedilla" unicode="&#xb8;" horiz-adv-x="243" 
d="M177 -58q31 -18 31 -55t-23.5 -56t-63.5 -19t-86 23l18 45q37 -17 65 -17t28 26q0 15 -36.5 25t-39.5 11l26 96h47l-11 -65q42 -12 45 -14z" />
    <glyph glyph-name="onesuperior" unicode="&#xb9;" horiz-adv-x="329" 
d="M294 304h-232v53l85 9v213l7 55l-5 4l-31 -22l-54 -26l-24 42l84 55l34 30l66 -7l-7 -98v-246l77 -9v-53z" />
    <glyph glyph-name="ordmasculine" unicode="&#xba;" horiz-adv-x="405" 
d="M346 646q25 -55 25 -142.5t-43 -146.5t-137 -59q-99 0 -131 70q-25 56 -25 143.5t43 146.5t139.5 59t128.5 -71zM260.5 636q-22.5 22 -55 22t-49.5 -9.5t-25.5 -22t-12.5 -36.5q-7 -33 -7 -94.5t19.5 -100t77.5 -38.5q46 0 68 31q19 29 19 122q0 46 -6 75t-28.5 51z" />
    <glyph glyph-name="guillemotright" unicode="&#xbb;" horiz-adv-x="442" 
d="M283 465l119 -217l-119 -217l-63 18l94 199l-94 199zM103 465l119 -217l-119 -217l-63 18l94 199l-94 199z" />
    <glyph glyph-name="onequarter" unicode="&#xbc;" horiz-adv-x="735" 
d="M570 145v48l7 87l54 6v-141h79l-13 -56h-66v-84l-61 -8v92h-182v69l167 258l47 -31l-144 -240h112zM545 704l-309 -716l-53 27l310 716zM264 304h-232v53l87 9v213l7 55l-5 4l-33 -22l-54 -26l-24 42l84 55l34 30l66 -7l-7 -98v-246l77 -9v-53z" />
    <glyph glyph-name="onehalf" unicode="&#xbd;" horiz-adv-x="743" 
d="M453 380q57 33 123 33t101 -32.5t35 -77.5t-22 -82.5t-45 -58.5q-14 -14 -124 -104l1 -5l53 10h143l-15 -63h-250v78l99 87q42 37 63 64.5t21 57.5q0 68 -74 68q-45 0 -87 -19zM545 704l-309 -716l-53 27l310 716zM264 304h-232v53l87 9v213l7 55l-5 4l-33 -22l-54 -26
l-24 42l84 55l34 30l66 -7l-7 -98v-246l77 -9v-53z" />
    <glyph glyph-name="threequarters" unicode="&#xbe;" horiz-adv-x="746" 
d="M556 704l-309 -716l-53 27l310 716zM41 689q62 28 123.5 28t90.5 -26t29 -67q0 -67 -64 -99q0 -3 21 -14.5t41.5 -35t20.5 -53.5q0 -60 -38.5 -92t-101.5 -32q-90 0 -138 39l22 44q65 -27 113 -27q70 0 70 70q0 31 -20.5 48t-56.5 17h-54v51q112 0 112 73q0 48 -60 48
q-35 0 -86 -14zM581 145v48l7 87l54 6v-141h79l-13 -56h-66v-84l-61 -8v92h-182v69l167 258l47 -31l-144 -240h112z" />
    <glyph glyph-name="questiondown" unicode="&#xbf;" horiz-adv-x="434" 
d="M313 347l4 -112q-1 -50 -59.5 -92.5t-81 -75.5t-22.5 -77q0 -97 114 -97q41 0 110 23l24 -61q-70 -42 -178 -42q-82 0 -126 44t-44 113q0 92 55 148q24 25 65 56.5t48.5 49.5t9.5 56l2 59zM271 537q61 0 61 -68q0 -25 -16.5 -43t-51.5 -18q-61 0 -61 68q0 25 16.5 43
t51.5 18z" />
    <glyph glyph-name="Agrave" unicode="&#xc0;" horiz-adv-x="534" 
d="M348 792l-33 -56l-208 85l38 77zM328 705l194 -705h-101l-47 185h-222l-49 -185h-93l195 693zM262 615l-87 -348h179l-85 348h-7z" />
    <glyph glyph-name="Aacute" unicode="&#xc1;" horiz-adv-x="534" 
d="M383 898l38 -77l-207 -85l-33 56zM328 705l194 -705h-101l-47 185h-222l-49 -185h-93l195 693zM262 615l-87 -348h179l-85 348h-7z" />
    <glyph glyph-name="Acircumflex" unicode="&#xc2;" horiz-adv-x="534" 
d="M293 885l127 -106l-38 -44l-115 77l-115 -77l-38 44l127 106h52zM328 705l194 -705h-101l-47 185h-222l-49 -185h-93l195 693zM262 615l-87 -348h179l-85 348h-7z" />
    <glyph glyph-name="Atilde" unicode="&#xc3;" horiz-adv-x="534" 
d="M328 705l194 -705h-101l-47 185h-222l-49 -185h-93l195 693zM262 615l-87 -348h179l-85 348h-7zM324 775q-26 0 -64.5 16t-65 16t-72.5 -32l-21 61q56 49 109 49q26 0 64.5 -16t65 -16t72.5 32l21 -61q-56 -49 -109 -49z" />
    <glyph glyph-name="Adieresis" unicode="&#xc4;" horiz-adv-x="534" 
d="M179 884q52 0 52 -59q0 -52 -59 -52q-53 0 -53 59q0 25 12.5 38.5t47.5 13.5zM362 884q53 0 53 -59q0 -25 -12.5 -38.5t-47.5 -13.5q-52 0 -52 59q0 52 59 52zM328 705l194 -705h-101l-47 185h-222l-49 -185h-93l195 693zM262 615l-87 -348h179l-85 348h-7z" />
    <glyph glyph-name="Aring" unicode="&#xc5;" horiz-adv-x="534" 
d="M328 705l194 -705h-101l-47 185h-222l-49 -185h-93l195 693zM262 615l-87 -348h179l-85 348h-7zM203.5 889.5q23.5 26.5 66 26.5t63.5 -24t21 -59.5t-23.5 -63t-65.5 -27.5t-63.5 25t-21.5 60.5t23.5 62zM264 871q-18 0 -27.5 -12t-9.5 -29q0 -43 43 -43q18 0 27.5 12
t9.5 29q0 43 -43 43z" />
    <glyph glyph-name="AE" unicode="&#xc6;" horiz-adv-x="793" 
d="M487 614v-215h232l-12 -84h-220v-229h281l-12 -86h-365v185h-220l-93 -185h-98l357 700h426l-12 -86h-264zM391 267v348h-13l-168 -348h181z" />
    <glyph glyph-name="Ccedilla" unicode="&#xc7;" horiz-adv-x="542" 
d="M398 -114q0 -36 -23.5 -55t-63.5 -19t-86 23l18 45q37 -17 65 -17t28 26q0 17 -53 30q-21 5 -23 6l17 66q-56 6 -98 29.5t-66 56.5t-39 79q-24 79 -24 172t15 156.5t46.5 116t86 82t126.5 29.5q104 0 148 -51t44 -153l-102 -10q0 61 -24 94.5t-84 33.5q-78 0 -114 -56
q-31 -46 -38 -150q-2 -40 -2 -100q0 -124 46 -185t142 -61q45 0 126 28q19 7 22 8l28 -72q-86 -47 -189 -50l-5 -32q61 -15 71 -40q5 -12 5 -30z" />
    <glyph glyph-name="Egrave" unicode="&#xc8;" horiz-adv-x="499" 
d="M363 792l-33 -56l-208 85l38 77zM90 700h379l-12 -86h-271v-215h239l-12 -84h-227v-229h288l-12 -86h-372v700z" />
    <glyph glyph-name="Eacute" unicode="&#xc9;" horiz-adv-x="499" 
d="M400 898l38 -77l-207 -85l-33 56zM90 700h379l-12 -86h-271v-215h239l-12 -84h-227v-229h288l-12 -86h-372v700z" />
    <glyph glyph-name="Ecircumflex" unicode="&#xca;" horiz-adv-x="499" 
d="M302 885l127 -106l-38 -44l-115 77l-115 -77l-38 44l127 106h52zM90 700h379l-12 -86h-271v-215h239l-12 -84h-227v-229h288l-12 -86h-372v700z" />
    <glyph glyph-name="Edieresis" unicode="&#xcb;" horiz-adv-x="499" 
d="M188 884q52 0 52 -59q0 -52 -59 -52q-53 0 -53 59q0 25 12.5 38.5t47.5 13.5zM371 884q53 0 53 -59q0 -25 -12.5 -38.5t-47.5 -13.5q-52 0 -52 59q0 52 59 52zM90 700h379l-12 -86h-271v-215h239l-12 -84h-227v-229h288l-12 -86h-372v700z" />
    <glyph glyph-name="Igrave" unicode="&#xcc;" horiz-adv-x="276" 
d="M219 792l-33 -56l-208 85l38 77zM186 700v-700h-96v700h96z" />
    <glyph glyph-name="Iacute" unicode="&#xcd;" horiz-adv-x="276" 
d="M258 898l38 -77l-208 -85l-33 56zM186 700v-700h-96v700h96z" />
    <glyph glyph-name="Icircumflex" unicode="&#xce;" horiz-adv-x="276" 
d="M164 885l117 -106l-38 -44l-105 77l-105 -77l-38 44l117 106h52zM186 700v-700h-96v700h96z" />
    <glyph glyph-name="Idieresis" unicode="&#xcf;" horiz-adv-x="276" 
d="M70 884q52 0 52 -59q0 -52 -59 -52q-53 0 -53 59q0 25 12.5 38.5t47.5 13.5zM213 884q53 0 53 -59q0 -25 -12.5 -38.5t-47.5 -13.5q-52 0 -52 59q0 52 59 52zM186 700v-700h-96v700h96z" />
    <glyph glyph-name="Eth" unicode="&#xd0;" horiz-adv-x="617" 
d="M95 700h204q66 0 115.5 -21.5t78 -54.5t45.5 -82q29 -80 29 -198q0 -140 -58 -237q-30 -50 -83 -78.5t-124 -28.5h-207v318h-79l10 70l69 6v306zM191 616v-222h155l-12 -76h-143v-234h100q124 0 157 114q17 62 17 139t-8.5 121.5t-28.5 81.5q-40 76 -145 76h-92z" />
    <glyph glyph-name="Ntilde" unicode="&#xd1;" horiz-adv-x="630" 
d="M372 775q-26 0 -64.5 16t-65 16t-72.5 -32l-21 61q56 49 109 49q26 0 64.5 -16t65 -16t72.5 32l21 -61q-56 -49 -109 -49zM540 700v-700h-101l-232 474l-33 92l-5 -3l17 -103v-460h-96v700h102l231 -486l34 -95l5 3l-18 118v460h96z" />
    <glyph glyph-name="Ograve" unicode="&#xd2;" horiz-adv-x="626" 
d="M394 792l-33 -56l-208 85l38 77zM378 611.5q-32 14.5 -77.5 14.5t-77 -22.5t-46.5 -65.5q-25 -73 -25 -196q0 -160 45 -216q41 -52 126 -52q40 0 68.5 16.5t44 41t24.5 64.5q14 62 14 137t-3 110.5t-13.5 72t-29 59t-50.5 37zM324 712q252 0 252 -347q0 -179 -69 -278
t-205 -99q-252 0 -252 347q0 179 69 278t205 99z" />
    <glyph glyph-name="Oacute" unicode="&#xd3;" horiz-adv-x="626" 
d="M432 898l38 -77l-208 -85l-33 56zM378 611.5q-32 14.5 -77.5 14.5t-77 -22.5t-46.5 -65.5q-25 -73 -25 -196q0 -160 45 -216q41 -52 126 -52q40 0 68.5 16.5t44 41t24.5 64.5q14 62 14 137t-3 110.5t-13.5 72t-29 59t-50.5 37zM324 712q252 0 252 -347q0 -179 -69 -278
t-205 -99q-252 0 -252 347q0 179 69 278t205 99z" />
    <glyph glyph-name="Ocircumflex" unicode="&#xd4;" horiz-adv-x="626" 
d="M345 885l127 -106l-38 -44l-115 77l-115 -77l-38 44l127 106h52zM378 611.5q-32 14.5 -77.5 14.5t-77 -22.5t-46.5 -65.5q-25 -73 -25 -196q0 -160 45 -216q41 -52 126 -52q40 0 68.5 16.5t44 41t24.5 64.5q14 62 14 137t-3 110.5t-13.5 72t-29 59t-50.5 37zM324 712
q252 0 252 -347q0 -179 -69 -278t-205 -99q-252 0 -252 347q0 179 69 278t205 99z" />
    <glyph glyph-name="Otilde" unicode="&#xd5;" horiz-adv-x="626" 
d="M378 611.5q-32 14.5 -77.5 14.5t-77 -22.5t-46.5 -65.5q-25 -73 -25 -196q0 -160 45 -216q41 -52 126 -52q40 0 68.5 16.5t44 41t24.5 64.5q14 62 14 137t-3 110.5t-13.5 72t-29 59t-50.5 37zM324 712q252 0 252 -347q0 -179 -69 -278t-205 -99q-252 0 -252 347
q0 179 69 278t205 99zM376 775q-26 0 -64.5 16t-65 16t-72.5 -32l-21 61q56 49 109 49q26 0 64.5 -16t65 -16t72.5 32l21 -61q-56 -49 -109 -49z" />
    <glyph glyph-name="Odieresis" unicode="&#xd6;" horiz-adv-x="626" 
d="M231 884q52 0 52 -59q0 -52 -59 -52q-53 0 -53 59q0 25 12.5 38.5t47.5 13.5zM414 884q53 0 53 -59q0 -25 -12.5 -38.5t-47.5 -13.5q-52 0 -52 59q0 52 59 52zM378 611.5q-32 14.5 -77.5 14.5t-77 -22.5t-46.5 -65.5q-25 -73 -25 -196q0 -160 45 -216q41 -52 126 -52
q40 0 68.5 16.5t44 41t24.5 64.5q14 62 14 137t-3 110.5t-13.5 72t-29 59t-50.5 37zM324 712q252 0 252 -347q0 -179 -69 -278t-205 -99q-252 0 -252 347q0 179 69 278t205 99z" />
    <glyph glyph-name="multiply" unicode="&#xd7;" horiz-adv-x="539" 
d="M447 403l-128 -128l122 -121l-47 -59l-128 127l-118 -118l-63 43l128 128l-121 121l47 60l127 -128l119 119z" />
    <glyph glyph-name="Oslash" unicode="&#xd8;" horiz-adv-x="626" 
d="M576 365q0 -179 -69 -278t-205 -99q-37 0 -71 8l-30 -87l-62 21l31 91q-120 73 -120 314q0 179 69 278t205 99q43 0 81 -11l31 90l62 -22l-33 -96q111 -77 111 -308zM375 613q-33 13 -76.5 13t-76.5 -28t-48 -68q-25 -71 -25 -179q0 -172 55 -233zM261 82q27 -8 65 -8
t67.5 17.5t45.5 50.5q34 71 36 149q1 23 1 43q0 46 -6.5 120t-39.5 117z" />
    <glyph glyph-name="Ugrave" unicode="&#xd9;" horiz-adv-x="622" 
d="M386 792l-33 -56l-208 85l38 77zM532 700v-547l8 -147l-78 -11l-10 58h-4q-65 -65 -157 -65t-149 47t-57 142v523h96v-506q0 -63 38.5 -91.5t94.5 -28.5q82 0 122 62v564h96z" />
    <glyph glyph-name="Uacute" unicode="&#xda;" horiz-adv-x="622" 
d="M425 898l38 -77l-208 -85l-33 56zM532 700v-547l8 -147l-78 -11l-10 58h-4q-65 -65 -157 -65t-149 47t-57 142v523h96v-506q0 -63 38.5 -91.5t94.5 -28.5q82 0 122 62v564h96z" />
    <glyph glyph-name="Ucircumflex" unicode="&#xdb;" horiz-adv-x="622" 
d="M331 885l127 -106l-38 -44l-115 77l-115 -77l-38 44l127 106h52zM532 700v-547l8 -147l-78 -11l-10 58h-4q-65 -65 -157 -65t-149 47t-57 142v523h96v-506q0 -63 38.5 -91.5t94.5 -28.5q82 0 122 62v564h96z" />
    <glyph glyph-name="Udieresis" unicode="&#xdc;" horiz-adv-x="622" 
d="M217 884q52 0 52 -59q0 -52 -59 -52q-53 0 -53 59q0 25 12.5 38.5t47.5 13.5zM400 884q53 0 53 -59q0 -25 -12.5 -38.5t-47.5 -13.5q-52 0 -52 59q0 52 59 52zM532 700v-547l8 -147l-78 -11l-10 58h-4q-65 -65 -157 -65t-149 47t-57 142v523h96v-506q0 -63 38.5 -91.5
t94.5 -28.5q82 0 122 62v564h96z" />
    <glyph glyph-name="Yacute" unicode="&#xdd;" horiz-adv-x="478" 
d="M366 898l38 -77l-207 -85l-33 56zM290 0h-96v252q-111 253 -194 441l97 12l142 -360h6l142 360l91 -12l-188 -441v-252z" />
    <glyph glyph-name="Thorn" unicode="&#xde;" horiz-adv-x="536" 
d="M186 700v-130h134q110 0 152.5 -54.5t42.5 -145.5q0 -89 -48 -156q-26 -37 -79 -58.5t-128 -21.5h-74v-134h-96v700h96zM186 494v-283h100q127 0 127 136q0 74 -26.5 110.5t-109.5 36.5h-91z" />
    <glyph glyph-name="germandbls" unicode="&#xdf;" horiz-adv-x="565" 
d="M141 709.5q56 50.5 136.5 50.5t127.5 -40t47 -119q0 -85 -43 -123q-18 -15 -36 -26q-43 -26 -43 -62q0 -31 70 -72q30 -17 59.5 -37.5t50 -54.5t20.5 -77q0 -70 -52 -115.5t-123.5 -45.5t-136.5 29l29 73q55 -22 99 -22t66 20.5t22 53.5t-17 53t-53 39t-51.5 28.5
t-36.5 27.5q-42 35 -42 91q0 55 45 88q19 14 38 29q45 34 45 99q0 81 -82 81q-105 0 -105 -127v-551h-90v555q0 104 56 154.5z" />
    <glyph glyph-name="agrave" unicode="&#xe0;" 
d="M291 614l-42 -50l-187 117l53 69zM239 537q121 0 148 -72q14 -37 14 -98v-213q0 -72 41 -114l-53 -52q-18 11 -36.5 32.5t-25.5 42.5h-3q-55 -75 -152 -75q-143 0 -143 149q0 132 186 159l96 14v56q0 91 -83 91q-53 0 -143 -28l-32 63q86 45 186 45zM125 126
q0 -58 71.5 -58t114.5 50v122q-126 -17 -155 -40q-31 -25 -31 -74z" />
    <glyph glyph-name="aacute" unicode="&#xe1;" 
d="M364 681l-187 -117l-42 50l176 136zM239 537q121 0 148 -72q14 -37 14 -98v-213q0 -72 41 -114l-53 -52q-18 11 -36.5 32.5t-25.5 42.5h-3q-55 -75 -152 -75q-143 0 -143 149q0 132 186 159l96 14v56q0 91 -83 91q-53 0 -143 -28l-32 63q86 45 186 45zM125 126
q0 -58 71.5 -58t114.5 50v122q-126 -17 -155 -40q-31 -25 -31 -74z" />
    <glyph glyph-name="acircumflex" unicode="&#xe2;" 
d="M242 731l125 -118l-38 -46l-115 89l-115 -89l-38 46l125 118h56zM239 537q121 0 148 -72q14 -37 14 -98v-213q0 -72 41 -114l-53 -52q-18 11 -36.5 32.5t-25.5 42.5h-3q-55 -75 -152 -75q-143 0 -143 149q0 132 186 159l96 14v56q0 91 -83 91q-53 0 -143 -28l-32 63
q86 45 186 45zM125 126q0 -58 71.5 -58t114.5 50v122q-126 -17 -155 -40q-31 -25 -31 -74z" />
    <glyph glyph-name="atilde" unicode="&#xe3;" 
d="M268 600q-26 0 -64.5 16t-65 16t-72.5 -32l-21 61q56 49 109 49q26 0 64.5 -16t65 -16t72.5 32l21 -61q-56 -49 -109 -49zM311 366q0 91 -83 91q-53 0 -143 -28l-32 63q86 45 186 45q121 0 148 -72q14 -37 14 -98v-213q0 -72 41 -114l-53 -52q-18 11 -36.5 32.5
t-25.5 42.5h-3q-55 -75 -152 -75q-143 0 -143 149q0 132 186 159l96 14v56zM125 126q0 -58 71.5 -58t114.5 50v122q-126 -17 -155 -40q-31 -25 -31 -74z" />
    <glyph glyph-name="adieresis" unicode="&#xe4;" 
d="M131 711q52 0 52 -59q0 -52 -59 -52q-53 0 -53 59q0 25 12.5 38.5t47.5 13.5zM314 711q53 0 53 -59q0 -25 -12.5 -38.5t-47.5 -13.5q-52 0 -52 59q0 52 59 52zM239 537q121 0 148 -72q14 -37 14 -98v-213q0 -72 41 -114l-53 -52q-18 11 -36.5 32.5t-25.5 42.5h-3
q-55 -75 -152 -75q-143 0 -143 149q0 132 186 159l96 14v56q0 91 -83 91q-53 0 -143 -28l-32 63q86 45 186 45zM125 126q0 -58 71.5 -58t114.5 50v122q-126 -17 -155 -40q-31 -25 -31 -74z" />
    <glyph glyph-name="aring" unicode="&#xe5;" 
d="M239 537q121 0 148 -72q14 -37 14 -98v-213q0 -72 41 -114l-53 -52q-18 11 -36.5 32.5t-25.5 42.5h-3q-55 -75 -152 -75q-143 0 -143 149q0 132 186 159l96 14v56q0 91 -83 91q-53 0 -143 -28l-32 63q86 45 186 45zM125 126q0 -58 71.5 -58t114.5 50v122
q-126 -17 -155 -40q-31 -25 -31 -74zM174.5 720.5q23.5 26.5 66 26.5t63.5 -24t21 -59.5t-23.5 -63t-65.5 -27.5t-63.5 25t-21.5 60.5t23.5 62zM241 618q18 0 27.5 12t9.5 29q0 43 -43 43q-18 0 -27.5 -12t-9.5 -29q0 -43 43 -43z" />
    <glyph glyph-name="ae" unicode="&#xe6;" horiz-adv-x="740" 
d="M53 492q86 45 186.5 45t133.5 -74q55 74 158 74q84 0 125 -52q33 -43 41 -141q3 -39 3 -97l-41 -6h-256q0 -75 21 -120q26 -53 106 -53q63 0 127 32l28 -62q-83 -50 -167 -50q-122 0 -168 83q-75 -83 -184 -83q-137 0 -137 150q0 132 186 160l96 14v54q0 91 -83 91
q-53 0 -143 -28zM125 135q0 -71 74 -71q32 0 63.5 17t48.5 37v124q-125 -17 -155 -41q-31 -25 -31 -66zM514 457q-40 0 -64.5 -21.5t-33 -51t-11.5 -72.5h199q0 80 -16 112.5t-74 32.5z" />
    <glyph glyph-name="ccedilla" unicode="&#xe7;" horiz-adv-x="459" 
d="M103.5 460.5q58.5 76.5 156 76.5t130 -45.5t32.5 -132.5l-90 -6q0 57 -17 80.5t-69 23.5q-105 0 -105 -194.5t134 -194.5q59 0 125 33l27 -60q-26 -22 -72 -37.5t-100 -15.5l-5 -32q61 -15 71 -40q5 -12 5 -30q0 -36 -23.5 -55t-63.5 -19t-86 23l18 45q37 -17 65 -17
t28 26q0 17 -53 30q-21 5 -23 6l18 68q-161 29 -161 266q0 125 58.5 201.5z" />
    <glyph glyph-name="egrave" unicode="&#xe8;" 
d="M269 537q86 0 127 -52q34 -42 42 -141q3 -39 3 -97l-41 -6h-259q0 -126 67 -159q28 -14 77 -14t113 32l28 -62q-83 -50 -167 -50q-214 0 -214 270q0 128 56.5 203.5t167.5 75.5zM329 424.5q-16 32.5 -73.5 32.5t-81.5 -38.5t-30 -106.5h201q0 80 -16 112.5zM90 681l53 69
l176 -136l-42 -50z" />
    <glyph glyph-name="eacute" unicode="&#xe9;" 
d="M269 537q86 0 127 -52q34 -42 42 -141q3 -39 3 -97l-41 -6h-259q0 -126 67 -159q28 -14 77 -14t113 32l28 -62q-83 -50 -167 -50q-214 0 -214 270q0 128 56.5 203.5t167.5 75.5zM329 424.5q-16 32.5 -73.5 32.5t-81.5 -38.5t-30 -106.5h201q0 80 -16 112.5zM341 750
l53 -69l-187 -117l-42 50z" />
    <glyph glyph-name="ecircumflex" unicode="&#xea;" 
d="M269 537q86 0 127 -52q34 -42 42 -141q3 -39 3 -97l-41 -6h-259q0 -126 67 -159q28 -14 77 -14t113 32l28 -62q-83 -50 -167 -50q-214 0 -214 270q0 128 56.5 203.5t167.5 75.5zM329 424.5q-16 32.5 -73.5 32.5t-81.5 -38.5t-30 -106.5h201q0 80 -16 112.5zM278 731
l125 -118l-38 -46l-115 89l-115 -89l-38 46l125 118h56z" />
    <glyph glyph-name="edieresis" unicode="&#xeb;" 
d="M269 537q86 0 127 -52q34 -42 42 -141q3 -39 3 -97l-41 -6h-259q0 -126 67 -159q28 -14 77 -14t113 32l28 -62q-83 -50 -167 -50q-214 0 -214 270q0 128 56.5 203.5t167.5 75.5zM329 424.5q-16 32.5 -73.5 32.5t-81.5 -38.5t-30 -106.5h201q0 80 -16 112.5zM154 711
q52 0 52 -59q0 -52 -59 -52q-53 0 -53 59q0 25 12.5 38.5t47.5 13.5zM337 711q53 0 53 -59q0 -25 -12.5 -38.5t-47.5 -13.5q-52 0 -52 59q0 52 59 52z" />
    <glyph glyph-name="igrave" unicode="&#xec;" horiz-adv-x="250" 
d="M80 0v520l90 10v-530h-90zM158 564l-187 117l53 69l176 -136z" />
    <glyph glyph-name="iacute" unicode="&#xed;" horiz-adv-x="250" 
d="M223 750l53 -69l-187 -117l-42 50zM170 0h-90v520l90 10v-530z" />
    <glyph glyph-name="icircumflex" unicode="&#xee;" horiz-adv-x="250" 
d="M153 731l110 -118l-38 -46l-100 85l-101 -85l-38 46l111 118h56zM170 0h-90v520l90 10v-530z" />
    <glyph glyph-name="idieresis" unicode="&#xef;" horiz-adv-x="250" 
d="M60 711q52 0 52 -59q0 -52 -59 -52q-53 0 -53 59q0 25 12.5 38.5t47.5 13.5zM197 711q53 0 53 -59q0 -25 -12.5 -38.5t-47.5 -13.5q-52 0 -52 59q0 52 59 52zM170 0h-90v520l90 10v-530z" />
    <glyph glyph-name="eth" unicode="&#xf0;" horiz-adv-x="519" 
d="M488 253q0 -119 -55.5 -192.5t-172.5 -73.5q-96 0 -151 57t-55 146t50.5 147t154.5 58q38 0 73 -13t52 -31q-26 160 -146 245l-82 -69l-44 44l62 65q-37 21 -96 43l35 64q79 -26 127 -53l72 59l44 -44l-53 -54q185 -137 185 -398zM389 269q-43 46 -109.5 46t-98 -34
t-31.5 -90t30.5 -89.5t91 -33.5t91 40.5t30.5 111.5q0 29 -4 49z" />
    <glyph glyph-name="ntilde" unicode="&#xf1;" horiz-adv-x="543" 
d="M306 537q74 0 118 -42.5t44 -134.5v-360h-90v354q0 103 -103 103q-30 0 -59 -14.5t-46 -33.5v-409h-90v381l-8 139l73 10l13 -59h4q18 23 54.5 44.5t89.5 21.5zM325 600q-26 0 -64.5 16t-65 16t-72.5 -32l-21 61q56 49 109 49q26 0 64.5 -16t65 -16t72.5 32l21 -61
q-56 -49 -109 -49z" />
    <glyph glyph-name="ograve" unicode="&#xf2;" horiz-adv-x="524" 
d="M335 614l-42 -50l-187 117l53 69zM167.5 514q46.5 23 109 23t105 -24t62.5 -67q35 -77 35 -189q0 -108 -50 -183q-26 -40 -72.5 -63t-109 -23t-105 24t-62.5 68q-35 76 -35 188q0 108 50 184q26 39 72.5 62zM314 447q-23 10 -55.5 10t-55.5 -12t-35 -28.5t-18 -46.5
q-9 -45 -9 -97t2 -76.5t9.5 -50.5t21.5 -42q30 -36 92 -36q32 0 55 12t35 28.5t18 46.5q9 45 9 97t-2 76.5t-9.5 50.5t-21 42t-36.5 26z" />
    <glyph glyph-name="oacute" unicode="&#xf3;" horiz-adv-x="524" 
d="M361 750l53 -69l-187 -117l-42 50zM356.5 11q-46.5 -23 -109 -23t-105 24t-62.5 68q-35 76 -35 188q0 108 50 184q26 39 72.5 62t109 23t105 -24t62.5 -67q35 -77 35 -189q0 -108 -50 -183q-26 -40 -72.5 -63zM210 78q23 -10 55.5 -10t55.5 12t35 28.5t18 46.5q9 45 9 97
t-2 76.5t-9.5 50.5t-21.5 42q-30 36 -92 36q-32 0 -55 -12t-35 -28.5t-18 -46.5q-9 -45 -9 -97t2 -76.5t9.5 -50.5t21 -42t36.5 -26z" />
    <glyph glyph-name="ocircumflex" unicode="&#xf4;" horiz-adv-x="524" 
d="M292 731l125 -118l-38 -46l-115 89l-115 -89l-38 46l125 118h56zM167.5 514q46.5 23 109 23t105 -24t62.5 -67q35 -77 35 -189q0 -108 -50 -183q-26 -40 -72.5 -63t-109 -23t-105 24t-62.5 68q-35 76 -35 188q0 108 50 184q26 39 72.5 62zM314 447q-23 10 -55.5 10
t-55.5 -12t-35 -28.5t-18 -46.5q-9 -45 -9 -97t2 -76.5t9.5 -50.5t21.5 -42q30 -36 92 -36q32 0 55 12t35 28.5t18 46.5q9 45 9 97t-2 76.5t-9.5 50.5t-21 42t-36.5 26z" />
    <glyph glyph-name="otilde" unicode="&#xf5;" horiz-adv-x="524" 
d="M317 600q-26 0 -64.5 16t-65 16t-72.5 -32l-21 61q56 49 109 49q26 0 64.5 -16t65 -16t72.5 32l21 -61q-56 -49 -109 -49zM167.5 514q46.5 23 109 23t105 -24t62.5 -67q35 -77 35 -189q0 -108 -50 -183q-26 -40 -72.5 -63t-109 -23t-105 24t-62.5 68q-35 76 -35 188
q0 108 50 184q26 39 72.5 62zM314 447q-23 10 -55.5 10t-55.5 -12t-35 -28.5t-18 -46.5q-9 -45 -9 -97t2 -76.5t9.5 -50.5t21.5 -42q30 -36 92 -36q32 0 55 12t35 28.5t18 46.5q9 45 9 97t-2 76.5t-9.5 50.5t-21 42t-36.5 26z" />
    <glyph glyph-name="odieresis" unicode="&#xf6;" horiz-adv-x="524" 
d="M175 711q52 0 52 -59q0 -52 -59 -52q-53 0 -53 59q0 25 12.5 38.5t47.5 13.5zM358 711q53 0 53 -59q0 -25 -12.5 -38.5t-47.5 -13.5q-52 0 -52 59q0 52 59 52zM167.5 514q46.5 23 109 23t105 -24t62.5 -67q35 -77 35 -189q0 -108 -50 -183q-26 -40 -72.5 -63t-109 -23
t-105 24t-62.5 68q-35 76 -35 188q0 108 50 184q26 39 72.5 62zM314 447q-23 10 -55.5 10t-55.5 -12t-35 -28.5t-18 -46.5q-9 -45 -9 -97t2 -76.5t9.5 -50.5t21.5 -42q30 -36 92 -36q32 0 55 12t35 28.5t18 46.5q9 45 9 97t-2 76.5t-9.5 50.5t-21 42t-36.5 26z" />
    <glyph glyph-name="divide" unicode="&#xf7;" horiz-adv-x="572" 
d="M230 108q0 25 16 42.5t50 17.5q59 0 59 -66q0 -24 -16.5 -41.5t-49.5 -17.5q-59 0 -59 65zM230 475q0 25 16 42t50 17q59 0 59 -66q0 -24 -16.5 -41.5t-49.5 -17.5q-59 0 -59 66zM532 328l-12 -75h-480l12 75h480z" />
    <glyph glyph-name="oslash" unicode="&#xf8;" horiz-adv-x="524" 
d="M45 268q0 108 50 184q26 39 72.5 62t109.5 23q28 0 52 -6l28 81l52 -18l-28 -81q98 -57 98 -256q0 -108 -50 -183q-26 -40 -72.5 -63t-109.5 -23q-17 0 -45 4l-27 -79l-52 18l26 77q-104 54 -104 260zM141 256q0 -120 39 -159l122 354q-20 6 -48 6t-51 -12t-35 -28.5
t-18 -46.5q-9 -45 -9 -114zM229 72q15 -4 42 -4t50 12t35 28.5t18 46.5q9 45 9 114q0 112 -34 152z" />
    <glyph glyph-name="ugrave" unicode="&#xf9;" horiz-adv-x="543" 
d="M231 -12q-68 0 -112 42t-44 130v361l90 9v-359q0 -103 97 -103q64 0 111 47v406l90 9v-386l8 -139l-73 -10l-11 61h-4q-57 -68 -152 -68zM347 614l-42 -50l-187 117l53 69z" />
    <glyph glyph-name="uacute" unicode="&#xfa;" horiz-adv-x="543" 
d="M231 -12q-68 0 -112 42t-44 130v361l90 9v-359q0 -103 97 -103q64 0 111 47v406l90 9v-386l8 -139l-73 -10l-11 61h-4q-57 -68 -152 -68zM368 750l53 -69l-187 -117l-42 50z" />
    <glyph glyph-name="ucircumflex" unicode="&#xfb;" horiz-adv-x="543" 
d="M231 -12q-68 0 -112 42t-44 130v361l90 9v-359q0 -103 97 -103q64 0 111 47v406l90 9v-386l8 -139l-73 -10l-11 61h-4q-57 -68 -152 -68zM298 731l125 -118l-38 -46l-115 89l-115 -89l-38 46l125 118h56z" />
    <glyph glyph-name="udieresis" unicode="&#xfc;" horiz-adv-x="543" 
d="M231 -12q-68 0 -112 42t-44 130v361l90 9v-359q0 -103 97 -103q64 0 111 47v406l90 9v-386l8 -139l-73 -10l-11 61h-4q-57 -68 -152 -68zM181 711q52 0 52 -59q0 -52 -59 -52q-53 0 -53 59q0 25 12.5 38.5t47.5 13.5zM364 711q53 0 53 -59q0 -25 -12.5 -38.5t-47.5 -13.5
q-52 0 -52 59q0 52 59 52z" />
    <glyph glyph-name="yacute" unicode="&#xfd;" horiz-adv-x="430" 
d="M333 529l87 -10l-123 -415q-41 -140 -76 -203q-22 -39 -71 -69.5t-85 -31.5l-37 73q48 4 91.5 36t52.5 83q-72 225 -167 528l94 10l114 -429h6zM307 750l53 -69l-187 -117l-42 50z" />
    <glyph glyph-name="thorn" unicode="&#xfe;" horiz-adv-x="533" 
d="M170 94q43 -26 100.5 -26t89.5 42.5t32 155t-29.5 152t-94.5 39.5t-98 -49v-314zM301 537q187 0 187 -272q0 -65 -14.5 -115.5t-37 -80t-52.5 -48.5q-51 -33 -115.5 -33t-98.5 32l-3 -1l3 -25v-178l-90 -10v939l90 10v-224l-5 -50l3 -3q44 59 133 59z" />
    <glyph glyph-name="ydieresis" unicode="&#xff;" horiz-adv-x="430" 
d="M333 529l87 -10l-123 -415q-41 -140 -76 -203q-22 -39 -71 -69.5t-85 -31.5l-37 73q48 4 91.5 36t52.5 83q-72 225 -167 528l94 10l114 -429h6zM130 711q52 0 52 -59q0 -52 -59 -52q-53 0 -53 59q0 25 12.5 38.5t47.5 13.5zM313 711q53 0 53 -59q0 -25 -12.5 -38.5
t-47.5 -13.5q-52 0 -52 59q0 52 59 52z" />
    <glyph glyph-name="Amacron" unicode="&#x100;" horiz-adv-x="534" 
d="M328 705l194 -705h-101l-47 185h-222l-49 -185h-93l195 693zM262 615l-87 -348h179l-85 348h-7zM397 868v-74h-260v74h260z" />
    <glyph glyph-name="amacron" unicode="&#x101;" 
d="M108 691h260v-70h-260v70zM311 366q0 91 -83 91q-53 0 -143 -28l-32 63q86 45 186 45q121 0 148 -72q14 -37 14 -98v-213q0 -72 41 -114l-53 -52q-18 11 -36.5 32.5t-25.5 42.5l-3 -1q-56 -74 -152 -74q-143 0 -143 149q0 132 186 159l96 14v56zM125 134q0 -66 71 -66
t115 46v126q-126 -17 -155 -40q-31 -25 -31 -66z" />
    <glyph glyph-name="Abreve" unicode="&#x102;" horiz-adv-x="534" 
d="M328 705l194 -705h-101l-47 185h-222l-49 -185h-93l195 693zM262 615l-87 -348h179l-85 348h-7zM418 843q-57 -73 -151 -73t-151 73l40 43q53 -44 112 -44t112 44z" />
    <glyph glyph-name="abreve" unicode="&#x103;" 
d="M311 366q0 91 -83 91q-53 0 -143 -28l-32 63q86 45 186 45q121 0 148 -72q14 -37 14 -98v-213q0 -72 41 -114l-53 -52q-18 11 -36.5 32.5t-25.5 42.5l-3 -1q-56 -74 -152 -74q-143 0 -143 149q0 132 186 159l96 14v56zM125 134q0 -66 71 -66t115 46v126
q-126 -17 -155 -40q-31 -25 -31 -66zM389 668q-57 -73 -151 -73t-151 73l40 43q53 -44 112 -44t112 44z" />
    <glyph glyph-name="Aogonek" unicode="&#x104;" horiz-adv-x="534" 
d="M530 -168q-34 -20 -67.5 -20t-56.5 20.5t-23 50.5t14 53.5t24 32.5t37 31h-37l-47 185h-222l-49 -185h-93l195 693l123 12l194 -705q-71 -66 -71 -103q0 -14 8.5 -24t26 -10t33.5 7zM354 267l-85 348h-7l-87 -348h179z" />
    <glyph glyph-name="aogonek" unicode="&#x105;" 
d="M311 366q0 91 -83 91q-53 0 -143 -28l-32 63q86 45 186 45q121 0 148 -72q14 -37 14 -98v-213q0 -72 41 -114q-73 -73 -80 -82q-31 -39 -31 -57t8.5 -28t26 -10t33.5 7l11 -38q-34 -20 -67.5 -20t-56.5 20.5t-23 55t32 71.5l59 59q-20 21 -27 45l-3 -1q-56 -74 -152 -74
q-143 0 -143 149q0 132 186 159l96 14v56zM125 134q0 -66 71 -66t115 46v126q-126 -17 -155 -40q-31 -25 -31 -66z" />
    <glyph glyph-name="Cacute" unicode="&#x106;" horiz-adv-x="542" 
d="M324 712q104 0 148 -51t44 -153l-102 -10q0 73 -26 100.5t-74.5 27.5t-77 -15.5t-45 -40.5t-25.5 -67q-14 -65 -14 -186t46 -182t142 -61q45 0 126 28q19 7 22 8l28 -72q-93 -50 -194 -50q-68 0 -118 21t-79 53.5t-47 81.5q-28 80 -28 178.5t15 162t46.5 116t86 82
t126.5 29.5zM404 898l38 -77l-208 -85l-33 56z" />
    <glyph glyph-name="cacute" unicode="&#x107;" horiz-adv-x="459" 
d="M103.5 460.5q58.5 76.5 156 76.5t130 -45.5t32.5 -132.5l-90 -6q0 57 -17 80.5t-69 23.5q-105 0 -105 -194.5t134 -194.5q59 0 125 33l27 -60q-25 -22 -71 -37.5t-99 -15.5q-212 0 -212 271q0 125 58.5 201.5zM331 750l53 -69l-187 -117l-42 50z" />
    <glyph glyph-name="Ccircumflex" unicode="&#x108;" horiz-adv-x="542" 
d="M324 712q104 0 148 -51t44 -153l-102 -10q0 73 -26 100.5t-74.5 27.5t-77 -15.5t-45 -40.5t-25.5 -67q-14 -65 -14 -186t46 -182t142 -61q45 0 126 28q19 7 22 8l28 -72q-93 -50 -194 -50q-68 0 -118 21t-79 53.5t-47 81.5q-28 80 -28 178.5t15 162t46.5 116t86 82
t126.5 29.5zM329 885l127 -106l-38 -44l-115 77l-115 -77l-38 44l127 106h52z" />
    <glyph glyph-name="Cdotaccent" unicode="&#x10a;" horiz-adv-x="542" 
d="M324 712q104 0 148 -51t44 -153l-102 -10q0 73 -26 100.5t-74.5 27.5t-77 -15.5t-45 -40.5t-25.5 -67q-14 -65 -14 -186t46 -182t142 -61q45 0 126 28q19 7 22 8l28 -72q-93 -50 -194 -50q-68 0 -118 21t-79 53.5t-47 81.5q-28 80 -28 178.5t15 162t46.5 116t86 82
t126.5 29.5zM306 892q61 0 61 -68q0 -25 -16.5 -43t-51.5 -18q-61 0 -61 68q0 25 16.5 43t51.5 18z" />
    <glyph glyph-name="cdotaccent" unicode="&#x10b;" horiz-adv-x="459" 
d="M103.5 460.5q58.5 76.5 156 76.5t130 -45.5t32.5 -132.5l-90 -6q0 57 -17 80.5t-69 23.5q-105 0 -105 -194.5t134 -194.5q59 0 125 33l27 -60q-25 -22 -71 -37.5t-99 -15.5q-212 0 -212 271q0 125 58.5 201.5zM257 559q-61 0 -61 68q0 25 16.5 43t51.5 18q61 0 61 -68
q0 -25 -16.5 -43t-51.5 -18z" />
    <glyph glyph-name="Ccaron" unicode="&#x10c;" horiz-adv-x="542" 
d="M324 712q104 0 148 -51t44 -153l-102 -10q0 73 -26 100.5t-74.5 27.5t-77 -15.5t-45 -40.5t-25.5 -67q-14 -65 -14 -186t46 -182t142 -61q45 0 126 28q19 7 22 8l28 -72q-93 -50 -194 -50q-68 0 -118 21t-79 53.5t-47 81.5q-28 80 -28 178.5t15 162t46.5 116t86 82
t126.5 29.5zM456 841l-127 -106h-52l-127 106l38 44l115 -77l115 77z" />
    <glyph glyph-name="ccaron" unicode="&#x10d;" horiz-adv-x="459" 
d="M103.5 460.5q58.5 76.5 156 76.5t130 -45.5t32.5 -132.5l-90 -6q0 57 -17 80.5t-69 23.5q-105 0 -105 -194.5t134 -194.5q59 0 125 33l27 -60q-25 -22 -71 -37.5t-99 -15.5q-212 0 -212 271q0 125 58.5 201.5zM414 687l-125 -118h-56l-125 118l38 46l115 -87l115 87z" />
    <glyph glyph-name="Dcaron" unicode="&#x10e;" horiz-adv-x="612" 
d="M90 700h204q66 0 115.5 -21.5t78 -54.5t46.5 -82q28 -80 28 -198q0 -140 -58 -237q-30 -50 -83 -78.5t-124 -28.5h-207v700zM186 614v-528h100q124 0 156 113q18 62 18 170t-40.5 176.5t-141.5 68.5h-92zM452 841l-127 -106h-52l-127 106l38 44l115 -77l115 77z" />
    <glyph glyph-name="dcaron" unicode="&#x10f;" horiz-adv-x="593" 
d="M620 749q9 -75 9 -100.5t-19 -58t-77 -83.5l-40 41q33 34 42.5 50.5t9.5 42t-15 89.5zM269 457q-27 0 -46 -6.5t-39 -24.5q-43 -39 -43 -158.5t27.5 -159.5t88.5 -40q34 0 63 15.5t43 33.5v312q-39 28 -94 28zM363 505l3 1l-3 26v213l90 10v-611l8 -139l-73 -10l-11 61
h-4q-60 -68 -144 -68t-134 59.5t-50 211.5q0 62 14 112t36 80t51 50q51 36 114 36t103 -32z" />
    <glyph glyph-name="Dcroat" unicode="&#x110;" horiz-adv-x="612" 
d="M90 700h204q66 0 115.5 -21.5t78 -54.5t46.5 -82q28 -80 28 -198q0 -140 -58 -237q-30 -50 -83 -78.5t-124 -28.5h-207v318h-79l10 70l69 6v306zM278 616h-92v-222h155l-12 -76h-143v-234h100q124 0 156 114q18 62 18 139t-8.5 121.5t-27.5 81.5q-41 76 -146 76z" />
    <glyph glyph-name="dcroat" unicode="&#x111;" horiz-adv-x="538" 
d="M368 505l3 1l-3 26v78h-163v65h163v70l90 10v-80h74v-65h-74v-466l8 -139l-73 -10l-11 61h-4q-60 -68 -144 -68t-134 59.5t-50 211.5q0 62 14 112t36 80t50 50q52 36 115 36t103 -32zM274 457q-27 0 -46 -6.5t-40 -24.5q-42 -39 -42 -158.5t27.5 -159.5t88.5 -40
q34 0 63 15.5t43 33.5v312q-39 28 -94 28z" />
    <glyph glyph-name="Emacron" unicode="&#x112;" horiz-adv-x="499" 
d="M186 614v-215h239l-12 -84h-227v-229h288l-12 -86h-372v700h379l-12 -86h-271zM146 868h260v-74h-260v74z" />
    <glyph glyph-name="emacron" unicode="&#x113;" 
d="M269 537q86 0 127 -52q34 -42 42 -141q3 -39 3 -97l-41 -6h-259q0 -126 67 -159q28 -14 77 -14t113 32l28 -62q-83 -50 -167 -50q-214 0 -214 270q0 128 56.5 203.5t167.5 75.5zM329 424.5q-16 32.5 -73.5 32.5t-81.5 -38.5t-30 -106.5h201q0 80 -16 112.5zM130 691h260
v-70h-260v70z" />
    <glyph glyph-name="Ebreve" unicode="&#x114;" horiz-adv-x="499" 
d="M90 700h379l-12 -86h-271v-215h239l-12 -84h-227v-229h288l-12 -86h-372v700zM427 843q-57 -73 -151 -73t-151 73l40 43q53 -44 112 -44t112 44z" />
    <glyph glyph-name="ebreve" unicode="&#x115;" 
d="M269 537q86 0 127 -52q34 -42 42 -141q3 -39 3 -97l-41 -6h-259q0 -126 67 -159q28 -14 77 -14t113 32l28 -62q-83 -50 -167 -50q-214 0 -214 270q0 128 56.5 203.5t167.5 75.5zM329 424.5q-16 32.5 -73.5 32.5t-81.5 -38.5t-30 -106.5h201q0 80 -16 112.5zM411 668
q-57 -73 -151 -73t-151 73l40 43q53 -44 112 -44t112 44z" />
    <glyph glyph-name="Edotaccent" unicode="&#x116;" horiz-adv-x="499" 
d="M186 614v-215h239l-12 -84h-227v-229h288l-12 -86h-372v700h379l-12 -86h-271zM279 892q61 0 61 -68q0 -25 -16.5 -43t-51.5 -18q-61 0 -61 68q0 25 16.5 43t51.5 18z" />
    <glyph glyph-name="edotaccent" unicode="&#x117;" 
d="M269 537q86 0 127 -52q34 -42 42 -141q3 -39 3 -97l-41 -6h-259q0 -126 67 -159q28 -14 77 -14t113 32l28 -62q-83 -50 -167 -50q-214 0 -214 270q0 128 56.5 203.5t167.5 75.5zM329 424.5q-16 32.5 -73.5 32.5t-81.5 -38.5t-30 -106.5h201q0 80 -16 112.5zM256 559
q-61 0 -61 68q0 25 16.5 43t51.5 18q61 0 61 -68q0 -25 -16.5 -43t-51.5 -18z" />
    <glyph glyph-name="Eogonek" unicode="&#x118;" horiz-adv-x="499" 
d="M186 614v-215h239l-12 -84h-227v-229h288l-12 -86q-71 -66 -71 -103q0 -14 8.5 -24t26 -10t33.5 7l11 -38q-34 -20 -67.5 -20t-56.5 20.5t-23 56.5t32 70q12 15 43 41h-308v700h379l-12 -86h-271z" />
    <glyph glyph-name="eogonek" unicode="&#x119;" 
d="M284 -11l-25 -1q-214 0 -214 270q0 128 56.5 203.5t167.5 75.5q86 0 127 -52q34 -42 42 -141q3 -39 3 -97l-84 -6h-216q0 -126 67 -159q28 -14 77 -14t113 32l28 -62q-1 -1 -16.5 -9.5t-29 -16t-32 -22t-32.5 -27.5q-32 -31 -32 -66q0 -14 8 -24t26 -10t34 7l11 -38
q-34 -20 -67.5 -20t-56.5 20.5t-23 50.5t12 50.5t23.5 30.5t32.5 25zM329 424.5q-16 32.5 -73.5 32.5t-81.5 -38.5t-30 -106.5h201q0 80 -16 112.5z" />
    <glyph glyph-name="Ecaron" unicode="&#x11a;" horiz-adv-x="499" 
d="M186 614v-215h239l-12 -84h-227v-229h288l-12 -86h-372v700h379l-12 -86h-271zM429 841l-127 -106h-52l-127 106l38 44l115 -77l115 77z" />
    <glyph glyph-name="ecaron" unicode="&#x11b;" 
d="M269 537q86 0 127 -52q34 -42 42 -141q3 -39 3 -97l-41 -6h-259q0 -126 67 -159q28 -14 77 -14t113 32l28 -62q-83 -50 -167 -50q-214 0 -214 270q0 128 56.5 203.5t167.5 75.5zM329 424.5q-16 32.5 -73.5 32.5t-81.5 -38.5t-30 -106.5h201q0 80 -16 112.5zM232 569
l-125 118l38 46l115 -87l115 87l38 -46l-125 -118h-56z" />
    <glyph glyph-name="Gcircumflex" unicode="&#x11c;" horiz-adv-x="602" 
d="M327 712q111 0 156 -51t45 -152l-102 -10q0 71 -26.5 99t-75 28t-78 -14.5t-46.5 -38.5t-27 -63q-16 -64 -16 -188.5t43.5 -186t140.5 -61.5q55 0 102 18v159h-135l10 84h215v-300q-102 -47 -208 -47q-153 0 -213 93q-49 77 -56 201q-1 31 -1 73q0 160 70.5 258.5
t201.5 98.5zM347 885l127 -106l-38 -44l-115 77l-115 -77l-38 44l127 106h52z" />
    <glyph glyph-name="gcircumflex" unicode="&#x11d;" horiz-adv-x="490" 
d="M271 731l125 -118l-38 -46l-115 89l-115 -89l-38 46l125 118h56zM244 537q16 0 27.5 -1t58.5 -3q139 -6 152 -6l-11 -58l-69 -7q25 -42 25 -100q0 -86 -52 -136t-148 -50q-15 0 -39 2q-20 -16 -26 -23t-6 -16q0 -29 63 -35l75 -7q80 -5 125.5 -32.5t45.5 -91t-37 -101.5
q-69 -72 -205 -72q-205 0 -205 124q0 49 62 102q7 6 10.5 8.5t9.5 7t7 4.5q-39 23 -39 66q0 26 14 43t47 40q-85 41 -85 153q0 88 52 138.5t148 50.5zM142.5 -107.5q36.5 -17.5 94.5 -17.5t100 17.5t42 53.5q0 31 -19 43q-10 7 -18.5 11.5t-28.5 7.5q-36 5 -75.5 8t-72.5 10
q-40 -31 -49.5 -47.5t-9.5 -33.5q0 -35 36.5 -52.5zM230 461q-52 0 -73 -24.5t-21 -80.5q0 -105 105 -105q53 0 73.5 25t20.5 82q0 103 -105 103z" />
    <glyph glyph-name="Gbreve" unicode="&#x11e;" horiz-adv-x="602" 
d="M327 712q111 0 156 -51t45 -152l-102 -10q0 71 -26.5 99t-75 28t-78 -14.5t-46.5 -38.5t-27 -63q-16 -64 -16 -188.5t43.5 -186t140.5 -61.5q55 0 102 18v159h-135l10 84h215v-300q-102 -47 -208 -47q-153 0 -213 93q-49 77 -56 201q-1 31 -1 73q0 160 70.5 258.5
t201.5 98.5zM472 843q-57 -73 -151 -73t-151 73l40 43q53 -44 112 -44t112 44z" />
    <glyph glyph-name="gbreve" unicode="&#x11f;" horiz-adv-x="490" 
d="M394 668q-57 -73 -151 -73t-151 73l40 43q53 -44 112 -44t112 44zM244 537q16 0 27.5 -1t58.5 -3q139 -6 152 -6l-11 -58l-69 -7q25 -42 25 -100q0 -86 -52 -136t-148 -50q-15 0 -39 2q-20 -16 -26 -23t-6 -16q0 -29 63 -35l75 -7q80 -5 125.5 -32.5t45.5 -91t-37 -101.5
q-69 -72 -205 -72q-205 0 -205 124q0 49 62 102q7 6 10.5 8.5t9.5 7t7 4.5q-39 23 -39 66q0 26 14 43t47 40q-85 41 -85 153q0 88 52 138.5t148 50.5zM142.5 -107.5q36.5 -17.5 94.5 -17.5t100 17.5t42 53.5q0 31 -19 43q-10 7 -18.5 11.5t-28.5 7.5q-36 5 -75.5 8t-72.5 10
q-40 -31 -49.5 -47.5t-9.5 -33.5q0 -35 36.5 -52.5zM230 461q-52 0 -73 -24.5t-21 -80.5q0 -105 105 -105q53 0 73.5 25t20.5 82q0 103 -105 103z" />
    <glyph glyph-name="Gdotaccent" unicode="&#x120;" horiz-adv-x="602" 
d="M327 712q111 0 156 -51t45 -152l-102 -10q0 71 -26.5 99t-75 28t-78 -14.5t-46.5 -38.5t-27 -63q-16 -64 -16 -188.5t43.5 -186t140.5 -61.5q55 0 102 18v159h-135l10 84h215v-300q-102 -47 -208 -47q-153 0 -213 93q-49 77 -56 201q-1 31 -1 73q0 160 70.5 258.5
t201.5 98.5zM324 892q61 0 61 -68q0 -25 -16.5 -43t-51.5 -18q-61 0 -61 68q0 25 16.5 43t51.5 18z" />
    <glyph glyph-name="gdotaccent" unicode="&#x121;" horiz-adv-x="490" 
d="M239 559q-61 0 -61 68q0 25 16.5 43t51.5 18q61 0 61 -68q0 -25 -16.5 -43t-51.5 -18zM244 537q16 0 27.5 -1t58.5 -3q139 -6 152 -6l-11 -58l-69 -7q25 -42 25 -100q0 -86 -52 -136t-148 -50q-15 0 -39 2q-20 -16 -26 -23t-6 -16q0 -29 63 -35l75 -7q80 -5 125.5 -32.5
t45.5 -91t-37 -101.5q-69 -72 -205 -72q-205 0 -205 124q0 49 62 102q7 6 10.5 8.5t9.5 7t7 4.5q-39 23 -39 66q0 26 14 43t47 40q-85 41 -85 153q0 88 52 138.5t148 50.5zM142.5 -107.5q36.5 -17.5 94.5 -17.5t100 17.5t42 53.5q0 31 -19 43q-10 7 -18.5 11.5t-28.5 7.5
q-36 5 -75.5 8t-72.5 10q-40 -31 -49.5 -47.5t-9.5 -33.5q0 -35 36.5 -52.5zM230 461q-52 0 -73 -24.5t-21 -80.5q0 -105 105 -105q53 0 73.5 25t20.5 82q0 103 -105 103z" />
    <glyph glyph-name="Gcommaaccent" unicode="&#x122;" horiz-adv-x="602" 
d="M327 712q111 0 156 -51t45 -152l-102 -10q0 71 -26.5 99t-75 28t-78 -14.5t-46.5 -38.5t-27 -63q-16 -64 -16 -188.5t43.5 -186t140.5 -61.5q55 0 102 18v159h-135l10 84h215v-300q-102 -47 -208 -47q-153 0 -213 93q-49 77 -56 201q-1 31 -1 73q0 160 70.5 258.5
t201.5 98.5zM358 -31q8 -64 8 -90t-18.5 -50.5t-76.5 -75.5l-37 40q34 42 42 57.5t8 27.5t-10 79z" />
    <glyph glyph-name="gcommaaccent" unicode="&#x123;" horiz-adv-x="490" 
d="M288.5 669q-9.5 -17 -9.5 -33t4 -72l-85 -7q0 7 -3 67q0 39 16 62t88 81l35 -43q-36 -38 -45.5 -55zM244 537q16 0 27.5 -1t58.5 -3q139 -6 152 -6l-11 -58l-69 -7q25 -42 25 -100q0 -86 -52 -136t-148 -50q-15 0 -39 2q-20 -16 -26 -23t-6 -16q0 -29 63 -35l75 -7
q80 -5 125.5 -32.5t45.5 -91t-37 -101.5q-69 -72 -205 -72q-205 0 -205 124q0 49 62 102q7 6 10.5 8.5t9.5 7t7 4.5q-39 23 -39 66q0 26 14 43t47 40q-85 41 -85 153q0 88 52 138.5t148 50.5zM142.5 -107.5q36.5 -17.5 94.5 -17.5t100 17.5t42 53.5q0 31 -19 43
q-10 7 -18.5 11.5t-28.5 7.5q-36 5 -75.5 8t-72.5 10q-40 -31 -49.5 -47.5t-9.5 -33.5q0 -35 36.5 -52.5zM230 461q-52 0 -73 -24.5t-21 -80.5q0 -105 105 -105q53 0 73.5 25t20.5 82q0 103 -105 103z" />
    <glyph glyph-name="Hcircumflex" unicode="&#x124;" horiz-adv-x="627" 
d="M537 700v-700h-96v321h-255v-321h-96v700h96v-295h255v295h96zM339 885l127 -106l-38 -44l-115 77l-115 -77l-38 44l127 106h52z" />
    <glyph glyph-name="hcircumflex" unicode="&#x125;" horiz-adv-x="543" 
d="M354 731l112 -118l-38 -46l-102 89l-102 -89l-38 46l112 118h56zM169 480q59 57 134.5 57t120 -42.5t44.5 -134.5v-360h-91v354q0 103 -103 103q-30 0 -59 -14.5t-46 -33.5v-409h-89v745l89 10v-228l-4 -46z" />
    <glyph glyph-name="Hbar" unicode="&#x126;" horiz-adv-x="637" 
d="M542 700v-109h68v-75h-68v-516h-96v321h-255v-321h-96v516h-70v75h70v109h96v-109h255v109h96zM191 405h255v111h-255v-111z" />
    <glyph glyph-name="hbar" unicode="&#x127;" horiz-adv-x="543" 
d="M169 659h205v-65h-205v-67l-4 -46l4 -1q59 57 134.5 57t120 -42.5t44.5 -134.5v-360h-91v354q0 103 -103 103q-30 0 -59 -14.5t-46 -33.5v-409h-89v594h-60v65h60v86l89 10v-96z" />
    <glyph glyph-name="Itilde" unicode="&#x128;" horiz-adv-x="276" 
d="M186 700v-700h-96v700h96zM185 775q-22 0 -54.5 16t-54 16t-58.5 -32l-21 61q48 49 94 49q22 0 54.5 -16t54 -16t58.5 32l21 -61q-48 -49 -94 -49z" />
    <glyph glyph-name="itilde" unicode="&#x129;" horiz-adv-x="250" 
d="M170 0h-90v520l90 10v-530zM172 600q-22 0 -54.5 16t-53.5 16t-54 -22l-21 61q46 39 89 39q22 0 54.5 -16t53.5 -16t54 22l21 -61q-46 -39 -89 -39z" />
    <glyph glyph-name="imacron" unicode="&#x12b;" horiz-adv-x="250" 
d="M30 691h180v-70h-180v70zM170 0h-90v520l90 10v-530z" />
    <glyph glyph-name="Ibreve" unicode="&#x12c;" horiz-adv-x="276" 
d="M186 700v-700h-96v700h96zM289 843q-57 -73 -151 -73t-151 73l40 43q53 -44 112 -44t112 44z" />
    <glyph glyph-name="Iogonek" unicode="&#x12e;" horiz-adv-x="276" 
d="M186 0q-71 -66 -71 -103q0 -14 8.5 -24t26 -10t33.5 7l11 -38q-34 -20 -67.5 -20t-56.5 20.5t-23 56.5t32 70q12 15 43 41h-32v700h96v-700z" />
    <glyph glyph-name="iogonek" unicode="&#x12f;" horiz-adv-x="250" 
d="M148 -20q-57 -49 -57 -79q0 -18 8.5 -28t26 -10t33.5 7l11 -38q-34 -20 -67.5 -20t-56.5 20.5t-23 55.5t37 72l48 40h-28v520l90 10v-530q-2 -2 -22 -20zM122 614q-58 0 -58 65q0 58 65 58q58 0 58 -65q0 -58 -65 -58z" />
    <glyph glyph-name="Idotaccent" unicode="&#x130;" horiz-adv-x="276" 
d="M186 700v-700h-96v700h96zM141 892q61 0 61 -68q0 -25 -16.5 -43t-51.5 -18q-61 0 -61 68q0 25 16.5 43t51.5 18z" />
    <glyph glyph-name="dotlessi" unicode="&#x131;" horiz-adv-x="250" 
d="M170 0h-90v520l90 10v-530z" />
    <glyph glyph-name="IJ" unicode="&#x132;" horiz-adv-x="552" 
d="M186 700v-700h-96v700h96zM462 700v-606q0 -95 -35.5 -158t-140.5 -110l-59 67q54 27 81 53q58 53 58 188v566h96z" />
    <glyph glyph-name="ij" unicode="&#x133;" horiz-adv-x="474" 
d="M394 -12q0 -79 -20.5 -113t-86.5 -75l-51 54q47 35 57.5 63.5t10.5 113.5v489l90 10v-542zM345 559q-61 0 -61 68q0 25 16.5 43t51.5 18q61 0 61 -68q0 -25 -16.5 -43t-51.5 -18zM170 0h-90v520l90 10v-530zM121 559q-61 0 -61 68q0 25 16.5 43t51.5 18q61 0 61 -68
q0 -25 -16.5 -43t-51.5 -18z" />
    <glyph glyph-name="Jcircumflex" unicode="&#x134;" horiz-adv-x="276" 
d="M186 700v-606q0 -95 -35.5 -158t-140.5 -110l-59 67q54 27 81 53q58 53 58 188v566h96zM164 885l112 -106l-38 -44l-100 77l-100 -77l-38 44l112 106h52z" />
    <glyph glyph-name="jcircumflex" unicode="&#x135;" horiz-adv-x="250" 
d="M170 -12q0 -79 -20.5 -113t-86.5 -75l-51 54q47 35 57.5 63.5t10.5 113.5v489l90 10v-542zM153 731l105 -118l-38 -46l-95 89l-95 -89l-38 46l105 118h56z" />
    <glyph glyph-name="Kcommaaccent" unicode="&#x136;" horiz-adv-x="519" 
d="M329 -31q8 -64 8 -90t-18.5 -50.5t-76.5 -75.5l-37 40q34 42 42 57.5t8 27.5t-10 79zM186 700v-700h-96v700h96zM428 701l83 -36l-218 -304l249 -361h-117l-235 350z" />
    <glyph glyph-name="kgreenlandic" unicode="&#x138;" horiz-adv-x="600" 
d="M414 530l79 -28l-182 -236l205 -266h-108l-187 262zM218 525v-525h-90v525h90z" />
    <glyph glyph-name="Lacute" unicode="&#x139;" horiz-adv-x="458" 
d="M186 700v-614h257l-12 -86h-341v700h96zM310 898l38 -77l-208 -85l-33 56z" />
    <glyph glyph-name="lacute" unicode="&#x13a;" horiz-adv-x="245" 
d="M257 934l38 -77l-208 -85l-33 56zM163 160q0 -49 8 -74.5t36 -54.5l-67 -53q-41 43 -54 73t-13 102v592l90 10v-595z" />
    <glyph glyph-name="Lcommaaccent" unicode="&#x13b;" horiz-adv-x="458" 
d="M186 700v-614h257l-12 -86h-341v700h96zM299 -31q8 -64 8 -90t-18.5 -50.5t-76.5 -75.5l-37 40q34 42 42 57.5t8 27.5t-10 79z" />
    <glyph glyph-name="lcommaaccent" unicode="&#x13c;" horiz-adv-x="245" 
d="M166 -31q8 -64 8 -90t-18.5 -50.5t-76.5 -75.5l-37 40q34 42 42 57.5t8 27.5t-10 79zM163 160q0 -49 8 -74.5t36 -54.5l-67 -53q-41 43 -54 73t-13 102v592l90 10v-595z" />
    <glyph glyph-name="Lcaron" unicode="&#x13d;" horiz-adv-x="458" 
d="M388 749q9 -75 9 -100.5t-19 -58t-77 -83.5l-40 41q33 34 42.5 50.5t9.5 42t-15 89.5zM186 700v-614h257l-12 -86h-341v700h96z" />
    <glyph glyph-name="lcaron" unicode="&#x13e;" horiz-adv-x="298" 
d="M331 749q9 -75 9 -100.5t-19 -58t-77 -83.5l-40 41q33 34 42.5 50.5t9.5 42t-15 89.5zM163 160q0 -49 8 -74.5t36 -54.5l-67 -53q-41 43 -54 73t-13 102v592l90 10v-595z" />
    <glyph glyph-name="Ldot" unicode="&#x13f;" horiz-adv-x="458" 
d="M186 700v-614h257l-12 -86h-341v700h96zM349 443q61 0 61 -68q0 -25 -16.5 -43t-51.5 -18q-61 0 -61 68q0 25 16.5 43t51.5 18z" />
    <glyph glyph-name="ldot" unicode="&#x140;" horiz-adv-x="340" 
d="M297 280q-61 0 -61 68q0 25 16.5 43t51.5 18q61 0 61 -68q0 -25 -16.5 -43t-51.5 -18zM163 160q0 -49 8 -74.5t36 -54.5l-67 -53q-41 43 -54 73t-13 102v592l90 10v-595z" />
    <glyph glyph-name="Lslash" unicode="&#x141;" horiz-adv-x="463" 
d="M191 700v-297l122 58v-82l-122 -57v-236h257l-12 -86h-341v277l-82 -38v81l82 38v342h96z" />
    <glyph glyph-name="lslash" unicode="&#x142;" horiz-adv-x="257" 
d="M175 160q0 -49 8 -74.5t36 -54.5l-67 -53q-41 43 -54 73t-13 102v150l-69 -33v75l69 33v367l90 10v-334l71 34v-75l-71 -34v-186z" />
    <glyph glyph-name="Nacute" unicode="&#x143;" horiz-adv-x="630" 
d="M471 821l-208 -85l-33 56l203 106zM540 700v-700h-101l-232 474l-33 92l-5 -3l17 -103v-460h-96v700h102l231 -486l34 -95l5 3l-18 118v460h96z" />
    <glyph glyph-name="nacute" unicode="&#x144;" horiz-adv-x="543" 
d="M306 537q74 0 118 -42.5t44 -134.5v-360h-90v354q0 103 -103 103q-30 0 -59 -14.5t-46 -33.5v-409h-90v381l-8 139l73 10l13 -59h4q18 23 54.5 44.5t89.5 21.5zM373 750l53 -69l-187 -117l-42 50z" />
    <glyph glyph-name="Ncommaaccent" unicode="&#x145;" horiz-adv-x="630" 
d="M351 -31q8 -58 8 -87t-18.5 -53.5t-76.5 -75.5l-37 40q34 42 42 57.5t8 27.5t-10 79zM540 700v-700h-101l-232 474l-33 92l-5 -3l17 -103v-460h-96v700h102l231 -486l34 -95l5 3l-18 118v460h96z" />
    <glyph glyph-name="ncommaaccent" unicode="&#x146;" horiz-adv-x="543" 
d="M306 537q74 0 118 -42.5t44 -134.5v-360h-90v354q0 103 -103 103q-30 0 -59 -14.5t-46 -33.5v-409h-90v381l-8 139l73 10l13 -59h4q18 23 54.5 44.5t89.5 21.5zM314 -31q8 -64 8 -90t-18.5 -50.5t-76.5 -75.5l-37 40q34 42 42 57.5t8 27.5t-10 79z" />
    <glyph glyph-name="Ncaron" unicode="&#x147;" horiz-adv-x="630" 
d="M468 841l-127 -106h-52l-127 106l38 44l115 -77l115 77zM540 700v-700h-101l-232 474l-33 92l-5 -3l17 -103v-460h-96v700h102l231 -486l34 -95l5 3l-18 118v460h96z" />
    <glyph glyph-name="ncaron" unicode="&#x148;" horiz-adv-x="543" 
d="M306 537q74 0 118 -42.5t44 -134.5v-360h-90v354q0 103 -103 103q-30 0 -59 -14.5t-46 -33.5v-409h-90v381l-8 139l73 10l13 -59h4q18 23 54.5 44.5t89.5 21.5zM441 687l-125 -118h-56l-125 118l38 46l115 -87l115 87z" />
    <glyph glyph-name="napostrophe" unicode="&#x149;" horiz-adv-x="543" 
d="M93 749q9 -75 9 -100.5t-19 -58t-77 -83.5l-40 41q33 34 42.5 50.5t9.5 42t-15 89.5zM306 537q74 0 118 -42.5t44 -134.5v-360h-90v354q0 103 -103 103q-30 0 -59 -14.5t-46 -33.5v-409h-90v381l-8 139l73 10l13 -59h4q18 23 54.5 44.5t89.5 21.5z" />
    <glyph glyph-name="Eng" unicode="&#x14a;" horiz-adv-x="630" 
d="M540 700v-614q0 -109 -22 -148q-30 -50 -78 -84q-29 -20 -70 -42l-59 67q63 41 88.5 66t35.5 63l-228 466l-33 92l-3 -4l15 -131v-431h-96v700h102l231 -486l34 -95l3 4l-16 131v446h96z" />
    <glyph glyph-name="eng" unicode="&#x14b;" horiz-adv-x="540" 
d="M306 537q74 0 118 -42.5t44 -134.5v-372q0 -79 -20.5 -113t-86.5 -75l-51 54q47 35 57.5 63.5t10.5 113.5v323q0 103 -103 103q-30 0 -59 -14.5t-46 -33.5v-409h-90v381l-8 139l73 10l13 -59h4q18 23 54.5 44.5t89.5 21.5z" />
    <glyph glyph-name="Omacron" unicode="&#x14c;" horiz-adv-x="626" 
d="M378 611.5q-32 14.5 -77.5 14.5t-77 -22.5t-46.5 -65.5q-25 -73 -25 -196q0 -160 45 -216q41 -52 126 -52q40 0 68.5 16.5t44 41t24.5 64.5q14 62 14 137t-3 110.5t-13.5 72t-29 59t-50.5 37zM324 712q252 0 252 -347q0 -179 -69 -278t-205 -99q-252 0 -252 347
q0 179 69 278t205 99zM191 868h260v-74h-260v74z" />
    <glyph glyph-name="omacron" unicode="&#x14d;" horiz-adv-x="524" 
d="M134 691h260v-70h-260v70zM356.5 11q-46.5 -23 -109 -23t-105 24t-62.5 68q-35 76 -35 188q0 108 50 184q26 39 72.5 62t109 23t105 -24t62.5 -67q35 -77 35 -189q0 -108 -50 -183q-26 -40 -72.5 -63zM210 78q23 -10 55.5 -10t55.5 12t35 28.5t18 46.5q9 45 9 97t-2 76.5
t-9.5 50.5t-21.5 42q-30 36 -92 36q-32 0 -55 -12t-35 -28.5t-18 -46.5q-9 -45 -9 -97t2 -76.5t9.5 -50.5t21 -42t36.5 -26z" />
    <glyph glyph-name="Obreve" unicode="&#x14e;" horiz-adv-x="626" 
d="M378 611.5q-32 14.5 -77.5 14.5t-77 -22.5t-46.5 -65.5q-25 -73 -25 -196q0 -160 45 -216q41 -52 126 -52q40 0 68.5 16.5t44 41t24.5 64.5q14 62 14 137t-3 110.5t-13.5 72t-29 59t-50.5 37zM324 712q252 0 252 -347q0 -179 -69 -278t-205 -99q-252 0 -252 347
q0 179 69 278t205 99zM470 843q-57 -73 -151 -73t-151 73l40 43q53 -44 112 -44t112 44z" />
    <glyph glyph-name="obreve" unicode="&#x14f;" horiz-adv-x="524" 
d="M415 668q-57 -73 -151 -73t-151 73l40 43q53 -44 112 -44t112 44zM356.5 11q-46.5 -23 -109 -23t-105 24t-62.5 68q-35 76 -35 188q0 108 50 184q26 39 72.5 62t109 23t105 -24t62.5 -67q35 -77 35 -189q0 -108 -50 -183q-26 -40 -72.5 -63zM210 78q23 -10 55.5 -10
t55.5 12t35 28.5t18 46.5q9 45 9 97t-2 76.5t-9.5 50.5t-21.5 42q-30 36 -92 36q-32 0 -55 -12t-35 -28.5t-18 -46.5q-9 -45 -9 -97t2 -76.5t9.5 -50.5t21 -42t36.5 -26z" />
    <glyph glyph-name="Ohungarumlaut" unicode="&#x150;" horiz-adv-x="626" 
d="M351 941l60 -61l-174 -144l-48 43zM523 931l55 -67l-185 -128l-44 47zM378 611.5q-32 14.5 -77.5 14.5t-77 -22.5t-46.5 -65.5q-25 -73 -25 -196q0 -160 45 -216q41 -52 126 -52q40 0 68.5 16.5t44 41t24.5 64.5q14 62 14 137t-3 110.5t-13.5 72t-29 59t-50.5 37z
M324 712q252 0 252 -347q0 -179 -69 -278t-205 -99q-252 0 -252 347q0 179 69 278t205 99z" />
    <glyph glyph-name="ohungarumlaut" unicode="&#x151;" horiz-adv-x="524" 
d="M278 760l60 -56l-160 -143l-47 33zM451 760l60 -56l-160 -143l-47 33zM356.5 11q-46.5 -23 -109 -23t-105 24t-62.5 68q-35 76 -35 188q0 108 50 184q26 39 72.5 62t109 23t105 -24t62.5 -67q35 -77 35 -189q0 -108 -50 -183q-26 -40 -72.5 -63zM210 78q23 -10 55.5 -10
t55.5 12t35 28.5t18 46.5q9 45 9 97t-2 76.5t-9.5 50.5t-21.5 42q-30 36 -92 36q-32 0 -55 -12t-35 -28.5t-18 -46.5q-9 -45 -9 -97t2 -76.5t9.5 -50.5t21 -42t36.5 -26z" />
    <glyph glyph-name="OE" unicode="&#x152;" horiz-adv-x="814" 
d="M501 614v-215h239l-12 -84h-227v-229h288l-12 -86h-402q-41 -12 -83 -12q-242 0 -242 347q0 178 67.5 277.5t197.5 99.5q44 0 74 -12h395l-12 -86h-271zM405 601q-50 25 -96.5 25t-74 -16t-43 -41t-24.5 -65q-15 -65 -15 -143.5t6.5 -122.5t23.5 -84q35 -80 135 -80
q52 0 88 23v504z" />
    <glyph glyph-name="oe" unicode="&#x153;" horiz-adv-x="809" 
d="M277 537q115 0 154 -87q48 87 166 87q86 0 127 -52q34 -42 42 -141q3 -39 3 -97l-41 -6h-259q0 -126 67 -159q28 -14 77 -14t113 32l28 -62q-83 -50 -167 -50q-117 0 -166 89q-57 -89 -174 -89q-62 0 -104.5 24t-62.5 68q-35 76 -35 188q0 108 50 184q26 39 72.5 62
t109.5 23zM256 457q-89 0 -106 -87q-9 -45 -9 -97t2 -76.5t9.5 -50.5t21.5 -42q30 -36 92 -36q32 0 55 12t35 28.5t18 46.5q9 45 9 124t-26.5 128.5t-100.5 49.5zM657 424.5q-16 32.5 -73.5 32.5t-81.5 -38.5t-30 -106.5h201q0 80 -16 112.5z" />
    <glyph glyph-name="Racute" unicode="&#x154;" horiz-adv-x="537" 
d="M90 700h226q101 0 143 -52.5t42 -131.5t-41 -132t-109 -77l191 -307h-113l-172 291h-71v-291h-96v700zM186 625v-254h77q66 0 101 34.5t35 96.5t-29.5 92.5t-97.5 30.5h-86zM419 898l38 -77l-208 -85l-33 56z" />
    <glyph glyph-name="racute" unicode="&#x155;" horiz-adv-x="365" 
d="M293 537q26 0 39.5 -4.5t22.5 -7t11 -3.5l-16 -90q-30 10 -71.5 10t-75 -35.5t-33.5 -85.5v-321h-90v381l-8 139l73 10l11 -101h4q17 49 51.5 78.5t81.5 29.5zM269 750l53 -69l-187 -117l-42 50z" />
    <glyph glyph-name="Rcommaaccent" unicode="&#x156;" horiz-adv-x="537" 
d="M90 700h226q101 0 143 -52.5t42 -131.5t-41 -132t-109 -77l191 -307h-113l-172 291h-71v-291h-96v700zM186 625v-254h77q66 0 101 34.5t35 96.5t-29.5 92.5t-97.5 30.5h-86zM336 -31q8 -64 8 -90t-18.5 -50.5t-76.5 -75.5l-37 40q34 42 42 57.5t8 27.5t-10 79z" />
    <glyph glyph-name="rcommaaccent" unicode="&#x157;" horiz-adv-x="365" 
d="M167 -31q8 -64 8 -90t-18.5 -50.5t-76.5 -75.5l-37 40q34 42 42 57.5t8 27.5t-10 79zM293 537q26 0 39.5 -4.5t22.5 -7t11 -3.5l-16 -90q-30 10 -71.5 10t-75 -35.5t-33.5 -85.5v-321h-90v381l-8 139l73 10l11 -101h4q17 49 51.5 78.5t81.5 29.5z" />
    <glyph glyph-name="Rcaron" unicode="&#x158;" horiz-adv-x="537" 
d="M90 700h226q101 0 143 -52.5t42 -131.5t-41 -132t-109 -77l191 -307h-113l-172 291h-71v-291h-96v700zM186 625v-254h77q66 0 101 34.5t35 96.5t-29.5 92.5t-97.5 30.5h-86zM246 735l-127 106l38 44l115 -77l115 77l38 -44l-127 -106h-52z" />
    <glyph glyph-name="rcaron" unicode="&#x159;" horiz-adv-x="365" 
d="M293 537q26 0 39.5 -4.5t22.5 -7t11 -3.5l-16 -90q-30 10 -71.5 10t-75 -35.5t-33.5 -85.5v-321h-90v381l-8 139l73 10l11 -101h4q17 49 51.5 78.5t81.5 29.5zM336 687l-125 -118h-56l-125 118l38 46l115 -87l115 87z" />
    <glyph glyph-name="Sacute" unicode="&#x15a;" horiz-adv-x="486" 
d="M369 898l38 -77l-208 -85l-33 56zM97 658q60 54 153 54t141 -46t55 -126l-102 -10q-3 46 -30.5 71t-75 25t-74.5 -23t-27 -59q0 -48 31 -78t106 -68q66 -34 90.5 -49.5t49.5 -38.5q48 -43 48 -125t-62 -139.5t-167 -57.5t-199 65l41 74q93 -53 175 -53q49 0 80 24.5
t31 71t-31.5 73.5t-79 49t-58.5 27.5t-37 20t-38 24.5t-30.5 28.5t-26.5 35.5q-23 47 -23 96q0 80 60 134z" />
    <glyph glyph-name="sacute" unicode="&#x15b;" horiz-adv-x="429" 
d="M88.5 496q48.5 41 125.5 41t120 -37.5t49 -100.5l-93 -19q-5 77 -85 77q-31 0 -50 -16.5t-19 -40t8 -38t26 -26.5q24 -17 67 -34.5t63 -28t46 -29.5q49 -35 49 -100.5t-52 -110.5t-137 -45t-169 54l35 66q94 -40 145 -40q82 0 82 64q0 29 -25.5 48.5t-68.5 38t-63.5 29
t-47.5 30.5q-54 40 -54 108.5t48.5 109.5zM318 750l53 -69l-187 -117l-42 50z" />
    <glyph glyph-name="Scircumflex" unicode="&#x15c;" horiz-adv-x="486" 
d="M97 658q60 54 153 54t141 -46t55 -126l-102 -10q-3 46 -30.5 71t-75 25t-74.5 -23t-27 -59q0 -48 31 -78t106 -68q66 -34 90.5 -49.5t49.5 -38.5q48 -43 48 -125t-62 -139.5t-167 -57.5t-199 65l41 74q93 -53 175 -53q49 0 80 24.5t31 71t-31.5 73.5t-79 49t-58.5 27.5
t-37 20t-38 24.5t-30.5 28.5t-26.5 35.5q-23 47 -23 96q0 80 60 134zM269 885l127 -106l-38 -44l-115 77l-115 -77l-38 44l127 106h52z" />
    <glyph glyph-name="scircumflex" unicode="&#x15d;" horiz-adv-x="429" 
d="M88.5 496q48.5 41 125.5 41t120 -37.5t49 -100.5l-93 -19q-5 77 -85 77q-31 0 -50 -16.5t-19 -40t8 -38t26 -26.5q24 -17 67 -34.5t63 -28t46 -29.5q49 -35 49 -100.5t-52 -110.5t-137 -45t-169 54l35 66q94 -40 145 -40q82 0 82 64q0 29 -25.5 48.5t-68.5 38t-63.5 29
t-47.5 30.5q-54 40 -54 108.5t48.5 109.5zM243 731l125 -118l-38 -46l-115 89l-115 -89l-38 46l125 118h56z" />
    <glyph glyph-name="Scedilla" unicode="&#x15e;" horiz-adv-x="486" 
d="M97 658q60 54 153 54t141 -46t55 -126l-102 -10q-3 46 -30.5 71t-75 25t-74.5 -23t-27 -59q0 -48 31 -78t106 -68q66 -34 90.5 -49.5t49.5 -38.5q48 -43 48 -121.5t-54 -134.5t-141 -64l-5 -34q42 -12 45 -14q31 -18 31 -55t-23.5 -56t-63.5 -19t-86 23l18 45
q37 -17 65 -17t28 26q0 15 -36.5 25t-39.5 11l17 64q-99 6 -183 64l41 74q93 -53 175 -53q49 0 80 24.5t31 71t-31.5 73.5t-79 49t-58.5 27.5t-37 20t-38 24.5t-30.5 28.5t-26.5 35.5q-23 47 -23 96q0 80 60 134z" />
    <glyph glyph-name="scedilla" unicode="&#x15f;" horiz-adv-x="429" 
d="M88.5 496q48.5 41 125.5 41t120 -37.5t49 -100.5l-93 -19q-5 77 -85 77q-31 0 -50 -16.5t-19 -40t8 -38t26 -26.5q24 -17 67 -34.5t63 -28t46 -29.5q49 -35 49 -98.5t-45.5 -106.5t-119.5 -50l-5 -33q42 -12 45 -14q31 -18 31 -55t-23.5 -56t-63.5 -19t-86 23l18 45
q37 -17 65 -17t28 26q0 15 -36.5 25t-39.5 11l17 65q-74 7 -143 52l35 66q94 -40 145 -40q82 0 82 64q0 29 -25.5 48.5t-68.5 38t-63.5 29t-47.5 30.5q-54 40 -54 108.5t48.5 109.5z" />
    <glyph glyph-name="Scaron" unicode="&#x160;" horiz-adv-x="486" 
d="M358 885l38 -44l-127 -106h-52l-127 106l38 44l115 -77zM97 658q60 54 153 54t141 -46t55 -126l-102 -10q-3 46 -30.5 71t-75 25t-74.5 -23t-27 -59q0 -48 31 -78t106 -68q66 -34 90.5 -49.5t49.5 -38.5q48 -43 48 -125t-62 -139.5t-167 -57.5t-199 65l41 74
q93 -53 175 -53q49 0 80 24.5t31 71t-31.5 73.5t-79 49t-58.5 27.5t-37 20t-38 24.5t-30.5 28.5t-26.5 35.5q-23 47 -23 96q0 80 60 134z" />
    <glyph glyph-name="scaron" unicode="&#x161;" horiz-adv-x="429" 
d="M88.5 496q48.5 41 125.5 41t120 -37.5t49 -100.5l-93 -19q-2 37 -24 58t-57 21t-54 -16.5t-19 -40.5t8 -39t26 -27q24 -17 67 -34.5t63 -28t46 -29.5q49 -35 49 -100.5t-52 -110.5t-137 -45t-169 54l35 66q94 -40 145 -40q82 0 82 64q0 29 -25.5 48.5t-68.5 38t-63.5 29
t-47.5 30.5q-54 40 -54 108.5t48.5 109.5zM368 689l-127 -120h-52l-127 120l38 44l115 -94l115 94z" />
    <glyph glyph-name="Tcedilla" unicode="&#x162;" horiz-adv-x="446" 
d="M276 616v-616h-35l-7 -44q42 -12 45 -14q31 -18 31 -55t-23.5 -56t-63.5 -19t-86 23l18 45q37 -17 65 -17t28 26q0 15 -36.5 25t-39.5 11l20 75h-12v616h-180l9 84h441l-9 -84h-165z" />
    <glyph glyph-name="tcedilla" unicode="&#x163;" horiz-adv-x="350" 
d="M95 449h-86l10 70l76 6l5 110l85 25v-135h143l-12 -76h-131v-244q0 -78 13.5 -108.5t61.5 -30.5q27 0 53 11l26 -57q-12 -12 -44 -22t-51.5 -10t-41.5 2l-5 -34q42 -12 45 -14q31 -18 31 -55t-23.5 -56t-63.5 -19t-86 23l18 45q37 -17 65 -17t28 26q0 15 -36.5 25
t-39.5 11l21 79q-36 20 -48.5 66t-12.5 129v250z" />
    <glyph glyph-name="Tcaron" unicode="&#x164;" horiz-adv-x="446" 
d="M276 616v-616h-96v616h-180l9 84h441l-9 -84h-165zM199 735l-127 106l38 44l115 -77l115 77l38 -44l-127 -106h-52z" />
    <glyph glyph-name="tcaron" unicode="&#x165;" horiz-adv-x="360" 
d="M359.5 745.5q4.5 -24.5 4.5 -53t-19 -59.5t-77 -81l-40 41q33 31 42.5 47.5t9.5 32t-15 82.5l90 19q0 -4 4.5 -28.5zM95 449h-86l10 70l76 6l5 110l85 25v-135h143l-12 -76h-131v-244q0 -78 13.5 -108.5t61.5 -30.5q27 0 53 11l26 -57q-12 -12 -44 -22t-58 -10
q-88 0 -115 49t-27 162v250z" />
    <glyph glyph-name="Tbar" unicode="&#x166;" horiz-adv-x="465" 
d="M286 616v-224h144v-75h-144v-317h-96v317h-148v75h148v224h-180l9 84h441l-9 -84h-165z" />
    <glyph glyph-name="tbar" unicode="&#x167;" horiz-adv-x="365" 
d="M196 525h143l-12 -76h-131v-141h126v-65h-126v-38q0 -78 13.5 -108.5t61.5 -30.5q27 0 53 11l26 -57q-12 -12 -44 -22t-58 -10q-88 0 -115 49t-27 162v44h-74v65h74v141h-86l10 70l76 6l5 110l85 25v-135z" />
    <glyph glyph-name="Utilde" unicode="&#x168;" horiz-adv-x="622" 
d="M532 700v-547l8 -147l-78 -11l-10 58h-4q-65 -65 -157 -65t-149 47t-57 142v523h96v-506q0 -63 38.5 -91.5t94.5 -28.5q82 0 122 62v564h96zM362 775q-26 0 -64.5 16t-65 16t-72.5 -32l-21 61q56 49 109 49q26 0 64.5 -16t65 -16t72.5 32l21 -61q-56 -49 -109 -49z" />
    <glyph glyph-name="utilde" unicode="&#x169;" horiz-adv-x="543" 
d="M231 -12q-68 0 -112 42t-44 130v361l90 9v-359q0 -103 97 -103q64 0 111 47v406l90 9v-386l8 -139l-73 -10l-11 61h-4q-57 -68 -152 -68zM326 600q-26 0 -64.5 16t-65 16t-72.5 -32l-21 61q56 49 109 49q26 0 64.5 -16t65 -16t72.5 32l21 -61q-56 -49 -109 -49z" />
    <glyph glyph-name="Umacron" unicode="&#x16a;" horiz-adv-x="622" 
d="M532 700v-547l8 -147l-78 -11l-10 58h-4q-65 -65 -157 -65t-149 47t-57 142v523h96v-506q0 -63 38.5 -91.5t94.5 -28.5q82 0 122 62v564h96zM176 868h260v-74h-260v74z" />
    <glyph glyph-name="umacron" unicode="&#x16b;" horiz-adv-x="543" 
d="M231 -12q-68 0 -112 42t-44 130v361l90 9v-359q0 -103 97 -103q64 0 111 47v406l90 9v-386l8 -139l-73 -10l-11 61h-4q-57 -68 -152 -68zM139 691h260v-70h-260v70z" />
    <glyph glyph-name="Ubreve" unicode="&#x16c;" horiz-adv-x="622" 
d="M532 700v-547l8 -147l-78 -11l-10 58h-4q-65 -65 -157 -65t-149 47t-57 142v523h96v-506q0 -63 38.5 -91.5t94.5 -28.5q82 0 122 62v564h96zM462 843q-57 -73 -151 -73t-151 73l40 43q53 -44 112 -44t112 44z" />
    <glyph glyph-name="ubreve" unicode="&#x16d;" horiz-adv-x="543" 
d="M231 -12q-68 0 -112 42t-44 130v361l90 9v-359q0 -103 97 -103q64 0 111 47v406l90 9v-386l8 -139l-73 -10l-11 61h-4q-57 -68 -152 -68zM420 668q-57 -73 -151 -73t-151 73l40 43q53 -44 112 -44t112 44z" />
    <glyph glyph-name="Uring" unicode="&#x16e;" horiz-adv-x="622" 
d="M532 700v-547l8 -147l-78 -11l-10 58h-4q-65 -65 -157 -65t-149 47t-57 142v523h96v-506q0 -63 38.5 -91.5t94.5 -28.5q82 0 122 62v564h96zM241.5 889.5q23.5 26.5 66 26.5t63.5 -24t21 -59.5t-23.5 -63t-65.5 -27.5t-63.5 25t-21.5 60.5t23.5 62zM302 867
q-16 0 -24.5 -11t-8.5 -26q0 -39 39 -39q16 0 24.5 11t8.5 26q0 39 -39 39z" />
    <glyph glyph-name="uring" unicode="&#x16f;" horiz-adv-x="543" 
d="M231 -12q-68 0 -112 42t-44 130v361l90 9v-359q0 -103 97 -103q64 0 111 47v406l90 9v-386l8 -139l-73 -10l-11 61h-4q-57 -68 -152 -68zM334.5 600.5q-23.5 -27.5 -65.5 -27.5t-63.5 25t-21.5 60.5t23.5 62t66 26.5t63.5 -24t21 -59.5t-23.5 -63zM274 622q16 0 24.5 11
t8.5 26q0 39 -39 39q-16 0 -24.5 -11t-8.5 -26q0 -39 39 -39z" />
    <glyph glyph-name="Uhungarumlaut" unicode="&#x170;" horiz-adv-x="622" 
d="M532 700v-547l8 -147l-78 -11l-10 58h-4q-65 -65 -157 -65t-149 47t-57 142v523h96v-506q0 -63 38.5 -91.5t94.5 -28.5q82 0 122 62v564h96zM337 941l60 -61l-174 -144l-48 43zM509 931l55 -67l-185 -128l-44 47z" />
    <glyph glyph-name="uhungarumlaut" unicode="&#x171;" horiz-adv-x="543" 
d="M231 -12q-68 0 -112 42t-44 130v361l90 9v-359q0 -103 97 -103q64 0 111 47v406l90 9v-386l8 -139l-73 -10l-11 61h-4q-57 -68 -152 -68zM283 760l60 -56l-160 -143l-47 33zM456 760l60 -56l-160 -143l-47 33z" />
    <glyph glyph-name="Uogonek" unicode="&#x172;" horiz-adv-x="622" 
d="M532 700v-547l8 -147q-35 -29 -57.5 -58.5t-22.5 -47t8.5 -27.5t26 -10t33.5 7l11 -38q-34 -20 -67.5 -20t-56.5 20.5t-23 56.5t32 70q12 15 38 37l-10 57h-4q-65 -65 -157 -65t-149 47t-57 142v523h96v-506q0 -63 38.5 -91.5t94.5 -28.5q82 0 122 62v564h96z" />
    <glyph glyph-name="uogonek" unicode="&#x173;" horiz-adv-x="543" 
d="M394 -103q0 -14 8.5 -24t26 -10t33.5 7l11 -38q-34 -20 -67.5 -20t-56.5 20.5t-23 50.5t13.5 53t23.5 32t34 29l-10 59h-4q-57 -68 -152 -68q-82 0 -125 56q-31 42 -31 116v361l90 9v-359q0 -103 97 -103q64 0 111 47v406l90 9v-386l8 -138v-1q-77 -71 -77 -108z" />
    <glyph glyph-name="Wcircumflex" unicode="&#x174;" horiz-adv-x="774" 
d="M416 885l127 -106l-38 -44l-115 77l-115 -77l-38 44l127 106h52zM762 694l-143 -694h-140l-90 535h-4l-5 -45l-84 -490h-134l-151 694l97 12l119 -579l5 -40h4l94 554l121 11l91 -525l4 -40h4l118 619z" />
    <glyph glyph-name="wcircumflex" unicode="&#x175;" horiz-adv-x="683" 
d="M583 531l83 -10l-117 -521h-117l-89 391h-6l-85 -391h-117l-118 521l88 10l89 -441h7l91 405l101 10l96 -415h7zM372 731l125 -118l-38 -46l-115 89l-115 -89l-38 46l125 118h56z" />
    <glyph glyph-name="Ycircumflex" unicode="&#x176;" horiz-adv-x="478" 
d="M290 0h-96v252q-111 253 -194 441l97 12l142 -360h6l142 360l91 -12l-188 -441v-252zM268 885l127 -106l-38 -44l-115 77l-115 -77l-38 44l127 106h52z" />
    <glyph glyph-name="ycircumflex" unicode="&#x177;" horiz-adv-x="430" 
d="M333 529l87 -10l-123 -415q-41 -140 -76 -203q-22 -39 -71 -69.5t-85 -31.5l-37 73q48 4 91.5 36t52.5 83q-72 225 -167 528l94 10l114 -429h6zM245 731l125 -118l-38 -46l-115 89l-115 -89l-38 46l125 118h56z" />
    <glyph glyph-name="Ydieresis" unicode="&#x178;" horiz-adv-x="478" 
d="M154 884q52 0 52 -59q0 -52 -59 -52q-53 0 -53 59q0 25 12.5 38.5t47.5 13.5zM337 884q53 0 53 -59q0 -25 -12.5 -38.5t-47.5 -13.5q-52 0 -52 59q0 52 59 52zM290 0h-96v252q-111 253 -194 441l97 12l142 -360h6l142 360l91 -12l-188 -441v-252z" />
    <glyph glyph-name="Zacute" unicode="&#x179;" horiz-adv-x="459" 
d="M435 700v-92l-307 -525h316l-9 -83h-410v93l303 524h-301l9 83h399zM353 898l38 -77l-208 -85l-33 56z" />
    <glyph glyph-name="zacute" unicode="&#x17a;" horiz-adv-x="407" 
d="M377 525v-83l-259 -366h279l-15 -76h-363v84l253 365h-251l13 76h343zM265 750l53 -69l-187 -117l-42 50z" />
    <glyph glyph-name="Zdotaccent" unicode="&#x17b;" horiz-adv-x="459" 
d="M435 700v-92l-307 -525h316l-9 -83h-410v93l303 524h-301l9 83h399zM227 763q-61 0 -61 68q0 25 16.5 43t51.5 18q61 0 61 -68q0 -25 -16.5 -43t-51.5 -18z" />
    <glyph glyph-name="zdotaccent" unicode="&#x17c;" horiz-adv-x="407" 
d="M377 525v-83l-259 -366h279l-15 -76h-363v84l253 365h-251l13 76h343zM200 559q-61 0 -61 68q0 25 16.5 43t51.5 18q61 0 61 -68q0 -25 -16.5 -43t-51.5 -18z" />
    <glyph glyph-name="Zcaron" unicode="&#x17d;" horiz-adv-x="459" 
d="M435 700v-92l-307 -525h316l-9 -83h-410v93l303 524h-301l9 83h399zM384 841l-127 -106h-52l-127 106l38 44l115 -77l115 77z" />
    <glyph glyph-name="zcaron" unicode="&#x17e;" horiz-adv-x="407" 
d="M377 525v-83l-259 -366h279l-15 -76h-363v84l253 365h-251l13 76h343zM357 687l-125 -118h-56l-125 118l38 46l115 -87l115 87z" />
    <glyph glyph-name="longs" unicode="&#x17f;" horiz-adv-x="337" 
d="M80 0v573q0 99 52 143t130 44q57 0 110 -21l-18 -67q-43 9 -75 9q-109 0 -109 -107v-574h-90z" />
    <glyph glyph-name="florin" unicode="&#x192;" horiz-adv-x="453" 
d="M366 760q66 0 107 -22l-22 -68q-44 11 -76 11q-86 0 -101 -107l-16 -114h125l-18 -76h-118l-56 -396q-12 -84 -48 -126.5t-116 -61.5l-42 57q69 21 89.5 54.5t32.5 119.5l50 353h-93l18 70l86 6l16 113q26 187 182 187z" />
    <glyph glyph-name="Ohorn" unicode="&#x1a0;" horiz-adv-x="640" 
d="M118 613q69 99 202.5 99t198.5 -96q42 18 56 38t14 53t-1 43l86 10q0 -41 -4.5 -75t-29 -61t-97.5 -54q32 -79 32 -205q0 -179 -69 -278t-205 -99q-252 0 -252 347q0 179 69 278zM377 611.5q-32 14.5 -77.5 14.5t-77 -22.5t-46.5 -65.5q-25 -73 -25 -196q0 -160 45 -216
q41 -52 126 -52q40 0 68.5 16.5t44 41t24.5 64.5q14 62 14 137t-3 110.5t-13.5 72t-29 59t-50.5 37z" />
    <glyph glyph-name="ohorn" unicode="&#x1a1;" horiz-adv-x="534" 
d="M429 74q-26 -40 -72.5 -63t-109 -23t-105 24t-62.5 68q-35 76 -35 188q0 108 50 184q26 39 72.5 62t109.5 23q104 0 154 -71q32 16 42 33t13 53v43l83 10q0 -93 -31 -133q-21 -26 -83 -51q24 -62 24 -167t-50 -180zM210 78q23 -10 55.5 -10t55.5 12t35 28.5t18 46.5
q9 45 9 97t-2 76.5t-9.5 50.5t-21.5 42q-30 36 -92 36q-32 0 -55 -12t-35 -28.5t-18 -46.5q-9 -45 -9 -97t2 -76.5t9.5 -50.5t21 -42t36.5 -26z" />
    <glyph glyph-name="Uhorn" unicode="&#x1af;" horiz-adv-x="637" 
d="M532 700v-79q34 17 46 36.5t12 51t-1 41.5l86 10q0 -41 -4.5 -75.5t-31 -62.5t-107.5 -56v-413l8 -147l-78 -11l-10 58h-4q-65 -65 -157 -65t-149 47t-57 142v523h96v-506q0 -63 38.5 -91.5t94.5 -28.5q82 0 122 62v564h96z" />
    <glyph glyph-name="uhorn" unicode="&#x1b0;" horiz-adv-x="558" 
d="M515 552v43l83 10q0 -98 -35 -137q-24 -27 -100 -55v-269l8 -139l-73 -10l-11 61h-4q-57 -68 -152 -68q-68 0 -112 42t-44 130v361l90 9v-359q0 -103 97 -103q64 0 111 47v406l90 9v-63q31 16 41.5 34t10.5 51z" />
    <glyph glyph-name="Acaron" unicode="&#x1cd;" horiz-adv-x="534" 
d="M328 705l194 -705h-101l-47 185h-222l-49 -185h-93l195 693zM262 615l-87 -348h179l-85 348h-7zM382 885l38 -44l-127 -106h-52l-127 106l38 44l115 -77z" />
    <glyph glyph-name="acaron" unicode="&#x1ce;" 
d="M311 366q0 91 -83 91q-53 0 -143 -28l-32 63q86 45 186 45q121 0 148 -72q14 -37 14 -98v-213q0 -72 41 -114l-53 -52q-18 11 -36.5 32.5t-25.5 42.5l-3 -1q-56 -74 -152 -74q-143 0 -143 149q0 132 186 159l96 14v56zM125 134q0 -66 71 -66t115 46v126
q-126 -17 -155 -40q-31 -25 -31 -66zM391 687l-125 -118h-56l-125 118l38 46l115 -87l115 87z" />
    <glyph glyph-name="Icaron" unicode="&#x1cf;" horiz-adv-x="276" 
d="M186 700v-700h-96v700h96zM276 841l-112 -106h-52l-112 106l38 44l100 -77l100 77z" />
    <glyph glyph-name="icaron" unicode="&#x1d0;" horiz-adv-x="250" 
d="M97 569l-105 118l38 46l95 -87l95 87l38 -46l-105 -118h-56zM170 0h-90v520l90 10v-530z" />
    <glyph glyph-name="Ocaron" unicode="&#x1d1;" horiz-adv-x="626" 
d="M378 611.5q-32 14.5 -77.5 14.5t-77 -22.5t-46.5 -65.5q-25 -73 -25 -196q0 -160 45 -216q41 -52 126 -52q40 0 68.5 16.5t44 41t24.5 64.5q14 62 14 137t-3 110.5t-13.5 72t-29 59t-50.5 37zM324 712q252 0 252 -347q0 -179 -69 -278t-205 -99q-252 0 -252 347
q0 179 69 278t205 99zM472 841l-127 -106h-52l-127 106l38 44l115 -77l115 77z" />
    <glyph glyph-name="ocaron" unicode="&#x1d2;" horiz-adv-x="524" 
d="M417 687l-125 -118h-56l-125 118l38 46l115 -87l115 87zM356.5 11q-46.5 -23 -109 -23t-105 24t-62.5 68q-35 76 -35 188q0 108 50 184q26 39 72.5 62t109 23t105 -24t62.5 -67q35 -77 35 -189q0 -108 -50 -183q-26 -40 -72.5 -63zM210 78q23 -10 55.5 -10t55.5 12
t35 28.5t18 46.5q9 45 9 97t-2 76.5t-9.5 50.5t-21.5 42q-30 36 -92 36q-32 0 -55 -12t-35 -28.5t-18 -46.5q-9 -45 -9 -97t2 -76.5t9.5 -50.5t21 -42t36.5 -26z" />
    <glyph glyph-name="Ucaron" unicode="&#x1d3;" horiz-adv-x="622" 
d="M532 700v-547l8 -147l-78 -11l-10 58h-4q-65 -65 -157 -65t-149 47t-57 142v523h96v-506q0 -63 38.5 -91.5t94.5 -28.5q82 0 122 62v564h96zM279 735l-127 106l38 44l115 -77l115 77l38 -44l-127 -106h-52z" />
    <glyph glyph-name="ucaron" unicode="&#x1d4;" horiz-adv-x="543" 
d="M231 -12q-68 0 -112 42t-44 130v361l90 9v-359q0 -103 97 -103q64 0 111 47v406l90 9v-386l8 -139l-73 -10l-11 61h-4q-57 -68 -152 -68zM422 687l-125 -118h-56l-125 118l38 46l115 -87l115 87z" />
    <glyph glyph-name="AEacute" unicode="&#x1fc;" horiz-adv-x="793" 
d="M487 614v-215h232l-12 -84h-220v-229h281l-12 -86h-365v185h-220l-93 -185h-98l357 700h426l-12 -86h-264zM599 898l38 -77l-208 -85l-33 56zM391 267v348h-13l-168 -348h181z" />
    <glyph glyph-name="aeacute" unicode="&#x1fd;" horiz-adv-x="740" 
d="M531 537q84 0 125 -52q33 -43 41 -141q3 -39 3 -97l-41 -6h-256q0 -86 25 -129.5t95 -43.5t134 32l28 -62q-83 -50 -167 -50q-122 0 -168 83q-72 -83 -184 -83q-137 0 -137 150q0 132 186 160l96 14v54q0 91 -83 91q-53 0 -143 -28l-32 63q86 45 186.5 45t133.5 -74
q55 74 158 74zM514 457q-40 0 -64.5 -21.5t-33 -51t-11.5 -72.5h199q0 80 -16 112.5t-74 32.5zM459 750l53 -69l-187 -117l-42 50zM125 135q0 -71 74 -71q17 0 35 5q48 14 77 49v124q-125 -17 -155 -41q-31 -25 -31 -66z" />
    <glyph glyph-name="Oslashacute" unicode="&#x1fe;" horiz-adv-x="626" 
d="M324 712q43 0 81 -11l31 90l62 -22l-33 -96q111 -77 111 -308q0 -179 -69 -278t-205 -99q-37 0 -71 8l-30 -87l-62 21l31 91q-120 73 -120 314q0 179 69 278t205 99zM375 613q-33 13 -76.5 13t-75 -22.5t-46.5 -65.5q-25 -73 -25 -175t10.5 -156.5t41.5 -88.5zM261 82
q27 -8 64.5 -8t66 16.5t44 41t24.5 64.5q14 62 14 163q0 154 -44 212zM412 898l38 -77l-208 -85l-33 56z" />
    <glyph glyph-name="oslashacute" unicode="&#x1ff;" horiz-adv-x="524" 
d="M277 537q28 0 52 -6l28 81l52 -18l-28 -81q98 -57 98 -256q0 -108 -50 -183q-26 -40 -72.5 -63t-109.5 -23q-17 0 -45 4l-27 -79l-52 18l26 77q-104 54 -104 260q0 108 50 184q26 39 72.5 62t109.5 23zM334 750l53 -69l-187 -117l-42 50zM302 451q-20 6 -48 6t-51 -12
t-35 -28.5t-18 -46.5q-9 -45 -9 -114q0 -120 39 -159zM229 72q15 -4 42 -4t50 12t35 28.5t18 46.5q9 45 9 114q0 112 -34 152z" />
    <glyph glyph-name="Scommaaccent" unicode="&#x218;" horiz-adv-x="486" 
d="M97 658q60 54 153 54t141 -46t55 -126l-102 -10q-3 46 -30.5 71t-75 25t-74.5 -23t-27 -59q0 -48 31 -78t106 -68q66 -34 90.5 -49.5t49.5 -38.5q48 -43 48 -125t-62 -139.5t-167 -57.5t-199 65l41 74q93 -53 175 -53q49 0 80 24.5t31 71t-31.5 73.5t-79 49t-58.5 27.5
t-37 20t-38 24.5t-30.5 28.5t-26.5 35.5q-23 47 -23 96q0 80 60 134zM295 -31q8 -64 8 -90t-18.5 -50.5t-76.5 -75.5l-37 40q34 42 42 57.5t8 27.5t-10 79z" />
    <glyph glyph-name="scommaaccent" unicode="&#x219;" horiz-adv-x="429" 
d="M88.5 496q48.5 41 125.5 41t120 -37.5t49 -100.5l-93 -19q-5 77 -85 77q-31 0 -50 -16.5t-19 -40t8 -38t26 -26.5q24 -17 67 -34.5t63 -28t46 -29.5q49 -35 49 -100.5t-52 -110.5t-137 -45t-169 54l35 66q94 -40 145 -40q82 0 82 64q0 29 -25.5 48.5t-68.5 38t-63.5 29
t-47.5 30.5q-54 40 -54 108.5t48.5 109.5zM258 -31q8 -64 8 -90t-18.5 -50.5t-76.5 -75.5l-37 40q34 42 42 57.5t8 27.5t-10 79z" />
    <glyph glyph-name="dotlessj" unicode="&#x237;" horiz-adv-x="250" 
d="M170 -12q0 -79 -20.5 -113t-86.5 -75l-51 54q47 35 57.5 63.5t10.5 113.5v489l90 10v-542z" />
    <glyph glyph-name="circumflex" unicode="&#x2c6;" horiz-adv-x="376" 
d="M216 731l125 -118l-38 -46l-115 89l-115 -89l-38 46l125 118h56z" />
    <glyph glyph-name="caron" unicode="&#x2c7;" horiz-adv-x="376" 
d="M341 687l-125 -118h-56l-125 118l38 46l115 -87l115 87z" />
    <glyph glyph-name="breve" unicode="&#x2d8;" horiz-adv-x="370" 
d="M335 668q-57 -73 -151 -73t-151 73l40 43q53 -44 112 -44t112 44z" />
    <glyph glyph-name="dotaccent" unicode="&#x2d9;" horiz-adv-x="209" 
d="M108 688q61 0 61 -68q0 -25 -16.5 -43t-51.5 -18q-61 0 -61 68q0 25 16.5 43t51.5 18z" />
    <glyph glyph-name="ring" unicode="&#x2da;" horiz-adv-x="254" 
d="M63.5 720.5q23.5 26.5 66 26.5t63.5 -24t21 -59.5t-23.5 -63t-65.5 -27.5t-63.5 25t-21.5 60.5t23.5 62zM124 698q-16 0 -24.5 -11t-8.5 -26q0 -39 39 -39q16 0 24.5 11t8.5 26q0 39 -39 39z" />
    <glyph glyph-name="ogonek" unicode="&#x2db;" horiz-adv-x="197" 
d="M125 -46q-27 -36 -27 -53.5t8.5 -27.5t26 -10t33.5 7l11 -38q-34 -20 -67.5 -20t-56.5 20.5t-23 56.5t32.5 70.5t50.5 46.5h62q-44 -44 -50 -52z" />
    <glyph glyph-name="tilde" unicode="&#x2dc;" horiz-adv-x="402" 
d="M258 600q-26 0 -64.5 16t-65 16t-72.5 -32l-21 61q56 49 109 49q26 0 64.5 -16t65 -16t72.5 32l21 -61q-56 -49 -109 -49z" />
    <glyph glyph-name="hungarumlaut" unicode="&#x2dd;" horiz-adv-x="450" 
d="M182 760l60 -56l-160 -143l-47 33zM355 760l60 -56l-160 -143l-47 33z" />
    <glyph glyph-name="Aringbelow" unicode="&#x1e00;" horiz-adv-x="534" 
d="M328 705l194 -705h-101l-47 185h-222l-49 -185h-93l195 693zM262 615l-87 -348h179l-85 348h-7zM194.5 -50.5q23.5 26.5 66 26.5t63.5 -24t21 -59.5t-23.5 -63t-65.5 -27.5t-63.5 25t-21.5 60.5t23.5 62zM255 -69q-18 0 -27.5 -12t-9.5 -29q0 -43 43 -43q18 0 27.5 12
t9.5 29q0 43 -43 43z" />
    <glyph glyph-name="aringbelow" unicode="&#x1e01;" 
d="M311 366q0 91 -83 91q-53 0 -143 -28l-32 63q86 45 186 45q121 0 148 -72q14 -37 14 -98v-213q0 -72 41 -114l-53 -52q-18 11 -36.5 32.5t-25.5 42.5l-3 -1q-56 -74 -152 -74q-143 0 -143 149q0 132 186 159l96 14v56zM125 134q0 -66 71 -66t115 46v126
q-126 -17 -155 -40q-31 -25 -31 -66zM303.5 -174.5q-23.5 -27.5 -65.5 -27.5t-63.5 25t-21.5 60.5t23.5 62t66 26.5t63.5 -24t21 -59.5t-23.5 -63zM243 -153q16 0 24.5 11t8.5 26q0 39 -39 39q-16 0 -24.5 -11t-8.5 -26q0 -39 39 -39z" />
    <glyph glyph-name="Macute" unicode="&#x1e3e;" horiz-adv-x="733" 
d="M640 700l37 -700h-94l-24 494l7 120h-6l-135 -574l-115 -10l-155 584h-7l12 -118l-17 -496h-82l27 700h140l120 -470l21 -110h5l18 107l108 473h140zM487 898l38 -77l-208 -85l-33 56z" />
    <glyph glyph-name="macute" unicode="&#x1e3f;" horiz-adv-x="803" 
d="M162 471q45 66 135.5 66t128.5 -69q53 69 150 69q74 0 113 -47t39 -130v-360h-90v354q0 103 -89 103q-67 0 -100 -48v-409h-90v354q0 103 -89 103q-67 0 -100 -48v-409h-90v381l-8 139l73 10l13 -59h4zM505 750l53 -69l-187 -117l-42 50z" />
    <glyph glyph-name="Wgrave" unicode="&#x1e80;" horiz-adv-x="774" 
d="M228 821l38 77l203 -106l-33 -56zM762 694l-143 -694h-140l-90 535h-4l-5 -45l-84 -490h-134l-151 694l97 12l119 -579l5 -40h4l94 554l121 11l91 -525l4 -40h4l118 619z" />
    <glyph glyph-name="wgrave" unicode="&#x1e81;" horiz-adv-x="683" 
d="M583 531l83 -10l-117 -521h-117l-89 391h-6l-85 -391h-117l-118 521l88 10l89 -441h7l91 405l101 10l96 -415h7zM185 681l53 69l176 -136l-42 -50z" />
    <glyph glyph-name="Wacute" unicode="&#x1e82;" horiz-adv-x="774" 
d="M504 898l38 -77l-208 -85l-33 56zM762 694l-143 -694h-140l-90 535h-4l-5 -45l-84 -490h-134l-151 694l97 12l119 -579l5 -40h4l94 554l121 11l91 -525l4 -40h4l118 619z" />
    <glyph glyph-name="wacute" unicode="&#x1e83;" horiz-adv-x="683" 
d="M583 531l83 -10l-117 -521h-117l-89 391h-6l-85 -391h-117l-118 521l88 10l89 -441h7l91 405l101 10l96 -415h7zM438 750l53 -69l-187 -117l-42 50z" />
    <glyph glyph-name="Wdieresis" unicode="&#x1e84;" horiz-adv-x="774" 
d="M297 773q-53 0 -53 59q0 25 12.5 38.5t47.5 13.5q52 0 52 -59q0 -52 -59 -52zM480 773q-52 0 -52 59q0 52 59 52q53 0 53 -59q0 -25 -12.5 -38.5t-47.5 -13.5zM762 694l-143 -694h-140l-90 535h-4l-5 -45l-84 -490h-134l-151 694l97 12l119 -579l5 -40h4l94 554l121 11
l91 -525l4 -40h4l118 619z" />
    <glyph glyph-name="wdieresis" unicode="&#x1e85;" horiz-adv-x="683" 
d="M583 531l83 -10l-117 -521h-117l-89 391h-6l-85 -391h-117l-118 521l88 10l89 -441h7l91 405l101 10l96 -415h7zM250 600q-53 0 -53 59q0 25 12.5 38.5t47.5 13.5q52 0 52 -59q0 -52 -59 -52zM433 600q35 0 47.5 13.5t12.5 38.5q0 59 -53 59q-59 0 -59 -52q0 -59 52 -59z
M257 711q-35 0 -47.5 -13.5t-12.5 -38.5q0 -59 53 -59q59 0 59 52q0 59 -52 59zM440 711q53 0 53 -59q0 -25 -12.5 -38.5t-47.5 -13.5q-52 0 -52 59q0 52 59 52z" />
    <glyph glyph-name="Ygrave" unicode="&#x1ef2;" horiz-adv-x="478" 
d="M290 0h-96v252q-111 253 -194 441l97 12l142 -360h6l142 360l91 -12l-188 -441v-252zM83 821l38 77l203 -106l-33 -56z" />
    <glyph glyph-name="ygrave" unicode="&#x1ef3;" horiz-adv-x="430" 
d="M333 529l87 -10l-123 -415q-41 -140 -76 -203q-22 -39 -71 -69.5t-85 -31.5l-37 73q48 4 91.5 36t52.5 83q-72 225 -167 528l94 10l114 -429h6zM61 681l53 69l176 -136l-42 -50z" />
    <glyph glyph-name="uni1eF4" unicode="&#x1ef4;" horiz-adv-x="478" 
d="M240 -168q-61 0 -61 68q0 25 16.5 43t51.5 18q61 0 61 -68q0 -25 -16.5 -43t-51.5 -18zM290 0h-96v252q-111 253 -194 441l97 12l142 -360h6l142 360l91 -12l-188 -441v-252z" />
    <glyph glyph-name="uni1EF5" unicode="&#x1ef5;" horiz-adv-x="430" 
d="M337 -168q-61 0 -61 68q0 25 16.5 43t51.5 18q61 0 61 -68q0 -25 -16.5 -43t-51.5 -18zM333 529l87 -10l-123 -415q-41 -140 -76 -203q-22 -39 -71 -69.5t-85 -31.5l-37 73q48 4 91.5 36t52.5 83q-72 225 -167 528l94 10l114 -429h6z" />
    <glyph glyph-name="uni1EF6" unicode="&#x1ef6;" horiz-adv-x="478" 
d="M194 913q31 12 68.5 12t59.5 -17t22 -50t-20 -49t-63 -24v-41l-45 -4l-3 75q80 7 80 38q0 29 -39 29q-21 0 -54 -6zM290 0h-96v252q-118 273 -194 441l97 12l142 -360h6l142 360l91 -12l-188 -441v-252z" />
    <glyph glyph-name="uni1EF7" unicode="&#x1ef7;" horiz-adv-x="430" 
d="M313 685q0 -33 -20 -49t-63 -24v-41l-45 -4l-3 75q80 7 80 38q0 29 -39 29q-21 0 -54 -6l-6 37q31 12 68.5 12t59.5 -17t22 -50zM333 529l87 -10l-123 -415q-41 -140 -76 -203q-22 -39 -71 -69.5t-85 -31.5l-37 73q48 4 91.5 36t52.5 83q-28 88 -83.5 264t-83.5 264
l94 10l114 -429h6z" />
    <glyph glyph-name="Ytilde" unicode="&#x1ef8;" horiz-adv-x="478" 
d="M290 0h-96v252q-111 253 -194 441l97 12l142 -360h6l142 360l91 -12l-188 -441v-252zM286 775q-26 0 -64.5 16t-65 16t-72.5 -32l-21 61q56 49 109 49q26 0 64.5 -16t65 -16t72.5 32l21 -61q-56 -49 -109 -49z" />
    <glyph glyph-name="ytilde" unicode="&#x1ef9;" horiz-adv-x="430" 
d="M333 529l87 -10l-123 -415q-41 -140 -76 -203q-22 -39 -71 -69.5t-85 -31.5l-37 73q48 4 91.5 36t52.5 83q-72 225 -167 528l94 10l114 -429h6zM260 600q-26 0 -64.5 16t-65 16t-72.5 -32l-21 61q56 49 109 49q26 0 64.5 -16t65 -16t72.5 32l21 -61q-56 -49 -109 -49z
" />
    <glyph glyph-name="endash" unicode="&#x2013;" horiz-adv-x="510" 
d="M480 291v-75h-450v75h450z" />
    <glyph glyph-name="emdash" unicode="&#x2014;" horiz-adv-x="760" 
d="M730 291v-75h-700v75h700z" />
    <glyph glyph-name="quoteleft" unicode="&#x2018;" horiz-adv-x="194" 
d="M118 616q0 -15 29 -102l-76 -34q-1 3 -11 30q-20 49 -20 87q0 67 65 155l50 -36q-37 -60 -37 -100z" />
    <glyph glyph-name="quoteright" unicode="&#x2019;" horiz-adv-x="194" 
d="M154 635q0 -67 -65 -155l-50 36q37 60 37 100q0 15 -29 102l76 34q1 -3 11 -30q20 -49 20 -87z" />
    <glyph glyph-name="quotesinglbase" unicode="&#x201a;" horiz-adv-x="194" 
d="M154 40q0 -67 -65 -155l-50 36q37 60 37 100q0 15 -29 102l76 34q1 -3 11 -29q20 -50 20 -88z" />
    <glyph glyph-name="quotedblleft" unicode="&#x201c;" horiz-adv-x="352" 
d="M278 616q0 -15 29 -102l-76 -34q-1 3 -11 30q-20 49 -20 87q0 67 65 155l50 -36q-37 -60 -37 -100zM170 716q-42 -69 -42 -102.5t22 -99.5l-77 -34q-23 69 -23 123.5t70 148.5z" />
    <glyph glyph-name="quotedblright" unicode="&#x201d;" horiz-adv-x="354" 
d="M154 635q0 -67 -65 -155l-50 36q37 60 37 100q0 15 -29 102l76 34q1 -3 11 -30q20 -49 20 -87zM281 752q23 -69 23 -123.5t-70 -148.5l-50 36q42 69 42 102.5t-22 99.5z" />
    <glyph glyph-name="quotedblbase" unicode="&#x201e;" horiz-adv-x="354" 
d="M154 40q0 -67 -65 -155l-50 36q37 60 37 100q0 15 -29 102l76 34q1 -3 11 -29q20 -50 20 -88zM281 157q23 -69 23 -123.5t-70 -148.5l-50 36q42 69 42 102.5t-22 99.5z" />
    <glyph glyph-name="dagger" unicode="&#x2020;" horiz-adv-x="466" 
d="M45 514l140 8l30 -40l-30 -41l-150 8zM266 710l7 -180l-39 -32l-39 32l8 170zM205 -12l-15 442l44 32l44 -32l-14 -432zM421 448l-140 -7l-30 41l30 40l150 -9z" />
    <glyph glyph-name="daggerdbl" unicode="&#x2021;" horiz-adv-x="477" 
d="M50 522l140 6l31 -38l-31 -39l-150 6zM271 708l6 -170l-39 -32l-39 32l7 162zM437 521l-10 -65l-142 -5l-30 40l30 37zM278 439l-14 -94l14 -96l-40 -34l-40 34l14 95l-14 95l40 33zM50 231l140 6l31 -37l-31 -40l-150 6zM427 166l-142 -6l-30 40l30 37l152 -6zM206 -20
l-8 171l40 30l40 -30l-7 -163z" />
    <glyph glyph-name="bullet" unicode="&#x2022;" horiz-adv-x="384" 
d="M198 414q116 0 116 -142q0 -51 -33 -84.5t-101 -33.5q-115 0 -115 141q1 52 33.5 85.5t99.5 33.5z" />
    <glyph glyph-name="ellipsis" unicode="&#x2026;" horiz-adv-x="677" 
d="M127 117q61 0 61 -68q0 -25 -16.5 -43t-51.5 -18q-61 0 -61 68q0 25 16.5 43t51.5 18zM339 117q61 0 61 -68q0 -25 -16.5 -43t-51.5 -18q-61 0 -61 68q0 25 16.5 43t51.5 18zM551 117q61 0 61 -68q0 -25 -16.5 -43t-51.5 -18q-61 0 -61 68q0 25 16.5 43t51.5 18z" />
    <glyph glyph-name="guilsinglleft" unicode="&#x2039;" horiz-adv-x="262" 
d="M222 447l-94 -199l94 -199l-63 -18l-119 217l119 217z" />
    <glyph glyph-name="guilsinglright" unicode="&#x203a;" horiz-adv-x="262" 
d="M103 465l119 -217l-119 -217l-63 18l94 199l-94 199z" />
    <glyph glyph-name="fraction" unicode="&#x2044;" horiz-adv-x="362" 
d="M365 705l-309 -716l-59 25l310 716z" />
    <glyph glyph-name="zerosuperior" unicode="&#x2070;" horiz-adv-x="358" 
d="M176 298q-45 0 -76.5 19t-47.5 51q-30 59 -30 135q0 108 43 161t120 53q44 0 75.5 -18.5t47.5 -50.5q29 -59 29 -133q0 -107 -43.5 -162t-117.5 -55zM179 360q46 0 65.5 37.5t19.5 112.5q0 145 -81 145q-48 0 -68 -37t-20 -112q0 -146 84 -146z" />
    <glyph glyph-name="foursuperior" unicode="&#x2074;" horiz-adv-x="355" 
d="M276 446h79l-13 -56h-66v-84l-61 -8v92h-182v69l167 258l47 -31l-144 -240h112v48l7 87l54 6v-141z" />
    <glyph glyph-name="fivesuperior" unicode="&#x2075;" horiz-adv-x="321" 
d="M160 565q131 0 131 -125q0 -67 -42.5 -104.5t-109 -37.5t-114.5 34l18 46q65 -24 100 -24q75 0 75 84q0 38 -20.5 56t-49.5 18t-66 -17l-34 21l19 195h207l-7 -56h-142l-9 -84l-8 -14q29 8 52 8z" />
    <glyph glyph-name="sixsuperior" unicode="&#x2076;" horiz-adv-x="373" 
d="M216 661q-44 0 -67.5 -35t-25.5 -88q33 24 77 24q67 0 97.5 -36.5t30.5 -93.5t-35 -95.5t-104 -38.5q-139 0 -139 195q0 108 41 166t117 58q47 0 102 -23l-22 -48q-43 15 -72 15zM141 383.5q18 -29.5 50.5 -29.5t48.5 22t16 58q0 74 -63 74q-46 0 -70 -30v-12
q0 -53 18 -82.5z" />
    <glyph glyph-name="sevensuperior" unicode="&#x2077;" horiz-adv-x="318" 
d="M288 711v-62q-57 -116 -72 -153q-28 -66 -88 -207l-64 32l156 327h-195l9 63h254z" />
    <glyph glyph-name="eightsuperior" unicode="&#x2078;" horiz-adv-x="354" 
d="M85.5 687q32.5 30 93 30t89 -25.5t28.5 -63t-13 -58t-46 -40.5q26 -16 39 -26.5t25.5 -32.5t12.5 -50q0 -53 -37 -88t-104 -35q-133 0 -133 107q0 40 17.5 63t54.5 49q-29 18 -44 39t-15 61t32.5 70zM243 421q0 27 -19.5 43t-58.5 30q-55 -22 -55 -80q0 -27 18.5 -44.5
t53.5 -17.5q61 0 61 69zM134 657.5q-12 -11.5 -12 -38t17 -42t48 -27.5q22 11 31 26.5t9 42.5q0 50 -55 50q-26 0 -38 -11.5z" />
    <glyph glyph-name="ninesuperior" unicode="&#x2079;" horiz-adv-x="372" 
d="M82 367q41 -15 78.5 -15t62 36t27.5 89q-30 -24 -85.5 -24t-87.5 33.5t-32 94.5t36.5 98.5t106.5 37.5t102 -47.5t32 -149t-41 -162t-117 -60.5q-59 0 -103 24zM178 663q-60 0 -60 -83q0 -72 62 -72q42 0 69 23v14q0 60 -16 89t-55 29z" />
    <glyph glyph-name="franc" unicode="&#x20a3;" horiz-adv-x="441" 
d="M436 610l-24 -82h-198l-21 -142h171l-19 -74h-161l-11 -76h132l-20 -69h-122l-14 -100h-87l14 100h-66l18 56l57 13l53 374h298z" />
    <glyph glyph-name="lira" unicode="&#x20a4;" horiz-adv-x="493" 
d="M428 520q-44 17 -99.5 17t-78.5 -25.5t-28 -83.5h174l-30 -69h-147l-4 -52h139l-30 -69h-119q-14 -47 -39 -68q19 -3 62 -18t80 -15t87 32l21 -60q-56 -48 -122 -48q-42 0 -97 19.5t-85 19.5t-69 -27l-29 53q11 10 40.5 26.5t46.5 35.5t23 50h-83l18 60l72 9l3 52h-85
l18 60l70 8q0 7 2 23q19 166 185 166q42 0 64 -6.5t27 -7.5t25.5 -10.5t21.5 -9.5z" />
    <glyph glyph-name="peseta" unicode="&#x20a7;" horiz-adv-x="698" 
d="M280 610q76 0 110.5 -35t34.5 -90q0 -6 -1 -9l58 6l15 79l90 25l-15 -104h109l-23 -76h-97q-5 -35 -14 -91q-19 -118 -19 -137q0 -40 38 -40q23 0 53 10l16 -61q-50 -26 -108 -26q-91 0 -91 101q0 20 15 111.5t20 132.5h-61q-22 -61 -76 -101.5t-146 -40.5h-42l-27 -197
h-87l76 543h172zM220 344q53 0 82.5 34.5t29.5 97.5q0 60 -72 60h-75l-27 -192h62z" />
    <glyph glyph-name="dong" unicode="&#x20ab;" horiz-adv-x="460" 
d="M338 168q0 -30 30 -63l-42 -48q-37 22 -52 56h-4q-57 -52 -122.5 -52t-92.5 41.5t-27 95.5t12.5 98t37 82.5t66 62t90 23.5t69.5 -19l4 2l-4 25l9 54h-141l20 60h132l12 67l76 13l-12 -80l68 -9l-10 -51h-67q-52 -350 -52 -358zM39 4h320l-10 -58h-320zM125 151.5
q13 -22.5 42.5 -22.5t54.5 13.5t40 29.5l28 208q-23 17 -60.5 17t-60.5 -17.5t-35 -45.5q-22 -53 -22 -106.5t13 -76z" />
    <glyph glyph-name="Euro" unicode="&#x20ac;" horiz-adv-x="492" 
d="M459 509q-61 27 -115.5 27t-89 -26t-49.5 -85h182l-24 -63h-167q-3 -27 -3 -58h148l-24 -62h-121q7 -54 34 -77t88 -23t115 29l21 -59q-63 -51 -154 -51q-176 0 -200 181h-84l14 56l67 5q0 31 3 59h-69l14 57l67 6q23 88 79.5 139.5t146.5 51.5t150 -42z" />
    <glyph glyph-name="trademark" unicode="&#x2122;" horiz-adv-x="636" 
d="M167 653v-269h-55v269h-87l4 47h220l-4 -47h-78zM522 384v76l4 200h-7l-10 -44l-58 -191l-53 -4l-69 239h-6l5 -44v-232h-53l11 316h74l52 -164l12 -54h4l10 54l52 164h76l10 -316h-54z" />
    <glyph glyph-name="minus" unicode="&#x2212;" horiz-adv-x="510" 
d="M86 304h350l-12 -70h-350z" />
    <glyph glyph-name="radical" unicode="&#x221a;" horiz-adv-x="574" 
d="M502 828l73 -16l-205 -931l-70 -12l-119 367h-118l12 75h159l74 -225l15 -61h7l9 62z" />
    <glyph glyph-name="approxequal" unicode="&#x2248;" horiz-adv-x="551" 
d="M468.5 329.5q-37.5 -24.5 -77 -24.5t-121 40t-130.5 40t-100 -56l-22 59q18 25 55.5 49.5t77 24.5t121 -40t130.5 -40t100 56l22 -59q-18 -25 -55.5 -49.5zM468.5 119.5q-37.5 -24.5 -77 -24.5t-121 40t-129.5 40t-99 -56l-24 55q18 25 55.5 49.5t77 24.5t121 -40
t129.5 -40t99 56l24 -55q-18 -25 -55.5 -49.5z" />
    <glyph glyph-name="notequal" unicode="&#x2260;" horiz-adv-x="538" 
d="M365 651l-42 -233h175l-10 -75h-178l-19 -105h207l-10 -75h-210l-43 -242l-69 13l41 229h-167l10 75h170l19 105h-199l10 75h202l44 246z" />
    <glyph glyph-name="lessequal" unicode="&#x2264;" horiz-adv-x="552" 
d="M421 675l53 -55l-309 -188l310 -160l-52 -56l-344 178l-12 62zM497 138l-11 -70h-430l11 70h430z" />
    <glyph glyph-name="greaterequal" unicode="&#x2265;" horiz-adv-x="552" 
d="M121 675l354 -219l-12 -62l-344 -178l-52 56l310 160l-309 188zM497 138l-11 -70h-430l11 70h430z" />
    <glyph glyph-name="lozenge" unicode="&#x25ca;" horiz-adv-x="671" 
d="M376 678l239 -333l-238 -336l-86 -9l-238 345l237 324zM334 596l-181 -252l181 -262l181 262z" />
    <glyph glyph-name="fi" unicode="&#xfb01;" horiz-adv-x="502" 
d="M415 667q-56 15 -109.5 15t-87 -24.5t-33.5 -87.5v-45h169l90 5v-530h-90v449h-169v-449h-90v449h-77l10 70l67 6v47q0 189 200 189q79 0 137 -28z" />
    <glyph glyph-name="fl" unicode="&#xfb02;" horiz-adv-x="535" 
d="M459 163q0 -48 6.5 -71.5t31.5 -51.5l-64 -52q-27 29 -37 43q-27 38 -27 125v521q-28 5 -55 5q-62 0 -95.5 -24.5t-33.5 -87.5v-45h125l-12 -76h-113v-449h-90v449h-77l10 70l67 6v47q0 188 195 188q35 0 66 -6t37 -7l66 8v-592z" />
  </font>
</defs>
</svg>
