<svg width="18" height="18" viewBox="0 0 18 18" fill="none" xmlns="http://www.w3.org/2000/svg">
<path d="M13.168 3.99999H17.3346V5.66666H15.668V16.5C15.668 16.721 15.5802 16.933 15.4239 17.0892C15.2676 17.2455 15.0556 17.3333 14.8346 17.3333H3.16797C2.94696 17.3333 2.73499 17.2455 2.57871 17.0892C2.42243 16.933 2.33464 16.721 2.33464 16.5V5.66666H0.667969V3.99999H4.83464V1.49999C4.83464 1.27898 4.92243 1.06701 5.07871 0.910734C5.23499 0.754454 5.44696 0.666656 5.66797 0.666656H12.3346C12.5556 0.666656 12.7676 0.754454 12.9239 0.910734C13.0802 1.06701 13.168 1.27898 13.168 1.49999V3.99999ZM14.0013 5.66666H4.0013V15.6667H14.0013V5.66666ZM6.5013 2.33332V3.99999H11.5013V2.33332H6.5013Z" fill="#9D9D9D"/>
</svg>
