<svg width="44" height="44" viewBox="0 0 44 44" fill="none" xmlns="http://www.w3.org/2000/svg">
<g clip-path="url(#clip0)">
<path d="M43.9989 35.7057C43.9963 32.5894 42.0585 29.9207 39.3278 28.8359L36.948 15.4454C37.944 14.6578 38.585 13.44 38.585 12.0746C38.585 9.70533 36.6574 7.7778 34.2882 7.7778H32.4609H29.9914V9.21008H25.2793V11.7881H29.9914V16.3713V29.2616H24.1467H24.1449C23.5732 29.2616 23.035 29.0384 22.6299 28.633C22.2237 28.2267 21.9998 27.6866 21.9994 27.1132V23.0244C23.4997 22.4923 24.5774 21.0595 24.5774 19.3791C24.5774 17.2468 22.8426 15.512 20.7103 15.512H15.812V2.27794H2.44431e-06V18.09H3.31539C3.1723 18.4935 3.09367 18.9272 3.09367 19.3791C3.09367 20.1955 3.34864 20.9531 3.78219 21.5779C1.5275 22.8256 -0.00223187 25.2291 2.44431e-06 27.9827V36.9958H4.0082C4.60089 39.6957 7.0076 41.7223 9.8787 41.7223H9.88359C11.4902 41.721 13.0006 41.0947 14.1368 39.9589C14.9629 39.1331 15.5173 38.1095 15.7592 36.9958H29.219H30.7341C31.3271 39.6957 33.7355 41.7223 36.6084 41.7223H36.6134C39.4871 41.7198 41.8936 39.6931 42.4839 36.9958H43.9999L43.9989 35.7057ZM32.5695 10.3558H34.2882C35.2359 10.3558 36.0069 11.1268 36.0069 12.0745C36.0069 13.0222 35.2359 13.7932 34.2882 13.7932H32.5695V10.3558ZM32.5695 16.3712H34.2882C34.3569 16.3712 34.4252 16.3693 34.4931 16.366L36.617 28.3163L36.6135 28.3162H36.6073C35.3203 28.3172 34.0844 28.6468 32.9924 29.2615H32.5695V16.3712ZM20.7104 18.09C21.4212 18.09 21.9994 18.6682 21.9994 19.379C21.9994 20.0898 21.4212 20.668 20.7104 20.668H7.30347C7.18858 20.6681 7.07445 20.6716 6.96076 20.6769V20.668C6.24999 20.668 5.67173 20.0898 5.67173 19.379C5.67173 18.6682 6.24999 18.09 6.96076 18.09H15.8121H20.7104ZM2.57806 15.5119V4.85591H6.61702H9.19508H13.234V15.5119H6.96076H2.57806ZM12.3142 38.1357C11.6643 38.7852 10.8004 39.1434 9.88153 39.1442H9.87878C8.44194 39.1442 7.20877 38.2544 6.69763 36.9958H13.071C12.9005 37.4171 12.6457 37.8042 12.3142 38.1357ZM14.609 34.4177H5.15612V33.1276C5.1544 30.9976 6.88961 29.2634 9.02321 29.2615H10.7429H10.7462C11.7768 29.2615 12.746 29.6633 13.4752 30.3931C14.2055 31.1238 14.6081 32.0957 14.6089 33.1286L14.609 34.4177ZM29.331 34.4177H17.1871V33.1276C17.1857 31.4061 16.5151 29.7877 15.2987 28.5706C14.0824 27.3535 12.4659 26.6835 10.7473 26.6835H10.7419H9.02218C5.466 26.6864 2.57523 29.5782 2.57806 33.1286V27.9816C2.576 25.3725 4.69671 23.2481 7.3045 23.2461H19.4214V27.1142C19.4224 28.3762 19.9143 29.5628 20.8066 30.4554C21.6988 31.3481 22.8842 31.8396 24.1439 31.8396H24.1478H30.3091C29.8221 32.6288 29.4913 33.5008 29.331 34.4177ZM36.6114 39.1441H36.6085C35.1701 39.1441 33.9355 38.2543 33.4238 36.9957H39.7951C39.2851 38.253 38.0509 39.143 36.6114 39.1441ZM33.257 34.4177H31.9691C32.1875 33.6273 32.6081 32.9024 33.2046 32.306C34.1143 31.3966 35.3235 30.8953 36.6096 30.8942H36.6135C38.8167 30.8942 40.6792 32.3875 41.2447 34.4177H33.257Z" fill="#9D9D9D"/>
</g>
<defs>
<clipPath id="clip0">
<rect width="44" height="44" fill="white"/>
</clipPath>
</defs>
</svg>
