<svg width="24" height="24" viewBox="0 0 24 24" fill="none" xmlns="http://www.w3.org/2000/svg">
<path d="M20 11.1818C20 17.5455 12 23 12 23C12 23 4 17.5455 4 11.1818C4 9.01187 4.84285 6.93079 6.34315 5.3964C7.84344 3.86201 9.87827 3 12 3C14.1217 3 16.1566 3.86201 17.6569 5.3964C19.1571 6.93079 20 9.01187 20 11.1818Z" stroke="#fff" stroke-width="2" stroke-linecap="round" stroke-linejoin="round"/>
<path d="M12 14C13.6569 14 15 12.6569 15 11C15 9.34315 13.6569 8 12 8C10.3431 8 9 9.34315 9 11C9 12.6569 10.3431 14 12 14Z" stroke="#fff" stroke-width="2" stroke-linecap="round" stroke-linejoin="round"/>
</svg>
