<svg width="53" height="32" viewBox="0 0 53 32" fill="none" xmlns="http://www.w3.org/2000/svg">
<g clip-path="url(#clip0)">
<path d="M53.0042 15.9518C53.0042 24.7693 45.6721 31.917 36.6269 31.917C32.8062 31.917 29.2906 30.6411 26.5039 28.5035C30.3142 25.5803 32.7603 21.0442 32.7603 15.9518C32.7603 10.8595 30.3142 6.32339 26.5039 3.40014C29.2906 1.26252 32.8062 -0.0133529 36.6269 -0.0133529C45.6721 -0.0133529 53.0042 7.13438 53.0042 15.9518Z" fill="#F79E1B"/>
<path d="M20.2634 15.9518C20.2634 10.8595 22.7095 6.32339 26.5188 3.40014C23.7332 1.26252 20.2176 -0.0133529 16.3969 -0.0133529C7.35168 -0.0133529 0.0195312 7.13438 0.0195312 15.9518C0.0195312 24.7693 7.35168 31.917 16.3969 31.917C20.2176 31.917 23.7332 30.6411 26.5188 28.5035C22.7095 25.5803 20.2634 21.0442 20.2634 15.9518Z" fill="#EB001B"/>
<path d="M52.5048 25.842V25.2229H52.3392L52.1476 25.6482L51.957 25.2229H51.7904V25.842H51.9081V25.3751L52.0872 25.7781H52.209L52.3882 25.3741V25.842H52.5048ZM51.4541 25.842V25.3284H51.6665V25.2239H51.125V25.3284H51.3374V25.842H51.4541Z" fill="#F79410"/>
<path d="M33.6783 28.5054H19.3477V3.4021H33.6783V28.5054Z" fill="#FF5F00"/>
</g>
<defs>
<clipPath id="clip0">
<rect width="53" height="32" fill="white"/>
</clipPath>
</defs>
</svg>
