<svg width="20" height="20" viewBox="0 0 20 20" fill="none" xmlns="http://www.w3.org/2000/svg">
<path d="M19.4289 2.73418C19.1347 2.43945 18.6573 2.43894 18.3631 2.73293L9.32038 11.7518L6.0578 8.20828C5.77589 7.90227 5.29925 7.88242 4.99272 8.1643C4.68644 8.44621 4.66683 8.92309 4.94874 9.22937L8.74273 13.3497C8.88167 13.5007 9.07612 13.5884 9.28116 13.5927C9.28667 13.5929 9.29198 13.5929 9.29726 13.5929C9.49651 13.5929 9.6882 13.5138 9.82941 13.3731L19.4274 3.80023C19.7224 3.50629 19.7229 3.02891 19.4289 2.73418Z" fill="#FFBC0D"/>
<path d="M19.2462 9.24621C18.8299 9.24621 18.4925 9.58363 18.4925 10C18.4925 14.6829 14.6829 18.4925 10 18.4925C5.31734 18.4925 1.50754 14.6829 1.50754 10C1.50754 5.31734 5.31734 1.50754 10 1.50754C10.4163 1.50754 10.7538 1.17012 10.7538 0.753789C10.7538 0.337422 10.4163 0 10 0C4.48594 0 0 4.48594 0 10C0 15.5138 4.48594 20 10 20C15.5138 20 20 15.5138 20 10C20 9.58367 19.6626 9.24621 19.2462 9.24621Z" fill="#FFBC0D"/>
</svg>
