<svg width="39" height="39" viewBox="0 0 39 39" fill="none" xmlns="http://www.w3.org/2000/svg">
<path d="M23.4408 35.522C23.1192 35.6022 22.7913 35.6733 22.4658 35.7333C21.6151 35.8915 21.0526 36.7097 21.21 37.5612C21.2877 37.9801 21.5256 38.3291 21.8486 38.5568C22.1816 38.7912 22.6053 38.897 23.037 38.8167C23.4246 38.7447 23.8152 38.6601 24.1985 38.5645C25.0386 38.3554 25.5504 37.5043 25.3408 36.6646C25.1317 35.8241 24.2814 35.3128 23.4408 35.522Z" fill="#9D9D9D"/>
<path d="M28.5327 33.2836C28.2561 33.4662 27.9706 33.6429 27.6831 33.8085C26.9328 34.2412 26.6759 35.2002 27.1085 35.9501C27.2259 36.1541 27.3824 36.3208 27.5625 36.4482C28.0462 36.7885 28.703 36.8395 29.2499 36.5245C29.5918 36.3273 29.9317 36.1175 30.2611 35.8997C30.9832 35.4226 31.182 34.4499 30.7047 33.7274C30.2274 33.0046 29.2551 32.8061 28.5327 33.2836Z" fill="#9D9D9D"/>
<path d="M34.7783 29.1591C34.0844 28.6385 33.1027 28.7798 32.583 29.4725C32.384 29.7377 32.1744 29.9997 31.9598 30.252C31.3989 30.9109 31.4781 31.9007 32.1371 32.462C32.1746 32.4938 32.2126 32.5231 32.252 32.5506C32.9071 33.0124 33.8175 32.9063 34.3472 32.2847C34.6035 31.9838 34.8533 31.6708 35.0912 31.354C35.6109 30.6614 35.4703 29.679 34.7783 29.1591Z" fill="#9D9D9D"/>
<path d="M37.0829 23.4916C36.2567 23.2326 35.3769 23.6925 35.118 24.5187C35.0189 24.8343 34.9091 25.1515 34.7906 25.4621C34.5303 26.1458 34.7797 26.8982 35.3514 27.3013C35.4563 27.375 35.5718 27.4375 35.6973 27.4849C36.5062 27.7936 37.4121 27.3878 37.7204 26.5785C37.8612 26.2092 37.9918 25.8319 38.1099 25.4566C38.3685 24.6303 37.909 23.7507 37.0829 23.4916Z" fill="#9D9D9D"/>
<path d="M38.9859 18.8862C38.9518 18.0209 38.223 17.3474 37.3574 17.3811C36.4929 17.4153 35.8188 18.1444 35.8528 19.0094C35.8658 19.3401 35.8691 19.6758 35.8615 20.0062C35.8494 20.5488 36.1148 21.0326 36.5272 21.3233C36.773 21.4964 37.0712 21.6011 37.3945 21.6084C38.2599 21.6276 38.977 20.9413 38.9962 20.0755C39.0048 19.6807 39.0015 19.2808 38.9859 18.8862Z" fill="#9D9D9D"/>
<path d="M35.0331 14.5074C35.143 14.8383 35.3526 15.1085 35.6175 15.2952C36.0101 15.5718 36.524 15.6649 37.0143 15.5027C37.8364 15.2298 38.2818 14.3433 38.0098 13.5216C37.8859 13.1471 37.7485 12.7713 37.602 12.4055C37.2804 11.6015 36.3684 11.2101 35.5641 11.5316C34.7605 11.8531 34.3689 12.7653 34.6907 13.5695C34.8138 13.877 34.9291 14.1926 35.0331 14.5074Z" fill="#9D9D9D"/>
<path d="M16.5992 35.7474C15.1975 35.4957 13.8528 35.0671 12.5778 34.4694C12.5627 34.4615 12.5492 34.4525 12.5334 34.4453C12.2329 34.3039 11.9329 34.1524 11.6422 33.9941C11.6412 33.993 11.6394 33.9922 11.6378 33.9915C11.1043 33.6978 10.5837 33.3727 10.0779 33.0167C2.70281 27.8214 0.929529 17.5946 6.12511 10.2196C7.25487 8.61646 8.62205 7.27905 10.1463 6.21904C10.165 6.20596 10.1838 6.19296 10.2024 6.1798C15.5735 2.47899 22.8665 2.22958 28.5697 6.0325L27.3448 7.80234C27.0043 8.29496 27.2138 8.65394 27.8099 8.60028L33.1307 8.12393C33.7276 8.07028 34.0846 7.55394 33.924 6.97749L32.4952 1.82952C32.3353 1.2524 31.9257 1.18332 31.5849 1.67585L30.3571 3.44989C26.1717 0.640326 21.1518 -0.431001 16.1692 0.433002C15.6674 0.519855 15.1726 0.626158 14.6846 0.749898C14.6808 0.750569 14.6778 0.750988 14.6748 0.751658C14.6559 0.756269 14.6368 0.762389 14.6184 0.767503C10.3219 1.87085 6.57321 4.37676 3.89829 7.95216C3.87574 7.9789 3.85252 8.00506 3.83122 8.03415C3.74228 8.15395 3.654 8.27651 3.56756 8.39908C3.42622 8.59995 3.28688 8.80585 3.15359 9.01175C3.1369 9.03656 3.12416 9.06179 3.10957 9.08686C0.9022 12.5074 -0.162504 16.4619 0.0200886 20.4878C0.0205078 20.5011 0.0197532 20.5144 0.0200886 20.528C0.0377778 20.9212 0.0689643 21.32 0.111301 21.7125C0.113565 21.7378 0.119181 21.7618 0.123457 21.7871C0.167219 22.1818 0.222131 22.5774 0.290959 22.9729C0.990478 27.0086 2.8942 30.6401 5.74685 33.4657C5.75347 33.4723 5.76035 33.4796 5.76706 33.4864C5.7694 33.489 5.772 33.4904 5.77427 33.4928C6.54068 34.2487 7.37434 34.9479 8.27196 35.5801C10.621 37.2354 13.2367 38.3295 16.0459 38.8336C16.8982 38.9868 17.7124 38.4194 17.8654 37.5674C18.0182 36.7149 17.4513 35.9 16.5992 35.7474Z" fill="#9D9D9D"/>
<path d="M18.5385 6.9749C17.8374 6.9749 17.2695 7.5433 17.2695 8.24341V20.8813L28.8279 26.8563C29.0139 26.9526 29.2131 26.998 29.4091 26.998C29.8682 26.998 30.3116 26.748 30.537 26.3118C30.8585 25.6892 30.6152 24.9244 29.9927 24.6029L19.8061 19.3365V8.24341C19.806 7.5433 19.2388 6.9749 18.5385 6.9749Z" fill="#9D9D9D"/>
</svg>
