<svg width="24" height="14" viewBox="0 0 24 14" fill="none" xmlns="http://www.w3.org/2000/svg">
<path d="M19.915 8.02794C19.527 7.53794 19.638 7.31994 19.915 6.88194C19.92 6.87694 23.123 2.45094 23.453 0.949939L23.455 0.948939C23.619 0.401939 23.455 -6.10352e-05 22.662 -6.10352e-05H20.038C19.37 -6.10352e-05 19.062 0.344939 18.897 0.730939C18.897 0.730939 17.561 3.92894 15.671 6.00194C15.061 6.60094 14.779 6.79294 14.446 6.79294C14.282 6.79294 14.027 6.60094 14.027 6.05394V0.948939C14.027 0.292939 13.84 -6.10352e-05 13.287 -6.10352e-05H9.161C8.742 -6.10352e-05 8.493 0.305939 8.493 0.590939C8.493 1.21294 9.438 1.35594 9.536 3.10594V6.90294C9.536 7.73494 9.385 7.88794 9.05 7.88794C8.158 7.88794 5.993 4.67694 4.71 1.00194C4.451 0.288939 4.198 0.000938892 3.525 0.000938892H0.9C0.151 0.000938892 0 0.345939 0 0.731939C0 1.41394 0.892 4.80494 4.148 9.28494C6.318 12.3429 9.374 13.9999 12.154 13.9999C13.825 13.9999 14.029 13.6319 14.029 12.9989C14.029 10.0769 13.878 9.80094 14.715 9.80094C15.103 9.80094 15.771 9.99294 17.331 11.4679C19.114 13.2169 19.407 13.9999 20.405 13.9999H23.029C23.777 13.9999 24.156 13.6319 23.938 12.9059C23.439 11.3789 20.067 8.23794 19.915 8.02794Z" fill="#2B2B2B"/>
</svg>
