<svg width="72" height="23" viewBox="0 0 72 23" fill="none" xmlns="http://www.w3.org/2000/svg">
<g clip-path="url(#clip0)">
<path d="M60.0942 14.7806C60.5745 13.5015 62.4228 8.55116 62.4228 8.55116C62.3985 8.5987 62.9021 7.24848 63.1901 6.41958L63.5977 8.33804C63.5977 8.33804 64.7022 13.6675 64.9421 14.7806C64.0305 14.7806 61.2462 14.7806 60.0942 14.7806ZM67.2936 0.403564H62.7822C61.391 0.403564 60.334 0.805892 59.7337 2.25087L51.0703 22.6679H57.1902C57.1902 22.6679 58.1977 19.9199 58.4143 19.3281C59.0857 19.3281 65.039 19.3281 65.9027 19.3281C66.0702 20.1097 66.5987 22.6679 66.5987 22.6679H71.999L67.2936 0.403564Z" fill="#00579F"/>
<path d="M31.1997 22.6682H25.3672L29.0153 0.403564H34.8474L31.1997 22.6682Z" fill="#00579F"/>
<path d="M20.4976 0.403564L14.7857 15.5859L14.1615 12.5067C13.1055 8.9538 9.79357 5.0936 6.09766 3.17421L11.3296 22.6446H17.4973L26.665 0.403564H20.4976Z" fill="#00579F"/>
<path d="M9.47993 0.403564H0.0960013L0 0.853427C7.32005 2.70105 12.168 7.15466 14.1598 12.5077L12.1198 2.27511C11.784 0.853113 10.7519 0.450471 9.47993 0.403564Z" fill="#FAA61A"/>
<path d="M52.3436 0.947893C51.1932 0.4974 49.3685 0 47.1123 0C41.3525 0 37.2965 3.03162 37.2716 7.36592C37.2238 10.5638 40.1756 12.3399 42.3833 13.4062C44.6398 14.4957 45.4069 15.2069 45.4069 16.1781C45.3839 17.6696 43.5835 18.3572 41.9043 18.3572C39.5757 18.3572 38.328 18.0027 36.4318 17.1729L35.6638 16.8171L34.8477 21.8151C36.2156 22.4302 38.7359 22.9761 41.3525 23C47.4724 23 51.4566 20.0153 51.5038 15.3964C51.5271 12.8619 49.9684 10.9198 46.608 9.33285C44.5681 8.31413 43.3188 7.62721 43.3188 6.58488C43.3427 5.6373 44.3754 4.66674 46.6782 4.66674C48.5743 4.6192 49.9675 5.06907 51.0228 5.51924L51.5504 5.75567L52.3436 0.947893Z" fill="#00579F"/>
</g>
<defs>
<clipPath id="clip0">
<rect width="72" height="23" fill="white"/>
</clipPath>
</defs>
</svg>
