<?xml version="1.0" standalone="no"?>
<!DOCTYPE svg PUBLIC "-//W3C//DTD SVG 1.1//EN" "http://www.w3.org/Graphics/SVG/1.1/DTD/svg11.dtd" >
<svg xmlns="http://www.w3.org/2000/svg" xmlns:xlink="http://www.w3.org/1999/xlink" version="1.1">
<metadata>
Created by FontForge 20170731 at Sat Jul 25 12:18:27 2020
 By Aleksey,,,
Copyright (c) 2017 by Stefano Giliberti (brumale). All rights reserved.
</metadata>
<defs>
<font id="Anodina-Regular" horiz-adv-x="1175" >
  <font-face 
    font-family="Anodina"
    font-weight="400"
    font-stretch="normal"
    units-per-em="2048"
    panose-1="0 0 5 0 0 0 0 0 0 0"
    ascent="1638"
    descent="-410"
    x-height="1071"
    cap-height="1434"
    bbox="-70 -598 2032 2193"
    underline-thickness="102"
    underline-position="-307"
    unicode-range="U+0020-25CA"
  />
<missing-glyph horiz-adv-x="1433" 
 />
    <glyph glyph-name=".notdef" horiz-adv-x="1433" 
 />
    <glyph glyph-name=".null" horiz-adv-x="0" 
 />
    <glyph glyph-name="nonmarkingreturn" horiz-adv-x="682" 
 />
    <glyph glyph-name="space" unicode=" " horiz-adv-x="532" 
 />
    <glyph glyph-name="exclam" unicode="!" horiz-adv-x="491" 
d="M328 444h-164v990h164v-990zM246 205q43 0 72.5 -30t29.5 -73t-29.5 -72.5t-72.5 -29.5t-73 29.5t-30 72.5t30 73t73 30z" />
    <glyph glyph-name="quotedbl" unicode="&#x22;" horiz-adv-x="757" 
d="M307 979h-164v455h164v-455zM614 979h-163v455h163v-455z" />
    <glyph glyph-name="numbersign" unicode="#" horiz-adv-x="1466" 
d="M1042 1026h281v-164h-281v-291h281v-163h-281v-408h-163v408h-291v-408h-164v408h-281v163h281v291h-281v164h281v408h164v-408h291v408h163v-408zM588 862v-291h291v291h-291z" />
    <glyph glyph-name="dollar" unicode="$" horiz-adv-x="1177" 
d="M672 1630v-196q132 -15 223 -84q124 -91 139 -258l-162 -19q-9 100 -75 148q-47 38 -125 47v-473q148 -18 241 -99q121 -109 121 -299t-121 -299q-92 -80 -241 -98v-197h-164v197q-139 15 -225 84q-121 90 -140 258l164 18q9 -97 74 -147q48 -37 127 -49v475
q-150 18 -242 98q-123 111 -123 299t123 299q93 81 242 99v196h164zM508 805v463q-85 -12 -135 -56q-66 -60 -66 -176t66 -176q53 -43 135 -55zM672 629v-463q80 12 133 55q67 58 67 176t-67 176q-50 41 -133 56z" />
    <glyph glyph-name="percent" unicode="%" horiz-adv-x="1540" 
d="M408 1434q127 0 196 -91q66 -78 66 -219q0 -138 -66 -219q-69 -88 -196 -88q-126 0 -199 88q-66 84 -66 219q0 138 66 219q72 91 199 91zM358 0h-200l1024 1434h200zM408 1270q-45 0 -72 -27q-29 -40 -29 -119q0 -76 29 -116q27 -27 72 -27q42 0 69 27q29 40 29 116
q0 79 -29 119q-27 27 -69 27zM1133 618q124 0 198 -90q66 -84 66 -219q0 -138 -66 -219q-72 -90 -198 -90q-127 0 -199 90q-66 81 -66 219q0 135 66 219q74 90 199 90zM1133 455q-51 0 -70 -29q-31 -39 -31 -117q0 -80 31 -116q19 -29 70 -29q50 0 69 29q31 36 31 116
q0 78 -31 117q-19 29 -69 29z" />
    <glyph glyph-name="ampersand" unicode="&#x26;" horiz-adv-x="1439" 
d="M647 1434q73 0 139.5 -30t108.5 -83q87 -105 59 -256q-27 -143 -153 -238q-34 -25 -82 -51q56 -65 176 -199.5t135 -150.5q78 146 78 291h164q0 -105 -32.5 -214t-92.5 -204l149 -162l-120 -110l-134 143q-170 -170 -395 -170q-126 0 -238 52.5t-182 146.5
q-57 79 -75 166q-19 98 8 192q15 55 45 100t72.5 78.5t83 56t94.5 46.5l-11 10q-90 119 -110 223q-23 109 20 193q40 82 123.5 126t169.5 44zM647 1270q-43 0 -85 -21t-60 -57q-45 -92 73 -244l35 -43q54 25 95 53q74 59 88 138q15 75 -25 121q-43 53 -121 53zM563 707
q-108 -45 -168 -86.5t-78 -106.5q-34 -112 41 -217q46 -58 121 -96q75 -37 168 -37q102 0 187 49q47 27 98 78q-311 347 -369 416z" />
    <glyph glyph-name="quotesingle" unicode="'" horiz-adv-x="450" 
d="M307 979h-164v455h164v-455z" />
    <glyph glyph-name="parenleft" unicode="(" horiz-adv-x="616" 
d="M381 1571l92 -137q-166 -111 -166 -385v-725q0 -277 166 -394l-92 -135q-238 162 -238 529v725q0 360 238 522z" />
    <glyph glyph-name="parenright" unicode=")" horiz-adv-x="616" 
d="M143 1434l93 137q237 -161 237 -522v-725q0 -368 -237 -529l-93 135q166 117 166 394v725q0 274 -166 385z" />
    <glyph glyph-name="asterisk" unicode="*" horiz-adv-x="811" 
d="M457 1249l159 92l52 -88l-160 -92l160 -92l-52 -88l-159 92v-184h-103v184l-159 -92l-52 88l160 92l-160 92l52 88l159 -92v185h103v-185z" />
    <glyph glyph-name="plus" unicode="+" horiz-adv-x="1193" 
d="M680 618h371v-163h-371v-373h-164v373h-373v163h373v371h164v-371z" />
    <glyph glyph-name="comma" unicode="," horiz-adv-x="473" 
d="M166 164h164q0 -360 -238 -522l-92 135q166 114 166 387z" />
    <glyph glyph-name="hyphen" unicode="-" horiz-adv-x="921" 
d="M778 455h-635v163h635v-163z" />
    <glyph glyph-name="period" unicode="." horiz-adv-x="491" 
d="M246 205q43 0 72.5 -30t29.5 -73t-29.5 -72.5t-72.5 -29.5t-73 29.5t-30 72.5t30 73t73 30z" />
    <glyph glyph-name="slash" unicode="/" horiz-adv-x="968" 
d="M373 -190h-170l454 1814h168z" />
    <glyph glyph-name="zero" unicode="0" 
d="M588 1434q211 0 330 -134q114 -129 114 -356v-455q0 -227 -114 -356q-121 -133 -330 -133t-330 133q-115 130 -115 356v455q0 226 115 356q119 134 330 134zM588 1270q-138 0 -207 -78q-74 -83 -74 -248v-455q0 -164 74 -247q69 -78 207 -78t207 78q73 82 73 247v455
q0 166 -73 248q-69 78 -207 78z" />
    <glyph glyph-name="one" unicode="1" horiz-adv-x="788" 
d="M645 0h-164v1155l-221 -223l-117 115l387 387h115v-1434z" />
    <glyph glyph-name="two" unicode="2" 
d="M573 1434h15q205 0 323 -103q121 -106 121 -297q0 -209 -117.5 -326.5t-326.5 -117.5q-138 0 -207 -78q-74 -83 -74 -248v-100h725v-164h-889v264q0 227 115 357q121 133 330 133q142 0 211 69t69 211q0 118 -65 174q-71 62 -215 62h-15q-114 0 -180 -51
q-63 -52 -88 -156l-160 35q39 164 148 248q110 88 280 88z" />
    <glyph glyph-name="three" unicode="3" horiz-adv-x="1161" 
d="M573 1434q204 0 322 -103q123 -108 123 -297t-123 -297q-25 -19 -27 -20q15 -9 27 -21q123 -108 123 -297t-123 -297q-117 -102 -322 -102q-172 0 -282 88q-109 84 -148 248l160 37q25 -108 90 -156q65 -53 180 -53q146 0 213 61q68 59 68 174t-68 174q-68 62 -213 62
h-92v164h92q143 0 213 61q68 59 68 174t-68 174q-68 62 -213 62q-117 0 -180 -51q-65 -51 -90 -156l-160 35q39 164 148 248q110 88 282 88z" />
    <glyph glyph-name="four" unicode="4" horiz-adv-x="1130" 
d="M307 436h516v273h164v-709h-164v272h-680v199l439 963h178z" />
    <glyph glyph-name="five" unicode="5" 
d="M950 1270h-643v-381h244q221 0 348 -115q133 -115 133 -330q0 -209 -117.5 -326.5t-326.5 -117.5h-15q-170 0 -280 88q-109 84 -148 248l160 37q25 -107 88 -156q68 -53 180 -53h15q139 0 211 69q69 69 69 211q0 141 -77 209q-84 72 -248 72h-400v709h807v-164z" />
    <glyph glyph-name="six" unicode="6" 
d="M588 1434h14q171 0 281 -88q111 -83 147 -248l-160 -35q-21 101 -88 156q-66 51 -180 51h-14q-138 0 -207 -78q-74 -83 -74 -248v-133q110 78 281 78q209 0 326.5 -118t117.5 -327t-117.5 -326.5t-326.5 -117.5t-330 133q-115 130 -115 356v455q0 226 115 356
q119 134 330 134zM588 725q-141 0 -211 -70q-64 -64 -70 -188q6 -148 74 -225q69 -78 207 -78q139 0 211 69q69 69 69 211t-69 211q-70 70 -211 70z" />
    <glyph glyph-name="seven" unicode="7" horiz-adv-x="1097" 
d="M954 1237l-530 -1237h-178l545 1270h-648v164h811v-197z" />
    <glyph glyph-name="eight" unicode="8" 
d="M588 1434q205 0 323 -103q121 -106 121 -297t-121 -297l-24 -20l24 -21q121 -106 121 -297t-121 -297q-117 -102 -323 -102q-205 0 -322 102q-123 108 -123 297t123 297l25 21l-25 20q-123 108 -123 297t123 297q118 103 322 103zM588 1270q-144 0 -215 -62
q-66 -60 -66 -174t66 -174q74 -61 215 -61t215 61q65 56 65 174t-65 174q-71 62 -215 62zM588 635q-144 0 -215 -62q-66 -60 -66 -174t66 -174q70 -61 215 -61t215 61q65 56 65 174t-65 174q-71 62 -215 62z" />
    <glyph glyph-name="nine" unicode="9" 
d="M588 0h-15q-170 0 -280 88q-112 84 -148 248l160 35q21 -101 88 -156q66 -51 180 -51h15q138 0 207 78q73 82 73 247v134q-110 -78 -280 -78q-209 0 -327 117.5t-118 326.5t118 327t327 118q208 0 330 -134q114 -129 114 -356v-455q0 -227 -114 -356q-118 -133 -330 -133
zM588 709q142 0 211 69q63 63 69 189q-6 149 -73 225q-69 78 -207 78t-211 -70q-70 -70 -70 -211t70 -211q69 -69 211 -69z" />
    <glyph glyph-name="colon" unicode=":" horiz-adv-x="491" 
d="M246 819q43 0 72.5 -29.5t29.5 -72.5t-29.5 -73t-72.5 -30t-73 30t-30 73t30 72.5t73 29.5zM246 205q43 0 72.5 -30t29.5 -73t-29.5 -72.5t-72.5 -29.5t-73 29.5t-30 72.5t30 73t73 30z" />
    <glyph glyph-name="semicolon" unicode=";" horiz-adv-x="493" 
d="M248 819q43 0 72.5 -29.5t29.5 -72.5t-29.5 -73t-72.5 -30t-73 30t-30 73t30 72.5t73 29.5zM166 164h164q0 -360 -238 -522l-92 135q166 114 166 387z" />
    <glyph glyph-name="less" unicode="&#x3c;" horiz-adv-x="1062" 
d="M920 889l-494 -352l494 -355v-200l-777 555l777 553v-201z" />
    <glyph glyph-name="equal" unicode="=" horiz-adv-x="1193" 
d="M1051 635h-908v164h908v-164zM1051 272h-908v164h908v-164z" />
    <glyph glyph-name="greater" unicode="&#x3e;" horiz-adv-x="1062" 
d="M920 537l-777 -555v200l494 355l-494 352v201z" />
    <glyph glyph-name="question" unicode="?" horiz-adv-x="1085" 
d="M543 1434q169 0 284 -115t115 -285q0 -58 -12.5 -110t-29.5 -87.5t-47 -73.5t-50.5 -58.5t-54.5 -51.5q-67 -62 -95 -104.5t-28 -104.5h-164q0 111 59 203q35 49 117 127q39 36 57.5 55.5t41.5 52t32.5 69t9.5 83.5q0 103 -66 169.5t-169 66.5q-236 0 -236 -236h-164
q0 89 25 162q28 80 82 131q51 54 131 82q73 25 162 25zM543 205q43 0 72.5 -30t29.5 -73t-29.5 -72.5t-72.5 -29.5t-73 29.5t-30 72.5t30 73t73 30z" />
    <glyph glyph-name="at" unicode="@" horiz-adv-x="2174" 
d="M1087 1659q196 0 361 -55q172 -57 303 -170q137 -120 209 -292t72 -382q0 -257 -107 -410q-51 -75 -120 -115t-146 -40q-74 0 -141.5 37.5t-116.5 107.5q-20 26 -35 57l-4 -6q-106 -121 -297 -121q-209 0 -326.5 118t-117.5 327t117.5 326.5t326.5 117.5q141 0 235 -67
v67h164v-444q0 -183 72 -281q51 -76 123 -76q74 0 131 84q78 114 78 318q0 180 -62 325q-62 139 -164 226q-104 91 -245 137q-143 47 -310 47q-157 0 -299 -59.5t-251 -169.5q-111 -111 -170.5 -253t-59.5 -298t60 -299t170 -252q109 -111 251.5 -170.5t298.5 -59.5
q186 0 349 82l73 -145q-193 -100 -422 -100q-194 0 -368 73q-167 70 -299 203q-133 133 -203 299q-74 177 -74 369q0 189 74 366q68 162 203 301q129 129 299 201q174 76 368 76zM1065 995q-145 0 -211 -69q-70 -70 -70 -211t70 -211q67 -70 211 -70q114 0 174 66
q61 74 61 215t-61 215q-59 65 -174 65z" />
    <glyph glyph-name="A" unicode="A" horiz-adv-x="1425" 
d="M1282 0h-172l-98 272h-598l-97 -272h-174l512 1434h115zM473 436h481l-241 672z" />
    <glyph glyph-name="B" unicode="B" horiz-adv-x="1267" 
d="M143 1434h535q205 0 323 -103q123 -108 123 -297t-123 -297q-1 -1 -10.5 -8.5t-15.5 -11.5q13 -8 26 -21q123 -108 123 -297t-123 -297q-117 -102 -323 -102h-535v1434zM307 1270v-471h371q145 0 215 61q68 59 68 174t-68 174q-68 62 -215 62h-371zM307 635v-471h371
q148 0 215 61q68 59 68 174t-68 174q-68 62 -215 62h-371z" />
    <glyph glyph-name="C" unicode="C" horiz-adv-x="1241" 
d="M633 1434q175 0 297 -84q121 -86 168 -248l-158 -45q-30 104 -104 157q-77 56 -203 56q-158 0 -242 -90q-84 -93 -84 -281v-362q0 -187 84 -283q84 -90 242 -90q127 0 203 55q74 53 104 158l158 -45q-48 -163 -168 -246q-121 -86 -297 -86q-113 0 -203 35
q-97 39 -160 110q-127 139 -127 392v362q0 249 127 391q65 71 160 109q90 35 203 35z" />
    <glyph glyph-name="D" unicode="D" horiz-adv-x="1267" 
d="M143 1434h490q115 0 205 -35q93 -37 159 -109q127 -142 127 -391v-362q0 -253 -127 -392q-63 -72 -159 -110q-90 -35 -205 -35h-490v1434zM307 1270v-1106h326q160 0 241 90q87 96 87 283v362q0 188 -87 281q-81 90 -241 90h-326z" />
    <glyph glyph-name="E" unicode="E" horiz-adv-x="1140" 
d="M997 1270h-690v-471h690v-164h-690v-471h690v-164h-854v1434h854v-164z" />
    <glyph glyph-name="F" unicode="F" horiz-adv-x="1140" 
d="M997 1270h-690v-471h690v-164h-690v-635h-164v1434h854v-164z" />
    <glyph glyph-name="G" unicode="G" horiz-adv-x="1267" 
d="M633 1434h24q176 0 295 -84q120 -83 168 -248l-157 -45q-29 103 -105 157q-77 56 -201 56h-24q-158 0 -242 -90q-84 -93 -84 -281v-362q0 -187 84 -283q84 -90 242 -90q160 0 241 90q87 96 87 283v98h-328v164h491v-262q0 -253 -127 -392q-63 -72 -159 -110
q-90 -35 -205 -35q-113 0 -203 35q-97 39 -160 110q-127 139 -127 392v362q0 249 127 391q65 71 160 109q90 35 203 35z" />
    <glyph glyph-name="H" unicode="H" horiz-adv-x="1267" 
d="M1124 0h-163v635h-654v-635h-164v1434h164v-635h654v635h163v-1434z" />
    <glyph glyph-name="I" unicode="I" horiz-adv-x="450" 
d="M307 0h-164v1434h164v-1434z" />
    <glyph glyph-name="J" unicode="J" horiz-adv-x="731" 
d="M588 1434v-897q0 -249 -111 -390q-119 -147 -334 -147v164q134 0 205 86q76 98 76 287v897h164z" />
    <glyph glyph-name="K" unicode="K" horiz-adv-x="1306" 
d="M688 819l475 -819h-190l-393 680l-273 -354v-326h-164v1434h164v-840l649 840h207z" />
    <glyph glyph-name="L" unicode="L" horiz-adv-x="1140" 
d="M307 164h690v-164h-854v1434h164v-1270z" />
    <glyph glyph-name="M" unicode="M" horiz-adv-x="1630" 
d="M1487 0h-164v981l-455 -981h-106l-455 981v-981h-164v1434h136l536 -1158l537 1158h135v-1434z" />
    <glyph glyph-name="N" unicode="N" horiz-adv-x="1267" 
d="M1124 0h-127l-690 1073v-1073h-164v1434h127l691 -1074v1074h163v-1434z" />
    <glyph glyph-name="O" unicode="O" horiz-adv-x="1267" 
d="M633 1434q115 0 205 -35q93 -37 159 -109q127 -142 127 -391v-362q0 -253 -127 -392q-63 -72 -159 -110q-90 -35 -205 -35q-113 0 -203 35q-97 39 -160 110q-127 139 -127 392v362q0 249 127 391q65 71 160 109q90 35 203 35zM633 1270q-158 0 -242 -90q-84 -93 -84 -281
v-362q0 -187 84 -283q84 -90 242 -90q160 0 241 90q87 96 87 283v362q0 188 -87 281q-81 90 -241 90z" />
    <glyph glyph-name="P" unicode="P" horiz-adv-x="1267" 
d="M143 1434h490q228 0 358 -115q133 -121 133 -330t-133 -330q-129 -114 -358 -114h-326v-545h-164v1434zM307 1270v-561h326q169 0 248 73q80 68 80 207t-80 207q-80 74 -248 74h-326z" />
    <glyph glyph-name="Q" unicode="Q" horiz-adv-x="1267" 
d="M635 1434q113 0 203 -35q94 -37 159 -111q127 -139 127 -391v-362q0 -250 -127 -392q-59 -65 -151 -104l241 -162l-90 -135l-389 258q-93 3 -178 35q-96 38 -160 108q-127 142 -127 392v362q0 252 127 391q64 73 160 111q90 35 205 35zM635 1270q-161 0 -242 -90
q-86 -95 -86 -283v-362q0 -189 86 -281q81 -90 242 -90q158 0 242 90q84 93 84 281v362q0 187 -84 283q-84 90 -242 90z" />
    <glyph glyph-name="R" unicode="R" horiz-adv-x="1267" 
d="M143 1434h490q228 0 358 -115q133 -121 133 -330t-133 -330q-109 -95 -278 -110l411 -549h-204l-410 545h-203v-545h-164v1434zM307 1270v-561h326q169 0 248 73q7 4 10 9q67 67 70 190v8q0 139 -80 207q-80 74 -248 74h-326z" />
    <glyph glyph-name="S" unicode="S" horiz-adv-x="1267" 
d="M633 1434h24q176 0 295 -84q120 -83 168 -248l-157 -45q-29 103 -105 157q-77 56 -201 56h-24q-168 0 -252 -66q-74 -59 -74 -170t74 -170q83 -65 252 -65q226 0 354 -101q137 -109 137 -299t-137 -299q-126 -100 -354 -100h-23q-176 0 -297 86q-118 81 -166 246l156 45
q30 -105 107 -158q76 -55 200 -55h23q172 0 252 65q76 58 76 170t-76 170q-81 66 -252 66q-226 0 -352 100q-138 107 -138 299q0 191 138 301q129 99 352 99z" />
    <glyph glyph-name="T" unicode="T" horiz-adv-x="1148" 
d="M1006 1270h-351v-1270h-163v1270h-349v164h863v-164z" />
    <glyph glyph-name="U" unicode="U" horiz-adv-x="1267" 
d="M1124 1434v-897q0 -253 -127 -392q-63 -72 -159 -110q-90 -35 -205 -35q-113 0 -203 35q-97 39 -160 110q-127 139 -127 392v897h164v-897q0 -187 84 -283q84 -90 242 -90q160 0 241 90q87 96 87 283v897h163z" />
    <glyph glyph-name="V" unicode="V" horiz-adv-x="1327" 
d="M723 0h-119l-461 1434h172l349 -1084l348 1084h172z" />
    <glyph glyph-name="W" unicode="W" horiz-adv-x="2144" 
d="M1540 0h-119l-348 1083l-350 -1083h-119l-461 1434h172l349 -1084l348 1084h121l348 -1084l348 1084h172z" />
    <glyph glyph-name="X" unicode="X" horiz-adv-x="1349" 
d="M770 717l436 -717h-192l-340 559l-338 -559h-193l437 717l-437 717h193l338 -560l340 560h192z" />
    <glyph glyph-name="Y" unicode="Y" horiz-adv-x="1368" 
d="M1225 1434l-459 -918v-516h-164v516l-459 918h183l358 -715l358 715h183z" />
    <glyph glyph-name="Z" unicode="Z" horiz-adv-x="1193" 
d="M1051 1210l-748 -1046h748v-164h-908v223l748 1047h-748v164h908v-224z" />
    <glyph glyph-name="bracketleft" unicode="[" horiz-adv-x="641" 
d="M498 1434h-191v-1469h191v-164h-355v1796h355v-163z" />
    <glyph glyph-name="backslash" unicode="\" horiz-adv-x="909" 
d="M311 1624l455 -1814h-170l-453 1814h168z" />
    <glyph glyph-name="bracketright" unicode="]" horiz-adv-x="641" 
d="M498 1597v-1796h-355v164h191v1469h-191v163h355z" />
    <glyph glyph-name="asciicircum" unicode="^" horiz-adv-x="1380" 
d="M1237 616h-186l-361 648l-360 -648h-187l453 818h188z" />
    <glyph glyph-name="underscore" unicode="_" horiz-adv-x="1193" 
d="M1051 -266h-908v164h908v-164z" />
    <glyph glyph-name="grave" unicode="`" horiz-adv-x="409" 
d="M410 1628l-45 -92l-365 182l47 90z" />
    <glyph glyph-name="a" unicode="a" 
d="M586 1071h2q206 0 323 -102q121 -106 121 -297v-672h-164v72q-113 -72 -280 -72h-45q-180 0 -283 74q-117 82 -117 235q0 155 117 234q104 75 283 75h325v54q0 115 -65 174q-70 61 -215 61h-2q-134 0 -205 -53q-65 -50 -74 -145l-164 16q18 167 140 260q115 86 303 86z
M868 455h-325q-125 0 -189 -45q-47 -33 -47 -101q0 -66 47 -102q61 -43 189 -43h45q145 0 215 61q65 59 65 174v56z" />
    <glyph glyph-name="b" unicode="b" 
d="M307 1434v-435q113 72 281 72q206 0 323 -102q121 -106 121 -297v-273q0 -191 -121 -297q-117 -102 -323 -102q-168 0 -281 72v-72h-164v1434h164zM588 907q-145 0 -215 -61q-66 -60 -66 -174v-273q0 -114 66 -174q70 -61 215 -61t215 61q65 56 65 174v273q0 118 -65 174
q-70 61 -215 61z" />
    <glyph glyph-name="c" unicode="c" horiz-adv-x="1146" 
d="M588 1071q154 0 256 -57q114 -60 160 -176l-152 -62q-25 60 -86 94q-67 37 -178 37q-145 0 -215 -61q-66 -60 -66 -174v-273q0 -114 66 -174q70 -61 215 -61q111 0 178 37q61 34 86 94l152 -62q-46 -116 -160 -176q-102 -57 -256 -57q-205 0 -322 102q-123 108 -123 297
v273q0 189 123 297q117 102 322 102z" />
    <glyph glyph-name="d" unicode="d" 
d="M1032 1434v-1434h-164v72q-113 -72 -280 -72q-207 0 -324 102q-121 106 -121 297v273q0 191 121 297q117 102 324 102q167 0 280 -72v435h164zM588 907q-145 0 -215 -61q-66 -57 -66 -174v-273q0 -117 66 -174q70 -61 215 -61t215 61q65 59 65 174v273q0 115 -65 174
q-70 61 -215 61z" />
    <glyph glyph-name="e" unicode="e" 
d="M588 1071q206 0 323 -102q121 -106 121 -297v-217h-725v-56q0 -114 66 -174q70 -61 215 -61h24q112 0 179 37q61 34 83 94l152 -62q-47 -117 -158 -176q-102 -57 -256 -57h-24q-205 0 -322 102q-123 108 -123 297v273q0 189 123 297q117 102 322 102zM588 907
q-145 0 -215 -61q-66 -60 -66 -174v-54h561v54q0 118 -65 174q-70 61 -215 61z" />
    <glyph glyph-name="f" unicode="f" horiz-adv-x="876" 
d="M733 1270h-90q-101 0 -149 -39q-41 -33 -41 -107v-53h280v-164h-280v-907h-164v907h-146v164h146v53q0 152 100 232q93 78 254 78h90v-164z" />
    <glyph glyph-name="g" unicode="g" 
d="M588 1071q174 0 280 -72v72h164v-1034q0 -191 -121 -297q-117 -102 -323 -102h-25q-154 0 -256 57q-110 58 -157 176l151 61q21 -57 84 -94q70 -37 178 -37h25q144 0 215 62q65 56 65 174v35q-110 -72 -280 -72q-205 0 -322 102q-123 108 -123 297v273q0 189 123 297
q117 102 322 102zM588 907q-145 0 -215 -61q-66 -60 -66 -174v-273q0 -114 66 -174q74 -61 215 -61t215 61q65 56 65 174v273q0 118 -65 174q-70 61 -215 61z" />
    <glyph glyph-name="h" unicode="h" 
d="M307 1434v-435q113 72 281 72q206 0 323 -102q121 -106 121 -297v-672h-164v672q0 118 -65 174q-70 61 -215 61t-215 -61q-66 -60 -66 -174v-672h-164v1434h164z" />
    <glyph glyph-name="i" unicode="i" horiz-adv-x="491" 
d="M246 1434q43 0 72.5 -30t29.5 -73q0 -42 -30 -72t-72 -30q-41 0 -72 30.5t-31 71.5q0 42 30.5 72.5t72.5 30.5zM328 0h-164v1071h164v-1071z" />
    <glyph glyph-name="j" unicode="j" horiz-adv-x="563" 
d="M317 1434q43 0 73 -30t30 -73q0 -41 -30 -71.5t-73 -30.5q-41 0 -71.5 30.5t-30.5 71.5q0 43 30.5 73t71.5 30zM399 1071v-989q0 -207 -102 -324q-105 -120 -297 -120v163q114 0 174 66q62 71 62 215v989h163z" />
    <glyph glyph-name="k" unicode="k" horiz-adv-x="1136" 
d="M307 565l465 506h221l-436 -475l436 -596h-202l-347 471l-137 -149v-322h-164v1434h164v-869z" />
    <glyph glyph-name="l" unicode="l" horiz-adv-x="595" 
d="M307 1434v-1035q0 -127 43 -188q36 -47 103 -47v-164q-151 0 -236 117q-74 106 -74 282v1035h164z" />
    <glyph glyph-name="m" unicode="m" horiz-adv-x="1902" 
d="M1315 1071q204 0 321 -102q123 -108 123 -297v-672h-164v672q0 115 -65 174q-70 61 -215 61q-148 0 -215 -61q-68 -59 -68 -174v-672h-164v672q0 118 -65 174q-70 61 -215 61t-215 -61q-66 -60 -66 -174v-672h-164v1071h164v-72q113 72 281 72q206 0 323 -102
q15 -12 39 -41q19 22 41 41q117 102 324 102z" />
    <glyph glyph-name="n" unicode="n" 
d="M588 1071q206 0 323 -102q121 -106 121 -297v-672h-164v672q0 118 -65 174q-70 61 -215 61t-215 -61q-66 -60 -66 -174v-672h-164v1071h164v-72q113 72 281 72z" />
    <glyph glyph-name="o" unicode="o" 
d="M588 1071q206 0 323 -102q121 -106 121 -297v-273q0 -191 -121 -297q-117 -102 -323 -102q-205 0 -322 102q-123 108 -123 297v273q0 189 123 297q117 102 322 102zM588 907q-145 0 -215 -61q-66 -60 -66 -174v-273q0 -114 66 -174q70 -61 215 -61t215 61q65 56 65 174
v273q0 118 -65 174q-70 61 -215 61z" />
    <glyph glyph-name="p" unicode="p" horiz-adv-x="1177" 
d="M590 1071q204 0 321 -102q123 -108 123 -297v-273q0 -189 -123 -297q-117 -102 -321 -102q-170 0 -283 72v-434h-164v1433h164v-72q113 72 283 72zM590 907q-148 0 -215 -61q-68 -59 -68 -174v-273q0 -115 68 -174q67 -61 215 -61q145 0 215 61q65 59 65 174v273
q0 115 -65 174q-70 61 -215 61z" />
    <glyph glyph-name="q" unicode="q" horiz-adv-x="1177" 
d="M588 1071q169 0 282 -72v72h164v-1433h-164v434q-113 -72 -282 -72q-205 0 -322 102q-123 108 -123 297v273q0 189 123 297q117 102 322 102zM588 907q-145 0 -215 -61q-66 -60 -66 -174v-273q0 -114 66 -174q70 -61 215 -61q148 0 215 61q67 58 67 174v273
q0 116 -67 174q-67 61 -215 61z" />
    <glyph glyph-name="r" unicode="r" horiz-adv-x="823" 
d="M680 907h-92q-145 0 -215 -61q-66 -60 -66 -174v-672h-164v1071h164v-72q113 72 281 72h92v-164z" />
    <glyph glyph-name="s" unicode="s" 
d="M588 1071h24q154 0 256 -57q111 -59 158 -176l-152 -62q-22 60 -83 94q-67 37 -179 37h-24q-154 0 -226 -47q-55 -32 -55 -98q0 -63 55 -98q81 -46 226 -46q198 0 313 -71q63 -41 98 -101q33 -59 33 -137t-33 -137q-32 -56 -98 -100q-116 -72 -313 -72h-25
q-154 0 -256 57q-110 58 -157 176l151 62q21 -57 84 -94q70 -37 178 -37h25q158 0 225 47q55 32 55 98q0 64 -55 99q-78 47 -225 47q-200 0 -312 69q-61 38 -98 101q-35 62 -35 137t35 137q33 59 98 100q116 72 312 72z" />
    <glyph glyph-name="t" unicode="t" horiz-adv-x="876" 
d="M453 1071h280v-164h-280v-508q0 -115 65 -174q70 -61 215 -61v-164q-206 0 -323 102q-121 106 -121 297v508h-146v164h146v363h164v-363z" />
    <glyph glyph-name="u" unicode="u" 
d="M1032 0h-164v72q-113 -72 -280 -72q-207 0 -324 102q-121 106 -121 297v672h164v-672q0 -114 66 -174q70 -61 215 -61t215 61q65 59 65 174v672h164v-1071z" />
    <glyph glyph-name="v" unicode="v" horiz-adv-x="1255" 
d="M682 0h-111l-428 1071h176l308 -768l307 768h178z" />
    <glyph glyph-name="w" unicode="w" horiz-adv-x="1980" 
d="M1409 0h-111l-309 768l-307 -768h-111l-428 1071h176l308 -768l307 768h113l307 -768l307 768h176z" />
    <glyph glyph-name="x" unicode="x" horiz-adv-x="1236" 
d="M719 535l375 -535h-201l-275 393l-274 -393h-201l375 535l-375 536h201l274 -393l275 393h201z" />
    <glyph glyph-name="y" unicode="y" 
d="M1032 1071v-1034q0 -189 -123 -297q-117 -102 -321 -102h-25q-154 0 -256 57q-110 58 -157 176l151 61q22 -59 84 -94q67 -37 178 -37h25q144 0 215 62q65 59 65 174v35q-113 -72 -280 -72q-207 0 -324 102q-121 106 -121 297v672h164v-672q0 -117 66 -174
q74 -61 215 -61t215 61q65 59 65 174v672h164z" />
    <glyph glyph-name="z" unicode="z" horiz-adv-x="1103" 
d="M961 866l-633 -702h633v-164h-818v205l633 702h-633v164h818v-205z" />
    <glyph glyph-name="braceleft" unicode="{" horiz-adv-x="649" 
d="M506 1597v-163q-43 0 -66 -33q-32 -46 -32 -156v-272q0 -156 -62 -248l-18 -25q12 -16 18 -26q62 -89 62 -246v-272q0 -111 32 -156q22 -35 66 -35v-164q-129 0 -203 107q-59 92 -59 248v272q0 107 -35 156q-19 34 -66 34v164q46 0 66 33q35 50 35 158v272q0 157 59 246
q71 106 203 106z" />
    <glyph glyph-name="bar" unicode="|" horiz-adv-x="450" 
d="M307 -373h-164v1815h164v-1815z" />
    <glyph glyph-name="braceright" unicode="}" horiz-adv-x="649" 
d="M143 1434v163q132 0 203 -106q60 -91 60 -246v-272q0 -109 34 -158q20 -33 66 -33v-164q-47 0 -66 -34q-34 -48 -34 -156v-272q0 -154 -60 -248q-74 -107 -203 -107v164q44 0 66 35q33 47 33 156v272q0 158 61 246q2 3 19 26l-19 25q-61 91 -61 248v272q0 109 -33 156
q-23 33 -66 33z" />
    <glyph glyph-name="asciitilde" unicode="~" horiz-adv-x="1267" 
d="M528 705q101 -27 170 -121q25 -32 58.5 -49t63 -16.5t57.5 7.5q35 12 59.5 38t24.5 63h163q0 -88 -53.5 -157.5t-142.5 -98.5q-98 -31 -189 -4q-101 27 -172 120q-24 32 -57 49t-62 16.5t-57 -7.5q-35 -12 -59.5 -38t-24.5 -63h-164q0 88 53.5 157.5t143.5 98.5
q96 31 188 5z" />
    <glyph glyph-name="exclamdown" unicode="&#xa1;" horiz-adv-x="491" 
d="M246 866q-43 0 -73 30t-30 73t30 72.5t73 29.5t72.5 -29.5t29.5 -72.5t-29.5 -73t-72.5 -30zM164 -362v989h164v-989h-164z" />
    <glyph glyph-name="cent" unicode="&#xa2;" horiz-adv-x="1142" 
d="M676 1270v-199q96 -13 166 -51q107 -61 157 -176l-149 -66q-26 63 -88 99q-70 36 -168 36q-144 0 -215 -71q-72 -72 -72 -215v-183q0 -143 72 -215q69 -69 215 -69q100 0 168 35q62 37 88 98l149 -66q-51 -116 -157 -174q-68 -40 -166 -53v-199h-164v199
q-174 23 -271.5 139t-97.5 305v183q0 189 97.5 305t271.5 139v199h164z" />
    <glyph glyph-name="sterling" unicode="&#xa3;" horiz-adv-x="1280" 
d="M733 1434q145 0 246 -58q106 -59 158 -172l-150 -67q-30 64 -88 98q-65 35 -166 35q-141 0 -211 -70q-69 -69 -69 -211q0 -55 30 -190h432v-164h-397q14 -79 14 -150q3 -153 -47 -321h611v-164h-846l45 113q107 270 57 522h-209v164h172q-26 117 -26 190q0 209 117.5 327
t326.5 118z" />
    <glyph glyph-name="currency" unicode="&#xa4;" horiz-adv-x="1171" 
d="M1028 1044l-141 -141q53 -83 53 -186q0 -102 -53 -185l141 -141l-115 -117l-141 142q-83 -51 -186 -51t-185 51l-141 -142l-117 117l142 141q-54 85 -54 185q0 101 54 186l-142 141l117 117l141 -141q85 52 185.5 52t185.5 -52l141 141zM453 852q-58 -55 -58 -135
q0 -78 58 -133q55 -56 134 -56t134 56q55 55 55 133q0 80 -55 135q-55 56 -134 56t-134 -56z" />
    <glyph glyph-name="yen" unicode="&#xa5;" horiz-adv-x="1368" 
d="M817 618h252v-163h-303v-109h303v-164h-303v-182h-164v182h-303v164h303v109h-303v163h252l-408 816h183l358 -715l358 715h183z" />
    <glyph glyph-name="brokenbar" unicode="&#xa6;" horiz-adv-x="450" 
d="M307 717h-164v725h164v-725zM307 -373h-164v725h164v-725z" />
    <glyph glyph-name="section" unicode="&#xa7;" horiz-adv-x="1173" 
d="M588 1524q188 0 303 -86q121 -92 139 -260l-164 -17q-9 97 -73 146q-71 53 -205 53q-144 0 -215 -62q-66 -60 -66 -174t66 -174q70 -61 215 -61q203 0 321 -103q121 -106 121 -297q0 -89 -23.5 -152.5t-72.5 -119.5q96 -104 96 -272q0 -191 -121 -297
q-118 -103 -323 -103q-188 0 -303 86q-122 93 -140 260l164 17q9 -96 74 -146q71 -53 205 -53q144 0 215 62q65 59 65 174t-65 174q-70 61 -215 61q-204 0 -322 103q-121 109 -121 297q0 89 24 152t73 120q-97 105 -97 272q0 188 121 297q118 103 324 103zM381 760
q-74 -59 -74 -180q0 -114 66 -174q75 -62 215 -62q117 0 207 -35q71 59 71 180q0 116 -65 175q-74 61 -215 61q-118 0 -205 35z" />
    <glyph glyph-name="dieresis" unicode="&#xa8;" horiz-adv-x="368" 
d="M72 1679q29 0 50 -21t21 -50t-21 -50.5t-50 -21.5t-50.5 21.5t-21.5 50.5t21.5 50t50.5 21zM297 1679q29 0 50.5 -21t21.5 -50t-21.5 -50.5t-50.5 -21.5t-50.5 21.5t-21.5 50.5t21.5 50t50.5 21z" />
    <glyph glyph-name="copyright" unicode="&#xa9;" horiz-adv-x="1720" 
d="M860 1434q146 0 279 -56q133 -57 229 -153q97 -97 154 -230q55 -131 55 -278q0 -148 -55 -279q-55 -128 -154 -227q-98 -101 -229 -154q-129 -57 -279 -57q-149 0 -278 57q-130 53 -228 154q-100 97 -153 227q-58 131 -58 279q0 147 58 278q55 135 153 230q96 96 228 153
q133 56 278 56zM860 1270q-110 0 -211.5 -42t-179.5 -120t-120 -179.5t-42 -211.5t42 -211.5t120 -179.5t179.5 -120t211.5 -42t211.5 42t179.5 120t120 179.5t42 211.5t-42 211.5t-120 179.5t-179.5 120t-211.5 42zM879 1040q87 0 162 -43t118 -118l-90 -52
q-29 51 -80.5 81t-109.5 30q-92 0 -157 -64.5t-65 -156.5q0 -91 65 -156t157 -65q59 0 110 29.5t80 80.5l90 -51q-43 -75 -118.5 -118.5t-161.5 -43.5q-133 0 -228.5 95.5t-95.5 228.5t95 228t229 95z" />
    <glyph glyph-name="guillemotleft" unicode="&#xab;" horiz-adv-x="1193" 
d="M358 537l273 -318h-215l-273 318l273 317h215zM778 537l273 -318h-215l-273 318l273 317h215z" />
    <glyph glyph-name="logicalnot" unicode="&#xac;" horiz-adv-x="1275" 
d="M1133 268h-164v373h-826v164h990v-537z" />
    <glyph glyph-name="registered" unicode="&#xae;" horiz-adv-x="1720" 
d="M860 1434q146 0 279 -56q133 -57 229 -153q97 -97 154 -230q55 -131 55 -278q0 -148 -55 -279q-55 -128 -154 -227q-98 -101 -229 -154q-129 -57 -279 -57q-149 0 -278 57q-130 53 -228 154q-100 97 -153 227q-58 131 -58 279q0 147 58 278q55 135 153 230q96 96 228 153
q133 56 278 56zM860 1270q-110 0 -211.5 -42t-179.5 -120t-120 -179.5t-42 -211.5t42 -211.5t120 -179.5t179.5 -120t211.5 -42t211.5 42t179.5 120t120 179.5t42 211.5t-42 211.5t-120 179.5t-179.5 120t-211.5 42zM674 1040h231q78 0 133.5 -54.5t55.5 -131.5
q0 -68 -43 -120t-107 -64l150 -226h-123l-148 222h-47v-222h-102v596zM776 938v-170h129q35 0 60.5 25.5t25.5 60.5q0 34 -25.5 59t-60.5 25h-129z" />
    <glyph glyph-name="macron" unicode="&#xaf;" horiz-adv-x="362" 
d="M362 1536h-362v102h362v-102z" />
    <glyph glyph-name="degree" unicode="&#xb0;" horiz-adv-x="905" 
d="M453 1434q127 0 218 -91t91 -219t-91 -218.5t-218 -90.5q-128 0 -219 91t-91 218q0 128 91.5 219t218.5 91zM453 1270q-60 0 -103 -43t-43 -103t43 -102.5t103 -42.5t102.5 42.5t42.5 102.5t-42.5 103t-102.5 43z" />
    <glyph glyph-name="plusminus" unicode="&#xb1;" horiz-adv-x="1193" 
d="M680 752h371v-164h-371v-373h-164v373h-373v164h373v370h164v-370zM1051 -51h-908v164h908v-164z" />
    <glyph glyph-name="acute" unicode="&#xb4;" horiz-adv-x="409" 
d="M410 1718l-365 -182l-45 92l362 180z" />
    <glyph glyph-name="paragraph" unicode="&#xb6;" 
d="M715 -373h-164v998q-169 0 -288.5 120t-119.5 289t119.5 288.5t288.5 119.5h164v-1815zM1032 -373h-164v1815h164v-1815z" />
    <glyph glyph-name="periodcentered" unicode="&#xb7;" horiz-adv-x="491" 
d="M246 819q43 0 72.5 -29.5t29.5 -72.5t-29.5 -73t-72.5 -30t-73 30t-30 73t30 72.5t73 29.5z" />
    <glyph glyph-name="cedilla" unicode="&#xb8;" horiz-adv-x="299" 
d="M160 0l-29 -117q78 -6 123 -55.5t45 -132.5q0 -87 -50.5 -137t-137.5 -50h-91v103h91q45 0 65 20q21 21 21 64q0 41 -21 65q-21 21 -65 21h-111l61 246z" />
    <glyph glyph-name="guillemotright" unicode="&#xbb;" horiz-adv-x="1193" 
d="M358 854l273 -317l-273 -318h-215l273 318l-273 317h215zM778 854l273 -317l-273 -318h-215l273 318l-273 317h215z" />
    <glyph glyph-name="onequarter" unicode="&#xbc;" horiz-adv-x="1513" 
d="M346 0h-203l1024 1434h203zM375 696h-103v738h103v-738zM1024 238h231v137h103v-375h-103v135h-333v125l217 477h112z" />
    <glyph glyph-name="onehalf" unicode="&#xbd;" horiz-adv-x="1644" 
d="M346 0h-203l1024 1434h203zM375 696h-103v738h103v-738zM1270 737q109 0 170 -61t61 -170q0 -111 -61 -172q-62 -62 -170 -62q-63 0 -96 -39q-35 -44 -35 -131h362v-102h-465v96q0 131 62 205t172 74q65 0 98 33q31 31 31 98q0 65 -31 96q-33 33 -98 33q-70 0 -99 -33
q-32 -28 -32 -96h-103q0 108 62 170q61 61 172 61z" />
    <glyph glyph-name="threequarters" unicode="&#xbe;" horiz-adv-x="1650" 
d="M377 1434q105 0 168 -54q63 -57 63 -155q0 -101 -63 -158l-2 -2l2 -2q63 -57 63 -156q0 -100 -63 -157q-63 -54 -168 -54q-110 0 -172 62t-62 172h103q0 -70 33 -99q28 -32 98 -32q64 0 100 28q29 26 29 80q0 52 -29 78q-37 29 -100 29h-47v102h47q63 0 100 29
q29 26 29 80q0 52 -29 78q-36 28 -100 28q-69 0 -98 -33q-33 -29 -33 -96h-103q0 108 62 170t172 62zM483 0h-202l1024 1434h202zM1161 238h232v137h102v-375h-102v135h-334v125l217 477h113z" />
    <glyph glyph-name="questiondown" unicode="&#xbf;" horiz-adv-x="1085" 
d="M543 866q-43 0 -73 30t-30 73t30 72.5t73 29.5t72.5 -29.5t29.5 -72.5t-29.5 -73t-72.5 -30zM543 -362q-171 0 -285 114q-115 115 -115 285q0 58 13 110t29.5 87.5t47 73.5t50.5 58t55 52q67 62 95 104.5t28 104.5h164q0 -109 -60 -203q-37 -52 -116 -127
q-39 -36 -57.5 -55.5t-42 -52.5t-33 -69.5t-9.5 -82.5q0 -103 66.5 -169.5t169.5 -66.5q235 0 235 236h164q0 -91 -24 -162q-28 -80 -82 -131q-51 -54 -131 -82q-71 -24 -162 -24z" />
    <glyph glyph-name="Agrave" unicode="&#xc0;" horiz-adv-x="1425" 
d="M918 1628l-46 -92l-364 182l47 90zM1282 0h-172l-98 272h-598l-97 -272h-174l512 1434h115zM473 436h481l-241 672z" />
    <glyph glyph-name="Aacute" unicode="&#xc1;" horiz-adv-x="1425" 
d="M918 1718l-365 -182l-45 92l362 180zM1282 0h-172l-98 272h-598l-97 -272h-174l512 1434h115zM473 436h481l-241 672z" />
    <glyph glyph-name="Acircumflex" unicode="&#xc2;" horiz-adv-x="1425" 
d="M713 1692l-195 -156l-63 80l258 207l260 -207l-64 -80zM1282 0h-172l-98 272h-598l-97 -272h-174l512 1434h115zM473 436h481l-241 672z" />
    <glyph glyph-name="Atilde" unicode="&#xc3;" horiz-adv-x="1425" 
d="M526 1724q55 22 116.5 8t105.5 -59q50 -50 110 -28q31 15 31 36h102q0 -43 -25.5 -78.5t-68.5 -52.5q-32 -14 -72 -14q-83 0 -149 66q-50 48 -109 26q-30 -12 -30 -37h-103q0 43 24.5 78.5t67.5 54.5zM1282 0h-172l-98 272h-598l-97 -272h-174l512 1434h115zM473 436h481
l-241 672z" />
    <glyph glyph-name="Adieresis" unicode="&#xc4;" horiz-adv-x="1425" 
d="M600 1679q29 0 50.5 -21t21.5 -50t-21.5 -50.5t-50.5 -21.5t-50.5 21.5t-21.5 50.5t21.5 50t50.5 21zM825 1679q29 0 50.5 -21t21.5 -50t-21.5 -50.5t-50.5 -21.5t-50 21.5t-21 50.5t21 50t50 21zM1282 0h-172l-98 272h-598l-97 -272h-174l512 1434h115zM473 436h481
l-241 672z" />
    <glyph glyph-name="Aring" unicode="&#xc5;" horiz-adv-x="1425" 
d="M713 1911q88 0 138 -50.5t50 -138.5q0 -86 -50 -136t-138 -50q-86 0 -136.5 50t-50.5 136q0 88 50.5 138.5t136.5 50.5zM713 1808q-47 0 -64 -20q-20 -20 -20 -66t20 -63q18 -21 64 -21q44 0 65 21q21 18 21 63t-21 66q-20 20 -65 20zM1282 0h-172l-98 272h-598l-97 -272
h-174l512 1434h115zM473 436h481l-241 672z" />
    <glyph glyph-name="AE" unicode="&#xc6;" horiz-adv-x="1961" 
d="M1128 1270v-471h691v-164h-691v-471h691v-164h-854v272h-627q-25 -162 -25 -196l-6 -76h-164l7 88q0 21 9.5 101t44.5 245.5t87 310.5q104 291 262 465q212 224 494 224h772v-164h-691zM965 436v828q-63 -12 -125 -39q-90 -46 -166 -125q-136 -148 -230 -408
q-43 -121 -73 -256h594z" />
    <glyph glyph-name="Ccedilla" unicode="&#xc7;" horiz-adv-x="1241" 
d="M836 219q74 53 104 158l158 -45q-48 -163 -168 -246q-121 -86 -297 -86h-2l-29 -115q78 -6 123 -55.5t45 -132.5q0 -86 -50 -136t-138 -50h-90v102h90q45 0 65 20q21 21 21 64q0 41 -21 65q-21 21 -65 21h-111l57 225q-51 9 -98 27q-97 39 -160 110q-127 139 -127 392
v362q0 249 127 391q65 71 160 109q90 35 203 35q175 0 297 -84q121 -86 168 -248l-158 -45q-30 104 -104 157q-77 56 -203 56q-158 0 -242 -90q-84 -93 -84 -281v-362q0 -187 84 -283q84 -90 242 -90q127 0 203 55z" />
    <glyph glyph-name="Egrave" unicode="&#xc8;" horiz-adv-x="1140" 
d="M776 1628l-45 -92l-364 182l47 90zM997 1270h-690v-471h690v-164h-690v-471h690v-164h-854v1434h854v-164z" />
    <glyph glyph-name="Eacute" unicode="&#xc9;" horiz-adv-x="1140" 
d="M776 1718l-364 -182l-45 92l362 180zM997 1270h-690v-471h690v-164h-690v-471h690v-164h-854v1434h854v-164z" />
    <glyph glyph-name="Ecircumflex" unicode="&#xca;" horiz-adv-x="1140" 
d="M569 1692l-194 -156l-64 80l258 207l260 -207l-63 -80zM997 1270h-690v-471h690v-164h-690v-471h690v-164h-854v1434h854v-164z" />
    <glyph glyph-name="Edieresis" unicode="&#xcb;" horiz-adv-x="1140" 
d="M459 1679q29 0 50 -21t21 -50t-21 -50.5t-50 -21.5t-50.5 21.5t-21.5 50.5t21.5 50t50.5 21zM684 1679q29 0 50.5 -21t21.5 -50t-21.5 -50.5t-50.5 -21.5t-50.5 21.5t-21.5 50.5t21.5 50t50.5 21zM997 1270h-690v-471h690v-164h-690v-471h690v-164h-854v1434h854v-164z
" />
    <glyph glyph-name="Igrave" unicode="&#xcc;" horiz-adv-x="450" 
d="M430 1628l-45 -92l-365 182l48 90zM307 0h-164v1434h164v-1434z" />
    <glyph glyph-name="Iacute" unicode="&#xcd;" horiz-adv-x="450" 
d="M430 1718l-364 -182l-46 92l363 180zM307 0h-164v1434h164v-1434z" />
    <glyph glyph-name="Icircumflex" unicode="&#xce;" horiz-adv-x="450" 
d="M223 1692l-194 -156l-64 80l258 207l260 -207l-63 -80zM307 0h-164v1434h164v-1434z" />
    <glyph glyph-name="Idieresis" unicode="&#xcf;" horiz-adv-x="450" 
d="M113 1679q29 0 50 -21t21 -50t-21 -50.5t-50 -21.5t-50.5 21.5t-21.5 50.5t21.5 50t50.5 21zM338 1679q29 0 50.5 -21t21.5 -50t-21.5 -50.5t-50.5 -21.5t-50.5 21.5t-21.5 50.5t21.5 50t50.5 21zM307 0h-164v1434h164v-1434z" />
    <glyph glyph-name="Eth" unicode="&#xd0;" horiz-adv-x="1267" 
d="M997 1290q127 -142 127 -391v-362q0 -253 -127 -392q-63 -72 -159 -110q-90 -35 -205 -35h-490v666h-123v102h123v666h490q115 0 205 -35q93 -37 159 -109zM961 537v362q0 188 -87 281q-81 90 -241 90h-326v-502h303v-102h-303v-502h326q160 0 241 90q87 96 87 283z" />
    <glyph glyph-name="Ntilde" unicode="&#xd1;" horiz-adv-x="1267" 
d="M449 1724q55 22 116 8t105 -59q50 -50 110 -28q31 15 31 36h102q0 -43 -25.5 -78.5t-68.5 -52.5q-32 -14 -71 -14q-84 0 -150 66q-50 48 -109 26q-30 -12 -30 -37h-103q0 43 25 78.5t68 54.5zM1124 0h-127l-690 1073v-1073h-164v1434h127l691 -1074v1074h163v-1434z" />
    <glyph glyph-name="Ograve" unicode="&#xd2;" horiz-adv-x="1267" 
d="M840 1628l-45 -92l-365 182l47 90zM633 1434q115 0 205 -35q93 -37 159 -109q127 -142 127 -391v-362q0 -253 -127 -392q-63 -72 -159 -110q-90 -35 -205 -35q-113 0 -203 35q-97 39 -160 110q-127 139 -127 392v362q0 249 127 391q65 71 160 109q90 35 203 35zM633 1270
q-158 0 -242 -90q-84 -93 -84 -281v-362q0 -187 84 -283q84 -90 242 -90q160 0 241 90q87 96 87 283v362q0 188 -87 281q-81 90 -241 90z" />
    <glyph glyph-name="Oacute" unicode="&#xd3;" horiz-adv-x="1267" 
d="M840 1718l-365 -182l-45 92l363 180zM633 1434q115 0 205 -35q93 -37 159 -109q127 -142 127 -391v-362q0 -253 -127 -392q-63 -72 -159 -110q-90 -35 -205 -35q-113 0 -203 35q-97 39 -160 110q-127 139 -127 392v362q0 249 127 391q65 71 160 109q90 35 203 35z
M633 1270q-158 0 -242 -90q-84 -93 -84 -281v-362q0 -187 84 -283q84 -90 242 -90q160 0 241 90q87 96 87 283v362q0 188 -87 281q-81 90 -241 90z" />
    <glyph glyph-name="Ocircumflex" unicode="&#xd4;" horiz-adv-x="1267" 
d="M633 1692l-195 -156l-63 80l258 207l260 -207l-64 -80zM633 1434q115 0 205 -35q93 -37 159 -109q127 -142 127 -391v-362q0 -253 -127 -392q-63 -72 -159 -110q-90 -35 -205 -35q-113 0 -203 35q-97 39 -160 110q-127 139 -127 392v362q0 249 127 391q65 71 160 109
q90 35 203 35zM633 1270q-158 0 -242 -90q-84 -93 -84 -281v-362q0 -187 84 -283q84 -90 242 -90q160 0 241 90q87 96 87 283v362q0 188 -87 281q-81 90 -241 90z" />
    <glyph glyph-name="Otilde" unicode="&#xd5;" horiz-adv-x="1267" 
d="M449 1724q55 22 116 8t105 -59q50 -50 110 -28q31 15 31 36h102q0 -43 -25.5 -78.5t-68.5 -52.5q-32 -14 -71 -14q-84 0 -150 66q-50 48 -109 26q-30 -12 -30 -37h-103q0 43 25 78.5t68 54.5zM633 1434q115 0 205 -35q93 -37 159 -109q127 -142 127 -391v-362
q0 -253 -127 -392q-63 -72 -159 -110q-90 -35 -205 -35q-113 0 -203 35q-97 39 -160 110q-127 139 -127 392v362q0 249 127 391q65 71 160 109q90 35 203 35zM633 1270q-158 0 -242 -90q-84 -93 -84 -281v-362q0 -187 84 -283q84 -90 242 -90q160 0 241 90q87 96 87 283v362
q0 188 -87 281q-81 90 -241 90z" />
    <glyph glyph-name="Odieresis" unicode="&#xd6;" horiz-adv-x="1267" 
d="M522 1679q29 0 50.5 -21t21.5 -50t-21.5 -50.5t-50.5 -21.5t-50 21.5t-21 50.5t21 50t50 21zM748 1679q29 0 50 -21t21 -50t-21 -50.5t-50 -21.5t-50.5 21.5t-21.5 50.5t21.5 50t50.5 21zM633 1434q115 0 205 -35q93 -37 159 -109q127 -142 127 -391v-362
q0 -253 -127 -392q-63 -72 -159 -110q-90 -35 -205 -35q-113 0 -203 35q-97 39 -160 110q-127 139 -127 392v362q0 249 127 391q65 71 160 109q90 35 203 35zM633 1270q-158 0 -242 -90q-84 -93 -84 -281v-362q0 -187 84 -283q84 -90 242 -90q160 0 241 90q87 96 87 283v362
q0 188 -87 281q-81 90 -241 90z" />
    <glyph glyph-name="multiply" unicode="&#xd7;" horiz-adv-x="1044" 
d="M901 799l-264 -262l264 -265l-117 -114l-262 262l-262 -262l-117 114l263 265l-263 262l117 114l262 -262l262 262z" />
    <glyph glyph-name="Oslash" unicode="&#xd8;" horiz-adv-x="1277" 
d="M1135 1323l-78 -109q73 -125 73 -315v-362q0 -254 -126 -392q-63 -71 -160 -110q-90 -35 -205 -35q-113 0 -203 35t-149 100l-60 -82l-84 60l78 108q-71 127 -71 316v362q0 250 126 391q65 71 160 109q90 35 203 35q115 0 205 -35q89 -36 149 -96l58 79zM313 899v-362
q0 -91 21 -158l561 784l-14 17q-81 90 -242 90q-158 0 -242 -90q-84 -93 -84 -281zM967 537v362q0 93 -21 160l-563 -787l14 -18q84 -90 242 -90q161 0 242 90q86 95 86 283z" />
    <glyph glyph-name="Ugrave" unicode="&#xd9;" horiz-adv-x="1267" 
d="M840 1628l-45 -92l-365 182l47 90zM1124 1434v-897q0 -253 -127 -392q-63 -72 -159 -110q-90 -35 -205 -35q-113 0 -203 35q-97 39 -160 110q-127 139 -127 392v897h164v-897q0 -187 84 -283q84 -90 242 -90q160 0 241 90q87 96 87 283v897h163z" />
    <glyph glyph-name="Uacute" unicode="&#xda;" horiz-adv-x="1267" 
d="M840 1718l-365 -182l-45 92l363 180zM1124 1434v-897q0 -253 -127 -392q-63 -72 -159 -110q-90 -35 -205 -35q-113 0 -203 35q-97 39 -160 110q-127 139 -127 392v897h164v-897q0 -187 84 -283q84 -90 242 -90q160 0 241 90q87 96 87 283v897h163z" />
    <glyph glyph-name="Ucircumflex" unicode="&#xdb;" horiz-adv-x="1267" 
d="M633 1692l-195 -156l-63 80l258 207l260 -207l-64 -80zM1124 1434v-897q0 -253 -127 -392q-63 -72 -159 -110q-90 -35 -205 -35q-113 0 -203 35q-97 39 -160 110q-127 139 -127 392v897h164v-897q0 -187 84 -283q84 -90 242 -90q160 0 241 90q87 96 87 283v897h163z" />
    <glyph glyph-name="Udieresis" unicode="&#xdc;" horiz-adv-x="1267" 
d="M522 1679q29 0 50.5 -21t21.5 -50t-21.5 -50.5t-50.5 -21.5t-50 21.5t-21 50.5t21 50t50 21zM748 1679q29 0 50 -21t21 -50t-21 -50.5t-50 -21.5t-50.5 21.5t-21.5 50.5t21.5 50t50.5 21zM1124 1434v-897q0 -253 -127 -392q-63 -72 -159 -110q-90 -35 -205 -35
q-113 0 -203 35q-97 39 -160 110q-127 139 -127 392v897h164v-897q0 -187 84 -283q84 -90 242 -90q160 0 241 90q87 96 87 283v897h163z" />
    <glyph glyph-name="Yacute" unicode="&#xdd;" horiz-adv-x="1368" 
d="M889 1718l-365 -182l-45 92l363 180zM1225 1434l-459 -918v-516h-164v516l-459 918h183l358 -715l358 715h183z" />
    <glyph glyph-name="Thorn" unicode="&#xde;" horiz-adv-x="1267" 
d="M307 1161h281q250 0 387 -110q149 -119 149 -334t-149 -334q-138 -111 -387 -111h-281v-272h-164v1434h164v-273zM307 997v-561h281q189 0 284 76q89 71 89 205t-89 205q-93 75 -284 75h-281z" />
    <glyph glyph-name="germandbls" unicode="&#xdf;" horiz-adv-x="1222" 
d="M633 1434q205 0 323 -103q123 -108 123 -297t-123 -297q-1 -1 -10.5 -8.5t-15.5 -11.5q12 -8 26 -21q123 -108 123 -297t-123 -297q-117 -102 -323 -102h-90v164h90q148 0 215 61q67 58 67 174t-67 174q-68 62 -215 62h-90v164h90q145 0 215 61q67 58 67 174t-67 174
q-68 62 -215 62q-158 0 -242 -90q-84 -93 -84 -281v-899h-164v918q0 233 127 372q65 71 160 109q90 35 203 35z" />
    <glyph glyph-name="agrave" unicode="&#xe0;" 
d="M793 1266l-45 -92l-365 182l47 90zM586 1071h2q206 0 323 -102q121 -106 121 -297v-672h-164v72q-113 -72 -280 -72h-45q-180 0 -283 74q-117 82 -117 235q0 155 117 234q104 75 283 75h325v54q0 115 -65 174q-70 61 -215 61h-2q-134 0 -205 -53q-65 -50 -74 -145
l-164 16q18 167 140 260q115 86 303 86zM868 455h-325q-125 0 -189 -45q-47 -33 -47 -101q0 -66 47 -102q61 -43 189 -43h45q145 0 215 61q65 59 65 174v56z" />
    <glyph glyph-name="aacute" unicode="&#xe1;" 
d="M793 1356l-365 -182l-45 92l362 180zM586 1071h2q206 0 323 -102q121 -106 121 -297v-672h-164v72q-113 -72 -280 -72h-45q-180 0 -283 74q-117 82 -117 235q0 155 117 234q104 75 283 75h325v54q0 115 -65 174q-70 61 -215 61h-2q-134 0 -205 -53q-65 -50 -74 -145
l-164 16q18 167 140 260q115 86 303 86zM868 455h-325q-125 0 -189 -45q-47 -33 -47 -101q0 -66 47 -102q61 -43 189 -43h45q145 0 215 61q65 59 65 174v56z" />
    <glyph glyph-name="acircumflex" unicode="&#xe2;" 
d="M588 1329l-195 -155l-63 79l258 207l260 -207l-64 -79zM586 1071h2q206 0 323 -102q121 -106 121 -297v-672h-164v72q-113 -72 -280 -72h-45q-180 0 -283 74q-117 82 -117 235q0 155 117 234q104 75 283 75h325v54q0 115 -65 174q-70 61 -215 61h-2q-134 0 -205 -53
q-65 -50 -74 -145l-164 16q18 167 140 260q115 86 303 86zM868 455h-325q-125 0 -189 -45q-47 -33 -47 -101q0 -66 47 -102q61 -43 189 -43h45q145 0 215 61q65 59 65 174v56z" />
    <glyph glyph-name="atilde" unicode="&#xe3;" 
d="M401 1362q55 22 116.5 8t105.5 -59q51 -51 110 -29q31 16 31 37h102q0 -43 -25.5 -78.5t-68.5 -52.5q-32 -14 -72 -14q-84 0 -149 65q-51 48 -109 27q-30 -12 -30 -37h-103q0 43 24.5 78.5t67.5 54.5zM586 1071h2q206 0 323 -102q121 -106 121 -297v-672h-164v72
q-113 -72 -280 -72h-45q-180 0 -283 74q-117 82 -117 235q0 155 117 234q104 75 283 75h325v54q0 115 -65 174q-70 61 -215 61h-2q-134 0 -205 -53q-65 -50 -74 -145l-164 16q18 167 140 260q115 86 303 86zM868 455h-325q-125 0 -189 -45q-47 -33 -47 -101q0 -66 47 -102
q61 -43 189 -43h45q145 0 215 61q65 59 65 174v56z" />
    <glyph glyph-name="adieresis" unicode="&#xe4;" 
d="M475 1317q29 0 50.5 -21.5t21.5 -50.5t-21.5 -50t-50.5 -21t-50.5 21t-21.5 50t21.5 50.5t50.5 21.5zM700 1317q29 0 50.5 -21.5t21.5 -50.5t-21.5 -50t-50.5 -21t-50 21t-21 50t21 50.5t50 21.5zM586 1071h2q206 0 323 -102q121 -106 121 -297v-672h-164v72
q-113 -72 -280 -72h-45q-180 0 -283 74q-117 82 -117 235q0 155 117 234q104 75 283 75h325v54q0 115 -65 174q-70 61 -215 61h-2q-134 0 -205 -53q-65 -50 -74 -145l-164 16q18 167 140 260q115 86 303 86zM868 455h-325q-125 0 -189 -45q-47 -33 -47 -101q0 -66 47 -102
q61 -43 189 -43h45q145 0 215 61q65 59 65 174v56z" />
    <glyph glyph-name="aring" unicode="&#xe5;" 
d="M588 1548q88 0 138 -50t50 -138q0 -86 -50 -136t-138 -50q-86 0 -136.5 50t-50.5 136q0 88 50.5 138t136.5 50zM588 1446q-46 0 -64 -21q-20 -20 -20 -65q0 -47 20 -64q17 -20 64 -20q45 0 65 20q21 18 21 64q0 44 -21 65t-65 21zM586 1071h2q206 0 323 -102
q121 -106 121 -297v-672h-164v72q-113 -72 -280 -72h-45q-180 0 -283 74q-117 82 -117 235q0 155 117 234q104 75 283 75h325v54q0 115 -65 174q-70 61 -215 61h-2q-134 0 -205 -53q-65 -50 -74 -145l-164 16q18 167 140 260q115 86 303 86zM868 455h-325q-125 0 -189 -45
q-47 -33 -47 -101q0 -66 47 -102q61 -43 189 -43h45q145 0 215 61q65 59 65 174v56z" />
    <glyph glyph-name="ae" unicode="&#xe6;" horiz-adv-x="1902" 
d="M1032 455v-56q0 -115 68 -174q67 -61 215 -61h22q112 0 179 37q64 36 86 94l151 -62q-47 -118 -160 -176q-102 -57 -256 -57h-22q-207 0 -324 102q-22 19 -41 41q-24 -29 -39 -41q-117 -102 -323 -102h-45q-177 0 -283 74q-117 85 -117 235q0 152 117 234q107 75 283 75
h325v54q0 118 -65 174q-70 61 -215 61h-2q-134 0 -205 -53q-65 -50 -74 -145l-164 16q18 167 140 260q115 86 303 86h2q206 0 323 -102q15 -12 39 -41q19 22 41 41q117 102 324 102q204 0 321 -102q123 -108 123 -297v-217h-727zM1100 846q-68 -59 -68 -174v-54h563v54
q0 115 -65 174q-70 61 -215 61q-148 0 -215 -61zM803 225q65 56 65 174v56h-325q-125 0 -189 -45q-47 -33 -47 -101q0 -66 47 -102q61 -43 189 -43h45q145 0 215 61z" />
    <glyph glyph-name="ccedilla" unicode="&#xe7;" horiz-adv-x="1146" 
d="M766 201q61 34 86 94l152 -62q-46 -116 -160 -176q-102 -57 -256 -57h-4l-29 -115q78 -6 123 -55.5t45 -132.5q0 -86 -50 -136t-138 -50h-91v102h91q45 0 65 20q21 21 21 64q0 41 -21 65q-21 21 -65 21h-111l57 225q-133 21 -215 94q-123 108 -123 297v273q0 189 123 297
q117 102 322 102q154 0 256 -57q114 -60 160 -176l-152 -62q-25 60 -86 94q-67 37 -178 37q-145 0 -215 -61q-66 -60 -66 -174v-273q0 -114 66 -174q70 -61 215 -61q111 0 178 37z" />
    <glyph glyph-name="egrave" unicode="&#xe8;" 
d="M793 1266l-45 -92l-365 182l47 90zM588 1071q206 0 323 -102q121 -106 121 -297v-217h-725v-56q0 -114 66 -174q70 -61 215 -61h24q112 0 179 37q61 34 83 94l152 -62q-47 -117 -158 -176q-102 -57 -256 -57h-24q-205 0 -322 102q-123 108 -123 297v273q0 189 123 297
q117 102 322 102zM588 907q-145 0 -215 -61q-66 -60 -66 -174v-54h561v54q0 118 -65 174q-70 61 -215 61z" />
    <glyph glyph-name="eacute" unicode="&#xe9;" 
d="M793 1356l-365 -182l-45 92l362 180zM588 1071q206 0 323 -102q121 -106 121 -297v-217h-725v-56q0 -114 66 -174q70 -61 215 -61h24q112 0 179 37q61 34 83 94l152 -62q-47 -117 -158 -176q-102 -57 -256 -57h-24q-205 0 -322 102q-123 108 -123 297v273q0 189 123 297
q117 102 322 102zM588 907q-145 0 -215 -61q-66 -60 -66 -174v-54h561v54q0 118 -65 174q-70 61 -215 61z" />
    <glyph glyph-name="ecircumflex" unicode="&#xea;" 
d="M588 1329l-195 -155l-63 79l258 207l260 -207l-64 -79zM588 1071q206 0 323 -102q121 -106 121 -297v-217h-725v-56q0 -114 66 -174q70 -61 215 -61h24q112 0 179 37q61 34 83 94l152 -62q-47 -117 -158 -176q-102 -57 -256 -57h-24q-205 0 -322 102q-123 108 -123 297
v273q0 189 123 297q117 102 322 102zM588 907q-145 0 -215 -61q-66 -60 -66 -174v-54h561v54q0 118 -65 174q-70 61 -215 61z" />
    <glyph glyph-name="edieresis" unicode="&#xeb;" 
d="M475 1317q29 0 50.5 -21.5t21.5 -50.5t-21.5 -50t-50.5 -21t-50.5 21t-21.5 50t21.5 50.5t50.5 21.5zM700 1317q29 0 50.5 -21.5t21.5 -50.5t-21.5 -50t-50.5 -21t-50 21t-21 50t21 50.5t50 21.5zM588 1071q206 0 323 -102q121 -106 121 -297v-217h-725v-56
q0 -114 66 -174q70 -61 215 -61h24q112 0 179 37q61 34 83 94l152 -62q-47 -117 -158 -176q-102 -57 -256 -57h-24q-205 0 -322 102q-123 108 -123 297v273q0 189 123 297q117 102 322 102zM588 907q-145 0 -215 -61q-66 -60 -66 -174v-54h561v54q0 118 -65 174
q-70 61 -215 61z" />
    <glyph glyph-name="igrave" unicode="&#xec;" horiz-adv-x="450" 
d="M430 1266l-45 -92l-365 182l48 90zM307 0h-164v1071h164v-1071z" />
    <glyph glyph-name="iacute" unicode="&#xed;" horiz-adv-x="450" 
d="M430 1356l-364 -182l-46 92l363 180zM307 0h-164v1071h164v-1071z" />
    <glyph glyph-name="icircumflex" unicode="&#xee;" horiz-adv-x="450" 
d="M223 1329l-194 -155l-64 79l258 207l260 -207l-63 -79zM307 0h-164v1071h164v-1071z" />
    <glyph glyph-name="idieresis" unicode="&#xef;" horiz-adv-x="450" 
d="M113 1317q29 0 50 -21.5t21 -50.5t-21 -50t-50 -21t-50.5 21t-21.5 50t21.5 50.5t50.5 21.5zM338 1317q29 0 50.5 -21.5t21.5 -50.5t-21.5 -50t-50.5 -21t-50.5 21t-21.5 50t21.5 50.5t50.5 21.5zM307 0h-164v1071h164v-1071z" />
    <glyph glyph-name="eth" unicode="&#xf0;" horiz-adv-x="1185" 
d="M430 1270v164q169 0 305 -121l170 86l47 -92l-141 -70q48 -60 72 -98q74 -121 116 -273q43 -153 43 -295q0 -238 -110 -391q-106 -148 -295 -176q-46 -4 -76 -4q-103 0 -180 39q-81 38 -135 104q-103 125 -103 301q0 177 105 301q56 67 135 105q79 39 182 39
q169 0 279 -74q-35 130 -101 238q-43 68 -84 108l-251 -127l-46 92l209 105q-67 39 -141 39zM565 725q-123 0 -192 -84q-66 -79 -66 -197q0 -117 66 -196q69 -84 188 -84q138 0 219 94q78 87 78 211q0 110 -65 178q-78 78 -228 78z" />
    <glyph glyph-name="ntilde" unicode="&#xf1;" 
d="M401 1362q55 22 116.5 8t105.5 -59q51 -51 110 -29q31 16 31 37h102q0 -43 -25.5 -78.5t-68.5 -52.5q-32 -14 -72 -14q-84 0 -149 65q-51 48 -109 27q-30 -12 -30 -37h-103q0 43 24.5 78.5t67.5 54.5zM588 1071q206 0 323 -102q121 -106 121 -297v-672h-164v672
q0 118 -65 174q-70 61 -215 61t-215 -61q-66 -60 -66 -174v-672h-164v1071h164v-72q113 72 281 72z" />
    <glyph glyph-name="ograve" unicode="&#xf2;" 
d="M793 1266l-45 -92l-365 182l47 90zM588 1071q206 0 323 -102q121 -106 121 -297v-273q0 -191 -121 -297q-117 -102 -323 -102q-205 0 -322 102q-123 108 -123 297v273q0 189 123 297q117 102 322 102zM588 907q-145 0 -215 -61q-66 -60 -66 -174v-273q0 -114 66 -174
q70 -61 215 -61t215 61q65 56 65 174v273q0 118 -65 174q-70 61 -215 61z" />
    <glyph glyph-name="oacute" unicode="&#xf3;" 
d="M793 1356l-365 -182l-45 92l362 180zM588 1071q206 0 323 -102q121 -106 121 -297v-273q0 -191 -121 -297q-117 -102 -323 -102q-205 0 -322 102q-123 108 -123 297v273q0 189 123 297q117 102 322 102zM588 907q-145 0 -215 -61q-66 -60 -66 -174v-273q0 -114 66 -174
q70 -61 215 -61t215 61q65 56 65 174v273q0 118 -65 174q-70 61 -215 61z" />
    <glyph glyph-name="ocircumflex" unicode="&#xf4;" 
d="M588 1329l-195 -155l-63 79l258 207l260 -207l-64 -79zM588 1071q206 0 323 -102q121 -106 121 -297v-273q0 -191 -121 -297q-117 -102 -323 -102q-205 0 -322 102q-123 108 -123 297v273q0 189 123 297q117 102 322 102zM588 907q-145 0 -215 -61q-66 -60 -66 -174v-273
q0 -114 66 -174q70 -61 215 -61t215 61q65 56 65 174v273q0 118 -65 174q-70 61 -215 61z" />
    <glyph glyph-name="otilde" unicode="&#xf5;" 
d="M401 1362q55 22 116.5 8t105.5 -59q51 -51 110 -29q31 16 31 37h102q0 -43 -25.5 -78.5t-68.5 -52.5q-32 -14 -72 -14q-84 0 -149 65q-51 48 -109 27q-30 -12 -30 -37h-103q0 43 24.5 78.5t67.5 54.5zM588 1071q206 0 323 -102q121 -106 121 -297v-273q0 -191 -121 -297
q-117 -102 -323 -102q-205 0 -322 102q-123 108 -123 297v273q0 189 123 297q117 102 322 102zM588 907q-145 0 -215 -61q-66 -60 -66 -174v-273q0 -114 66 -174q70 -61 215 -61t215 61q65 56 65 174v273q0 118 -65 174q-70 61 -215 61z" />
    <glyph glyph-name="odieresis" unicode="&#xf6;" 
d="M475 1317q29 0 50.5 -21.5t21.5 -50.5t-21.5 -50t-50.5 -21t-50.5 21t-21.5 50t21.5 50.5t50.5 21.5zM700 1317q29 0 50.5 -21.5t21.5 -50.5t-21.5 -50t-50.5 -21t-50 21t-21 50t21 50.5t50 21.5zM588 1071q206 0 323 -102q121 -106 121 -297v-273q0 -191 -121 -297
q-117 -102 -323 -102q-205 0 -322 102q-123 108 -123 297v273q0 189 123 297q117 102 322 102zM588 907q-145 0 -215 -61q-66 -60 -66 -174v-273q0 -114 66 -174q70 -61 215 -61t215 61q65 56 65 174v273q0 118 -65 174q-70 61 -215 61z" />
    <glyph glyph-name="divide" unicode="&#xf7;" horiz-adv-x="1193" 
d="M598 1071q43 0 72.5 -29.5t29.5 -72.5t-29.5 -73t-72.5 -30t-72.5 30t-29.5 73t29.5 72.5t72.5 29.5zM1051 455h-908v163h908v-163zM598 205q43 0 72.5 -30t29.5 -73t-29.5 -72.5t-72.5 -29.5t-72.5 29.5t-29.5 72.5t29.5 73t72.5 30z" />
    <glyph glyph-name="oslash" unicode="&#xf8;" horiz-adv-x="1179" 
d="M1036 954l-57 -63q55 -91 55 -219v-273q0 -191 -121 -297q-117 -102 -323 -102q-205 0 -322 102l-49 -55l-76 70l58 65q-56 89 -56 217v273q0 189 123 297q117 102 322 102q203 0 321 -100l50 53zM309 672v-273q0 -42 13 -86l481 535q-71 59 -213 59q-145 0 -215 -61
q-66 -60 -66 -174zM870 399v273q0 48 -12 86l-481 -535q71 -59 213 -59q145 0 215 61q65 56 65 174z" />
    <glyph glyph-name="ugrave" unicode="&#xf9;" 
d="M793 1266l-45 -92l-365 182l47 90zM1032 0h-164v72q-113 -72 -280 -72q-207 0 -324 102q-121 106 -121 297v672h164v-672q0 -114 66 -174q70 -61 215 -61t215 61q65 59 65 174v672h164v-1071z" />
    <glyph glyph-name="uacute" unicode="&#xfa;" 
d="M793 1356l-365 -182l-45 92l362 180zM1032 0h-164v72q-113 -72 -280 -72q-207 0 -324 102q-121 106 -121 297v672h164v-672q0 -114 66 -174q70 -61 215 -61t215 61q65 59 65 174v672h164v-1071z" />
    <glyph glyph-name="ucircumflex" unicode="&#xfb;" 
d="M588 1329l-195 -155l-63 79l258 207l260 -207l-64 -79zM1032 0h-164v72q-113 -72 -280 -72q-207 0 -324 102q-121 106 -121 297v672h164v-672q0 -114 66 -174q70 -61 215 -61t215 61q65 59 65 174v672h164v-1071z" />
    <glyph glyph-name="udieresis" unicode="&#xfc;" 
d="M475 1317q29 0 50.5 -21.5t21.5 -50.5t-21.5 -50t-50.5 -21t-50.5 21t-21.5 50t21.5 50.5t50.5 21.5zM700 1317q29 0 50.5 -21.5t21.5 -50.5t-21.5 -50t-50.5 -21t-50 21t-21 50t21 50.5t50 21.5zM1032 0h-164v72q-113 -72 -280 -72q-207 0 -324 102q-121 106 -121 297
v672h164v-672q0 -114 66 -174q70 -61 215 -61t215 61q65 59 65 174v672h164v-1071z" />
    <glyph glyph-name="yacute" unicode="&#xfd;" 
d="M793 1356l-365 -182l-45 92l362 180zM1032 1071v-1034q0 -189 -123 -297q-117 -102 -321 -102h-25q-154 0 -256 57q-110 58 -157 176l151 61q22 -59 84 -94q67 -37 178 -37h25q144 0 215 62q65 59 65 174v35q-113 -72 -280 -72q-207 0 -324 102q-121 106 -121 297v672
h164v-672q0 -117 66 -174q74 -61 215 -61t215 61q65 59 65 174v672h164z" />
    <glyph glyph-name="thorn" unicode="&#xfe;" 
d="M307 1434v-449q112 86 281 86q215 0 330 -133q114 -126 114 -356v-90q0 -233 -114 -359q-118 -133 -330 -133q-167 0 -281 88v-450h-164v1796h164zM588 907q-138 0 -207 -78q-74 -83 -74 -247v-90q0 -167 74 -250q69 -78 207 -78q137 0 209 78q71 83 71 250v90
q0 164 -71 247q-72 78 -209 78z" />
    <glyph glyph-name="ydieresis" unicode="&#xff;" 
d="M475 1317q29 0 50.5 -21.5t21.5 -50.5t-21.5 -50t-50.5 -21t-50.5 21t-21.5 50t21.5 50.5t50.5 21.5zM700 1317q29 0 50.5 -21.5t21.5 -50.5t-21.5 -50t-50.5 -21t-50 21t-21 50t21 50.5t50 21.5zM1032 1071v-1034q0 -189 -123 -297q-117 -102 -321 -102h-25
q-154 0 -256 57q-110 58 -157 176l151 61q22 -59 84 -94q67 -37 178 -37h25q144 0 215 62q65 59 65 174v35q-113 -72 -280 -72q-207 0 -324 102q-121 106 -121 297v672h164v-672q0 -117 66 -174q74 -61 215 -61t215 61q65 59 65 174v672h164z" />
    <glyph glyph-name="Amacron" unicode="&#x100;" horiz-adv-x="1425" 
d="M895 1536h-363v102h363v-102zM1282 0h-172l-98 272h-598l-97 -272h-174l512 1434h115zM473 436h481l-241 672z" />
    <glyph glyph-name="amacron" unicode="&#x101;" 
d="M770 1174h-362v102h362v-102zM586 1071h2q206 0 323 -102q121 -106 121 -297v-672h-164v72q-113 -72 -280 -72h-45q-180 0 -283 74q-117 82 -117 235q0 155 117 234q104 75 283 75h325v54q0 115 -65 174q-70 61 -215 61h-2q-134 0 -205 -53q-65 -50 -74 -145l-164 16
q18 167 140 260q115 86 303 86zM868 455h-325q-125 0 -189 -45q-47 -33 -47 -101q0 -66 47 -102q61 -43 189 -43h45q145 0 215 61q65 59 65 174v56z" />
    <glyph glyph-name="Abreve" unicode="&#x102;" horiz-adv-x="1425" 
d="M844 1769h102q0 -111 -61 -172t-170 -61q-111 0 -172 61q-62 62 -62 172h103q0 -70 32 -98q29 -33 99 -33q65 0 98 33q31 31 31 98zM1282 0h-172l-98 272h-598l-97 -272h-174l512 1434h115zM473 436h481l-241 672z" />
    <glyph glyph-name="abreve" unicode="&#x103;" 
d="M719 1407h102q0 -111 -61 -172t-170 -61q-111 0 -172 61q-62 62 -62 172h103q0 -69 33 -98q29 -33 98 -33q65 0 98 33q31 31 31 98zM586 1071h2q206 0 323 -102q121 -106 121 -297v-672h-164v72q-113 -72 -280 -72h-45q-180 0 -283 74q-117 82 -117 235q0 155 117 234
q104 75 283 75h325v54q0 115 -65 174q-70 61 -215 61h-2q-134 0 -205 -53q-65 -50 -74 -145l-164 16q18 167 140 260q115 86 303 86zM868 455h-325q-125 0 -189 -45q-47 -33 -47 -101q0 -66 47 -102q61 -43 189 -43h45q145 0 215 61q65 59 65 174v56z" />
    <glyph glyph-name="Aogonek" unicode="&#x104;" horiz-adv-x="1425" 
d="M1282 0h-37q-67 0 -98 -31q-33 -33 -33 -98q0 -69 33 -98q29 -33 98 -33v-102q-111 0 -172 61t-61 172q0 109 61 170l17 14l-78 217h-598l-97 -272h-174l512 1434h115zM954 436l-241 672l-240 -672h481z" />
    <glyph glyph-name="aogonek" unicode="&#x105;" 
d="M911 969q121 -106 121 -297v-672q-67 0 -98 -31q-33 -33 -33 -98q0 -69 33 -98q29 -33 98 -33v-102q-111 0 -172 61t-61 172q0 109 61 170l8 8v23q-113 -72 -280 -72h-45q-180 0 -283 74q-117 82 -117 235q0 155 117 234q104 75 283 75h325v54q0 115 -65 174
q-70 61 -215 61h-2q-134 0 -205 -53q-65 -50 -74 -145l-164 16q18 167 140 260q115 86 303 86h2q206 0 323 -102zM803 225q65 59 65 174v56h-325q-125 0 -189 -45q-47 -33 -47 -101q0 -66 47 -102q61 -43 189 -43h45q145 0 215 61z" />
    <glyph glyph-name="Cacute" unicode="&#x106;" horiz-adv-x="1241" 
d="M825 1718l-364 -182l-45 92l362 180zM633 1434q175 0 297 -84q121 -86 168 -248l-158 -45q-30 104 -104 157q-77 56 -203 56q-158 0 -242 -90q-84 -93 -84 -281v-362q0 -187 84 -283q84 -90 242 -90q127 0 203 55q74 53 104 158l158 -45q-48 -163 -168 -246
q-121 -86 -297 -86q-113 0 -203 35q-97 39 -160 110q-127 139 -127 392v362q0 249 127 391q65 71 160 109q90 35 203 35z" />
    <glyph glyph-name="cacute" unicode="&#x107;" horiz-adv-x="1146" 
d="M778 1356l-364 -182l-45 92l362 180zM588 1071q154 0 256 -57q114 -60 160 -176l-152 -62q-25 60 -86 94q-67 37 -178 37q-145 0 -215 -61q-66 -60 -66 -174v-273q0 -114 66 -174q70 -61 215 -61q111 0 178 37q61 34 86 94l152 -62q-46 -116 -160 -176q-102 -57 -256 -57
q-205 0 -322 102q-123 108 -123 297v273q0 189 123 297q117 102 322 102z" />
    <glyph glyph-name="Cdotaccent" unicode="&#x10a;" horiz-adv-x="1241" 
d="M621 1679q29 0 50 -21t21 -50t-21 -50.5t-50 -21.5t-50.5 21.5t-21.5 50.5t21.5 50t50.5 21zM633 1434q175 0 297 -84q121 -86 168 -248l-158 -45q-30 104 -104 157q-77 56 -203 56q-158 0 -242 -90q-84 -93 -84 -281v-362q0 -187 84 -283q84 -90 242 -90q127 0 203 55
q74 53 104 158l158 -45q-48 -163 -168 -246q-121 -86 -297 -86q-113 0 -203 35q-97 39 -160 110q-127 139 -127 392v362q0 249 127 391q65 71 160 109q90 35 203 35z" />
    <glyph glyph-name="cdotaccent" unicode="&#x10b;" horiz-adv-x="1146" 
d="M573 1317q29 0 50.5 -21.5t21.5 -50.5t-21.5 -50t-50.5 -21t-50 21t-21 50t21 50.5t50 21.5zM588 1071q154 0 256 -57q114 -60 160 -176l-152 -62q-25 60 -86 94q-67 37 -178 37q-145 0 -215 -61q-66 -60 -66 -174v-273q0 -114 66 -174q70 -61 215 -61q111 0 178 37
q61 34 86 94l152 -62q-46 -116 -160 -176q-102 -57 -256 -57q-205 0 -322 102q-123 108 -123 297v273q0 189 123 297q117 102 322 102z" />
    <glyph glyph-name="Ccaron" unicode="&#x10c;" horiz-adv-x="1241" 
d="M881 1743l-260 -207l-259 207l64 80l195 -156l196 156zM633 1434q175 0 297 -84q121 -86 168 -248l-158 -45q-30 104 -104 157q-77 56 -203 56q-158 0 -242 -90q-84 -93 -84 -281v-362q0 -187 84 -283q84 -90 242 -90q127 0 203 55q74 53 104 158l158 -45
q-48 -163 -168 -246q-121 -86 -297 -86q-113 0 -203 35q-97 39 -160 110q-127 139 -127 392v362q0 249 127 391q65 71 160 109q90 35 203 35z" />
    <glyph glyph-name="ccaron" unicode="&#x10d;" horiz-adv-x="1146" 
d="M834 1380l-261 -206l-258 206l64 80l194 -155l197 155zM588 1071q154 0 256 -57q114 -60 160 -176l-152 -62q-25 60 -86 94q-67 37 -178 37q-145 0 -215 -61q-66 -60 -66 -174v-273q0 -114 66 -174q70 -61 215 -61q111 0 178 37q61 34 86 94l152 -62q-46 -116 -160 -176
q-102 -57 -256 -57q-205 0 -322 102q-123 108 -123 297v273q0 189 123 297q117 102 322 102z" />
    <glyph glyph-name="Dcaron" unicode="&#x10e;" horiz-adv-x="1267" 
d="M893 1743l-260 -207l-258 207l63 80l195 -156l196 156zM143 1434h490q115 0 205 -35q93 -37 159 -109q127 -142 127 -391v-362q0 -253 -127 -392q-63 -72 -159 -110q-90 -35 -205 -35h-490v1434zM307 1270v-1106h326q160 0 241 90q87 96 87 283v362q0 188 -87 281
q-81 90 -241 90h-326z" />
    <glyph glyph-name="dcaron" unicode="&#x10f;" horiz-adv-x="1236" 
d="M1032 1434v-1434h-164v72q-113 -72 -280 -72q-207 0 -324 102q-121 106 -121 297v273q0 191 121 297q117 102 324 102q167 0 280 -72v435h164zM1237 979h-102v455h102v-455zM588 907q-145 0 -215 -61q-66 -57 -66 -174v-273q0 -117 66 -174q70 -61 215 -61t215 61
q65 59 65 174v273q0 115 -65 174q-70 61 -215 61z" />
    <glyph glyph-name="Dcroat" unicode="&#x110;" horiz-adv-x="1267" 
d="M997 1290q127 -142 127 -391v-362q0 -253 -127 -392q-63 -72 -159 -110q-90 -35 -205 -35h-490v666h-123v102h123v666h490q115 0 205 -35q93 -37 159 -109zM961 537v362q0 188 -87 281q-81 90 -241 90h-326v-502h303v-102h-303v-502h326q160 0 241 90q87 96 87 283z" />
    <glyph glyph-name="dcroat" unicode="&#x111;" 
d="M1155 1223h-123v-1223h-164v72q-113 -72 -280 -72q-207 0 -324 102q-121 106 -121 297v273q0 191 121 297q117 102 324 102q167 0 280 -72v224h-303v102h303v109h164v-109h123v-102zM868 399v273q0 115 -65 174q-70 61 -215 61t-215 -61q-66 -57 -66 -174v-273
q0 -117 66 -174q70 -61 215 -61t215 61q65 59 65 174z" />
    <glyph glyph-name="Emacron" unicode="&#x112;" horiz-adv-x="1140" 
d="M752 1536h-363v102h363v-102zM997 1270h-690v-471h690v-164h-690v-471h690v-164h-854v1434h854v-164z" />
    <glyph glyph-name="emacron" unicode="&#x113;" 
d="M770 1174h-362v102h362v-102zM588 1071q206 0 323 -102q121 -106 121 -297v-217h-725v-56q0 -114 66 -174q70 -61 215 -61h24q112 0 179 37q61 34 83 94l152 -62q-47 -117 -158 -176q-102 -57 -256 -57h-24q-205 0 -322 102q-123 108 -123 297v273q0 189 123 297
q117 102 322 102zM588 907q-145 0 -215 -61q-66 -60 -66 -174v-54h561v54q0 118 -65 174q-70 61 -215 61z" />
    <glyph glyph-name="Edotaccent" unicode="&#x116;" horiz-adv-x="1140" 
d="M571 1679q29 0 50.5 -21t21.5 -50t-21.5 -50.5t-50.5 -21.5t-50 21.5t-21 50.5t21 50t50 21zM997 1270h-690v-471h690v-164h-690v-471h690v-164h-854v1434h854v-164z" />
    <glyph glyph-name="edotaccent" unicode="&#x117;" 
d="M588 1317q29 0 50 -21.5t21 -50.5t-21 -50t-50 -21t-50.5 21t-21.5 50t21.5 50.5t50.5 21.5zM588 1071q206 0 323 -102q121 -106 121 -297v-217h-725v-56q0 -114 66 -174q70 -61 215 -61h24q112 0 179 37q61 34 83 94l152 -62q-47 -117 -158 -176q-102 -57 -256 -57h-24
q-205 0 -322 102q-123 108 -123 297v273q0 189 123 297q117 102 322 102zM588 907q-145 0 -215 -61q-66 -60 -66 -174v-54h561v54q0 118 -65 174q-70 61 -215 61z" />
    <glyph glyph-name="Eogonek" unicode="&#x118;" horiz-adv-x="1140" 
d="M307 1270v-471h690v-164h-690v-471h690v-164q-67 0 -98 -31q-33 -33 -33 -98q0 -69 33 -98q29 -33 98 -33v-102q-111 0 -172 61t-61 172q0 72 31 129h-652v1434h854v-164h-690z" />
    <glyph glyph-name="eogonek" unicode="&#x119;" 
d="M307 455v-56q0 -114 66 -174q70 -61 215 -61h24q112 0 179 37q61 34 83 94l152 -62q-47 -117 -158 -176q-87 -49 -211 -55q-32 -8 -51 -27q-33 -33 -33 -98q0 -69 33 -98q29 -33 99 -33v-102q-112 0 -173 61t-61 172q0 72 31 129q-146 15 -236 96q-123 108 -123 297v273
q0 189 123 297q117 102 322 102q206 0 323 -102q121 -106 121 -297v-217h-725zM307 618h561v54q0 118 -65 174q-70 61 -215 61t-215 -61q-66 -60 -66 -174v-54z" />
    <glyph glyph-name="Ecaron" unicode="&#x11a;" horiz-adv-x="1140" 
d="M829 1743l-260 -207l-258 207l64 80l194 -156l197 156zM997 1270h-690v-471h690v-164h-690v-471h690v-164h-854v1434h854v-164z" />
    <glyph glyph-name="ecaron" unicode="&#x11b;" 
d="M848 1380l-260 -206l-258 206l63 80l195 -155l196 155zM588 1071q206 0 323 -102q121 -106 121 -297v-217h-725v-56q0 -114 66 -174q70 -61 215 -61h24q112 0 179 37q61 34 83 94l152 -62q-47 -117 -158 -176q-102 -57 -256 -57h-24q-205 0 -322 102q-123 108 -123 297
v273q0 189 123 297q117 102 322 102zM588 907q-145 0 -215 -61q-66 -60 -66 -174v-54h561v54q0 118 -65 174q-70 61 -215 61z" />
    <glyph glyph-name="Gbreve" unicode="&#x11e;" horiz-adv-x="1267" 
d="M764 1769h102q0 -111 -61 -172t-170 -61q-111 0 -172 61q-62 62 -62 172h103q0 -69 33 -98q29 -33 98 -33q65 0 98 33q31 31 31 98zM633 1434h24q176 0 295 -84q120 -83 168 -248l-157 -45q-29 103 -105 157q-77 56 -201 56h-24q-158 0 -242 -90q-84 -93 -84 -281v-362
q0 -187 84 -283q84 -90 242 -90q160 0 241 90q87 96 87 283v98h-328v164h491v-262q0 -253 -127 -392q-63 -72 -159 -110q-90 -35 -205 -35q-113 0 -203 35q-97 39 -160 110q-127 139 -127 392v362q0 249 127 391q65 71 160 109q90 35 203 35z" />
    <glyph glyph-name="gbreve" unicode="&#x11f;" 
d="M719 1407h102q0 -111 -61 -172t-170 -61q-111 0 -172 61q-62 62 -62 172h103q0 -69 33 -98q29 -33 98 -33q65 0 98 33q31 31 31 98zM588 1071q174 0 280 -72v72h164v-1034q0 -191 -121 -297q-117 -102 -323 -102h-25q-154 0 -256 57q-110 58 -157 176l151 61
q21 -57 84 -94q70 -37 178 -37h25q144 0 215 62q65 56 65 174v35q-110 -72 -280 -72q-205 0 -322 102q-123 108 -123 297v273q0 189 123 297q117 102 322 102zM588 907q-145 0 -215 -61q-66 -60 -66 -174v-273q0 -114 66 -174q74 -61 215 -61t215 61q65 56 65 174v273
q0 118 -65 174q-70 61 -215 61z" />
    <glyph glyph-name="Gdotaccent" unicode="&#x120;" horiz-adv-x="1267" 
d="M635 1679q29 0 50.5 -21t21.5 -50t-21.5 -50.5t-50.5 -21.5t-50.5 21.5t-21.5 50.5t21.5 50t50.5 21zM633 1434h24q176 0 295 -84q120 -83 168 -248l-157 -45q-29 103 -105 157q-77 56 -201 56h-24q-158 0 -242 -90q-84 -93 -84 -281v-362q0 -187 84 -283q84 -90 242 -90
q160 0 241 90q87 96 87 283v98h-328v164h491v-262q0 -253 -127 -392q-63 -72 -159 -110q-90 -35 -205 -35q-113 0 -203 35q-97 39 -160 110q-127 139 -127 392v362q0 249 127 391q65 71 160 109q90 35 203 35z" />
    <glyph glyph-name="gdotaccent" unicode="&#x121;" 
d="M588 1317q29 0 50 -21.5t21 -50.5t-21 -50t-50 -21t-50.5 21t-21.5 50t21.5 50.5t50.5 21.5zM588 1071q174 0 280 -72v72h164v-1034q0 -191 -121 -297q-117 -102 -323 -102h-25q-154 0 -256 57q-110 58 -157 176l151 61q21 -57 84 -94q70 -37 178 -37h25q144 0 215 62
q65 56 65 174v35q-110 -72 -280 -72q-205 0 -322 102q-123 108 -123 297v273q0 189 123 297q117 102 322 102zM588 907q-145 0 -215 -61q-66 -60 -66 -174v-273q0 -114 66 -174q74 -61 215 -61t215 61q65 56 65 174v273q0 118 -65 174q-70 61 -215 61z" />
    <glyph glyph-name="Gcommaaccent" unicode="&#x122;" horiz-adv-x="1267" 
d="M633 1434h24q176 0 295 -84q120 -83 168 -248l-157 -45q-29 103 -105 157q-77 56 -201 56h-24q-158 0 -242 -90q-84 -93 -84 -281v-362q0 -187 84 -283q84 -90 242 -90q160 0 241 90q87 96 87 283v98h-328v164h491v-262q0 -253 -127 -392q-63 -72 -159 -110
q-90 -35 -205 -35q-113 0 -203 35q-97 39 -160 110q-127 139 -127 392v362q0 249 127 391q65 71 160 109q90 35 203 35zM494 -514l57 -84q113 78 168 203q57 129 57 293h-102q0 -144 -47 -250q-45 -99 -133 -162z" />
    <glyph glyph-name="gcommaaccent" unicode="&#x123;" 
d="M729 1585l-57 84q-113 -78 -168 -203q-58 -132 -58 -292h103q0 143 47 249q45 99 133 162zM588 1071q174 0 280 -72v72h164v-1034q0 -191 -121 -297q-117 -102 -323 -102h-25q-154 0 -256 57q-110 58 -157 176l151 61q21 -57 84 -94q70 -37 178 -37h25q144 0 215 62
q65 56 65 174v35q-110 -72 -280 -72q-205 0 -322 102q-123 108 -123 297v273q0 189 123 297q117 102 322 102zM588 907q-145 0 -215 -61q-66 -60 -66 -174v-273q0 -114 66 -174q74 -61 215 -61t215 61q65 56 65 174v273q0 118 -65 174q-70 61 -215 61z" />
    <glyph glyph-name="Hbar" unicode="&#x126;" horiz-adv-x="1267" 
d="M1223 1065h-99v-1065h-163v635h-654v-635h-164v1065h-100v102h100v267h164v-267h654v267h163v-267h99v-102zM961 1065h-654v-266h654v266z" />
    <glyph glyph-name="hbar" unicode="&#x127;" 
d="M911 969q121 -106 121 -297v-672h-164v672q0 118 -65 174q-70 61 -215 61t-215 -61q-66 -60 -66 -174v-672h-164v1202h-123v103h123v129h164v-129h303v-103h-303v-203q113 72 281 72q206 0 323 -102z" />
    <glyph glyph-name="Itilde" unicode="&#x128;" horiz-adv-x="450" 
d="M39 1724q55 22 116 8t105 -59q50 -50 111 -28q30 15 30 36h103q0 -43 -25.5 -78.5t-68.5 -52.5q-32 -14 -72 -14q-84 0 -150 66q-50 47 -108 26q-31 -12 -31 -37h-102q0 43 24.5 78.5t67.5 54.5zM307 0h-164v1434h164v-1434z" />
    <glyph glyph-name="itilde" unicode="&#x129;" horiz-adv-x="450" 
d="M39 1362q55 22 116 8t105 -59q51 -51 111 -29q30 15 30 37h103q0 -43 -25.5 -78.5t-68.5 -52.5q-32 -14 -72 -14q-85 0 -150 65q-51 48 -108 27q-31 -12 -31 -37h-102q0 43 24.5 78.5t67.5 54.5zM307 0h-164v1071h164v-1071z" />
    <glyph glyph-name="Imacron" unicode="&#x12a;" horiz-adv-x="450" 
d="M406 1536h-363v102h363v-102zM307 0h-164v1434h164v-1434z" />
    <glyph glyph-name="imacron" unicode="&#x12b;" horiz-adv-x="450" 
d="M406 1174h-363v102h363v-102zM307 0h-164v1071h164v-1071z" />
    <glyph glyph-name="Iogonek" unicode="&#x12e;" horiz-adv-x="450" 
d="M307 1434v-1434q-67 0 -98 -31q-33 -33 -33 -98q0 -69 33 -98q29 -33 98 -33v-102q-111 0 -172 61t-61 172q0 109 61 170l8 8v1385h164z" />
    <glyph glyph-name="iogonek" unicode="&#x12f;" horiz-adv-x="491" 
d="M246 1229q-41 0 -72 30.5t-31 71.5q0 42 30.5 72.5t72.5 30.5q43 0 72.5 -30t29.5 -73q0 -42 -30 -72t-72 -30zM164 1071h164v-1071q-68 0 -99 -31q-32 -32 -32 -98q0 -70 32 -98q29 -33 99 -33v-102q-111 0 -172 61q-62 62 -62 172q0 108 62 170l8 8v1022z" />
    <glyph glyph-name="Idotaccent" unicode="&#x130;" horiz-adv-x="450" 
d="M225 1679q29 0 50.5 -21t21.5 -50t-21.5 -50.5t-50.5 -21.5t-50 21.5t-21 50.5t21 50t50 21zM307 0h-164v1434h164v-1434z" />
    <glyph glyph-name="dotlessi" unicode="&#x131;" horiz-adv-x="450" 
d="M307 0h-164v1071h164v-1071z" />
    <glyph glyph-name="IJ" unicode="&#x132;" horiz-adv-x="1038" 
d="M307 0h-164v1434h164v-1434zM895 1434v-897q0 -249 -111 -390q-119 -147 -333 -147v164q133 0 204 86q76 98 76 287v897h164z" />
    <glyph glyph-name="ij" unicode="&#x133;" horiz-adv-x="921" 
d="M246 1434q43 0 72.5 -30t29.5 -73q0 -42 -30 -72t-72 -30q-41 0 -72 30.5t-31 71.5q0 42 30.5 72.5t72.5 30.5zM676 1434q43 0 72.5 -30t29.5 -73q0 -42 -30 -72t-72 -30q-41 0 -72 30.5t-31 71.5q0 42 30.5 72.5t72.5 30.5zM328 0h-164v1071h164v-1071zM758 1071v-989
q0 -206 -103 -324q-105 -120 -297 -120v163q114 0 174 66q62 71 62 215v989h164z" />
    <glyph glyph-name="Kcommaaccent" unicode="&#x136;" horiz-adv-x="1306" 
d="M688 819l475 -819h-190l-393 680l-273 -354v-326h-164v1434h164v-840l649 840h207zM512 -514l57 -84q113 78 168 203q58 132 58 293h-103q0 -144 -47 -250q-45 -99 -133 -162z" />
    <glyph glyph-name="kcommaaccent" unicode="&#x137;" horiz-adv-x="1136" 
d="M307 565l465 506h221l-436 -475l436 -596h-202l-347 471l-137 -149v-322h-164v1434h164v-869zM428 -514l57 -84q113 78 168 203q58 132 58 293h-103q0 -144 -47 -250q-45 -99 -133 -162z" />
    <glyph glyph-name="Lacute" unicode="&#x139;" horiz-adv-x="1140" 
d="M553 1718l-365 -182l-45 92l363 180zM307 164h690v-164h-854v1434h164v-1270z" />
    <glyph glyph-name="lacute" unicode="&#x13a;" horiz-adv-x="595" 
d="M430 1718l-364 -182l-46 92l363 180zM307 1434v-1035q0 -127 43 -188q36 -47 103 -47v-164q-151 0 -236 117q-74 106 -74 282v1035h164z" />
    <glyph glyph-name="Lcommaaccent" unicode="&#x13b;" horiz-adv-x="1140" 
d="M307 164h690v-164h-854v1434h164v-1270zM430 -514l57 -84q113 78 168 203q58 132 58 293h-103q0 -144 -47 -250q-45 -99 -133 -162z" />
    <glyph glyph-name="lcommaaccent" unicode="&#x13c;" horiz-adv-x="595" 
d="M307 1434v-1035q0 -127 43 -188q36 -47 103 -47v-164q-151 0 -236 117q-74 106 -74 282v1035h164zM170 -514l57 -84q113 78 168 203q58 132 58 293h-103q0 -144 -47 -250q-45 -99 -133 -162z" />
    <glyph glyph-name="Lcaron" unicode="&#x13d;" horiz-adv-x="1140" 
d="M307 164h690v-164h-854v1434h164v-1270zM623 979h-103v455h103v-455z" />
    <glyph glyph-name="lcaron" unicode="&#x13e;" horiz-adv-x="595" 
d="M307 1434v-1035q0 -127 43 -188q36 -47 103 -47v-164q-151 0 -236 117q-74 106 -74 282v1035h164zM512 979h-102v455h102v-455z" />
    <glyph glyph-name="Ldot" unicode="&#x13f;" horiz-adv-x="1140" 
d="M307 164h690v-164h-854v1434h164v-1270zM571 788q29 0 50.5 -21t21.5 -50t-21.5 -50.5t-50.5 -21.5t-50 21.5t-21 50.5t21 50t50 21z" />
    <glyph glyph-name="ldot" unicode="&#x140;" horiz-adv-x="595" 
d="M307 1434v-1035q0 -127 43 -188q36 -47 103 -47v-164q-151 0 -236 117q-74 106 -74 282v1035h164zM481 788q29 0 50.5 -21t21.5 -50t-21.5 -50.5t-50.5 -21.5t-50 21.5t-21 50.5t21 50t50 21z" />
    <glyph glyph-name="Lslash" unicode="&#x141;" horiz-adv-x="1251" 
d="M1108 164v-164h-854v618l-168 -83l-45 92l213 106v701h164v-619l168 84l45 -92l-213 -107v-536h690z" />
    <glyph glyph-name="lslash" unicode="&#x142;" horiz-adv-x="595" 
d="M350 211q36 -47 103 -47v-164q-151 0 -236 117q-74 106 -74 282v219l-168 -83l-45 92l213 106v701h164v-619l168 84l45 -92l-213 -107v-301q0 -127 43 -188z" />
    <glyph glyph-name="Nacute" unicode="&#x143;" horiz-adv-x="1267" 
d="M840 1718l-365 -182l-45 92l363 180zM1124 0h-127l-690 1073v-1073h-164v1434h127l691 -1074v1074h163v-1434z" />
    <glyph glyph-name="nacute" unicode="&#x144;" 
d="M793 1356l-365 -182l-45 92l362 180zM588 1071q206 0 323 -102q121 -106 121 -297v-672h-164v672q0 118 -65 174q-70 61 -215 61t-215 -61q-66 -60 -66 -174v-672h-164v1071h164v-72q113 72 281 72z" />
    <glyph glyph-name="Ncommaaccent" unicode="&#x145;" horiz-adv-x="1267" 
d="M1124 0h-127l-690 1073v-1073h-164v1434h127l691 -1074v1074h163v-1434zM494 -514l57 -84q113 78 168 203q57 129 57 293h-102q0 -144 -47 -250q-45 -99 -133 -162z" />
    <glyph glyph-name="ncommaaccent" unicode="&#x146;" 
d="M588 1071q206 0 323 -102q121 -106 121 -297v-672h-164v672q0 118 -65 174q-70 61 -215 61t-215 -61q-66 -60 -66 -174v-672h-164v1071h164v-72q113 72 281 72zM446 -514l58 -84q113 78 168 203q57 129 57 293h-102q0 -144 -47 -250q-45 -98 -134 -162z" />
    <glyph glyph-name="Ncaron" unicode="&#x147;" horiz-adv-x="1267" 
d="M893 1743l-260 -207l-258 207l63 80l195 -156l196 156zM1124 0h-127l-690 1073v-1073h-164v1434h127l691 -1074v1074h163v-1434z" />
    <glyph glyph-name="ncaron" unicode="&#x148;" 
d="M848 1380l-260 -206l-258 206l63 80l195 -155l196 155zM588 1071q206 0 323 -102q121 -106 121 -297v-672h-164v672q0 118 -65 174q-70 61 -215 61t-215 -61q-66 -60 -66 -174v-672h-164v1071h164v-72q113 72 281 72z" />
    <glyph glyph-name="Eng" unicode="&#x14a;" horiz-adv-x="1267" 
d="M1124 1434v-1352q0 -205 -102 -322q-107 -122 -297 -122v163q114 0 174 66q56 65 62 190l-654 1016v-1073h-164v1434h127l691 -1074v1074h163z" />
    <glyph glyph-name="eng" unicode="&#x14b;" 
d="M588 1071q206 0 323 -102q121 -106 121 -297v-680q0 -171 -110 -264q-107 -90 -289 -90v163q121 0 182 52q53 47 53 139v680q0 118 -65 174q-70 61 -215 61t-215 -61q-66 -60 -66 -174v-672h-164v1071h164v-72q113 72 281 72z" />
    <glyph glyph-name="Omacron" unicode="&#x14c;" horiz-adv-x="1267" 
d="M815 1536h-362v102h362v-102zM633 1434q115 0 205 -35q93 -37 159 -109q127 -142 127 -391v-362q0 -253 -127 -392q-63 -72 -159 -110q-90 -35 -205 -35q-113 0 -203 35q-97 39 -160 110q-127 139 -127 392v362q0 249 127 391q65 71 160 109q90 35 203 35zM633 1270
q-158 0 -242 -90q-84 -93 -84 -281v-362q0 -187 84 -283q84 -90 242 -90q160 0 241 90q87 96 87 283v362q0 188 -87 281q-81 90 -241 90z" />
    <glyph glyph-name="omacron" unicode="&#x14d;" 
d="M770 1174h-362v102h362v-102zM588 1071q206 0 323 -102q121 -106 121 -297v-273q0 -191 -121 -297q-117 -102 -323 -102q-205 0 -322 102q-123 108 -123 297v273q0 189 123 297q117 102 322 102zM588 907q-145 0 -215 -61q-66 -60 -66 -174v-273q0 -114 66 -174
q70 -61 215 -61t215 61q65 56 65 174v273q0 118 -65 174q-70 61 -215 61z" />
    <glyph glyph-name="Ohungarumlaut" unicode="&#x150;" horiz-adv-x="1267" 
d="M643 1718l-227 -182l-64 80l228 182zM915 1718l-227 -182l-63 80l227 182zM633 1434q115 0 205 -35q93 -37 159 -109q127 -142 127 -391v-362q0 -253 -127 -392q-63 -72 -159 -110q-90 -35 -205 -35q-113 0 -203 35q-97 39 -160 110q-127 139 -127 392v362q0 249 127 391
q65 71 160 109q90 35 203 35zM633 1270q-158 0 -242 -90q-84 -93 -84 -281v-362q0 -187 84 -283q84 -90 242 -90q160 0 241 90q87 96 87 283v362q0 188 -87 281q-81 90 -241 90z" />
    <glyph glyph-name="ohungarumlaut" unicode="&#x151;" 
d="M598 1356l-227 -182l-64 79l228 183zM870 1356l-227 -182l-63 79l227 183zM588 1071q206 0 323 -102q121 -106 121 -297v-273q0 -191 -121 -297q-117 -102 -323 -102q-205 0 -322 102q-123 108 -123 297v273q0 189 123 297q117 102 322 102zM588 907q-145 0 -215 -61
q-66 -60 -66 -174v-273q0 -114 66 -174q70 -61 215 -61t215 61q65 56 65 174v273q0 118 -65 174q-70 61 -215 61z" />
    <glyph glyph-name="OE" unicode="&#x152;" horiz-adv-x="1957" 
d="M1124 799h691v-164h-691v-471h691v-164h-854v109q-53 -47 -123 -74q-90 -35 -205 -35q-113 0 -203 35q-97 39 -160 110q-127 139 -127 392v362q0 249 127 391q65 71 160 109q90 35 203 35q115 0 205 -35q70 -27 123 -74v109h854v-164h-691v-471zM874 254q87 96 87 283
v362q0 188 -87 281q-81 90 -241 90q-158 0 -242 -90q-84 -93 -84 -281v-362q0 -187 84 -283q84 -90 242 -90q160 0 241 90z" />
    <glyph glyph-name="oe" unicode="&#x153;" horiz-adv-x="1900" 
d="M1032 455v-56q0 -114 66 -174q70 -61 215 -61h24q112 0 179 37q61 34 83 94l152 -62q-47 -117 -158 -176q-102 -57 -256 -57h-24q-205 0 -322 102q-22 19 -41 41q-14 -20 -39 -41q-117 -102 -323 -102q-205 0 -322 102q-123 108 -123 297v273q0 189 123 297
q117 102 322 102q206 0 323 -102q25 -21 39 -41q19 22 41 41q117 102 322 102q206 0 323 -102q121 -106 121 -297v-217h-725zM803 225q65 56 65 174v273q0 118 -65 174q-70 61 -215 61t-215 -61q-66 -60 -66 -174v-273q0 -114 66 -174q70 -61 215 -61t215 61zM1098 846
q-66 -60 -66 -174v-54h561v54q0 118 -65 174q-70 61 -215 61t-215 -61z" />
    <glyph glyph-name="Racute" unicode="&#x154;" horiz-adv-x="1267" 
d="M840 1718l-365 -182l-45 92l363 180zM143 1434h490q228 0 358 -115q133 -121 133 -330t-133 -330q-109 -95 -278 -110l411 -549h-204l-410 545h-203v-545h-164v1434zM307 1270v-561h326q169 0 248 73q7 4 10 9q67 67 70 190v8q0 139 -80 207q-80 74 -248 74h-326z" />
    <glyph glyph-name="racute" unicode="&#x155;" horiz-adv-x="823" 
d="M616 1356l-364 -182l-45 92l362 180zM680 907h-92q-145 0 -215 -61q-66 -60 -66 -174v-672h-164v1071h164v-72q113 72 281 72h92v-164z" />
    <glyph glyph-name="Rcommaaccent" unicode="&#x156;" horiz-adv-x="1267" 
d="M143 1434h490q228 0 358 -115q133 -121 133 -330t-133 -330q-109 -95 -278 -110l411 -549h-204l-410 545h-203v-545h-164v1434zM307 1270v-561h326q169 0 248 73q7 4 10 9q67 67 70 190v8q0 139 -80 207q-80 74 -248 74h-326zM494 -514l57 -84q113 78 168 203
q57 129 57 293h-102q0 -144 -47 -250q-45 -99 -133 -162z" />
    <glyph glyph-name="rcommaaccent" unicode="&#x157;" horiz-adv-x="823" 
d="M680 907h-92q-145 0 -215 -61q-66 -60 -66 -174v-672h-164v1071h164v-72q113 72 281 72h92v-164zM-6 -514l57 -84q113 78 168 203q57 129 57 293h-102q0 -144 -47 -250q-45 -99 -133 -162z" />
    <glyph glyph-name="Rcaron" unicode="&#x158;" horiz-adv-x="1267" 
d="M893 1743l-260 -207l-258 207l63 80l195 -156l196 156zM143 1434h490q228 0 358 -115q133 -121 133 -330t-133 -330q-109 -95 -278 -110l411 -549h-204l-410 545h-203v-545h-164v1434zM307 1270v-561h326q169 0 248 73q7 4 10 9q67 67 70 190v8q0 139 -80 207
q-80 74 -248 74h-326z" />
    <glyph glyph-name="rcaron" unicode="&#x159;" horiz-adv-x="823" 
d="M672 1380l-260 -206l-258 206l63 80l195 -155l196 155zM680 907h-92q-145 0 -215 -61q-66 -60 -66 -174v-672h-164v1071h164v-72q113 72 281 72h92v-164z" />
    <glyph glyph-name="Sacute" unicode="&#x15a;" horiz-adv-x="1267" 
d="M840 1718l-365 -182l-45 92l363 180zM633 1434h24q176 0 295 -84q120 -83 168 -248l-157 -45q-29 103 -105 157q-77 56 -201 56h-24q-168 0 -252 -66q-74 -59 -74 -170t74 -170q83 -65 252 -65q226 0 354 -101q137 -109 137 -299t-137 -299q-126 -100 -354 -100h-23
q-176 0 -297 86q-118 81 -166 246l156 45q30 -105 107 -158q76 -55 200 -55h23q172 0 252 65q76 58 76 170t-76 170q-81 66 -252 66q-226 0 -352 100q-138 107 -138 299q0 191 138 301q129 99 352 99z" />
    <glyph glyph-name="sacute" unicode="&#x15b;" 
d="M793 1356l-365 -182l-45 92l362 180zM588 1071h24q154 0 256 -57q111 -59 158 -176l-152 -62q-22 60 -83 94q-67 37 -179 37h-24q-154 0 -226 -47q-55 -32 -55 -98q0 -63 55 -98q81 -46 226 -46q198 0 313 -71q63 -41 98 -101q33 -59 33 -137t-33 -137q-32 -56 -98 -100
q-116 -72 -313 -72h-25q-154 0 -256 57q-110 58 -157 176l151 62q21 -57 84 -94q70 -37 178 -37h25q158 0 225 47q55 32 55 98q0 64 -55 99q-78 47 -225 47q-200 0 -312 69q-61 38 -98 101q-35 62 -35 137t35 137q33 59 98 100q116 72 312 72z" />
    <glyph glyph-name="Scedilla" unicode="&#x15e;" horiz-adv-x="1267" 
d="M987 698q137 -109 137 -299t-137 -299q-123 -97 -342 -100l-29 -115q78 -6 123 -55.5t45 -132.5q0 -86 -50 -136t-138 -50h-90v102h90q46 0 66 20t20 64q0 42 -20 65q-21 21 -66 21h-111l56 221q-130 12 -228 82q-118 81 -166 246l156 45q30 -105 107 -158
q76 -55 200 -55h23q172 0 252 65q76 58 76 170t-76 170q-81 66 -252 66q-226 0 -352 100q-138 107 -138 299q0 191 138 301q129 99 352 99h24q176 0 295 -84q120 -83 168 -248l-157 -45q-29 103 -105 157q-77 56 -201 56h-24q-168 0 -252 -66q-74 -59 -74 -170t74 -170
q83 -65 252 -65q226 0 354 -101z" />
    <glyph glyph-name="scedilla" unicode="&#x15f;" 
d="M999 446q33 -59 33 -137t-33 -137q-32 -56 -98 -100q-113 -69 -303 -72l-29 -115q78 -6 123 -55.5t45 -132.5q0 -86 -50 -136t-138 -50h-90v102h90q45 0 65 20q21 21 21 64q0 41 -21 65q-21 21 -65 21h-111l56 221q-106 9 -187 53q-110 58 -157 176l151 62q21 -57 84 -94
q70 -37 178 -37h25q158 0 225 47q55 32 55 98q0 64 -55 99q-78 47 -225 47q-200 0 -312 69q-61 38 -98 101q-35 62 -35 137t35 137q33 59 98 100q116 72 312 72h24q154 0 256 -57q111 -59 158 -176l-152 -62q-22 60 -83 94q-67 37 -179 37h-24q-154 0 -226 -47
q-55 -32 -55 -98q0 -63 55 -98q81 -46 226 -46q198 0 313 -71q63 -41 98 -101z" />
    <glyph glyph-name="Scaron" unicode="&#x160;" horiz-adv-x="1267" 
d="M893 1743l-260 -207l-258 207l63 80l195 -156l196 156zM633 1434h24q176 0 295 -84q120 -83 168 -248l-157 -45q-29 103 -105 157q-77 56 -201 56h-24q-168 0 -252 -66q-74 -59 -74 -170t74 -170q83 -65 252 -65q226 0 354 -101q137 -109 137 -299t-137 -299
q-126 -100 -354 -100h-23q-176 0 -297 86q-118 81 -166 246l156 45q30 -105 107 -158q76 -55 200 -55h23q172 0 252 65q76 58 76 170t-76 170q-81 66 -252 66q-226 0 -352 100q-138 107 -138 299q0 191 138 301q129 99 352 99z" />
    <glyph glyph-name="scaron" unicode="&#x161;" 
d="M848 1380l-260 -206l-258 206l63 80l195 -155l196 155zM588 1071h24q154 0 256 -57q111 -59 158 -176l-152 -62q-22 60 -83 94q-67 37 -179 37h-24q-154 0 -226 -47q-55 -32 -55 -98q0 -63 55 -98q81 -46 226 -46q198 0 313 -71q63 -41 98 -101q33 -59 33 -137t-33 -137
q-32 -56 -98 -100q-116 -72 -313 -72h-25q-154 0 -256 57q-110 58 -157 176l151 62q21 -57 84 -94q70 -37 178 -37h25q158 0 225 47q55 32 55 98q0 64 -55 99q-78 47 -225 47q-200 0 -312 69q-61 38 -98 101q-35 62 -35 137t35 137q33 59 98 100q116 72 312 72z" />
    <glyph glyph-name="Tcedilla" unicode="&#x162;" horiz-adv-x="1148" 
d="M627 0l-29 -117q78 -6 123 -55.5t45 -132.5q0 -87 -50 -137t-138 -50h-91v103h91q45 0 65 20q21 21 21 64q0 41 -21 65q-21 21 -65 21h-111l55 219h-30v1270h-349v164h863v-164h-351v-1270h-28z" />
    <glyph glyph-name="tcedilla" unicode="&#x163;" horiz-adv-x="876" 
d="M733 0l-28 -117q78 -6 122.5 -55.5t44.5 -132.5q0 -87 -50 -137t-138 -50h-90v103h90q46 0 66 20t20 64q0 42 -20 65q-21 21 -66 21h-111l58 227q-132 18 -221 94q-121 106 -121 297v508h-146v164h146v363h164v-363h280v-164h-280v-508q0 -115 65 -174q70 -61 215 -61
v-164z" />
    <glyph glyph-name="Tcaron" unicode="&#x164;" horiz-adv-x="1148" 
d="M834 1743l-261 -207l-258 207l64 80l194 -156l197 156zM1006 1270h-351v-1270h-163v1270h-349v164h863v-164z" />
    <glyph glyph-name="tcaron" unicode="&#x165;" horiz-adv-x="876" 
d="M733 1194h-102v455h102v-455zM453 1071h280v-164h-280v-508q0 -115 65 -174q70 -61 215 -61v-164q-206 0 -323 102q-121 106 -121 297v508h-146v164h146v363h164v-363z" />
    <glyph glyph-name="Tbar" unicode="&#x166;" horiz-adv-x="1148" 
d="M655 1270v-502h215v-102h-215v-666h-163v666h-211v102h211v502h-349v164h863v-164h-351z" />
    <glyph glyph-name="tbar" unicode="&#x167;" horiz-adv-x="876" 
d="M453 907v-139h280v-102h-280v-267q0 -115 65 -174q70 -61 215 -61v-164q-206 0 -323 102q-121 106 -121 297v267h-146v102h146v139h-146v164h146v363h164v-363h280v-164h-280z" />
    <glyph glyph-name="Utilde" unicode="&#x168;" horiz-adv-x="1267" 
d="M449 1724q55 22 116 8t105 -59q50 -50 110 -28q31 15 31 36h102q0 -43 -25.5 -78.5t-68.5 -52.5q-32 -14 -71 -14q-84 0 -150 66q-50 48 -109 26q-30 -12 -30 -37h-103q0 43 25 78.5t68 54.5zM1124 1434v-897q0 -253 -127 -392q-63 -72 -159 -110q-90 -35 -205 -35
q-113 0 -203 35q-97 39 -160 110q-127 139 -127 392v897h164v-897q0 -187 84 -283q84 -90 242 -90q160 0 241 90q87 96 87 283v897h163z" />
    <glyph glyph-name="utilde" unicode="&#x169;" 
d="M401 1362q55 22 116.5 8t105.5 -59q51 -51 110 -29q31 16 31 37h102q0 -43 -25.5 -78.5t-68.5 -52.5q-32 -14 -72 -14q-84 0 -149 65q-51 48 -109 27q-30 -12 -30 -37h-103q0 43 24.5 78.5t67.5 54.5zM1032 0h-164v72q-113 -72 -280 -72q-207 0 -324 102
q-121 106 -121 297v672h164v-672q0 -114 66 -174q70 -61 215 -61t215 61q65 59 65 174v672h164v-1071z" />
    <glyph glyph-name="Umacron" unicode="&#x16a;" horiz-adv-x="1267" 
d="M815 1536h-362v102h362v-102zM1124 1434v-897q0 -253 -127 -392q-63 -72 -159 -110q-90 -35 -205 -35q-113 0 -203 35q-97 39 -160 110q-127 139 -127 392v897h164v-897q0 -187 84 -283q84 -90 242 -90q160 0 241 90q87 96 87 283v897h163z" />
    <glyph glyph-name="umacron" unicode="&#x16b;" 
d="M770 1174h-362v102h362v-102zM1032 0h-164v72q-113 -72 -280 -72q-207 0 -324 102q-121 106 -121 297v672h164v-672q0 -114 66 -174q70 -61 215 -61t215 61q65 59 65 174v672h164v-1071z" />
    <glyph glyph-name="Uring" unicode="&#x16e;" horiz-adv-x="1267" 
d="M633 1911q88 0 138 -50.5t50 -138.5q0 -86 -50 -136t-138 -50q-86 0 -136.5 50t-50.5 136q0 88 50.5 138.5t136.5 50.5zM633 1808q-47 0 -64 -20q-20 -20 -20 -66t20 -63q18 -21 64 -21q44 0 65 21q21 18 21 63t-21 66q-20 20 -65 20zM1124 1434v-897q0 -253 -127 -392
q-63 -72 -159 -110q-90 -35 -205 -35q-113 0 -203 35q-97 39 -160 110q-127 139 -127 392v897h164v-897q0 -187 84 -283q84 -90 242 -90q160 0 241 90q87 96 87 283v897h163z" />
    <glyph glyph-name="uring" unicode="&#x16f;" 
d="M588 1548q88 0 138 -50t50 -138q0 -86 -50 -136t-138 -50q-86 0 -136.5 50t-50.5 136q0 88 50.5 138t136.5 50zM588 1446q-46 0 -64 -21q-20 -20 -20 -65q0 -47 20 -64q17 -20 64 -20q45 0 65 20q21 18 21 64q0 44 -21 65t-65 21zM1032 0h-164v72q-113 -72 -280 -72
q-207 0 -324 102q-121 106 -121 297v672h164v-672q0 -114 66 -174q70 -61 215 -61t215 61q65 59 65 174v672h164v-1071z" />
    <glyph glyph-name="Uhungarumlaut" unicode="&#x170;" horiz-adv-x="1267" 
d="M643 1718l-227 -182l-64 80l228 182zM915 1718l-227 -182l-63 80l227 182zM1124 1434v-897q0 -253 -127 -392q-63 -72 -159 -110q-90 -35 -205 -35q-113 0 -203 35q-97 39 -160 110q-127 139 -127 392v897h164v-897q0 -187 84 -283q84 -90 242 -90q160 0 241 90
q87 96 87 283v897h163z" />
    <glyph glyph-name="uhungarumlaut" unicode="&#x171;" 
d="M598 1356l-227 -182l-64 79l228 183zM870 1356l-227 -182l-63 79l227 183zM1032 0h-164v72q-113 -72 -280 -72q-207 0 -324 102q-121 106 -121 297v672h164v-672q0 -114 66 -174q70 -61 215 -61t215 61q65 59 65 174v672h164v-1071z" />
    <glyph glyph-name="Uogonek" unicode="&#x172;" horiz-adv-x="1267" 
d="M1124 1434v-897q0 -253 -127 -392q-63 -72 -159 -110q-78 -28 -152 -33q-20 -6 -33 -20q-32 -32 -32 -99q0 -70 32 -98q29 -33 99 -33v-102q-111 0 -172 61q-62 62 -62 172q0 71 27 123q-67 10 -115 29q-97 39 -160 110q-127 139 -127 392v897h164v-897q0 -187 84 -283
q84 -90 242 -90q160 0 241 90q87 96 87 283v897h163z" />
    <glyph glyph-name="uogonek" unicode="&#x173;" 
d="M1032 1071v-1071q-67 0 -98 -31q-33 -33 -33 -98q0 -69 33 -98q29 -33 98 -33v-102q-111 0 -172 61t-61 172q0 109 61 170l8 8v23q-113 -72 -280 -72q-207 0 -324 102q-121 106 -121 297v672h164v-672q0 -114 66 -174q70 -61 215 -61t215 61q65 59 65 174v672h164z" />
    <glyph glyph-name="Wcircumflex" unicode="&#x174;" horiz-adv-x="2144" 
d="M1071 1692l-194 -156l-64 80l258 207l260 -207l-63 -80zM1540 0h-119l-348 1083l-350 -1083h-119l-461 1434h172l349 -1084l348 1084h121l348 -1084l348 1084h172z" />
    <glyph glyph-name="wcircumflex" unicode="&#x175;" horiz-adv-x="1980" 
d="M989 1329l-194 -155l-64 79l258 207l260 -207l-63 -79zM1409 0h-111l-309 768l-307 -768h-111l-428 1071h176l308 -768l307 768h113l307 -768l307 768h176z" />
    <glyph glyph-name="Ycircumflex" unicode="&#x176;" horiz-adv-x="1368" 
d="M684 1692l-195 -156l-63 80l258 207l260 -207l-63 -80zM1225 1434l-459 -918v-516h-164v516l-459 918h183l358 -715l358 715h183z" />
    <glyph glyph-name="ycircumflex" unicode="&#x177;" 
d="M588 1329l-195 -155l-63 79l258 207l260 -207l-64 -79zM1032 1071v-1034q0 -189 -123 -297q-117 -102 -321 -102h-25q-154 0 -256 57q-110 58 -157 176l151 61q22 -59 84 -94q67 -37 178 -37h25q144 0 215 62q65 59 65 174v35q-113 -72 -280 -72q-207 0 -324 102
q-121 106 -121 297v672h164v-672q0 -117 66 -174q74 -61 215 -61t215 61q65 59 65 174v672h164z" />
    <glyph glyph-name="Ydieresis" unicode="&#x178;" horiz-adv-x="1368" 
d="M571 1679q29 0 50.5 -21t21.5 -50t-21.5 -50.5t-50.5 -21.5t-50 21.5t-21 50.5t21 50t50 21zM797 1679q29 0 50 -21t21 -50t-21 -50.5t-50 -21.5t-50.5 21.5t-21.5 50.5t21.5 50t50.5 21zM1225 1434l-459 -918v-516h-164v516l-459 918h183l358 -715l358 715h183z" />
    <glyph glyph-name="Zacute" unicode="&#x179;" horiz-adv-x="1193" 
d="M803 1718l-365 -182l-45 92l363 180zM1051 1210l-748 -1046h748v-164h-908v223l748 1047h-748v164h908v-224z" />
    <glyph glyph-name="zacute" unicode="&#x17a;" horiz-adv-x="1103" 
d="M758 1356l-365 -182l-45 92l363 180zM961 866l-633 -702h633v-164h-818v205l633 702h-633v164h818v-205z" />
    <glyph glyph-name="Zdotaccent" unicode="&#x17b;" horiz-adv-x="1193" 
d="M598 1679q29 0 50.5 -21t21.5 -50t-21.5 -50.5t-50.5 -21.5t-50.5 21.5t-21.5 50.5t21.5 50t50.5 21zM1051 1210l-748 -1046h748v-164h-908v223l748 1047h-748v164h908v-224z" />
    <glyph glyph-name="zdotaccent" unicode="&#x17c;" horiz-adv-x="1103" 
d="M553 1317q29 0 50.5 -21.5t21.5 -50.5t-21.5 -50t-50.5 -21t-50.5 21t-21.5 50t21.5 50.5t50.5 21.5zM961 866l-633 -702h633v-164h-818v205l633 702h-633v164h818v-205z" />
    <glyph glyph-name="Zcaron" unicode="&#x17d;" horiz-adv-x="1193" 
d="M856 1743l-260 -207l-258 207l63 80l195 -156l197 156zM1051 1210l-748 -1046h748v-164h-908v223l748 1047h-748v164h908v-224z" />
    <glyph glyph-name="zcaron" unicode="&#x17e;" horiz-adv-x="1103" 
d="M811 1380l-260 -206l-258 206l63 80l195 -155l197 155zM961 866l-633 -702h633v-164h-818v205l633 702h-633v164h818v-205z" />
    <glyph glyph-name="Ohorn" unicode="&#x1a0;" horiz-adv-x="1366" 
d="M1284 1434v-181q0 -102 -45 -166q-41 -57 -123 -67q8 -49 8 -121v-362q0 -253 -127 -392q-63 -72 -159 -110q-90 -35 -205 -35q-113 0 -203 35q-97 39 -160 110q-127 139 -127 392v362q0 249 127 391q65 71 160 109q90 35 203 35q115 0 205 -35q93 -37 159 -109
q68 -77 95 -168h4q43 0 61 27q25 36 25 104v181h102zM961 537v362q0 188 -87 281q-81 90 -241 90q-158 0 -242 -90q-84 -93 -84 -281v-362q0 -187 84 -283q84 -90 242 -90q160 0 241 90q87 96 87 283z" />
    <glyph glyph-name="ohorn" unicode="&#x1a1;" horiz-adv-x="1253" 
d="M1192 1071v-180q0 -102 -45 -166q-42 -57 -115 -66v-260q0 -191 -121 -297q-117 -102 -323 -102q-205 0 -322 102q-123 108 -123 297v273q0 189 123 297q117 102 322 102q206 0 323 -102q92 -79 113 -207q30 5 41 24q25 36 25 105v180h102zM868 399v273q0 118 -65 174
q-70 61 -215 61t-215 -61q-66 -60 -66 -174v-273q0 -114 66 -174q70 -61 215 -61t215 61q65 56 65 174z" />
    <glyph glyph-name="Uhorn" unicode="&#x1af;" horiz-adv-x="1386" 
d="M1366 1434v-181q0 -102 -45 -166q-49 -67 -143 -67h-54v-483q0 -253 -127 -392q-63 -72 -159 -110q-90 -35 -205 -35q-113 0 -203 35q-97 39 -160 110q-127 139 -127 392v897h164v-897q0 -187 84 -283q84 -90 242 -90q160 0 241 90q87 96 87 283v897h163v-312h54
q43 0 61 27q25 36 25 104v181h102z" />
    <glyph glyph-name="uhorn" unicode="&#x1b0;" horiz-adv-x="1294" 
d="M1274 1071v-180q0 -102 -45 -166q-50 -68 -144 -68h-53v-657h-164v72q-113 -72 -280 -72q-207 0 -324 102q-121 106 -121 297v672h164v-672q0 -114 66 -174q70 -61 215 -61t215 61q65 59 65 174v672h164v-311h53q45 0 62 26q24 34 24 105v180h103z" />
    <glyph glyph-name="Acaron" unicode="&#x1cd;" horiz-adv-x="1425" 
d="M973 1743l-260 -207l-258 207l63 80l195 -156l196 156zM1282 0h-172l-98 272h-598l-97 -272h-174l512 1434h115zM473 436h481l-241 672z" />
    <glyph glyph-name="acaron" unicode="&#x1ce;" 
d="M848 1380l-260 -206l-258 206l63 80l195 -155l196 155zM586 1071h2q206 0 323 -102q121 -106 121 -297v-672h-164v72q-113 -72 -280 -72h-45q-180 0 -283 74q-117 82 -117 235q0 155 117 234q104 75 283 75h325v54q0 115 -65 174q-70 61 -215 61h-2q-134 0 -205 -53
q-65 -50 -74 -145l-164 16q18 167 140 260q115 86 303 86zM868 455h-325q-125 0 -189 -45q-47 -33 -47 -101q0 -66 47 -102q61 -43 189 -43h45q145 0 215 61q65 59 65 174v56z" />
    <glyph glyph-name="Icaron" unicode="&#x1cf;" horiz-adv-x="450" 
d="M483 1743l-260 -207l-258 207l64 80l194 -156l197 156zM307 0h-164v1434h164v-1434z" />
    <glyph glyph-name="icaron" unicode="&#x1d0;" horiz-adv-x="450" 
d="M483 1380l-260 -206l-258 206l64 80l194 -155l197 155zM307 0h-164v1071h164v-1071z" />
    <glyph glyph-name="Ocaron" unicode="&#x1d1;" horiz-adv-x="1267" 
d="M893 1743l-260 -207l-258 207l63 80l195 -156l196 156zM633 1434q115 0 205 -35q93 -37 159 -109q127 -142 127 -391v-362q0 -253 -127 -392q-63 -72 -159 -110q-90 -35 -205 -35q-113 0 -203 35q-97 39 -160 110q-127 139 -127 392v362q0 249 127 391q65 71 160 109
q90 35 203 35zM633 1270q-158 0 -242 -90q-84 -93 -84 -281v-362q0 -187 84 -283q84 -90 242 -90q160 0 241 90q87 96 87 283v362q0 188 -87 281q-81 90 -241 90z" />
    <glyph glyph-name="ocaron" unicode="&#x1d2;" 
d="M848 1380l-260 -206l-258 206l63 80l195 -155l196 155zM588 1071q206 0 323 -102q121 -106 121 -297v-273q0 -191 -121 -297q-117 -102 -323 -102q-205 0 -322 102q-123 108 -123 297v273q0 189 123 297q117 102 322 102zM588 907q-145 0 -215 -61q-66 -60 -66 -174v-273
q0 -114 66 -174q70 -61 215 -61t215 61q65 56 65 174v273q0 118 -65 174q-70 61 -215 61z" />
    <glyph glyph-name="Ucaron" unicode="&#x1d3;" horiz-adv-x="1267" 
d="M893 1743l-260 -207l-258 207l63 80l195 -156l196 156zM1124 1434v-897q0 -253 -127 -392q-63 -72 -159 -110q-90 -35 -205 -35q-113 0 -203 35q-97 39 -160 110q-127 139 -127 392v897h164v-897q0 -187 84 -283q84 -90 242 -90q160 0 241 90q87 96 87 283v897h163z" />
    <glyph glyph-name="ucaron" unicode="&#x1d4;" 
d="M848 1380l-260 -206l-258 206l63 80l195 -155l196 155zM1032 0h-164v72q-113 -72 -280 -72q-207 0 -324 102q-121 106 -121 297v672h164v-672q0 -114 66 -174q70 -61 215 -61t215 61q65 59 65 174v672h164v-1071z" />
    <glyph glyph-name="Udieresismacron" unicode="&#x1d5;" horiz-adv-x="1267" 
d="M817 1741h-362v102h362v-102zM522 1679q29 0 50.5 -21t21.5 -50t-21.5 -50.5t-50.5 -21.5t-50 21.5t-21 50.5t21 50t50 21zM748 1679q29 0 50 -21t21 -50t-21 -50.5t-50 -21.5t-50.5 21.5t-21.5 50.5t21.5 50t50.5 21zM1124 1434v-897q0 -253 -127 -392
q-63 -72 -159 -110q-90 -35 -205 -35q-113 0 -203 35q-97 39 -160 110q-127 139 -127 392v897h164v-897q0 -187 84 -283q84 -90 242 -90q160 0 241 90q87 96 87 283v897h163z" />
    <glyph glyph-name="udieresismacron" unicode="&#x1d6;" 
d="M770 1378h-362v103h362v-103zM475 1317q29 0 50.5 -21.5t21.5 -50.5t-21.5 -50t-50.5 -21t-50.5 21t-21.5 50t21.5 50.5t50.5 21.5zM700 1317q29 0 50.5 -21.5t21.5 -50.5t-21.5 -50t-50.5 -21t-50 21t-21 50t21 50.5t50 21.5zM1032 0h-164v72q-113 -72 -280 -72
q-207 0 -324 102q-121 106 -121 297v672h164v-672q0 -114 66 -174q70 -61 215 -61t215 61q65 59 65 174v672h164v-1071z" />
    <glyph glyph-name="Udieresisacute" unicode="&#x1d7;" horiz-adv-x="1267" 
d="M840 1903l-365 -183l-45 92l363 181zM522 1679q29 0 50.5 -21t21.5 -50t-21.5 -50.5t-50.5 -21.5t-50 21.5t-21 50.5t21 50t50 21zM748 1679q29 0 50 -21t21 -50t-21 -50.5t-50 -21.5t-50.5 21.5t-21.5 50.5t21.5 50t50.5 21zM1124 1434v-897q0 -253 -127 -392
q-63 -72 -159 -110q-90 -35 -205 -35q-113 0 -203 35q-97 39 -160 110q-127 139 -127 392v897h164v-897q0 -187 84 -283q84 -90 242 -90q160 0 241 90q87 96 87 283v897h163z" />
    <glyph glyph-name="udieresisacute" unicode="&#x1d8;" 
d="M793 1540l-365 -182l-45 92l362 180zM475 1317q29 0 50.5 -21.5t21.5 -50.5t-21.5 -50t-50.5 -21t-50.5 21t-21.5 50t21.5 50.5t50.5 21.5zM700 1317q29 0 50.5 -21.5t21.5 -50.5t-21.5 -50t-50.5 -21t-50 21t-21 50t21 50.5t50 21.5zM1032 0h-164v72q-113 -72 -280 -72
q-207 0 -324 102q-121 106 -121 297v672h164v-672q0 -114 66 -174q70 -61 215 -61t215 61q65 59 65 174v672h164v-1071z" />
    <glyph glyph-name="Udieresiscaron" unicode="&#x1d9;" horiz-adv-x="1267" 
d="M893 1907l-260 -207l-258 207l63 80l195 -156l196 156zM522 1679q29 0 50.5 -21t21.5 -50t-21.5 -50.5t-50.5 -21.5t-50 21.5t-21 50.5t21 50t50 21zM748 1679q29 0 50 -21t21 -50t-21 -50.5t-50 -21.5t-50.5 21.5t-21.5 50.5t21.5 50t50.5 21zM1124 1434v-897
q0 -253 -127 -392q-63 -72 -159 -110q-90 -35 -205 -35q-113 0 -203 35q-97 39 -160 110q-127 139 -127 392v897h164v-897q0 -187 84 -283q84 -90 242 -90q160 0 241 90q87 96 87 283v897h163z" />
    <glyph glyph-name="udieresiscaron" unicode="&#x1da;" 
d="M848 1544l-260 -207l-258 207l63 80l195 -156l196 156zM477 1317q29 0 50.5 -21.5t21.5 -50.5t-21.5 -50t-50.5 -21t-50 21t-21 50t21 50.5t50 21.5zM702 1317q29 0 50.5 -21.5t21.5 -50.5t-21.5 -50t-50.5 -21t-50 21t-21 50t21 50.5t50 21.5zM1032 0h-164v72
q-113 -72 -280 -72q-207 0 -324 102q-121 106 -121 297v672h164v-672q0 -114 66 -174q70 -61 215 -61t215 61q65 59 65 174v672h164v-1071z" />
    <glyph glyph-name="Udieresisgrave" unicode="&#x1db;" horiz-adv-x="1267" 
d="M840 1812l-45 -92l-365 183l47 90zM522 1679q29 0 50.5 -21t21.5 -50t-21.5 -50.5t-50.5 -21.5t-50 21.5t-21 50.5t21 50t50 21zM748 1679q29 0 50 -21t21 -50t-21 -50.5t-50 -21.5t-50.5 21.5t-21.5 50.5t21.5 50t50.5 21zM1124 1434v-897q0 -253 -127 -392
q-63 -72 -159 -110q-90 -35 -205 -35q-113 0 -203 35q-97 39 -160 110q-127 139 -127 392v897h164v-897q0 -187 84 -283q84 -90 242 -90q160 0 241 90q87 96 87 283v897h163z" />
    <glyph glyph-name="udieresisgrave" unicode="&#x1dc;" 
d="M793 1450l-45 -92l-365 182l47 90zM475 1317q29 0 50.5 -21.5t21.5 -50.5t-21.5 -50t-50.5 -21t-50.5 21t-21.5 50t21.5 50.5t50.5 21.5zM700 1317q29 0 50.5 -21.5t21.5 -50.5t-21.5 -50t-50.5 -21t-50 21t-21 50t21 50.5t50 21.5zM1032 0h-164v72q-113 -72 -280 -72
q-207 0 -324 102q-121 106 -121 297v672h164v-672q0 -114 66 -174q70 -61 215 -61t215 61q65 59 65 174v672h164v-1071z" />
    <glyph glyph-name="Scommaaccent" unicode="&#x218;" horiz-adv-x="1267" 
d="M633 1434h24q176 0 295 -84q120 -83 168 -248l-157 -45q-29 103 -105 157q-77 56 -201 56h-24q-168 0 -252 -66q-74 -59 -74 -170t74 -170q83 -65 252 -65q226 0 354 -101q137 -109 137 -299t-137 -299q-126 -100 -354 -100h-23q-176 0 -297 86q-118 81 -166 246l156 45
q30 -105 107 -158q76 -55 200 -55h23q172 0 252 65q76 58 76 170t-76 170q-81 66 -252 66q-226 0 -352 100q-138 107 -138 299q0 191 138 301q129 99 352 99zM494 -514l57 -84q113 78 168 203q57 129 57 293h-102q0 -144 -47 -250q-45 -99 -133 -162z" />
    <glyph glyph-name="scommaaccent" unicode="&#x219;" 
d="M588 1071h24q154 0 256 -57q111 -59 158 -176l-152 -62q-22 60 -83 94q-67 37 -179 37h-24q-154 0 -226 -47q-55 -32 -55 -98q0 -63 55 -98q81 -46 226 -46q198 0 313 -71q63 -41 98 -101q33 -59 33 -137t-33 -137q-32 -56 -98 -100q-116 -72 -313 -72h-25
q-154 0 -256 57q-110 58 -157 176l151 62q21 -57 84 -94q70 -37 178 -37h25q158 0 225 47q55 32 55 98q0 64 -55 99q-78 47 -225 47q-200 0 -312 69q-61 38 -98 101q-35 62 -35 137t35 137q33 59 98 100q116 72 312 72zM446 -514l58 -84q113 78 168 203q57 129 57 293h-102
q0 -144 -47 -250q-45 -98 -134 -162z" />
    <glyph glyph-name="uni021A" unicode="&#x21a;" horiz-adv-x="1148" 
d="M1006 1270h-351v-1270h-163v1270h-349v164h863v-164zM342 -514l57 -84q113 78 168 203q58 132 58 293h-103q0 -144 -47 -250q-45 -99 -133 -162z" />
    <glyph glyph-name="uni021B" unicode="&#x21b;" horiz-adv-x="876" 
d="M453 1071h280v-164h-280v-508q0 -115 65 -174q70 -61 215 -61v-164q-206 0 -323 102q-121 106 -121 297v508h-146v164h146v363h164v-363zM297 -514l57 -84q113 78 168 203q58 132 58 293h-103q0 -144 -47 -250q-45 -99 -133 -162z" />
    <glyph glyph-name="circumflex" unicode="&#x2c6;" horiz-adv-x="518" 
d="M258 1692l-195 -156l-63 80l258 207l260 -207l-63 -80z" />
    <glyph glyph-name="caron" unicode="&#x2c7;" horiz-adv-x="518" 
d="M518 1743l-260 -207l-258 207l63 80l195 -156l197 156z" />
    <glyph glyph-name="breve" unicode="&#x2d8;" horiz-adv-x="464" 
d="M362 1769h103q0 -110 -62 -172q-61 -61 -170 -61q-111 0 -172 61t-61 172h102q0 -69 33 -98q29 -33 98 -33q66 0 99 33q30 30 30 98z" />
    <glyph glyph-name="dotaccent" unicode="&#x2d9;" horiz-adv-x="143" 
d="M72 1679q29 0 50 -21t21 -50t-21 -50.5t-50 -21.5t-50.5 21.5t-21.5 50.5t21.5 50t50.5 21z" />
    <glyph glyph-name="ring" unicode="&#x2da;" horiz-adv-x="374" 
d="M186 1911q88 0 138.5 -50.5t50.5 -138.5q0 -86 -50.5 -136t-138.5 -50q-86 0 -136 50t-50 136q0 88 50 138.5t136 50.5zM186 1808q-46 0 -63 -20q-21 -21 -21 -66t21 -63q18 -21 63 -21t66 21q20 17 20 63t-20 66t-66 20z" />
    <glyph glyph-name="ogonek" unicode="&#x2db;" horiz-adv-x="233" 
d="M233 102v-102q-67 0 -98 -31q-33 -33 -33 -98q0 -69 33 -98q29 -33 98 -33v-102q-111 0 -172 61t-61 172q0 109 61 170t172 61z" />
    <glyph glyph-name="tilde" unicode="&#x2dc;" horiz-adv-x="557" 
d="M92 1724q55 22 116 8t105 -59q50 -50 111 -28q31 15 31 36h102q0 -43 -25.5 -78.5t-68.5 -52.5q-32 -14 -72 -14q-83 0 -149 66q-50 48 -109 26q-31 -12 -31 -37h-102q0 43 24.5 78.5t67.5 54.5z" />
    <glyph glyph-name="hungarumlaut" unicode="&#x2dd;" horiz-adv-x="563" 
d="M291 1718l-228 -182l-63 80l227 182zM563 1718l-227 -182l-64 80l228 182z" />
    <glyph glyph-name="hookabovecomb" unicode="&#x309;" horiz-adv-x="0" 
d="M0 1763v103q76 0 121 -45q43 -43 43 -121q0 -76 -43 -119q-45 -45 -121 -45v102q33 0 47 14.5t14 47.5q0 34 -14 48.5t-47 14.5z" />
    <glyph glyph-name="uni0312" unicode="&#x312;" horiz-adv-x="0" 
d="M283 1585l-58 84q-113 -78 -168 -203q-57 -129 -57 -292h102q0 141 48 249q45 99 133 162z" />
    <glyph glyph-name="uni031B" unicode="&#x31b;" horiz-adv-x="0" 
d="M324 1434v-181q0 -102 -45 -166q-49 -67 -144 -67h-135v102h135q44 0 62 27q24 35 24 104v181h103z" />
    <glyph glyph-name="dotbelowcomb" unicode="&#x323;" horiz-adv-x="0" 
d="M72 -102q29 0 50 -21.5t21 -50.5t-21 -50.5t-50 -21.5t-50.5 21.5t-21.5 50.5t21.5 50.5t50.5 21.5z" />
    <glyph glyph-name="uni0326" unicode="&#x326;" horiz-adv-x="0" 
d="M0 -514l57 -84q113 78 168 203q58 132 58 293h-103q0 -144 -47 -250q-45 -99 -133 -162z" />
    <glyph glyph-name="Wgrave" unicode="&#x1e80;" horiz-adv-x="2144" 
d="M1278 1628l-45 -92l-365 182l47 90zM1540 0h-119l-348 1083l-350 -1083h-119l-461 1434h172l349 -1084l348 1084h121l348 -1084l348 1084h172z" />
    <glyph glyph-name="wgrave" unicode="&#x1e81;" horiz-adv-x="1980" 
d="M1196 1266l-45 -92l-365 182l48 90zM1409 0h-111l-309 768l-307 -768h-111l-428 1071h176l308 -768l307 768h113l307 -768l307 768h176z" />
    <glyph glyph-name="Wacute" unicode="&#x1e82;" horiz-adv-x="2144" 
d="M1278 1718l-365 -182l-45 92l363 180zM1540 0h-119l-348 1083l-350 -1083h-119l-461 1434h172l349 -1084l348 1084h121l348 -1084l348 1084h172z" />
    <glyph glyph-name="wacute" unicode="&#x1e83;" horiz-adv-x="1980" 
d="M1196 1356l-365 -182l-45 92l363 180zM1409 0h-111l-309 768l-307 -768h-111l-428 1071h176l308 -768l307 768h113l307 -768l307 768h176z" />
    <glyph glyph-name="Wdieresis" unicode="&#x1e84;" horiz-adv-x="2144" 
d="M961 1679q29 0 50 -21t21 -50t-21 -50.5t-50 -21.5t-50.5 21.5t-21.5 50.5t21.5 50t50.5 21zM1186 1679q29 0 50 -21t21 -50t-21 -50.5t-50 -21.5t-50.5 21.5t-21.5 50.5t21.5 50t50.5 21zM1540 0h-119l-348 1083l-350 -1083h-119l-461 1434h172l349 -1084l348 1084h121
l348 -1084l348 1084h172z" />
    <glyph glyph-name="wdieresis" unicode="&#x1e85;" horiz-adv-x="1980" 
d="M879 1317q29 0 50 -21.5t21 -50.5t-21 -50t-50 -21t-50.5 21t-21.5 50t21.5 50.5t50.5 21.5zM1104 1317q29 0 50.5 -21.5t21.5 -50.5t-21.5 -50t-50.5 -21t-50.5 21t-21.5 50t21.5 50.5t50.5 21.5zM1409 0h-111l-309 768l-307 -768h-111l-428 1071h176l308 -768l307 768
h113l307 -768l307 768h176z" />
    <glyph glyph-name="Adotbelow" unicode="&#x1ea0;" horiz-adv-x="1425" 
d="M1282 0h-172l-98 272h-598l-97 -272h-174l512 1434h115zM473 436h481l-241 672zM713 -102q29 0 50 -21.5t21 -50.5t-21 -50.5t-50 -21.5t-50.5 21.5t-21.5 50.5t21.5 50.5t50.5 21.5z" />
    <glyph glyph-name="adotbelow" unicode="&#x1ea1;" 
d="M586 1071h2q206 0 323 -102q121 -106 121 -297v-672h-164v72q-113 -72 -280 -72h-45q-180 0 -283 74q-117 82 -117 235q0 155 117 234q104 75 283 75h325v54q0 115 -65 174q-70 61 -215 61h-2q-134 0 -205 -53q-65 -50 -74 -145l-164 16q18 167 140 260q115 86 303 86z
M868 455h-325q-125 0 -189 -45q-47 -33 -47 -101q0 -66 47 -102q61 -43 189 -43h45q145 0 215 61q65 59 65 174v56zM588 -102q29 0 50 -21.5t21 -50.5t-21 -50.5t-50 -21.5t-50.5 21.5t-21.5 50.5t21.5 50.5t50.5 21.5z" />
    <glyph glyph-name="Ahookabove" unicode="&#x1ea2;" horiz-adv-x="1425" 
d="M631 1763v103q76 0 121 -45q43 -43 43 -121q0 -76 -43 -119q-45 -45 -121 -45v102q33 0 47 14.5t14 47.5q0 34 -14 48.5t-47 14.5zM1282 0h-172l-98 272h-598l-97 -272h-174l512 1434h115zM473 436h481l-241 672z" />
    <glyph glyph-name="ahookabove" unicode="&#x1ea3;" 
d="M506 1401v102q76 0 121 -45q43 -43 43 -121q0 -75 -43 -118q-45 -45 -121 -45v102q33 0 47 14t14 47q0 34 -14 49t-47 15zM586 1071h2q206 0 323 -102q121 -106 121 -297v-672h-164v72q-113 -72 -280 -72h-45q-180 0 -283 74q-117 82 -117 235q0 155 117 234
q104 75 283 75h325v54q0 115 -65 174q-70 61 -215 61h-2q-134 0 -205 -53q-65 -50 -74 -145l-164 16q18 167 140 260q115 86 303 86zM868 455h-325q-125 0 -189 -45q-47 -33 -47 -101q0 -66 47 -102q61 -43 189 -43h45q145 0 215 61q65 59 65 174v56z" />
    <glyph glyph-name="Acircumflexacute" unicode="&#x1ea4;" horiz-adv-x="1425" 
d="M924 2005l-365 -182l-45 92l363 180zM715 1692l-195 -156l-63 80l258 207l260 -207l-64 -80zM1282 0h-172l-98 272h-598l-97 -272h-174l512 1434h115zM473 436h481l-241 672z" />
    <glyph glyph-name="acircumflexacute" unicode="&#x1ea5;" 
d="M799 1642l-365 -182l-45 92l363 181zM590 1329l-195 -155l-63 79l258 207l260 -207l-64 -79zM586 1071h2q206 0 323 -102q121 -106 121 -297v-672h-164v72q-113 -72 -280 -72h-45q-180 0 -283 74q-117 82 -117 235q0 155 117 234q104 75 283 75h325v54q0 115 -65 174
q-70 61 -215 61h-2q-134 0 -205 -53q-65 -50 -74 -145l-164 16q18 167 140 260q115 86 303 86zM868 455h-325q-125 0 -189 -45q-47 -33 -47 -101q0 -66 47 -102q61 -43 189 -43h45q145 0 215 61q65 59 65 174v56z" />
    <glyph glyph-name="Acircumflexgrave" unicode="&#x1ea6;" horiz-adv-x="1425" 
d="M920 1915l-46 -92l-364 182l47 90zM713 1692l-195 -156l-63 80l258 207l260 -207l-64 -80zM1282 0h-172l-98 272h-598l-97 -272h-174l512 1434h115zM473 436h481l-241 672z" />
    <glyph glyph-name="acircumflexgrave" unicode="&#x1ea7;" 
d="M795 1552l-45 -92l-365 182l47 91zM588 1329l-195 -155l-63 79l258 207l260 -207l-64 -79zM586 1071h2q206 0 323 -102q121 -106 121 -297v-672h-164v72q-113 -72 -280 -72h-45q-180 0 -283 74q-117 82 -117 235q0 155 117 234q104 75 283 75h325v54q0 115 -65 174
q-70 61 -215 61h-2q-134 0 -205 -53q-65 -50 -74 -145l-164 16q18 167 140 260q115 86 303 86zM868 455h-325q-125 0 -189 -45q-47 -33 -47 -101q0 -66 47 -102q61 -43 189 -43h45q145 0 215 61q65 59 65 174v56z" />
    <glyph glyph-name="Acircumflexhookabove" unicode="&#x1ea8;" horiz-adv-x="1425" 
d="M713 2091v102q76 0 121 -45q43 -43 43 -120q0 -76 -43 -119q-45 -45 -121 -45v102q33 0 47 14.5t14 47.5q0 34 -14 48.5t-47 14.5zM713 1692l-195 -156l-63 80l258 207l260 -207l-64 -80zM1282 0h-172l-98 272h-598l-97 -272h-174l512 1434h115zM473 436h481l-241 672z
" />
    <glyph glyph-name="acircumflexhookabove" unicode="&#x1ea9;" 
d="M588 1729v102q76 0 121 -45q43 -43 43 -121q0 -76 -43 -119q-45 -45 -121 -45v103q33 0 47 14t14 47q0 34 -14 49t-47 15zM588 1329l-195 -155l-63 79l258 207l260 -207l-64 -79zM586 1071h2q206 0 323 -102q121 -106 121 -297v-672h-164v72q-113 -72 -280 -72h-45
q-180 0 -283 74q-117 82 -117 235q0 155 117 234q104 75 283 75h325v54q0 115 -65 174q-70 61 -215 61h-2q-134 0 -205 -53q-65 -50 -74 -145l-164 16q18 167 140 260q115 86 303 86zM868 455h-325q-125 0 -189 -45q-47 -33 -47 -101q0 -66 47 -102q61 -43 189 -43h45
q145 0 215 61q65 59 65 174v56z" />
    <glyph glyph-name="Acircumflextilde" unicode="&#x1eaa;" horiz-adv-x="1425" 
d="M526 2032q55 22 116.5 8t105.5 -60q50 -50 110 -28q31 16 31 37h102q0 -43 -25.5 -78.5t-68.5 -52.5q-35 -15 -72 -15q-83 0 -149 66q-50 48 -109 26q-30 -12 -30 -37h-103q0 43 24.5 79t67.5 55zM711 1692l-195 -156l-63 80l258 207l260 -207l-64 -80zM1282 0h-172
l-98 272h-598l-97 -272h-174l512 1434h115zM473 436h481l-241 672z" />
    <glyph glyph-name="acircumflextilde" unicode="&#x1eab;" 
d="M403 1669q55 22 116.5 8t105.5 -59q51 -51 110 -29q31 15 31 37h102q0 -43 -25.5 -78.5t-68.5 -52.5q-32 -14 -72 -14q-84 0 -149 65q-51 48 -109 27q-30 -12 -30 -37h-103q0 43 24.5 78.5t67.5 54.5zM588 1329l-195 -155l-63 79l258 207l260 -207l-64 -79zM586 1071h2
q206 0 323 -102q121 -106 121 -297v-672h-164v72q-113 -72 -280 -72h-45q-180 0 -283 74q-117 82 -117 235q0 155 117 234q104 75 283 75h325v54q0 115 -65 174q-70 61 -215 61h-2q-134 0 -205 -53q-65 -50 -74 -145l-164 16q18 167 140 260q115 86 303 86zM868 455h-325
q-125 0 -189 -45q-47 -33 -47 -101q0 -66 47 -102q61 -43 189 -43h45q145 0 215 61q65 59 65 174v56z" />
    <glyph glyph-name="Acircumflexdotbelow" unicode="&#x1eac;" horiz-adv-x="1425" 
d="M713 1692l-195 -156l-63 80l258 207l260 -207l-64 -80zM1282 0h-172l-98 272h-598l-97 -272h-174l512 1434h115zM473 436h481l-241 672zM713 -102q29 0 50 -21.5t21 -50.5t-21 -50.5t-50 -21.5t-50.5 21.5t-21.5 50.5t21.5 50.5t50.5 21.5z" />
    <glyph glyph-name="acircumflexdotbelow" unicode="&#x1ead;" 
d="M588 1329l-195 -155l-63 79l258 207l260 -207l-64 -79zM586 1071h2q206 0 323 -102q121 -106 121 -297v-672h-164v72q-113 -72 -280 -72h-45q-180 0 -283 74q-117 82 -117 235q0 155 117 234q104 75 283 75h325v54q0 115 -65 174q-70 61 -215 61h-2q-134 0 -205 -53
q-65 -50 -74 -145l-164 16q18 167 140 260q115 86 303 86zM868 455h-325q-125 0 -189 -45q-47 -33 -47 -101q0 -66 47 -102q61 -43 189 -43h45q145 0 215 61q65 59 65 174v56zM588 -102q29 0 50 -21.5t21 -50.5t-21 -50.5t-50 -21.5t-50.5 21.5t-21.5 50.5t21.5 50.5
t50.5 21.5z" />
    <glyph glyph-name="Abreveacute" unicode="&#x1eae;" horiz-adv-x="1425" 
d="M1026 1952l-364 -183l-46 93l363 180zM846 1769h102q0 -111 -61 -172t-170 -61q-111 0 -172 61q-62 62 -62 172h103q0 -70 32 -98q29 -33 99 -33q65 0 98 33q31 31 31 98zM1282 0h-172l-98 272h-598l-97 -272h-174l512 1434h115zM473 436h481l-241 672z" />
    <glyph glyph-name="abreveacute" unicode="&#x1eaf;" 
d="M899 1589l-364 -182l-46 92l363 180zM719 1407h102q0 -111 -61 -172t-170 -61q-111 0 -172 61q-62 62 -62 172h103q0 -69 33 -98q29 -33 98 -33q65 0 98 33q31 31 31 98zM586 1071h2q206 0 323 -102q121 -106 121 -297v-672h-164v72q-113 -72 -280 -72h-45
q-180 0 -283 74q-117 82 -117 235q0 155 117 234q104 75 283 75h325v54q0 115 -65 174q-70 61 -215 61h-2q-134 0 -205 -53q-65 -50 -74 -145l-164 16q18 167 140 260q115 86 303 86zM868 455h-325q-125 0 -189 -45q-47 -33 -47 -101q0 -66 47 -102q61 -43 189 -43h45
q145 0 215 61q65 59 65 174v56z" />
    <glyph glyph-name="Abrevegrave" unicode="&#x1eb0;" horiz-adv-x="1425" 
d="M813 1862l-45 -93l-365 183l48 90zM844 1769h102q0 -111 -61 -172t-170 -61q-111 0 -172 61q-62 62 -62 172h103q0 -70 32 -98q29 -33 99 -33q65 0 98 33q31 31 31 98zM1282 0h-172l-98 272h-598l-97 -272h-174l512 1434h115zM473 436h481l-241 672z" />
    <glyph glyph-name="abrevegrave" unicode="&#x1eb1;" 
d="M688 1499l-45 -92l-364 182l47 90zM719 1407h102q0 -111 -61 -172t-170 -61q-111 0 -172 61q-62 62 -62 172h103q0 -69 33 -98q29 -33 98 -33q65 0 98 33q31 31 31 98zM586 1071h2q206 0 323 -102q121 -106 121 -297v-672h-164v72q-113 -72 -280 -72h-45q-180 0 -283 74
q-117 82 -117 235q0 155 117 234q104 75 283 75h325v54q0 115 -65 174q-70 61 -215 61h-2q-134 0 -205 -53q-65 -50 -74 -145l-164 16q18 167 140 260q115 86 303 86zM868 455h-325q-125 0 -189 -45q-47 -33 -47 -101q0 -66 47 -102q61 -43 189 -43h45q145 0 215 61
q65 59 65 174v56z" />
    <glyph glyph-name="Abrevehookabove" unicode="&#x1eb2;" horiz-adv-x="1425" 
d="M674 1997v102q76 0 121 -45q43 -43 43 -121q0 -75 -43 -118q-46 -46 -121 -46v103q33 0 47 14t14 47q0 34 -14 49t-47 15zM844 1769h102q0 -111 -61 -172t-170 -61q-111 0 -172 61q-62 62 -62 172h103q0 -70 32 -98q29 -33 99 -33q65 0 98 33q31 31 31 98zM1282 0h-172
l-98 272h-598l-97 -272h-174l512 1434h115zM473 436h481l-241 672z" />
    <glyph glyph-name="abrevehookabove" unicode="&#x1eb3;" 
d="M549 1634v103q76 0 121 -45q43 -43 43 -121q0 -76 -43 -119q-45 -45 -121 -45v102q33 0 47 14.5t14 47.5q0 34 -14 48.5t-47 14.5zM719 1407h102q0 -111 -61 -172t-170 -61q-111 0 -172 61q-62 62 -62 172h103q0 -69 33 -98q29 -33 98 -33q65 0 98 33q31 31 31 98z
M586 1071h2q206 0 323 -102q121 -106 121 -297v-672h-164v72q-113 -72 -280 -72h-45q-180 0 -283 74q-117 82 -117 235q0 155 117 234q104 75 283 75h325v54q0 115 -65 174q-70 61 -215 61h-2q-134 0 -205 -53q-65 -50 -74 -145l-164 16q18 167 140 260q115 86 303 86z
M868 455h-325q-125 0 -189 -45q-47 -33 -47 -101q0 -66 47 -102q61 -43 189 -43h45q145 0 215 61q65 59 65 174v56z" />
    <glyph glyph-name="Abrevetilde" unicode="&#x1eb4;" horiz-adv-x="1425" 
d="M526 1999q55 22 116.5 8t105.5 -59q51 -51 110 -29q31 15 31 37h102q0 -43 -25.5 -78.5t-68.5 -52.5q-35 -15 -72 -15q-83 0 -149 66q-51 48 -109 27q-30 -12 -30 -37h-103q0 43 24.5 78.5t67.5 54.5zM844 1769h102q0 -111 -61 -172t-170 -61q-111 0 -172 61
q-62 62 -62 172h103q0 -70 32 -98q29 -33 99 -33q65 0 98 33q31 31 31 98zM1282 0h-172l-98 272h-598l-97 -272h-174l512 1434h115zM473 436h481l-241 672z" />
    <glyph glyph-name="abrevetilde" unicode="&#x1eb5;" 
d="M401 1636q55 22 116.5 8t105.5 -59q51 -51 110 -29q31 16 31 37h102q0 -43 -25.5 -78.5t-68.5 -52.5q-32 -14 -72 -14q-84 0 -149 65q-51 48 -109 27q-30 -12 -30 -37h-103q0 43 24.5 78.5t67.5 54.5zM719 1407h102q0 -111 -61 -172t-170 -61q-111 0 -172 61
q-62 62 -62 172h103q0 -69 33 -98q29 -33 98 -33q65 0 98 33q31 31 31 98zM586 1071h2q206 0 323 -102q121 -106 121 -297v-672h-164v72q-113 -72 -280 -72h-45q-180 0 -283 74q-117 82 -117 235q0 155 117 234q104 75 283 75h325v54q0 115 -65 174q-70 61 -215 61h-2
q-134 0 -205 -53q-65 -50 -74 -145l-164 16q18 167 140 260q115 86 303 86zM868 455h-325q-125 0 -189 -45q-47 -33 -47 -101q0 -66 47 -102q61 -43 189 -43h45q145 0 215 61q65 59 65 174v56z" />
    <glyph glyph-name="Abrevedotbelow" unicode="&#x1eb6;" horiz-adv-x="1425" 
d="M844 1769h102q0 -111 -61 -172t-170 -61q-111 0 -172 61q-62 62 -62 172h103q0 -70 32 -98q29 -33 99 -33q65 0 98 33q31 31 31 98zM1282 0h-172l-98 272h-598l-97 -272h-174l512 1434h115zM473 436h481l-241 672zM713 -102q29 0 50 -21.5t21 -50.5t-21 -50.5t-50 -21.5
t-50.5 21.5t-21.5 50.5t21.5 50.5t50.5 21.5z" />
    <glyph glyph-name="abrevedotbelow" unicode="&#x1eb7;" 
d="M719 1407h102q0 -111 -61 -172t-170 -61q-111 0 -172 61q-62 62 -62 172h103q0 -69 33 -98q29 -33 98 -33q65 0 98 33q31 31 31 98zM586 1071h2q206 0 323 -102q121 -106 121 -297v-672h-164v72q-113 -72 -280 -72h-45q-180 0 -283 74q-117 82 -117 235q0 155 117 234
q104 75 283 75h325v54q0 115 -65 174q-70 61 -215 61h-2q-134 0 -205 -53q-65 -50 -74 -145l-164 16q18 167 140 260q115 86 303 86zM868 455h-325q-125 0 -189 -45q-47 -33 -47 -101q0 -66 47 -102q61 -43 189 -43h45q145 0 215 61q65 59 65 174v56zM588 -102
q29 0 50 -21.5t21 -50.5t-21 -50.5t-50 -21.5t-50.5 21.5t-21.5 50.5t21.5 50.5t50.5 21.5z" />
    <glyph glyph-name="Edotbelow" unicode="&#x1eb8;" horiz-adv-x="1140" 
d="M997 1270h-690v-471h690v-164h-690v-471h690v-164h-854v1434h854v-164zM571 -102q29 0 50.5 -21.5t21.5 -50.5t-21.5 -50.5t-50.5 -21.5t-50 21.5t-21 50.5t21 50.5t50 21.5z" />
    <glyph glyph-name="edotbelow" unicode="&#x1eb9;" 
d="M588 1071q206 0 323 -102q121 -106 121 -297v-217h-725v-56q0 -114 66 -174q70 -61 215 -61h24q112 0 179 37q61 34 83 94l152 -62q-47 -117 -158 -176q-102 -57 -256 -57h-24q-205 0 -322 102q-123 108 -123 297v273q0 189 123 297q117 102 322 102zM588 907
q-145 0 -215 -61q-66 -60 -66 -174v-54h561v54q0 118 -65 174q-70 61 -215 61zM588 -102q29 0 50 -21.5t21 -50.5t-21 -50.5t-50 -21.5t-50.5 21.5t-21.5 50.5t21.5 50.5t50.5 21.5z" />
    <glyph glyph-name="Ehookabove" unicode="&#x1eba;" horiz-adv-x="1140" 
d="M489 1763v103q76 0 121 -45q43 -43 43 -121q0 -76 -43 -119q-45 -45 -121 -45v102q33 0 47.5 14.5t14.5 47.5q0 34 -14 48.5t-48 14.5zM997 1270h-690v-471h690v-164h-690v-471h690v-164h-854v1434h854v-164z" />
    <glyph glyph-name="ehookabove" unicode="&#x1ebb;" 
d="M506 1401v102q76 0 121 -45q43 -43 43 -121q0 -75 -43 -118q-45 -45 -121 -45v102q33 0 47 14t14 47q0 34 -14 49t-47 15zM588 1071q206 0 323 -102q121 -106 121 -297v-217h-725v-56q0 -114 66 -174q70 -61 215 -61h24q112 0 179 37q61 34 83 94l152 -62
q-47 -117 -158 -176q-102 -57 -256 -57h-24q-205 0 -322 102q-123 108 -123 297v273q0 189 123 297q117 102 322 102zM588 907q-145 0 -215 -61q-66 -60 -66 -174v-54h561v54q0 118 -65 174q-70 61 -215 61z" />
    <glyph glyph-name="Etilde" unicode="&#x1ebc;" horiz-adv-x="1140" 
d="M385 1724q55 22 116 8t105 -59q50 -50 111 -28q31 15 31 36h102q0 -43 -25.5 -78.5t-68.5 -52.5q-32 -14 -72 -14q-83 0 -149 66q-50 48 -109 26q-31 -12 -31 -37h-102q0 43 24.5 78.5t67.5 54.5zM997 1270h-690v-471h690v-164h-690v-471h690v-164h-854v1434h854v-164z
" />
    <glyph glyph-name="etilde" unicode="&#x1ebd;" 
d="M401 1362q55 22 116.5 8t105.5 -59q51 -51 110 -29q31 16 31 37h102q0 -43 -25.5 -78.5t-68.5 -52.5q-32 -14 -72 -14q-84 0 -149 65q-51 48 -109 27q-30 -12 -30 -37h-103q0 43 24.5 78.5t67.5 54.5zM588 1071q206 0 323 -102q121 -106 121 -297v-217h-725v-56
q0 -114 66 -174q70 -61 215 -61h24q112 0 179 37q61 34 83 94l152 -62q-47 -117 -158 -176q-102 -57 -256 -57h-24q-205 0 -322 102q-123 108 -123 297v273q0 189 123 297q117 102 322 102zM588 907q-145 0 -215 -61q-66 -60 -66 -174v-54h561v54q0 118 -65 174
q-70 61 -215 61z" />
    <glyph glyph-name="Ecircumflexacute" unicode="&#x1ebe;" horiz-adv-x="1140" 
d="M780 2005l-364 -182l-45 92l362 180zM571 1692l-194 -156l-64 80l258 207l260 -207l-63 -80zM997 1270h-690v-471h690v-164h-690v-471h690v-164h-854v1434h854v-164z" />
    <glyph glyph-name="ecircumflexacute" unicode="&#x1ebf;" 
d="M799 1642l-365 -182l-45 92l363 181zM590 1329l-195 -155l-63 79l258 207l260 -207l-64 -79zM588 1071q206 0 323 -102q121 -106 121 -297v-217h-725v-56q0 -114 66 -174q70 -61 215 -61h24q112 0 179 37q61 34 83 94l152 -62q-47 -117 -158 -176q-102 -57 -256 -57h-24
q-205 0 -322 102q-123 108 -123 297v273q0 189 123 297q117 102 322 102zM588 907q-145 0 -215 -61q-66 -60 -66 -174v-54h561v54q0 118 -65 174q-70 61 -215 61z" />
    <glyph glyph-name="Ecircumflexgrave" unicode="&#x1ec0;" horiz-adv-x="1140" 
d="M776 1915l-45 -92l-364 182l47 90zM569 1692l-194 -156l-64 80l258 207l260 -207l-63 -80zM997 1270h-690v-471h690v-164h-690v-471h690v-164h-854v1434h854v-164z" />
    <glyph glyph-name="ecircumflexgrave" unicode="&#x1ec1;" 
d="M795 1552l-45 -92l-365 182l47 91zM588 1329l-195 -155l-63 79l258 207l260 -207l-64 -79zM588 1071q206 0 323 -102q121 -106 121 -297v-217h-725v-56q0 -114 66 -174q70 -61 215 -61h24q112 0 179 37q61 34 83 94l152 -62q-47 -117 -158 -176q-102 -57 -256 -57h-24
q-205 0 -322 102q-123 108 -123 297v273q0 189 123 297q117 102 322 102zM588 907q-145 0 -215 -61q-66 -60 -66 -174v-54h561v54q0 118 -65 174q-70 61 -215 61z" />
    <glyph glyph-name="Ecircumflexhookabove" unicode="&#x1ec2;" horiz-adv-x="1140" 
d="M569 2091v102q76 0 121 -45q43 -43 43 -120q0 -76 -43 -119q-45 -45 -121 -45v102q33 0 47.5 14.5t14.5 47.5q0 34 -14 48.5t-48 14.5zM569 1692l-194 -156l-64 80l258 207l260 -207l-63 -80zM997 1270h-690v-471h690v-164h-690v-471h690v-164h-854v1434h854v-164z" />
    <glyph glyph-name="ecircumflexhookabove" unicode="&#x1ec3;" 
d="M588 1729v102q76 0 121 -45q43 -43 43 -121q0 -76 -43 -119q-45 -45 -121 -45v103q33 0 47 14t14 47q0 34 -14 49t-47 15zM588 1329l-195 -155l-63 79l258 207l260 -207l-64 -79zM588 1071q206 0 323 -102q121 -106 121 -297v-217h-725v-56q0 -114 66 -174
q70 -61 215 -61h24q112 0 179 37q61 34 83 94l152 -62q-47 -117 -158 -176q-102 -57 -256 -57h-24q-205 0 -322 102q-123 108 -123 297v273q0 189 123 297q117 102 322 102zM588 907q-145 0 -215 -61q-66 -60 -66 -174v-54h561v54q0 118 -65 174q-70 61 -215 61z" />
    <glyph glyph-name="Ecircumflextilde" unicode="&#x1ec4;" horiz-adv-x="1140" 
d="M385 2032q55 22 116 8t105 -60q50 -50 111 -28q31 16 31 37h102q0 -43 -25.5 -78.5t-68.5 -52.5q-34 -15 -72 -15q-83 0 -149 66q-50 48 -109 26q-31 -12 -31 -37h-102q0 43 24.5 79t67.5 55zM569 1692l-194 -156l-64 80l258 207l260 -207l-63 -80zM997 1270h-690v-471
h690v-164h-690v-471h690v-164h-854v1434h854v-164z" />
    <glyph glyph-name="ecircumflextilde" unicode="&#x1ec5;" 
d="M401 1669q55 22 116.5 8t105.5 -59q51 -51 110 -29q31 15 31 37h102q0 -43 -25.5 -78.5t-68.5 -52.5q-32 -14 -72 -14q-84 0 -149 65q-51 48 -109 27q-30 -12 -30 -37h-103q0 43 24.5 78.5t67.5 54.5zM586 1329l-195 -155l-63 79l258 207l260 -207l-64 -79zM588 1071
q206 0 323 -102q121 -106 121 -297v-217h-725v-56q0 -114 66 -174q70 -61 215 -61h24q112 0 179 37q61 34 83 94l152 -62q-47 -117 -158 -176q-102 -57 -256 -57h-24q-205 0 -322 102q-123 108 -123 297v273q0 189 123 297q117 102 322 102zM588 907q-145 0 -215 -61
q-66 -60 -66 -174v-54h561v54q0 118 -65 174q-70 61 -215 61z" />
    <glyph glyph-name="Ecircumflexdotbelow" unicode="&#x1ec6;" horiz-adv-x="1140" 
d="M569 1692l-194 -156l-64 80l258 207l260 -207l-63 -80zM997 1270h-690v-471h690v-164h-690v-471h690v-164h-854v1434h854v-164zM571 -102q29 0 50.5 -21.5t21.5 -50.5t-21.5 -50.5t-50.5 -21.5t-50 21.5t-21 50.5t21 50.5t50 21.5z" />
    <glyph glyph-name="ecircumflexdotbelow" unicode="&#x1ec7;" 
d="M588 1329l-195 -155l-63 79l258 207l260 -207l-64 -79zM588 1071q206 0 323 -102q121 -106 121 -297v-217h-725v-56q0 -114 66 -174q70 -61 215 -61h24q112 0 179 37q61 34 83 94l152 -62q-47 -117 -158 -176q-102 -57 -256 -57h-24q-205 0 -322 102q-123 108 -123 297
v273q0 189 123 297q117 102 322 102zM588 907q-145 0 -215 -61q-66 -60 -66 -174v-54h561v54q0 118 -65 174q-70 61 -215 61zM588 -102q29 0 50 -21.5t21 -50.5t-21 -50.5t-50 -21.5t-50.5 21.5t-21.5 50.5t21.5 50.5t50.5 21.5z" />
    <glyph glyph-name="Ihookabove" unicode="&#x1ec8;" horiz-adv-x="450" 
d="M143 1763v103q76 0 121 -45q43 -43 43 -121q0 -76 -43 -119q-45 -45 -121 -45v102q33 0 47.5 14.5t14.5 47.5q0 34 -14 48.5t-48 14.5zM307 0h-164v1434h164v-1434z" />
    <glyph glyph-name="ihookabove" unicode="&#x1ec9;" horiz-adv-x="450" 
d="M143 1401v102q76 0 121 -45q43 -43 43 -121q0 -75 -43 -118q-45 -45 -121 -45v102q33 0 47.5 14t14.5 47q0 34 -14.5 49t-47.5 15zM307 0h-164v1071h164v-1071z" />
    <glyph glyph-name="Idotbelow" unicode="&#x1eca;" horiz-adv-x="450" 
d="M307 0h-164v1434h164v-1434zM225 -102q29 0 50.5 -21.5t21.5 -50.5t-21.5 -50.5t-50.5 -21.5t-50 21.5t-21 50.5t21 50.5t50 21.5z" />
    <glyph glyph-name="idotbelow" unicode="&#x1ecb;" horiz-adv-x="491" 
d="M246 1434q43 0 72.5 -30t29.5 -73q0 -42 -30 -72t-72 -30q-41 0 -72 30.5t-31 71.5q0 42 30.5 72.5t72.5 30.5zM328 0h-164v1071h164v-1071zM246 -102q29 0 50 -21.5t21 -50.5t-21 -50.5t-50 -21.5t-50.5 21.5t-21.5 50.5t21.5 50.5t50.5 21.5z" />
    <glyph glyph-name="Odotbelow" unicode="&#x1ecc;" horiz-adv-x="1267" 
d="M633 1434q115 0 205 -35q93 -37 159 -109q127 -142 127 -391v-362q0 -253 -127 -392q-63 -72 -159 -110q-90 -35 -205 -35q-113 0 -203 35q-97 39 -160 110q-127 139 -127 392v362q0 249 127 391q65 71 160 109q90 35 203 35zM633 1270q-158 0 -242 -90q-84 -93 -84 -281
v-362q0 -187 84 -283q84 -90 242 -90q160 0 241 90q87 96 87 283v362q0 188 -87 281q-81 90 -241 90zM635 -102q29 0 50.5 -21.5t21.5 -50.5t-21.5 -50.5t-50.5 -21.5t-50.5 21.5t-21.5 50.5t21.5 50.5t50.5 21.5z" />
    <glyph glyph-name="odotbelow" unicode="&#x1ecd;" 
d="M588 1071q206 0 323 -102q121 -106 121 -297v-273q0 -191 -121 -297q-117 -102 -323 -102q-205 0 -322 102q-123 108 -123 297v273q0 189 123 297q117 102 322 102zM588 907q-145 0 -215 -61q-66 -60 -66 -174v-273q0 -114 66 -174q70 -61 215 -61t215 61q65 56 65 174
v273q0 118 -65 174q-70 61 -215 61zM588 -102q29 0 50 -21.5t21 -50.5t-21 -50.5t-50 -21.5t-50.5 21.5t-21.5 50.5t21.5 50.5t50.5 21.5z" />
    <glyph glyph-name="Ohookabove" unicode="&#x1ece;" horiz-adv-x="1267" 
d="M553 1763v103q76 0 121 -45q43 -43 43 -121q0 -76 -43 -119q-45 -45 -121 -45v102q33 0 47 14.5t14 47.5q0 34 -14 48.5t-47 14.5zM633 1434q115 0 205 -35q93 -37 159 -109q127 -142 127 -391v-362q0 -253 -127 -392q-63 -72 -159 -110q-90 -35 -205 -35q-113 0 -203 35
q-97 39 -160 110q-127 139 -127 392v362q0 249 127 391q65 71 160 109q90 35 203 35zM633 1270q-158 0 -242 -90q-84 -93 -84 -281v-362q0 -187 84 -283q84 -90 242 -90q160 0 241 90q87 96 87 283v362q0 188 -87 281q-81 90 -241 90z" />
    <glyph glyph-name="ohookabove" unicode="&#x1ecf;" 
d="M506 1401v102q76 0 121 -45q43 -43 43 -121q0 -75 -43 -118q-45 -45 -121 -45v102q33 0 47 14t14 47q0 34 -14 49t-47 15zM588 1071q206 0 323 -102q121 -106 121 -297v-273q0 -191 -121 -297q-117 -102 -323 -102q-205 0 -322 102q-123 108 -123 297v273q0 189 123 297
q117 102 322 102zM588 907q-145 0 -215 -61q-66 -60 -66 -174v-273q0 -114 66 -174q70 -61 215 -61t215 61q65 56 65 174v273q0 118 -65 174q-70 61 -215 61z" />
    <glyph glyph-name="Ocircumflexacute" unicode="&#x1ed0;" horiz-adv-x="1267" 
d="M844 2005l-365 -182l-45 92l363 180zM635 1692l-195 -156l-63 80l258 207l260 -207l-64 -80zM633 1434q115 0 205 -35q93 -37 159 -109q127 -142 127 -391v-362q0 -253 -127 -392q-63 -72 -159 -110q-90 -35 -205 -35q-113 0 -203 35q-97 39 -160 110q-127 139 -127 392
v362q0 249 127 391q65 71 160 109q90 35 203 35zM633 1270q-158 0 -242 -90q-84 -93 -84 -281v-362q0 -187 84 -283q84 -90 242 -90q160 0 241 90q87 96 87 283v362q0 188 -87 281q-81 90 -241 90z" />
    <glyph glyph-name="ocircumflexacute" unicode="&#x1ed1;" 
d="M799 1642l-365 -182l-45 92l363 181zM590 1329l-195 -155l-63 79l258 207l260 -207l-64 -79zM588 1071q206 0 323 -102q121 -106 121 -297v-273q0 -191 -121 -297q-117 -102 -323 -102q-205 0 -322 102q-123 108 -123 297v273q0 189 123 297q117 102 322 102zM588 907
q-145 0 -215 -61q-66 -60 -66 -174v-273q0 -114 66 -174q70 -61 215 -61t215 61q65 56 65 174v273q0 118 -65 174q-70 61 -215 61z" />
    <glyph glyph-name="Ocircumflexgrave" unicode="&#x1ed2;" horiz-adv-x="1267" 
d="M840 1915l-45 -92l-365 182l47 90zM633 1692l-195 -156l-63 80l258 207l260 -207l-64 -80zM633 1434q115 0 205 -35q93 -37 159 -109q127 -142 127 -391v-362q0 -253 -127 -392q-63 -72 -159 -110q-90 -35 -205 -35q-113 0 -203 35q-97 39 -160 110q-127 139 -127 392
v362q0 249 127 391q65 71 160 109q90 35 203 35zM633 1270q-158 0 -242 -90q-84 -93 -84 -281v-362q0 -187 84 -283q84 -90 242 -90q160 0 241 90q87 96 87 283v362q0 188 -87 281q-81 90 -241 90z" />
    <glyph glyph-name="ocircumflexgrave" unicode="&#x1ed3;" 
d="M795 1552l-45 -92l-365 182l47 91zM588 1329l-195 -155l-63 79l258 207l260 -207l-64 -79zM588 1071q206 0 323 -102q121 -106 121 -297v-273q0 -191 -121 -297q-117 -102 -323 -102q-205 0 -322 102q-123 108 -123 297v273q0 189 123 297q117 102 322 102zM588 907
q-145 0 -215 -61q-66 -60 -66 -174v-273q0 -114 66 -174q70 -61 215 -61t215 61q65 56 65 174v273q0 118 -65 174q-70 61 -215 61z" />
    <glyph glyph-name="Ocircumflexhookabove" unicode="&#x1ed4;" horiz-adv-x="1267" 
d="M633 2091v102q76 0 121 -45q43 -43 43 -120q0 -76 -43 -119q-45 -45 -121 -45v102q33 0 47 14.5t14 47.5q0 34 -14 48.5t-47 14.5zM633 1692l-195 -156l-63 80l258 207l260 -207l-64 -80zM633 1434q115 0 205 -35q93 -37 159 -109q127 -142 127 -391v-362
q0 -253 -127 -392q-63 -72 -159 -110q-90 -35 -205 -35q-113 0 -203 35q-97 39 -160 110q-127 139 -127 392v362q0 249 127 391q65 71 160 109q90 35 203 35zM633 1270q-158 0 -242 -90q-84 -93 -84 -281v-362q0 -187 84 -283q84 -90 242 -90q160 0 241 90q87 96 87 283v362
q0 188 -87 281q-81 90 -241 90z" />
    <glyph glyph-name="ocircumflexhookabove" unicode="&#x1ed5;" 
d="M588 1729v102q76 0 121 -45q43 -43 43 -121q0 -76 -43 -119q-45 -45 -121 -45v103q33 0 47 14t14 47q0 34 -14 49t-47 15zM588 1329l-195 -155l-63 79l258 207l260 -207l-64 -79zM588 1071q206 0 323 -102q121 -106 121 -297v-273q0 -191 -121 -297q-117 -102 -323 -102
q-205 0 -322 102q-123 108 -123 297v273q0 189 123 297q117 102 322 102zM588 907q-145 0 -215 -61q-66 -60 -66 -174v-273q0 -114 66 -174q70 -61 215 -61t215 61q65 56 65 174v273q0 118 -65 174q-70 61 -215 61z" />
    <glyph glyph-name="Ocircumflextilde" unicode="&#x1ed6;" horiz-adv-x="1267" 
d="M449 2032q55 22 116 8t105 -60q50 -50 110 -28q31 16 31 37h102q0 -43 -25.5 -78.5t-68.5 -52.5q-35 -15 -71 -15q-84 0 -150 66q-50 48 -109 26q-30 -12 -30 -37h-103q0 43 25 79t68 55zM633 1692l-195 -156l-63 80l258 207l260 -207l-64 -80zM633 1434q115 0 205 -35
q93 -37 159 -109q127 -142 127 -391v-362q0 -253 -127 -392q-63 -72 -159 -110q-90 -35 -205 -35q-113 0 -203 35q-97 39 -160 110q-127 139 -127 392v362q0 249 127 391q65 71 160 109q90 35 203 35zM633 1270q-158 0 -242 -90q-84 -93 -84 -281v-362q0 -187 84 -283
q84 -90 242 -90q160 0 241 90q87 96 87 283v362q0 188 -87 281q-81 90 -241 90z" />
    <glyph glyph-name="ocircumflextilde" unicode="&#x1ed7;" 
d="M401 1669q55 22 116.5 8t105.5 -59q51 -51 110 -29q31 15 31 37h102q0 -43 -25.5 -78.5t-68.5 -52.5q-32 -14 -72 -14q-84 0 -149 65q-51 48 -109 27q-30 -12 -30 -37h-103q0 43 24.5 78.5t67.5 54.5zM586 1329l-195 -155l-63 79l258 207l260 -207l-64 -79zM588 1071
q206 0 323 -102q121 -106 121 -297v-273q0 -191 -121 -297q-117 -102 -323 -102q-205 0 -322 102q-123 108 -123 297v273q0 189 123 297q117 102 322 102zM588 907q-145 0 -215 -61q-66 -60 -66 -174v-273q0 -114 66 -174q70 -61 215 -61t215 61q65 56 65 174v273
q0 118 -65 174q-70 61 -215 61z" />
    <glyph glyph-name="Ocircumflexdotbelow" unicode="&#x1ed8;" horiz-adv-x="1267" 
d="M633 1692l-195 -156l-63 80l258 207l260 -207l-64 -80zM633 1434q115 0 205 -35q93 -37 159 -109q127 -142 127 -391v-362q0 -253 -127 -392q-63 -72 -159 -110q-90 -35 -205 -35q-113 0 -203 35q-97 39 -160 110q-127 139 -127 392v362q0 249 127 391q65 71 160 109
q90 35 203 35zM633 1270q-158 0 -242 -90q-84 -93 -84 -281v-362q0 -187 84 -283q84 -90 242 -90q160 0 241 90q87 96 87 283v362q0 188 -87 281q-81 90 -241 90zM635 -102q29 0 50.5 -21.5t21.5 -50.5t-21.5 -50.5t-50.5 -21.5t-50.5 21.5t-21.5 50.5t21.5 50.5t50.5 21.5z
" />
    <glyph glyph-name="ocircumflexdotbelow" unicode="&#x1ed9;" 
d="M588 1329l-195 -155l-63 79l258 207l260 -207l-64 -79zM588 1071q206 0 323 -102q121 -106 121 -297v-273q0 -191 -121 -297q-117 -102 -323 -102q-205 0 -322 102q-123 108 -123 297v273q0 189 123 297q117 102 322 102zM588 907q-145 0 -215 -61q-66 -60 -66 -174v-273
q0 -114 66 -174q70 -61 215 -61t215 61q65 56 65 174v273q0 118 -65 174q-70 61 -215 61zM588 -102q29 0 50 -21.5t21 -50.5t-21 -50.5t-50 -21.5t-50.5 21.5t-21.5 50.5t21.5 50.5t50.5 21.5z" />
    <glyph glyph-name="Ohornacute" unicode="&#x1eda;" horiz-adv-x="1366" 
d="M475 1536l-45 92l363 180l47 -90zM1284 1434v-181q0 -102 -45 -166q-41 -57 -123 -67q8 -49 8 -121v-362q0 -253 -127 -392q-63 -72 -159 -110q-90 -35 -205 -35q-113 0 -203 35q-97 39 -160 110q-127 139 -127 392v362q0 249 127 391q65 71 160 109q90 35 203 35
q115 0 205 -35q93 -37 159 -109q68 -77 95 -168h4q43 0 61 27q25 36 25 104v181h102zM961 537v362q0 188 -87 281q-81 90 -241 90q-158 0 -242 -90q-84 -93 -84 -281v-362q0 -187 84 -283q84 -90 242 -90q160 0 241 90q87 96 87 283z" />
    <glyph glyph-name="ohornacute" unicode="&#x1edb;" horiz-adv-x="1253" 
d="M428 1174l-45 92l362 180l48 -90zM1192 1071v-180q0 -102 -45 -166q-42 -57 -115 -66v-260q0 -191 -121 -297q-117 -102 -323 -102q-205 0 -322 102q-123 108 -123 297v273q0 189 123 297q117 102 322 102q206 0 323 -102q92 -79 113 -207q30 5 41 24q25 36 25 105v180
h102zM868 399v273q0 118 -65 174q-70 61 -215 61t-215 -61q-66 -60 -66 -174v-273q0 -114 66 -174q70 -61 215 -61t215 61q65 56 65 174z" />
    <glyph glyph-name="Ohorngrave" unicode="&#x1edc;" horiz-adv-x="1366" 
d="M795 1536l-365 182l47 90l363 -180zM1284 1434v-181q0 -102 -45 -166q-41 -57 -123 -67q8 -49 8 -121v-362q0 -253 -127 -392q-63 -72 -159 -110q-90 -35 -205 -35q-113 0 -203 35q-97 39 -160 110q-127 139 -127 392v362q0 249 127 391q65 71 160 109q90 35 203 35
q115 0 205 -35q93 -37 159 -109q68 -77 95 -168h4q43 0 61 27q25 36 25 104v181h102zM961 537v362q0 188 -87 281q-81 90 -241 90q-158 0 -242 -90q-84 -93 -84 -281v-362q0 -187 84 -283q84 -90 242 -90q160 0 241 90q87 96 87 283z" />
    <glyph glyph-name="ohorngrave" unicode="&#x1edd;" horiz-adv-x="1253" 
d="M748 1174l-365 182l47 90l363 -180zM1192 1071v-180q0 -102 -45 -166q-42 -57 -115 -66v-260q0 -191 -121 -297q-117 -102 -323 -102q-205 0 -322 102q-123 108 -123 297v273q0 189 123 297q117 102 322 102q206 0 323 -102q92 -79 113 -207q30 5 41 24q25 36 25 105v180
h102zM868 399v273q0 118 -65 174q-70 61 -215 61t-215 -61q-66 -60 -66 -174v-273q0 -114 66 -174q70 -61 215 -61t215 61q65 56 65 174z" />
    <glyph glyph-name="Ohornhookabove" unicode="&#x1ede;" horiz-adv-x="1366" 
d="M717 1700q0 -76 -43 -119q-45 -45 -121 -45v102q33 0 47 14.5t14 47.5q0 34 -14 48.5t-47 14.5v103q76 0 121 -45q43 -43 43 -121zM1284 1434v-181q0 -102 -45 -166q-41 -57 -123 -67q8 -49 8 -121v-362q0 -253 -127 -392q-63 -72 -159 -110q-90 -35 -205 -35
q-113 0 -203 35q-97 39 -160 110q-127 139 -127 392v362q0 249 127 391q65 71 160 109q90 35 203 35q115 0 205 -35q93 -37 159 -109q68 -77 95 -168h4q43 0 61 27q25 36 25 104v181h102zM961 537v362q0 188 -87 281q-81 90 -241 90q-158 0 -242 -90q-84 -93 -84 -281v-362
q0 -187 84 -283q84 -90 242 -90q160 0 241 90q87 96 87 283z" />
    <glyph glyph-name="ohornhookabove" unicode="&#x1edf;" horiz-adv-x="1253" 
d="M670 1337q0 -75 -43 -118q-45 -45 -121 -45v102q33 0 47 14t14 47q0 34 -14 49t-47 15v102q76 0 121 -45q43 -43 43 -121zM1192 1071v-180q0 -102 -45 -166q-42 -57 -115 -66v-260q0 -191 -121 -297q-117 -102 -323 -102q-205 0 -322 102q-123 108 -123 297v273
q0 189 123 297q117 102 322 102q206 0 323 -102q92 -79 113 -207q30 5 41 24q25 36 25 105v180h102zM868 399v273q0 118 -65 174q-70 61 -215 61t-215 -61q-66 -60 -66 -174v-273q0 -114 66 -174q70 -61 215 -61t215 61q65 56 65 174z" />
    <glyph glyph-name="Ohorntilde" unicode="&#x1ee0;" horiz-adv-x="1366" 
d="M489 1628q-30 -12 -30 -37h-103q0 43 25 78.5t68 54.5q55 22 116 8t105 -59q50 -50 110 -28q31 15 31 36h102q0 -43 -25.5 -78.5t-68.5 -52.5q-32 -14 -71 -14q-84 0 -150 66q-50 48 -109 26zM1284 1434v-181q0 -102 -45 -166q-41 -57 -123 -67q8 -49 8 -121v-362
q0 -253 -127 -392q-63 -72 -159 -110q-90 -35 -205 -35q-113 0 -203 35q-97 39 -160 110q-127 139 -127 392v362q0 249 127 391q65 71 160 109q90 35 203 35q115 0 205 -35q93 -37 159 -109q68 -77 95 -168h4q43 0 61 27q25 36 25 104v181h102zM961 537v362q0 188 -87 281
q-81 90 -241 90q-158 0 -242 -90q-84 -93 -84 -281v-362q0 -187 84 -283q84 -90 242 -90q160 0 241 90q87 96 87 283z" />
    <glyph glyph-name="ohorntilde" unicode="&#x1ee1;" horiz-adv-x="1253" 
d="M442 1266q-30 -12 -30 -37h-103q0 43 24.5 78.5t67.5 54.5q55 22 116.5 8t105.5 -59q51 -51 110 -29q31 16 31 37h102q0 -43 -25.5 -78.5t-68.5 -52.5q-32 -14 -72 -14q-84 0 -149 65q-51 48 -109 27zM1192 1071v-180q0 -102 -45 -166q-42 -57 -115 -66v-260
q0 -191 -121 -297q-117 -102 -323 -102q-205 0 -322 102q-123 108 -123 297v273q0 189 123 297q117 102 322 102q206 0 323 -102q92 -79 113 -207q30 5 41 24q25 36 25 105v180h102zM868 399v273q0 118 -65 174q-70 61 -215 61t-215 -61q-66 -60 -66 -174v-273
q0 -114 66 -174q70 -61 215 -61t215 61q65 56 65 174z" />
    <glyph glyph-name="Ohorndotbelow" unicode="&#x1ee2;" horiz-adv-x="1366" 
d="M1284 1434v-181q0 -102 -45 -166q-41 -57 -123 -67q8 -49 8 -121v-362q0 -253 -127 -392q-63 -72 -159 -110q-90 -35 -205 -35q-113 0 -203 35q-97 39 -160 110q-127 139 -127 392v362q0 249 127 391q65 71 160 109q90 35 203 35q115 0 205 -35q93 -37 159 -109
q68 -77 95 -168h4q43 0 61 27q25 36 25 104v181h102zM961 537v362q0 188 -87 281q-81 90 -241 90q-158 0 -242 -90q-84 -93 -84 -281v-362q0 -187 84 -283q84 -90 242 -90q160 0 241 90q87 96 87 283zM635 -102q29 0 50.5 -21.5t21.5 -50.5t-21.5 -50.5t-50.5 -21.5
t-50.5 21.5t-21.5 50.5t21.5 50.5t50.5 21.5z" />
    <glyph glyph-name="ohorndotbelow" unicode="&#x1ee3;" horiz-adv-x="1253" 
d="M1192 1071v-180q0 -102 -45 -166q-42 -57 -115 -66v-260q0 -191 -121 -297q-117 -102 -323 -102q-205 0 -322 102q-123 108 -123 297v273q0 189 123 297q117 102 322 102q206 0 323 -102q92 -79 113 -207q30 5 41 24q25 36 25 105v180h102zM868 399v273q0 118 -65 174
q-70 61 -215 61t-215 -61q-66 -60 -66 -174v-273q0 -114 66 -174q70 -61 215 -61t215 61q65 56 65 174zM588 -102q29 0 50 -21.5t21 -50.5t-21 -50.5t-50 -21.5t-50.5 21.5t-21.5 50.5t21.5 50.5t50.5 21.5z" />
    <glyph glyph-name="Udotbelow" unicode="&#x1ee4;" horiz-adv-x="1267" 
d="M1124 1434v-897q0 -253 -127 -392q-63 -72 -159 -110q-90 -35 -205 -35q-113 0 -203 35q-97 39 -160 110q-127 139 -127 392v897h164v-897q0 -187 84 -283q84 -90 242 -90q160 0 241 90q87 96 87 283v897h163zM635 -102q29 0 50.5 -21.5t21.5 -50.5t-21.5 -50.5
t-50.5 -21.5t-50.5 21.5t-21.5 50.5t21.5 50.5t50.5 21.5z" />
    <glyph glyph-name="udotbelow" unicode="&#x1ee5;" 
d="M1032 0h-164v72q-113 -72 -280 -72q-207 0 -324 102q-121 106 -121 297v672h164v-672q0 -114 66 -174q70 -61 215 -61t215 61q65 59 65 174v672h164v-1071zM588 -102q29 0 50 -21.5t21 -50.5t-21 -50.5t-50 -21.5t-50.5 21.5t-21.5 50.5t21.5 50.5t50.5 21.5z" />
    <glyph glyph-name="Uhookabove" unicode="&#x1ee6;" horiz-adv-x="1267" 
d="M553 1763v103q76 0 121 -45q43 -43 43 -121q0 -76 -43 -119q-45 -45 -121 -45v102q33 0 47 14.5t14 47.5q0 34 -14 48.5t-47 14.5zM1124 1434v-897q0 -253 -127 -392q-63 -72 -159 -110q-90 -35 -205 -35q-113 0 -203 35q-97 39 -160 110q-127 139 -127 392v897h164v-897
q0 -187 84 -283q84 -90 242 -90q160 0 241 90q87 96 87 283v897h163z" />
    <glyph glyph-name="uhookabove" unicode="&#x1ee7;" 
d="M506 1401v102q76 0 121 -45q43 -43 43 -121q0 -75 -43 -118q-45 -45 -121 -45v102q33 0 47 14t14 47q0 34 -14 49t-47 15zM1032 0h-164v72q-113 -72 -280 -72q-207 0 -324 102q-121 106 -121 297v672h164v-672q0 -114 66 -174q70 -61 215 -61t215 61q65 59 65 174v672
h164v-1071z" />
    <glyph glyph-name="Uhornacute" unicode="&#x1ee8;" horiz-adv-x="1386" 
d="M475 1536l-45 92l363 180l47 -90zM1366 1434v-181q0 -102 -45 -166q-49 -67 -143 -67h-54v-483q0 -253 -127 -392q-63 -72 -159 -110q-90 -35 -205 -35q-113 0 -203 35q-97 39 -160 110q-127 139 -127 392v897h164v-897q0 -187 84 -283q84 -90 242 -90q160 0 241 90
q87 96 87 283v897h163v-312h54q43 0 61 27q25 36 25 104v181h102z" />
    <glyph glyph-name="uhornacute" unicode="&#x1ee9;" horiz-adv-x="1294" 
d="M428 1174l-45 92l362 180l48 -90zM1274 1071v-180q0 -102 -45 -166q-50 -68 -144 -68h-53v-657h-164v72q-113 -72 -280 -72q-207 0 -324 102q-121 106 -121 297v672h164v-672q0 -114 66 -174q70 -61 215 -61t215 61q65 59 65 174v672h164v-311h53q45 0 62 26
q24 34 24 105v180h103z" />
    <glyph glyph-name="Uhorngrave" unicode="&#x1eea;" horiz-adv-x="1386" 
d="M795 1536l-365 182l47 90l363 -180zM1366 1434v-181q0 -102 -45 -166q-49 -67 -143 -67h-54v-483q0 -253 -127 -392q-63 -72 -159 -110q-90 -35 -205 -35q-113 0 -203 35q-97 39 -160 110q-127 139 -127 392v897h164v-897q0 -187 84 -283q84 -90 242 -90q160 0 241 90
q87 96 87 283v897h163v-312h54q43 0 61 27q25 36 25 104v181h102z" />
    <glyph glyph-name="uhorngrave" unicode="&#x1eeb;" horiz-adv-x="1294" 
d="M748 1174l-365 182l47 90l363 -180zM1274 1071v-180q0 -102 -45 -166q-50 -68 -144 -68h-53v-657h-164v72q-113 -72 -280 -72q-207 0 -324 102q-121 106 -121 297v672h164v-672q0 -114 66 -174q70 -61 215 -61t215 61q65 59 65 174v672h164v-311h53q45 0 62 26
q24 34 24 105v180h103z" />
    <glyph glyph-name="Uhornhookabove" unicode="&#x1eec;" horiz-adv-x="1386" 
d="M717 1700q0 -76 -43 -119q-45 -45 -121 -45v102q33 0 47 14.5t14 47.5q0 34 -14 48.5t-47 14.5v103q76 0 121 -45q43 -43 43 -121zM1366 1434v-181q0 -102 -45 -166q-49 -67 -143 -67h-54v-483q0 -253 -127 -392q-63 -72 -159 -110q-90 -35 -205 -35q-113 0 -203 35
q-97 39 -160 110q-127 139 -127 392v897h164v-897q0 -187 84 -283q84 -90 242 -90q160 0 241 90q87 96 87 283v897h163v-312h54q43 0 61 27q25 36 25 104v181h102z" />
    <glyph glyph-name="uhornhookabove" unicode="&#x1eed;" horiz-adv-x="1294" 
d="M670 1337q0 -75 -43 -118q-45 -45 -121 -45v102q33 0 47 14t14 47q0 34 -14 49t-47 15v102q76 0 121 -45q43 -43 43 -121zM1274 1071v-180q0 -102 -45 -166q-50 -68 -144 -68h-53v-657h-164v72q-113 -72 -280 -72q-207 0 -324 102q-121 106 -121 297v672h164v-672
q0 -114 66 -174q70 -61 215 -61t215 61q65 59 65 174v672h164v-311h53q45 0 62 26q24 34 24 105v180h103z" />
    <glyph glyph-name="Uhorntilde" unicode="&#x1eee;" horiz-adv-x="1386" 
d="M489 1628q-30 -12 -30 -37h-103q0 43 25 78.5t68 54.5q55 22 116 8t105 -59q50 -50 110 -28q31 15 31 36h102q0 -43 -25.5 -78.5t-68.5 -52.5q-32 -14 -71 -14q-84 0 -150 66q-50 48 -109 26zM1366 1434v-181q0 -102 -45 -166q-49 -67 -143 -67h-54v-483
q0 -253 -127 -392q-63 -72 -159 -110q-90 -35 -205 -35q-113 0 -203 35q-97 39 -160 110q-127 139 -127 392v897h164v-897q0 -187 84 -283q84 -90 242 -90q160 0 241 90q87 96 87 283v897h163v-312h54q43 0 61 27q25 36 25 104v181h102z" />
    <glyph glyph-name="uhorntilde" unicode="&#x1eef;" horiz-adv-x="1294" 
d="M442 1266q-30 -12 -30 -37h-103q0 43 24.5 78.5t67.5 54.5q55 22 116.5 8t105.5 -59q51 -51 110 -29q31 16 31 37h102q0 -43 -25.5 -78.5t-68.5 -52.5q-32 -14 -72 -14q-84 0 -149 65q-51 48 -109 27zM1274 1071v-180q0 -102 -45 -166q-50 -68 -144 -68h-53v-657h-164v72
q-113 -72 -280 -72q-207 0 -324 102q-121 106 -121 297v672h164v-672q0 -114 66 -174q70 -61 215 -61t215 61q65 59 65 174v672h164v-311h53q45 0 62 26q24 34 24 105v180h103z" />
    <glyph glyph-name="Uhorndotbelow" unicode="&#x1ef0;" horiz-adv-x="1386" 
d="M1366 1434v-181q0 -102 -45 -166q-49 -67 -143 -67h-54v-483q0 -253 -127 -392q-63 -72 -159 -110q-90 -35 -205 -35q-113 0 -203 35q-97 39 -160 110q-127 139 -127 392v897h164v-897q0 -187 84 -283q84 -90 242 -90q160 0 241 90q87 96 87 283v897h163v-312h54
q43 0 61 27q25 36 25 104v181h102zM635 -102q29 0 50.5 -21.5t21.5 -50.5t-21.5 -50.5t-50.5 -21.5t-50.5 21.5t-21.5 50.5t21.5 50.5t50.5 21.5z" />
    <glyph glyph-name="uhorndotbelow" unicode="&#x1ef1;" horiz-adv-x="1294" 
d="M1274 1071v-180q0 -102 -45 -166q-50 -68 -144 -68h-53v-657h-164v72q-113 -72 -280 -72q-207 0 -324 102q-121 106 -121 297v672h164v-672q0 -114 66 -174q70 -61 215 -61t215 61q65 59 65 174v672h164v-311h53q45 0 62 26q24 34 24 105v180h103zM588 -102
q29 0 50 -21.5t21 -50.5t-21 -50.5t-50 -21.5t-50.5 21.5t-21.5 50.5t21.5 50.5t50.5 21.5z" />
    <glyph glyph-name="Ygrave" unicode="&#x1ef2;" horiz-adv-x="1368" 
d="M889 1628l-45 -92l-365 182l47 90zM1225 1434l-459 -918v-516h-164v516l-459 918h183l358 -715l358 715h183z" />
    <glyph glyph-name="ygrave" unicode="&#x1ef3;" 
d="M793 1266l-45 -92l-365 182l47 90zM1032 1071v-1034q0 -189 -123 -297q-117 -102 -321 -102h-25q-154 0 -256 57q-110 58 -157 176l151 61q22 -59 84 -94q67 -37 178 -37h25q144 0 215 62q65 59 65 174v35q-113 -72 -280 -72q-207 0 -324 102q-121 106 -121 297v672h164
v-672q0 -117 66 -174q74 -61 215 -61t215 61q65 59 65 174v672h164z" />
    <glyph glyph-name="Ydotbelow" unicode="&#x1ef4;" horiz-adv-x="1368" 
d="M1225 1434l-459 -918v-516h-164v516l-459 918h183l358 -715l358 715h183zM684 -102q29 0 50.5 -21.5t21.5 -50.5t-21.5 -50.5t-50.5 -21.5t-50.5 21.5t-21.5 50.5t21.5 50.5t50.5 21.5z" />
    <glyph glyph-name="ydotbelow" unicode="&#x1ef5;" 
d="M1032 1071v-1034q0 -189 -123 -297q-117 -102 -321 -102h-25q-154 0 -256 57q-110 58 -157 176l151 61q22 -59 84 -94q67 -37 178 -37h25q144 0 215 62q65 59 65 174v35q-113 -72 -280 -72q-207 0 -324 102q-121 106 -121 297v672h164v-672q0 -117 66 -174
q74 -61 215 -61t215 61q65 59 65 174v672h164zM588 -424q29 0 50 -21.5t21 -50.5t-21 -50t-50 -21t-50.5 21t-21.5 50t21.5 50.5t50.5 21.5z" />
    <glyph glyph-name="Yhookabove" unicode="&#x1ef6;" horiz-adv-x="1368" 
d="M602 1763v103q76 0 121 -45q43 -43 43 -121q0 -76 -43 -119q-45 -45 -121 -45v102q33 0 47.5 14.5t14.5 47.5q0 34 -14 48.5t-48 14.5zM1225 1434l-459 -918v-516h-164v516l-459 918h183l358 -715l358 715h183z" />
    <glyph glyph-name="yhookabove" unicode="&#x1ef7;" 
d="M506 1401v102q76 0 121 -45q43 -43 43 -121q0 -75 -43 -118q-45 -45 -121 -45v102q33 0 47 14t14 47q0 34 -14 49t-47 15zM1032 1071v-1034q0 -189 -123 -297q-117 -102 -321 -102h-25q-154 0 -256 57q-110 58 -157 176l151 61q22 -59 84 -94q67 -37 178 -37h25
q144 0 215 62q65 59 65 174v35q-113 -72 -280 -72q-207 0 -324 102q-121 106 -121 297v672h164v-672q0 -117 66 -174q74 -61 215 -61t215 61q65 59 65 174v672h164z" />
    <glyph glyph-name="Ytilde" unicode="&#x1ef8;" horiz-adv-x="1368" 
d="M498 1724q55 22 116 8t105 -59q50 -50 110 -28q31 15 31 36h103q0 -43 -26 -78.5t-69 -52.5q-32 -14 -71 -14q-84 0 -150 66q-50 47 -108 26q-31 -12 -31 -37h-102q0 43 24.5 78.5t67.5 54.5zM1225 1434l-459 -918v-516h-164v516l-459 918h183l358 -715l358 715h183z" />
    <glyph glyph-name="ytilde" unicode="&#x1ef9;" 
d="M401 1362q55 22 116.5 8t105.5 -59q51 -51 110 -29q31 16 31 37h102q0 -43 -25.5 -78.5t-68.5 -52.5q-32 -14 -72 -14q-84 0 -149 65q-51 48 -109 27q-30 -12 -30 -37h-103q0 43 24.5 78.5t67.5 54.5zM1032 1071v-1034q0 -189 -123 -297q-117 -102 -321 -102h-25
q-154 0 -256 57q-110 58 -157 176l151 61q22 -59 84 -94q67 -37 178 -37h25q144 0 215 62q65 59 65 174v35q-113 -72 -280 -72q-207 0 -324 102q-121 106 -121 297v672h164v-672q0 -117 66 -174q74 -61 215 -61t215 61q65 59 65 174v672h164z" />
    <glyph glyph-name="endash" unicode="&#x2013;" horiz-adv-x="1193" 
d="M1051 455h-908v163h908v-163z" />
    <glyph glyph-name="emdash" unicode="&#x2014;" horiz-adv-x="1556" 
d="M1413 455h-1270v163h1270v-163z" />
    <glyph glyph-name="quoteleft" unicode="&#x2018;" horiz-adv-x="616" 
d="M143 1049h164q0 274 166 385l-92 137q-238 -162 -238 -522z" />
    <glyph glyph-name="quoteright" unicode="&#x2019;" horiz-adv-x="616" 
d="M473 1434h-164q0 -274 -166 -385l93 -138q237 161 237 523z" />
    <glyph glyph-name="quotesinglbase" unicode="&#x201a;" horiz-adv-x="473" 
d="M166 164h164q0 -360 -238 -522l-92 135q166 114 166 387z" />
    <glyph glyph-name="quotedblleft" unicode="&#x201c;" horiz-adv-x="923" 
d="M143 1049h164q0 274 166 385l-92 137q-238 -162 -238 -522zM451 1049h163q0 274 166 385l-92 137q-237 -161 -237 -522z" />
    <glyph glyph-name="quotedblright" unicode="&#x201d;" horiz-adv-x="923" 
d="M473 1434h-164q0 -274 -166 -385l93 -138q237 161 237 523zM780 1434h-164q0 -275 -165 -385l92 -138q237 161 237 523z" />
    <glyph glyph-name="quotedblbase" unicode="&#x201e;" horiz-adv-x="780" 
d="M330 164h-164q0 -274 -166 -385l92 -137q238 162 238 522zM637 164h-164q0 -274 -166 -385l92 -137q238 162 238 522z" />
    <glyph glyph-name="dagger" unicode="&#x2020;" horiz-adv-x="1103" 
d="M633 1071h328v-164h-328v-1280h-164v1280h-326v164h326v371h164v-371z" />
    <glyph glyph-name="daggerdbl" unicode="&#x2021;" horiz-adv-x="1103" 
d="M633 1071h328v-164h-328v-743h328v-164h-328v-373h-164v373h-326v164h326v743h-326v164h326v371h164v-371z" />
    <glyph glyph-name="bullet" unicode="&#x2022;" horiz-adv-x="761" 
d="M381 954q100 0 168.5 -68.5t68.5 -168.5t-68.5 -169t-168.5 -69t-169 69t-69 169t69 168.5t169 68.5z" />
    <glyph glyph-name="ellipsis" unicode="&#x2026;" horiz-adv-x="1187" 
d="M246 205q43 0 72.5 -30t29.5 -73t-29.5 -72.5t-72.5 -29.5t-73 29.5t-30 72.5t30 73t73 30zM594 205q43 0 72.5 -30t29.5 -73t-29.5 -72.5t-72.5 -29.5t-72.5 29.5t-29.5 72.5t29.5 73t72.5 30zM942 205q43 0 72.5 -30t29.5 -73t-29.5 -72.5t-72.5 -29.5t-72.5 29.5
t-29.5 72.5t29.5 73t72.5 30z" />
    <glyph glyph-name="perthousand" unicode="&#x2030;" horiz-adv-x="2150" 
d="M408 1434q127 0 196 -91q66 -78 66 -219q0 -138 -66 -219q-69 -88 -196 -88q-126 0 -199 88q-66 84 -66 219q0 138 66 219q72 91 199 91zM358 0h-200l1024 1434h200zM408 1270q-45 0 -72 -27q-29 -40 -29 -119q0 -76 29 -116q27 -27 72 -27q42 0 69 27q29 40 29 116
q0 79 -29 119q-27 27 -69 27zM1133 618q124 0 198 -90q66 -84 66 -219q0 -138 -66 -219q-72 -90 -198 -90q-127 0 -199 90q-66 81 -66 219q0 135 66 219q74 90 199 90zM1743 618q125 0 199 -90q65 -83 65 -219q0 -139 -65 -219q-72 -90 -199 -90t-199 90q-65 80 -65 219
q0 136 65 219q74 90 199 90zM1133 455q-51 0 -70 -29q-31 -39 -31 -117q0 -80 31 -116q19 -29 70 -29q50 0 69 29q31 36 31 116q0 78 -31 117q-19 29 -69 29zM1743 455q-51 0 -70 -29q-31 -39 -31 -117q0 -80 31 -116q19 -29 70 -29q50 0 69 29q31 36 31 116q0 78 -31 117
q-19 29 -69 29z" />
    <glyph glyph-name="guilsinglleft" unicode="&#x2039;" horiz-adv-x="774" 
d="M358 537l273 -318h-215l-273 318l273 317h215z" />
    <glyph glyph-name="guilsinglright" unicode="&#x203a;" horiz-adv-x="774" 
d="M358 854l273 -317l-273 -318h-215l273 318l-273 317h215z" />
    <glyph glyph-name="fraction" unicode="&#x2044;" horiz-adv-x="1513" 
d="M346 0h-203l1024 1434h203z" />
    <glyph glyph-name="Euro" unicode="&#x20ac;" horiz-adv-x="1148" 
d="M1006 1434v-164q-271 0 -414 -140q-78 -81 -111 -194h525v-164h-553v-108h553v-164h-525q34 -118 111 -195q141 -141 414 -141v-164q-166 0 -299 47q-136 47 -230 141q-93 93 -143 230q-20 68 -23 82h-168v164h146v108h-146v164h168q2 9 23 80q51 140 143 229
q90 93 230 141q128 48 299 48z" />
    <glyph glyph-name="trademark" unicode="&#x2122;" horiz-adv-x="1699" 
d="M688 1331h-221v-583h-102v583h-222v103h545v-103zM1556 748h-102v417l-211 -417h-115l-208 417v-417h-103v686h84l285 -572l287 572h83v-686z" />
    <glyph glyph-name="oneeighth" unicode="&#x215b;" horiz-adv-x="1650" 
d="M346 0h-203l1024 1434h203zM375 696h-103v738h103v-738zM1276 737q106 0 168 -53q63 -57 63 -156q0 -100 -63 -157l-2 -2l2 -2q63 -57 63 -156q0 -101 -63 -158q-62 -53 -168 -53q-109 0 -168 53q-66 57 -66 158q0 99 66 156l2 2l-2 2q-66 57 -66 157q0 99 66 156
q59 53 168 53zM1276 635q-65 0 -102 -29q-29 -26 -29 -78q0 -53 29 -79q37 -29 102 -29q63 0 100 29q29 26 29 79q0 52 -29 78q-37 29 -100 29zM1276 317q-66 0 -102 -28q-29 -26 -29 -78q0 -54 29 -80q37 -29 102 -29q63 0 100 29q29 26 29 80q0 52 -29 78q-36 28 -100 28z
" />
    <glyph glyph-name="threeeighths" unicode="&#x215c;" horiz-adv-x="1787" 
d="M377 1434q105 0 168 -54q63 -57 63 -155q0 -101 -63 -158l-2 -2l2 -2q63 -57 63 -156q0 -100 -63 -157q-63 -54 -168 -54q-110 0 -172 62t-62 172h103q0 -70 33 -99q28 -32 98 -32q64 0 100 28q29 26 29 80q0 52 -29 78q-37 29 -100 29h-47v102h47q63 0 100 29
q29 26 29 80q0 52 -29 78q-36 28 -100 28q-69 0 -98 -33q-33 -29 -33 -96h-103q0 108 62 170t172 62zM483 0h-202l1024 1434h202zM1413 737q106 0 168 -53q64 -58 64 -156q0 -99 -64 -157l-2 -2l2 -2q64 -58 64 -156q0 -100 -64 -158q-62 -53 -168 -53q-109 0 -168 53
q-65 56 -65 158q0 100 65 156l2 2l-2 2q-65 56 -65 157q0 100 65 156q59 53 168 53zM1413 635q-65 0 -102 -29q-29 -26 -29 -78q0 -53 29 -79q37 -29 102 -29q63 0 100 29q29 26 29 79q0 52 -29 78q-37 29 -100 29zM1413 317q-66 0 -102 -28q-29 -26 -29 -78q0 -54 29 -80
q37 -29 102 -29q63 0 100 29q29 26 29 80q0 52 -29 78q-36 28 -100 28z" />
    <glyph glyph-name="fiveeighths" unicode="&#x215d;" horiz-adv-x="1781" 
d="M557 1331h-311v-170h137q103 0 164 -61t61 -170q0 -111 -61 -172q-62 -62 -170 -62q-110 0 -172 62t-62 172h103q0 -70 33 -99q28 -32 98 -32q66 0 98 32q31 31 31 99q0 62 -31 98q-36 31 -98 31h-234v375h414v-103zM477 0h-203l1024 1434h203zM1407 737q106 0 168 -53
q63 -57 63 -156q0 -100 -63 -157l-2 -2l2 -2q63 -57 63 -156q0 -101 -63 -158q-62 -53 -168 -53q-109 0 -168 53q-65 56 -65 158q0 100 65 156l2 2l-2 2q-65 56 -65 157q0 100 65 156q59 53 168 53zM1407 635q-65 0 -102 -29q-29 -26 -29 -78q0 -53 29 -79q37 -29 102 -29
q63 0 100 29q29 26 29 79q0 52 -29 78q-37 29 -100 29zM1407 317q-66 0 -102 -28q-29 -26 -29 -78q0 -54 29 -80q37 -29 102 -29q63 0 100 29q29 26 29 80q0 52 -29 78q-36 28 -100 28z" />
    <glyph glyph-name="seveneighths" unicode="&#x215e;" horiz-adv-x="1650" 
d="M346 0h-203l1024 1434h203zM637 1311l-262 -615h-111l271 635h-330v103h432v-123zM1276 737q106 0 168 -53q63 -57 63 -156q0 -100 -63 -157l-2 -2l2 -2q63 -57 63 -156q0 -101 -63 -158q-62 -53 -168 -53q-109 0 -168 53q-66 57 -66 158q0 99 66 156l2 2l-2 2
q-66 57 -66 157q0 99 66 156q59 53 168 53zM1276 635q-65 0 -102 -29q-29 -26 -29 -78q0 -53 29 -79q37 -29 102 -29q63 0 100 29q29 26 29 79q0 52 -29 78q-37 29 -100 29zM1276 317q-66 0 -102 -28q-29 -26 -29 -78q0 -54 29 -80q37 -29 102 -29q63 0 100 29q29 26 29 80
q0 52 -29 78q-36 28 -100 28z" />
    <glyph glyph-name="arrowleft" unicode="&#x2190;" horiz-adv-x="1667" 
d="M727 1124l-291 -325h1088v-164h-1088l291 -326h-221l-363 408l363 407h221z" />
    <glyph glyph-name="arrowup" unicode="&#x2191;" horiz-adv-x="1101" 
d="M958 1044v-221l-325 291v-1087h-164v1087l-326 -291v221l408 363z" />
    <glyph glyph-name="arrowright" unicode="&#x2192;" horiz-adv-x="1667" 
d="M1524 717l-363 -408h-221l291 326h-1088v164h1088l-291 325h221z" />
    <glyph glyph-name="arrowdown" unicode="&#x2193;" horiz-adv-x="1101" 
d="M143 389v221l326 -291v1088h164v-1088l325 291v-221l-407 -362z" />
    <glyph glyph-name="uni2194" unicode="&#x2194;" horiz-adv-x="1775" 
d="M1632 717l-362 -408h-219l290 326h-905l289 -326h-219l-363 408l363 409h219l-289 -327h905l-290 327h219z" />
    <glyph glyph-name="arrowupdn" unicode="&#x2195;" horiz-adv-x="1103" 
d="M961 1098v-219l-328 290v-905l328 289v-219l-410 -363l-408 363v219l326 -289v905l-326 -290v219l408 362z" />
    <glyph glyph-name="uni2196" unicode="&#x2196;" horiz-adv-x="1333" 
d="M770 1241v-164h-348l768 -766l-117 -116l-766 768v-349h-164v627h627z" />
    <glyph glyph-name="uni2197" unicode="&#x2197;" horiz-adv-x="1333" 
d="M1190 614h-164v349l-766 -768l-117 116l768 766h-348v164h627v-627z" />
    <glyph glyph-name="uni2198" unicode="&#x2198;" horiz-adv-x="1333" 
d="M563 195v163h348l-768 766l117 117l766 -768v348h164v-626h-627z" />
    <glyph glyph-name="uni2199" unicode="&#x2199;" horiz-adv-x="1333" 
d="M143 821h164v-348l766 768l117 -117l-768 -766h348v-163h-627v626z" />
    <glyph glyph-name="partialdiff" unicode="&#x2202;" horiz-adv-x="1208" 
d="M293 1270v164q189 0 338 -76q138 -69 243 -199q91 -116 141 -262t50 -299q0 -246 -121 -410q-66 -87 -158 -137q-100 -51 -221 -51q-105 0 -182 39q-81 38 -135 104q-105 124 -105 301t105 304q56 68 135 102q79 39 182 39q191 0 312 -98q-41 149 -132 266
q-173 213 -452 213zM565 725q-123 0 -192 -84q-66 -79 -66 -197q0 -114 66 -196q72 -84 192 -84h25q103 0 192 94q78 91 78 211q0 109 -67 176q-77 80 -228 80z" />
    <glyph glyph-name="emptyset" unicode="&#x2205;" horiz-adv-x="1300" 
d="M1157 1108l-139 -141q78 -118 78 -250q0 -185 -131 -316t-314 -131q-134 0 -252 78l-139 -139l-117 117l140 139q-78 118 -78 252q0 182 131 313t315 131q132 0 250 -78l141 140zM453 915q-70 -70 -82 -162.5t30 -168.5l381 381q-76 42 -168.5 30t-160.5 -80zM899 848
l-381 -381q78 -42 172 -28.5t160 79.5q68 68 79.5 161t-30.5 169z" />
    <glyph glyph-name="product" unicode="&#x220f;" horiz-adv-x="1357" 
d="M1214 -414h-163v1733h-744v-1733h-164v1897h1071v-1897z" />
    <glyph glyph-name="summation" unicode="&#x2211;" horiz-adv-x="1193" 
d="M1051 1360h-762l493 -825l-493 -826h762v-164h-908v242l449 748l-449 747v242h908v-164z" />
    <glyph glyph-name="minus" unicode="&#x2212;" horiz-adv-x="1193" 
d="M1051 455h-908v163h908v-163z" />
    <glyph glyph-name="radical" unicode="&#x221a;" horiz-adv-x="1644" 
d="M1501 1442l-637 -1815h-174l-330 826h-217v163h328l303 -755l553 1581h174z" />
    <glyph glyph-name="infinity" unicode="&#x221e;" horiz-adv-x="1540" 
d="M1042 844q161 0 254 -78q101 -84 101 -231q0 -148 -101 -232q-93 -78 -254 -78t-254 78l-18 16l-18 -16q-93 -78 -254 -78t-254 78q-101 84 -101 232q0 147 101 231q93 78 254 78t254 -78l18 -16l18 16q93 78 254 78zM498 680q-103 0 -150 -41q-41 -35 -41 -104
q0 -70 41 -105q47 -41 150 -41q99 0 149 41q41 35 41 105q0 69 -41 104q-50 41 -149 41zM1042 680q-102 0 -149 -41q-41 -33 -41 -104q0 -72 41 -105q47 -41 149 -41q100 0 150 41q41 35 41 105q0 69 -41 104q-50 41 -150 41z" />
    <glyph glyph-name="integral" unicode="&#x222b;" horiz-adv-x="831" 
d="M688 1524v-164q-90 0 -137 -62q-53 -71 -53 -219v-1089q0 -202 -88 -318q-94 -127 -267 -127v164q89 0 136 62q55 70 55 219v1089q0 203 86 318q95 127 268 127z" />
    <glyph glyph-name="approxequal" unicode="&#x2248;" horiz-adv-x="1267" 
d="M528 909q101 -27 170 -121q25 -32 58.5 -48.5t63 -16t57.5 7.5q35 12 59.5 37.5t24.5 62.5h163q0 -88 -53.5 -157.5t-142.5 -98.5q-98 -31 -189 -4q-100 26 -172 121q-24 32 -57 49t-62 16.5t-57 -7.5q-35 -12 -59.5 -38t-24.5 -63h-164q0 88 53.5 157.5t143.5 98.5
q94 31 188 4zM528 500q101 -27 170 -121q25 -32 58.5 -48.5t63 -16t57.5 7.5q35 12 59.5 37.5t24.5 62.5h163q0 -88 -53.5 -157.5t-142.5 -98.5q-98 -31 -189 -4q-100 26 -172 121q-24 32 -57 48.5t-62 16t-57 -7.5q-35 -12 -59.5 -37.5t-24.5 -62.5h-164q0 88 53.5 157.5
t143.5 98.5q94 31 188 4z" />
    <glyph glyph-name="notequal" unicode="&#x2260;" horiz-adv-x="1193" 
d="M915 1092l-120 -293h256v-164h-324l-82 -199h406v-164h-473l-148 -354l-151 64l120 290h-256v164h324l82 199h-406v164h473l148 356z" />
    <glyph glyph-name="lessequal" unicode="&#x2264;" horiz-adv-x="1062" 
d="M920 1022l-494 -352l494 -355v-200l-777 555l777 553v-201zM920 12v-164h-777v164h777z" />
    <glyph glyph-name="greaterequal" unicode="&#x2265;" horiz-adv-x="1062" 
d="M920 670l-777 -555v200l494 355l-494 352v201zM920 -152h-777v164h777v-164z" />
    <glyph glyph-name="lozenge" unicode="&#x25ca;" horiz-adv-x="1394" 
d="M1251 717l-553 -776l-555 776l555 776zM344 717l354 -494l353 494l-353 493z" />
    <glyph glyph-name="i.loclTRK" horiz-adv-x="491" 
d="M246 1434q43 0 72.5 -30t29.5 -73q0 -42 -30 -72t-72 -30q-41 0 -72 30.5t-31 71.5q0 42 30.5 72.5t72.5 30.5zM328 0h-164v1071h164v-1071z" />
    <glyph glyph-name="zero.dnom" horiz-adv-x="751" 
d="M375 737q109 0 171 -74t62 -204v-180q0 -130 -62 -204.5t-171 -74.5t-170.5 74t-61.5 205v180q0 130 61.5 204t170.5 74zM375 635q-61 0 -94 -39q-35 -47 -35 -137v-180q0 -91 35 -138q33 -39 94 -39q65 0 94 39q37 46 37 138v180q0 91 -37 137q-29 39 -94 39z" />
    <glyph glyph-name="one.dnom" horiz-adv-x="389" 
d="M246 0h-103v737h103v-737z" />
    <glyph glyph-name="two.dnom" horiz-adv-x="751" 
d="M377 737q109 0 170 -61t61 -170q0 -111 -61 -172q-62 -62 -170 -62q-63 0 -96 -39q-35 -44 -35 -131h362v-102h-465v96q0 131 62 205t172 74q65 0 98 33q31 31 31 98q0 65 -31 96q-33 33 -98 33q-69 0 -98 -33q-33 -29 -33 -96h-103q0 108 62 170q61 61 172 61z" />
    <glyph glyph-name="three.dnom" horiz-adv-x="751" 
d="M377 737q106 0 168 -53q63 -57 63 -156q0 -100 -63 -157l-2 -2l2 -2q63 -57 63 -156q0 -101 -63 -158q-62 -53 -168 -53q-111 0 -172 61q-62 62 -62 172h103q0 -69 33 -98q29 -33 98 -33q63 0 100 29q29 26 29 80q0 52 -29 78q-36 28 -100 28h-47v103h47q63 0 100 29
q29 26 29 79q0 52 -29 78q-37 29 -100 29q-69 0 -98 -33q-33 -29 -33 -96h-103q0 108 62 170q61 61 172 61z" />
    <glyph glyph-name="four.dnom" horiz-adv-x="722" 
d="M246 238h231v137h103v-375h-103v135h-334v125l217 477h113z" />
    <glyph glyph-name="five.dnom" horiz-adv-x="751" 
d="M557 635h-311v-170h137q102 0 164 -62q61 -61 61 -170q0 -111 -61 -172t-170 -61q-111 0 -172 61q-62 62 -62 172h103q0 -69 33 -98q29 -33 98 -33q65 0 98 33q31 31 31 98q0 63 -31 99q-35 30 -98 30h-234v375h414v-102z" />
    <glyph glyph-name="six.dnom" horiz-adv-x="751" 
d="M557 635h-180q-63 0 -96 -39q-35 -47 -35 -137v-25q57 31 131 31q108 0 170 -62q61 -61 61 -170q0 -111 -61 -172t-170 -61q-110 0 -172 74t-62 205v180q0 131 62 204.5t172 73.5h180v-102zM377 362q-68 0 -98 -30q-27 -27 -33 -80q6 -67 35 -111q33 -39 96 -39
q65 0 98 33q31 31 31 98q0 63 -31 99q-35 30 -98 30z" />
    <glyph glyph-name="seven.dnom" horiz-adv-x="718" 
d="M575 614l-262 -614h-110l270 635h-330v102h432v-123z" />
    <glyph glyph-name="eight.dnom" horiz-adv-x="751" 
d="M377 737q106 0 168 -53q63 -57 63 -156q0 -100 -63 -157l-2 -2l2 -2q63 -57 63 -156q0 -101 -63 -158q-62 -53 -168 -53q-109 0 -168 53q-66 57 -66 158q0 99 66 156l2 2l-2 2q-66 57 -66 157q0 99 66 156q59 53 168 53zM377 635q-66 0 -103 -29q-28 -25 -28 -78
q0 -54 28 -79q37 -29 103 -29q63 0 100 29q29 26 29 79q0 52 -29 78q-37 29 -100 29zM377 317q-67 0 -103 -28q-28 -25 -28 -78q0 -55 28 -80q37 -29 103 -29q63 0 100 29q29 26 29 80q0 52 -29 78q-36 28 -100 28z" />
    <glyph glyph-name="nine.dnom" horiz-adv-x="751" 
d="M377 737q109 0 170 -73.5t61 -204.5v-180q0 -131 -61 -205t-170 -74h-182v102h182q61 0 94 39q35 47 35 138v24q-54 -31 -129 -31q-110 0 -172 62t-62 172q0 108 62 170q61 61 172 61zM377 635q-69 0 -98 -33q-33 -29 -33 -96q0 -69 33 -98q29 -33 98 -33q65 0 98 33
q25 25 31 77q-6 71 -35 111q-33 39 -94 39z" />
    <glyph glyph-name="zero.numr" horiz-adv-x="751" 
d="M375 1434q109 0 171 -74.5t62 -204.5v-180q0 -130 -62 -204.5t-171 -74.5t-170.5 74t-61.5 205v180q0 131 61.5 205t170.5 74zM375 1331q-61 0 -94 -39q-35 -47 -35 -137v-180q0 -90 35 -137q33 -39 94 -39q65 0 94 39q37 46 37 137v180q0 91 -37 137q-29 39 -94 39z" />
    <glyph glyph-name="one.numr" horiz-adv-x="389" 
d="M246 696h-103v738h103v-738z" />
    <glyph glyph-name="two.numr" horiz-adv-x="751" 
d="M377 1434q108 0 170 -62q61 -61 61 -170q0 -111 -61 -172t-170 -61q-63 0 -96 -39q-35 -44 -35 -131h362v-103h-465v97q0 131 62 204.5t172 73.5q65 0 98 33q31 31 31 98q0 65 -31 96q-33 33 -98 33q-69 0 -98 -33q-33 -29 -33 -96h-103q0 108 62 170t172 62z" />
    <glyph glyph-name="three.numr" horiz-adv-x="751" 
d="M377 1434q105 0 168 -54q63 -57 63 -155q0 -101 -63 -158l-2 -2l2 -2q63 -57 63 -156q0 -100 -63 -157q-63 -54 -168 -54q-110 0 -172 62t-62 172h103q0 -70 33 -99q28 -32 98 -32q64 0 100 28q29 26 29 80q0 52 -29 78q-37 29 -100 29h-47v102h47q63 0 100 29
q29 26 29 80q0 52 -29 78q-36 28 -100 28q-69 0 -98 -33q-33 -29 -33 -96h-103q0 108 62 170t172 62z" />
    <glyph glyph-name="four.numr" horiz-adv-x="722" 
d="M246 934h231v137h103v-375h-103v135h-334v125l217 478h113z" />
    <glyph glyph-name="five.numr" horiz-adv-x="751" 
d="M557 1331h-311v-170h137q103 0 164 -61t61 -170q0 -111 -61 -172q-62 -62 -170 -62q-110 0 -172 62t-62 172h103q0 -70 33 -99q28 -32 98 -32q66 0 98 32q31 31 31 99q0 62 -31 98q-36 31 -98 31h-234v375h414v-103z" />
    <glyph glyph-name="six.numr" horiz-adv-x="751" 
d="M557 1331h-180q-63 0 -96 -39q-35 -47 -35 -137v-25q57 31 131 31q109 0 170 -61t61 -170q0 -111 -61 -172q-62 -62 -170 -62q-110 0 -172 74t-62 205v180q0 131 62 205t172 74h180v-103zM377 1059q-67 0 -98 -31q-27 -27 -33 -80q6 -66 35 -110q33 -39 96 -39
q66 0 98 32q31 31 31 99q0 62 -31 98q-36 31 -98 31z" />
    <glyph glyph-name="seven.numr" horiz-adv-x="718" 
d="M575 1311l-262 -615h-110l270 635h-330v103h432v-123z" />
    <glyph glyph-name="eight.numr" horiz-adv-x="751" 
d="M377 1434q105 0 168 -54q63 -57 63 -155q0 -101 -63 -158l-2 -2l2 -2q63 -57 63 -156q0 -100 -63 -157q-63 -54 -168 -54q-108 0 -168 54q-66 57 -66 157q0 99 66 156l2 2l-2 2q-66 57 -66 158q0 98 66 155q60 54 168 54zM377 1331q-67 0 -103 -28q-28 -25 -28 -78
q0 -55 28 -80q37 -29 103 -29q63 0 100 29q29 26 29 80q0 52 -29 78q-36 28 -100 28zM377 1014q-66 0 -103 -29q-28 -25 -28 -78q0 -55 28 -80q36 -28 103 -28q64 0 100 28q29 26 29 80q0 52 -29 78q-37 29 -100 29z" />
    <glyph glyph-name="nine.numr" horiz-adv-x="751" 
d="M377 1434q109 0 170 -74t61 -205v-180q0 -131 -61 -205t-170 -74h-182v103h182q61 0 94 39q35 47 35 137v24q-53 -30 -129 -30q-111 0 -172 61q-62 62 -62 172q0 108 62 170t172 62zM377 1331q-69 0 -98 -33q-33 -29 -33 -96q0 -69 33 -98q29 -33 98 -33q65 0 98 33
q25 25 31 78q-6 70 -35 110q-33 39 -94 39z" />
    <glyph glyph-name="caronaccent" horiz-adv-x="102" 
d="M102 979h-102v455h102v-455z" />
    <glyph glyph-name="lowerslashaccent" horiz-adv-x="892" 
d="M893 954l-817 -907l-76 70l817 907z" />
    <glyph glyph-name="upperslashaccent" horiz-adv-x="991" 
d="M991 1323l-907 -1270l-84 60l907 1269z" />
    <glyph glyph-name="slashaccent" horiz-adv-x="589" 
d="M590 807l-545 -272l-45 92l545 272z" />
    <glyph glyph-name="baraccent" horiz-adv-x="589" 
d="M590 666h-590v102h590v-102z" />
    <glyph glyph-name="longbaraccent" horiz-adv-x="1179" 
d="M1180 666h-1180v102h1180v-102z" />
    <glyph glyph-name="breveacuteaccent" horiz-adv-x="542" 
d="M543 1952l-365 -183l-45 93l363 180zM362 1769h103q0 -110 -62 -172q-61 -61 -170 -61q-111 0 -172 61t-61 172h102q0 -69 33 -98q29 -33 98 -33q66 0 99 33q30 30 30 98z" />
    <glyph glyph-name="brevegraveaccent" horiz-adv-x="542" 
d="M410 1862l-45 -93l-365 183l47 90zM440 1769h103q0 -110 -62 -172q-61 -61 -170 -61q-111 0 -172 61t-61 172h102q0 -69 33 -98q29 -33 98 -33q66 0 99 33q30 30 30 98z" />
    <glyph glyph-name="brevehookaccent" horiz-adv-x="464" 
d="M193 1997v102q75 0 120 -45q43 -43 43 -121q0 -75 -43 -118q-46 -46 -120 -46v103q33 0 47 14t14 47q0 34 -14 49t-47 15zM362 1769h103q0 -110 -62 -172q-61 -61 -170 -61q-111 0 -172 61t-61 172h102q0 -69 33 -98q29 -33 98 -33q66 0 99 33q30 30 30 98z" />
    <glyph glyph-name="brevetildeaccent" horiz-adv-x="557" 
d="M92 1999q55 22 116 8t105 -59q51 -51 111 -29q31 15 31 37h102q0 -43 -25.5 -78.5t-68.5 -52.5q-35 -15 -72 -15q-83 0 -149 66q-51 48 -109 27q-31 -12 -31 -37h-102q0 43 24.5 78.5t67.5 54.5zM410 1769h102q0 -111 -61 -172t-170 -61q-111 0 -172 61q-62 62 -62 172
h103q0 -70 32 -98q29 -33 99 -33q65 0 98 33q31 31 31 98z" />
    <glyph glyph-name="circumflexacuteaccent" horiz-adv-x="518" 
d="M467 2005l-365 -182l-45 92l363 180zM258 1692l-195 -156l-63 80l258 207l260 -207l-63 -80z" />
    <glyph glyph-name="circumflexgraveaccent" horiz-adv-x="518" 
d="M465 1915l-45 -92l-365 182l47 90zM258 1692l-195 -156l-63 80l258 207l260 -207l-63 -80z" />
    <glyph glyph-name="circumflexhookaccent" horiz-adv-x="518" 
d="M258 2091v102q76 0 121 -45q43 -43 43 -120q0 -76 -43 -119q-45 -45 -121 -45v102q33 0 47 14.5t14 47.5q0 34 -14 48.5t-47 14.5zM258 1692l-195 -156l-63 80l258 207l260 -207l-63 -80z" />
    <glyph glyph-name="circumflextildeaccent" horiz-adv-x="557" 
d="M92 2032q55 22 116 8t105 -60q50 -50 111 -28q31 16 31 37h102q0 -43 -25.5 -78.5t-68.5 -52.5q-35 -15 -72 -15q-83 0 -149 66q-50 48 -109 26q-31 -12 -31 -37h-102q0 43 24.5 79t67.5 55zM276 1692l-194 -156l-64 80l258 207l261 -207l-64 -80z" />
    <glyph glyph-name="dieresisacuteaccent" horiz-adv-x="409" 
d="M410 1903l-365 -183l-45 92l362 181zM92 1679q29 0 50.5 -21t21.5 -50t-21.5 -50.5t-50.5 -21.5t-50.5 21.5t-21.5 50.5t21.5 50t50.5 21zM317 1679q29 0 50.5 -21t21.5 -50t-21.5 -50.5t-50.5 -21.5t-50 21.5t-21 50.5t21 50t50 21z" />
    <glyph glyph-name="dieresisgraveaccent" horiz-adv-x="409" 
d="M410 1812l-45 -92l-365 183l47 90zM92 1679q29 0 50.5 -21t21.5 -50t-21.5 -50.5t-50.5 -21.5t-50.5 21.5t-21.5 50.5t21.5 50t50.5 21zM317 1679q29 0 50.5 -21t21.5 -50t-21.5 -50.5t-50.5 -21.5t-50 21.5t-21 50.5t21 50t50 21z" />
    <glyph glyph-name="dieresiscaronaccent" horiz-adv-x="518" 
d="M518 1907l-260 -207l-258 207l63 80l195 -156l197 156zM147 1679q29 0 50.5 -21t21.5 -50t-21.5 -50.5t-50.5 -21.5t-50 21.5t-21 50.5t21 50t50 21zM373 1679q29 0 50 -21t21 -50t-21 -50.5t-50 -21.5t-50.5 21.5t-21.5 50.5t21.5 50t50.5 21z" />
    <glyph glyph-name="dieresismacronaccent" horiz-adv-x="368" 
d="M367 1741h-363v102h363v-102zM72 1679q29 0 50 -21t21 -50t-21 -50.5t-50 -21.5t-50.5 21.5t-21.5 50.5t21.5 50t50.5 21zM297 1679q29 0 50.5 -21t21.5 -50t-21.5 -50.5t-50.5 -21.5t-50.5 21.5t-21.5 50.5t21.5 50t50.5 21z" />
    </font>
</defs>
</svg>
