<?xml version="1.0" standalone="no"?>
<!DOCTYPE svg PUBLIC "-//W3C//DTD SVG 1.1//EN" "http://www.w3.org/Graphics/SVG/1.1/DTD/svg11.dtd" >
<svg xmlns="http://www.w3.org/2000/svg" xmlns:xlink="http://www.w3.org/1999/xlink" version="1.1">
<metadata>
Created by FontForge 20170731 at Sat Jul 25 12:18:26 2020
 By Aleksey,,,
Copyright (c) 2017 by Stefano Giliberti (brumale). All rights reserved.
</metadata>
<defs>
<font id="Anodina-Light" horiz-adv-x="1161" >
  <font-face 
    font-family="Anodina Light"
    font-weight="300"
    font-stretch="normal"
    units-per-em="2048"
    panose-1="0 0 4 0 0 0 0 0 0 0"
    ascent="1638"
    descent="-410"
    x-height="1061"
    cap-height="1434"
    bbox="-86 -598 2042 2193"
    underline-thickness="102"
    underline-position="-307"
    unicode-range="U+0020-25CA"
  />
<missing-glyph horiz-adv-x="1433" 
 />
    <glyph glyph-name=".notdef" horiz-adv-x="1433" 
 />
    <glyph glyph-name=".null" horiz-adv-x="0" 
 />
    <glyph glyph-name="nonmarkingreturn" horiz-adv-x="682" 
 />
    <glyph glyph-name="space" unicode=" " horiz-adv-x="532" 
 />
    <glyph glyph-name="exclam" unicode="!" horiz-adv-x="458" 
d="M295 442h-131v996h131v-996zM229 172q37 0 61.5 -24.5t24.5 -61.5t-24.5 -61.5t-61.5 -24.5t-61.5 24.5t-24.5 61.5t24.5 61.5t61.5 24.5z" />
    <glyph glyph-name="quotedbl" unicode="&#x22;" horiz-adv-x="692" 
d="M274 969h-131v465h131v-465zM549 969h-131v465h131v-465z" />
    <glyph glyph-name="numbersign" unicode="#" horiz-adv-x="1495" 
d="M1047 1016h305v-131h-305v-334h305v-131h-305v-420h-132v420h-333v-420h-131v420h-308v131h308v334h-308v131h308v418h131v-418h333v418h132v-418zM582 885v-334h333v334h-333z" />
    <glyph glyph-name="dollar" unicode="$" horiz-adv-x="1163" 
d="M647 1651v-217q142 -12 236 -84q119 -87 135 -252l-129 -15q-12 105 -84 162q-58 46 -158 55v-520q160 -15 252 -98q121 -106 121 -293q0 -188 -121 -291q-92 -83 -252 -98v-217h-131v217q-143 12 -237 84q-117 86 -136 252l131 14q9 -105 84 -162q56 -45 158 -57v522
q-158 15 -254 99q-119 107 -119 292q0 187 119 291q96 84 254 99v217h131zM516 786v517q-105 -12 -168 -66q-74 -65 -74 -193q0 -126 74 -194q61 -52 168 -64zM647 647v-514q108 12 166 64q76 67 76 192t-76 195q-57 51 -166 63z" />
    <glyph glyph-name="percent" unicode="%" horiz-adv-x="1533" 
d="M395 1434q119 0 189 -86q63 -78 63 -213q0 -132 -63 -213q-69 -84 -189 -84q-122 0 -188 84q-64 79 -64 213q0 137 64 213q67 86 188 86zM336 0h-162l1024 1434h162zM395 1303q-59 0 -86 -37q-35 -41 -35 -131q0 -87 35 -131q25 -35 86 -35t86 35q35 44 35 131
q0 90 -35 131q-27 37 -86 37zM1139 596q122 0 188 -84q64 -79 64 -213q0 -137 -64 -213q-67 -86 -188 -86q-122 0 -189 86q-63 75 -63 213q0 135 63 213q66 84 189 84zM1139 465q-61 0 -86 -35q-35 -44 -35 -131q0 -90 35 -131q27 -37 86 -37t86 37q35 41 35 131
q0 87 -35 131q-25 35 -86 35z" />
    <glyph glyph-name="ampersand" unicode="&#x26;" horiz-adv-x="1435" 
d="M641 1434q71 0 135 -29t105 -80q85 -102 57 -250q-27 -140 -150 -229q-47 -36 -102 -64q77 -91 352 -395q39 64 60 131q35 103 35 199h131q0 -107 -35.5 -220t-98.5 -210l162 -176l-96 -91q-3 4 -147 162q-176 -182 -408 -182q-125 0 -235 52.5t-179 144.5
q-122 159 -67 352q34 119 145 196q53 36 168 89q-16 20 -24 28q-90 116 -111 221q-22 105 18 185q40 81 121 123.5t164 42.5zM641 1303q-59 0 -104 -28.5t-62 -64.5q-20 -41 -10 -100q18 -77 88 -168q7 -9 23 -28t22 -27q90 40 142.5 88t68.5 125q15 85 -29 141
q-24 28 -61 45t-78 17zM561 727q-52 -22 -77.5 -33.5t-65.5 -33t-61 -40.5t-41.5 -47t-30.5 -61q-35 -126 47 -238q53 -66 129 -102q84 -41 180 -41q106 0 201 53q61 35 116 97q-253 277 -397 446z" />
    <glyph glyph-name="quotesingle" unicode="'" horiz-adv-x="417" 
d="M274 969h-131v465h131v-465z" />
    <glyph glyph-name="parenleft" unicode="(" horiz-adv-x="595" 
d="M379 1542l74 -108q-84 -57 -131 -158q-48 -108 -48 -252v-745q0 -141 48 -252q47 -101 131 -158l-74 -109q-115 78 -175.5 211t-60.5 308v745q0 175 60.5 307.5t175.5 210.5z" />
    <glyph glyph-name="parenright" unicode=")" horiz-adv-x="595" 
d="M143 1434l74 108q115 -78 175.5 -210.5t60.5 -307.5v-745q0 -175 -60.5 -308t-175.5 -211l-74 109q84 57 131 158q48 111 48 252v745q0 144 -48 252q-47 101 -131 158z" />
    <glyph glyph-name="asterisk" unicode="*" horiz-adv-x="811" 
d="M457 1249l159 92l52 -88l-160 -92l160 -92l-52 -88l-159 92v-184h-103v184l-159 -92l-52 88l160 92l-160 92l52 88l159 -92v185h103v-185z" />
    <glyph glyph-name="plus" unicode="+" horiz-adv-x="1216" 
d="M674 596h399v-131h-399v-399h-131v399h-400v131h400v399h131v-399z" />
    <glyph glyph-name="comma" unicode="," horiz-adv-x="452" 
d="M178 131h131q0 -175 -60 -307.5t-175 -210.5l-74 108q88 60 131 158q47 109 47 252z" />
    <glyph glyph-name="hyphen" unicode="-" horiz-adv-x="937" 
d="M795 465h-652v131h652v-131z" />
    <glyph glyph-name="period" unicode="." horiz-adv-x="458" 
d="M229 172q37 0 61.5 -24.5t24.5 -61.5t-24.5 -61.5t-61.5 -24.5t-61.5 24.5t-24.5 61.5t24.5 61.5t61.5 24.5z" />
    <glyph glyph-name="slash" unicode="/" horiz-adv-x="894" 
d="M752 1647l-465 -1860h-135l464 1860h136z" />
    <glyph glyph-name="zero" unicode="0" 
d="M580 1434q95 0 182 -33q85 -34 143 -98q113 -128 113 -355v-465q0 -224 -113 -352q-64 -70 -143 -98q-76 -33 -182 -33q-107 0 -183 33q-82 30 -141 98q-113 125 -113 352v465q0 230 113 355q52 61 141 98q87 33 183 33zM580 1303q-149 0 -226 -89q-80 -89 -80 -266v-465
q0 -177 80 -266q74 -86 226 -86q150 0 227 86q80 89 80 266v465q0 177 -80 266t-227 89z" />
    <glyph glyph-name="one" unicode="1" horiz-adv-x="770" 
d="M627 0h-131v1210l-260 -260l-93 92l392 392h92v-1434z" />
    <glyph glyph-name="two" unicode="2" 
d="M567 1434h15q202 0 317 -103q119 -104 119 -289q0 -103 -29 -180q-28 -86 -86 -141q-62 -62 -141 -88q-85 -29 -180 -29q-151 0 -228 -86q-80 -89 -80 -266v-121h744v-131h-875v252q0 224 113 352q59 68 141 98q79 33 185 33q148 0 229 78q76 76 76 229q0 126 -74 191
q-79 70 -231 70h-15q-242 0 -295 -230l-127 29q35 159 144 246q112 86 278 86z" />
    <glyph glyph-name="three" unicode="3" horiz-adv-x="1146" 
d="M565 1434q202 0 320 -103q119 -104 119 -289q0 -186 -119 -290q-40 -30 -49 -35q9 -5 49 -35q119 -104 119 -291t-119 -291q-118 -100 -320 -100q-167 0 -276 86q-111 85 -146 244l127 28q52 -227 295 -227q155 0 232 68q75 66 75 192q0 127 -75 193q-76 67 -232 67h-92
v131h92q155 0 232 68q75 66 75 192q0 125 -75 191q-79 70 -232 70q-242 0 -295 -230l-127 29q35 160 146 246q109 86 276 86z" />
    <glyph glyph-name="four" unicode="4" horiz-adv-x="1126" 
d="M274 410h578v280h131v-690h-131v279h-709v159l453 996h143z" />
    <glyph glyph-name="five" unicode="5" 
d="M952 1303h-678v-429h269q222 -3 346 -112q67 -61 96 -141q33 -76 33 -183q0 -105 -29 -182q-27 -82 -86 -141q-64 -61 -141 -86q-85 -29 -180 -29h-15q-166 0 -278 86q-109 86 -144 244l127 28q52 -227 295 -227h15q148 0 229 78q76 76 76 229q0 149 -86 226
q-88 79 -266 79h-392v691h809v-131z" />
    <glyph glyph-name="six" unicode="6" 
d="M582 1434h12q166 0 278 -86q109 -87 144 -246l-127 -29q-50 230 -295 230h-12q-148 0 -228 -89t-80 -266v-174q54 48 125 72q74 28 183 28q106 0 180 -28q82 -27 141 -86t86 -142q29 -77 29 -180q0 -105 -29 -182q-27 -82 -86 -141q-64 -61 -141 -86q-85 -29 -180 -29
q-106 0 -185 33q-78 28 -141 98q-113 128 -113 352v465q0 227 113 355q57 63 141 98q91 33 185 33zM582 743q-155 0 -230 -75q-72 -75 -78 -209q6 -159 80 -242q77 -86 228 -86q148 0 229 78q76 76 76 229q0 151 -76 230q-78 75 -229 75z" />
    <glyph glyph-name="seven" unicode="7" horiz-adv-x="1107" 
d="M965 1276l-545 -1276h-144l558 1303h-691v131h822v-158z" />
    <glyph glyph-name="eight" unicode="8" horiz-adv-x="1163" 
d="M582 1434q203 0 319 -101q119 -104 119 -291q0 -183 -119 -290q-40 -30 -49 -35q9 -5 49 -35q119 -104 119 -291t-119 -291q-118 -100 -319 -100q-205 0 -320 100q-119 104 -119 291t119 291q24 21 47 35q-23 14 -47 35q-119 107 -119 290q0 187 119 291q113 101 320 101
zM582 1303q-157 0 -234 -68q-74 -65 -74 -193q0 -127 74 -192q77 -68 234 -68q154 0 231 68q76 67 76 192q0 126 -76 193q-77 68 -231 68zM582 651q-158 0 -234 -67q-74 -65 -74 -193q0 -127 74 -192q77 -68 234 -68q154 0 231 68q76 67 76 192q0 126 -76 193t-231 67z" />
    <glyph glyph-name="nine" unicode="9" 
d="M580 0h-13q-166 0 -278 86q-109 87 -144 246l127 28q50 -229 295 -229h13q148 0 227 88q80 89 80 266v174q-52 -46 -125 -71q-77 -29 -182 -29q-104 0 -181 29q-82 27 -141 86t-86 141q-29 77 -29 180q0 106 29 183q27 82 86 141q64 61 141 86q85 29 181 29
q105 0 184 -33q78 -28 141 -98q113 -128 113 -353v-465q0 -226 -113 -354q-57 -63 -141 -98q-91 -33 -184 -33zM580 690q153 0 229 76q72 75 78 209q-6 159 -80 242q-77 86 -227 86q-149 0 -230 -78q-76 -76 -76 -230q0 -150 76 -229q79 -76 230 -76z" />
    <glyph glyph-name="colon" unicode=":" horiz-adv-x="458" 
d="M229 803q37 0 61.5 -24.5t24.5 -61.5t-24.5 -61.5t-61.5 -24.5t-61.5 24.5t-24.5 61.5t24.5 61.5t61.5 24.5zM229 172q37 0 61.5 -24.5t24.5 -61.5t-24.5 -61.5t-61.5 -24.5t-61.5 24.5t-24.5 61.5t24.5 61.5t61.5 24.5z" />
    <glyph glyph-name="semicolon" unicode=";" horiz-adv-x="473" 
d="M244 803q37 0 61.5 -24.5t24.5 -61.5t-24.5 -61.5t-61.5 -24.5t-61.5 24.5t-24.5 61.5t24.5 61.5t61.5 24.5zM178 131h131q0 -175 -60 -307.5t-175 -210.5l-74 108q88 60 131 158q47 109 47 252z" />
    <glyph glyph-name="less" unicode="&#x3c;" horiz-adv-x="1050" 
d="M907 913l-538 -385l538 -383v-161l-764 544l764 547v-162z" />
    <glyph glyph-name="equal" unicode="=" horiz-adv-x="1216" 
d="M1073 651h-930v131h930v-131zM1073 279h-930v131h930v-131z" />
    <glyph glyph-name="greater" unicode="&#x3e;" horiz-adv-x="1050" 
d="M907 528l-764 -544v161l539 383l-539 385v162z" />
    <glyph glyph-name="question" unicode="?" horiz-adv-x="1069" 
d="M535 1434q168 0 278 -113q113 -113 113 -279q0 -126 -66 -233q-5 -8 -11.5 -16.5t-11.5 -15.5t-13 -16t-12.5 -14.5t-13.5 -14.5t-12.5 -13t-14 -14t-13.5 -13t-14 -13.5t-13 -12.5q-34 -31 -52.5 -50.5t-39.5 -48.5t-30 -60t-9 -69h-131q0 58 14 106.5t44 90t52.5 65.5
t63.5 62q34 32 48 46t39 44.5t35.5 54t20 59.5t9.5 76q0 113 -74 187q-77 74 -186 74q-129 0 -195 -66t-66 -195h-131q0 184 103 287q105 105 289 105zM535 172q37 0 61.5 -24.5t24.5 -61.5t-24.5 -61.5t-61.5 -24.5t-61.5 24.5t-24.5 61.5t24.5 61.5t61.5 24.5z" />
    <glyph glyph-name="at" unicode="@" horiz-adv-x="2185" 
d="M1092 1665q193 0 364 -57q175 -55 303 -168q139 -122 211 -294.5t72 -383.5q0 -257 -107 -410q-47 -70 -114 -112q-65 -39 -144 -39q-73 0 -137 37q-66 40 -110 104q-33 47 -48 84q-3 -3 -10 -13.5t-12 -15.5q-103 -118 -291 -118q-103 0 -180 26q-83 30 -141 88
q-59 59 -89 142q-28 82 -28 180t28 180q31 86 89 141q62 62 141 88q85 29 180 29q158 0 260 -88v88h131v-438q0 -188 76 -299q62 -84 141 -84q86 0 152 94q82 122 82 336q0 190 -66 340q-62 146 -172 237q-112 98 -258 146q-146 49 -323 49q-165 0 -318 -66
q-143 -60 -260 -174q-113 -113 -176 -260q-64 -156 -64 -319q0 -162 64 -318q60 -144 176 -260t260 -176q154 -63 318 -63q192 0 366 86l58 -117q-193 -100 -424 -100q-195 0 -369 73q-175 76 -301 205q-129 126 -205 301q-74 177 -74 369q0 193 74 370q73 169 205 301
q133 133 301 203q181 76 369 76zM1069 1022q-151 0 -229 -78t-78 -229q0 -152 78 -230q75 -75 229 -75q129 0 193 73q67 76 67 232q0 157 -67 233q-65 74 -193 74z" />
    <glyph glyph-name="A" unicode="A" horiz-adv-x="1402" 
d="M1260 0h-140l-100 279h-639l-98 -279h-140l512 1434h93zM428 410h545l-273 764z" />
    <glyph glyph-name="B" unicode="B" horiz-adv-x="1255" 
d="M143 1434h531q201 0 319 -103q119 -104 119 -289q0 -186 -119 -290q-40 -30 -49 -35q9 -5 49 -35q119 -104 119 -291t-119 -291q-118 -100 -319 -100h-531v1434zM274 1303v-521h400q154 0 231 68q76 67 76 192q0 124 -76 191q-79 70 -231 70h-400zM274 651v-520h400
q154 0 231 68q76 67 76 192q0 126 -76 193t-231 67h-400z" />
    <glyph glyph-name="C" unicode="C" horiz-adv-x="1228" 
d="M627 1434q177 0 294.5 -84.5t163.5 -243.5l-127 -35q-65 232 -331 232q-170 0 -260 -101q-93 -104 -93 -299v-373q0 -197 93 -301q88 -98 260 -98q267 0 331 231l127 -36q-46 -157 -164 -241.5t-294 -84.5q-110 0 -203 35q-96 41 -156 106q-125 143 -125 389v373
q0 247 125 387q66 72 156 107q90 37 203 37z" />
    <glyph glyph-name="D" unicode="D" horiz-adv-x="1255" 
d="M143 1434h484q115 0 202 -37q93 -35 156 -107q127 -139 127 -387v-373q0 -247 -127 -389q-57 -65 -156 -106q-90 -35 -202 -35h-484v1434zM274 1303v-1172h353q174 0 262 98q92 103 92 301v373q0 196 -92 299q-90 101 -262 101h-353z" />
    <glyph glyph-name="E" unicode="E" horiz-adv-x="1142" 
d="M999 1303h-725v-521h725v-131h-725v-520h725v-131h-856v1434h856v-131z" />
    <glyph glyph-name="F" unicode="F" horiz-adv-x="1142" 
d="M999 1303h-725v-521h725v-131h-725v-651h-131v1434h856v-131z" />
    <glyph glyph-name="G" unicode="G" horiz-adv-x="1255" 
d="M627 1434h24q175 0 294 -85t163 -243l-125 -35q-68 232 -332 232h-24q-170 0 -260 -101q-93 -104 -93 -299v-373q0 -197 93 -301q88 -98 260 -98q174 0 262 98q92 103 92 301v121h-354v131h485v-252q0 -247 -127 -389q-57 -65 -156 -106q-90 -35 -202 -35q-110 0 -203 35
q-96 41 -156 106q-125 143 -125 389v373q0 247 125 387q66 72 156 107q90 37 203 37z" />
    <glyph glyph-name="H" unicode="H" horiz-adv-x="1255" 
d="M1112 0h-131v651h-707v-651h-131v1434h131v-652h707v652h131v-1434z" />
    <glyph glyph-name="I" unicode="I" horiz-adv-x="417" 
d="M274 0h-131v1434h131v-1434z" />
    <glyph glyph-name="J" unicode="J" horiz-adv-x="724" 
d="M582 1434v-904q0 -243 -111 -385q-118 -145 -328 -145v131q148 0 226 96q82 105 82 303v904h131z" />
    <glyph glyph-name="K" unicode="K" horiz-adv-x="1275" 
d="M659 819l474 -819h-152l-410 707l-297 -385v-322h-131v1434h131v-897l695 897h164z" />
    <glyph glyph-name="L" unicode="L" horiz-adv-x="1142" 
d="M274 131h725v-131h-856v1434h131v-1303z" />
    <glyph glyph-name="M" unicode="M" horiz-adv-x="1626" 
d="M1483 0h-131v1071l-498 -1071h-82l-498 1071v-1071h-131v1434h107l563 -1213l563 1213h107v-1434z" />
    <glyph glyph-name="N" unicode="N" horiz-adv-x="1255" 
d="M1112 0h-102l-736 1145v-1145h-131v1434h101l737 -1145v1145h131v-1434z" />
    <glyph glyph-name="O" unicode="O" horiz-adv-x="1255" 
d="M627 1434q115 0 202 -37q93 -35 156 -107q127 -139 127 -387v-373q0 -247 -127 -389q-57 -65 -156 -106q-90 -35 -202 -35q-110 0 -203 35q-96 41 -156 106q-125 143 -125 389v373q0 247 125 387q66 72 156 107q90 37 203 37zM627 1303q-170 0 -260 -101
q-93 -104 -93 -299v-373q0 -197 93 -301q88 -98 260 -98q174 0 262 98q92 103 92 301v373q0 196 -92 299q-90 101 -262 101z" />
    <glyph glyph-name="P" unicode="P" horiz-adv-x="1255" 
d="M143 1434h484q227 0 354 -115q61 -52 98 -141q33 -87 33 -183q0 -95 -33 -182q-37 -89 -98 -141q-127 -115 -354 -115h-353v-557h-131v1434zM274 1303v-615h353q173 0 266 80q88 79 88 227q0 149 -88 228q-93 80 -266 80h-353z" />
    <glyph glyph-name="Q" unicode="Q" horiz-adv-x="1255" 
d="M629 1434q109 0 202 -35q95 -40 156 -107q125 -140 125 -389v-373q0 -246 -125 -389q-60 -65 -156 -106q-6 -1 -14.5 -4t-11.5 -4l278 -187l-73 -108l-402 268q-97 3 -182 35q-98 40 -158 106q-125 143 -125 389v373q0 249 125 389q62 68 158 107q90 35 203 35zM629 1303
q-173 0 -262 -99q-93 -104 -93 -301v-373q0 -197 93 -301q88 -98 262 -98q172 0 260 98q92 103 92 301v373q0 198 -92 301q-89 99 -260 99z" />
    <glyph glyph-name="R" unicode="R" horiz-adv-x="1255" 
d="M143 1434h484q226 0 354 -113q63 -57 98 -141q33 -91 33 -185q0 -95 -33 -182q-35 -84 -98 -141q-108 -99 -291 -111l422 -561h-164l-420 559h-254v-559h-131v1434zM274 1303v-613h353q177 0 266 80q88 76 88 225t-88 228q-89 80 -266 80h-353z" />
    <glyph glyph-name="S" unicode="S" horiz-adv-x="1255" 
d="M627 1434h24q175 0 294 -85t163 -243l-125 -35q-68 232 -332 232h-24q-179 0 -269 -72q-84 -66 -84 -189q0 -124 84 -190q92 -70 269 -70q225 0 350 -98q135 -104 135 -293t-135 -293q-125 -98 -350 -98h-23q-176 0 -294.5 84.5t-164.5 241.5l127 36q64 -231 332 -231h23
q178 0 270 70q84 66 84 190q0 123 -84 189q-89 71 -270 71q-225 0 -351 99q-133 105 -133 292q0 185 133 293q132 99 351 99z" />
    <glyph glyph-name="T" unicode="T" horiz-adv-x="1169" 
d="M1026 1303h-375v-1303h-131v1303h-377v131h883v-131z" />
    <glyph glyph-name="U" unicode="U" horiz-adv-x="1255" 
d="M1112 1434v-904q0 -247 -127 -389q-57 -65 -156 -106q-90 -35 -202 -35q-110 0 -203 35q-96 41 -156 106q-125 143 -125 389v904h131v-904q0 -197 93 -301q88 -98 260 -98q174 0 262 98q92 103 92 301v904h131z" />
    <glyph glyph-name="V" unicode="V" horiz-adv-x="1304" 
d="M700 0h-96l-461 1434h138l370 -1153l371 1153h139z" />
    <glyph glyph-name="W" unicode="W" horiz-adv-x="2140" 
d="M1536 0h-94l-371 1153l-371 -1153h-96l-461 1434h138l370 -1153l371 1153h96l371 -1153l371 1153h137z" />
    <glyph glyph-name="X" unicode="X" horiz-adv-x="1310" 
d="M731 717l436 -717h-153l-359 590l-358 -590h-154l437 717l-437 717h154l358 -590l359 590h153z" />
    <glyph glyph-name="Y" unicode="Y" horiz-adv-x="1335" 
d="M733 514v-514h-131v514l-459 920h148l377 -756l379 756h145z" />
    <glyph glyph-name="Z" unicode="Z" horiz-adv-x="1216" 
d="M1073 1255l-803 -1124h803v-131h-930v178l803 1125h-803v131h930v-179z" />
    <glyph glyph-name="bracketleft" unicode="[" horiz-adv-x="630" 
d="M487 1434h-213v-1543h213v-131h-344v1805h344v-131z" />
    <glyph glyph-name="backslash" unicode="\" horiz-adv-x="886" 
d="M743 -213h-135l-465 1860h136z" />
    <glyph glyph-name="bracketright" unicode="]" horiz-adv-x="630" 
d="M487 1565v-1805h-344v131h213v1543h-213v131h344z" />
    <glyph glyph-name="asciicircum" unicode="^" horiz-adv-x="1366" 
d="M1223 596h-150l-389 702l-391 -702h-150l465 838h150z" />
    <glyph glyph-name="underscore" unicode="_" horiz-adv-x="1216" 
d="M1073 -233h-930v131h930v-131z" />
    <glyph glyph-name="grave" unicode="`" horiz-adv-x="409" 
d="M410 1628l-45 -92l-365 182l47 90z" />
    <glyph glyph-name="a" unicode="a" horiz-adv-x="1163" 
d="M580 1061h2q201 0 319 -100q119 -104 119 -291v-670h-131v90q-116 -90 -307 -90h-47q-175 0 -279 72q-113 81 -113 227q0 144 113 225q104 72 279 72h354v74q0 125 -76 192q-77 68 -231 68h-2q-144 0 -222 -60q-72 -54 -84 -161l-129 14q15 163 134 252q115 86 301 86z
M889 465h-354q-135 0 -203 -47q-58 -43 -58 -119q0 -78 58 -121q68 -47 203 -47h47q154 0 231 68q76 67 76 192v74z" />
    <glyph glyph-name="b" unicode="b" 
d="M274 1434v-463q116 90 308 90q202 0 317 -100q119 -104 119 -291v-279q0 -187 -119 -291q-115 -100 -317 -100q-192 0 -308 90v-90h-131v1434h131zM582 930q-157 0 -234 -68q-74 -65 -74 -192v-279q0 -127 74 -192q77 -68 234 -68q154 0 231 68q74 65 74 192v279
q0 127 -74 192q-77 68 -231 68z" />
    <glyph glyph-name="c" unicode="c" horiz-adv-x="1132" 
d="M582 1061q151 0 252 -55q108 -57 155 -172l-123 -50q-27 70 -94 107q-76 39 -190 39q-157 0 -234 -68q-74 -65 -74 -192v-279q0 -127 74 -192q77 -68 234 -68q114 0 190 39q68 38 94 106l123 -49q-47 -115 -155 -172q-101 -55 -252 -55q-205 0 -320 100
q-119 104 -119 291v279q0 187 119 291q115 100 320 100z" />
    <glyph glyph-name="d" unicode="d" 
d="M1018 1434v-1434h-131v90q-116 -90 -307 -90q-203 0 -318 100q-119 104 -119 291v279q0 187 119 291q115 100 318 100q191 0 307 -90v463h131zM580 930q-155 0 -232 -68q-74 -65 -74 -192v-279q0 -127 74 -192q77 -68 232 -68q156 0 233 68q74 65 74 192v279
q0 127 -74 192q-77 68 -233 68z" />
    <glyph glyph-name="e" unicode="e" 
d="M582 1061q202 0 317 -100q119 -104 119 -291v-205h-744v-74q0 -127 74 -192q77 -68 234 -68h24q115 0 191 39q67 37 96 106l121 -49q-47 -114 -156 -172q-101 -55 -252 -55h-24q-205 0 -320 100q-119 104 -119 291v279q0 187 119 291q115 100 320 100zM582 930
q-157 0 -234 -68q-74 -65 -74 -192v-74h613v74q0 127 -74 192q-77 68 -231 68z" />
    <glyph glyph-name="f" unicode="f" horiz-adv-x="890" 
d="M748 1303h-93q-107 0 -166 -46q-47 -41 -47 -122v-74h306v-131h-306v-930h-131v930h-168v131h168v74q0 140 95 223q95 76 249 76h93v-131z" />
    <glyph glyph-name="g" unicode="g" 
d="M1018 1061v-1043q0 -186 -119 -290q-116 -101 -317 -101h-25q-151 0 -254 56q-109 58 -156 172l123 49q26 -69 95 -107q76 -39 192 -39h25q154 0 231 68q74 65 74 192v72q-112 -90 -305 -90q-208 0 -320 100q-119 104 -119 291v279q0 184 119 288q115 103 320 103
q190 0 305 -92v92h131zM582 930q-155 0 -234 -70q-74 -65 -74 -190v-279q0 -127 74 -192q77 -68 234 -68q154 0 231 68q74 65 74 192v279q0 125 -74 190q-79 70 -231 70z" />
    <glyph glyph-name="h" unicode="h" 
d="M274 1434v-463q116 90 308 90q202 0 317 -100q119 -104 119 -291v-670h-131v670q0 127 -74 192q-77 68 -231 68q-157 0 -234 -68q-74 -65 -74 -192v-670h-131v1434h131z" />
    <glyph glyph-name="i" unicode="i" horiz-adv-x="458" 
d="M229 1434q37 0 61.5 -24.5t24.5 -61.5t-24.5 -61.5t-61.5 -24.5t-61.5 24.5t-24.5 61.5t24.5 61.5t61.5 24.5zM295 0h-131v1061h131v-1061z" />
    <glyph glyph-name="j" unicode="j" horiz-adv-x="555" 
d="M326 1434q37 0 61.5 -24.5t24.5 -61.5t-24.5 -61.5t-61.5 -24.5t-61.5 24.5t-24.5 61.5t24.5 61.5t61.5 24.5zM391 1061v-995q0 -205 -100 -320q-104 -119 -291 -119v131q128 0 193 74q67 76 67 234v995h131z" />
    <glyph glyph-name="k" unicode="k" horiz-adv-x="1097" 
d="M274 514l502 547h178l-432 -471l432 -590h-163l-359 492l-158 -173v-319h-131v1434h131v-920z" />
    <glyph glyph-name="l" unicode="l" horiz-adv-x="585" 
d="M274 1434v-1043q0 -136 48 -203q42 -57 120 -57v-131q-146 0 -227 113q-72 101 -72 278v1043h131z" />
    <glyph glyph-name="m" unicode="m" horiz-adv-x="1904" 
d="M1325 1061q202 0 317 -100q119 -104 119 -291v-670h-131v670q0 127 -74 192q-77 68 -231 68q-153 0 -233 -68q-74 -65 -74 -192v-670h-131v670q0 127 -74 192q-77 68 -231 68q-157 0 -234 -68q-74 -65 -74 -192v-670h-131v1061h131v-90q116 90 308 90q202 0 317 -100
q30 -27 53 -60q33 41 54 60q115 100 319 100z" />
    <glyph glyph-name="n" unicode="n" 
d="M582 1061q202 0 317 -100q119 -104 119 -291v-670h-131v670q0 127 -74 192q-77 68 -231 68q-157 0 -234 -68q-74 -65 -74 -192v-670h-131v1061h131v-90q116 90 308 90z" />
    <glyph glyph-name="o" unicode="o" 
d="M582 1061q202 0 317 -100q119 -104 119 -291v-279q0 -187 -119 -291q-115 -100 -317 -100q-205 0 -320 100q-119 104 -119 291v279q0 187 119 291q115 100 320 100zM582 930q-157 0 -234 -68q-74 -65 -74 -192v-279q0 -127 74 -192q77 -68 234 -68q154 0 231 68
q74 65 74 192v279q0 127 -74 192q-77 68 -231 68z" />
    <glyph glyph-name="p" unicode="p" 
d="M582 1061q202 0 317 -103q119 -104 119 -288v-279q0 -187 -119 -291q-112 -100 -317 -100q-196 0 -308 90v-463h-131v1434h131v-92q115 92 308 92zM582 930q-155 0 -234 -70q-74 -65 -74 -190v-279q0 -127 74 -192q77 -68 234 -68q154 0 231 68q74 65 74 192v279
q0 125 -74 190q-79 70 -231 70z" />
    <glyph glyph-name="q" unicode="q" 
d="M580 1061q192 0 307 -92v92h131v-1434h-131v463q-112 -90 -307 -90q-206 0 -318 100q-119 104 -119 291v279q0 184 119 288q115 103 318 103zM580 930q-153 0 -232 -70q-74 -65 -74 -190v-279q0 -127 74 -192q77 -68 232 -68q156 0 233 68q74 65 74 192v279
q0 125 -74 190q-79 70 -233 70z" />
    <glyph glyph-name="r" unicode="r" horiz-adv-x="817" 
d="M674 930h-92q-157 0 -234 -68q-74 -65 -74 -192v-670h-131v1061h131v-90q116 90 308 90h92v-131z" />
    <glyph glyph-name="s" unicode="s" 
d="M582 1061h24q151 0 252 -55q109 -58 156 -172l-121 -50q-30 70 -96 107q-76 39 -191 39h-24q-165 0 -242 -51q-66 -40 -66 -115q0 -77 66 -117q77 -51 242 -51q194 0 309 -70q127 -80 127 -227q0 -149 -127 -229q-115 -70 -309 -70h-25q-153 0 -254 55q-109 58 -156 172
l123 49q26 -68 95 -106q76 -39 192 -39h25q162 0 239 51q66 40 66 117q0 75 -66 115q-77 51 -239 51q-194 0 -312 70q-127 80 -127 229q0 147 127 227q118 70 312 70z" />
    <glyph glyph-name="t" unicode="t" horiz-adv-x="890" 
d="M442 1061h306v-131h-306v-539q0 -127 74 -192q77 -68 232 -68v-131q-202 0 -320 100q-117 105 -117 291v539h-168v131h168v373h131v-373z" />
    <glyph glyph-name="u" unicode="u" horiz-adv-x="1163" 
d="M1020 0h-131v90q-116 -90 -307 -90q-202 0 -320 100q-119 104 -119 291v670h131v-670q0 -125 76 -192q77 -68 232 -68q154 0 231 68q76 67 76 192v670h131v-1061z" />
    <glyph glyph-name="v" unicode="v" horiz-adv-x="1224" 
d="M657 0h-90l-424 1061h142l327 -819l328 819h141z" />
    <glyph glyph-name="w" unicode="w" horiz-adv-x="1968" 
d="M1401 0h-90l-328 819l-326 -819h-90l-424 1061h142l327 -819l328 819h88l328 -819l327 819h142z" />
    <glyph glyph-name="x" unicode="x" horiz-adv-x="1189" 
d="M674 530l373 -530h-160l-293 416l-291 -416h-160l371 530l-371 531h160l291 -416l293 416h160z" />
    <glyph glyph-name="y" unicode="y" 
d="M1018 1061v-1043q0 -186 -119 -290q-116 -101 -317 -101h-25q-151 0 -254 56q-109 58 -156 172l123 49q26 -69 95 -107q76 -39 192 -39h25q154 0 231 68q74 65 74 192v72q-112 -90 -305 -90q-208 0 -320 100q-119 104 -119 291v670h131v-670q0 -127 74 -192
q77 -68 234 -68q154 0 231 68q74 65 74 192v670h131z" />
    <glyph glyph-name="z" unicode="z" horiz-adv-x="1124" 
d="M981 897l-690 -766h690v-131h-838v164l691 766h-691v131h838v-164z" />
    <glyph glyph-name="braceleft" unicode="{" horiz-adv-x="659" 
d="M516 1565v-131q-56 0 -84 -43q-37 -55 -37 -170v-279q0 -155 -59 -244q-10 -15 -29 -34q25 -30 29 -37q59 -89 59 -244v-279q0 -115 37 -170q30 -43 84 -43v-131q-127 0 -192 103q-60 88 -60 241v279q0 117 -37 172q-30 43 -84 43v131q56 0 84 43q37 52 37 170v279
q0 152 60 243q66 101 192 101z" />
    <glyph glyph-name="bar" unicode="|" horiz-adv-x="417" 
d="M274 -399h-131v1859h131v-1859z" />
    <glyph glyph-name="braceright" unicode="}" horiz-adv-x="649" 
d="M133 1434v131q127 0 193 -101q59 -89 59 -243v-279q0 -118 37 -170q28 -43 84 -43v-131q-54 0 -84 -43q-37 -55 -37 -172v-279q0 -155 -59 -241q-65 -103 -193 -103v131q54 0 84 43q37 55 37 170v279q0 155 59 244q4 7 29 37q-19 19 -29 34q-59 89 -59 244v279
q0 115 -37 170q-28 43 -84 43z" />
    <glyph glyph-name="asciitilde" unicode="~" horiz-adv-x="1255" 
d="M514 686q98 -27 166 -117q28 -38 66 -57t71.5 -18t65.5 10q50 16 74 50t24 69h131q0 -83 -51 -149.5t-137 -94.5q-95 -30 -183 -4q-101 27 -166 117q-28 37 -65.5 55.5t-71 18t-65.5 -8.5q-50 -17 -74.5 -51t-24.5 -70h-131q0 83 51.5 150t137.5 96q93 28 182 4z" />
    <glyph glyph-name="exclamdown" unicode="&#xa1;" horiz-adv-x="458" 
d="M229 889q-37 0 -61.5 24.5t-24.5 61.5t24.5 61.5t61.5 24.5t61.5 -24.5t24.5 -61.5t-24.5 -61.5t-61.5 -24.5zM164 -377v995h131v-995h-131z" />
    <glyph glyph-name="cent" unicode="&#xa2;" horiz-adv-x="1126" 
d="M649 1280v-219q100 -9 178 -53q107 -59 156 -170l-121 -54q-65 148 -278 148q-157 0 -232 -78q-78 -78 -78 -231v-187q0 -153 78 -231t232 -78q214 0 278 149l121 -55q-49 -111 -156 -170q-80 -42 -178 -51v-219h-131v219q-57 6 -117 25q-79 26 -141 88t-88 141
q-29 85 -29 182v187q0 97 29 182q27 82 88 143q58 58 141 88q60 19 117 25v219h131z" />
    <glyph glyph-name="sterling" unicode="&#xa3;" horiz-adv-x="1288" 
d="M748 1434q138 0 241 -58q106 -56 156 -168l-121 -53q-66 148 -276 148q-152 0 -230 -78q-76 -76 -76 -230q0 -64 33 -200q0 -2 1 -6.5t1 -6.5h457v-131h-428q47 -262 -37 -520h651v-131h-841l36 90q45 115 63 221.5t14.5 181t-19.5 158.5h-230v131h201q-33 132 -33 213
q0 101 27 181q30 83 88 141t141 88q85 29 181 29z" />
    <glyph glyph-name="currency" unicode="&#xa4;" horiz-adv-x="1167" 
d="M1024 1065l-154 -156q58 -86 58 -191.5t-58 -193.5l154 -155l-92 -93l-156 156q-88 -60 -192.5 -60t-192.5 60l-155 -156l-93 93l156 155q-59 88 -59 193.5t59 191.5l-156 156l93 92l155 -153q88 58 193.5 58t191.5 -58l156 153zM434 868q-63 -63 -63 -151.5t63 -149.5
q62 -63 150 -63t151 63q63 61 63 149.5t-63 151.5q-61 62 -150 62t-151 -62z" />
    <glyph glyph-name="yen" unicode="&#xa5;" horiz-adv-x="1335" 
d="M774 596h289v-131h-330v-148h330v-131h-330v-186h-131v186h-330v131h330v148h-330v131h289l-418 838h148l377 -756l379 756h145z" />
    <glyph glyph-name="brokenbar" unicode="&#xa6;" horiz-adv-x="417" 
d="M274 717h-131v743h131v-743zM274 -399h-131v743h131v-743z" />
    <glyph glyph-name="section" unicode="&#xa7;" horiz-adv-x="1159" 
d="M580 1526q186 0 301 -86q118 -88 133 -252l-129 -14q-12 107 -84 161q-78 60 -221 60q-155 0 -232 -68q-74 -65 -74 -192q0 -128 74 -193q77 -68 232 -68q202 0 317 -100q119 -104 119 -291q0 -171 -107 -278q107 -104 107 -279q0 -187 -119 -291q-118 -100 -319 -100
q-187 0 -302 86q-118 88 -133 252l129 14q12 -107 84 -161q78 -60 222 -60q154 0 231 68q76 67 76 192q0 126 -76 193t-231 67q-200 0 -316 101q-119 104 -119 291q0 173 105 278q-105 102 -105 279q0 186 119 290q116 101 318 101zM365 782q-39 -26 -60 -67
q-31 -57 -31 -137q0 -128 74 -193q77 -68 232 -68q123 0 213 -38q35 23 61 67q31 57 31 137q0 126 -76 193t-231 67q-121 0 -213 39z" />
    <glyph glyph-name="dieresis" unicode="&#xa8;" horiz-adv-x="368" 
d="M72 1679q31 0 51 -20t20 -51t-20 -51.5t-51 -20.5t-51.5 20.5t-20.5 51.5t20.5 51t51.5 20zM297 1679q31 0 51.5 -20t20.5 -51t-20.5 -51.5t-51.5 -20.5t-51.5 20.5t-20.5 51.5t20.5 51t51.5 20z" />
    <glyph glyph-name="copyright" unicode="&#xa9;" horiz-adv-x="1720" 
d="M860 1434q141 0 279 -58q130 -56 227 -153q98 -98 154 -228q57 -136 57 -278q0 -143 -57 -279q-54 -126 -154 -229q-101 -101 -227 -152q-129 -57 -279 -57q-149 0 -278 57q-126 51 -230 152q-100 103 -151 229q-58 131 -58 279q0 147 58 278q53 130 151 228
q100 97 230 153q138 58 278 58zM860 1303q-241 0 -414 -173q-83 -83 -127.5 -189.5t-44.5 -223.5q0 -242 172 -414t414 -172q117 0 224 44.5t190 127.5q172 172 172 414q0 117 -44.5 223.5t-127.5 189.5t-190 128t-224 45zM879 1047q87 0 168 -46q72 -43 118 -120l-90 -52
q-31 54 -83.5 84.5t-112.5 30.5q-94 0 -161 -66.5t-67 -160.5q0 -95 67 -161.5t161 -66.5q60 0 112.5 30.5t83.5 82.5l90 -51q-45 -76 -118 -119q-74 -45 -168 -45q-137 0 -233.5 96.5t-96.5 233.5t96.5 233.5t233.5 96.5z" />
    <glyph glyph-name="guillemotleft" unicode="&#xab;" horiz-adv-x="1114" 
d="M315 530l279 -325h-172l-279 325l279 326h172zM692 530l279 -325h-172l-279 325l279 326h172z" />
    <glyph glyph-name="logicalnot" unicode="&#xac;" horiz-adv-x="1282" 
d="M1139 266h-131v400h-865v131h996v-531z" />
    <glyph glyph-name="registered" unicode="&#xae;" horiz-adv-x="1720" 
d="M860 1434q141 0 279 -58q130 -56 227 -153q98 -98 154 -228q57 -136 57 -278q0 -143 -57 -279q-54 -126 -154 -229q-101 -101 -227 -152q-129 -57 -279 -57q-149 0 -278 57q-126 51 -230 152q-100 103 -151 229q-58 131 -58 279q0 147 58 278q53 130 151 228
q100 97 230 153q138 58 278 58zM860 1303q-241 0 -414 -173q-83 -83 -127.5 -189.5t-44.5 -223.5q0 -242 172 -414t414 -172q117 0 224 44.5t190 127.5q172 172 172 414q0 117 -44.5 223.5t-127.5 189.5t-190 128t-224 45zM670 1047h235q79 0 136 -56.5t57 -134.5
q0 -68 -44.5 -121t-111.5 -65l156 -232h-123l-154 228h-49v-228h-102v609zM772 944v-176h133q37 0 63.5 25.5t26.5 62.5t-26.5 62.5t-63.5 25.5h-133z" />
    <glyph glyph-name="macron" unicode="&#xaf;" horiz-adv-x="362" 
d="M362 1536h-362v102h362v-102z" />
    <glyph glyph-name="degree" unicode="&#xb0;" horiz-adv-x="882" 
d="M442 1434q123 0 210 -87t87 -210q0 -124 -87 -211.5t-210 -87.5q-124 0 -211.5 87t-87.5 212q0 123 87.5 210t211.5 87zM442 1303q-69 0 -118.5 -49t-49.5 -117q0 -69 49.5 -118.5t118.5 -49.5q68 0 117 49.5t49 118.5q0 67 -49 116.5t-117 49.5z" />
    <glyph glyph-name="plusminus" unicode="&#xb1;" horiz-adv-x="1216" 
d="M674 713h399v-131h-399v-400h-131v400h-400v131h400v399h131v-399zM1073 -53h-930v131h930v-131z" />
    <glyph glyph-name="acute" unicode="&#xb4;" horiz-adv-x="409" 
d="M410 1718l-365 -182l-45 92l362 180z" />
    <glyph glyph-name="paragraph" unicode="&#xb6;" 
d="M692 -399h-131v1022q-173 0 -295.5 123t-122.5 296t122.5 295.5t295.5 122.5h131v-1859zM1018 -399h-131v1859h131v-1859z" />
    <glyph glyph-name="periodcentered" unicode="&#xb7;" horiz-adv-x="458" 
d="M229 803q37 0 61.5 -24.5t24.5 -61.5t-24.5 -61.5t-61.5 -24.5t-61.5 24.5t-24.5 61.5t24.5 61.5t61.5 24.5z" />
    <glyph glyph-name="cedilla" unicode="&#xb8;" horiz-adv-x="299" 
d="M160 0l-29 -117q78 -6 123 -55.5t45 -132.5q0 -87 -50.5 -137t-137.5 -50h-91v103h91q45 0 65 20q21 21 21 64q0 41 -21 65q-21 21 -65 21h-111l61 246z" />
    <glyph glyph-name="guillemotright" unicode="&#xbb;" horiz-adv-x="1114" 
d="M315 856l279 -326l-279 -325h-172l279 325l-279 326h172zM692 856l279 -326l-279 -325h-172l279 325l-279 326h172z" />
    <glyph glyph-name="onequarter" unicode="&#xbc;" horiz-adv-x="1472" 
d="M305 0h-162l1024 1434h162zM375 696h-103v738h103v-738zM983 238h231v137h103v-375h-103v135h-333v125l217 477h112z" />
    <glyph glyph-name="onehalf" unicode="&#xbd;" horiz-adv-x="1603" 
d="M305 0h-162l1024 1434h162zM375 696h-103v738h103v-738zM1229 737q109 0 170 -61t61 -170q0 -111 -61 -172q-62 -62 -170 -62q-63 0 -96 -39q-35 -44 -35 -131h362v-102h-465v96q0 131 62 205t172 74q65 0 98 33q31 31 31 98q0 65 -31 96q-33 33 -98 33q-70 0 -99 -33
q-32 -28 -32 -96h-103q0 108 62 170q61 61 172 61z" />
    <glyph glyph-name="threequarters" unicode="&#xbe;" horiz-adv-x="1609" 
d="M377 1434q105 0 168 -54q63 -57 63 -155q0 -101 -63 -158l-2 -2l2 -2q63 -57 63 -156q0 -100 -63 -157q-63 -54 -168 -54q-110 0 -172 62t-62 172h103q0 -70 33 -99q28 -32 98 -32q64 0 100 28q29 26 29 80q0 52 -29 78q-37 29 -100 29h-47v102h47q63 0 100 29
q29 26 29 80q0 52 -29 78q-36 28 -100 28q-69 0 -98 -33q-33 -29 -33 -96h-103q0 108 62 170t172 62zM442 0h-161l1024 1434h161zM1120 238h232v137h102v-375h-102v135h-334v125l217 477h113z" />
    <glyph glyph-name="questiondown" unicode="&#xbf;" horiz-adv-x="1085" 
d="M551 889q-37 0 -61.5 24.5t-24.5 61.5t24.5 61.5t61.5 24.5t61.5 -24.5t24.5 -61.5t-24.5 -61.5t-61.5 -24.5zM551 -373q-169 0 -279 113q-112 112 -112 278q0 128 65 234q5 8 11.5 16.5t11.5 15.5t13 16t12.5 14.5t13.5 14.5t12.5 13t14 14t13.5 13t14 13.5t13 12.5
q34 31 52.5 50.5t39.5 48.5t30 60t9 69h131q0 -58 -14 -106.5t-44 -90t-52.5 -65.5t-63.5 -62q-32 -31 -47 -46t-39.5 -45t-35.5 -54t-20 -60t-9 -76q0 -112 74 -186q77 -74 186 -74q260 0 260 260h131q0 -184 -102 -286q-105 -105 -289 -105z" />
    <glyph glyph-name="Agrave" unicode="&#xc0;" horiz-adv-x="1402" 
d="M907 1628l-45 -92l-364 182l47 90zM1260 0h-140l-100 279h-639l-98 -279h-140l512 1434h93zM428 410h545l-273 764z" />
    <glyph glyph-name="Aacute" unicode="&#xc1;" horiz-adv-x="1402" 
d="M907 1718l-364 -182l-45 92l362 180zM1260 0h-140l-100 279h-639l-98 -279h-140l512 1434h93zM428 410h545l-273 764z" />
    <glyph glyph-name="Acircumflex" unicode="&#xc2;" horiz-adv-x="1402" 
d="M700 1692l-194 -156l-64 80l258 207l261 -207l-64 -80zM1260 0h-140l-100 279h-639l-98 -279h-140l512 1434h93zM428 410h545l-273 764z" />
    <glyph glyph-name="Atilde" unicode="&#xc3;" horiz-adv-x="1402" 
d="M516 1724q55 22 116 8t105 -59q50 -50 111 -28q31 15 31 36h102q0 -67 -51.5 -106t-114.5 -39q-83 0 -149 66q-50 48 -109 26q-31 -12 -31 -37h-102q0 43 24.5 78.5t67.5 54.5zM1260 0h-140l-100 279h-639l-98 -279h-140l512 1434h93zM428 410h545l-273 764z" />
    <glyph glyph-name="Adieresis" unicode="&#xc4;" horiz-adv-x="1402" 
d="M590 1679q31 0 51.5 -20t20.5 -51t-20.5 -51.5t-51.5 -20.5t-51.5 20.5t-20.5 51.5t20.5 51t51.5 20zM815 1679q31 0 51.5 -20t20.5 -51t-20.5 -51.5t-51.5 -20.5t-51.5 20.5t-20.5 51.5t20.5 51t51.5 20zM1260 0h-140l-100 279h-639l-98 -279h-140l512 1434h93zM428 410
h545l-273 764z" />
    <glyph glyph-name="Aring" unicode="&#xc5;" horiz-adv-x="1402" 
d="M700 1911q88 0 138.5 -50.5t50.5 -138.5q0 -86 -50.5 -136t-138.5 -50q-86 0 -136 50t-50 136q0 88 50 138.5t136 50.5zM700 1808q-46 0 -63 -20q-21 -21 -21 -66t21 -63q18 -21 63 -21t66 21q20 17 20 63t-20 66t-66 20zM1260 0h-140l-100 279h-639l-98 -279h-140
l512 1434h93zM428 410h545l-273 764z" />
    <glyph glyph-name="AE" unicode="&#xc6;" horiz-adv-x="1961" 
d="M1841 1303h-725v-521h725v-131h-725v-520h725v-131h-856v279h-678q-28 -155 -28 -218l-5 -61h-131l4 70q0 1 1.5 15.5t4 36.5t6.5 53.5t10 70t13.5 82.5t18.5 93.5t24 100.5t30 107.5t36 109.5q104 294 266 469q209 226 494 226h790v-131zM985 410v888q-87 -13 -156 -45
q-91 -45 -176 -133q-141 -150 -237 -424q-45 -119 -82 -286h651z" />
    <glyph glyph-name="Ccedilla" unicode="&#xc7;" horiz-adv-x="1228" 
d="M627 131q267 0 331 231l127 -36q-46 -157 -164 -241.5t-294 -84.5h-2l-29 -115q78 -6 123 -55.5t45 -132.5q0 -86 -50.5 -136t-138.5 -50h-90v102h90q46 0 66 20q21 21 21 64q0 41 -21 65q-21 21 -66 21h-110l57 225q-51 9 -98 27q-96 41 -156 106q-125 143 -125 389v373
q0 247 125 387q66 72 156 107q90 37 203 37q177 0 294.5 -84.5t163.5 -243.5l-127 -35q-65 232 -331 232q-170 0 -260 -101q-93 -104 -93 -299v-373q0 -197 93 -301q88 -98 260 -98z" />
    <glyph glyph-name="Egrave" unicode="&#xc8;" horiz-adv-x="1142" 
d="M776 1628l-45 -92l-364 182l47 90zM999 1303h-725v-521h725v-131h-725v-520h725v-131h-856v1434h856v-131z" />
    <glyph glyph-name="Eacute" unicode="&#xc9;" horiz-adv-x="1142" 
d="M776 1718l-364 -182l-45 92l362 180zM999 1303h-725v-521h725v-131h-725v-520h725v-131h-856v1434h856v-131z" />
    <glyph glyph-name="Ecircumflex" unicode="&#xca;" horiz-adv-x="1142" 
d="M571 1692l-194 -156l-64 80l258 207l260 -207l-63 -80zM999 1303h-725v-521h725v-131h-725v-520h725v-131h-856v1434h856v-131z" />
    <glyph glyph-name="Edieresis" unicode="&#xcb;" horiz-adv-x="1142" 
d="M459 1679q31 0 51 -20t20 -51t-20 -51.5t-51 -20.5t-51.5 20.5t-20.5 51.5t20.5 51t51.5 20zM684 1679q31 0 51.5 -20t20.5 -51t-20.5 -51.5t-51.5 -20.5t-51.5 20.5t-20.5 51.5t20.5 51t51.5 20zM999 1303h-725v-521h725v-131h-725v-520h725v-131h-856v1434h856v-131z
" />
    <glyph glyph-name="Igrave" unicode="&#xcc;" horiz-adv-x="417" 
d="M414 1628l-45 -92l-365 182l47 90zM274 0h-131v1434h131v-1434z" />
    <glyph glyph-name="Iacute" unicode="&#xcd;" horiz-adv-x="417" 
d="M414 1718l-365 -182l-45 92l363 180zM274 0h-131v1434h131v-1434z" />
    <glyph glyph-name="Icircumflex" unicode="&#xce;" horiz-adv-x="417" 
d="M207 1692l-195 -156l-63 80l258 207l260 -207l-64 -80zM274 0h-131v1434h131v-1434z" />
    <glyph glyph-name="Idieresis" unicode="&#xcf;" horiz-adv-x="417" 
d="M96 1679q31 0 51.5 -20t20.5 -51t-20.5 -51.5t-51.5 -20.5t-51 20.5t-20 51.5t20 51t51 20zM322 1679q31 0 51 -20t20 -51t-20 -51.5t-51 -20.5t-51.5 20.5t-20.5 51.5t20.5 51t51.5 20zM274 0h-131v1434h131v-1434z" />
    <glyph glyph-name="Eth" unicode="&#xd0;" horiz-adv-x="1255" 
d="M985 1290q127 -139 127 -387v-373q0 -247 -127 -389q-57 -65 -156 -106q-90 -35 -202 -35h-484v666h-123v102h123v666h484q115 0 202 -37q93 -35 156 -107zM981 530v373q0 196 -92 299q-90 101 -262 101h-353v-535h336v-102h-336v-535h353q174 0 262 98q92 103 92 301z
" />
    <glyph glyph-name="Ntilde" unicode="&#xd1;" horiz-adv-x="1255" 
d="M442 1724q55 22 116.5 8t105.5 -59q50 -50 110 -28q31 15 31 36h102q0 -67 -51.5 -106t-114.5 -39q-83 0 -149 66q-50 48 -109 26q-30 -12 -30 -37h-103q0 43 24.5 78.5t67.5 54.5zM1112 0h-102l-736 1145v-1145h-131v1434h101l737 -1145v1145h131v-1434z" />
    <glyph glyph-name="Ograve" unicode="&#xd2;" horiz-adv-x="1255" 
d="M834 1628l-46 -92l-364 182l47 90zM627 1434q115 0 202 -37q93 -35 156 -107q127 -139 127 -387v-373q0 -247 -127 -389q-57 -65 -156 -106q-90 -35 -202 -35q-110 0 -203 35q-96 41 -156 106q-125 143 -125 389v373q0 247 125 387q66 72 156 107q90 37 203 37zM627 1303
q-170 0 -260 -101q-93 -104 -93 -299v-373q0 -197 93 -301q88 -98 260 -98q174 0 262 98q92 103 92 301v373q0 196 -92 299q-90 101 -262 101z" />
    <glyph glyph-name="Oacute" unicode="&#xd3;" horiz-adv-x="1255" 
d="M834 1718l-365 -182l-45 92l362 180zM627 1434q115 0 202 -37q93 -35 156 -107q127 -139 127 -387v-373q0 -247 -127 -389q-57 -65 -156 -106q-90 -35 -202 -35q-110 0 -203 35q-96 41 -156 106q-125 143 -125 389v373q0 247 125 387q66 72 156 107q90 37 203 37z
M627 1303q-170 0 -260 -101q-93 -104 -93 -299v-373q0 -197 93 -301q88 -98 260 -98q174 0 262 98q92 103 92 301v373q0 196 -92 299q-90 101 -262 101z" />
    <glyph glyph-name="Ocircumflex" unicode="&#xd4;" horiz-adv-x="1255" 
d="M627 1692l-195 -156l-63 80l258 207l260 -207l-64 -80zM627 1434q115 0 202 -37q93 -35 156 -107q127 -139 127 -387v-373q0 -247 -127 -389q-57 -65 -156 -106q-90 -35 -202 -35q-110 0 -203 35q-96 41 -156 106q-125 143 -125 389v373q0 247 125 387q66 72 156 107
q90 37 203 37zM627 1303q-170 0 -260 -101q-93 -104 -93 -299v-373q0 -197 93 -301q88 -98 260 -98q174 0 262 98q92 103 92 301v373q0 196 -92 299q-90 101 -262 101z" />
    <glyph glyph-name="Otilde" unicode="&#xd5;" horiz-adv-x="1255" 
d="M442 1724q55 22 116.5 8t105.5 -59q50 -50 110 -28q31 15 31 36h102q0 -67 -51.5 -106t-114.5 -39q-83 0 -149 66q-50 48 -109 26q-30 -12 -30 -37h-103q0 43 24.5 78.5t67.5 54.5zM627 1434q115 0 202 -37q93 -35 156 -107q127 -139 127 -387v-373q0 -247 -127 -389
q-57 -65 -156 -106q-90 -35 -202 -35q-110 0 -203 35q-96 41 -156 106q-125 143 -125 389v373q0 247 125 387q66 72 156 107q90 37 203 37zM627 1303q-170 0 -260 -101q-93 -104 -93 -299v-373q0 -197 93 -301q88 -98 260 -98q174 0 262 98q92 103 92 301v373q0 196 -92 299
q-90 101 -262 101z" />
    <glyph glyph-name="Odieresis" unicode="&#xd6;" horiz-adv-x="1255" 
d="M516 1679q31 0 51.5 -20t20.5 -51t-20.5 -51.5t-51.5 -20.5t-51.5 20.5t-20.5 51.5t20.5 51t51.5 20zM741 1679q31 0 51.5 -20t20.5 -51t-20.5 -51.5t-51.5 -20.5t-51 20.5t-20 51.5t20 51t51 20zM627 1434q115 0 202 -37q93 -35 156 -107q127 -139 127 -387v-373
q0 -247 -127 -389q-57 -65 -156 -106q-90 -35 -202 -35q-110 0 -203 35q-96 41 -156 106q-125 143 -125 389v373q0 247 125 387q66 72 156 107q90 37 203 37zM627 1303q-170 0 -260 -101q-93 -104 -93 -299v-373q0 -197 93 -301q88 -98 260 -98q174 0 262 98q92 103 92 301
v373q0 196 -92 299q-90 101 -262 101z" />
    <glyph glyph-name="multiply" unicode="&#xd7;" horiz-adv-x="1036" 
d="M893 813l-283 -283l283 -282l-92 -92l-283 282l-282 -282l-93 92l283 282l-283 283l93 92l282 -282l283 282z" />
    <glyph glyph-name="Oslash" unicode="&#xd8;" horiz-adv-x="1277" 
d="M1135 1323l-80 -113q69 -126 69 -307v-373q0 -247 -127 -389q-58 -66 -155 -106q-90 -35 -203 -35q-110 0 -203 35q-87 35 -149 100l-60 -82l-84 60l80 112q-67 122 -67 305v373q0 247 125 387q66 72 155 107q90 37 203 37q116 0 203 -37q82 -29 149 -99l60 84zM287 903
v-373q0 -102 24 -182l602 842l-12 12q-90 101 -262 101q-170 0 -260 -101q-92 -103 -92 -299zM993 530v373q0 101 -26 184l-602 -841l14 -17q88 -98 260 -98q174 0 262 98q92 103 92 301z" />
    <glyph glyph-name="Ugrave" unicode="&#xd9;" horiz-adv-x="1255" 
d="M834 1628l-46 -92l-364 182l47 90zM1112 1434v-904q0 -247 -127 -389q-57 -65 -156 -106q-90 -35 -202 -35q-110 0 -203 35q-96 41 -156 106q-125 143 -125 389v904h131v-904q0 -197 93 -301q88 -98 260 -98q174 0 262 98q92 103 92 301v904h131z" />
    <glyph glyph-name="Uacute" unicode="&#xda;" horiz-adv-x="1255" 
d="M834 1718l-365 -182l-45 92l362 180zM1112 1434v-904q0 -247 -127 -389q-57 -65 -156 -106q-90 -35 -202 -35q-110 0 -203 35q-96 41 -156 106q-125 143 -125 389v904h131v-904q0 -197 93 -301q88 -98 260 -98q174 0 262 98q92 103 92 301v904h131z" />
    <glyph glyph-name="Ucircumflex" unicode="&#xdb;" horiz-adv-x="1255" 
d="M627 1692l-195 -156l-63 80l258 207l260 -207l-64 -80zM1112 1434v-904q0 -247 -127 -389q-57 -65 -156 -106q-90 -35 -202 -35q-110 0 -203 35q-96 41 -156 106q-125 143 -125 389v904h131v-904q0 -197 93 -301q88 -98 260 -98q174 0 262 98q92 103 92 301v904h131z" />
    <glyph glyph-name="Udieresis" unicode="&#xdc;" horiz-adv-x="1255" 
d="M516 1679q31 0 51.5 -20t20.5 -51t-20.5 -51.5t-51.5 -20.5t-51.5 20.5t-20.5 51.5t20.5 51t51.5 20zM741 1679q31 0 51.5 -20t20.5 -51t-20.5 -51.5t-51.5 -20.5t-51 20.5t-20 51.5t20 51t51 20zM1112 1434v-904q0 -247 -127 -389q-57 -65 -156 -106q-90 -35 -202 -35
q-110 0 -203 35q-96 41 -156 106q-125 143 -125 389v904h131v-904q0 -197 93 -301q88 -98 260 -98q174 0 262 98q92 103 92 301v904h131z" />
    <glyph glyph-name="Yacute" unicode="&#xdd;" horiz-adv-x="1335" 
d="M872 1718l-364 -182l-45 92l362 180zM733 514v-514h-131v514l-459 920h148l377 -756l379 756h145z" />
    <glyph glyph-name="Thorn" unicode="&#xde;" horiz-adv-x="1255" 
d="M274 1155h308q243 0 385 -111q145 -120 145 -327q0 -208 -145 -328q-141 -110 -385 -110h-308v-279h-131v1434h131v-279zM274 1024v-614h308q198 0 303 82q96 78 96 225t-96 225q-105 82 -303 82h-308z" />
    <glyph glyph-name="germandbls" unicode="&#xdf;" horiz-adv-x="1208" 
d="M627 1434q204 0 319 -103q119 -104 119 -289q0 -186 -119 -290q-24 -21 -47 -35q23 -14 47 -35q119 -104 119 -291t-119 -291q-115 -100 -319 -100h-92v131h92q156 0 233 68q74 65 74 192q0 128 -74 193q-76 67 -233 67h-92v131h92q156 0 233 68q74 65 74 192
q0 126 -74 191q-79 70 -233 70q-170 0 -260 -101q-93 -104 -93 -299v-903h-131v922q0 230 125 368q66 72 156 107q90 37 203 37z" />
    <glyph glyph-name="agrave" unicode="&#xe0;" horiz-adv-x="1163" 
d="M786 1255l-45 -92l-364 183l47 90zM580 1061h2q201 0 319 -100q119 -104 119 -291v-670h-131v90q-116 -90 -307 -90h-47q-175 0 -279 72q-113 81 -113 227q0 144 113 225q104 72 279 72h354v74q0 125 -76 192q-77 68 -231 68h-2q-144 0 -222 -60q-72 -54 -84 -161
l-129 14q15 163 134 252q115 86 301 86zM889 465h-354q-135 0 -203 -47q-58 -43 -58 -119q0 -78 58 -121q68 -47 203 -47h47q154 0 231 68q76 67 76 192v74z" />
    <glyph glyph-name="aacute" unicode="&#xe1;" horiz-adv-x="1163" 
d="M786 1346l-364 -183l-45 92l362 181zM580 1061h2q201 0 319 -100q119 -104 119 -291v-670h-131v90q-116 -90 -307 -90h-47q-175 0 -279 72q-113 81 -113 227q0 144 113 225q104 72 279 72h354v74q0 125 -76 192q-77 68 -231 68h-2q-144 0 -222 -60q-72 -54 -84 -161
l-129 14q15 163 134 252q115 86 301 86zM889 465h-354q-135 0 -203 -47q-58 -43 -58 -119q0 -78 58 -121q68 -47 203 -47h47q154 0 231 68q76 67 76 192v74z" />
    <glyph glyph-name="acircumflex" unicode="&#xe2;" horiz-adv-x="1163" 
d="M582 1319l-195 -156l-63 80l258 207l260 -207l-64 -80zM580 1061h2q201 0 319 -100q119 -104 119 -291v-670h-131v90q-116 -90 -307 -90h-47q-175 0 -279 72q-113 81 -113 227q0 144 113 225q104 72 279 72h354v74q0 125 -76 192q-77 68 -231 68h-2q-144 0 -222 -60
q-72 -54 -84 -161l-129 14q15 163 134 252q115 86 301 86zM889 465h-354q-135 0 -203 -47q-58 -43 -58 -119q0 -78 58 -121q68 -47 203 -47h47q154 0 231 68q76 67 76 192v74z" />
    <glyph glyph-name="atilde" unicode="&#xe3;" horiz-adv-x="1163" 
d="M395 1352q55 22 116 8t105 -60q50 -50 111 -28q31 16 31 37h102q0 -67 -51.5 -106.5t-114.5 -39.5q-83 0 -149 66q-50 48 -109 26q-30 -12 -30 -36h-103q0 43 24.5 78.5t67.5 54.5zM580 1061h2q201 0 319 -100q119 -104 119 -291v-670h-131v90q-116 -90 -307 -90h-47
q-175 0 -279 72q-113 81 -113 227q0 144 113 225q104 72 279 72h354v74q0 125 -76 192q-77 68 -231 68h-2q-144 0 -222 -60q-72 -54 -84 -161l-129 14q15 163 134 252q115 86 301 86zM889 465h-354q-135 0 -203 -47q-58 -43 -58 -119q0 -78 58 -121q68 -47 203 -47h47
q154 0 231 68q76 67 76 192v74z" />
    <glyph glyph-name="adieresis" unicode="&#xe4;" horiz-adv-x="1163" 
d="M469 1307q31 0 51.5 -20.5t20.5 -51.5t-20.5 -51.5t-51.5 -20.5t-51.5 20.5t-20.5 51.5t20.5 51.5t51.5 20.5zM694 1307q31 0 51.5 -20.5t20.5 -51.5t-20.5 -51.5t-51.5 -20.5t-51 20.5t-20 51.5t20 51.5t51 20.5zM580 1061h2q201 0 319 -100q119 -104 119 -291v-670
h-131v90q-116 -90 -307 -90h-47q-175 0 -279 72q-113 81 -113 227q0 144 113 225q104 72 279 72h354v74q0 125 -76 192q-77 68 -231 68h-2q-144 0 -222 -60q-72 -54 -84 -161l-129 14q15 163 134 252q115 86 301 86zM889 465h-354q-135 0 -203 -47q-58 -43 -58 -119
q0 -78 58 -121q68 -47 203 -47h47q154 0 231 68q76 67 76 192v74z" />
    <glyph glyph-name="aring" unicode="&#xe5;" horiz-adv-x="1163" 
d="M582 1538q88 0 138 -50t50 -138q0 -86 -50 -136.5t-138 -50.5q-86 0 -136.5 50.5t-50.5 136.5q0 88 50.5 138t136.5 50zM582 1436q-46 0 -64 -21q-20 -20 -20 -65q0 -47 20 -64q17 -20 64 -20q45 0 65 20q21 18 21 64q0 44 -21 65t-65 21zM580 1061h2q201 0 319 -100
q119 -104 119 -291v-670h-131v90q-116 -90 -307 -90h-47q-175 0 -279 72q-113 81 -113 227q0 144 113 225q104 72 279 72h354v74q0 125 -76 192q-77 68 -231 68h-2q-144 0 -222 -60q-72 -54 -84 -161l-129 14q15 163 134 252q115 86 301 86zM889 465h-354q-135 0 -203 -47
q-58 -43 -58 -119q0 -78 58 -121q68 -47 203 -47h47q154 0 231 68q76 67 76 192v74z" />
    <glyph glyph-name="ae" unicode="&#xe6;" horiz-adv-x="1904" 
d="M1325 1061q202 0 317 -100q119 -104 119 -291v-205h-743v-74q0 -127 74 -192q80 -68 233 -68h25q114 0 190 39q70 39 96 106l121 -49q-47 -114 -153 -172q-104 -55 -254 -55h-25q-204 0 -319 100q-21 19 -54 60q-23 -33 -53 -60q-115 -100 -317 -100h-47q-178 0 -279 72
q-113 81 -113 227q0 144 113 225q101 72 279 72h352v74q0 127 -74 192q-77 68 -231 68h-4q-142 0 -220 -60q-75 -54 -84 -161l-131 14q19 166 136 252q115 86 299 86h4q202 0 317 -100q30 -27 53 -60q33 41 54 60q115 100 319 100zM1325 930q-153 0 -233 -68
q-74 -65 -74 -192v-74h612v74q0 127 -74 192q-77 68 -231 68zM887 465h-352q-138 0 -203 -47q-58 -43 -58 -119q0 -78 58 -121q65 -47 203 -47h47q154 0 231 68q74 65 74 192v74z" />
    <glyph glyph-name="ccedilla" unicode="&#xe7;" horiz-adv-x="1132" 
d="M772 170q68 38 94 106l123 -49q-47 -115 -155 -172q-101 -55 -252 -55h-4l-29 -115q78 -6 123 -55.5t45 -132.5q0 -86 -50.5 -136t-138.5 -50h-90v102h90q46 0 66 20t20 64q0 42 -20 65q-21 21 -66 21h-110l55 225q-128 21 -211 92q-119 104 -119 291v279q0 187 119 291
q115 100 320 100q151 0 252 -55q108 -57 155 -172l-123 -50q-27 70 -94 107q-76 39 -190 39q-157 0 -234 -68q-74 -65 -74 -192v-279q0 -127 74 -192q77 -68 234 -68q114 0 190 39z" />
    <glyph glyph-name="egrave" unicode="&#xe8;" 
d="M786 1255l-45 -92l-364 183l47 90zM582 1061q202 0 317 -100q119 -104 119 -291v-205h-744v-74q0 -127 74 -192q77 -68 234 -68h24q115 0 191 39q67 37 96 106l121 -49q-47 -114 -156 -172q-101 -55 -252 -55h-24q-205 0 -320 100q-119 104 -119 291v279q0 187 119 291
q115 100 320 100zM582 930q-157 0 -234 -68q-74 -65 -74 -192v-74h613v74q0 127 -74 192q-77 68 -231 68z" />
    <glyph glyph-name="eacute" unicode="&#xe9;" 
d="M786 1346l-364 -183l-45 92l362 181zM582 1061q202 0 317 -100q119 -104 119 -291v-205h-744v-74q0 -127 74 -192q77 -68 234 -68h24q115 0 191 39q67 37 96 106l121 -49q-47 -114 -156 -172q-101 -55 -252 -55h-24q-205 0 -320 100q-119 104 -119 291v279q0 187 119 291
q115 100 320 100zM582 930q-157 0 -234 -68q-74 -65 -74 -192v-74h613v74q0 127 -74 192q-77 68 -231 68z" />
    <glyph glyph-name="ecircumflex" unicode="&#xea;" 
d="M580 1319l-195 -156l-63 80l258 207l260 -207l-64 -80zM582 1061q202 0 317 -100q119 -104 119 -291v-205h-744v-74q0 -127 74 -192q77 -68 234 -68h24q115 0 191 39q67 37 96 106l121 -49q-47 -114 -156 -172q-101 -55 -252 -55h-24q-205 0 -320 100q-119 104 -119 291
v279q0 187 119 291q115 100 320 100zM582 930q-157 0 -234 -68q-74 -65 -74 -192v-74h613v74q0 127 -74 192q-77 68 -231 68z" />
    <glyph glyph-name="edieresis" unicode="&#xeb;" 
d="M469 1307q31 0 51.5 -20.5t20.5 -51.5t-20.5 -51.5t-51.5 -20.5t-51.5 20.5t-20.5 51.5t20.5 51.5t51.5 20.5zM694 1307q31 0 51.5 -20.5t20.5 -51.5t-20.5 -51.5t-51.5 -20.5t-51 20.5t-20 51.5t20 51.5t51 20.5zM582 1061q202 0 317 -100q119 -104 119 -291v-205h-744
v-74q0 -127 74 -192q77 -68 234 -68h24q115 0 191 39q67 37 96 106l121 -49q-47 -114 -156 -172q-101 -55 -252 -55h-24q-205 0 -320 100q-119 104 -119 291v279q0 187 119 291q115 100 320 100zM582 930q-157 0 -234 -68q-74 -65 -74 -192v-74h613v74q0 127 -74 192
q-77 68 -231 68z" />
    <glyph glyph-name="igrave" unicode="&#xec;" horiz-adv-x="417" 
d="M414 1255l-45 -92l-365 183l47 90zM274 0h-131v1061h131v-1061z" />
    <glyph glyph-name="iacute" unicode="&#xed;" horiz-adv-x="417" 
d="M414 1346l-365 -183l-45 92l363 181zM274 0h-131v1061h131v-1061z" />
    <glyph glyph-name="icircumflex" unicode="&#xee;" horiz-adv-x="417" 
d="M207 1319l-195 -156l-63 80l258 207l260 -207l-64 -80zM274 0h-131v1061h131v-1061z" />
    <glyph glyph-name="idieresis" unicode="&#xef;" horiz-adv-x="417" 
d="M96 1307q31 0 51.5 -20.5t20.5 -51.5t-20.5 -51.5t-51.5 -20.5t-51 20.5t-20 51.5t20 51.5t51 20.5zM322 1307q31 0 51 -20.5t20 -51.5t-20 -51.5t-51 -20.5t-51.5 20.5t-20.5 51.5t20.5 51.5t51.5 20.5zM274 0h-131v1061h131v-1061z" />
    <glyph glyph-name="eth" unicode="&#xf0;" horiz-adv-x="1169" 
d="M418 1303v131q162 0 297 -117l192 96l45 -92l-159 -80q40 -46 73 -102q75 -122 119 -275q41 -149 41 -297q0 -241 -106 -389q-105 -146 -293 -174q-40 -4 -74 -4q-101 0 -178 39q-77 36 -129 100q-103 125 -103 297q0 174 103 299q115 139 313 139q197 0 313 -104
q-36 169 -118 301q-35 60 -84 109l-275 -138l-45 93l234 116q-79 52 -166 52zM559 743q-136 0 -213 -92q-72 -88 -72 -215q0 -125 72 -213q76 -92 207 -92q151 0 240 105q84 97 84 227q0 117 -74 194q-83 86 -244 86z" />
    <glyph glyph-name="ntilde" unicode="&#xf1;" 
d="M395 1352q55 22 116 8t105 -60q50 -50 111 -28q31 16 31 37h102q0 -67 -51.5 -106.5t-114.5 -39.5q-83 0 -149 66q-50 48 -109 26q-30 -12 -30 -36h-103q0 43 24.5 78.5t67.5 54.5zM582 1061q202 0 317 -100q119 -104 119 -291v-670h-131v670q0 127 -74 192
q-77 68 -231 68q-157 0 -234 -68q-74 -65 -74 -192v-670h-131v1061h131v-90q116 90 308 90z" />
    <glyph glyph-name="ograve" unicode="&#xf2;" 
d="M786 1255l-45 -92l-364 183l47 90zM582 1061q202 0 317 -100q119 -104 119 -291v-279q0 -187 -119 -291q-115 -100 -317 -100q-205 0 -320 100q-119 104 -119 291v279q0 187 119 291q115 100 320 100zM582 930q-157 0 -234 -68q-74 -65 -74 -192v-279q0 -127 74 -192
q77 -68 234 -68q154 0 231 68q74 65 74 192v279q0 127 -74 192q-77 68 -231 68z" />
    <glyph glyph-name="oacute" unicode="&#xf3;" 
d="M786 1346l-364 -183l-45 92l362 181zM582 1061q202 0 317 -100q119 -104 119 -291v-279q0 -187 -119 -291q-115 -100 -317 -100q-205 0 -320 100q-119 104 -119 291v279q0 187 119 291q115 100 320 100zM582 930q-157 0 -234 -68q-74 -65 -74 -192v-279q0 -127 74 -192
q77 -68 234 -68q154 0 231 68q74 65 74 192v279q0 127 -74 192q-77 68 -231 68z" />
    <glyph glyph-name="ocircumflex" unicode="&#xf4;" 
d="M580 1319l-195 -156l-63 80l258 207l260 -207l-64 -80zM582 1061q202 0 317 -100q119 -104 119 -291v-279q0 -187 -119 -291q-115 -100 -317 -100q-205 0 -320 100q-119 104 -119 291v279q0 187 119 291q115 100 320 100zM582 930q-157 0 -234 -68q-74 -65 -74 -192v-279
q0 -127 74 -192q77 -68 234 -68q154 0 231 68q74 65 74 192v279q0 127 -74 192q-77 68 -231 68z" />
    <glyph glyph-name="otilde" unicode="&#xf5;" 
d="M395 1352q55 22 116 8t105 -60q50 -50 111 -28q31 16 31 37h102q0 -67 -51.5 -106.5t-114.5 -39.5q-83 0 -149 66q-50 48 -109 26q-30 -12 -30 -36h-103q0 43 24.5 78.5t67.5 54.5zM582 1061q202 0 317 -100q119 -104 119 -291v-279q0 -187 -119 -291
q-115 -100 -317 -100q-205 0 -320 100q-119 104 -119 291v279q0 187 119 291q115 100 320 100zM582 930q-157 0 -234 -68q-74 -65 -74 -192v-279q0 -127 74 -192q77 -68 234 -68q154 0 231 68q74 65 74 192v279q0 127 -74 192q-77 68 -231 68z" />
    <glyph glyph-name="odieresis" unicode="&#xf6;" 
d="M469 1307q31 0 51.5 -20.5t20.5 -51.5t-20.5 -51.5t-51.5 -20.5t-51.5 20.5t-20.5 51.5t20.5 51.5t51.5 20.5zM694 1307q31 0 51.5 -20.5t20.5 -51.5t-20.5 -51.5t-51.5 -20.5t-51 20.5t-20 51.5t20 51.5t51 20.5zM582 1061q202 0 317 -100q119 -104 119 -291v-279
q0 -187 -119 -291q-115 -100 -317 -100q-205 0 -320 100q-119 104 -119 291v279q0 187 119 291q115 100 320 100zM582 930q-157 0 -234 -68q-74 -65 -74 -192v-279q0 -127 74 -192q77 -68 234 -68q154 0 231 68q74 65 74 192v279q0 127 -74 192q-77 68 -231 68z" />
    <glyph glyph-name="divide" unicode="&#xf7;" horiz-adv-x="1216" 
d="M608 1061q37 0 61.5 -24.5t24.5 -61.5t-24.5 -61.5t-61.5 -24.5t-61.5 24.5t-24.5 61.5t24.5 61.5t61.5 24.5zM1073 465h-930v131h930v-131zM608 172q37 0 61.5 -24.5t24.5 -61.5t-24.5 -61.5t-61.5 -24.5t-61.5 24.5t-24.5 61.5t24.5 61.5t61.5 24.5z" />
    <glyph glyph-name="oslash" unicode="&#xf8;" horiz-adv-x="1179" 
d="M1036 950l-61 -67q53 -89 53 -213v-279q0 -187 -119 -291q-115 -100 -317 -100q-205 0 -320 100l-53 -57l-76 70l62 69q-51 88 -51 209v279q0 188 118 291q115 100 320 100q197 0 315 -98l54 57zM285 670v-279q0 -54 16 -104l520 577q-78 66 -229 66q-157 0 -234 -68
q-73 -64 -73 -192zM897 391v279q0 56 -16 106l-523 -577q77 -68 234 -68q154 0 231 68q74 65 74 192z" />
    <glyph glyph-name="ugrave" unicode="&#xf9;" horiz-adv-x="1163" 
d="M786 1255l-45 -92l-364 183l47 90zM1020 0h-131v90q-116 -90 -307 -90q-202 0 -320 100q-119 104 -119 291v670h131v-670q0 -125 76 -192q77 -68 232 -68q154 0 231 68q76 67 76 192v670h131v-1061z" />
    <glyph glyph-name="uacute" unicode="&#xfa;" horiz-adv-x="1163" 
d="M786 1346l-364 -183l-45 92l362 181zM1020 0h-131v90q-116 -90 -307 -90q-202 0 -320 100q-119 104 -119 291v670h131v-670q0 -125 76 -192q77 -68 232 -68q154 0 231 68q76 67 76 192v670h131v-1061z" />
    <glyph glyph-name="ucircumflex" unicode="&#xfb;" horiz-adv-x="1163" 
d="M582 1319l-195 -156l-63 80l258 207l260 -207l-64 -80zM1020 0h-131v90q-116 -90 -307 -90q-202 0 -320 100q-119 104 -119 291v670h131v-670q0 -125 76 -192q77 -68 232 -68q154 0 231 68q76 67 76 192v670h131v-1061z" />
    <glyph glyph-name="udieresis" unicode="&#xfc;" horiz-adv-x="1163" 
d="M469 1307q31 0 51.5 -20.5t20.5 -51.5t-20.5 -51.5t-51.5 -20.5t-51.5 20.5t-20.5 51.5t20.5 51.5t51.5 20.5zM694 1307q31 0 51.5 -20.5t20.5 -51.5t-20.5 -51.5t-51.5 -20.5t-51 20.5t-20 51.5t20 51.5t51 20.5zM1020 0h-131v90q-116 -90 -307 -90q-202 0 -320 100
q-119 104 -119 291v670h131v-670q0 -125 76 -192q77 -68 232 -68q154 0 231 68q76 67 76 192v670h131v-1061z" />
    <glyph glyph-name="yacute" unicode="&#xfd;" 
d="M786 1346l-364 -183l-45 92l362 181zM1018 1061v-1043q0 -186 -119 -290q-116 -101 -317 -101h-25q-151 0 -254 56q-109 58 -156 172l123 49q26 -69 95 -107q76 -39 192 -39h25q154 0 231 68q74 65 74 192v72q-112 -90 -305 -90q-208 0 -320 100q-119 104 -119 291v670
h131v-670q0 -127 74 -192q77 -68 234 -68q154 0 231 68q74 65 74 192v670h131z" />
    <glyph glyph-name="thorn" unicode="&#xfe;" 
d="M905 930q113 -125 113 -355v-92q0 -229 -113 -354q-57 -63 -141 -98q-82 -31 -182 -31t-185 31q-70 27 -123 80v-484h-131v1807h131v-486q53 53 123 80q91 33 185 33q95 0 182 -33q84 -35 141 -98zM887 483v92q0 178 -80 267q-79 88 -225 88q-149 0 -228 -88
q-80 -89 -80 -267v-92q0 -177 80 -266q77 -86 228 -86q148 0 225 86q80 89 80 266z" />
    <glyph glyph-name="ydieresis" unicode="&#xff;" 
d="M469 1307q31 0 51.5 -20.5t20.5 -51.5t-20.5 -51.5t-51.5 -20.5t-51.5 20.5t-20.5 51.5t20.5 51.5t51.5 20.5zM694 1307q31 0 51.5 -20.5t20.5 -51.5t-20.5 -51.5t-51.5 -20.5t-51 20.5t-20 51.5t20 51.5t51 20.5zM1018 1061v-1043q0 -186 -119 -290q-116 -101 -317 -101
h-25q-151 0 -254 56q-109 58 -156 172l123 49q26 -69 95 -107q76 -39 192 -39h25q154 0 231 68q74 65 74 192v72q-112 -90 -305 -90q-208 0 -320 100q-119 104 -119 291v670h131v-670q0 -127 74 -192q77 -68 234 -68q154 0 231 68q74 65 74 192v670h131z" />
    <glyph glyph-name="Amacron" unicode="&#x100;" horiz-adv-x="1402" 
d="M883 1536h-363v102h363v-102zM1260 0h-140l-100 279h-639l-98 -279h-140l512 1434h93zM428 410h545l-273 764z" />
    <glyph glyph-name="amacron" unicode="&#x101;" horiz-adv-x="1163" 
d="M764 1163h-363v103h363v-103zM580 1061h2q201 0 319 -100q119 -104 119 -291v-670h-131v90q-116 -90 -307 -90h-47q-175 0 -279 72q-113 81 -113 227q0 144 113 225q104 72 279 72h354v74q0 125 -76 192q-77 68 -231 68h-2q-144 0 -222 -60q-72 -54 -84 -161l-129 14
q15 163 134 252q115 86 301 86zM889 465h-354q-135 0 -203 -47q-58 -43 -58 -119q0 -78 58 -121q68 -47 203 -47h47q154 0 231 68q76 67 76 192v74z" />
    <glyph glyph-name="Abreve" unicode="&#x102;" horiz-adv-x="1402" 
d="M831 1769h103q0 -110 -62 -172q-61 -61 -170 -61q-111 0 -172 61t-61 172h102q0 -69 33 -98q29 -33 98 -33q66 0 99 33q30 30 30 98zM1260 0h-140l-100 279h-639l-98 -279h-140l512 1434h93zM428 410h545l-273 764z" />
    <glyph glyph-name="abreve" unicode="&#x103;" horiz-adv-x="1163" 
d="M713 1397h102q0 -111 -61 -172q-62 -62 -170 -62q-110 0 -172 62t-62 172h103q0 -71 32 -99q28 -32 99 -32q66 0 98 32q31 31 31 99zM580 1061h2q201 0 319 -100q119 -104 119 -291v-670h-131v90q-116 -90 -307 -90h-47q-175 0 -279 72q-113 81 -113 227q0 144 113 225
q104 72 279 72h354v74q0 125 -76 192q-77 68 -231 68h-2q-144 0 -222 -60q-72 -54 -84 -161l-129 14q15 163 134 252q115 86 301 86zM889 465h-354q-135 0 -203 -47q-58 -43 -58 -119q0 -78 58 -121q68 -47 203 -47h47q154 0 231 68q76 67 76 192v74z" />
    <glyph glyph-name="Aogonek" unicode="&#x104;" horiz-adv-x="1402" 
d="M1260 0h-37q-68 0 -99 -31q-32 -32 -32 -98q0 -70 32 -98q29 -33 99 -33v-102q-111 0 -172 61q-62 62 -62 172q0 108 62 170q16 16 43 33l-74 205h-639l-98 -279h-140l512 1434h93zM973 410l-273 764l-272 -764h545z" />
    <glyph glyph-name="aogonek" unicode="&#x105;" horiz-adv-x="1163" 
d="M901 961q119 -104 119 -291v-670q-67 0 -98 -31q-33 -33 -33 -98q0 -69 33 -98q29 -33 98 -33v-102q-111 0 -172 61q-62 62 -62 172q0 108 62 170q18 18 41 31v18q-116 -90 -307 -90h-47q-175 0 -279 72q-113 81 -113 227q0 144 113 225q104 72 279 72h354v74
q0 125 -76 192q-77 68 -231 68h-2q-144 0 -222 -60q-72 -54 -84 -161l-129 14q15 163 134 252q115 86 301 86h2q201 0 319 -100zM813 199q76 67 76 192v74h-354q-135 0 -203 -47q-58 -43 -58 -119q0 -78 58 -121q68 -47 203 -47h47q154 0 231 68z" />
    <glyph glyph-name="Cacute" unicode="&#x106;" horiz-adv-x="1228" 
d="M819 1718l-364 -182l-45 92l362 180zM627 1434q177 0 294.5 -84.5t163.5 -243.5l-127 -35q-65 232 -331 232q-170 0 -260 -101q-93 -104 -93 -299v-373q0 -197 93 -301q88 -98 260 -98q267 0 331 231l127 -36q-46 -157 -164 -241.5t-294 -84.5q-110 0 -203 35
q-96 41 -156 106q-125 143 -125 389v373q0 247 125 387q66 72 156 107q90 37 203 37z" />
    <glyph glyph-name="cacute" unicode="&#x107;" horiz-adv-x="1132" 
d="M772 1346l-364 -183l-46 92l363 181zM582 1061q151 0 252 -55q108 -57 155 -172l-123 -50q-27 70 -94 107q-76 39 -190 39q-157 0 -234 -68q-74 -65 -74 -192v-279q0 -127 74 -192q77 -68 234 -68q114 0 190 39q68 38 94 106l123 -49q-47 -115 -155 -172
q-101 -55 -252 -55q-205 0 -320 100q-119 104 -119 291v279q0 187 119 291q115 100 320 100z" />
    <glyph glyph-name="Cdotaccent" unicode="&#x10a;" horiz-adv-x="1228" 
d="M614 1679q31 0 51.5 -20t20.5 -51t-20.5 -51.5t-51.5 -20.5t-51 20.5t-20 51.5t20 51t51 20zM627 1434q177 0 294.5 -84.5t163.5 -243.5l-127 -35q-65 232 -331 232q-170 0 -260 -101q-93 -104 -93 -299v-373q0 -197 93 -301q88 -98 260 -98q267 0 331 231l127 -36
q-46 -157 -164 -241.5t-294 -84.5q-110 0 -203 35q-96 41 -156 106q-125 143 -125 389v373q0 247 125 387q66 72 156 107q90 37 203 37z" />
    <glyph glyph-name="cdotaccent" unicode="&#x10b;" horiz-adv-x="1132" 
d="M567 1307q31 0 51.5 -20.5t20.5 -51.5t-20.5 -51.5t-51.5 -20.5t-51 20.5t-20 51.5t20 51.5t51 20.5zM582 1061q151 0 252 -55q108 -57 155 -172l-123 -50q-27 70 -94 107q-76 39 -190 39q-157 0 -234 -68q-74 -65 -74 -192v-279q0 -127 74 -192q77 -68 234 -68
q114 0 190 39q68 38 94 106l123 -49q-47 -115 -155 -172q-101 -55 -252 -55q-205 0 -320 100q-119 104 -119 291v279q0 187 119 291q115 100 320 100z" />
    <glyph glyph-name="Ccaron" unicode="&#x10c;" horiz-adv-x="1228" 
d="M874 1743l-260 -207l-258 207l64 80l194 -156l197 156zM627 1434q177 0 294.5 -84.5t163.5 -243.5l-127 -35q-65 232 -331 232q-170 0 -260 -101q-93 -104 -93 -299v-373q0 -197 93 -301q88 -98 260 -98q267 0 331 231l127 -36q-46 -157 -164 -241.5t-294 -84.5
q-110 0 -203 35q-96 41 -156 106q-125 143 -125 389v373q0 247 125 387q66 72 156 107q90 37 203 37z" />
    <glyph glyph-name="ccaron" unicode="&#x10d;" horiz-adv-x="1132" 
d="M825 1370l-260 -207l-258 207l64 80l194 -156l197 156zM582 1061q151 0 252 -55q108 -57 155 -172l-123 -50q-27 70 -94 107q-76 39 -190 39q-157 0 -234 -68q-74 -65 -74 -192v-279q0 -127 74 -192q77 -68 234 -68q114 0 190 39q68 38 94 106l123 -49
q-47 -115 -155 -172q-101 -55 -252 -55q-205 0 -320 100q-119 104 -119 291v279q0 187 119 291q115 100 320 100z" />
    <glyph glyph-name="Dcaron" unicode="&#x10e;" horiz-adv-x="1255" 
d="M887 1743l-260 -207l-258 207l63 80l195 -156l196 156zM143 1434h484q115 0 202 -37q93 -35 156 -107q127 -139 127 -387v-373q0 -247 -127 -389q-57 -65 -156 -106q-90 -35 -202 -35h-484v1434zM274 1303v-1172h353q174 0 262 98q92 103 92 301v373q0 196 -92 299
q-90 101 -262 101h-353z" />
    <glyph glyph-name="dcaron" unicode="&#x10f;" horiz-adv-x="1222" 
d="M1018 1434v-1434h-131v90q-116 -90 -307 -90q-203 0 -318 100q-119 104 -119 291v279q0 187 119 291q115 100 318 100q191 0 307 -90v463h131zM1223 979h-103v455h103v-455zM580 930q-155 0 -232 -68q-74 -65 -74 -192v-279q0 -127 74 -192q77 -68 232 -68q156 0 233 68
q74 65 74 192v279q0 127 -74 192q-77 68 -233 68z" />
    <glyph glyph-name="Dcroat" unicode="&#x110;" horiz-adv-x="1255" 
d="M985 1290q127 -139 127 -387v-373q0 -247 -127 -389q-57 -65 -156 -106q-90 -35 -202 -35h-484v666h-123v102h123v666h484q115 0 202 -37q93 -35 156 -107zM981 530v373q0 196 -92 299q-90 101 -262 101h-353v-535h336v-102h-336v-535h353q174 0 262 98q92 103 92 301z
" />
    <glyph glyph-name="dcroat" unicode="&#x111;" 
d="M1141 1217h-123v-1217h-131v90q-116 -90 -307 -90q-203 0 -318 100q-119 104 -119 291v279q0 187 119 291q115 100 318 100q191 0 307 -90v246h-336v102h336v115h131v-115h123v-102zM887 391v279q0 127 -74 192q-77 68 -233 68q-155 0 -232 -68q-74 -65 -74 -192v-279
q0 -127 74 -192q77 -68 232 -68q156 0 233 68q74 65 74 192z" />
    <glyph glyph-name="Emacron" unicode="&#x112;" horiz-adv-x="1142" 
d="M754 1536h-363v102h363v-102zM999 1303h-725v-521h725v-131h-725v-520h725v-131h-856v1434h856v-131z" />
    <glyph glyph-name="emacron" unicode="&#x113;" 
d="M762 1163h-363v103h363v-103zM582 1061q202 0 317 -100q119 -104 119 -291v-205h-744v-74q0 -127 74 -192q77 -68 234 -68h24q115 0 191 39q67 37 96 106l121 -49q-47 -114 -156 -172q-101 -55 -252 -55h-24q-205 0 -320 100q-119 104 -119 291v279q0 187 119 291
q115 100 320 100zM582 930q-157 0 -234 -68q-74 -65 -74 -192v-74h613v74q0 127 -74 192q-77 68 -231 68z" />
    <glyph glyph-name="Edotaccent" unicode="&#x116;" horiz-adv-x="1142" 
d="M571 1679q31 0 51.5 -20t20.5 -51t-20.5 -51.5t-51.5 -20.5t-51 20.5t-20 51.5t20 51t51 20zM999 1303h-725v-521h725v-131h-725v-520h725v-131h-856v1434h856v-131z" />
    <glyph glyph-name="edotaccent" unicode="&#x117;" 
d="M582 1307q31 0 51 -20.5t20 -51.5t-20 -51.5t-51 -20.5t-51.5 20.5t-20.5 51.5t20.5 51.5t51.5 20.5zM582 1061q202 0 317 -100q119 -104 119 -291v-205h-744v-74q0 -127 74 -192q77 -68 234 -68h24q115 0 191 39q67 37 96 106l121 -49q-47 -114 -156 -172
q-101 -55 -252 -55h-24q-205 0 -320 100q-119 104 -119 291v279q0 187 119 291q115 100 320 100zM582 930q-157 0 -234 -68q-74 -65 -74 -192v-74h613v74q0 127 -74 192q-77 68 -231 68z" />
    <glyph glyph-name="Eogonek" unicode="&#x118;" horiz-adv-x="1142" 
d="M274 1303v-521h725v-131h-725v-520h725v-131q-67 0 -98 -31q-33 -33 -33 -98q0 -69 33 -98q29 -33 98 -33v-102q-111 0 -172 61t-61 172q0 72 31 129h-654v1434h856v-131h-725z" />
    <glyph glyph-name="eogonek" unicode="&#x119;" 
d="M274 465v-74q0 -127 74 -192q77 -68 234 -68h24q115 0 191 39q67 37 96 106l121 -49q-47 -114 -156 -172q-86 -47 -207 -53q-32 -8 -51 -27q-33 -33 -33 -98q0 -69 33 -98q29 -33 98 -33v-102q-111 0 -172 61t-61 172q0 72 31 129q-142 15 -234 94q-119 104 -119 291v279
q0 187 119 291q115 100 320 100q202 0 317 -100q119 -104 119 -291v-205h-744zM274 596h613v74q0 127 -74 192q-77 68 -231 68q-157 0 -234 -68q-74 -65 -74 -192v-74z" />
    <glyph glyph-name="Ecaron" unicode="&#x11a;" horiz-adv-x="1142" 
d="M831 1743l-260 -207l-258 207l64 80l194 -156l197 156zM999 1303h-725v-521h725v-131h-725v-520h725v-131h-856v1434h856v-131z" />
    <glyph glyph-name="ecaron" unicode="&#x11b;" 
d="M840 1370l-260 -207l-258 207l63 80l195 -156l196 156zM582 1061q202 0 317 -100q119 -104 119 -291v-205h-744v-74q0 -127 74 -192q77 -68 234 -68h24q115 0 191 39q67 37 96 106l121 -49q-47 -114 -156 -172q-101 -55 -252 -55h-24q-205 0 -320 100q-119 104 -119 291
v279q0 187 119 291q115 100 320 100zM582 930q-157 0 -234 -68q-74 -65 -74 -192v-74h613v74q0 127 -74 192q-77 68 -231 68z" />
    <glyph glyph-name="Gbreve" unicode="&#x11e;" horiz-adv-x="1255" 
d="M758 1769h102q0 -111 -61 -172t-170 -61q-111 0 -172 61q-62 62 -62 172h103q0 -70 32 -98q29 -33 99 -33q65 0 98 33q31 31 31 98zM627 1434h24q175 0 294 -85t163 -243l-125 -35q-68 232 -332 232h-24q-170 0 -260 -101q-93 -104 -93 -299v-373q0 -197 93 -301
q88 -98 260 -98q174 0 262 98q92 103 92 301v121h-354v131h485v-252q0 -247 -127 -389q-57 -65 -156 -106q-90 -35 -202 -35q-110 0 -203 35q-96 41 -156 106q-125 143 -125 389v373q0 247 125 387q66 72 156 107q90 37 203 37z" />
    <glyph glyph-name="gbreve" unicode="&#x11f;" 
d="M711 1397h102q0 -111 -61 -172q-62 -62 -170 -62q-110 0 -172 62t-62 172h103q0 -71 32 -99q28 -32 99 -32q66 0 98 32q31 31 31 99zM1018 1061v-1043q0 -186 -119 -290q-116 -101 -317 -101h-25q-151 0 -254 56q-109 58 -156 172l123 49q26 -69 95 -107q76 -39 192 -39
h25q154 0 231 68q74 65 74 192v72q-112 -90 -305 -90q-208 0 -320 100q-119 104 -119 291v279q0 184 119 288q115 103 320 103q190 0 305 -92v92h131zM582 930q-155 0 -234 -70q-74 -65 -74 -190v-279q0 -127 74 -192q77 -68 234 -68q154 0 231 68q74 65 74 192v279
q0 125 -74 190q-79 70 -231 70z" />
    <glyph glyph-name="Gdotaccent" unicode="&#x120;" horiz-adv-x="1255" 
d="M629 1679q31 0 51 -20t20 -51t-20 -51.5t-51 -20.5t-51.5 20.5t-20.5 51.5t20.5 51t51.5 20zM627 1434h24q175 0 294 -85t163 -243l-125 -35q-68 232 -332 232h-24q-170 0 -260 -101q-93 -104 -93 -299v-373q0 -197 93 -301q88 -98 260 -98q174 0 262 98q92 103 92 301
v121h-354v131h485v-252q0 -247 -127 -389q-57 -65 -156 -106q-90 -35 -202 -35q-110 0 -203 35q-96 41 -156 106q-125 143 -125 389v373q0 247 125 387q66 72 156 107q90 37 203 37z" />
    <glyph glyph-name="gdotaccent" unicode="&#x121;" 
d="M582 1307q31 0 51 -20.5t20 -51.5t-20 -51.5t-51 -20.5t-51.5 20.5t-20.5 51.5t20.5 51.5t51.5 20.5zM1018 1061v-1043q0 -186 -119 -290q-116 -101 -317 -101h-25q-151 0 -254 56q-109 58 -156 172l123 49q26 -69 95 -107q76 -39 192 -39h25q154 0 231 68q74 65 74 192
v72q-112 -90 -305 -90q-208 0 -320 100q-119 104 -119 291v279q0 184 119 288q115 103 320 103q190 0 305 -92v92h131zM582 930q-155 0 -234 -70q-74 -65 -74 -190v-279q0 -127 74 -192q77 -68 234 -68q154 0 231 68q74 65 74 192v279q0 125 -74 190q-79 70 -231 70z" />
    <glyph glyph-name="Gcommaaccent" unicode="&#x122;" horiz-adv-x="1255" 
d="M627 1434h24q175 0 294 -85t163 -243l-125 -35q-68 232 -332 232h-24q-170 0 -260 -101q-93 -104 -93 -299v-373q0 -197 93 -301q88 -98 260 -98q174 0 262 98q92 103 92 301v121h-354v131h485v-252q0 -247 -127 -389q-57 -65 -156 -106q-90 -35 -202 -35q-110 0 -203 35
q-96 41 -156 106q-125 143 -125 389v373q0 247 125 387q66 72 156 107q90 37 203 37zM487 -514l58 -84q113 78 168 203q57 129 57 293h-102q0 -144 -47 -250q-45 -98 -134 -162z" />
    <glyph glyph-name="gcommaaccent" unicode="&#x123;" 
d="M723 1575l-57 84q-113 -78 -168 -203q-58 -132 -58 -293h103q0 144 47 250q45 99 133 162zM1018 1061v-1043q0 -186 -119 -290q-116 -101 -317 -101h-25q-151 0 -254 56q-109 58 -156 172l123 49q26 -69 95 -107q76 -39 192 -39h25q154 0 231 68q74 65 74 192v72
q-112 -90 -305 -90q-208 0 -320 100q-119 104 -119 291v279q0 184 119 288q115 103 320 103q190 0 305 -92v92h131zM582 930q-155 0 -234 -70q-74 -65 -74 -190v-279q0 -127 74 -192q77 -68 234 -68q154 0 231 68q74 65 74 192v279q0 125 -74 190q-79 70 -231 70z" />
    <glyph glyph-name="Hbar" unicode="&#x126;" horiz-adv-x="1255" 
d="M1217 1057h-105v-1057h-131v651h-707v-651h-131v1057h-106v102h106v275h131v-275h707v275h131v-275h105v-102zM981 1057h-707v-275h707v275z" />
    <glyph glyph-name="hbar" unicode="&#x127;" 
d="M899 961q119 -104 119 -291v-670h-131v670q0 127 -74 192q-77 68 -231 68q-157 0 -234 -68q-74 -65 -74 -192v-670h-131v1196h-123v102h123v136h131v-136h336v-102h-336v-225q116 90 308 90q202 0 317 -100z" />
    <glyph glyph-name="Itilde" unicode="&#x128;" horiz-adv-x="417" 
d="M23 1724q55 22 116 8t105 -59q50 -50 110 -28q31 15 31 36h102q0 -67 -51 -106t-114 -39q-84 0 -150 66q-50 48 -109 26q-30 -12 -30 -37h-103q0 43 25 78.5t68 54.5zM274 0h-131v1434h131v-1434z" />
    <glyph glyph-name="itilde" unicode="&#x129;" horiz-adv-x="417" 
d="M23 1352q55 22 116 8t105 -60q50 -50 110 -28q31 16 31 37h102q0 -67 -51 -106.5t-114 -39.5q-84 0 -150 66q-50 48 -109 26q-30 -12 -30 -36h-103q0 43 25 78.5t68 54.5zM274 0h-131v1061h131v-1061z" />
    <glyph glyph-name="Imacron" unicode="&#x12a;" horiz-adv-x="417" 
d="M389 1536h-362v102h362v-102zM274 0h-131v1434h131v-1434z" />
    <glyph glyph-name="imacron" unicode="&#x12b;" horiz-adv-x="417" 
d="M389 1163h-362v103h362v-103zM274 0h-131v1061h131v-1061z" />
    <glyph glyph-name="Iogonek" unicode="&#x12e;" horiz-adv-x="417" 
d="M274 1434v-1434q-67 0 -98 -31q-33 -33 -33 -98q0 -69 33 -98q29 -33 98 -33v-102q-111 0 -172 61t-61 172q0 109 61 170q18 18 41 31v1362h131z" />
    <glyph glyph-name="iogonek" unicode="&#x12f;" horiz-adv-x="458" 
d="M229 1262q-37 0 -61.5 24.5t-24.5 61.5t24.5 61.5t61.5 24.5t61.5 -24.5t24.5 -61.5t-24.5 -61.5t-61.5 -24.5zM164 1061h131v-1061q-67 0 -98 -31q-33 -33 -33 -98q0 -69 33 -98q29 -33 98 -33v-102q-111 0 -172 61q-62 62 -62 172q0 108 62 170q18 18 41 31v989z" />
    <glyph glyph-name="Idotaccent" unicode="&#x130;" horiz-adv-x="417" 
d="M209 1679q31 0 51.5 -20t20.5 -51t-20.5 -51.5t-51.5 -20.5t-51.5 20.5t-20.5 51.5t20.5 51t51.5 20zM274 0h-131v1434h131v-1434z" />
    <glyph glyph-name="dotlessi" unicode="&#x131;" horiz-adv-x="417" 
d="M274 0h-131v1061h131v-1061z" />
    <glyph glyph-name="IJ" unicode="&#x132;" horiz-adv-x="999" 
d="M274 0h-131v1434h131v-1434zM856 1434v-904q0 -243 -111 -385q-118 -145 -327 -145v131q147 0 225 96q82 105 82 303v904h131z" />
    <glyph glyph-name="ij" unicode="&#x133;" horiz-adv-x="856" 
d="M229 1434q37 0 61.5 -24.5t24.5 -61.5t-24.5 -61.5t-61.5 -24.5t-61.5 24.5t-24.5 61.5t24.5 61.5t61.5 24.5zM627 1434q37 0 61.5 -24.5t24.5 -61.5t-24.5 -61.5t-61.5 -24.5t-61.5 24.5t-24.5 61.5t24.5 61.5t61.5 24.5zM295 0h-131v1061h131v-1061zM692 1061v-995
q0 -205 -100 -320q-104 -119 -291 -119v131q128 0 193 74q67 76 67 234v995h131z" />
    <glyph glyph-name="Kcommaaccent" unicode="&#x136;" horiz-adv-x="1275" 
d="M659 819l474 -819h-152l-410 707l-297 -385v-322h-131v1434h131v-897l695 897h164zM498 -514l57 -84q113 78 168 203q57 129 57 293h-102q0 -144 -47 -250q-45 -99 -133 -162z" />
    <glyph glyph-name="kcommaaccent" unicode="&#x137;" horiz-adv-x="1097" 
d="M274 514l502 547h178l-432 -471l432 -590h-163l-359 492l-158 -173v-319h-131v1434h131v-920zM408 -514l57 -84q113 78 168 203q57 129 57 293h-102q0 -144 -47 -250q-45 -99 -133 -162z" />
    <glyph glyph-name="Lacute" unicode="&#x139;" horiz-adv-x="1142" 
d="M553 1718l-365 -182l-45 92l363 180zM274 131h725v-131h-856v1434h131v-1303z" />
    <glyph glyph-name="lacute" unicode="&#x13a;" horiz-adv-x="585" 
d="M414 1718l-365 -182l-45 92l363 180zM274 1434v-1043q0 -136 48 -203q42 -57 120 -57v-131q-146 0 -227 113q-72 101 -72 278v1043h131z" />
    <glyph glyph-name="Lcommaaccent" unicode="&#x13b;" horiz-adv-x="1142" 
d="M274 131h725v-131h-856v1434h131v-1303zM430 -514l57 -84q113 78 168 203q58 132 58 293h-103q0 -144 -47 -250q-45 -99 -133 -162z" />
    <glyph glyph-name="lcommaaccent" unicode="&#x13c;" horiz-adv-x="585" 
d="M274 1434v-1043q0 -136 48 -203q42 -57 120 -57v-131q-146 0 -227 113q-72 101 -72 278v1043h131zM160 -514l57 -84q113 78 168 203q57 129 57 293h-102q0 -144 -47 -250q-45 -99 -133 -162z" />
    <glyph glyph-name="Lcaron" unicode="&#x13d;" horiz-adv-x="1142" 
d="M274 131h725v-131h-856v1434h131v-1303zM623 979h-103v455h103v-455z" />
    <glyph glyph-name="lcaron" unicode="&#x13e;" horiz-adv-x="585" 
d="M274 1434v-1043q0 -136 48 -203q42 -57 120 -57v-131q-146 0 -227 113q-72 101 -72 278v1043h131zM479 979h-102v455h102v-455z" />
    <glyph glyph-name="Ldot" unicode="&#x13f;" horiz-adv-x="1142" 
d="M274 131h725v-131h-856v1434h131v-1303zM571 788q31 0 51.5 -20t20.5 -51t-20.5 -51.5t-51.5 -20.5t-51 20.5t-20 51.5t20 51t51 20z" />
    <glyph glyph-name="ldot" unicode="&#x140;" horiz-adv-x="585" 
d="M274 1434v-1043q0 -136 48 -203q42 -57 120 -57v-131q-146 0 -227 113q-72 101 -72 278v1043h131zM449 788q31 0 51 -20t20 -51t-20 -51.5t-51 -20.5t-51.5 20.5t-20.5 51.5t20.5 51t51.5 20z" />
    <glyph glyph-name="Lslash" unicode="&#x141;" horiz-adv-x="1269" 
d="M1126 131v-131h-856v627l-184 -92l-45 92l229 114v693h131v-627l185 92l45 -92l-230 -115v-561h725z" />
    <glyph glyph-name="lslash" unicode="&#x142;" horiz-adv-x="585" 
d="M322 188q42 -57 120 -57v-131q-146 0 -227 113q-72 101 -72 278v236l-184 -92l-45 92l229 114v693h131v-627l185 92l45 -92l-230 -115v-301q0 -136 48 -203z" />
    <glyph glyph-name="Nacute" unicode="&#x143;" horiz-adv-x="1255" 
d="M834 1718l-365 -182l-45 92l362 180zM1112 0h-102l-736 1145v-1145h-131v1434h101l737 -1145v1145h131v-1434z" />
    <glyph glyph-name="nacute" unicode="&#x144;" 
d="M786 1346l-364 -183l-45 92l362 181zM582 1061q202 0 317 -100q119 -104 119 -291v-670h-131v670q0 127 -74 192q-77 68 -231 68q-157 0 -234 -68q-74 -65 -74 -192v-670h-131v1061h131v-90q116 90 308 90z" />
    <glyph glyph-name="Ncommaaccent" unicode="&#x145;" horiz-adv-x="1255" 
d="M1112 0h-102l-736 1145v-1145h-131v1434h101l737 -1145v1145h131v-1434zM487 -514l58 -84q113 78 168 203q57 129 57 293h-102q0 -144 -47 -250q-45 -98 -134 -162z" />
    <glyph glyph-name="ncommaaccent" unicode="&#x146;" 
d="M582 1061q202 0 317 -100q119 -104 119 -291v-670h-131v670q0 127 -74 192q-77 68 -231 68q-157 0 -234 -68q-74 -65 -74 -192v-670h-131v1061h131v-90q116 90 308 90zM440 -514l58 -84q113 78 168 203q57 129 57 293h-102q0 -142 -48 -250q-45 -99 -133 -162z" />
    <glyph glyph-name="Ncaron" unicode="&#x147;" horiz-adv-x="1255" 
d="M887 1743l-260 -207l-258 207l63 80l195 -156l196 156zM1112 0h-102l-736 1145v-1145h-131v1434h101l737 -1145v1145h131v-1434z" />
    <glyph glyph-name="ncaron" unicode="&#x148;" 
d="M840 1370l-260 -207l-258 207l63 80l195 -156l196 156zM582 1061q202 0 317 -100q119 -104 119 -291v-670h-131v670q0 127 -74 192q-77 68 -231 68q-157 0 -234 -68q-74 -65 -74 -192v-670h-131v1061h131v-90q116 90 308 90z" />
    <glyph glyph-name="Eng" unicode="&#x14a;" horiz-adv-x="1255" 
d="M1112 1434v-1368q0 -205 -100 -320q-104 -119 -291 -119v131q127 0 192 74q65 71 68 213l-707 1100v-1145h-131v1434h101l737 -1145v1145h131z" />
    <glyph glyph-name="eng" unicode="&#x14b;" 
d="M582 1061q202 0 317 -100q119 -104 119 -291v-697q0 -165 -107 -258q-108 -88 -284 -88v131q131 0 198 58q62 53 62 157v697q0 127 -74 192q-77 68 -231 68q-157 0 -234 -68q-74 -65 -74 -192v-670h-131v1061h131v-90q116 90 308 90z" />
    <glyph glyph-name="Omacron" unicode="&#x14c;" horiz-adv-x="1255" 
d="M809 1536h-363v102h363v-102zM627 1434q115 0 202 -37q93 -35 156 -107q127 -139 127 -387v-373q0 -247 -127 -389q-57 -65 -156 -106q-90 -35 -202 -35q-110 0 -203 35q-96 41 -156 106q-125 143 -125 389v373q0 247 125 387q66 72 156 107q90 37 203 37zM627 1303
q-170 0 -260 -101q-93 -104 -93 -299v-373q0 -197 93 -301q88 -98 260 -98q174 0 262 98q92 103 92 301v373q0 196 -92 299q-90 101 -262 101z" />
    <glyph glyph-name="omacron" unicode="&#x14d;" 
d="M762 1163h-363v103h363v-103zM582 1061q202 0 317 -100q119 -104 119 -291v-279q0 -187 -119 -291q-115 -100 -317 -100q-205 0 -320 100q-119 104 -119 291v279q0 187 119 291q115 100 320 100zM582 930q-157 0 -234 -68q-74 -65 -74 -192v-279q0 -127 74 -192
q77 -68 234 -68q154 0 231 68q74 65 74 192v279q0 127 -74 192q-77 68 -231 68z" />
    <glyph glyph-name="Ohungarumlaut" unicode="&#x150;" horiz-adv-x="1255" 
d="M637 1718l-227 -182l-64 80l227 182zM909 1718l-227 -182l-64 80l228 182zM627 1434q115 0 202 -37q93 -35 156 -107q127 -139 127 -387v-373q0 -247 -127 -389q-57 -65 -156 -106q-90 -35 -202 -35q-110 0 -203 35q-96 41 -156 106q-125 143 -125 389v373q0 247 125 387
q66 72 156 107q90 37 203 37zM627 1303q-170 0 -260 -101q-93 -104 -93 -299v-373q0 -197 93 -301q88 -98 260 -98q174 0 262 98q92 103 92 301v373q0 196 -92 299q-90 101 -262 101z" />
    <glyph glyph-name="ohungarumlaut" unicode="&#x151;" 
d="M590 1346l-228 -183l-63 80l227 182zM862 1346l-227 -183l-64 80l228 182zM582 1061q202 0 317 -100q119 -104 119 -291v-279q0 -187 -119 -291q-115 -100 -317 -100q-205 0 -320 100q-119 104 -119 291v279q0 187 119 291q115 100 320 100zM582 930q-157 0 -234 -68
q-74 -65 -74 -192v-279q0 -127 74 -192q77 -68 234 -68q154 0 231 68q74 65 74 192v279q0 127 -74 192q-77 68 -231 68z" />
    <glyph glyph-name="OE" unicode="&#x152;" horiz-adv-x="1980" 
d="M1112 782h725v-131h-725v-520h725v-131h-856v137q-56 -61 -152 -102q-90 -35 -202 -35q-110 0 -203 35q-96 41 -156 106q-125 143 -125 389v373q0 247 125 387q66 72 156 107q90 37 203 37q115 0 202 -37q90 -35 152 -103v140h856v-131h-725v-521zM889 229q92 103 92 301
v373q0 196 -92 299q-90 101 -262 101q-170 0 -260 -101q-93 -104 -93 -299v-373q0 -197 93 -301q88 -98 260 -98q174 0 262 98z" />
    <glyph glyph-name="oe" unicode="&#x153;" horiz-adv-x="1904" 
d="M1018 465v-74q0 -127 74 -192q77 -68 233 -68h25q114 0 190 39q67 37 96 106l121 -49q-47 -115 -155 -172q-101 -55 -252 -55h-25q-204 0 -319 100q-39 35 -54 60q-17 -27 -53 -60q-115 -100 -317 -100q-205 0 -320 100q-119 104 -119 291v279q0 187 119 291
q115 100 320 100q202 0 317 -100q36 -33 53 -60q15 25 54 60q115 100 319 100q202 0 317 -100q119 -104 119 -291v-205h-743zM813 199q74 65 74 192v279q0 127 -74 192q-77 68 -231 68q-157 0 -234 -68q-74 -65 -74 -192v-279q0 -127 74 -192q77 -68 234 -68q154 0 231 68z
M1092 862q-74 -65 -74 -192v-74h612v74q0 127 -74 192q-77 68 -231 68q-156 0 -233 -68z" />
    <glyph glyph-name="Racute" unicode="&#x154;" horiz-adv-x="1255" 
d="M834 1718l-365 -182l-45 92l362 180zM143 1434h484q226 0 354 -113q63 -57 98 -141q33 -91 33 -185q0 -95 -33 -182q-35 -84 -98 -141q-108 -99 -291 -111l422 -561h-164l-420 559h-254v-559h-131v1434zM274 1303v-613h353q177 0 266 80q88 76 88 225t-88 228
q-89 80 -266 80h-353z" />
    <glyph glyph-name="racute" unicode="&#x155;" horiz-adv-x="817" 
d="M614 1346l-364 -183l-45 92l362 181zM674 930h-92q-157 0 -234 -68q-74 -65 -74 -192v-670h-131v1061h131v-90q116 90 308 90h92v-131z" />
    <glyph glyph-name="Rcommaaccent" unicode="&#x156;" horiz-adv-x="1255" 
d="M143 1434h484q226 0 354 -113q63 -57 98 -141q33 -91 33 -185q0 -95 -33 -182q-35 -84 -98 -141q-108 -99 -291 -111l422 -561h-164l-420 559h-254v-559h-131v1434zM274 1303v-613h353q177 0 266 80q88 76 88 225t-88 228q-89 80 -266 80h-353zM487 -514l58 -84
q113 78 168 203q57 129 57 293h-102q0 -144 -47 -250q-45 -98 -134 -162z" />
    <glyph glyph-name="rcommaaccent" unicode="&#x157;" horiz-adv-x="817" 
d="M674 930h-92q-157 0 -234 -68q-74 -65 -74 -192v-670h-131v1061h131v-90q116 90 308 90h92v-131zM-23 -514l58 -84q113 78 168 203q57 129 57 293h-102q0 -144 -47 -250q-45 -98 -134 -162z" />
    <glyph glyph-name="Rcaron" unicode="&#x158;" horiz-adv-x="1255" 
d="M887 1743l-260 -207l-258 207l63 80l195 -156l196 156zM143 1434h484q226 0 354 -113q63 -57 98 -141q33 -91 33 -185q0 -95 -33 -182q-35 -84 -98 -141q-108 -99 -291 -111l422 -561h-164l-420 559h-254v-559h-131v1434zM274 1303v-613h353q177 0 266 80q88 76 88 225
t-88 228q-89 80 -266 80h-353z" />
    <glyph glyph-name="rcaron" unicode="&#x159;" horiz-adv-x="817" 
d="M668 1370l-260 -207l-258 207l63 80l195 -156l196 156zM674 930h-92q-157 0 -234 -68q-74 -65 -74 -192v-670h-131v1061h131v-90q116 90 308 90h92v-131z" />
    <glyph glyph-name="Sacute" unicode="&#x15a;" horiz-adv-x="1255" 
d="M834 1718l-365 -182l-45 92l362 180zM627 1434h24q175 0 294 -85t163 -243l-125 -35q-68 232 -332 232h-24q-179 0 -269 -72q-84 -66 -84 -189q0 -124 84 -190q92 -70 269 -70q225 0 350 -98q135 -104 135 -293t-135 -293q-125 -98 -350 -98h-23q-176 0 -294.5 84.5
t-164.5 241.5l127 36q64 -231 332 -231h23q178 0 270 70q84 66 84 190q0 123 -84 189q-89 71 -270 71q-225 0 -351 99q-133 105 -133 292q0 185 133 293q132 99 351 99z" />
    <glyph glyph-name="sacute" unicode="&#x15b;" 
d="M786 1346l-364 -183l-45 92l362 181zM582 1061h24q151 0 252 -55q109 -58 156 -172l-121 -50q-30 70 -96 107q-76 39 -191 39h-24q-165 0 -242 -51q-66 -40 -66 -115q0 -77 66 -117q77 -51 242 -51q194 0 309 -70q127 -80 127 -227q0 -149 -127 -229q-115 -70 -309 -70
h-25q-153 0 -254 55q-109 58 -156 172l123 49q26 -68 95 -106q76 -39 192 -39h25q162 0 239 51q66 40 66 117q0 75 -66 115q-77 51 -239 51q-194 0 -312 70q-127 80 -127 229q0 147 127 227q118 70 312 70z" />
    <glyph glyph-name="Scedilla" unicode="&#x15e;" horiz-adv-x="1255" 
d="M977 684q135 -104 135 -293t-135 -293q-124 -95 -338 -98l-29 -115q78 -6 123 -55.5t45 -132.5q0 -86 -50 -136t-138 -50h-90v102h90q45 0 65 20q21 21 21 64q0 41 -21 65q-21 21 -65 21h-111l56 221q-149 15 -249 98t-141 224l127 36q64 -231 332 -231h23q178 0 270 70
q84 66 84 190q0 123 -84 189q-89 71 -270 71q-225 0 -351 99q-133 105 -133 292q0 185 133 293q132 99 351 99h24q175 0 294 -85t163 -243l-125 -35q-68 232 -332 232h-24q-179 0 -269 -72q-84 -66 -84 -189q0 -124 84 -190q92 -70 269 -70q225 0 350 -98z" />
    <glyph glyph-name="scedilla" unicode="&#x15f;" 
d="M891 526q127 -80 127 -227q0 -149 -127 -229q-112 -67 -299 -70l-29 -115q78 -6 123 -55.5t45 -132.5q0 -86 -50 -136t-138 -50h-90v102h90q45 0 65 20q21 21 21 64q0 41 -21 65q-21 21 -65 21h-111l55 221q-111 9 -184 51q-109 58 -156 172l123 49q26 -68 95 -106
q76 -39 192 -39h25q162 0 239 51q66 40 66 117q0 75 -66 115q-77 51 -239 51q-194 0 -312 70q-127 80 -127 229q0 147 127 227q118 70 312 70h24q151 0 252 -55q109 -58 156 -172l-121 -50q-30 70 -96 107q-76 39 -191 39h-24q-165 0 -242 -51q-66 -40 -66 -115
q0 -77 66 -117q77 -51 242 -51q194 0 309 -70z" />
    <glyph glyph-name="Scaron" unicode="&#x160;" horiz-adv-x="1255" 
d="M887 1743l-260 -207l-258 207l63 80l195 -156l196 156zM627 1434h24q175 0 294 -85t163 -243l-125 -35q-68 232 -332 232h-24q-179 0 -269 -72q-84 -66 -84 -189q0 -124 84 -190q92 -70 269 -70q225 0 350 -98q135 -104 135 -293t-135 -293q-125 -98 -350 -98h-23
q-176 0 -294.5 84.5t-164.5 241.5l127 36q64 -231 332 -231h23q178 0 270 70q84 66 84 190q0 123 -84 189q-89 71 -270 71q-225 0 -351 99q-133 105 -133 292q0 185 133 293q132 99 351 99z" />
    <glyph glyph-name="scaron" unicode="&#x161;" 
d="M840 1370l-260 -207l-258 207l63 80l195 -156l196 156zM582 1061h24q151 0 252 -55q109 -58 156 -172l-121 -50q-30 70 -96 107q-76 39 -191 39h-24q-165 0 -242 -51q-66 -40 -66 -115q0 -77 66 -117q77 -51 242 -51q194 0 309 -70q127 -80 127 -227q0 -149 -127 -229
q-115 -70 -309 -70h-25q-153 0 -254 55q-109 58 -156 172l123 49q26 -68 95 -106q76 -39 192 -39h25q162 0 239 51q66 40 66 117q0 75 -66 115q-77 51 -239 51q-194 0 -312 70q-127 80 -127 229q0 147 127 227q118 70 312 70z" />
    <glyph glyph-name="Tcedilla" unicode="&#x162;" horiz-adv-x="1169" 
d="M639 0l-29 -117q78 -6 123 -55.5t45 -132.5q0 -87 -50 -137t-138 -50h-90v103h90q45 0 65 20q21 21 21 64q0 41 -21 65q-21 21 -65 21h-111l56 219h-15v1303h-377v131h883v-131h-375v-1303h-12z" />
    <glyph glyph-name="tcedilla" unicode="&#x163;" horiz-adv-x="890" 
d="M748 0l-29 -117q78 -6 123 -55.5t45 -132.5q0 -86 -50.5 -136.5t-138.5 -50.5h-90v103h90q46 0 66 20t20 64q0 42 -20 65q-21 21 -66 21h-110l57 227q-126 17 -217 92q-117 105 -117 291v539h-168v131h168v373h131v-373h306v-131h-306v-539q0 -127 74 -192
q77 -68 232 -68v-131z" />
    <glyph glyph-name="Tcaron" unicode="&#x164;" horiz-adv-x="1169" 
d="M844 1743l-260 -207l-258 207l63 80l195 -156l196 156zM1026 1303h-375v-1303h-131v1303h-377v131h883v-131z" />
    <glyph glyph-name="tcaron" unicode="&#x165;" horiz-adv-x="890" 
d="M748 1184h-103v454h103v-454zM442 1061h306v-131h-306v-539q0 -127 74 -192q77 -68 232 -68v-131q-202 0 -320 100q-117 105 -117 291v539h-168v131h168v373h131v-373z" />
    <glyph glyph-name="Tbar" unicode="&#x166;" horiz-adv-x="1169" 
d="M651 1303v-535h230v-102h-230v-666h-131v666h-229v102h229v535h-377v131h883v-131h-375z" />
    <glyph glyph-name="tbar" unicode="&#x167;" horiz-adv-x="890" 
d="M442 930v-162h299v-102h-299v-275q0 -127 74 -192q77 -68 232 -68v-131q-202 0 -320 100q-117 105 -117 291v275h-159v102h159v162h-168v131h168v373h131v-373h306v-131h-306z" />
    <glyph glyph-name="Utilde" unicode="&#x168;" horiz-adv-x="1255" 
d="M442 1724q55 22 116.5 8t105.5 -59q50 -50 110 -28q31 15 31 36h102q0 -67 -51.5 -106t-114.5 -39q-83 0 -149 66q-50 48 -109 26q-30 -12 -30 -37h-103q0 43 24.5 78.5t67.5 54.5zM1112 1434v-904q0 -247 -127 -389q-57 -65 -156 -106q-90 -35 -202 -35q-110 0 -203 35
q-96 41 -156 106q-125 143 -125 389v904h131v-904q0 -197 93 -301q88 -98 260 -98q174 0 262 98q92 103 92 301v904h131z" />
    <glyph glyph-name="utilde" unicode="&#x169;" horiz-adv-x="1163" 
d="M395 1352q55 22 116 8t105 -60q50 -50 111 -28q31 16 31 37h102q0 -67 -51.5 -106.5t-114.5 -39.5q-83 0 -149 66q-50 48 -109 26q-30 -12 -30 -36h-103q0 43 24.5 78.5t67.5 54.5zM1020 0h-131v90q-116 -90 -307 -90q-202 0 -320 100q-119 104 -119 291v670h131v-670
q0 -125 76 -192q77 -68 232 -68q154 0 231 68q76 67 76 192v670h131v-1061z" />
    <glyph glyph-name="Umacron" unicode="&#x16a;" horiz-adv-x="1255" 
d="M809 1536h-363v102h363v-102zM1112 1434v-904q0 -247 -127 -389q-57 -65 -156 -106q-90 -35 -202 -35q-110 0 -203 35q-96 41 -156 106q-125 143 -125 389v904h131v-904q0 -197 93 -301q88 -98 260 -98q174 0 262 98q92 103 92 301v904h131z" />
    <glyph glyph-name="umacron" unicode="&#x16b;" horiz-adv-x="1163" 
d="M764 1163h-363v103h363v-103zM1020 0h-131v90q-116 -90 -307 -90q-202 0 -320 100q-119 104 -119 291v670h131v-670q0 -125 76 -192q77 -68 232 -68q154 0 231 68q76 67 76 192v670h131v-1061z" />
    <glyph glyph-name="Uring" unicode="&#x16e;" horiz-adv-x="1255" 
d="M627 1911q88 0 138 -50.5t50 -138.5q0 -86 -50 -136t-138 -50q-86 0 -136.5 50t-50.5 136q0 88 50.5 138.5t136.5 50.5zM627 1808q-47 0 -64 -20q-20 -20 -20 -66t20 -63q18 -21 64 -21q44 0 65 21q21 18 21 63t-21 66q-20 20 -65 20zM1112 1434v-904q0 -247 -127 -389
q-57 -65 -156 -106q-90 -35 -202 -35q-110 0 -203 35q-96 41 -156 106q-125 143 -125 389v904h131v-904q0 -197 93 -301q88 -98 260 -98q174 0 262 98q92 103 92 301v904h131z" />
    <glyph glyph-name="uring" unicode="&#x16f;" horiz-adv-x="1163" 
d="M582 1538q88 0 138 -50t50 -138q0 -86 -50 -136.5t-138 -50.5q-86 0 -136.5 50.5t-50.5 136.5q0 88 50.5 138t136.5 50zM582 1436q-46 0 -64 -21q-20 -20 -20 -65q0 -47 20 -64q17 -20 64 -20q45 0 65 20q21 18 21 64q0 44 -21 65t-65 21zM1020 0h-131v90
q-116 -90 -307 -90q-202 0 -320 100q-119 104 -119 291v670h131v-670q0 -125 76 -192q77 -68 232 -68q154 0 231 68q76 67 76 192v670h131v-1061z" />
    <glyph glyph-name="Uhungarumlaut" unicode="&#x170;" horiz-adv-x="1255" 
d="M637 1718l-227 -182l-64 80l227 182zM909 1718l-227 -182l-64 80l228 182zM1112 1434v-904q0 -247 -127 -389q-57 -65 -156 -106q-90 -35 -202 -35q-110 0 -203 35q-96 41 -156 106q-125 143 -125 389v904h131v-904q0 -197 93 -301q88 -98 260 -98q174 0 262 98
q92 103 92 301v904h131z" />
    <glyph glyph-name="uhungarumlaut" unicode="&#x171;" horiz-adv-x="1163" 
d="M592 1346l-227 -183l-64 80l227 182zM864 1346l-227 -183l-64 80l228 182zM1020 0h-131v90q-116 -90 -307 -90q-202 0 -320 100q-119 104 -119 291v670h131v-670q0 -125 76 -192q77 -68 232 -68q154 0 231 68q76 67 76 192v670h131v-1061z" />
    <glyph glyph-name="Uogonek" unicode="&#x172;" horiz-adv-x="1255" 
d="M1112 1434v-904q0 -247 -127 -389q-57 -65 -156 -106q-78 -28 -149 -33q-20 -6 -33 -20q-33 -33 -33 -99q0 -69 33 -98q29 -33 98 -33v-102q-111 0 -172 61t-61 172q0 71 27 123q-47 7 -115 29q-96 41 -156 106q-125 143 -125 389v904h131v-904q0 -197 93 -301
q88 -98 260 -98q174 0 262 98q92 103 92 301v904h131z" />
    <glyph glyph-name="uogonek" unicode="&#x173;" horiz-adv-x="1163" 
d="M1020 1061v-1061q-67 0 -98 -31q-33 -33 -33 -98q0 -69 33 -98q29 -33 98 -33v-102q-111 0 -172 61q-62 62 -62 172q0 108 62 170q18 18 41 31v18q-116 -90 -307 -90q-202 0 -320 100q-119 104 -119 291v670h131v-670q0 -125 76 -192q77 -68 232 -68q154 0 231 68
q76 67 76 192v670h131z" />
    <glyph glyph-name="Wcircumflex" unicode="&#x174;" horiz-adv-x="2140" 
d="M1069 1692l-195 -156l-63 80l258 207l260 -207l-63 -80zM1536 0h-94l-371 1153l-371 -1153h-96l-461 1434h138l370 -1153l371 1153h96l371 -1153l371 1153h137z" />
    <glyph glyph-name="wcircumflex" unicode="&#x175;" horiz-adv-x="1968" 
d="M983 1319l-195 -156l-63 80l258 207l260 -207l-63 -80zM1401 0h-90l-328 819l-326 -819h-90l-424 1061h142l327 -819l328 819h88l328 -819l327 819h142z" />
    <glyph glyph-name="Ycircumflex" unicode="&#x176;" horiz-adv-x="1335" 
d="M668 1692l-195 -156l-63 80l258 207l260 -207l-64 -80zM733 514v-514h-131v514l-459 920h148l377 -756l379 756h145z" />
    <glyph glyph-name="ycircumflex" unicode="&#x177;" 
d="M580 1319l-195 -156l-63 80l258 207l260 -207l-64 -80zM1018 1061v-1043q0 -186 -119 -290q-116 -101 -317 -101h-25q-151 0 -254 56q-109 58 -156 172l123 49q26 -69 95 -107q76 -39 192 -39h25q154 0 231 68q74 65 74 192v72q-112 -90 -305 -90q-208 0 -320 100
q-119 104 -119 291v670h131v-670q0 -127 74 -192q77 -68 234 -68q154 0 231 68q74 65 74 192v670h131z" />
    <glyph glyph-name="Ydieresis" unicode="&#x178;" horiz-adv-x="1335" 
d="M555 1679q31 0 51.5 -20t20.5 -51t-20.5 -51.5t-51.5 -20.5t-51.5 20.5t-20.5 51.5t20.5 51t51.5 20zM780 1679q31 0 51.5 -20t20.5 -51t-20.5 -51.5t-51.5 -20.5t-51 20.5t-20 51.5t20 51t51 20zM733 514v-514h-131v514l-459 920h148l377 -756l379 756h145z" />
    <glyph glyph-name="Zacute" unicode="&#x179;" horiz-adv-x="1216" 
d="M813 1718l-364 -182l-46 92l363 180zM1073 1255l-803 -1124h803v-131h-930v178l803 1125h-803v131h930v-179z" />
    <glyph glyph-name="zacute" unicode="&#x17a;" horiz-adv-x="1124" 
d="M768 1346l-365 -183l-45 92l363 181zM981 897l-690 -766h690v-131h-838v164l691 766h-691v131h838v-164z" />
    <glyph glyph-name="Zdotaccent" unicode="&#x17b;" horiz-adv-x="1216" 
d="M608 1679q31 0 51.5 -20t20.5 -51t-20.5 -51.5t-51.5 -20.5t-51 20.5t-20 51.5t20 51t51 20zM1073 1255l-803 -1124h803v-131h-930v178l803 1125h-803v131h930v-179z" />
    <glyph glyph-name="zdotaccent" unicode="&#x17c;" horiz-adv-x="1124" 
d="M563 1307q31 0 51.5 -20.5t20.5 -51.5t-20.5 -51.5t-51.5 -20.5t-51 20.5t-20 51.5t20 51.5t51 20.5zM981 897l-690 -766h690v-131h-838v164l691 766h-691v131h838v-164z" />
    <glyph glyph-name="Zcaron" unicode="&#x17d;" horiz-adv-x="1216" 
d="M868 1743l-260 -207l-258 207l64 80l194 -156l197 156zM1073 1255l-803 -1124h803v-131h-930v178l803 1125h-803v131h930v-179z" />
    <glyph glyph-name="zcaron" unicode="&#x17e;" horiz-adv-x="1124" 
d="M821 1370l-260 -207l-258 207l64 80l194 -156l197 156zM981 897l-690 -766h690v-131h-838v164l691 766h-691v131h838v-164z" />
    <glyph glyph-name="Ohorn" unicode="&#x1a0;" horiz-adv-x="1386" 
d="M1305 1434v-181q0 -102 -45 -166q-49 -67 -144 -67h-12q8 -49 8 -117v-373q0 -247 -127 -389q-57 -65 -156 -106q-90 -35 -202 -35q-110 0 -203 35q-96 41 -156 106q-125 143 -125 389v373q0 247 125 387q66 72 156 107q90 37 203 37q115 0 202 -37q93 -35 156 -107
q60 -66 96 -168h35q44 0 62 27q24 35 24 104v181h103zM981 530v373q0 196 -92 299q-90 101 -262 101q-170 0 -260 -101q-93 -104 -93 -299v-373q0 -197 93 -301q88 -98 260 -98q174 0 262 98q92 103 92 301z" />
    <glyph glyph-name="ohorn" unicode="&#x1a1;" horiz-adv-x="1271" 
d="M1210 1061v-180q0 -102 -45 -166q-50 -68 -143 -68h-4v-256q0 -187 -119 -291q-115 -100 -317 -100q-205 0 -320 100q-119 104 -119 291v279q0 187 119 291q115 100 320 100q202 0 317 -100q92 -83 113 -211h10q44 0 61 26q25 36 25 105v180h102zM887 391v279
q0 127 -74 192q-77 68 -231 68q-157 0 -234 -68q-74 -65 -74 -192v-279q0 -127 74 -192q77 -68 234 -68q154 0 231 68q74 65 74 192z" />
    <glyph glyph-name="Uhorn" unicode="&#x1af;" horiz-adv-x="1390" 
d="M1370 1434v-181q0 -102 -45 -166q-49 -67 -143 -67h-70v-490q0 -247 -127 -389q-57 -65 -156 -106q-90 -35 -202 -35q-110 0 -203 35q-96 41 -156 106q-125 143 -125 389v904h131v-904q0 -197 93 -301q88 -98 260 -98q174 0 262 98q92 103 92 301v904h131v-312h70
q43 0 61 27q25 36 25 104v181h102z" />
    <glyph glyph-name="uhorn" unicode="&#x1b0;" horiz-adv-x="1298" 
d="M1278 1061v-180q0 -102 -45 -166q-50 -68 -143 -68h-70v-647h-131v90q-116 -90 -307 -90q-202 0 -320 100q-119 104 -119 291v670h131v-670q0 -125 76 -192q77 -68 232 -68q154 0 231 68q76 67 76 192v670h131v-311h70q44 0 61 26q25 36 25 105v180h102z" />
    <glyph glyph-name="Acaron" unicode="&#x1cd;" horiz-adv-x="1402" 
d="M961 1743l-261 -207l-258 207l64 80l194 -156l197 156zM1260 0h-140l-100 279h-639l-98 -279h-140l512 1434h93zM428 410h545l-273 764z" />
    <glyph glyph-name="acaron" unicode="&#x1ce;" horiz-adv-x="1163" 
d="M842 1370l-260 -207l-258 207l63 80l195 -156l196 156zM580 1061h2q201 0 319 -100q119 -104 119 -291v-670h-131v90q-116 -90 -307 -90h-47q-175 0 -279 72q-113 81 -113 227q0 144 113 225q104 72 279 72h354v74q0 125 -76 192q-77 68 -231 68h-2q-144 0 -222 -60
q-72 -54 -84 -161l-129 14q15 163 134 252q115 86 301 86zM889 465h-354q-135 0 -203 -47q-58 -43 -58 -119q0 -78 58 -121q68 -47 203 -47h47q154 0 231 68q76 67 76 192v74z" />
    <glyph glyph-name="Icaron" unicode="&#x1cf;" horiz-adv-x="417" 
d="M467 1743l-260 -207l-258 207l63 80l195 -156l196 156zM274 0h-131v1434h131v-1434z" />
    <glyph glyph-name="icaron" unicode="&#x1d0;" horiz-adv-x="417" 
d="M467 1370l-260 -207l-258 207l63 80l195 -156l196 156zM274 0h-131v1061h131v-1061z" />
    <glyph glyph-name="Ocaron" unicode="&#x1d1;" horiz-adv-x="1255" 
d="M887 1743l-260 -207l-258 207l63 80l195 -156l196 156zM627 1434q115 0 202 -37q93 -35 156 -107q127 -139 127 -387v-373q0 -247 -127 -389q-57 -65 -156 -106q-90 -35 -202 -35q-110 0 -203 35q-96 41 -156 106q-125 143 -125 389v373q0 247 125 387q66 72 156 107
q90 37 203 37zM627 1303q-170 0 -260 -101q-93 -104 -93 -299v-373q0 -197 93 -301q88 -98 260 -98q174 0 262 98q92 103 92 301v373q0 196 -92 299q-90 101 -262 101z" />
    <glyph glyph-name="ocaron" unicode="&#x1d2;" 
d="M840 1370l-260 -207l-258 207l63 80l195 -156l196 156zM582 1061q202 0 317 -100q119 -104 119 -291v-279q0 -187 -119 -291q-115 -100 -317 -100q-205 0 -320 100q-119 104 -119 291v279q0 187 119 291q115 100 320 100zM582 930q-157 0 -234 -68q-74 -65 -74 -192v-279
q0 -127 74 -192q77 -68 234 -68q154 0 231 68q74 65 74 192v279q0 127 -74 192q-77 68 -231 68z" />
    <glyph glyph-name="Ucaron" unicode="&#x1d3;" horiz-adv-x="1255" 
d="M887 1743l-260 -207l-258 207l63 80l195 -156l196 156zM1112 1434v-904q0 -247 -127 -389q-57 -65 -156 -106q-90 -35 -202 -35q-110 0 -203 35q-96 41 -156 106q-125 143 -125 389v904h131v-904q0 -197 93 -301q88 -98 260 -98q174 0 262 98q92 103 92 301v904h131z" />
    <glyph glyph-name="ucaron" unicode="&#x1d4;" horiz-adv-x="1163" 
d="M842 1370l-260 -207l-258 207l63 80l195 -156l196 156zM1020 0h-131v90q-116 -90 -307 -90q-202 0 -320 100q-119 104 -119 291v670h131v-670q0 -125 76 -192q77 -68 232 -68q154 0 231 68q76 67 76 192v670h131v-1061z" />
    <glyph glyph-name="Udieresismacron" unicode="&#x1d5;" horiz-adv-x="1255" 
d="M811 1741h-362v102h362v-102zM516 1679q31 0 51.5 -20t20.5 -51t-20.5 -51.5t-51.5 -20.5t-51.5 20.5t-20.5 51.5t20.5 51t51.5 20zM741 1679q31 0 51.5 -20t20.5 -51t-20.5 -51.5t-51.5 -20.5t-51 20.5t-20 51.5t20 51t51 20zM1112 1434v-904q0 -247 -127 -389
q-57 -65 -156 -106q-90 -35 -202 -35q-110 0 -203 35q-96 41 -156 106q-125 143 -125 389v904h131v-904q0 -197 93 -301q88 -98 260 -98q174 0 262 98q92 103 92 301v904h131z" />
    <glyph glyph-name="udieresismacron" unicode="&#x1d6;" horiz-adv-x="1163" 
d="M764 1368h-363v102h363v-102zM469 1307q31 0 51.5 -20.5t20.5 -51.5t-20.5 -51.5t-51.5 -20.5t-51.5 20.5t-20.5 51.5t20.5 51.5t51.5 20.5zM694 1307q31 0 51.5 -20.5t20.5 -51.5t-20.5 -51.5t-51.5 -20.5t-51 20.5t-20 51.5t20 51.5t51 20.5zM1020 0h-131v90
q-116 -90 -307 -90q-202 0 -320 100q-119 104 -119 291v670h131v-670q0 -125 76 -192q77 -68 232 -68q154 0 231 68q76 67 76 192v670h131v-1061z" />
    <glyph glyph-name="Udieresisacute" unicode="&#x1d7;" horiz-adv-x="1255" 
d="M834 1903l-365 -183l-45 92l362 181zM516 1679q31 0 51.5 -20t20.5 -51t-20.5 -51.5t-51.5 -20.5t-51.5 20.5t-20.5 51.5t20.5 51t51.5 20zM741 1679q31 0 51.5 -20t20.5 -51t-20.5 -51.5t-51.5 -20.5t-51 20.5t-20 51.5t20 51t51 20zM1112 1434v-904q0 -247 -127 -389
q-57 -65 -156 -106q-90 -35 -202 -35q-110 0 -203 35q-96 41 -156 106q-125 143 -125 389v904h131v-904q0 -197 93 -301q88 -98 260 -98q174 0 262 98q92 103 92 301v904h131z" />
    <glyph glyph-name="udieresisacute" unicode="&#x1d8;" horiz-adv-x="1163" 
d="M786 1530l-364 -182l-45 92l362 180zM469 1307q31 0 51.5 -20.5t20.5 -51.5t-20.5 -51.5t-51.5 -20.5t-51.5 20.5t-20.5 51.5t20.5 51.5t51.5 20.5zM694 1307q31 0 51.5 -20.5t20.5 -51.5t-20.5 -51.5t-51.5 -20.5t-51 20.5t-20 51.5t20 51.5t51 20.5zM1020 0h-131v90
q-116 -90 -307 -90q-202 0 -320 100q-119 104 -119 291v670h131v-670q0 -125 76 -192q77 -68 232 -68q154 0 231 68q76 67 76 192v670h131v-1061z" />
    <glyph glyph-name="Udieresiscaron" unicode="&#x1d9;" horiz-adv-x="1255" 
d="M887 1907l-260 -207l-258 207l63 80l195 -156l196 156zM516 1679q31 0 51.5 -20t20.5 -51t-20.5 -51.5t-51.5 -20.5t-51.5 20.5t-20.5 51.5t20.5 51t51.5 20zM741 1679q31 0 51.5 -20t20.5 -51t-20.5 -51.5t-51.5 -20.5t-51 20.5t-20 51.5t20 51t51 20zM1112 1434v-904
q0 -247 -127 -389q-57 -65 -156 -106q-90 -35 -202 -35q-110 0 -203 35q-96 41 -156 106q-125 143 -125 389v904h131v-904q0 -197 93 -301q88 -98 260 -98q174 0 262 98q92 103 92 301v904h131z" />
    <glyph glyph-name="udieresiscaron" unicode="&#x1da;" horiz-adv-x="1163" 
d="M842 1534l-260 -207l-258 207l63 80l195 -156l196 156zM471 1307q31 0 51.5 -20.5t20.5 -51.5t-20.5 -51.5t-51.5 -20.5t-51.5 20.5t-20.5 51.5t20.5 51.5t51.5 20.5zM696 1307q31 0 51.5 -20.5t20.5 -51.5t-20.5 -51.5t-51.5 -20.5t-51 20.5t-20 51.5t20 51.5t51 20.5z
M1020 0h-131v90q-116 -90 -307 -90q-202 0 -320 100q-119 104 -119 291v670h131v-670q0 -125 76 -192q77 -68 232 -68q154 0 231 68q76 67 76 192v670h131v-1061z" />
    <glyph glyph-name="Udieresisgrave" unicode="&#x1db;" horiz-adv-x="1255" 
d="M834 1812l-46 -92l-364 183l47 90zM516 1679q31 0 51.5 -20t20.5 -51t-20.5 -51.5t-51.5 -20.5t-51.5 20.5t-20.5 51.5t20.5 51t51.5 20zM741 1679q31 0 51.5 -20t20.5 -51t-20.5 -51.5t-51.5 -20.5t-51 20.5t-20 51.5t20 51t51 20zM1112 1434v-904q0 -247 -127 -389
q-57 -65 -156 -106q-90 -35 -202 -35q-110 0 -203 35q-96 41 -156 106q-125 143 -125 389v904h131v-904q0 -197 93 -301q88 -98 260 -98q174 0 262 98q92 103 92 301v904h131z" />
    <glyph glyph-name="udieresisgrave" unicode="&#x1dc;" horiz-adv-x="1163" 
d="M786 1440l-45 -92l-364 182l47 90zM469 1307q31 0 51.5 -20.5t20.5 -51.5t-20.5 -51.5t-51.5 -20.5t-51.5 20.5t-20.5 51.5t20.5 51.5t51.5 20.5zM694 1307q31 0 51.5 -20.5t20.5 -51.5t-20.5 -51.5t-51.5 -20.5t-51 20.5t-20 51.5t20 51.5t51 20.5zM1020 0h-131v90
q-116 -90 -307 -90q-202 0 -320 100q-119 104 -119 291v670h131v-670q0 -125 76 -192q77 -68 232 -68q154 0 231 68q76 67 76 192v670h131v-1061z" />
    <glyph glyph-name="Scommaaccent" unicode="&#x218;" horiz-adv-x="1255" 
d="M627 1434h24q175 0 294 -85t163 -243l-125 -35q-68 232 -332 232h-24q-179 0 -269 -72q-84 -66 -84 -189q0 -124 84 -190q92 -70 269 -70q225 0 350 -98q135 -104 135 -293t-135 -293q-125 -98 -350 -98h-23q-176 0 -294.5 84.5t-164.5 241.5l127 36q64 -231 332 -231h23
q178 0 270 70q84 66 84 190q0 123 -84 189q-89 71 -270 71q-225 0 -351 99q-133 105 -133 292q0 185 133 293q132 99 351 99zM487 -514l58 -84q113 78 168 203q57 129 57 293h-102q0 -144 -47 -250q-45 -98 -134 -162z" />
    <glyph glyph-name="scommaaccent" unicode="&#x219;" 
d="M582 1061h24q151 0 252 -55q109 -58 156 -172l-121 -50q-30 70 -96 107q-76 39 -191 39h-24q-165 0 -242 -51q-66 -40 -66 -115q0 -77 66 -117q77 -51 242 -51q194 0 309 -70q127 -80 127 -227q0 -149 -127 -229q-115 -70 -309 -70h-25q-153 0 -254 55q-109 58 -156 172
l123 49q26 -68 95 -106q76 -39 192 -39h25q162 0 239 51q66 40 66 117q0 75 -66 115q-77 51 -239 51q-194 0 -312 70q-127 80 -127 229q0 147 127 227q118 70 312 70zM440 -514l58 -84q113 78 168 203q57 129 57 293h-102q0 -142 -48 -250q-45 -99 -133 -162z" />
    <glyph glyph-name="uni021A" unicode="&#x21a;" horiz-adv-x="1169" 
d="M1026 1303h-375v-1303h-131v1303h-377v131h883v-131zM354 -514l58 -84q113 78 168 203q57 129 57 293h-102q0 -142 -48 -250q-45 -99 -133 -162z" />
    <glyph glyph-name="uni021B" unicode="&#x21b;" horiz-adv-x="890" 
d="M442 1061h306v-131h-306v-539q0 -127 74 -192q77 -68 232 -68v-131q-202 0 -320 100q-117 105 -117 291v539h-168v131h168v373h131v-373zM305 -514l57 -84q113 78 168 203q58 132 58 293h-103q0 -144 -47 -250q-45 -99 -133 -162z" />
    <glyph glyph-name="circumflex" unicode="&#x2c6;" horiz-adv-x="518" 
d="M258 1692l-195 -156l-63 80l258 207l260 -207l-63 -80z" />
    <glyph glyph-name="caron" unicode="&#x2c7;" horiz-adv-x="518" 
d="M518 1743l-260 -207l-258 207l63 80l195 -156l197 156z" />
    <glyph glyph-name="breve" unicode="&#x2d8;" horiz-adv-x="464" 
d="M362 1769h103q0 -110 -62 -172q-61 -61 -170 -61q-111 0 -172 61t-61 172h102q0 -69 33 -98q29 -33 98 -33q66 0 99 33q30 30 30 98z" />
    <glyph glyph-name="dotaccent" unicode="&#x2d9;" horiz-adv-x="143" 
d="M72 1679q31 0 51 -20t20 -51t-20 -51.5t-51 -20.5t-51.5 20.5t-20.5 51.5t20.5 51t51.5 20z" />
    <glyph glyph-name="ring" unicode="&#x2da;" horiz-adv-x="374" 
d="M186 1911q88 0 138.5 -50.5t50.5 -138.5q0 -86 -50.5 -136t-138.5 -50q-86 0 -136 50t-50 136q0 88 50 138.5t136 50.5zM186 1808q-46 0 -63 -20q-21 -21 -21 -66t21 -63q18 -21 63 -21t66 21q20 17 20 63t-20 66t-66 20z" />
    <glyph glyph-name="ogonek" unicode="&#x2db;" horiz-adv-x="233" 
d="M233 102v-102q-67 0 -98 -31q-33 -33 -33 -98q0 -69 33 -98q29 -33 98 -33v-102q-111 0 -172 61t-61 172q0 109 61 170t172 61z" />
    <glyph glyph-name="tilde" unicode="&#x2dc;" horiz-adv-x="557" 
d="M92 1724q55 22 116 8t105 -59q50 -50 111 -28q31 15 31 36h102q0 -67 -51.5 -106t-114.5 -39q-83 0 -149 66q-50 48 -109 26q-31 -12 -31 -37h-102q0 43 24.5 78.5t67.5 54.5z" />
    <glyph glyph-name="hungarumlaut" unicode="&#x2dd;" horiz-adv-x="563" 
d="M291 1718l-228 -182l-63 80l227 182zM563 1718l-227 -182l-64 80l228 182z" />
    <glyph glyph-name="hookabovecomb" unicode="&#x309;" horiz-adv-x="0" 
d="M0 1763v103q76 0 121 -45q43 -43 43 -121q0 -76 -43 -119q-45 -45 -121 -45v102q33 0 47 14.5t14 47.5q0 34 -14 48.5t-47 14.5z" />
    <glyph glyph-name="uni0312" unicode="&#x312;" horiz-adv-x="0" 
d="M283 1575l-58 84q-113 -78 -168 -203q-57 -129 -57 -293h102q0 142 48 250q45 99 133 162z" />
    <glyph glyph-name="uni031B" unicode="&#x31b;" horiz-adv-x="0" 
d="M324 1434v-181q0 -102 -45 -166q-49 -67 -144 -67h-135v102h135q44 0 62 27q24 35 24 104v181h103z" />
    <glyph glyph-name="dotbelowcomb" unicode="&#x323;" horiz-adv-x="0" 
d="M72 -102q31 0 51 -20.5t20 -51.5t-20 -51.5t-51 -20.5t-51.5 20.5t-20.5 51.5t20.5 51.5t51.5 20.5z" />
    <glyph glyph-name="uni0326" unicode="&#x326;" horiz-adv-x="0" 
d="M0 -514l57 -84q113 78 168 203q58 132 58 293h-103q0 -144 -47 -250q-45 -99 -133 -162z" />
    <glyph glyph-name="Wgrave" unicode="&#x1e80;" horiz-adv-x="2140" 
d="M1276 1628l-45 -92l-365 182l47 90zM1536 0h-94l-371 1153l-371 -1153h-96l-461 1434h138l370 -1153l371 1153h96l371 -1153l371 1153h137z" />
    <glyph glyph-name="wgrave" unicode="&#x1e81;" horiz-adv-x="1968" 
d="M1190 1255l-45 -92l-365 183l47 90zM1401 0h-90l-328 819l-326 -819h-90l-424 1061h142l327 -819l328 819h88l328 -819l327 819h142z" />
    <glyph glyph-name="Wacute" unicode="&#x1e82;" horiz-adv-x="2140" 
d="M1276 1718l-365 -182l-45 92l363 180zM1536 0h-94l-371 1153l-371 -1153h-96l-461 1434h138l370 -1153l371 1153h96l371 -1153l371 1153h137z" />
    <glyph glyph-name="wacute" unicode="&#x1e83;" horiz-adv-x="1968" 
d="M1190 1346l-365 -183l-45 92l363 181zM1401 0h-90l-328 819l-326 -819h-90l-424 1061h142l327 -819l328 819h88l328 -819l327 819h142z" />
    <glyph glyph-name="Wdieresis" unicode="&#x1e84;" horiz-adv-x="2140" 
d="M958 1679q31 0 51.5 -20t20.5 -51t-20.5 -51.5t-51.5 -20.5t-51 20.5t-20 51.5t20 51t51 20zM1184 1679q31 0 51 -20t20 -51t-20 -51.5t-51 -20.5t-51.5 20.5t-20.5 51.5t20.5 51t51.5 20zM1536 0h-94l-371 1153l-371 -1153h-96l-461 1434h138l370 -1153l371 1153h96
l371 -1153l371 1153h137z" />
    <glyph glyph-name="wdieresis" unicode="&#x1e85;" horiz-adv-x="1968" 
d="M872 1307q31 0 51.5 -20.5t20.5 -51.5t-20.5 -51.5t-51.5 -20.5t-51 20.5t-20 51.5t20 51.5t51 20.5zM1098 1307q31 0 51 -20.5t20 -51.5t-20 -51.5t-51 -20.5t-51.5 20.5t-20.5 51.5t20.5 51.5t51.5 20.5zM1401 0h-90l-328 819l-326 -819h-90l-424 1061h142l327 -819
l328 819h88l328 -819l327 819h142z" />
    <glyph glyph-name="Adotbelow" unicode="&#x1ea0;" horiz-adv-x="1402" 
d="M1260 0h-140l-100 279h-639l-98 -279h-140l512 1434h93zM428 410h545l-273 764zM702 -102q31 0 51.5 -20.5t20.5 -51.5t-20.5 -51.5t-51.5 -20.5t-51 20.5t-20 51.5t20 51.5t51 20.5z" />
    <glyph glyph-name="adotbelow" unicode="&#x1ea1;" horiz-adv-x="1163" 
d="M580 1061h2q201 0 319 -100q119 -104 119 -291v-670h-131v90q-116 -90 -307 -90h-47q-175 0 -279 72q-113 81 -113 227q0 144 113 225q104 72 279 72h354v74q0 125 -76 192q-77 68 -231 68h-2q-144 0 -222 -60q-72 -54 -84 -161l-129 14q15 163 134 252q115 86 301 86z
M889 465h-354q-135 0 -203 -47q-58 -43 -58 -119q0 -78 58 -121q68 -47 203 -47h47q154 0 231 68q76 67 76 192v74zM582 -102q31 0 51 -20.5t20 -51.5t-20 -51.5t-51 -20.5t-51.5 20.5t-20.5 51.5t20.5 51.5t51.5 20.5z" />
    <glyph glyph-name="Ahookabove" unicode="&#x1ea2;" horiz-adv-x="1402" 
d="M621 1763v103q75 0 120 -45q43 -43 43 -121q0 -76 -43 -119q-45 -45 -120 -45v102q33 0 47 14.5t14 47.5q0 34 -14 48.5t-47 14.5zM1260 0h-140l-100 279h-639l-98 -279h-140l512 1434h93zM428 410h545l-273 764z" />
    <glyph glyph-name="ahookabove" unicode="&#x1ea3;" horiz-adv-x="1163" 
d="M500 1391v102q76 0 121 -45q43 -43 43 -121q0 -76 -43 -119q-45 -45 -121 -45v103q33 0 47 14t14 47q0 34 -14 49t-47 15zM580 1061h2q201 0 319 -100q119 -104 119 -291v-670h-131v90q-116 -90 -307 -90h-47q-175 0 -279 72q-113 81 -113 227q0 144 113 225
q104 72 279 72h354v74q0 125 -76 192q-77 68 -231 68h-2q-144 0 -222 -60q-72 -54 -84 -161l-129 14q15 163 134 252q115 86 301 86zM889 465h-354q-135 0 -203 -47q-58 -43 -58 -119q0 -78 58 -121q68 -47 203 -47h47q154 0 231 68q76 67 76 192v74z" />
    <glyph glyph-name="Acircumflexacute" unicode="&#x1ea4;" horiz-adv-x="1402" 
d="M909 2005l-364 -182l-45 92l362 180zM700 1692l-194 -156l-64 80l258 207l261 -207l-64 -80zM1260 0h-140l-100 279h-639l-98 -279h-140l512 1434h93zM428 410h545l-273 764z" />
    <glyph glyph-name="acircumflexacute" unicode="&#x1ea5;" horiz-adv-x="1163" 
d="M791 1632l-365 -182l-45 92l362 180zM582 1319l-195 -156l-63 80l258 207l260 -207l-64 -80zM580 1061h2q201 0 319 -100q119 -104 119 -291v-670h-131v90q-116 -90 -307 -90h-47q-175 0 -279 72q-113 81 -113 227q0 144 113 225q104 72 279 72h354v74q0 125 -76 192
q-77 68 -231 68h-2q-144 0 -222 -60q-72 -54 -84 -161l-129 14q15 163 134 252q115 86 301 86zM889 465h-354q-135 0 -203 -47q-58 -43 -58 -119q0 -78 58 -121q68 -47 203 -47h47q154 0 231 68q76 67 76 192v74z" />
    <glyph glyph-name="Acircumflexgrave" unicode="&#x1ea6;" horiz-adv-x="1402" 
d="M907 1915l-45 -92l-364 182l47 90zM700 1692l-194 -156l-64 80l258 207l261 -207l-64 -80zM1260 0h-140l-100 279h-639l-98 -279h-140l512 1434h93zM428 410h545l-273 764z" />
    <glyph glyph-name="acircumflexgrave" unicode="&#x1ea7;" horiz-adv-x="1163" 
d="M788 1542l-45 -92l-364 182l47 90zM582 1319l-195 -156l-63 80l258 207l260 -207l-64 -80zM580 1061h2q201 0 319 -100q119 -104 119 -291v-670h-131v90q-116 -90 -307 -90h-47q-175 0 -279 72q-113 81 -113 227q0 144 113 225q104 72 279 72h354v74q0 125 -76 192
q-77 68 -231 68h-2q-144 0 -222 -60q-72 -54 -84 -161l-129 14q15 163 134 252q115 86 301 86zM889 465h-354q-135 0 -203 -47q-58 -43 -58 -119q0 -78 58 -121q68 -47 203 -47h47q154 0 231 68q76 67 76 192v74z" />
    <glyph glyph-name="Acircumflexhookabove" unicode="&#x1ea8;" horiz-adv-x="1402" 
d="M700 2091v102q76 0 121 -45q43 -43 43 -120q0 -76 -43 -119q-45 -45 -121 -45v102q33 0 47.5 14.5t14.5 47.5q0 34 -14 48.5t-48 14.5zM700 1692l-194 -156l-64 80l258 207l261 -207l-64 -80zM1260 0h-140l-100 279h-639l-98 -279h-140l512 1434h93zM428 410h545
l-273 764z" />
    <glyph glyph-name="acircumflexhookabove" unicode="&#x1ea9;" horiz-adv-x="1163" 
d="M582 1718v103q75 0 120 -45q43 -43 43 -121q0 -76 -43 -119q-45 -45 -120 -45v102q33 0 47 14.5t14 47.5q0 34 -14 48.5t-47 14.5zM582 1319l-195 -156l-63 80l258 207l260 -207l-64 -80zM580 1061h2q201 0 319 -100q119 -104 119 -291v-670h-131v90q-116 -90 -307 -90
h-47q-175 0 -279 72q-113 81 -113 227q0 144 113 225q104 72 279 72h354v74q0 125 -76 192q-77 68 -231 68h-2q-144 0 -222 -60q-72 -54 -84 -161l-129 14q15 163 134 252q115 86 301 86zM889 465h-354q-135 0 -203 -47q-58 -43 -58 -119q0 -78 58 -121q68 -47 203 -47h47
q154 0 231 68q76 67 76 192v74z" />
    <glyph glyph-name="Acircumflextilde" unicode="&#x1eaa;" horiz-adv-x="1402" 
d="M516 2032q55 22 116 8t105 -60q50 -50 111 -28q31 16 31 37h102q0 -67 -51.5 -106.5t-114.5 -39.5q-83 0 -149 66q-50 48 -109 26q-31 -12 -31 -37h-102q0 43 24.5 79t67.5 55zM700 1692l-194 -156l-64 80l258 207l261 -207l-64 -80zM1260 0h-140l-100 279h-639l-98 -279
h-140l512 1434h93zM428 410h545l-273 764z" />
    <glyph glyph-name="acircumflextilde" unicode="&#x1eab;" horiz-adv-x="1163" 
d="M395 1659q55 22 116 8t105 -59q51 -51 111 -29q31 15 31 37h102q0 -67 -51.5 -106.5t-114.5 -39.5q-83 0 -149 66q-51 48 -109 27q-30 -12 -30 -37h-103q0 43 24.5 78.5t67.5 54.5zM580 1319l-195 -156l-63 80l258 207l260 -207l-64 -80zM580 1061h2q201 0 319 -100
q119 -104 119 -291v-670h-131v90q-116 -90 -307 -90h-47q-175 0 -279 72q-113 81 -113 227q0 144 113 225q104 72 279 72h354v74q0 125 -76 192q-77 68 -231 68h-2q-144 0 -222 -60q-72 -54 -84 -161l-129 14q15 163 134 252q115 86 301 86zM889 465h-354q-135 0 -203 -47
q-58 -43 -58 -119q0 -78 58 -121q68 -47 203 -47h47q154 0 231 68q76 67 76 192v74z" />
    <glyph glyph-name="Acircumflexdotbelow" unicode="&#x1eac;" horiz-adv-x="1402" 
d="M700 1692l-194 -156l-64 80l258 207l261 -207l-64 -80zM1260 0h-140l-100 279h-639l-98 -279h-140l512 1434h93zM428 410h545l-273 764zM702 -102q31 0 51.5 -20.5t20.5 -51.5t-20.5 -51.5t-51.5 -20.5t-51 20.5t-20 51.5t20 51.5t51 20.5z" />
    <glyph glyph-name="acircumflexdotbelow" unicode="&#x1ead;" horiz-adv-x="1163" 
d="M582 1319l-195 -156l-63 80l258 207l260 -207l-64 -80zM580 1061h2q201 0 319 -100q119 -104 119 -291v-670h-131v90q-116 -90 -307 -90h-47q-175 0 -279 72q-113 81 -113 227q0 144 113 225q104 72 279 72h354v74q0 125 -76 192q-77 68 -231 68h-2q-144 0 -222 -60
q-72 -54 -84 -161l-129 14q15 163 134 252q115 86 301 86zM889 465h-354q-135 0 -203 -47q-58 -43 -58 -119q0 -78 58 -121q68 -47 203 -47h47q154 0 231 68q76 67 76 192v74zM582 -102q31 0 51 -20.5t20 -51.5t-20 -51.5t-51 -20.5t-51.5 20.5t-20.5 51.5t20.5 51.5
t51.5 20.5z" />
    <glyph glyph-name="Abreveacute" unicode="&#x1eae;" horiz-adv-x="1402" 
d="M1012 1952l-365 -183l-45 93l363 180zM831 1769h103q0 -110 -62 -172q-61 -61 -170 -61q-111 0 -172 61t-61 172h102q0 -69 33 -98q29 -33 98 -33q66 0 99 33q30 30 30 98zM1260 0h-140l-100 279h-639l-98 -279h-140l512 1434h93zM428 410h545l-273 764z" />
    <glyph glyph-name="abreveacute" unicode="&#x1eaf;" horiz-adv-x="1163" 
d="M893 1579l-365 -182l-45 92l363 180zM713 1397h102q0 -111 -61 -172q-62 -62 -170 -62q-110 0 -172 62t-62 172h103q0 -71 32 -99q28 -32 99 -32q66 0 98 32q31 31 31 99zM580 1061h2q201 0 319 -100q119 -104 119 -291v-670h-131v90q-116 -90 -307 -90h-47
q-175 0 -279 72q-113 81 -113 227q0 144 113 225q104 72 279 72h354v74q0 125 -76 192q-77 68 -231 68h-2q-144 0 -222 -60q-72 -54 -84 -161l-129 14q15 163 134 252q115 86 301 86zM889 465h-354q-135 0 -203 -47q-58 -43 -58 -119q0 -78 58 -121q68 -47 203 -47h47
q154 0 231 68q76 67 76 192v74z" />
    <glyph glyph-name="Abrevegrave" unicode="&#x1eb0;" horiz-adv-x="1402" 
d="M801 1862l-45 -93l-365 183l47 90zM831 1769h103q0 -110 -62 -172q-61 -61 -170 -61q-111 0 -172 61t-61 172h102q0 -69 33 -98q29 -33 98 -33q66 0 99 33q30 30 30 98zM1260 0h-140l-100 279h-639l-98 -279h-140l512 1434h93zM428 410h545l-273 764z" />
    <glyph glyph-name="abrevegrave" unicode="&#x1eb1;" horiz-adv-x="1163" 
d="M682 1489l-45 -92l-365 182l47 90zM713 1397h102q0 -111 -61 -172q-62 -62 -170 -62q-110 0 -172 62t-62 172h103q0 -71 32 -99q28 -32 99 -32q66 0 98 32q31 31 31 99zM580 1061h2q201 0 319 -100q119 -104 119 -291v-670h-131v90q-116 -90 -307 -90h-47q-175 0 -279 72
q-113 81 -113 227q0 144 113 225q104 72 279 72h354v74q0 125 -76 192q-77 68 -231 68h-2q-144 0 -222 -60q-72 -54 -84 -161l-129 14q15 163 134 252q115 86 301 86zM889 465h-354q-135 0 -203 -47q-58 -43 -58 -119q0 -78 58 -121q68 -47 203 -47h47q154 0 231 68
q76 67 76 192v74z" />
    <glyph glyph-name="Abrevehookabove" unicode="&#x1eb2;" horiz-adv-x="1402" 
d="M662 1997v102q75 0 120 -45q43 -43 43 -121q0 -75 -43 -118q-46 -46 -120 -46v103q33 0 47 14t14 47q0 34 -14 49t-47 15zM831 1769h103q0 -110 -62 -172q-61 -61 -170 -61q-111 0 -172 61t-61 172h102q0 -69 33 -98q29 -33 98 -33q66 0 99 33q30 30 30 98zM1260 0h-140
l-100 279h-639l-98 -279h-140l512 1434h93zM428 410h545l-273 764z" />
    <glyph glyph-name="abrevehookabove" unicode="&#x1eb3;" horiz-adv-x="1163" 
d="M543 1624v102q76 0 121 -45q43 -43 43 -120q0 -76 -43 -119q-45 -45 -121 -45v102q33 0 47 14.5t14 47.5q0 34 -14 48.5t-47 14.5zM713 1397h102q0 -111 -61 -172q-62 -62 -170 -62q-110 0 -172 62t-62 172h103q0 -71 32 -99q28 -32 99 -32q66 0 98 32q31 31 31 99z
M580 1061h2q201 0 319 -100q119 -104 119 -291v-670h-131v90q-116 -90 -307 -90h-47q-175 0 -279 72q-113 81 -113 227q0 144 113 225q104 72 279 72h354v74q0 125 -76 192q-77 68 -231 68h-2q-144 0 -222 -60q-72 -54 -84 -161l-129 14q15 163 134 252q115 86 301 86z
M889 465h-354q-135 0 -203 -47q-58 -43 -58 -119q0 -78 58 -121q68 -47 203 -47h47q154 0 231 68q76 67 76 192v74z" />
    <glyph glyph-name="Abrevetilde" unicode="&#x1eb4;" horiz-adv-x="1402" 
d="M514 1999q55 22 116 8t105 -59q51 -51 111 -29q31 15 31 37h102q0 -67 -51.5 -106.5t-114.5 -39.5q-83 0 -149 66q-51 48 -109 27q-31 -12 -31 -37h-102q0 43 24.5 78.5t67.5 54.5zM831 1769h103q0 -110 -62 -172q-61 -61 -170 -61q-111 0 -172 61t-61 172h102
q0 -69 33 -98q29 -33 98 -33q66 0 99 33q30 30 30 98zM1260 0h-140l-100 279h-639l-98 -279h-140l512 1434h93zM428 410h545l-273 764z" />
    <glyph glyph-name="abrevetilde" unicode="&#x1eb5;" horiz-adv-x="1163" 
d="M395 1626q55 22 116 8t105 -59q51 -51 111 -29q31 16 31 37h102q0 -67 -51.5 -106t-114.5 -39q-84 0 -149 65q-51 48 -109 27q-30 -12 -30 -37h-103q0 43 24.5 78.5t67.5 54.5zM713 1397h102q0 -111 -61 -172q-62 -62 -170 -62q-110 0 -172 62t-62 172h103q0 -71 32 -99
q28 -32 99 -32q66 0 98 32q31 31 31 99zM580 1061h2q201 0 319 -100q119 -104 119 -291v-670h-131v90q-116 -90 -307 -90h-47q-175 0 -279 72q-113 81 -113 227q0 144 113 225q104 72 279 72h354v74q0 125 -76 192q-77 68 -231 68h-2q-144 0 -222 -60q-72 -54 -84 -161
l-129 14q15 163 134 252q115 86 301 86zM889 465h-354q-135 0 -203 -47q-58 -43 -58 -119q0 -78 58 -121q68 -47 203 -47h47q154 0 231 68q76 67 76 192v74z" />
    <glyph glyph-name="Abrevedotbelow" unicode="&#x1eb6;" horiz-adv-x="1402" 
d="M831 1769h103q0 -110 -62 -172q-61 -61 -170 -61q-111 0 -172 61t-61 172h102q0 -69 33 -98q29 -33 98 -33q66 0 99 33q30 30 30 98zM1260 0h-140l-100 279h-639l-98 -279h-140l512 1434h93zM428 410h545l-273 764zM702 -102q31 0 51.5 -20.5t20.5 -51.5t-20.5 -51.5
t-51.5 -20.5t-51 20.5t-20 51.5t20 51.5t51 20.5z" />
    <glyph glyph-name="abrevedotbelow" unicode="&#x1eb7;" horiz-adv-x="1163" 
d="M713 1397h102q0 -111 -61 -172q-62 -62 -170 -62q-110 0 -172 62t-62 172h103q0 -71 32 -99q28 -32 99 -32q66 0 98 32q31 31 31 99zM580 1061h2q201 0 319 -100q119 -104 119 -291v-670h-131v90q-116 -90 -307 -90h-47q-175 0 -279 72q-113 81 -113 227q0 144 113 225
q104 72 279 72h354v74q0 125 -76 192q-77 68 -231 68h-2q-144 0 -222 -60q-72 -54 -84 -161l-129 14q15 163 134 252q115 86 301 86zM889 465h-354q-135 0 -203 -47q-58 -43 -58 -119q0 -78 58 -121q68 -47 203 -47h47q154 0 231 68q76 67 76 192v74zM582 -102
q31 0 51 -20.5t20 -51.5t-20 -51.5t-51 -20.5t-51.5 20.5t-20.5 51.5t20.5 51.5t51.5 20.5z" />
    <glyph glyph-name="Edotbelow" unicode="&#x1eb8;" horiz-adv-x="1142" 
d="M999 1303h-725v-521h725v-131h-725v-520h725v-131h-856v1434h856v-131zM571 -102q31 0 51.5 -20.5t20.5 -51.5t-20.5 -51.5t-51.5 -20.5t-51 20.5t-20 51.5t20 51.5t51 20.5z" />
    <glyph glyph-name="edotbelow" unicode="&#x1eb9;" 
d="M582 1061q202 0 317 -100q119 -104 119 -291v-205h-744v-74q0 -127 74 -192q77 -68 234 -68h24q115 0 191 39q67 37 96 106l121 -49q-47 -114 -156 -172q-101 -55 -252 -55h-24q-205 0 -320 100q-119 104 -119 291v279q0 187 119 291q115 100 320 100zM582 930
q-157 0 -234 -68q-74 -65 -74 -192v-74h613v74q0 127 -74 192q-77 68 -231 68zM582 -102q31 0 51 -20.5t20 -51.5t-20 -51.5t-51 -20.5t-51.5 20.5t-20.5 51.5t20.5 51.5t51.5 20.5z" />
    <glyph glyph-name="Ehookabove" unicode="&#x1eba;" horiz-adv-x="1142" 
d="M489 1763v103q76 0 121 -45q43 -43 43 -121q0 -76 -43 -119q-45 -45 -121 -45v102q33 0 47.5 14.5t14.5 47.5q0 34 -14 48.5t-48 14.5zM999 1303h-725v-521h725v-131h-725v-520h725v-131h-856v1434h856v-131z" />
    <glyph glyph-name="ehookabove" unicode="&#x1ebb;" 
d="M500 1391v102q76 0 121 -45q43 -43 43 -121q0 -76 -43 -119q-45 -45 -121 -45v103q33 0 47 14t14 47q0 34 -14 49t-47 15zM582 1061q202 0 317 -100q119 -104 119 -291v-205h-744v-74q0 -127 74 -192q77 -68 234 -68h24q115 0 191 39q67 37 96 106l121 -49
q-47 -114 -156 -172q-101 -55 -252 -55h-24q-205 0 -320 100q-119 104 -119 291v279q0 187 119 291q115 100 320 100zM582 930q-157 0 -234 -68q-74 -65 -74 -192v-74h613v74q0 127 -74 192q-77 68 -231 68z" />
    <glyph glyph-name="Etilde" unicode="&#x1ebc;" horiz-adv-x="1142" 
d="M385 1724q55 22 116 8t105 -59q50 -50 111 -28q31 15 31 36h102q0 -67 -51.5 -106t-114.5 -39q-83 0 -149 66q-50 48 -109 26q-31 -12 -31 -37h-102q0 43 24.5 78.5t67.5 54.5zM999 1303h-725v-521h725v-131h-725v-520h725v-131h-856v1434h856v-131z" />
    <glyph glyph-name="etilde" unicode="&#x1ebd;" 
d="M395 1352q55 22 116 8t105 -60q50 -50 111 -28q31 16 31 37h102q0 -67 -51.5 -106.5t-114.5 -39.5q-83 0 -149 66q-50 48 -109 26q-30 -12 -30 -36h-103q0 43 24.5 78.5t67.5 54.5zM582 1061q202 0 317 -100q119 -104 119 -291v-205h-744v-74q0 -127 74 -192
q77 -68 234 -68h24q115 0 191 39q67 37 96 106l121 -49q-47 -114 -156 -172q-101 -55 -252 -55h-24q-205 0 -320 100q-119 104 -119 291v279q0 187 119 291q115 100 320 100zM582 930q-157 0 -234 -68q-74 -65 -74 -192v-74h613v74q0 127 -74 192q-77 68 -231 68z" />
    <glyph glyph-name="Ecircumflexacute" unicode="&#x1ebe;" horiz-adv-x="1142" 
d="M780 2005l-364 -182l-45 92l362 180zM571 1692l-194 -156l-64 80l258 207l260 -207l-63 -80zM999 1303h-725v-521h725v-131h-725v-520h725v-131h-856v1434h856v-131z" />
    <glyph glyph-name="ecircumflexacute" unicode="&#x1ebf;" 
d="M788 1632l-364 -182l-45 92l362 180zM580 1319l-195 -156l-63 80l258 207l260 -207l-64 -80zM582 1061q202 0 317 -100q119 -104 119 -291v-205h-744v-74q0 -127 74 -192q77 -68 234 -68h24q115 0 191 39q67 37 96 106l121 -49q-47 -114 -156 -172q-101 -55 -252 -55h-24
q-205 0 -320 100q-119 104 -119 291v279q0 187 119 291q115 100 320 100zM582 930q-157 0 -234 -68q-74 -65 -74 -192v-74h613v74q0 127 -74 192q-77 68 -231 68z" />
    <glyph glyph-name="Ecircumflexgrave" unicode="&#x1ec0;" horiz-adv-x="1142" 
d="M778 1915l-45 -92l-364 182l47 90zM571 1692l-194 -156l-64 80l258 207l260 -207l-63 -80zM999 1303h-725v-521h725v-131h-725v-520h725v-131h-856v1434h856v-131z" />
    <glyph glyph-name="ecircumflexgrave" unicode="&#x1ec1;" 
d="M786 1542l-45 -92l-364 182l47 90zM580 1319l-195 -156l-63 80l258 207l260 -207l-64 -80zM582 1061q202 0 317 -100q119 -104 119 -291v-205h-744v-74q0 -127 74 -192q77 -68 234 -68h24q115 0 191 39q67 37 96 106l121 -49q-47 -114 -156 -172q-101 -55 -252 -55h-24
q-205 0 -320 100q-119 104 -119 291v279q0 187 119 291q115 100 320 100zM582 930q-157 0 -234 -68q-74 -65 -74 -192v-74h613v74q0 127 -74 192q-77 68 -231 68z" />
    <glyph glyph-name="Ecircumflexhookabove" unicode="&#x1ec2;" horiz-adv-x="1142" 
d="M571 2091v102q76 0 121 -45q43 -43 43 -120q0 -76 -43 -119q-45 -45 -121 -45v102q33 0 47.5 14.5t14.5 47.5q0 34 -14 48.5t-48 14.5zM571 1692l-194 -156l-64 80l258 207l260 -207l-63 -80zM999 1303h-725v-521h725v-131h-725v-520h725v-131h-856v1434h856v-131z" />
    <glyph glyph-name="ecircumflexhookabove" unicode="&#x1ec3;" 
d="M580 1718v103q75 0 120 -45q43 -43 43 -121q0 -76 -43 -119q-45 -45 -120 -45v102q33 0 47 14.5t14 47.5q0 34 -14 48.5t-47 14.5zM580 1319l-195 -156l-63 80l258 207l260 -207l-64 -80zM582 1061q202 0 317 -100q119 -104 119 -291v-205h-744v-74q0 -127 74 -192
q77 -68 234 -68h24q115 0 191 39q67 37 96 106l121 -49q-47 -114 -156 -172q-101 -55 -252 -55h-24q-205 0 -320 100q-119 104 -119 291v279q0 187 119 291q115 100 320 100zM582 930q-157 0 -234 -68q-74 -65 -74 -192v-74h613v74q0 127 -74 192q-77 68 -231 68z" />
    <glyph glyph-name="Ecircumflextilde" unicode="&#x1ec4;" horiz-adv-x="1142" 
d="M385 2032q55 22 116 8t105 -60q50 -50 111 -28q31 16 31 37h102q0 -67 -51.5 -106.5t-114.5 -39.5q-83 0 -149 66q-50 48 -109 26q-31 -12 -31 -37h-102q0 43 24.5 79t67.5 55zM569 1692l-194 -156l-64 80l258 207l260 -207l-63 -80zM999 1303h-725v-521h725v-131h-725
v-520h725v-131h-856v1434h856v-131z" />
    <glyph glyph-name="ecircumflextilde" unicode="&#x1ec5;" 
d="M395 1659q55 22 116 8t105 -59q51 -51 111 -29q31 15 31 37h102q0 -67 -51.5 -106.5t-114.5 -39.5q-83 0 -149 66q-51 48 -109 27q-30 -12 -30 -37h-103q0 43 24.5 78.5t67.5 54.5zM580 1319l-195 -156l-63 80l258 207l260 -207l-64 -80zM582 1061q202 0 317 -100
q119 -104 119 -291v-205h-744v-74q0 -127 74 -192q77 -68 234 -68h24q115 0 191 39q67 37 96 106l121 -49q-47 -114 -156 -172q-101 -55 -252 -55h-24q-205 0 -320 100q-119 104 -119 291v279q0 187 119 291q115 100 320 100zM582 930q-157 0 -234 -68q-74 -65 -74 -192v-74
h613v74q0 127 -74 192q-77 68 -231 68z" />
    <glyph glyph-name="Ecircumflexdotbelow" unicode="&#x1ec6;" horiz-adv-x="1142" 
d="M571 1692l-194 -156l-64 80l258 207l260 -207l-63 -80zM999 1303h-725v-521h725v-131h-725v-520h725v-131h-856v1434h856v-131zM571 -102q31 0 51.5 -20.5t20.5 -51.5t-20.5 -51.5t-51.5 -20.5t-51 20.5t-20 51.5t20 51.5t51 20.5z" />
    <glyph glyph-name="ecircumflexdotbelow" unicode="&#x1ec7;" 
d="M580 1319l-195 -156l-63 80l258 207l260 -207l-64 -80zM582 1061q202 0 317 -100q119 -104 119 -291v-205h-744v-74q0 -127 74 -192q77 -68 234 -68h24q115 0 191 39q67 37 96 106l121 -49q-47 -114 -156 -172q-101 -55 -252 -55h-24q-205 0 -320 100q-119 104 -119 291
v279q0 187 119 291q115 100 320 100zM582 930q-157 0 -234 -68q-74 -65 -74 -192v-74h613v74q0 127 -74 192q-77 68 -231 68zM582 -102q31 0 51 -20.5t20 -51.5t-20 -51.5t-51 -20.5t-51.5 20.5t-20.5 51.5t20.5 51.5t51.5 20.5z" />
    <glyph glyph-name="Ihookabove" unicode="&#x1ec8;" horiz-adv-x="417" 
d="M127 1763v103q76 0 121 -45q43 -43 43 -121q0 -76 -43 -119q-45 -45 -121 -45v102q33 0 47 14.5t14 47.5q0 34 -14 48.5t-47 14.5zM274 0h-131v1434h131v-1434z" />
    <glyph glyph-name="ihookabove" unicode="&#x1ec9;" horiz-adv-x="417" 
d="M127 1391v102q76 0 121 -45q43 -43 43 -121q0 -76 -43 -119q-45 -45 -121 -45v103q33 0 47 14t14 47q0 34 -14 49t-47 15zM274 0h-131v1061h131v-1061z" />
    <glyph glyph-name="Idotbelow" unicode="&#x1eca;" horiz-adv-x="417" 
d="M274 0h-131v1434h131v-1434zM209 -102q31 0 51.5 -20.5t20.5 -51.5t-20.5 -51.5t-51.5 -20.5t-51.5 20.5t-20.5 51.5t20.5 51.5t51.5 20.5z" />
    <glyph glyph-name="idotbelow" unicode="&#x1ecb;" horiz-adv-x="458" 
d="M229 1434q37 0 61.5 -24.5t24.5 -61.5t-24.5 -61.5t-61.5 -24.5t-61.5 24.5t-24.5 61.5t24.5 61.5t61.5 24.5zM295 0h-131v1061h131v-1061zM229 -102q31 0 51.5 -20.5t20.5 -51.5t-20.5 -51.5t-51.5 -20.5t-51 20.5t-20 51.5t20 51.5t51 20.5z" />
    <glyph glyph-name="Odotbelow" unicode="&#x1ecc;" horiz-adv-x="1255" 
d="M627 1434q115 0 202 -37q93 -35 156 -107q127 -139 127 -387v-373q0 -247 -127 -389q-57 -65 -156 -106q-90 -35 -202 -35q-110 0 -203 35q-96 41 -156 106q-125 143 -125 389v373q0 247 125 387q66 72 156 107q90 37 203 37zM627 1303q-170 0 -260 -101
q-93 -104 -93 -299v-373q0 -197 93 -301q88 -98 260 -98q174 0 262 98q92 103 92 301v373q0 196 -92 299q-90 101 -262 101zM629 -102q31 0 51 -20.5t20 -51.5t-20 -51.5t-51 -20.5t-51.5 20.5t-20.5 51.5t20.5 51.5t51.5 20.5z" />
    <glyph glyph-name="odotbelow" unicode="&#x1ecd;" 
d="M582 1061q202 0 317 -100q119 -104 119 -291v-279q0 -187 -119 -291q-115 -100 -317 -100q-205 0 -320 100q-119 104 -119 291v279q0 187 119 291q115 100 320 100zM582 930q-157 0 -234 -68q-74 -65 -74 -192v-279q0 -127 74 -192q77 -68 234 -68q154 0 231 68
q74 65 74 192v279q0 127 -74 192q-77 68 -231 68zM582 -102q31 0 51 -20.5t20 -51.5t-20 -51.5t-51 -20.5t-51.5 20.5t-20.5 51.5t20.5 51.5t51.5 20.5z" />
    <glyph glyph-name="Ohookabove" unicode="&#x1ece;" horiz-adv-x="1255" 
d="M547 1763v103q76 0 121 -45q43 -43 43 -121q0 -76 -43 -119q-45 -45 -121 -45v102q33 0 47 14.5t14 47.5q0 34 -14 48.5t-47 14.5zM627 1434q115 0 202 -37q93 -35 156 -107q127 -139 127 -387v-373q0 -247 -127 -389q-57 -65 -156 -106q-90 -35 -202 -35q-110 0 -203 35
q-96 41 -156 106q-125 143 -125 389v373q0 247 125 387q66 72 156 107q90 37 203 37zM627 1303q-170 0 -260 -101q-93 -104 -93 -299v-373q0 -197 93 -301q88 -98 260 -98q174 0 262 98q92 103 92 301v373q0 196 -92 299q-90 101 -262 101z" />
    <glyph glyph-name="ohookabove" unicode="&#x1ecf;" 
d="M500 1391v102q76 0 121 -45q43 -43 43 -121q0 -76 -43 -119q-45 -45 -121 -45v103q33 0 47 14t14 47q0 34 -14 49t-47 15zM582 1061q202 0 317 -100q119 -104 119 -291v-279q0 -187 -119 -291q-115 -100 -317 -100q-205 0 -320 100q-119 104 -119 291v279q0 187 119 291
q115 100 320 100zM582 930q-157 0 -234 -68q-74 -65 -74 -192v-279q0 -127 74 -192q77 -68 234 -68q154 0 231 68q74 65 74 192v279q0 127 -74 192q-77 68 -231 68z" />
    <glyph glyph-name="Ocircumflexacute" unicode="&#x1ed0;" horiz-adv-x="1255" 
d="M836 2005l-365 -182l-45 92l362 180zM627 1692l-195 -156l-63 80l258 207l260 -207l-64 -80zM627 1434q115 0 202 -37q93 -35 156 -107q127 -139 127 -387v-373q0 -247 -127 -389q-57 -65 -156 -106q-90 -35 -202 -35q-110 0 -203 35q-96 41 -156 106q-125 143 -125 389
v373q0 247 125 387q66 72 156 107q90 37 203 37zM627 1303q-170 0 -260 -101q-93 -104 -93 -299v-373q0 -197 93 -301q88 -98 260 -98q174 0 262 98q92 103 92 301v373q0 196 -92 299q-90 101 -262 101z" />
    <glyph glyph-name="ocircumflexacute" unicode="&#x1ed1;" 
d="M788 1632l-364 -182l-45 92l362 180zM580 1319l-195 -156l-63 80l258 207l260 -207l-64 -80zM582 1061q202 0 317 -100q119 -104 119 -291v-279q0 -187 -119 -291q-115 -100 -317 -100q-205 0 -320 100q-119 104 -119 291v279q0 187 119 291q115 100 320 100zM582 930
q-157 0 -234 -68q-74 -65 -74 -192v-279q0 -127 74 -192q77 -68 234 -68q154 0 231 68q74 65 74 192v279q0 127 -74 192q-77 68 -231 68z" />
    <glyph glyph-name="Ocircumflexgrave" unicode="&#x1ed2;" horiz-adv-x="1255" 
d="M834 1915l-46 -92l-364 182l47 90zM627 1692l-195 -156l-63 80l258 207l260 -207l-64 -80zM627 1434q115 0 202 -37q93 -35 156 -107q127 -139 127 -387v-373q0 -247 -127 -389q-57 -65 -156 -106q-90 -35 -202 -35q-110 0 -203 35q-96 41 -156 106q-125 143 -125 389
v373q0 247 125 387q66 72 156 107q90 37 203 37zM627 1303q-170 0 -260 -101q-93 -104 -93 -299v-373q0 -197 93 -301q88 -98 260 -98q174 0 262 98q92 103 92 301v373q0 196 -92 299q-90 101 -262 101z" />
    <glyph glyph-name="ocircumflexgrave" unicode="&#x1ed3;" 
d="M786 1542l-45 -92l-364 182l47 90zM580 1319l-195 -156l-63 80l258 207l260 -207l-64 -80zM582 1061q202 0 317 -100q119 -104 119 -291v-279q0 -187 -119 -291q-115 -100 -317 -100q-205 0 -320 100q-119 104 -119 291v279q0 187 119 291q115 100 320 100zM582 930
q-157 0 -234 -68q-74 -65 -74 -192v-279q0 -127 74 -192q77 -68 234 -68q154 0 231 68q74 65 74 192v279q0 127 -74 192q-77 68 -231 68z" />
    <glyph glyph-name="Ocircumflexhookabove" unicode="&#x1ed4;" horiz-adv-x="1255" 
d="M627 2091v102q76 0 121 -45q43 -43 43 -120q0 -76 -43 -119q-45 -45 -121 -45v102q33 0 47 14.5t14 47.5q0 34 -14 48.5t-47 14.5zM627 1692l-195 -156l-63 80l258 207l260 -207l-64 -80zM627 1434q115 0 202 -37q93 -35 156 -107q127 -139 127 -387v-373
q0 -247 -127 -389q-57 -65 -156 -106q-90 -35 -202 -35q-110 0 -203 35q-96 41 -156 106q-125 143 -125 389v373q0 247 125 387q66 72 156 107q90 37 203 37zM627 1303q-170 0 -260 -101q-93 -104 -93 -299v-373q0 -197 93 -301q88 -98 260 -98q174 0 262 98q92 103 92 301
v373q0 196 -92 299q-90 101 -262 101z" />
    <glyph glyph-name="ocircumflexhookabove" unicode="&#x1ed5;" 
d="M580 1718v103q75 0 120 -45q43 -43 43 -121q0 -76 -43 -119q-45 -45 -120 -45v102q33 0 47 14.5t14 47.5q0 34 -14 48.5t-47 14.5zM580 1319l-195 -156l-63 80l258 207l260 -207l-64 -80zM582 1061q202 0 317 -100q119 -104 119 -291v-279q0 -187 -119 -291
q-115 -100 -317 -100q-205 0 -320 100q-119 104 -119 291v279q0 187 119 291q115 100 320 100zM582 930q-157 0 -234 -68q-74 -65 -74 -192v-279q0 -127 74 -192q77 -68 234 -68q154 0 231 68q74 65 74 192v279q0 127 -74 192q-77 68 -231 68z" />
    <glyph glyph-name="Ocircumflextilde" unicode="&#x1ed6;" horiz-adv-x="1255" 
d="M442 2032q55 22 116.5 8t105.5 -60q50 -50 110 -28q31 16 31 37h102q0 -67 -51.5 -106.5t-114.5 -39.5q-83 0 -149 66q-50 48 -109 26q-30 -12 -30 -37h-103q0 43 24.5 79t67.5 55zM627 1692l-195 -156l-63 80l258 207l260 -207l-64 -80zM627 1434q115 0 202 -37
q93 -35 156 -107q127 -139 127 -387v-373q0 -247 -127 -389q-57 -65 -156 -106q-90 -35 -202 -35q-110 0 -203 35q-96 41 -156 106q-125 143 -125 389v373q0 247 125 387q66 72 156 107q90 37 203 37zM627 1303q-170 0 -260 -101q-93 -104 -93 -299v-373q0 -197 93 -301
q88 -98 260 -98q174 0 262 98q92 103 92 301v373q0 196 -92 299q-90 101 -262 101z" />
    <glyph glyph-name="ocircumflextilde" unicode="&#x1ed7;" 
d="M395 1659q55 22 116 8t105 -59q51 -51 111 -29q31 15 31 37h102q0 -67 -51.5 -106.5t-114.5 -39.5q-83 0 -149 66q-51 48 -109 27q-30 -12 -30 -37h-103q0 43 24.5 78.5t67.5 54.5zM580 1319l-195 -156l-63 80l258 207l260 -207l-64 -80zM582 1061q202 0 317 -100
q119 -104 119 -291v-279q0 -187 -119 -291q-115 -100 -317 -100q-205 0 -320 100q-119 104 -119 291v279q0 187 119 291q115 100 320 100zM582 930q-157 0 -234 -68q-74 -65 -74 -192v-279q0 -127 74 -192q77 -68 234 -68q154 0 231 68q74 65 74 192v279q0 127 -74 192
q-77 68 -231 68z" />
    <glyph glyph-name="Ocircumflexdotbelow" unicode="&#x1ed8;" horiz-adv-x="1255" 
d="M627 1692l-195 -156l-63 80l258 207l260 -207l-64 -80zM627 1434q115 0 202 -37q93 -35 156 -107q127 -139 127 -387v-373q0 -247 -127 -389q-57 -65 -156 -106q-90 -35 -202 -35q-110 0 -203 35q-96 41 -156 106q-125 143 -125 389v373q0 247 125 387q66 72 156 107
q90 37 203 37zM627 1303q-170 0 -260 -101q-93 -104 -93 -299v-373q0 -197 93 -301q88 -98 260 -98q174 0 262 98q92 103 92 301v373q0 196 -92 299q-90 101 -262 101zM629 -102q31 0 51 -20.5t20 -51.5t-20 -51.5t-51 -20.5t-51.5 20.5t-20.5 51.5t20.5 51.5t51.5 20.5z
" />
    <glyph glyph-name="ocircumflexdotbelow" unicode="&#x1ed9;" 
d="M580 1319l-195 -156l-63 80l258 207l260 -207l-64 -80zM582 1061q202 0 317 -100q119 -104 119 -291v-279q0 -187 -119 -291q-115 -100 -317 -100q-205 0 -320 100q-119 104 -119 291v279q0 187 119 291q115 100 320 100zM582 930q-157 0 -234 -68q-74 -65 -74 -192v-279
q0 -127 74 -192q77 -68 234 -68q154 0 231 68q74 65 74 192v279q0 127 -74 192q-77 68 -231 68zM582 -102q31 0 51 -20.5t20 -51.5t-20 -51.5t-51 -20.5t-51.5 20.5t-20.5 51.5t20.5 51.5t51.5 20.5z" />
    <glyph glyph-name="Ohornacute" unicode="&#x1eda;" horiz-adv-x="1386" 
d="M469 1536l-45 92l362 180l48 -90zM1305 1434v-181q0 -102 -45 -166q-49 -67 -144 -67h-12q8 -49 8 -117v-373q0 -247 -127 -389q-57 -65 -156 -106q-90 -35 -202 -35q-110 0 -203 35q-96 41 -156 106q-125 143 -125 389v373q0 247 125 387q66 72 156 107q90 37 203 37
q115 0 202 -37q93 -35 156 -107q60 -66 96 -168h35q44 0 62 27q24 35 24 104v181h103zM981 530v373q0 196 -92 299q-90 101 -262 101q-170 0 -260 -101q-93 -104 -93 -299v-373q0 -197 93 -301q88 -98 260 -98q174 0 262 98q92 103 92 301z" />
    <glyph glyph-name="ohornacute" unicode="&#x1edb;" horiz-adv-x="1271" 
d="M422 1163l-45 92l362 181l47 -90zM1210 1061v-180q0 -102 -45 -166q-50 -68 -143 -68h-4v-256q0 -187 -119 -291q-115 -100 -317 -100q-205 0 -320 100q-119 104 -119 291v279q0 187 119 291q115 100 320 100q202 0 317 -100q92 -83 113 -211h10q44 0 61 26q25 36 25 105
v180h102zM887 391v279q0 127 -74 192q-77 68 -231 68q-157 0 -234 -68q-74 -65 -74 -192v-279q0 -127 74 -192q77 -68 234 -68q154 0 231 68q74 65 74 192z" />
    <glyph glyph-name="Ohorngrave" unicode="&#x1edc;" horiz-adv-x="1386" 
d="M788 1536l-364 182l47 90l363 -180zM1305 1434v-181q0 -102 -45 -166q-49 -67 -144 -67h-12q8 -49 8 -117v-373q0 -247 -127 -389q-57 -65 -156 -106q-90 -35 -202 -35q-110 0 -203 35q-96 41 -156 106q-125 143 -125 389v373q0 247 125 387q66 72 156 107q90 37 203 37
q115 0 202 -37q93 -35 156 -107q60 -66 96 -168h35q44 0 62 27q24 35 24 104v181h103zM981 530v373q0 196 -92 299q-90 101 -262 101q-170 0 -260 -101q-93 -104 -93 -299v-373q0 -197 93 -301q88 -98 260 -98q174 0 262 98q92 103 92 301z" />
    <glyph glyph-name="ohorngrave" unicode="&#x1edd;" horiz-adv-x="1271" 
d="M741 1163l-364 183l47 90l362 -181zM1210 1061v-180q0 -102 -45 -166q-50 -68 -143 -68h-4v-256q0 -187 -119 -291q-115 -100 -317 -100q-205 0 -320 100q-119 104 -119 291v279q0 187 119 291q115 100 320 100q202 0 317 -100q92 -83 113 -211h10q44 0 61 26
q25 36 25 105v180h102zM887 391v279q0 127 -74 192q-77 68 -231 68q-157 0 -234 -68q-74 -65 -74 -192v-279q0 -127 74 -192q77 -68 234 -68q154 0 231 68q74 65 74 192z" />
    <glyph glyph-name="Ohornhookabove" unicode="&#x1ede;" horiz-adv-x="1386" 
d="M711 1700q0 -76 -43 -119q-45 -45 -121 -45v102q33 0 47 14.5t14 47.5q0 34 -14 48.5t-47 14.5v103q76 0 121 -45q43 -43 43 -121zM1305 1434v-181q0 -102 -45 -166q-49 -67 -144 -67h-12q8 -49 8 -117v-373q0 -247 -127 -389q-57 -65 -156 -106q-90 -35 -202 -35
q-110 0 -203 35q-96 41 -156 106q-125 143 -125 389v373q0 247 125 387q66 72 156 107q90 37 203 37q115 0 202 -37q93 -35 156 -107q60 -66 96 -168h35q44 0 62 27q24 35 24 104v181h103zM981 530v373q0 196 -92 299q-90 101 -262 101q-170 0 -260 -101q-93 -104 -93 -299
v-373q0 -197 93 -301q88 -98 260 -98q174 0 262 98q92 103 92 301z" />
    <glyph glyph-name="ohornhookabove" unicode="&#x1edf;" horiz-adv-x="1271" 
d="M664 1327q0 -76 -43 -119q-45 -45 -121 -45v103q33 0 47 14t14 47q0 34 -14 49t-47 15v102q76 0 121 -45q43 -43 43 -121zM1210 1061v-180q0 -102 -45 -166q-50 -68 -143 -68h-4v-256q0 -187 -119 -291q-115 -100 -317 -100q-205 0 -320 100q-119 104 -119 291v279
q0 187 119 291q115 100 320 100q202 0 317 -100q92 -83 113 -211h10q44 0 61 26q25 36 25 105v180h102zM887 391v279q0 127 -74 192q-77 68 -231 68q-157 0 -234 -68q-74 -65 -74 -192v-279q0 -127 74 -192q77 -68 234 -68q154 0 231 68q74 65 74 192z" />
    <glyph glyph-name="Ohorntilde" unicode="&#x1ee0;" horiz-adv-x="1386" 
d="M483 1628q-30 -12 -30 -37h-103q0 43 24.5 78.5t67.5 54.5q55 22 116.5 8t105.5 -59q50 -50 110 -28q31 15 31 36h102q0 -67 -51.5 -106t-114.5 -39q-83 0 -149 66q-50 48 -109 26zM1305 1434v-181q0 -102 -45 -166q-49 -67 -144 -67h-12q8 -49 8 -117v-373
q0 -247 -127 -389q-57 -65 -156 -106q-90 -35 -202 -35q-110 0 -203 35q-96 41 -156 106q-125 143 -125 389v373q0 247 125 387q66 72 156 107q90 37 203 37q115 0 202 -37q93 -35 156 -107q60 -66 96 -168h35q44 0 62 27q24 35 24 104v181h103zM981 530v373q0 196 -92 299
q-90 101 -262 101q-170 0 -260 -101q-93 -104 -93 -299v-373q0 -197 93 -301q88 -98 260 -98q174 0 262 98q92 103 92 301z" />
    <glyph glyph-name="ohorntilde" unicode="&#x1ee1;" horiz-adv-x="1271" 
d="M436 1255q-30 -12 -30 -36h-103q0 43 24.5 78.5t67.5 54.5q55 22 116 8t105 -60q50 -50 111 -28q31 16 31 37h102q0 -67 -51.5 -106.5t-114.5 -39.5q-83 0 -149 66q-50 48 -109 26zM1210 1061v-180q0 -102 -45 -166q-50 -68 -143 -68h-4v-256q0 -187 -119 -291
q-115 -100 -317 -100q-205 0 -320 100q-119 104 -119 291v279q0 187 119 291q115 100 320 100q202 0 317 -100q92 -83 113 -211h10q44 0 61 26q25 36 25 105v180h102zM887 391v279q0 127 -74 192q-77 68 -231 68q-157 0 -234 -68q-74 -65 -74 -192v-279q0 -127 74 -192
q77 -68 234 -68q154 0 231 68q74 65 74 192z" />
    <glyph glyph-name="Ohorndotbelow" unicode="&#x1ee2;" horiz-adv-x="1386" 
d="M1305 1434v-181q0 -102 -45 -166q-49 -67 -144 -67h-12q8 -49 8 -117v-373q0 -247 -127 -389q-57 -65 -156 -106q-90 -35 -202 -35q-110 0 -203 35q-96 41 -156 106q-125 143 -125 389v373q0 247 125 387q66 72 156 107q90 37 203 37q115 0 202 -37q93 -35 156 -107
q60 -66 96 -168h35q44 0 62 27q24 35 24 104v181h103zM981 530v373q0 196 -92 299q-90 101 -262 101q-170 0 -260 -101q-93 -104 -93 -299v-373q0 -197 93 -301q88 -98 260 -98q174 0 262 98q92 103 92 301zM629 -102q31 0 51 -20.5t20 -51.5t-20 -51.5t-51 -20.5
t-51.5 20.5t-20.5 51.5t20.5 51.5t51.5 20.5z" />
    <glyph glyph-name="ohorndotbelow" unicode="&#x1ee3;" horiz-adv-x="1271" 
d="M1210 1061v-180q0 -102 -45 -166q-50 -68 -143 -68h-4v-256q0 -187 -119 -291q-115 -100 -317 -100q-205 0 -320 100q-119 104 -119 291v279q0 187 119 291q115 100 320 100q202 0 317 -100q92 -83 113 -211h10q44 0 61 26q25 36 25 105v180h102zM887 391v279
q0 127 -74 192q-77 68 -231 68q-157 0 -234 -68q-74 -65 -74 -192v-279q0 -127 74 -192q77 -68 234 -68q154 0 231 68q74 65 74 192zM582 -102q31 0 51 -20.5t20 -51.5t-20 -51.5t-51 -20.5t-51.5 20.5t-20.5 51.5t20.5 51.5t51.5 20.5z" />
    <glyph glyph-name="Udotbelow" unicode="&#x1ee4;" horiz-adv-x="1255" 
d="M1112 1434v-904q0 -247 -127 -389q-57 -65 -156 -106q-90 -35 -202 -35q-110 0 -203 35q-96 41 -156 106q-125 143 -125 389v904h131v-904q0 -197 93 -301q88 -98 260 -98q174 0 262 98q92 103 92 301v904h131zM629 -102q31 0 51 -20.5t20 -51.5t-20 -51.5t-51 -20.5
t-51.5 20.5t-20.5 51.5t20.5 51.5t51.5 20.5z" />
    <glyph glyph-name="udotbelow" unicode="&#x1ee5;" horiz-adv-x="1163" 
d="M1020 0h-131v90q-116 -90 -307 -90q-202 0 -320 100q-119 104 -119 291v670h131v-670q0 -125 76 -192q77 -68 232 -68q154 0 231 68q76 67 76 192v670h131v-1061zM582 -102q31 0 51 -20.5t20 -51.5t-20 -51.5t-51 -20.5t-51.5 20.5t-20.5 51.5t20.5 51.5t51.5 20.5z" />
    <glyph glyph-name="Uhookabove" unicode="&#x1ee6;" horiz-adv-x="1255" 
d="M547 1763v103q76 0 121 -45q43 -43 43 -121q0 -76 -43 -119q-45 -45 -121 -45v102q33 0 47 14.5t14 47.5q0 34 -14 48.5t-47 14.5zM1112 1434v-904q0 -247 -127 -389q-57 -65 -156 -106q-90 -35 -202 -35q-110 0 -203 35q-96 41 -156 106q-125 143 -125 389v904h131v-904
q0 -197 93 -301q88 -98 260 -98q174 0 262 98q92 103 92 301v904h131z" />
    <glyph glyph-name="uhookabove" unicode="&#x1ee7;" horiz-adv-x="1163" 
d="M500 1391v102q76 0 121 -45q43 -43 43 -121q0 -76 -43 -119q-45 -45 -121 -45v103q33 0 47 14t14 47q0 34 -14 49t-47 15zM1020 0h-131v90q-116 -90 -307 -90q-202 0 -320 100q-119 104 -119 291v670h131v-670q0 -125 76 -192q77 -68 232 -68q154 0 231 68q76 67 76 192
v670h131v-1061z" />
    <glyph glyph-name="Uhornacute" unicode="&#x1ee8;" horiz-adv-x="1390" 
d="M469 1536l-45 92l362 180l48 -90zM1370 1434v-181q0 -102 -45 -166q-49 -67 -143 -67h-70v-490q0 -247 -127 -389q-57 -65 -156 -106q-90 -35 -202 -35q-110 0 -203 35q-96 41 -156 106q-125 143 -125 389v904h131v-904q0 -197 93 -301q88 -98 260 -98q174 0 262 98
q92 103 92 301v904h131v-312h70q43 0 61 27q25 36 25 104v181h102z" />
    <glyph glyph-name="uhornacute" unicode="&#x1ee9;" horiz-adv-x="1298" 
d="M422 1163l-45 92l362 181l47 -90zM1278 1061v-180q0 -102 -45 -166q-50 -68 -143 -68h-70v-647h-131v90q-116 -90 -307 -90q-202 0 -320 100q-119 104 -119 291v670h131v-670q0 -125 76 -192q77 -68 232 -68q154 0 231 68q76 67 76 192v670h131v-311h70q44 0 61 26
q25 36 25 105v180h102z" />
    <glyph glyph-name="Uhorngrave" unicode="&#x1eea;" horiz-adv-x="1390" 
d="M788 1536l-364 182l47 90l363 -180zM1370 1434v-181q0 -102 -45 -166q-49 -67 -143 -67h-70v-490q0 -247 -127 -389q-57 -65 -156 -106q-90 -35 -202 -35q-110 0 -203 35q-96 41 -156 106q-125 143 -125 389v904h131v-904q0 -197 93 -301q88 -98 260 -98q174 0 262 98
q92 103 92 301v904h131v-312h70q43 0 61 27q25 36 25 104v181h102z" />
    <glyph glyph-name="uhorngrave" unicode="&#x1eeb;" horiz-adv-x="1298" 
d="M741 1163l-364 183l47 90l362 -181zM1278 1061v-180q0 -102 -45 -166q-50 -68 -143 -68h-70v-647h-131v90q-116 -90 -307 -90q-202 0 -320 100q-119 104 -119 291v670h131v-670q0 -125 76 -192q77 -68 232 -68q154 0 231 68q76 67 76 192v670h131v-311h70q44 0 61 26
q25 36 25 105v180h102z" />
    <glyph glyph-name="Uhornhookabove" unicode="&#x1eec;" horiz-adv-x="1390" 
d="M711 1700q0 -76 -43 -119q-45 -45 -121 -45v102q33 0 47 14.5t14 47.5q0 34 -14 48.5t-47 14.5v103q76 0 121 -45q43 -43 43 -121zM1370 1434v-181q0 -102 -45 -166q-49 -67 -143 -67h-70v-490q0 -247 -127 -389q-57 -65 -156 -106q-90 -35 -202 -35q-110 0 -203 35
q-96 41 -156 106q-125 143 -125 389v904h131v-904q0 -197 93 -301q88 -98 260 -98q174 0 262 98q92 103 92 301v904h131v-312h70q43 0 61 27q25 36 25 104v181h102z" />
    <glyph glyph-name="uhornhookabove" unicode="&#x1eed;" horiz-adv-x="1298" 
d="M664 1327q0 -76 -43 -119q-45 -45 -121 -45v103q33 0 47 14t14 47q0 34 -14 49t-47 15v102q76 0 121 -45q43 -43 43 -121zM1278 1061v-180q0 -102 -45 -166q-50 -68 -143 -68h-70v-647h-131v90q-116 -90 -307 -90q-202 0 -320 100q-119 104 -119 291v670h131v-670
q0 -125 76 -192q77 -68 232 -68q154 0 231 68q76 67 76 192v670h131v-311h70q44 0 61 26q25 36 25 105v180h102z" />
    <glyph glyph-name="Uhorntilde" unicode="&#x1eee;" horiz-adv-x="1390" 
d="M483 1628q-30 -12 -30 -37h-103q0 43 24.5 78.5t67.5 54.5q55 22 116.5 8t105.5 -59q50 -50 110 -28q31 15 31 36h102q0 -67 -51.5 -106t-114.5 -39q-83 0 -149 66q-50 48 -109 26zM1370 1434v-181q0 -102 -45 -166q-49 -67 -143 -67h-70v-490q0 -247 -127 -389
q-57 -65 -156 -106q-90 -35 -202 -35q-110 0 -203 35q-96 41 -156 106q-125 143 -125 389v904h131v-904q0 -197 93 -301q88 -98 260 -98q174 0 262 98q92 103 92 301v904h131v-312h70q43 0 61 27q25 36 25 104v181h102z" />
    <glyph glyph-name="uhorntilde" unicode="&#x1eef;" horiz-adv-x="1298" 
d="M436 1255q-30 -12 -30 -36h-103q0 43 24.5 78.5t67.5 54.5q55 22 116 8t105 -60q50 -50 111 -28q31 16 31 37h102q0 -67 -51.5 -106.5t-114.5 -39.5q-83 0 -149 66q-50 48 -109 26zM1278 1061v-180q0 -102 -45 -166q-50 -68 -143 -68h-70v-647h-131v90q-116 -90 -307 -90
q-202 0 -320 100q-119 104 -119 291v670h131v-670q0 -125 76 -192q77 -68 232 -68q154 0 231 68q76 67 76 192v670h131v-311h70q44 0 61 26q25 36 25 105v180h102z" />
    <glyph glyph-name="Uhorndotbelow" unicode="&#x1ef0;" horiz-adv-x="1390" 
d="M1370 1434v-181q0 -102 -45 -166q-49 -67 -143 -67h-70v-490q0 -247 -127 -389q-57 -65 -156 -106q-90 -35 -202 -35q-110 0 -203 35q-96 41 -156 106q-125 143 -125 389v904h131v-904q0 -197 93 -301q88 -98 260 -98q174 0 262 98q92 103 92 301v904h131v-312h70
q43 0 61 27q25 36 25 104v181h102zM629 -102q31 0 51 -20.5t20 -51.5t-20 -51.5t-51 -20.5t-51.5 20.5t-20.5 51.5t20.5 51.5t51.5 20.5z" />
    <glyph glyph-name="uhorndotbelow" unicode="&#x1ef1;" horiz-adv-x="1298" 
d="M1278 1061v-180q0 -102 -45 -166q-50 -68 -143 -68h-70v-647h-131v90q-116 -90 -307 -90q-202 0 -320 100q-119 104 -119 291v670h131v-670q0 -125 76 -192q77 -68 232 -68q154 0 231 68q76 67 76 192v670h131v-311h70q44 0 61 26q25 36 25 105v180h102zM582 -102
q31 0 51 -20.5t20 -51.5t-20 -51.5t-51 -20.5t-51.5 20.5t-20.5 51.5t20.5 51.5t51.5 20.5z" />
    <glyph glyph-name="Ygrave" unicode="&#x1ef2;" horiz-adv-x="1335" 
d="M872 1628l-45 -92l-364 182l47 90zM733 514v-514h-131v514l-459 920h148l377 -756l379 756h145z" />
    <glyph glyph-name="ygrave" unicode="&#x1ef3;" 
d="M786 1255l-45 -92l-364 183l47 90zM1018 1061v-1043q0 -186 -119 -290q-116 -101 -317 -101h-25q-151 0 -254 56q-109 58 -156 172l123 49q26 -69 95 -107q76 -39 192 -39h25q154 0 231 68q74 65 74 192v72q-112 -90 -305 -90q-208 0 -320 100q-119 104 -119 291v670h131
v-670q0 -127 74 -192q77 -68 234 -68q154 0 231 68q74 65 74 192v670h131z" />
    <glyph glyph-name="Ydotbelow" unicode="&#x1ef4;" horiz-adv-x="1335" 
d="M733 514v-514h-131v514l-459 920h148l377 -756l379 756h145zM668 -102q31 0 51 -20.5t20 -51.5t-20 -51.5t-51 -20.5t-51.5 20.5t-20.5 51.5t20.5 51.5t51.5 20.5z" />
    <glyph glyph-name="ydotbelow" unicode="&#x1ef5;" 
d="M1018 1061v-1043q0 -186 -119 -290q-116 -101 -317 -101h-25q-151 0 -254 56q-109 58 -156 172l123 49q26 -69 95 -107q76 -39 192 -39h25q154 0 231 68q74 65 74 192v72q-112 -90 -305 -90q-208 0 -320 100q-119 104 -119 291v670h131v-670q0 -127 74 -192
q77 -68 234 -68q154 0 231 68q74 65 74 192v670h131zM582 -434q31 0 51 -20.5t20 -51.5t-20 -51.5t-51 -20.5t-51.5 20.5t-20.5 51.5t20.5 51.5t51.5 20.5z" />
    <glyph glyph-name="Yhookabove" unicode="&#x1ef6;" horiz-adv-x="1335" 
d="M586 1763v103q76 0 121 -45q43 -43 43 -121q0 -76 -43 -119q-45 -45 -121 -45v102q33 0 47 14.5t14 47.5q0 34 -14 48.5t-47 14.5zM733 514v-514h-131v514l-459 920h148l377 -756l379 756h145z" />
    <glyph glyph-name="yhookabove" unicode="&#x1ef7;" 
d="M500 1391v102q76 0 121 -45q43 -43 43 -121q0 -76 -43 -119q-45 -45 -121 -45v103q33 0 47 14t14 47q0 34 -14 49t-47 15zM1018 1061v-1043q0 -186 -119 -290q-116 -101 -317 -101h-25q-151 0 -254 56q-109 58 -156 172l123 49q26 -69 95 -107q76 -39 192 -39h25
q154 0 231 68q74 65 74 192v72q-112 -90 -305 -90q-208 0 -320 100q-119 104 -119 291v670h131v-670q0 -127 74 -192q77 -68 234 -68q154 0 231 68q74 65 74 192v670h131z" />
    <glyph glyph-name="Ytilde" unicode="&#x1ef8;" horiz-adv-x="1335" 
d="M481 1724q55 22 116 8t105 -59q50 -50 111 -28q31 15 31 36h102q0 -67 -51.5 -106t-114.5 -39q-83 0 -149 66q-50 48 -109 26q-30 -12 -30 -37h-103q0 43 24.5 78.5t67.5 54.5zM733 514v-514h-131v514l-459 920h148l377 -756l379 756h145z" />
    <glyph glyph-name="ytilde" unicode="&#x1ef9;" 
d="M395 1352q55 22 116 8t105 -60q50 -50 111 -28q31 16 31 37h102q0 -67 -51.5 -106.5t-114.5 -39.5q-83 0 -149 66q-50 48 -109 26q-30 -12 -30 -36h-103q0 43 24.5 78.5t67.5 54.5zM1018 1061v-1043q0 -186 -119 -290q-116 -101 -317 -101h-25q-151 0 -254 56
q-109 58 -156 172l123 49q26 -69 95 -107q76 -39 192 -39h25q154 0 231 68q74 65 74 192v72q-112 -90 -305 -90q-208 0 -320 100q-119 104 -119 291v670h131v-670q0 -127 74 -192q77 -68 234 -68q154 0 231 68q74 65 74 192v670h131z" />
    <glyph glyph-name="endash" unicode="&#x2013;" horiz-adv-x="1216" 
d="M1073 465h-930v131h930v-131z" />
    <glyph glyph-name="emdash" unicode="&#x2014;" horiz-adv-x="1589" 
d="M1446 465h-1303v131h1303v-131z" />
    <glyph glyph-name="quoteleft" unicode="&#x2018;" horiz-adv-x="595" 
d="M379 1540l74 -106q-82 -56 -131 -160q-48 -108 -48 -252h-131q0 177 60 308.5t176 209.5z" />
    <glyph glyph-name="quoteright" unicode="&#x2019;" horiz-adv-x="595" 
d="M217 915l-74 107q82 56 131 160q48 108 48 252h131q0 -177 -60 -309t-176 -210z" />
    <glyph glyph-name="quotesinglbase" unicode="&#x201a;" horiz-adv-x="452" 
d="M178 131h131q0 -175 -60 -307.5t-175 -210.5l-74 108q88 60 131 158q47 109 47 252z" />
    <glyph glyph-name="quotedblleft" unicode="&#x201c;" horiz-adv-x="870" 
d="M379 1540l74 -106q-82 -56 -131 -160q-48 -108 -48 -252h-131q0 177 60 308.5t176 209.5zM653 1540l74 -106q-82 -56 -131 -160q-47 -106 -47 -252h-131q0 359 235 518z" />
    <glyph glyph-name="quotedblright" unicode="&#x201d;" horiz-adv-x="870" 
d="M217 915l-74 107q82 56 131 160q48 108 48 252h131q0 -177 -60 -309t-176 -210zM492 915l-74 107q82 56 131 160q47 106 47 252h131q0 -360 -235 -519z" />
    <glyph glyph-name="quotedblbase" unicode="&#x201e;" horiz-adv-x="727" 
d="M74 -387l-74 106q82 56 131 160q47 106 47 252h131q0 -359 -235 -518zM348 -387l-74 106q84 57 132 160q47 106 47 252h131q0 -177 -60 -308.5t-176 -209.5z" />
    <glyph glyph-name="dagger" unicode="&#x2020;" horiz-adv-x="1124" 
d="M627 1061h354v-131h-354v-1329h-131v1329h-353v131h353v399h131v-399z" />
    <glyph glyph-name="daggerdbl" unicode="&#x2021;" horiz-adv-x="1124" 
d="M627 1061h354v-131h-354v-799h354v-131h-354v-399h-131v399h-353v131h353v799h-353v131h353v399h131v-399z" />
    <glyph glyph-name="bullet" unicode="&#x2022;" horiz-adv-x="761" 
d="M381 954q100 0 168.5 -68.5t68.5 -168.5t-68.5 -169t-168.5 -69t-169 69t-69 169t69 168.5t169 68.5z" />
    <glyph glyph-name="ellipsis" unicode="&#x2026;" horiz-adv-x="1089" 
d="M229 172q37 0 61.5 -24.5t24.5 -61.5t-24.5 -61.5t-61.5 -24.5t-61.5 24.5t-24.5 61.5t24.5 61.5t61.5 24.5zM545 172q37 0 61.5 -24.5t24.5 -61.5t-24.5 -61.5t-61.5 -24.5t-61.5 24.5t-24.5 61.5t24.5 61.5t61.5 24.5zM860 172q37 0 61.5 -24.5t24.5 -61.5t-24.5 -61.5
t-61.5 -24.5t-61.5 24.5t-24.5 61.5t24.5 61.5t61.5 24.5z" />
    <glyph glyph-name="perthousand" unicode="&#x2030;" horiz-adv-x="2119" 
d="M395 1434q119 0 189 -86q63 -78 63 -213q0 -132 -63 -213q-69 -84 -189 -84q-122 0 -188 84q-64 79 -64 213q0 137 64 213q67 86 188 86zM336 0h-162l1024 1434h162zM395 1303q-59 0 -86 -37q-35 -41 -35 -131q0 -87 35 -131q25 -35 86 -35t86 35q35 44 35 131
q0 90 -35 131q-27 37 -86 37zM1139 596q122 0 188 -84q64 -79 64 -213q0 -137 -64 -213q-67 -86 -188 -86q-122 0 -189 86q-63 75 -63 213q0 135 63 213q66 84 189 84zM1724 596q123 0 189 -84q63 -78 63 -213q0 -138 -63 -213q-67 -86 -189 -86q-121 0 -188 86
q-63 75 -63 213q0 135 63 213q66 84 188 84zM1139 465q-61 0 -86 -35q-35 -44 -35 -131q0 -90 35 -131q27 -37 86 -37t86 37q35 41 35 131q0 87 -35 131q-25 35 -86 35zM1724 465q-61 0 -86 -35q-34 -43 -34 -131q0 -91 34 -131q27 -37 86 -37t86 37q35 41 35 131
q0 87 -35 131q-25 35 -86 35z" />
    <glyph glyph-name="guilsinglleft" unicode="&#x2039;" horiz-adv-x="737" 
d="M315 530l279 -325h-172l-279 325l279 326h172z" />
    <glyph glyph-name="guilsinglright" unicode="&#x203a;" horiz-adv-x="737" 
d="M315 856l279 -326l-279 -325h-172l279 325l-279 326h172z" />
    <glyph glyph-name="fraction" unicode="&#x2044;" horiz-adv-x="1472" 
d="M305 0h-162l1024 1434h162z" />
    <glyph glyph-name="Euro" unicode="&#x20ac;" horiz-adv-x="1169" 
d="M1026 1434v-131q-283 0 -436 -150q-88 -91 -125 -231h561v-131h-582q-2 -25 -2 -74q0 -51 2 -74h582v-131h-561q38 -144 125 -231q153 -150 436 -150v-131q-166 0 -299 47q-134 46 -229 141q-90 90 -142 228q-11 34 -26 96h-187v131h170q-2 23 -2 74q0 49 2 74h-170v131
h187q13 54 26 94q49 133 142 229q95 92 229 141q136 48 299 48z" />
    <glyph glyph-name="trademark" unicode="&#x2122;" horiz-adv-x="1699" 
d="M688 1331h-221v-583h-102v583h-222v103h545v-103zM1556 748h-102v417l-211 -417h-115l-208 417v-417h-103v686h84l285 -572l287 572h83v-686z" />
    <glyph glyph-name="oneeighth" unicode="&#x215b;" horiz-adv-x="1609" 
d="M305 0h-162l1024 1434h162zM375 696h-103v738h103v-738zM1235 737q106 0 168 -53q63 -57 63 -156q0 -100 -63 -157l-2 -2l2 -2q63 -57 63 -156q0 -101 -63 -158q-62 -53 -168 -53q-109 0 -168 53q-66 57 -66 158q0 99 66 156l2 2l-2 2q-66 57 -66 157q0 99 66 156
q59 53 168 53zM1235 635q-65 0 -102 -29q-29 -26 -29 -78q0 -53 29 -79q37 -29 102 -29q63 0 100 29q29 26 29 79q0 52 -29 78q-37 29 -100 29zM1235 317q-66 0 -102 -28q-29 -26 -29 -78q0 -54 29 -80q37 -29 102 -29q63 0 100 29q29 26 29 80q0 52 -29 78q-36 28 -100 28z
" />
    <glyph glyph-name="threeeighths" unicode="&#x215c;" horiz-adv-x="1746" 
d="M377 1434q105 0 168 -54q63 -57 63 -155q0 -101 -63 -158l-2 -2l2 -2q63 -57 63 -156q0 -100 -63 -157q-63 -54 -168 -54q-110 0 -172 62t-62 172h103q0 -70 33 -99q28 -32 98 -32q64 0 100 28q29 26 29 80q0 52 -29 78q-37 29 -100 29h-47v102h47q63 0 100 29
q29 26 29 80q0 52 -29 78q-36 28 -100 28q-69 0 -98 -33q-33 -29 -33 -96h-103q0 108 62 170t172 62zM442 0h-161l1024 1434h161zM1372 737q106 0 168 -53q64 -58 64 -156q0 -99 -64 -157l-2 -2l2 -2q64 -58 64 -156q0 -100 -64 -158q-62 -53 -168 -53q-109 0 -168 53
q-65 56 -65 158q0 100 65 156l2 2l-2 2q-65 56 -65 157q0 100 65 156q59 53 168 53zM1372 635q-65 0 -102 -29q-29 -26 -29 -78q0 -53 29 -79q37 -29 102 -29q64 0 101 29q28 25 28 79q0 53 -28 78q-37 29 -101 29zM1372 317q-66 0 -102 -28q-29 -26 -29 -78q0 -54 29 -80
q37 -29 102 -29q64 0 101 29q28 25 28 80q0 53 -28 78q-36 28 -101 28z" />
    <glyph glyph-name="fiveeighths" unicode="&#x215d;" horiz-adv-x="1740" 
d="M557 1331h-311v-170h137q103 0 164 -61t61 -170q0 -111 -61 -172q-62 -62 -170 -62q-110 0 -172 62t-62 172h103q0 -70 33 -99q28 -32 98 -32q66 0 98 32q31 31 31 99q0 62 -31 98q-36 31 -98 31h-234v375h414v-103zM436 0h-162l1024 1434h162zM1366 737q106 0 168 -53
q63 -57 63 -156q0 -100 -63 -157l-2 -2l2 -2q63 -57 63 -156q0 -101 -63 -158q-62 -53 -168 -53q-109 0 -168 53q-65 56 -65 158q0 100 65 156l2 2l-2 2q-65 56 -65 157q0 100 65 156q59 53 168 53zM1366 635q-65 0 -102 -29q-29 -26 -29 -78q0 -53 29 -79q37 -29 102 -29
q63 0 100 29q29 26 29 79q0 52 -29 78q-37 29 -100 29zM1366 317q-66 0 -102 -28q-29 -26 -29 -78q0 -54 29 -80q37 -29 102 -29q63 0 100 29q29 26 29 80q0 52 -29 78q-36 28 -100 28z" />
    <glyph glyph-name="seveneighths" unicode="&#x215e;" horiz-adv-x="1609" 
d="M305 0h-162l1024 1434h162zM637 1311l-262 -615h-111l271 635h-330v103h432v-123zM1235 737q106 0 168 -53q63 -57 63 -156q0 -100 -63 -157l-2 -2l2 -2q63 -57 63 -156q0 -101 -63 -158q-62 -53 -168 -53q-109 0 -168 53q-66 57 -66 158q0 99 66 156l2 2l-2 2
q-66 57 -66 157q0 99 66 156q59 53 168 53zM1235 635q-65 0 -102 -29q-29 -26 -29 -78q0 -53 29 -79q37 -29 102 -29q63 0 100 29q29 26 29 79q0 52 -29 78q-37 29 -100 29zM1235 317q-66 0 -102 -28q-29 -26 -29 -78q0 -54 29 -80q37 -29 102 -29q63 0 100 29q29 26 29 80
q0 52 -29 78q-36 28 -100 28z" />
    <glyph glyph-name="arrowleft" unicode="&#x2190;" horiz-adv-x="1675" 
d="M690 1137l-313 -355h1155v-131h-1155l313 -352h-176l-371 418l371 420h176z" />
    <glyph glyph-name="arrowup" unicode="&#x2191;" horiz-adv-x="1122" 
d="M979 1040v-176l-352 314v-1155h-131v1155l-353 -314v176l418 371z" />
    <glyph glyph-name="arrowright" unicode="&#x2192;" horiz-adv-x="1675" 
d="M1532 717l-371 -418h-176l313 352h-1155v131h1155l-313 355h176z" />
    <glyph glyph-name="arrowdown" unicode="&#x2193;" horiz-adv-x="1122" 
d="M143 393v176l353 -313v1155h131v-1155l352 313v-176l-418 -370z" />
    <glyph glyph-name="uni2194" unicode="&#x2194;" horiz-adv-x="1763" 
d="M1620 717l-371 -418h-176l313 352h-1009l313 -352h-174l-373 418l373 420h174l-313 -355h1009l-313 355h176z" />
    <glyph glyph-name="arrowupdn" unicode="&#x2195;" horiz-adv-x="1124" 
d="M981 1083v-176l-354 314v-1010l354 313v-174l-420 -373l-418 373v174l353 -313v1010l-353 -314v176l418 371z" />
    <glyph glyph-name="uni2196" unicode="&#x2196;" horiz-adv-x="1329" 
d="M768 1239v-131h-399l817 -819l-92 -92l-820 817v-400h-131v625h625z" />
    <glyph glyph-name="uni2197" unicode="&#x2197;" horiz-adv-x="1329" 
d="M1186 614h-131v400l-819 -817l-93 92l818 819h-400v131h625v-625z" />
    <glyph glyph-name="uni2198" unicode="&#x2198;" horiz-adv-x="1329" 
d="M561 197v131h400l-818 819l93 92l819 -817v399h131v-624h-625z" />
    <glyph glyph-name="uni2199" unicode="&#x2199;" horiz-adv-x="1329" 
d="M143 821h131v-399l820 817l92 -92l-817 -819h399v-131h-625v624z" />
    <glyph glyph-name="partialdiff" unicode="&#x2202;" horiz-adv-x="1208" 
d="M217 1303v131q182 0 338 -78q143 -72 244 -199q91 -114 140.5 -260.5t49.5 -300.5q0 -246 -121 -410q-64 -89 -155 -135q-97 -51 -217 -51q-195 0 -312 139q-102 124 -102 299q0 173 102 297q115 139 312 139q220 0 340 -126q2 -1 5 -5l3 -4q-36 193 -148 336
q-34 43 -76 80t-100.5 72t-136.5 55.5t-166 20.5zM496 743q-134 0 -211 -92q-72 -88 -72 -213q0 -127 72 -215q80 -92 211 -92h26q116 0 209 102q84 97 84 230q0 120 -74 194q-86 86 -245 86z" />
    <glyph glyph-name="emptyset" unicode="&#x2205;" horiz-adv-x="1300" 
d="M1157 1130l-156 -153q86 -116 86 -260q0 -180 -129 -309q-127 -127 -309 -127q-145 0 -258 84l-155 -154l-93 92l154 156q-84 113 -84 258q0 182 127 309q129 129 309 129q144 0 260 -86l154 156zM434 934q-77 -76 -89 -184t46 -197l424 422q-83 59 -192 49t-189 -90z
M907 883l-422 -424q55 -36 124 -44.5t138 14t119 73.5q77 76 88 184.5t-47 196.5z" />
    <glyph glyph-name="product" unicode="&#x220f;" horiz-adv-x="1347" 
d="M1204 -432h-131v1794h-799v-1794h-131v1925h1061v-1925z" />
    <glyph glyph-name="summation" unicode="&#x2211;" horiz-adv-x="1216" 
d="M1073 1395h-813l518 -865l-518 -864h813v-131h-930v193l482 802l-482 803v193h930v-131z" />
    <glyph glyph-name="minus" unicode="&#x2212;" horiz-adv-x="1216" 
d="M1073 465h-930v131h930v-131z" />
    <glyph glyph-name="radical" unicode="&#x221a;" horiz-adv-x="1658" 
d="M864 -399h-141l-344 864h-236v131h324l324 -809l585 1673h140z" />
    <glyph glyph-name="infinity" unicode="&#x221e;" horiz-adv-x="1533" 
d="M1047 829q160 0 247 -75q97 -79 97 -222q0 -144 -97 -223q-88 -76 -247 -76t-250 76q-10 8 -31 29q-13 -16 -29 -29q-91 -76 -250 -76t-247 76q-97 79 -97 223q0 143 97 222q87 75 247 75t250 -75q16 -13 29 -29q21 21 31 29q90 75 250 75zM487 698q-109 0 -163 -45
q-50 -41 -50 -121q0 -81 50 -122q54 -45 163 -45t166 45q47 38 47 122q0 83 -47 121q-57 45 -166 45zM1047 698q-112 0 -166 -45q-50 -41 -50 -121q0 -81 50 -122q54 -45 166 -45q109 0 163 45q50 41 50 122q0 80 -50 121q-54 45 -163 45z" />
    <glyph glyph-name="integral" unicode="&#x222b;" horiz-adv-x="843" 
d="M700 1526v-131q-101 0 -153 -70q-60 -78 -60 -238v-1114q0 -200 -86 -315q-91 -123 -258 -123v131q102 0 154 70q59 77 59 237v1114q0 201 86 316q91 123 258 123z" />
    <glyph glyph-name="approxequal" unicode="&#x2248;" horiz-adv-x="1255" 
d="M514 891q98 -27 166 -117q28 -38 66 -57t71.5 -18t65.5 10q50 16 74 49.5t24 68.5h131q0 -83 -51 -149t-137 -94q-95 -30 -183 -4q-102 28 -166 116q-28 37 -65.5 56t-71 18.5t-65.5 -8.5q-50 -17 -74.5 -51t-24.5 -70h-131q0 83 51.5 150t137.5 96q93 28 182 4zM514 481
q99 -27 166 -116q28 -38 66 -57t71.5 -18.5t65.5 9.5q50 16 74 50t24 69h131q0 -83 -51 -149.5t-137 -94.5q-95 -30 -183 -4q-101 27 -166 117q-28 37 -65.5 55.5t-71 18t-65.5 -8.5q-50 -17 -74.5 -51t-24.5 -70h-131q0 83 51.5 150t137.5 96q93 28 182 4z" />
    <glyph glyph-name="notequal" unicode="&#x2260;" horiz-adv-x="1216" 
d="M918 1106l-134 -324h289v-131h-344l-100 -241h444v-131h-498l-155 -375l-121 49l133 326h-289v131h344l101 241h-445v131h498l156 375z" />
    <glyph glyph-name="lessequal" unicode="&#x2264;" horiz-adv-x="1050" 
d="M907 1030l-538 -385l538 -383v-162l-764 545l764 547v-162zM907 -2v-131h-764v131h764z" />
    <glyph glyph-name="greaterequal" unicode="&#x2265;" horiz-adv-x="1050" 
d="M907 645l-764 -545v162l539 383l-539 385v162zM907 -133h-764v131h764v-131z" />
    <glyph glyph-name="lozenge" unicode="&#x25ca;" horiz-adv-x="1378" 
d="M1235 717l-547 -764l-545 764l545 764zM305 717l383 -539l385 539l-385 538z" />
    <glyph glyph-name="i.loclTRK" horiz-adv-x="458" 
d="M229 1434q37 0 61.5 -24.5t24.5 -61.5t-24.5 -61.5t-61.5 -24.5t-61.5 24.5t-24.5 61.5t24.5 61.5t61.5 24.5zM295 0h-131v1061h131v-1061z" />
    <glyph glyph-name="zero.dnom" horiz-adv-x="751" 
d="M375 737q109 0 171 -74t62 -204v-180q0 -130 -62 -204.5t-171 -74.5t-170.5 74t-61.5 205v180q0 130 61.5 204t170.5 74zM375 635q-61 0 -94 -39q-35 -47 -35 -137v-180q0 -91 35 -138q33 -39 94 -39q65 0 94 39q37 46 37 138v180q0 91 -37 137q-29 39 -94 39z" />
    <glyph glyph-name="one.dnom" horiz-adv-x="389" 
d="M246 0h-103v737h103v-737z" />
    <glyph glyph-name="two.dnom" horiz-adv-x="751" 
d="M377 737q109 0 170 -61t61 -170q0 -111 -61 -172q-62 -62 -170 -62q-63 0 -96 -39q-35 -44 -35 -131h362v-102h-465v96q0 131 62 205t172 74q65 0 98 33q31 31 31 98q0 65 -31 96q-33 33 -98 33q-69 0 -98 -33q-33 -29 -33 -96h-103q0 108 62 170q61 61 172 61z" />
    <glyph glyph-name="three.dnom" horiz-adv-x="751" 
d="M377 737q106 0 168 -53q63 -57 63 -156q0 -100 -63 -157l-2 -2l2 -2q63 -57 63 -156q0 -101 -63 -158q-62 -53 -168 -53q-111 0 -172 61q-62 62 -62 172h103q0 -69 33 -98q29 -33 98 -33q63 0 100 29q29 26 29 80q0 52 -29 78q-36 28 -100 28h-47v103h47q63 0 100 29
q29 26 29 79q0 52 -29 78q-37 29 -100 29q-69 0 -98 -33q-33 -29 -33 -96h-103q0 108 62 170q61 61 172 61z" />
    <glyph glyph-name="four.dnom" horiz-adv-x="722" 
d="M246 238h231v137h103v-375h-103v135h-334v125l217 477h113z" />
    <glyph glyph-name="five.dnom" horiz-adv-x="751" 
d="M557 635h-311v-170h137q102 0 164 -62q61 -61 61 -170q0 -111 -61 -172t-170 -61q-111 0 -172 61q-62 62 -62 172h103q0 -69 33 -98q29 -33 98 -33q65 0 98 33q31 31 31 98q0 63 -31 99q-35 30 -98 30h-234v375h414v-102z" />
    <glyph glyph-name="six.dnom" horiz-adv-x="751" 
d="M557 635h-180q-63 0 -96 -39q-35 -47 -35 -137v-25q57 31 131 31q108 0 170 -62q61 -61 61 -170q0 -111 -61 -172t-170 -61q-110 0 -172 74t-62 205v180q0 131 62 204.5t172 73.5h180v-102zM377 362q-68 0 -98 -30q-27 -27 -33 -80q6 -67 35 -111q33 -39 96 -39
q65 0 98 33q31 31 31 98q0 63 -31 99q-35 30 -98 30z" />
    <glyph glyph-name="seven.dnom" horiz-adv-x="718" 
d="M575 614l-262 -614h-110l270 635h-330v102h432v-123z" />
    <glyph glyph-name="eight.dnom" horiz-adv-x="751" 
d="M377 737q106 0 168 -53q63 -57 63 -156q0 -100 -63 -157l-2 -2l2 -2q63 -57 63 -156q0 -101 -63 -158q-62 -53 -168 -53q-109 0 -168 53q-66 57 -66 158q0 99 66 156l2 2l-2 2q-66 57 -66 157q0 99 66 156q59 53 168 53zM377 635q-66 0 -103 -29q-28 -25 -28 -78
q0 -54 28 -79q37 -29 103 -29q63 0 100 29q29 26 29 79q0 52 -29 78q-37 29 -100 29zM377 317q-67 0 -103 -28q-28 -25 -28 -78q0 -55 28 -80q37 -29 103 -29q63 0 100 29q29 26 29 80q0 52 -29 78q-36 28 -100 28z" />
    <glyph glyph-name="nine.dnom" horiz-adv-x="751" 
d="M377 737q109 0 170 -73.5t61 -204.5v-180q0 -131 -61 -205t-170 -74h-182v102h182q61 0 94 39q35 47 35 138v24q-54 -31 -129 -31q-110 0 -172 62t-62 172q0 108 62 170q61 61 172 61zM377 635q-69 0 -98 -33q-33 -29 -33 -96q0 -69 33 -98q29 -33 98 -33q65 0 98 33
q25 25 31 77q-6 71 -35 111q-33 39 -94 39z" />
    <glyph glyph-name="zero.numr" horiz-adv-x="751" 
d="M375 1434q109 0 171 -74.5t62 -204.5v-180q0 -130 -62 -204.5t-171 -74.5t-170.5 74t-61.5 205v180q0 131 61.5 205t170.5 74zM375 1331q-61 0 -94 -39q-35 -47 -35 -137v-180q0 -90 35 -137q33 -39 94 -39q65 0 94 39q37 46 37 137v180q0 91 -37 137q-29 39 -94 39z" />
    <glyph glyph-name="one.numr" horiz-adv-x="389" 
d="M246 696h-103v738h103v-738z" />
    <glyph glyph-name="two.numr" horiz-adv-x="751" 
d="M377 1434q108 0 170 -62q61 -61 61 -170q0 -111 -61 -172t-170 -61q-63 0 -96 -39q-35 -44 -35 -131h362v-103h-465v97q0 131 62 204.5t172 73.5q65 0 98 33q31 31 31 98q0 65 -31 96q-33 33 -98 33q-69 0 -98 -33q-33 -29 -33 -96h-103q0 108 62 170t172 62z" />
    <glyph glyph-name="three.numr" horiz-adv-x="751" 
d="M377 1434q105 0 168 -54q63 -57 63 -155q0 -101 -63 -158l-2 -2l2 -2q63 -57 63 -156q0 -100 -63 -157q-63 -54 -168 -54q-110 0 -172 62t-62 172h103q0 -70 33 -99q28 -32 98 -32q64 0 100 28q29 26 29 80q0 52 -29 78q-37 29 -100 29h-47v102h47q63 0 100 29
q29 26 29 80q0 52 -29 78q-36 28 -100 28q-69 0 -98 -33q-33 -29 -33 -96h-103q0 108 62 170t172 62z" />
    <glyph glyph-name="four.numr" horiz-adv-x="722" 
d="M246 934h231v137h103v-375h-103v135h-334v125l217 478h113z" />
    <glyph glyph-name="five.numr" horiz-adv-x="751" 
d="M557 1331h-311v-170h137q103 0 164 -61t61 -170q0 -111 -61 -172q-62 -62 -170 -62q-110 0 -172 62t-62 172h103q0 -70 33 -99q28 -32 98 -32q66 0 98 32q31 31 31 99q0 62 -31 98q-36 31 -98 31h-234v375h414v-103z" />
    <glyph glyph-name="six.numr" horiz-adv-x="751" 
d="M557 1331h-180q-63 0 -96 -39q-35 -47 -35 -137v-25q57 31 131 31q109 0 170 -61t61 -170q0 -111 -61 -172q-62 -62 -170 -62q-110 0 -172 74t-62 205v180q0 131 62 205t172 74h180v-103zM377 1059q-67 0 -98 -31q-27 -27 -33 -80q6 -66 35 -110q33 -39 96 -39
q66 0 98 32q31 31 31 99q0 62 -31 98q-36 31 -98 31z" />
    <glyph glyph-name="seven.numr" horiz-adv-x="718" 
d="M575 1311l-262 -615h-110l270 635h-330v103h432v-123z" />
    <glyph glyph-name="eight.numr" horiz-adv-x="751" 
d="M377 1434q105 0 168 -54q63 -57 63 -155q0 -101 -63 -158l-2 -2l2 -2q63 -57 63 -156q0 -100 -63 -157q-63 -54 -168 -54q-108 0 -168 54q-66 57 -66 157q0 99 66 156l2 2l-2 2q-66 57 -66 158q0 98 66 155q60 54 168 54zM377 1331q-67 0 -103 -28q-28 -25 -28 -78
q0 -55 28 -80q37 -29 103 -29q63 0 100 29q29 26 29 80q0 52 -29 78q-36 28 -100 28zM377 1014q-66 0 -103 -29q-28 -25 -28 -78q0 -55 28 -80q36 -28 103 -28q64 0 100 28q29 26 29 80q0 52 -29 78q-37 29 -100 29z" />
    <glyph glyph-name="nine.numr" horiz-adv-x="751" 
d="M377 1434q109 0 170 -74t61 -205v-180q0 -131 -61 -205t-170 -74h-182v103h182q61 0 94 39q35 47 35 137v24q-53 -30 -129 -30q-111 0 -172 61q-62 62 -62 172q0 108 62 170t172 62zM377 1331q-69 0 -98 -33q-33 -29 -33 -96q0 -69 33 -98q29 -33 98 -33q65 0 98 33
q25 25 31 78q-6 70 -35 110q-33 39 -94 39z" />
    <glyph glyph-name="caronaccent" horiz-adv-x="102" 
d="M102 979h-102v455h102v-455z" />
    <glyph glyph-name="lowerslashaccent" horiz-adv-x="892" 
d="M893 950l-817 -907l-76 70l817 907z" />
    <glyph glyph-name="upperslashaccent" horiz-adv-x="991" 
d="M991 1323l-907 -1270l-84 60l907 1269z" />
    <glyph glyph-name="slashaccent" horiz-adv-x="589" 
d="M590 807l-545 -272l-45 92l545 272z" />
    <glyph glyph-name="baraccent" horiz-adv-x="589" 
d="M590 666h-590v102h590v-102z" />
    <glyph glyph-name="longbaraccent" horiz-adv-x="1179" 
d="M1180 666h-1180v102h1180v-102z" />
    <glyph glyph-name="breveacuteaccent" horiz-adv-x="542" 
d="M543 1952l-365 -183l-45 93l363 180zM362 1769h103q0 -110 -62 -172q-61 -61 -170 -61q-111 0 -172 61t-61 172h102q0 -69 33 -98q29 -33 98 -33q66 0 99 33q30 30 30 98z" />
    <glyph glyph-name="brevegraveaccent" horiz-adv-x="542" 
d="M410 1862l-45 -93l-365 183l47 90zM440 1769h103q0 -110 -62 -172q-61 -61 -170 -61q-111 0 -172 61t-61 172h102q0 -69 33 -98q29 -33 98 -33q66 0 99 33q30 30 30 98z" />
    <glyph glyph-name="brevehookaccent" horiz-adv-x="464" 
d="M193 1997v102q75 0 120 -45q43 -43 43 -121q0 -75 -43 -118q-46 -46 -120 -46v103q33 0 47 14t14 47q0 34 -14 49t-47 15zM362 1769h103q0 -110 -62 -172q-61 -61 -170 -61q-111 0 -172 61t-61 172h102q0 -69 33 -98q29 -33 98 -33q66 0 99 33q30 30 30 98z" />
    <glyph glyph-name="brevetildeaccent" horiz-adv-x="557" 
d="M92 1999q55 22 116 8t105 -59q51 -51 111 -29q31 15 31 37h102q0 -67 -51.5 -106.5t-114.5 -39.5q-83 0 -149 66q-51 48 -109 27q-31 -12 -31 -37h-102q0 43 24.5 78.5t67.5 54.5zM410 1769h102q0 -111 -61 -172t-170 -61q-111 0 -172 61q-62 62 -62 172h103
q0 -70 32 -98q29 -33 99 -33q65 0 98 33q31 31 31 98z" />
    <glyph glyph-name="circumflexacuteaccent" horiz-adv-x="518" 
d="M467 2005l-365 -182l-45 92l363 180zM258 1692l-195 -156l-63 80l258 207l260 -207l-63 -80z" />
    <glyph glyph-name="circumflexgraveaccent" horiz-adv-x="518" 
d="M465 1915l-45 -92l-365 182l47 90zM258 1692l-195 -156l-63 80l258 207l260 -207l-63 -80z" />
    <glyph glyph-name="circumflexhookaccent" horiz-adv-x="518" 
d="M258 2091v102q76 0 121 -45q43 -43 43 -120q0 -76 -43 -119q-45 -45 -121 -45v102q33 0 47 14.5t14 47.5q0 34 -14 48.5t-47 14.5zM258 1692l-195 -156l-63 80l258 207l260 -207l-63 -80z" />
    <glyph glyph-name="circumflextildeaccent" horiz-adv-x="557" 
d="M92 2032q55 22 116 8t105 -60q50 -50 111 -28q31 16 31 37h102q0 -67 -51.5 -106.5t-114.5 -39.5q-83 0 -149 66q-50 48 -109 26q-31 -12 -31 -37h-102q0 43 24.5 79t67.5 55zM276 1692l-194 -156l-64 80l258 207l261 -207l-64 -80z" />
    <glyph glyph-name="dieresisacuteaccent" horiz-adv-x="409" 
d="M410 1903l-365 -183l-45 92l362 181zM92 1679q31 0 51.5 -20t20.5 -51t-20.5 -51.5t-51.5 -20.5t-51.5 20.5t-20.5 51.5t20.5 51t51.5 20zM317 1679q31 0 51.5 -20t20.5 -51t-20.5 -51.5t-51.5 -20.5t-51 20.5t-20 51.5t20 51t51 20z" />
    <glyph glyph-name="dieresisgraveaccent" horiz-adv-x="409" 
d="M410 1812l-45 -92l-365 183l47 90zM92 1679q31 0 51.5 -20t20.5 -51t-20.5 -51.5t-51.5 -20.5t-51.5 20.5t-20.5 51.5t20.5 51t51.5 20zM317 1679q31 0 51.5 -20t20.5 -51t-20.5 -51.5t-51.5 -20.5t-51 20.5t-20 51.5t20 51t51 20z" />
    <glyph glyph-name="dieresiscaronaccent" horiz-adv-x="518" 
d="M518 1907l-260 -207l-258 207l63 80l195 -156l197 156zM147 1679q31 0 51.5 -20t20.5 -51t-20.5 -51.5t-51.5 -20.5t-51 20.5t-20 51.5t20 51t51 20zM373 1679q31 0 51 -20t20 -51t-20 -51.5t-51 -20.5t-51.5 20.5t-20.5 51.5t20.5 51t51.5 20z" />
    <glyph glyph-name="dieresismacronaccent" horiz-adv-x="368" 
d="M367 1741h-363v102h363v-102zM72 1679q31 0 51 -20t20 -51t-20 -51.5t-51 -20.5t-51.5 20.5t-20.5 51.5t20.5 51t51.5 20zM297 1679q31 0 51.5 -20t20.5 -51t-20.5 -51.5t-51.5 -20.5t-51.5 20.5t-20.5 51.5t20.5 51t51.5 20z" />
    </font>
</defs>
</svg>
