<?xml version="1.0" standalone="no"?>
<!DOCTYPE svg PUBLIC "-//W3C//DTD SVG 1.1//EN" "http://www.w3.org/Graphics/SVG/1.1/DTD/svg11.dtd" >
<svg xmlns="http://www.w3.org/2000/svg" xmlns:xlink="http://www.w3.org/1999/xlink" version="1.1">
<metadata>
Created by FontForge 20170731 at Sat Jul 25 12:49:33 2020
 By Aleksey,,,
Copyright (c) 2018 by Jeremy Nelson.
</metadata>
<defs>
<font id="Yeager-Regular" horiz-adv-x="1087" >
  <font-face 
    font-family="Yeager"
    font-weight="400"
    font-stretch="normal"
    units-per-em="2048"
    panose-1="0 0 5 0 0 0 0 0 0 0"
    ascent="1638"
    descent="-410"
    x-height="1434"
    cap-height="1434"
    bbox="14 -240 1565 1638"
    underline-thickness="102"
    underline-position="-307"
    unicode-range="U+0020-2260"
  />
<missing-glyph horiz-adv-x="204" 
 />
    <glyph glyph-name=".notdef" horiz-adv-x="204" 
 />
    <glyph glyph-name=".null" horiz-adv-x="0" 
 />
    <glyph glyph-name="nonmarkingreturn" horiz-adv-x="682" 
 />
    <glyph glyph-name="space" unicode=" " horiz-adv-x="581" 
 />
    <glyph glyph-name="exclam" unicode="!" horiz-adv-x="450" 
d="M150 346l-33 1088h207l-37 -1088h-137zM188 0q-34 0 -47 29l-28 82l28 82q12 30 47 30h74q37 0 47 -30l29 -82l-29 -82q-10 -29 -47 -29h-74z" />
    <glyph glyph-name="numbersign" unicode="#" horiz-adv-x="1386" 
d="M1290 883h-235l-90 -316h233l-55 -184h-232l-86 -293h-198l86 293h-240l-86 -293h-199l86 293h-233l53 184h234l94 316h-234l54 184h233l82 279h195l-80 -279h241l82 279h195l-80 -279h236zM766 567l94 316h-244l-90 -316h240z" />
    <glyph glyph-name="dollar" unicode="$" 
d="M944 616l60 -192l-76 -297q-33 -127 -162 -127h-180l-27 -217h-192l30 217h-223l-65 219l208 47l25 -82h82l68 473l-256 95q-75 29 -101 116l-51 170l82 285q20 66 54.5 88.5t88.5 22.5h187l24 204h193l-29 -204h223l68 -222l-209 -45l-27 86h-82l-63 -436l248 -86
q74 -25 102 -115zM305 977q14 -54 35 -70l88 -30l45 376h-113q-12 -7 -20.5 -27.5t-20.5 -70.5l-30 -117zM772 299l27 125l-23 78q-14 50 -33 63l-86 33l-51 -414h125q22 17 41 115z" />
    <glyph glyph-name="percent" unicode="%" horiz-adv-x="1212" 
d="M219 932q-40 0 -65.5 19t-38.5 67l-47 168l53 176q12 43 35.5 57.5t56.5 14.5h236q33 0 56.5 -14.5t35.5 -57.5l53 -176l-47 -168q-13 -48 -39 -67t-66 -19h-223zM918 1434h165l-800 -1434h-166zM201 1180l24 -82q12 -45 23 -49h164q10 4 22 49l25 82l-25 82
q-11 42 -24 49h-160q-14 -7 -25 -49zM1096 430l53 -176l-47 -168q-13 -48 -39 -67t-66 -19h-223q-40 0 -65.5 19t-38.5 67l-47 168l53 176q12 43 35.5 57.5t56.5 14.5h236q33 0 56.5 -14.5t35.5 -57.5zM1014 248l-25 82q-11 42 -24 49h-160q-14 -7 -25 -49l-24 -82l24 -82
q12 -45 23 -49h164q10 4 22 49z" />
    <glyph glyph-name="ampersand" unicode="&#x26;" horiz-adv-x="1212" 
d="M1147 649h-131v-405l-58 -142q-26 -64 -59.5 -83t-97.5 -19h-398q-63 0 -102.5 29.5t-58.5 103.5l-74 295l78 272q11 44 30 72q-18 32 -26 66l-57 204l81 281q20 66 56 88.5t88 22.5h481l51 -181h-483q-20 -12 -39 -84l-35 -127l33 -124q21 -75 39 -84h629zM811 293v356
h-369q-18 -18 -34 -84l-35 -137l35 -160q17 -75 36 -84h310q23 8 39 54z" />
    <glyph glyph-name="parenleft" unicode="(" horiz-adv-x="397" 
d="M289 213h47l18 -213h-108q-56 0 -84 23t-47 100l-72 287v614l72 287q19 77 47 100t84 23h108l-18 -213h-47q-17 -6 -31 -68l-33 -135v-602l33 -135q14 -62 31 -68z" />
    <glyph glyph-name="parenright" unicode=")" horiz-adv-x="397" 
d="M283 1311l71 -287v-614l-71 -287q-19 -77 -47 -100t-84 -23h-109l18 213h48q16 5 30 68l33 135v602l-33 135q-14 63 -30 68h-48l-18 213h109q56 0 84 -23t47 -100z" />
    <glyph glyph-name="asterisk" unicode="*" horiz-adv-x="641" 
d="M254 858l4 176l-156 -94l-59 129l180 82l-180 82l59 131l156 -96l-4 178h133l-2 -178l154 96l59 -131l-180 -82l180 -82l-59 -129l-154 94l2 -176h-133z" />
    <glyph glyph-name="plus" unicode="+" horiz-adv-x="1021" 
d="M956 799v-170h-360v-361h-170v361h-360v170h360v360h170v-360h360z" />
    <glyph glyph-name="comma" unicode="," horiz-adv-x="331" 
d="M106 156h185l-84 -326h-166z" />
    <glyph glyph-name="hyphen" unicode="-" horiz-adv-x="677" 
d="M41 662l33 155h563l-33 -155h-563z" />
    <glyph glyph-name="period" unicode="." horiz-adv-x="335" 
d="M131 0q-34 0 -47 29l-29 82l29 82q12 30 47 30h74q37 0 47 -30l29 -82l-29 -82q-10 -29 -47 -29h-74z" />
    <glyph glyph-name="slash" unicode="/" horiz-adv-x="681" 
d="M43 0l389 1434h207l-387 -1434h-209z" />
    <glyph glyph-name="zero" unicode="0" horiz-adv-x="1183" 
d="M977 1278l123 -561l-119 -545q-22 -99 -64 -135.5t-112 -36.5h-426q-70 0 -112 36.5t-64 135.5l-119 545l123 561q20 93 60.5 124.5t111.5 31.5h426q71 0 111.5 -31.5t60.5 -124.5zM801 285l92 432l-102 459q-14 68 -35 77h-328q-21 -9 -35 -77l-102 -459l92 -432
q16 -80 45 -101h328q29 21 45 101z" />
    <glyph glyph-name="one" unicode="1" horiz-adv-x="591" 
d="M424 1434v-1434h-205v1245h-135l43 189h297z" />
    <glyph glyph-name="two" unicode="2" horiz-adv-x="1036" 
d="M715 184l24 82l209 -47l-65 -219h-799v424l53 176q25 81 103 115l454 190q21 16 35 70l19 63l-31 117q-12 50 -20.5 70.5t-20.5 27.5h-342l-27 -86l-209 45l68 222h561q54 0 88.5 -22.5t54.5 -88.5l82 -285l-53 -172q-13 -42 -35.5 -69.5t-64.5 -46.5l-461 -201
q-18 -13 -33 -64l-16 -61v-240h426z" />
    <glyph glyph-name="three" unicode="3" horiz-adv-x="1030" 
d="M868 700l78 -272l-74 -295q-19 -74 -58.5 -103.5t-102.5 -29.5h-576l-65 219l209 47l24 -82h367q20 10 37 84l34 160l-34 137q-15 64 -35 84h-420l-33 90l33 95h397q18 9 39 84l33 124l-35 127q-19 72 -39 84h-344l-27 -86l-208 45l67 222h561q52 0 88 -22.5t56 -88.5
l82 -281l-58 -204q-8 -34 -26 -66q19 -28 30 -72z" />
    <glyph glyph-name="four" unicode="4" horiz-adv-x="1148" 
d="M1098 424l-41 -184h-127v-244h-205v244h-428q-70 0 -113.5 31t-66.5 102l-33 110l487 1049l136 -150l-414 -919q11 -30 18 -39h414v600h205v-600h168z" />
    <glyph glyph-name="five" unicode="5" horiz-adv-x="1040" 
d="M860 762l96 -307l-92 -316q-25 -83 -63 -111t-103 -28h-548l-66 219l209 47l24 -82h345q19 13 30 58l56 213l-56 186q-13 48 -30 59h-373l-37 -65l-156 35v764h762l68 -222l-209 -45l-27 86h-389v-368h397q71 0 104.5 -24t57.5 -99z" />
    <glyph glyph-name="six" unicode="6" 
d="M950 795l70 -303l-74 -336q-19 -84 -53.5 -120t-93.5 -36h-473q-72 0 -111.5 35.5t-56.5 120.5l-74 376l104 760q10 73 49 107.5t97 34.5h553l67 -222l-209 -45l-26 86h-322q-20 -7 -24 -43l-35 -290h448q70 0 109.5 -30t54.5 -95zM762 272l43 220l-27 139
q-17 88 -41 104h-420l-24 -203l47 -260q13 -77 33 -88h354q22 11 35 88z" />
    <glyph glyph-name="seven" unicode="7" horiz-adv-x="1026" 
d="M950 1300l33 -110l-451 -1190h-208l458 1176q-13 62 -28 77h-453l-27 -86l-208 45l67 222h637q70 0 113.5 -31.5t66.5 -102.5z" />
    <glyph glyph-name="eight" unicode="8" horiz-adv-x="1232" 
d="M1020 700l78 -272l-74 -295q-19 -74 -59 -103.5t-103 -29.5h-491q-63 0 -103 29.5t-59 103.5l-74 295l78 272q11 42 31 72q-20 35 -27 66l-57 204l82 281q20 66 55.5 88.5t87.5 22.5h463q52 0 87.5 -22.5t55.5 -88.5l82 -281l-57 -204q-7 -31 -27 -66q20 -30 31 -72z
M395 1169l-35 -127l33 -124q21 -75 39 -84h369q18 9 39 84l32 124l-34 127q-19 72 -39 84h-365q-20 -12 -39 -84zM858 268l35 160l-35 137q-15 64 -35 84h-413q-20 -20 -35 -84l-35 -137l35 -160q17 -74 37 -84h409q20 10 37 84z" />
    <glyph glyph-name="nine" unicode="9" horiz-adv-x="1089" 
d="M924 1278l82 -375l-86 -762q-9 -72 -48.5 -106.5t-97.5 -34.5h-594l-65 219l209 47l24 -82h369q14 6 18 43l27 312h-461q-70 0 -110 32t-58 109l-65 270l73 328q19 84 54 120t94 36h467q71 0 110 -35.5t58 -120.5zM350 723h428l17 180l-54 262q-15 77 -36 88h-345
q-19 -10 -34 -88l-43 -215l26 -123q17 -88 41 -104z" />
    <glyph glyph-name="colon" unicode=":" horiz-adv-x="358" 
d="M141 948q-34 0 -47 29l-28 82l28 82q12 30 47 30h74q37 0 47 -30l29 -82l-29 -82q-10 -29 -47 -29h-74zM143 156q-35 0 -47 28l-28 82l28 82q12 31 47 31h74q36 0 47 -31l29 -82l-29 -82q-10 -28 -47 -28h-74z" />
    <glyph glyph-name="semicolon" unicode=";" horiz-adv-x="374" 
d="M141 948q-34 0 -47 29l-28 82l28 82q12 30 47 30h74q37 0 47 -30l29 -82l-29 -82q-10 -29 -47 -29h-74zM80 156h184l-84 -326h-166z" />
    <glyph glyph-name="less" unicode="&#x3c;" horiz-adv-x="765" 
d="M700 205l-634 413v115l634 412v-205l-436 -264l436 -264v-207z" />
    <glyph glyph-name="equal" unicode="=" horiz-adv-x="1044" 
d="M123 858l43 184h795l-46 -184h-792zM84 375l43 184h795l-45 -184h-793z" />
    <glyph glyph-name="greater" unicode="&#x3e;" horiz-adv-x="765" 
d="M66 205v207l436 264l-436 264v205l634 -412v-115z" />
    <glyph glyph-name="question" unicode="?" horiz-adv-x="1007" 
d="M856 1323l86 -305l-47 -156q-12 -41 -35 -68.5t-65 -48.5l-203 -100q-24 -17 -37 -63l-14 -50l-6 -186h-177l-6 217l39 133q21 78 103 115l196 90q21 16 35 70l12 47l-35 137q-12 51 -20 71t-20 27h-361l-27 -86l-208 45l67 222h580q55 0 89.5 -22.5t53.5 -88.5zM502 223
q37 0 47 -30l29 -82l-29 -82q-10 -29 -47 -29h-74q-34 0 -47 29l-29 82l29 82q12 30 47 30h74z" />
    <glyph glyph-name="at" unicode="@" horiz-adv-x="1155" 
d="M772 823l-2 -309h148l22 152l-86 387q-6 24 -14 26h-525q-9 -2 -14 -26l-84 -387l70 -371q4 -30 14 -33h705l-25 -100q-6 -27 -16.5 -36t-34.5 -9h-707q-24 0 -36.5 11.5t-18.5 41.5l-102 496l110 497q11 49 55 49h695q44 0 55 -49l109 -497l-56 -279h-266
q-24 0 -35.5 10t-25.5 37l-9 15l-10 -15q-2 -2 -8 -11t-7.5 -11t-6.5 -8.5t-8 -7.5t-8 -4t-10.5 -4t-12.5 -1h-181q-52 0 -61 47l-37 193l55 264q9 47 58 47h311v-115zM645 514l2 309h-137l-37 -196l23 -113h149z" />
    <glyph glyph-name="A" unicode="A" horiz-adv-x="1212" 
d="M938 0l-94 391h-475l-95 -391h-215l365 1434h364l365 -1434h-215zM412 575h389l-162 674h-66z" />
    <glyph glyph-name="B" unicode="B" horiz-adv-x="1191" 
d="M1006 700l77 -272l-73 -295q-19 -74 -59 -103.5t-103 -29.5h-680v1434h666q52 0 87.5 -22.5t55.5 -88.5l82 -281l-58 -204q-8 -34 -26 -66q20 -30 31 -72zM373 1253v-419h413q18 9 39 84l33 124l-35 127q-19 72 -39 84h-411zM844 268l35 160l-35 137q-15 64 -35 84h-436
v-465h434q20 10 37 84z" />
    <glyph glyph-name="C" unicode="C" horiz-adv-x="1128" 
d="M774 184l45 135l209 -43l-86 -276h-563q-70 0 -112 36.5t-64 135.5l-119 545l123 561q20 93 60.5 124.5t111.5 31.5h563l86 -277l-209 -43l-47 139h-344q-21 -9 -35 -77l-102 -459l92 -432q16 -80 45 -101h346z" />
    <glyph glyph-name="D" unicode="D" horiz-adv-x="1214" 
d="M1008 1278l122 -561l-118 -545q-22 -99 -64 -135.5t-112 -36.5h-668v1434h668q71 0 111.5 -31.5t60.5 -124.5zM831 285l93 432l-103 459q-14 68 -35 77h-413v-1069h413q29 21 45 101z" />
    <glyph glyph-name="E" unicode="E" 
d="M772 184l25 82l209 -47l-66 -219h-772v1434h772l68 -222l-209 -45l-27 86h-399v-434h354l33 -94l-33 -92h-354v-449h399z" />
    <glyph glyph-name="F" unicode="F" horiz-adv-x="1075" 
d="M950 1434l68 -222l-209 -45l-27 86h-409v-475h375l32 -94l-32 -92h-375v-592h-205v1434h782z" />
    <glyph glyph-name="G" unicode="G" horiz-adv-x="1181" 
d="M1014 874l76 -288l-123 -586h-588q-70 0 -112 36.5t-64 135.5l-119 545l123 561q20 93 60.5 124.5t111.5 31.5h569l86 -277l-209 -43l-47 139h-350q-21 -9 -35 -77l-102 -459l92 -432q16 -80 45 -101h379l82 402l-12 51q-11 45 -25 57h-209l-43 180h414z" />
    <glyph glyph-name="H" unicode="H" horiz-adv-x="1236" 
d="M864 1434h205v-1434h-205v655h-491v-655h-205v1434h205v-594h491v594z" />
    <glyph glyph-name="I" unicode="I" horiz-adv-x="540" 
d="M168 0v1434h205v-1434h-205z" />
    <glyph glyph-name="J" unicode="J" horiz-adv-x="1126" 
d="M958 1434v-1026q-43 -174 -81 -289q-23 -69 -56 -94t-98 -25h-580l-86 276l209 43l47 -139h355q15 11 34 74q36 113 52 184v815h-260l32 181h432z" />
    <glyph glyph-name="K" unicode="K" horiz-adv-x="1169" 
d="M831 786q-10 -26 -10.5 -42.5t8.5 -41.5l275 -702h-221l-262 651h-248v-651h-205v1434h205v-603h256l262 603h213z" />
    <glyph glyph-name="L" unicode="L" horiz-adv-x="995" 
d="M373 180h557l-45 -180h-717v1434h205v-1254z" />
    <glyph glyph-name="M" unicode="M" horiz-adv-x="1665" 
d="M1454 1434l43 -207v-1227h-205v1264h-18l-350 -1018h-183l-350 1018h-18v-1264h-205v1227l43 207h330l293 -863l290 863h330z" />
    <glyph glyph-name="N" unicode="N" horiz-adv-x="1288" 
d="M924 1434h204v-1227l-41 -207h-184l-536 1049l-2 6v-1055h-205v1227l41 207h172l551 -1041v1041z" />
    <glyph glyph-name="O" unicode="O" horiz-adv-x="1183" 
d="M977 1278l123 -561l-119 -545q-22 -99 -64 -135.5t-112 -36.5h-426q-70 0 -112 36.5t-64 135.5l-119 545l123 561q20 93 60.5 124.5t111.5 31.5h426q71 0 111.5 -31.5t60.5 -124.5zM801 285l92 432l-102 459q-14 68 -35 77h-328q-21 -9 -35 -77l-102 -459l92 -432
q16 -80 45 -101h328q29 21 45 101z" />
    <glyph glyph-name="P" unicode="P" horiz-adv-x="1144" 
d="M936 1315l96 -346l-92 -365q-20 -81 -59.5 -109t-106.5 -28h-401v-465h-205v1432h606q73 0 107 -23t55 -96zM768 709l55 260l-55 225q-9 44 -31 59h-364v-602h364q20 14 31 58z" />
    <glyph glyph-name="Q" unicode="Q" horiz-adv-x="1183" 
d="M977 1278l123 -561l-119 -545q-22 -99 -64 -135.5t-112 -36.5h-57l57 -240h-197l-51 240h-178q-70 0 -112 36.5t-64 135.5l-119 545l123 561q20 93 60.5 124.5t111.5 31.5h426q71 0 111.5 -31.5t60.5 -124.5zM801 285l92 432l-102 459q-14 68 -35 77h-328q-21 -9 -35 -77
l-102 -459l92 -432q16 -80 45 -101h328q29 21 45 101z" />
    <glyph glyph-name="R" unicode="R" horiz-adv-x="1148" 
d="M1044 0h-227l-104 467h-340v-465h-205v1432h614q73 0 107 -23t55 -96l96 -346l-92 -365q-13 -52 -37 -86zM745 651q20 14 31 58l55 260l-55 225q-9 44 -31 59h-372v-602h372z" />
    <glyph glyph-name="S" unicode="S" 
d="M944 616l60 -192l-76 -297q-33 -127 -162 -127h-592l-65 219l208 47l25 -82h389q22 17 41 115l27 125l-23 78q-14 50 -33 63l-507 187q-75 29 -101 116l-51 170l82 285q20 66 54.5 88.5t88.5 22.5h598l68 -222l-209 -45l-27 86h-379q-12 -7 -20.5 -27.5t-20.5 -70.5
l-30 -117l16 -61q14 -54 35 -70l502 -176q74 -25 102 -115z" />
    <glyph glyph-name="T" unicode="T" horiz-adv-x="1044" 
d="M979 1253h-352v-1253h-205v1253h-356l38 181h836z" />
    <glyph glyph-name="U" unicode="U" horiz-adv-x="1259" 
d="M895 1436h205v-1026q-40 -162 -82 -289q-23 -69 -56 -94t-98 -25h-469q-65 0 -97.5 25t-55.5 94q-42 127 -82 289v1026h205v-996q19 -83 51 -184q19 -62 35 -74h358q16 12 35 74q32 101 51 184v996z" />
    <glyph glyph-name="V" unicode="V" horiz-adv-x="1196" 
d="M915 1434h215l-352 -1434h-360l-352 1434h215l288 -1250h58z" />
    <glyph glyph-name="W" unicode="W" horiz-adv-x="1630" 
d="M1350 1434h215l-252 -1434h-365l-133 733l-133 -733h-365l-251 1434h215l200 -1250h43l201 1020h180l201 -1020h43z" />
    <glyph glyph-name="X" unicode="X" horiz-adv-x="1155" 
d="M817 786q-10 -26 -10.5 -42.5t8.5 -41.5l275 -702h-222l-262 651h-57l-262 -651h-221l274 702q9 25 8.5 41.5t-10.5 42.5l-272 648h213l260 -598h77l261 598h213z" />
    <glyph glyph-name="Y" unicode="Y" horiz-adv-x="1142" 
d="M1085 1434l-325 -1016h-70v-420h-205v420h-102l-326 1016h215l252 -836h94l252 836h215z" />
    <glyph glyph-name="Z" unicode="Z" horiz-adv-x="1163" 
d="M799 184l24 82l209 -47l-65 -219h-641q-73 0 -118.5 32.5t-68.5 106.5l-35 115l742 958q-10 30 -21 41h-444l-27 -86l-209 45l68 222h631q72 0 115.5 -32t64.5 -104l35 -110l-735 -959q9 -35 22 -45h453z" />
    <glyph glyph-name="bracketleft" unicode="[" horiz-adv-x="514" 
d="M248 1249v-1065h223l-63 -184h-365v1434h365l63 -185h-223z" />
    <glyph glyph-name="backslash" unicode="\" horiz-adv-x="681" 
d="M639 0h-209l-387 1434h207z" />
    <glyph glyph-name="bracketright" unicode="]" horiz-adv-x="514" 
d="M471 1434v-1434h-365l-63 184h223v1065h-223l63 185h365z" />
    <glyph glyph-name="underscore" unicode="_" horiz-adv-x="1038" 
d="M41 0l55 184h901l-55 -184h-901z" />
    <glyph glyph-name="a" unicode="a" horiz-adv-x="1212" 
d="M938 0l-94 391h-475l-95 -391h-215l365 1434h364l365 -1434h-215zM412 575h389l-162 674h-66z" />
    <glyph glyph-name="b" unicode="b" horiz-adv-x="1191" 
d="M1006 700l77 -272l-73 -295q-19 -74 -59 -103.5t-103 -29.5h-680v1434h666q52 0 87.5 -22.5t55.5 -88.5l82 -281l-58 -204q-8 -34 -26 -66q20 -30 31 -72zM373 1253v-419h413q18 9 39 84l33 124l-35 127q-19 72 -39 84h-411zM844 268l35 160l-35 137q-15 64 -35 84h-436
v-465h434q20 10 37 84z" />
    <glyph glyph-name="c" unicode="c" horiz-adv-x="1128" 
d="M774 184l45 135l209 -43l-86 -276h-563q-70 0 -112 36.5t-64 135.5l-119 545l123 561q20 93 60.5 124.5t111.5 31.5h563l86 -277l-209 -43l-47 139h-344q-21 -9 -35 -77l-102 -459l92 -432q16 -80 45 -101h346z" />
    <glyph glyph-name="d" unicode="d" horiz-adv-x="1214" 
d="M1008 1278l122 -561l-118 -545q-22 -99 -64 -135.5t-112 -36.5h-668v1434h668q71 0 111.5 -31.5t60.5 -124.5zM831 285l93 432l-103 459q-14 68 -35 77h-413v-1069h413q29 21 45 101z" />
    <glyph glyph-name="e" unicode="e" 
d="M772 184l25 82l209 -47l-66 -219h-772v1434h772l68 -222l-209 -45l-27 86h-399v-434h354l33 -94l-33 -92h-354v-449h399z" />
    <glyph glyph-name="f" unicode="f" horiz-adv-x="1075" 
d="M950 1434l68 -222l-209 -45l-27 86h-409v-475h375l32 -94l-32 -92h-375v-592h-205v1434h782z" />
    <glyph glyph-name="g" unicode="g" horiz-adv-x="1181" 
d="M1014 874l76 -288l-123 -586h-588q-70 0 -112 36.5t-64 135.5l-119 545l123 561q20 93 60.5 124.5t111.5 31.5h569l86 -277l-209 -43l-47 139h-350q-21 -9 -35 -77l-102 -459l92 -432q16 -80 45 -101h379l82 402l-12 51q-11 45 -25 57h-209l-43 180h414z" />
    <glyph glyph-name="h" unicode="h" horiz-adv-x="1236" 
d="M864 1434h205v-1434h-205v655h-491v-655h-205v1434h205v-594h491v594z" />
    <glyph glyph-name="i" unicode="i" horiz-adv-x="540" 
d="M168 0v1434h205v-1434h-205z" />
    <glyph glyph-name="j" unicode="j" horiz-adv-x="1126" 
d="M958 1434v-1026q-43 -174 -81 -289q-23 -69 -56 -94t-98 -25h-580l-86 276l209 43l47 -139h355q15 11 34 74q36 113 52 184v815h-260l32 181h432z" />
    <glyph glyph-name="k" unicode="k" horiz-adv-x="1169" 
d="M831 786q-10 -26 -10.5 -42.5t8.5 -41.5l275 -702h-221l-262 651h-248v-651h-205v1434h205v-603h256l262 603h213z" />
    <glyph glyph-name="l" unicode="l" horiz-adv-x="995" 
d="M373 180h557l-45 -180h-717v1434h205v-1254z" />
    <glyph glyph-name="m" unicode="m" horiz-adv-x="1665" 
d="M1454 1434l43 -207v-1227h-205v1264h-18l-350 -1018h-183l-350 1018h-18v-1264h-205v1227l43 207h330l293 -863l290 863h330z" />
    <glyph glyph-name="n" unicode="n" horiz-adv-x="1288" 
d="M924 1434h204v-1227l-41 -207h-184l-536 1049l-2 6v-1055h-205v1227l41 207h172l551 -1041v1041z" />
    <glyph glyph-name="o" unicode="o" horiz-adv-x="1183" 
d="M977 1278l123 -561l-119 -545q-22 -99 -64 -135.5t-112 -36.5h-426q-70 0 -112 36.5t-64 135.5l-119 545l123 561q20 93 60.5 124.5t111.5 31.5h426q71 0 111.5 -31.5t60.5 -124.5zM801 285l92 432l-102 459q-14 68 -35 77h-328q-21 -9 -35 -77l-102 -459l92 -432
q16 -80 45 -101h328q29 21 45 101z" />
    <glyph glyph-name="p" unicode="p" horiz-adv-x="1144" 
d="M936 1315l96 -346l-92 -365q-20 -81 -59.5 -109t-106.5 -28h-401v-465h-205v1432h606q73 0 107 -23t55 -96zM768 709l55 260l-55 225q-9 44 -31 59h-364v-602h364q20 14 31 58z" />
    <glyph glyph-name="q" unicode="q" horiz-adv-x="1183" 
d="M977 1278l123 -561l-119 -545q-22 -99 -64 -135.5t-112 -36.5h-57l57 -240h-197l-51 240h-178q-70 0 -112 36.5t-64 135.5l-119 545l123 561q20 93 60.5 124.5t111.5 31.5h426q71 0 111.5 -31.5t60.5 -124.5zM801 285l92 432l-102 459q-14 68 -35 77h-328q-21 -9 -35 -77
l-102 -459l92 -432q16 -80 45 -101h328q29 21 45 101z" />
    <glyph glyph-name="r" unicode="r" horiz-adv-x="1148" 
d="M1044 0h-227l-104 467h-340v-465h-205v1432h614q73 0 107 -23t55 -96l96 -346l-92 -365q-13 -52 -37 -86zM745 651q20 14 31 58l55 260l-55 225q-9 44 -31 59h-372v-602h372z" />
    <glyph glyph-name="s" unicode="s" 
d="M944 616l60 -192l-76 -297q-33 -127 -162 -127h-592l-65 219l208 47l25 -82h389q22 17 41 115l27 125l-23 78q-14 50 -33 63l-507 187q-75 29 -101 116l-51 170l82 285q20 66 54.5 88.5t88.5 22.5h598l68 -222l-209 -45l-27 86h-379q-12 -7 -20.5 -27.5t-20.5 -70.5
l-30 -117l16 -61q14 -54 35 -70l502 -176q74 -25 102 -115z" />
    <glyph glyph-name="t" unicode="t" horiz-adv-x="1044" 
d="M979 1253h-352v-1253h-205v1253h-356l38 181h836z" />
    <glyph glyph-name="u" unicode="u" horiz-adv-x="1259" 
d="M895 1436h205v-1026q-40 -162 -82 -289q-23 -69 -56 -94t-98 -25h-469q-65 0 -97.5 25t-55.5 94q-42 127 -82 289v1026h205v-996q19 -83 51 -184q19 -62 35 -74h358q16 12 35 74q32 101 51 184v996z" />
    <glyph glyph-name="v" unicode="v" horiz-adv-x="1196" 
d="M915 1434h215l-352 -1434h-360l-352 1434h215l288 -1250h58z" />
    <glyph glyph-name="w" unicode="w" horiz-adv-x="1630" 
d="M1350 1434h215l-252 -1434h-365l-133 733l-133 -733h-365l-251 1434h215l200 -1250h43l201 1020h180l201 -1020h43z" />
    <glyph glyph-name="x" unicode="x" horiz-adv-x="1155" 
d="M817 786q-10 -26 -10.5 -42.5t8.5 -41.5l275 -702h-222l-262 651h-57l-262 -651h-221l274 702q9 25 8.5 41.5t-10.5 42.5l-272 648h213l260 -598h77l261 598h213z" />
    <glyph glyph-name="y" unicode="y" horiz-adv-x="1142" 
d="M1085 1434l-325 -1016h-70v-420h-205v420h-102l-326 1016h215l252 -836h94l252 836h215z" />
    <glyph glyph-name="z" unicode="z" horiz-adv-x="1163" 
d="M799 184l24 82l209 -47l-65 -219h-641q-73 0 -118.5 32.5t-68.5 106.5l-35 115l742 958q-10 30 -21 41h-444l-27 -86l-209 45l68 222h631q72 0 115.5 -32t64.5 -104l35 -110l-735 -959q9 -35 22 -45h453z" />
    <glyph glyph-name="braceleft" unicode="{" horiz-adv-x="475" 
d="M309 606v-426h123l-31 -180h-141q-87 0 -106 84l-25 96v391h-2l-84 146l84 145h2v391l23 97q22 84 108 84h141l31 -181h-123v-426h-2l-76 -110l76 -111h2z" />
    <glyph glyph-name="bar" unicode="|" horiz-adv-x="659" 
d="M252 -162v1749h156v-1749h-156z" />
    <glyph glyph-name="braceright" unicode="}" horiz-adv-x="475" 
d="M432 717l-84 -146h-2v-391l-24 -96q-9 -40 -37 -62t-70 -22h-141l-31 180h123v426h2l76 111l-76 110h-2v426h-123l31 181h141q87 0 109 -84l22 -97v-391h2z" />
    <glyph glyph-name="cent" unicode="&#xa2;" horiz-adv-x="968" 
d="M649 451l25 81l209 -47l-66 -219h-203v-35h-12l-35 -159h-174l37 159h-88q-66 0 -106 28.5t-60 109.5l-92 364l96 346q21 73 55 96t107 23h113l43 197h174l-47 -197h192l68 -221l-209 -45l-27 86h-270q-22 -14 -31 -60l-55 -225l55 -260q3 -12 8 -22h293z" />
    <glyph glyph-name="sterling" unicode="&#xa3;" horiz-adv-x="1021" 
d="M432 408q-38 -146 -63 -228h567v-180h-848v180h53q16 12 35 74q32 101 51 184v201h-143l53 180h90v207q40 162 82 289q23 69 56 94t98 25h442l33 -181h-420q-16 -12 -35 -73q-31 -98 -51 -185v-176h442l-51 -180h-391v-231z" />
    <glyph glyph-name="yen" unicode="&#xa5;" horiz-adv-x="1134" 
d="M1085 1434l-262 -654h195v-184h-328v-133h328v-184h-348v-279h-205v279h-348v184h368v133h-368v184h202l-262 654h215l246 -654h107l245 654h215z" />
    <glyph glyph-name="degree" unicode="&#xb0;" horiz-adv-x="591" 
d="M506 1362l53 -176l-47 -168q-13 -48 -38.5 -67t-65.5 -19h-224q-40 0 -65.5 19t-38.5 67l-47 168l53 176q12 43 35.5 57.5t56.5 14.5h236q33 0 56.5 -14.5t35.5 -57.5zM424 1180l-25 82q-11 42 -24 49h-160q-14 -7 -25 -49l-24 -82l24 -82q12 -45 23 -49h164q10 4 22 49z
" />
    <glyph glyph-name="multiply" unicode="&#xd7;" horiz-adv-x="882" 
d="M817 989l-254 -254l254 -254l-121 -121l-254 254l-256 -254l-120 121l253 254l-253 254l120 121l256 -254l254 254z" />
    <glyph glyph-name="divide" unicode="&#xf7;" horiz-adv-x="942" 
d="M438 961q-35 0 -47 28l-29 82l29 82q12 31 47 31h74q36 0 47 -31l29 -82l-29 -82q-10 -28 -47 -28h-74zM66 635v184h811v-184h-811zM438 266q-34 0 -47 29l-29 82l29 82q12 30 47 30h74q37 0 47 -30l29 -82l-29 -82q-10 -29 -47 -29h-74z" />
    <glyph glyph-name="quoteleft" unicode="&#x2018;" horiz-adv-x="333" 
d="M227 1108h-184l84 326h166z" />
    <glyph glyph-name="quoteright" unicode="&#x2019;" horiz-adv-x="360" 
d="M121 1434h184l-84 -326h-166z" />
    <glyph glyph-name="quotedblleft" unicode="&#x201c;" horiz-adv-x="686" 
d="M223 1108h-184l84 326h166zM575 1108h-184l84 326h166z" />
    <glyph glyph-name="quotedblright" unicode="&#x201d;" horiz-adv-x="741" 
d="M150 1434h184l-84 -326h-166zM502 1434h184l-84 -326h-166z" />
    <glyph glyph-name="bullet" unicode="&#x2022;" horiz-adv-x="356" 
d="M141 582q-35 0 -47 28l-28 82l28 82q12 31 47 31h74q36 0 47 -31l29 -82l-29 -82q-10 -28 -47 -28h-74z" />
    <glyph glyph-name="fraction" unicode="&#x2044;" horiz-adv-x="1208" 
d="M68 0l899 1434h178l-895 -1434h-182z" />
    <glyph glyph-name="Euro" unicode="&#x20ac;" horiz-adv-x="1150" 
d="M831 184l25 82l209 -47l-66 -219h-530q-70 0 -112 36.5t-64 135.5l-60 277h-165v184h125l-19 84l19 80h-125v184h163l66 297q20 93 60.5 124.5t111.5 31.5h530l68 -222l-209 -45l-27 86h-313q-21 -9 -35 -77l-43 -195h348v-184h-389l-18 -80l18 -84h389v-184h-350
l35 -164q16 -80 45 -101h313z" />
    <glyph glyph-name="trademark" unicode="&#x2122;" horiz-adv-x="520" 
d="M195 297l8 -37h-74v-260h-41v260h-74l6 37h175zM477 297l10 -43v-254h-43v262h-4l-71 -211h-39l-72 211h-4v-262h-43v254l8 43h70l61 -180l60 180h67z" />
    <glyph glyph-name="minus" unicode="&#x2212;" horiz-adv-x="727" 
d="M66 662l32 155h564l-33 -155h-563z" />
    <glyph glyph-name="notequal" unicode="&#x2260;" horiz-adv-x="974" 
d="M655 858l-108 -299h375l-45 -184h-396l-108 -299h-195l109 299h-203l43 184h225l109 299h-338l43 184h360l103 285h194l-102 -285h240l-46 -184h-260z" />
    <glyph glyph-name="P.001" horiz-adv-x="1138" 
d="M930 1311l96 -346l-92 -357q-22 -85 -61 -114t-105 -29h-395v-463h-205v1432h600q73 0 106.5 -23.5t55.5 -99.5zM762 711l55 254l-55 227q-14 49 -31 61h-358v-604h358q21 18 31 62z" />
    </font>
</defs>
</svg>
