<svg width="40" height="40" viewBox="0 0 40 40" xmlns="http://www.w3.org/2000/svg">
    <defs>
        <linearGradient x1="69.417%" y1="-15.543%" x2="29.082%" y2="113.653%" id="yjnyjtjcca">
            <stop stop-color="#00FFA3" offset="0%"/>
            <stop stop-color="#DC1FFF" offset="100%"/>
        </linearGradient>
    </defs>
    <g fill="none" fill-rule="evenodd">
        <path d="M20 0c11.046 0 20 8.954 20 20s-8.954 20-20 20C8.955 40 0 31.046 0 20S8.955 0 20 0" fill="url(#yjnyjtjcca)"/>
        <path d="M28.398 6.854a1.17 1.17 0 1 1-2.34 0 1.17 1.17 0 0 1 2.34 0" fill="#FFF"/>
        <path d="M30.536 9.324A15.022 15.022 0 0 1 35 20c0 4.007-1.56 7.774-4.394 10.607A14.902 14.902 0 0 1 20 35c-4.007 0-7.774-1.56-10.607-4.393A14.902 14.902 0 0 1 5 20c0-4.007 1.56-7.774 4.393-10.607 3.638-3.637 8.779-5.165 14.025-4.019" stroke="#FFF" stroke-width="1.17" stroke-linecap="round"/>
        <path d="M13.924 23.685a.591.591 0 0 1 .417-.17h14.364c.262 0 .394.314.208.498l-2.837 2.816a.591.591 0 0 1-.417.171H11.295a.292.292 0 0 1-.208-.499l2.837-2.816zm0-10.514a.608.608 0 0 1 .417-.171h14.364c.262 0 .394.314.208.499l-2.837 2.816a.591.591 0 0 1-.417.17H11.295a.292.292 0 0 1-.208-.498l2.837-2.816zm12.152 5.223a.591.591 0 0 0-.417-.17H11.295a.292.292 0 0 0-.208.498l2.837 2.816c.109.108.258.171.417.171h14.364a.292.292 0 0 0 .208-.499l-2.837-2.816z" fill="#FFF" fill-rule="nonzero"/>
    </g>
</svg>
