<svg width="40" height="40" viewBox="0 0 40 40" xmlns="http://www.w3.org/2000/svg" xmlns:xlink="http://www.w3.org/1999/xlink">
    <defs>
        <path id="xr1jup2y8a" d="M0 0h12v16H0z"/>
    </defs>
    <g fill="none" fill-rule="evenodd">
        <path d="M20 0c11.046 0 20 8.954 20 20s-8.954 20-20 20C8.955 40 0 31.046 0 20S8.955 0 20 0" fill="#E50B7B"/>
        <path d="M28.398 6.854a1.17 1.17 0 1 1-2.34 0 1.17 1.17 0 0 1 2.34 0" fill="#FFF"/>
        <path d="M30.536 9.324A15.022 15.022 0 0 1 35 20c0 4.007-1.56 7.774-4.394 10.607A14.902 14.902 0 0 1 20 35c-4.007 0-7.774-1.56-10.607-4.393A14.902 14.902 0 0 1 5 20c0-4.007 1.56-7.774 4.393-10.607 3.638-3.637 8.779-5.165 14.025-4.019" stroke="#FFF" stroke-width="1.17" stroke-linecap="round"/>
        <g transform="translate(14 12)">
            <mask id="oxrh5slwrb" fill="#fff">
                <use xlink:href="#xr1jup2y8a"/>
            </mask>
            <path d="M6.45 13.976a1.013 1.013 0 0 0-1.2.783l-.002.015a1.006 1.006 0 0 0 .773 1.198h.028a.993.993 0 0 0 1.199-.73l.003-.012v-.056a1.048 1.048 0 0 0-.802-1.198m.077-1.894s-.774.052-.958.08a2.16 2.16 0 0 0-1.79 1.697s-.24 1.17-.264 1.274a.205.205 0 0 0 0 .04.8.8 0 0 1-.981.595h-.045a.798.798 0 0 1-.593-.974c0-.08 1.907-8.877 1.907-8.877a.834.834 0 0 1 1.63.348L4.63 9.86l-.132.719a.055.055 0 0 0 0 .067.056.056 0 0 0 .08 0c.153-.039.309-.07.465-.092a29.663 29.663 0 0 1 1.278-.103 4.38 4.38 0 0 0 4.118-4.233 4.378 4.378 0 0 0-4.252-4.502 4.38 4.38 0 0 0-4.516 4.239c-.024.525.056 1.05.236 1.545.136.435-.09.9-.517 1.062a.87.87 0 0 1-1.07-.53A6.208 6.208 0 0 1 0 6.06C.013 2.72 2.728.013 6.08 0a6.069 6.069 0 0 1 5.89 5.453c.333 3.33-2.105 6.298-5.444 6.63" fill="#FFF" mask="url(#oxrh5slwrb)"/>
        </g>
    </g>
</svg>
