<svg width="126" height="126" viewBox="0 0 126 126" fill="none" xmlns="http://www.w3.org/2000/svg">
<path d="M0 63C0 28.2061 28.2061 0 63 0V0C97.7939 0 126 28.2061 126 63V63C126 97.7939 97.7939 126 63 126V126C28.2061 126 0 97.7939 0 63V63Z" fill="#FFF2F7"/>
<rect x="17" y="20" width="91" height="62" rx="9" stroke="url(#paint0_linear)" stroke-width="8"/>
<rect x="50" y="86.5" width="25" height="11" fill="url(#paint1_linear)" stroke="url(#paint2_linear)"/>
<path d="M38.5 98.5H86.5C88.9853 98.5 91 100.515 91 103V108.5H34V103C34 100.515 36.0147 98.5 38.5 98.5Z" fill="url(#paint3_linear)" stroke="url(#paint4_linear)"/>
<defs>
<linearGradient id="paint0_linear" x1="20.1312" y1="33.8717" x2="66.6598" y2="108.838" gradientUnits="userSpaceOnUse">
<stop stop-color="#FB63AC"/>
<stop offset="1" stop-color="#FA8662"/>
</linearGradient>
<linearGradient id="paint1_linear" x1="51.3728" y1="89.0637" x2="57.5682" y2="104.356" gradientUnits="userSpaceOnUse">
<stop stop-color="#FB63AC"/>
<stop offset="1" stop-color="#FA8662"/>
</linearGradient>
<linearGradient id="paint2_linear" x1="51.3728" y1="89.0637" x2="57.5682" y2="104.356" gradientUnits="userSpaceOnUse">
<stop stop-color="#FB63AC"/>
<stop offset="1" stop-color="#FA8662"/>
</linearGradient>
<linearGradient id="paint3_linear" x1="37.6779" y1="100.808" x2="40.3213" y2="116.687" gradientUnits="userSpaceOnUse">
<stop stop-color="#FB63AC"/>
<stop offset="1" stop-color="#FA8662"/>
</linearGradient>
<linearGradient id="paint4_linear" x1="37.6779" y1="100.808" x2="40.3213" y2="116.687" gradientUnits="userSpaceOnUse">
<stop stop-color="#FB63AC"/>
<stop offset="1" stop-color="#FA8662"/>
</linearGradient>
</defs>
</svg>
