<svg width="126" height="126" viewBox="0 0 126 126" fill="none" xmlns="http://www.w3.org/2000/svg">
<path d="M0 63C0 28.2061 28.2061 0 63 0C97.7939 0 126 28.2061 126 63C126 97.7939 97.7939 126 63 126C28.2061 126 0 97.7939 0 63Z" fill="#F3FDFA"/>
<g clip-path="url(#clip0)">
<path fill-rule="evenodd" clip-rule="evenodd" d="M88.2937 27.6875H37.5856V33.5513H19.9544V61.0561C19.9544 71.686 31.8568 80.4334 43.5368 81.3434C47.3711 85.4384 54.1155 88.4129 60.1181 89.6812V96.8702C54.378 98.6277 44.1245 102.757 43.5368 107.256H82.9302C82.3368 102.757 71.0391 98.622 65.2876 96.8702V89.6812C71.313 88.4129 78.3598 85.4384 82.1998 81.3434C93.8741 80.4334 105.252 71.686 105.252 61.0561V33.5513H88.2937V27.6875ZM25.3693 38.7611H37.1747V62.4552C37.1747 67.1303 38.3844 71.5779 40.5127 75.5819C31.68 72.778 25.3693 65.5549 25.3693 57.1033V38.7611ZM71.6097 67.6592L62.7998 62.8192L53.9785 67.6592L55.6618 57.4218L48.5294 50.1759L58.3835 48.6801L62.7998 39.3753L67.2048 48.6801L77.0588 50.1759L69.9265 57.4218L71.6097 67.6592ZM84.7047 76.3384C86.8444 72.1524 88.0712 67.5228 88.0712 62.6258V38.9146H99.9052V57.035C99.9052 65.8677 93.566 73.4093 84.7047 76.3384Z" fill="url(#paint0_linear)"/>
</g>
<defs>
<linearGradient id="paint0_linear" x1="35.4363" y1="39.4403" x2="117.037" y2="127.398" gradientUnits="userSpaceOnUse">
<stop stop-color="#1EED89"/>
<stop offset="1" stop-color="#66AFFF"/>
</linearGradient>
<clipPath id="clip0">
<rect width="97" height="91" fill="white" transform="translate(20 22)"/>
</clipPath>
</defs>
</svg>
