<svg width="126" height="126" viewBox="0 0 126 126" fill="none" xmlns="http://www.w3.org/2000/svg">
<circle cx="63" cy="63" r="63" fill="#FFF2F7"/>
<path fill-rule="evenodd" clip-rule="evenodd" d="M4.83333 92C4.83333 92 0 92 0 87.1667C0 82.3333 4.83333 67.8333 29 67.8333C53.1667 67.8333 58 82.3333 58 87.1667C58 92 53.1667 92 53.1667 92H4.83333ZM29 63C32.8456 63 36.5338 61.4723 39.2531 58.753C41.9723 56.0338 43.5 52.3456 43.5 48.5C43.5 44.6544 41.9723 40.9662 39.2531 38.247C36.5338 35.5277 32.8456 34 29 34C25.1544 34 21.4662 35.5277 18.747 38.247C16.0277 40.9662 14.5 44.6544 14.5 48.5C14.5 52.3456 16.0277 56.0338 18.747 58.753C21.4662 61.4723 25.1544 63 29 63Z" fill="url(#paint0_linear)"/>
<path fill-rule="evenodd" clip-rule="evenodd" d="M72.8333 92C72.8333 92 68 92 68 87.1667C68 82.3333 72.8333 67.8333 97 67.8333C121.167 67.8333 126 82.3333 126 87.1667C126 92 121.167 92 121.167 92H72.8333ZM97 63C100.846 63 104.534 61.4723 107.253 58.753C109.972 56.0338 111.5 52.3456 111.5 48.5C111.5 44.6544 109.972 40.9662 107.253 38.247C104.534 35.5277 100.846 34 97 34C93.1544 34 89.4662 35.5277 86.747 38.247C84.0277 40.9662 82.5 44.6544 82.5 48.5C82.5 52.3456 84.0277 56.0338 86.747 58.753C89.4662 61.4723 93.1544 63 97 63Z" fill="url(#paint1_linear)"/>
<path d="M38.8313 103C38.8323 103 38.8333 103 38.8333 101V103H87.1667V101C87.1667 103 87.1677 103 87.1687 103L87.1708 103L87.1754 103L87.186 103L87.2128 103C87.233 102.999 87.2581 102.999 87.2876 102.998C87.3466 102.996 87.4238 102.992 87.5168 102.985C87.7022 102.972 87.9539 102.947 88.2507 102.897C88.8348 102.8 89.6442 102.601 90.4778 102.185C91.3192 101.764 92.2215 101.101 92.9089 100.07C93.6047 99.0267 94 97.725 94 96.1667C94 93.2365 92.5928 87.8893 87.9767 83.2733C83.3021 78.5986 75.5051 74.8333 63 74.8333C50.4949 74.8333 42.6979 78.5986 38.0233 83.2733C33.4072 87.8893 32 93.2365 32 96.1667C32 97.725 32.3953 99.0267 33.0911 100.07C33.7785 101.101 34.6808 101.764 35.5222 102.185C36.3558 102.601 37.1652 102.8 37.7493 102.897C38.0461 102.947 38.2978 102.972 38.4832 102.985C38.5762 102.992 38.6534 102.996 38.7124 102.998C38.7419 102.999 38.767 102.999 38.7872 103L38.814 103L38.8246 103L38.8292 103L38.8313 103ZM63 74C67.3761 74 71.5729 72.2616 74.6673 69.1673C77.7616 66.0729 79.5 61.8761 79.5 57.5C79.5 53.1239 77.7616 48.9271 74.6673 45.8327C71.5729 42.7384 67.3761 41 63 41C58.6239 41 54.4271 42.7384 51.3327 45.8327C48.2384 48.9271 46.5 53.1239 46.5 57.5C46.5 61.8761 48.2384 66.0729 51.3327 69.1673C54.4271 72.2616 58.6239 74 63 74Z" fill="url(#paint2_linear)" stroke="#FFF1F7" stroke-width="4"/>
<defs>
<linearGradient id="paint0_linear" x1="4.17788" y1="48.808" x2="46.8363" y2="97.4052" gradientUnits="userSpaceOnUse">
<stop stop-color="#FB63AC"/>
<stop offset="1" stop-color="#FA8662"/>
</linearGradient>
<linearGradient id="paint1_linear" x1="72.1779" y1="48.808" x2="114.836" y2="97.4052" gradientUnits="userSpaceOnUse">
<stop stop-color="#FB63AC"/>
<stop offset="1" stop-color="#FA8662"/>
</linearGradient>
<linearGradient id="paint2_linear" x1="38.1779" y1="57.808" x2="80.8363" y2="106.405" gradientUnits="userSpaceOnUse">
<stop stop-color="#FB63AC"/>
<stop offset="1" stop-color="#FA8662"/>
</linearGradient>
</defs>
</svg>
