<svg width="126" height="126" viewBox="0 0 126 126" fill="none" xmlns="http://www.w3.org/2000/svg">
<circle cx="63" cy="63" r="63" fill="#FFF2F7"/>
<path d="M30 4C25.0294 4 21 8.02944 21 13V95C21 99.9706 25.0294 104 30 104H97C101.971 104 106 99.9706 106 95V13C106 8.02943 101.971 4 97 4H30ZM75.6428 73.4444C75.6428 74.9786 74.3992 76.2222 72.8651 76.2222H41.9921C40.4579 76.2222 39.2143 74.9786 39.2143 73.4444C39.2143 71.9103 40.4579 70.6667 41.9921 70.6667H72.8651C74.3992 70.6667 75.6428 71.9103 75.6428 73.4444ZM87.7857 56.7778C87.7857 58.3119 86.5421 59.5556 85.0079 59.5556H41.9921C40.4579 59.5556 39.2143 58.3119 39.2143 56.7778C39.2143 55.2437 40.4579 54 41.9921 54H85.0079C86.5421 54 87.7857 55.2437 87.7857 56.7778ZM87.7857 40.1111C87.7857 41.6452 86.5421 42.8889 85.0079 42.8889H41.9921C40.4579 42.8889 39.2143 41.6452 39.2143 40.1111C39.2143 38.577 40.4579 37.3333 41.9921 37.3333H85.0079C86.5421 37.3333 87.7857 38.577 87.7857 40.1111ZM87.7857 23.4444C87.7857 24.9786 86.5421 26.2222 85.0079 26.2222H41.9921C40.4579 26.2222 39.2143 24.9786 39.2143 23.4444C39.2143 21.9103 40.4579 20.6667 41.9921 20.6667H85.0079C86.5421 20.6667 87.7857 21.9103 87.7857 23.4444Z" fill="url(#paint0_linear)"/>
<defs>
<linearGradient id="paint0_linear" x1="27.1228" y1="29.531" x2="101.259" y2="101.32" gradientUnits="userSpaceOnUse">
<stop stop-color="#FB63AC"/>
<stop offset="1" stop-color="#FA8662"/>
</linearGradient>
</defs>
</svg>
