<svg width="126" height="126" viewBox="0 0 126 126" fill="none" xmlns="http://www.w3.org/2000/svg">
<path d="M0 63C0 28.2061 28.2061 0 63 0V0C97.7939 0 126 28.2061 126 63V63C126 97.7939 97.7939 126 63 126V126C28.2061 126 0 97.7939 0 63V63Z" fill="#F3FDFA"/>
<path d="M85.1719 33.0093L85.172 33.0093V33C85.172 30.9593 86.644 29.5 88.704 29.5C90.764 29.5 92.236 30.9593 92.236 33C92.236 35.0407 90.764 36.5 88.704 36.5C86.6387 36.5 85.1349 34.9954 85.1719 33.0093ZM19.7574 84.2965L19.7623 84.3032L19.7674 84.3097L37.9114 107.31L37.9181 107.318L37.9251 107.326C38.1122 107.544 38.223 107.822 38.2337 108.069C38.2439 108.306 38.1655 108.482 38.0092 108.596L37.9787 108.618L37.9518 108.645L33.9383 112.627C33.8992 112.654 33.7863 112.696 33.4829 112.504C33.1809 112.314 32.8685 111.988 32.6586 111.703L32.6497 111.691L32.6402 111.68L13.4882 88.6801L13.4883 88.68L13.4829 88.6738C13.461 88.6483 13.389 88.5509 13.5996 88.2225C13.7913 87.9236 14.1191 87.6139 14.4068 87.4038L14.4373 87.3816L14.4641 87.355L18.4777 83.3733C18.5168 83.3459 18.6296 83.3044 18.9331 83.4957C19.2351 83.6861 19.5475 84.0115 19.7574 84.2965ZM81.9471 86.4006L81.953 86.3962L81.9588 86.3916L102.115 70.3948C102.115 70.3943 102.116 70.3939 102.117 70.3934C103.579 69.2568 105.116 68.8009 106.545 68.9554C107.972 69.1098 109.351 69.8802 110.489 71.3112C112.745 74.149 112.382 78.3854 109.562 80.6073L85.3711 99.6068L85.3705 99.6073C82.3616 101.979 79.3442 103.54 75.6054 103.5H75.6H68.544H45.3741C45.3703 103.496 45.3081 103.47 45.1819 103.313C45.1133 103.228 45.0455 103.129 44.9728 103.021C44.962 103.005 44.9509 102.988 44.9396 102.971C44.8802 102.882 44.814 102.782 44.7513 102.699L44.7515 102.699L44.7428 102.688L25.5925 78.6902C25.5923 78.69 25.5921 78.6898 25.592 78.6896C25.5688 78.6598 25.5089 78.5457 25.7143 78.2181C25.9019 77.9188 26.2197 77.6105 26.5028 77.4038L26.5029 77.404L26.5134 77.3959L35.5854 70.3959L35.5888 70.3933C38.5216 68.0904 42.6775 66.5 46.368 66.5H48.384H75.6C79.269 66.5 82.156 69.3957 82.156 73C82.156 76.6426 79.2305 79.5 75.6 79.5H63.504C62.3087 79.5 61.4096 80.1269 60.8293 80.9938C60.2572 81.8485 59.98 82.9501 59.98 84C59.98 85.0792 60.2735 85.9764 60.9107 86.6009C61.5462 87.2238 62.4467 87.5 63.504 87.5H77.616H77.6246L77.6331 87.4997C78.2635 87.4781 79.0476 87.4163 79.8123 87.2588C80.5683 87.1031 81.3524 86.8447 81.9471 86.4006ZM100.523 14.4166L100.523 14.4167L100.53 14.4211C100.726 14.5465 100.942 14.6345 101.138 14.7045C101.241 14.7412 101.371 14.7831 101.49 14.8218C101.572 14.8483 101.649 14.8733 101.71 14.894C102.087 15.0227 102.299 15.1375 102.41 15.2915C102.669 15.6532 102.903 16.28 103.071 17.0025C103.237 17.7131 103.324 18.4532 103.324 19V48C103.324 49.4065 102.666 50.7838 101.625 51.816C100.583 52.8482 99.1925 53.5 97.776 53.5H48.384C46.9697 53.5 45.5793 52.8394 44.5363 51.801C43.4929 50.7622 42.836 49.3843 42.836 48V19C42.836 18.4532 42.9232 17.7131 43.0885 17.0025C43.2566 16.28 43.4907 15.6532 43.7502 15.2915L43.7574 15.2815L43.764 15.2712C43.8467 15.1432 44.0308 15.0401 44.4261 14.9125C44.4792 14.8954 44.5384 14.877 44.6008 14.8576C44.7351 14.816 44.884 14.7698 45.0177 14.7216C45.2223 14.6479 45.4474 14.5513 45.6497 14.4075C46.4687 13.8252 47.316 13.5 48.384 13.5H97.776C98.8339 13.5 99.6851 13.8601 100.523 14.4166ZM55.44 19.5H55.0469L54.9541 19.8819C54.6707 21.0481 53.8911 22.0607 52.8434 22.8626C51.7964 23.664 50.5106 24.2315 49.2806 24.5126L49.392 25H48.892V41V41.3939L49.2749 41.4861C50.477 41.7756 51.7632 42.573 52.8272 43.6271C53.8919 44.6821 54.6834 45.944 54.9528 47.1123L55.0421 47.5H55.44H91.728H92.121L92.2138 47.1181C92.5169 45.8711 93.1018 44.5851 93.9109 43.5478C94.7208 42.5095 95.7307 41.7499 96.8793 41.4874L97.268 41.3986V41V25V24.6061L96.8851 24.5139C94.4334 23.9234 92.7645 22.2702 92.2152 19.8877L92.1258 19.5H91.728H55.44ZM80.14 33C80.14 35.7773 79.4838 37.9044 78.3575 39.3262C77.2428 40.7333 75.629 41.5 73.584 41.5C71.5073 41.5 69.6251 40.7241 68.2606 39.2918C66.8967 37.8599 66.02 35.7395 66.02 33C66.02 27.6382 69.5176 24.5 73.584 24.5C75.6249 24.5 77.2397 25.2847 78.3565 26.7042C79.4845 28.1379 80.14 30.2664 80.14 33ZM60.988 33C60.988 35.0407 59.516 36.5 57.456 36.5C55.3995 36.5 53.924 35.002 53.924 33C53.924 30.9593 55.396 29.5 57.456 29.5C59.516 29.5 60.988 30.9593 60.988 33Z" fill="url(#paint0_linear)" stroke="#3BD78C"/>
<defs>
<linearGradient id="paint0_linear" x1="31.0133" y1="27.7932" x2="134.012" y2="130.693" gradientUnits="userSpaceOnUse">
<stop stop-color="#1EED89"/>
<stop offset="1" stop-color="#66AFFF"/>
</linearGradient>
</defs>
</svg>
