<svg width="126" height="129" viewBox="0 0 126 129" fill="none" xmlns="http://www.w3.org/2000/svg">
<path d="M0 63C0 28.2061 28.2061 0 63 0V0C97.7939 0 126 28.2061 126 63V63C126 97.7939 97.7939 126 63 126V126C28.2061 126 0 97.7939 0 63V63Z" fill="#FFF2F7"/>
<g clip-path="url(#clip0)" filter="url(#filter0_d)">
<path d="M65.6873 15.7264L65.6878 15.726C68.6086 12.9586 71.8048 12.7925 73.4628 13.8435C74.8106 14.7037 75.3847 16.0717 75.3999 17.8576C75.4154 19.6776 74.8387 21.8153 73.9851 23.9363C73.1377 26.0419 72.0494 28.0534 71.1141 29.5972C70.6473 30.3676 70.2223 31.0155 69.8899 31.4938C69.7491 31.6964 69.6266 31.866 69.5261 32.0001H54.4624C54.3584 31.8666 54.2307 31.6963 54.0832 31.4918C53.7408 31.017 53.3019 30.3722 52.8197 29.6044C51.8532 28.0656 50.7283 26.0579 49.857 23.9548C48.979 21.8354 48.394 19.7026 48.4267 17.888C48.4586 16.1207 49.0644 14.7404 50.5136 13.8581C52.2411 12.8428 55.4507 12.9835 58.306 15.72C59.2838 16.667 60.6745 17.0867 61.986 17.0867C63.2996 17.0867 64.6944 16.6661 65.6873 15.7264ZM102 97.9705L101.974 98.8592L102.854 98.9893C103.951 99.1516 105.01 99.8021 105.795 100.747C106.58 101.693 107.03 102.86 107 103.973L107 103.987V104C107 106.487 105.217 108.772 102.953 109H92H91.8385L91.6852 109.051C84.5277 111.424 74.31 113 63 113C51.69 113 41.4723 111.424 34.3148 109.051L34.1615 109H34H23.0538C20.7726 108.739 19 106.473 19 104C19 101.667 20.9146 99.3193 23.1463 98.9893L24.0258 98.8592L23.9996 97.9705C23.9759 97.1691 23.9828 96.4184 23.9908 95.5584C23.9953 95.0817 24 94.5713 24 94.0001C24 74.1065 28.8656 61.8287 35.1474 53.9293C41.3764 46.0965 49.0874 42.451 55.1928 40.0001H69.8187C76.3513 42.4607 84.3353 46.7118 90.7115 54.8701C97.1348 63.0887 102 75.3665 102 94.0001C102 94.5713 102.005 95.0817 102.009 95.5584C102.017 96.4184 102.024 97.1691 102 97.9705Z" fill="url(#paint0_linear)" stroke="url(#paint1_linear)" stroke-width="2"/>
<path d="M64.0896 86.168C65.135 86.168 66.063 85.9227 66.8736 85.432C67.6843 84.9413 68.3243 84.2373 68.7936 83.32H74.8096C74.1696 85.752 72.9003 87.672 71.0016 89.08C69.103 90.4667 66.8203 91.16 64.1536 91.16C61.5083 91.16 59.2256 90.4667 57.3056 89.08C55.407 87.6933 54.1056 85.816 53.4016 83.448H50.9056V80.6H52.9216C52.9003 80.408 52.8896 80.12 52.8896 79.736C52.8896 79.3307 52.9003 79.0213 52.9216 78.808H50.9056V75.928H53.4336C54.1376 73.5813 55.439 71.7253 57.3376 70.36C59.2576 68.9733 61.5296 68.28 64.1536 68.28C66.8203 68.28 69.103 68.984 71.0016 70.392C72.9003 71.8 74.1696 73.72 74.8096 76.152H68.7936C68.3243 75.2347 67.6843 74.5413 66.8736 74.072C66.063 73.5813 65.135 73.336 64.0896 73.336C63.0656 73.336 62.1483 73.56 61.3376 74.008C60.527 74.456 59.8763 75.096 59.3856 75.928H64.7296V78.808H58.4896C58.4683 79 58.4576 79.3093 58.4576 79.736C58.4576 80.12 58.4683 80.408 58.4896 80.6H64.7296V83.448H59.3216C59.8123 84.3227 60.463 84.9947 61.2736 85.464C62.1056 85.9333 63.0443 86.168 64.0896 86.168Z" fill="#FCFCFC"/>
</g>
<defs>
<filter id="filter0_d" x="6" y="3" width="114" height="126" filterUnits="userSpaceOnUse" color-interpolation-filters="sRGB">
<feFlood flood-opacity="0" result="BackgroundImageFix"/>
<feColorMatrix in="SourceAlpha" type="matrix" values="0 0 0 0 0 0 0 0 0 0 0 0 0 0 0 0 0 0 127 0"/>
<feOffset dy="3"/>
<feGaussianBlur stdDeviation="6"/>
<feColorMatrix type="matrix" values="0 0 0 0 0.964097 0 0 0 0 0.669236 0 0 0 0 0.730393 0 0 0 1 0"/>
<feBlend mode="normal" in2="BackgroundImageFix" result="effect1_dropShadow"/>
<feBlend mode="normal" in="SourceGraphic" in2="effect1_dropShadow" result="shape"/>
</filter>
<linearGradient id="paint0_linear" x1="24.483" y1="38.2229" x2="99.9585" y2="114.273" gradientUnits="userSpaceOnUse">
<stop stop-color="#FB63AC"/>
<stop offset="1" stop-color="#FA8662"/>
</linearGradient>
<linearGradient id="paint1_linear" x1="24.483" y1="38.2229" x2="99.9585" y2="114.273" gradientUnits="userSpaceOnUse">
<stop stop-color="#FB63AC"/>
<stop offset="1" stop-color="#FA8662"/>
</linearGradient>
<clipPath id="clip0">
<rect width="90" height="102" fill="white" transform="translate(18 12)"/>
</clipPath>
</defs>
</svg>
