<svg width="126" height="126" viewBox="0 0 126 126" fill="none" xmlns="http://www.w3.org/2000/svg">
<path d="M0 63C0 28.2061 28.2061 0 63 0C97.7939 0 126 28.2061 126 63C126 97.7939 97.7939 126 63 126C28.2061 126 0 97.7939 0 63Z" fill="#F3FDFA"/>
<g clip-path="url(#clip0)">
<path d="M74.3 101.3H71.6C71.6 101.801 71.7396 102.293 72.0032 102.719C72.2669 103.146 72.644 103.491 73.0925 103.715C73.541 103.939 74.0431 104.034 74.5425 103.989C75.0419 103.944 75.5189 103.761 75.92 103.46L74.3 101.3ZM85.1 93.2L86.72 91.04C86.2526 90.6895 85.6842 90.5 85.1 90.5C84.5158 90.5 83.9474 90.6895 83.48 91.04L85.1 93.2ZM95.9 101.3L94.28 103.46C94.6811 103.761 95.1581 103.944 95.6575 103.989C96.1569 104.034 96.659 103.939 97.1075 103.715C97.556 103.491 97.9332 103.146 98.1968 102.719C98.4604 102.293 98.6 101.801 98.6 101.3H95.9ZM85.1 82.4C81.5196 82.4 78.0858 80.9777 75.5541 78.4459C73.0223 75.9142 71.6 72.4804 71.6 68.9H66.2C66.2 73.9126 68.1912 78.7199 71.7357 82.2643C75.2801 85.8088 80.0874 87.8 85.1 87.8V82.4ZM98.6 68.9C98.6 72.4804 97.1777 75.9142 94.6459 78.4459C92.1142 80.9777 88.6804 82.4 85.1 82.4V87.8C90.1126 87.8 94.9199 85.8088 98.4643 82.2643C102.009 78.7199 104 73.9126 104 68.9H98.6ZM85.1 55.4C88.6804 55.4 92.1142 56.8223 94.6459 59.3541C97.1777 61.8858 98.6 65.3196 98.6 68.9H104C104 63.8874 102.009 59.0801 98.4643 55.5357C94.9199 51.9912 90.1126 50 85.1 50V55.4ZM85.1 50C80.0874 50 75.2801 51.9912 71.7357 55.5357C68.1912 59.0801 66.2 63.8874 66.2 68.9H71.6C71.6 65.3196 73.0223 61.8858 75.5541 59.3541C78.0858 56.8223 85.1 55.4 85.1 55.4V50ZM71.6 79.7V101.3H77V79.7H71.6ZM75.92 103.46L86.72 95.36L83.48 91.04L72.68 99.14L75.92 103.46ZM83.48 95.36L94.28 103.46L97.52 99.14L86.72 91.04L83.48 95.36ZM98.6 101.3V79.7H93.2V101.3H98.6ZM104 50V31.1H98.6V50H104ZM95.9 23H31.1V28.4H95.9V23ZM23 31.1V95.9H28.4V31.1H23ZM31.1 104H66.2V98.6H31.1V104ZM23 95.9C23 98.0483 23.8534 100.109 25.3724 101.628C26.8915 103.147 28.9517 104 31.1 104V98.6C30.3839 98.6 29.6972 98.3155 29.1908 97.8092C28.6845 97.3028 28.4 96.6161 28.4 95.9H23ZM31.1 23C28.9517 23 26.8915 23.8534 25.3724 25.3724C23.8534 26.8915 23 28.9517 23 31.1H28.4C28.4 30.3839 28.6845 29.6972 29.1908 29.1908C29.6972 28.6845 30.3839 28.4 31.1 28.4V23ZM104 31.1C104 28.9517 103.147 26.8915 101.628 25.3724C100.109 23.8534 98.0483 23 95.9 23V28.4C96.6161 28.4 97.3028 28.6845 97.8092 29.1908C98.3155 29.6972 98.6 30.3839 98.6 31.1H104ZM39.2 50H66.2V44.6H39.2V50ZM39.2 66.2H55.4V60.8H39.2V66.2Z" fill="url(#paint0_linear)"/>
</g>
<defs>
<linearGradient id="paint0_linear" x1="5.09473" y1="9.31819" x2="251.269" y2="163.037" gradientUnits="userSpaceOnUse">
<stop stop-color="#26E1FF"/>
<stop offset="1" stop-color="#787BFD"/>
</linearGradient>
<clipPath id="clip0">
<rect width="81" height="81" fill="white" transform="translate(23 23)"/>
</clipPath>
</defs>
</svg>
