<svg width="126" height="126" viewBox="0 0 126 126" fill="none" xmlns="http://www.w3.org/2000/svg">
<path d="M0 63C0 28.2061 28.2061 0 63 0V0C97.7939 0 126 28.2061 126 63V63C126 97.7939 97.7939 126 63 126V126C28.2061 126 0 97.7939 0 63V63Z" fill="#D5F7FF"/>
<path fill-rule="evenodd" clip-rule="evenodd" d="M35.0694 23.3136C33.1783 24.1409 31.8955 25.9412 31.7309 27.9987L28.1133 73.2191C26.8567 88.9262 36.1563 103.667 50.8129 109.452C59.2277 112.774 68.6747 112.761 77.0586 109.362C91.308 103.586 100.164 89.2342 98.9383 73.9074L95.2646 27.9867C95.1003 25.9327 93.8321 24.1306 91.9542 23.2825L70.0753 13.4017C66.2065 11.6545 61.7784 11.6284 57.8893 13.3299L35.0694 23.3136ZM63.5 30C59.3579 30 56 33.3579 56 37.5V46.5C56 50.6422 59.3579 54 63.5 54C67.6421 54 71 50.6422 71 46.5V37.5C71 33.3579 67.6421 30 63.5 30Z" fill="url(#paint0_linear)"/>
<defs>
<linearGradient id="paint0_linear" x1="12.2939" y1="-4.79446" x2="262.948" y2="106.573" gradientUnits="userSpaceOnUse">
<stop stop-color="#26E1FF"/>
<stop offset="1" stop-color="#787BFD"/>
</linearGradient>
</defs>
</svg>
