<svg width="160" height="160" viewBox="0 0 126 160" fill="none" xmlns="http://www.w3.org/2000/svg">
<g filter="url(#filter0_d)">
<path d="M17 72C17 37.2061 45.2061 9 80 9V9C114.794 9 143 37.2061 143 72V72C143 106.794 114.794 135 80 135V135C45.2061 135 17 106.794 17 72V72Z" fill="#D5F7FF"/>
<path d="M54.4062 73.9384C51.7377 73.9384 49.4844 76.0967 49.4844 78.7846C49.4844 81.4362 51.7011 83.6307 54.4062 83.6307C57.1114 83.6307 59.3281 81.4725 59.3281 78.7846C59.2916 76.133 57.0748 73.9384 54.4062 73.9384ZM46.5312 40.9846H115.438C117.448 40.9846 118.391 40.0746 118.391 38.0769C118.391 36.0791 117.448 34.2 115.438 34.2H46.5312C44.5207 34.2 42.5938 36.0791 42.5938 38.0769C42.5572 40.0746 44.4841 40.9846 46.5312 40.9846ZM106.578 73.9384C103.91 73.9384 101.656 76.0967 101.656 78.7846C101.656 81.4362 103.873 83.6307 106.578 83.6307C109.247 83.6307 111.5 81.4725 111.5 78.7846C111.463 76.133 109.247 73.9384 106.578 73.9384ZM127.25 49.7076C127.067 49.4534 126.522 48.92 126.266 48.7384C125.425 48.0119 124.519 47.7692 123.312 47.7692H112.484H48.5H37.6719C34.9667 47.7692 32.75 49.9274 32.75 52.6153V105.923C32.75 108.611 34.9667 110.769 37.6719 110.769H123.312C126.018 110.769 128.234 108.611 128.234 105.923V52.6153C128.234 51.453 127.945 50.5431 127.25 49.7076ZM119.375 91.3846C113.307 91.3846 108.547 96.0165 108.547 102.046H52.4375C52.4375 96.0165 47.6777 91.3846 41.6094 91.3846V67.1538C47.6777 67.1538 52.4375 62.5219 52.4375 56.4923H108.547C108.547 62.5219 113.307 67.1538 119.375 67.1538V91.3846ZM80.9844 64.2461C74.2215 64.2461 68.1875 69.05 68.1875 78.7846C68.1875 88.5192 74.2215 93.323 80.9844 93.323C87.7472 93.323 92.7969 88.5192 92.7969 78.7846C92.7969 69.05 87.7472 64.2461 80.9844 64.2461Z" fill="url(#paint0_linear)"/>
</g>
<defs>
<filter id="filter0_d" x="0.617338" y="0.808669" width="158.765" height="158.765" filterUnits="userSpaceOnUse" color-interpolation-filters="sRGB">
<feFlood flood-opacity="0" result="BackgroundImageFix"/>
<feColorMatrix in="SourceAlpha" type="matrix" values="0 0 0 0 0 0 0 0 0 0 0 0 0 0 0 0 0 0 127 0"/>
<feOffset dy="8.19133"/>
<feGaussianBlur stdDeviation="8.19133"/>
<feColorMatrix type="matrix" values="0 0 0 0 0.0666667 0 0 0 0 0.0666667 0 0 0 0 0.0666667 0 0 0 0.04 0"/>
<feBlend mode="normal" in2="BackgroundImageFix" result="effect1_dropShadow"/>
<feBlend mode="normal" in="SourceGraphic" in2="effect1_dropShadow" result="shape"/>
</filter>
<linearGradient id="paint0_linear" x1="11.6429" y1="21.2665" x2="262.737" y2="216.79" gradientUnits="userSpaceOnUse">
<stop stop-color="#26E1FF"/>
<stop offset="1" stop-color="#787BFD"/>
</linearGradient>
</defs>
</svg>
