<svg width="126" height="126" viewBox="0 0 126 126" fill="none" xmlns="http://www.w3.org/2000/svg">
<circle cx="63" cy="63" r="63" fill="#D5F7FF"/>
<g clip-path="url(#clip0)">
<path d="M107.85 55.6161C105.55 48.5879 100.786 43.4312 95.0357 39.1894C75.2393 24.6756 46.3661 25.7984 27.7607 41.7261C22.3393 46.3839 18.5196 52.1228 17 59.2757C17 60.8144 17 62.3116 17 63.8503C18.2732 70.6705 22.9964 73.7479 29.0339 75.4945C29.4857 75.6193 29.9375 75.8272 30.5125 76.0352C30.5125 77.9066 30.5946 79.8611 30.4714 81.7741C29.9786 90.2162 41.3554 92.3372 47.475 93.1689C58.1946 94.6244 69.0786 94.0006 79.7982 93.0441C86.1232 92.4619 95.775 91.048 95.4875 82.6059C95.4054 80.4849 95.4875 78.3224 95.4875 75.9936C96.4321 75.6609 97.3768 75.3282 98.2804 75.0371C107.645 71.7933 110.971 65.0979 107.85 55.6161ZM54.9911 39.9379C60.3304 39.9379 65.5464 39.9379 70.9268 39.9379C70.9268 44.055 71.5429 48.2553 70.7625 52.1644C70.0643 55.7409 66.3679 57.3627 63.2464 58.943C63.1232 58.9846 63 59.0262 62.8768 58.9846C60.6179 58.8183 55.1964 54.0358 55.0321 51.7069C54.8268 47.8394 54.9911 43.9302 54.9911 39.9379ZM92.6536 70.0051H33.2643C31.7857 70.0051 30.5946 68.7991 30.5946 67.302C30.5946 65.8048 31.7857 64.5988 33.2643 64.5988H92.6536C94.1321 64.5988 95.3232 65.8048 95.3232 67.302C95.3232 68.7991 94.1321 70.0051 92.6536 70.0051Z" fill="url(#paint0_linear)"/>
</g>
<defs>
<linearGradient id="paint0_linear" x1="-3.33444" y1="18.0165" x2="214.946" y2="210.82" gradientUnits="userSpaceOnUse">
<stop stop-color="#26E1FF"/>
<stop offset="1" stop-color="#787BFD"/>
</linearGradient>
<clipPath id="clip0">
<rect width="92" height="65" fill="white" transform="translate(17 29)"/>
</clipPath>
</defs>
</svg>
