<svg width="126" height="126" viewBox="0 0 126 126" fill="none" xmlns="http://www.w3.org/2000/svg">
<path d="M0 63C0 28.2061 28.2061 0 63 0V0C97.7939 0 126 28.2061 126 63V63C126 97.7939 97.7939 126 63 126V126C28.2061 126 0 97.7939 0 63V63Z" fill="#F3FDFA"/>
<g clip-path="url(#clip0)">
<path d="M16 55.25V95.625C16 96.9372 17.0628 98 18.375 98H30.25V50.5H20.75C18.1271 50.5 16 52.6271 16 55.25ZM69.4375 48.125H65.875V42.1875C65.875 41.5314 65.3436 41 64.6875 41H62.3125C61.6564 41 61.125 41.5314 61.125 42.1875V51.6875C61.125 52.3436 61.6564 52.875 62.3125 52.875H69.4375C70.0936 52.875 70.625 52.3436 70.625 51.6875V49.3125C70.625 48.6564 70.0936 48.125 69.4375 48.125ZM89.8848 38.631L66.1348 22.7971C65.3544 22.2773 64.4377 22 63.5 22C62.5623 22 61.6456 22.2773 60.8652 22.7971L37.1152 38.631C36.4647 39.0647 35.9313 39.6522 35.5623 40.3415C35.1933 41.0308 35.0002 41.8005 35 42.5824V98H54V76.625C54 75.3128 55.0628 74.25 56.375 74.25H70.625C71.9372 74.25 73 75.3128 73 76.625V98H92V42.5838C92 40.9956 91.2059 39.5112 89.8848 38.631ZM63.5 60C56.942 60 51.625 54.683 51.625 48.125C51.625 41.5671 56.942 36.25 63.5 36.25C70.058 36.25 75.375 41.5671 75.375 48.125C75.375 54.683 70.058 60 63.5 60ZM106.25 50.5H96.75V98H108.625C109.937 98 111 96.9372 111 95.625V55.25C111 52.6271 108.873 50.5 106.25 50.5Z" fill="url(#paint0_linear)"/>
</g>
<defs>
<linearGradient id="paint0_linear" x1="33.243" y1="33.2258" x2="109.404" y2="128.952" gradientUnits="userSpaceOnUse">
<stop stop-color="#1EED89"/>
<stop offset="1" stop-color="#66AFFF"/>
</linearGradient>
<clipPath id="clip0">
<rect width="95" height="76" fill="white" transform="translate(16 22)"/>
</clipPath>
</defs>
</svg>
