<svg id="SVGDoc" width="22" height="21" xmlns="http://www.w3.org/2000/svg" version="1.1"><path d="M21.006 9.611v.895a10.428 10.428 0 0 1-3.08 7.423 10.436 10.436 0 0 1-7.422 3.07h-.007a10.438 10.438 0 0 1-7.425-3.078A10.43 10.43 0 0 1 0 10.494a10.43 10.43 0 0 1 3.08-7.423A10.436 10.436 0 0 1 10.504 0h.006c1.48 0 2.917.307 4.27.91a.887.887 0 1 1-.723 1.62 8.688 8.688 0 0 0-3.548-.756h-.005c-2.33 0-4.52.907-6.168 2.552a8.668 8.668 0 0 0-2.56 6.17c-.003 4.81 3.91 8.727 8.723 8.73h.006c2.329 0 4.52-.906 6.168-2.552a8.668 8.668 0 0 0 2.56-6.17v-.893a.887.887 0 0 1 1.774 0zm.702-7.13L11.131 13.056a.886.886 0 0 1-1.255 0L6.99 10.17a.887.887 0 1 1 1.255-1.254l2.257 2.256 9.95-9.946a.887.887 0 0 1 1.255 1.254z" fill="#b31f24"/></svg>