<svg id="SVGDoc" width="83" height="59" xmlns="http://www.w3.org/2000/svg" version="1.1"><path d="M83 34.233c0 .714-.078 1.88-.2 3.265l-.002.013c-.425 4.804-1.377 12.232-1.429 12.633l-.008.048-.01.055-.016.058-.013.05-.028.075-.012.03a1.152 1.152 0 0 1-.05.1 1.22 1.22 0 0 1-.059.095l-.017.024a1.125 1.125 0 0 1-.05.065l-.026.029a1.033 1.033 0 0 1-.05.052l-.032.031c-.016.015-.032.03-.049.043l-.04.03a.43.43 0 0 1-.048.036l-.045.03-.05.029-.048.026-.053.024a.61.61 0 0 1-.049.02l-.06.022-.046.015-.071.018-.04.009c-.03.006-.062.01-.094.014-.007 0-.014.002-.02.003-.04.003-.08.006-.12.006h-5.417C74.15 55.587 70.265 59 65.573 59c-4.692 0-8.577-3.413-9.175-7.82H36.896C36.3 55.588 32.414 59 27.722 59c-4.692 0-8.577-3.413-9.175-7.82h-5.414c-.04 0-.08-.001-.12-.005h-.001a1.164 1.164 0 0 1-.107-.016c-.005 0-.01 0-.015-.002a1.234 1.234 0 0 1-.11-.027l-.008-.003a1.32 1.32 0 0 1-.093-.032l-.02-.007c-.022-.009-.044-.02-.065-.03a1.218 1.218 0 0 1-.282-.188c-.014-.012-.028-.023-.04-.036l-.008-.007a1.18 1.18 0 0 1-.289-.463l-.004-.013-.013-.047c-.006-.022-.013-.044-.017-.067l-.005-.026a1.185 1.185 0 0 1-.014-.09c-.001-.01 0-.02-.002-.03a1.173 1.173 0 0 1-.004-.09v-.003c0-.022.002-.043.003-.065.001-.016 0-.032.002-.049l.001-.004v-.005l1.257-12.608v-.004l.812-8.153H9.89c-.672 0-1.216-.53-1.216-1.183 0-.652.544-1.182 1.216-1.182h4.338L15.72 11.77H1.216C.544 11.77 0 11.24 0 10.588c0-.653.544-1.183 1.216-1.183h14.739l.83-8.337.001-.006.004-.027c.005-.03.009-.061.015-.09 0-.005.002-.008.003-.012.12-.542.615-.933 1.186-.933h14.592c.67 0 1.216.53 1.216 1.182 0 .651-.547 1.182-1.216 1.182H19.099l-.701 7.041h12.567c.671 0 1.216.53 1.216 1.183s-.545 1.182-1.216 1.182H18.162L16.67 26.745h7.808c.672 0 1.216.53 1.216 1.182 0 .654-.544 1.183-1.216 1.183h-8.044l-.706 7.094h42.247l.61-6.817.001-.006 2.42-27.017H37.449c-.671 0-1.216-.53-1.216-1.182C36.233.53 36.778 0 37.45 0h24.882l.042.002c.022 0 .043 0 .064.002l.01.001.06.008.062.01c.017.003.033.008.05.012.023.005.047.01.07.017l.03.01.084.03.011.005c.436.184.733.606.733 1.084v.009c0 .031 0 .063-.004.094L61.97 18.863h5.225C75.91 18.863 83 25.758 83 34.233zm-21.878-5.911h4.974l.635-7.094h-4.974zM34.548 49.998c0-3.66-3.062-6.637-6.826-6.637-3.763 0-6.826 2.977-6.826 6.637 0 3.66 3.062 6.637 6.826 6.637s6.826-2.977 6.826-6.637zm37.85 0c0-3.66-3.061-6.637-6.825-6.637-3.764 0-6.825 2.977-6.825 6.637 0 3.66 3.061 6.637 6.825 6.637 3.764 0 6.826-2.977 6.826-6.637zm7.87-11.533c-2.784-.446-4.423-2.276-5.89-3.915-1.779-1.988-3.459-3.864-7.184-3.864H60.91l-.61 6.802v.009l-.009.058-.008.056-.014.057-.015.055-.017.052-.022.056-.02.047-.03.056c-.006.014-.015.028-.023.042l-.034.055-.028.039a1.444 1.444 0 0 1-.114.133l-.036.036a.886.886 0 0 1-.087.073l-.047.035-.045.03a.93.93 0 0 1-.05.029c-.016.01-.033.018-.05.027-.016.009-.034.017-.052.025l-.05.022-.061.022c-.016.005-.031.011-.047.015-.024.008-.048.013-.073.019l-.04.009a.925.925 0 0 1-.094.013l-.022.004a1.21 1.21 0 0 1-.121.006H15.492l-1.021 10.247h4.076c.597-4.407 4.483-7.82 9.175-7.82 4.692 0 8.577 3.413 9.175 7.82h19.501c.598-4.407 4.483-7.82 9.175-7.82 4.693 0 8.578 3.413 9.175 7.82h4.34c.255-2.044.827-6.713 1.18-10.35zm.3-4.231c0-6.522-4.963-11.937-11.409-12.864l-.629 7.023c3.941.427 5.997 2.724 7.682 4.605 1.346 1.504 2.458 2.74 4.265 3.098a27.58 27.58 0 0 0 .091-1.862zM32.18 49.998c0 2.39-2 4.335-4.458 4.335s-4.458-1.945-4.458-4.335c0-2.39 2-4.336 4.458-4.336s4.458 1.945 4.458 4.336zm-2.432 0c0-1.087-.908-1.97-2.026-1.97-1.117 0-2.026.883-2.026 1.97s.909 1.97 2.026 1.97c1.117 0 2.026-.883 2.026-1.97zm40.283 0c0 2.39-2 4.335-4.458 4.335s-4.458-1.945-4.458-4.335c0-2.39 2-4.336 4.458-4.336s4.458 1.945 4.458 4.336zm-2.432 0c0-1.087-.909-1.97-2.026-1.97-1.118 0-2.027.883-2.027 1.97s.91 1.97 2.027 1.97 2.026-.883 2.026-1.97zM12.726 20.046c0 .653-.545 1.182-1.216 1.182H5.566c-.672 0-1.216-.53-1.216-1.182 0-.653.544-1.183 1.216-1.183h5.944c.671 0 1.216.53 1.216 1.183z" fill="#fff"/></svg>