<svg id="SVGDoc" width="48" height="65" xmlns="http://www.w3.org/2000/svg" version="1.1"><path d="M48 65H0c0-13.023 1.892-20.737 1.892-20.737.71-3.607 3.516-10.042 11.438-12.256.876-.243 1.333-.358 7.046 12.601l1.37-8.955h-1.904v-2.097h8.316v2.097h-1.905l1.371 8.994c5.751-12.972 6.208-12.87 7.11-12.627 4.786 1.292 8.632 4.72 10.537 9.416C45.626 42.33 48 49.84 48 65zM21.937 48.164c.635 1.459 1.308 3.033 2.057 4.76a633.88 633.88 0 0 1 2.056-4.734l-1.917-12.537h-.292zm15.577 4.248v10.49h8.404c0-10.771-2.272-19.906-2.577-20.66-1.574-3.864-4.646-6.742-8.506-7.996-1.472 2.571-10.841 23.948-10.841 23.948s-9.319-21.39-10.791-23.973c-6.246 2.047-8.658 7.317-9.28 10.439 0 0-1.854 7.982-1.854 18.23h8.404V52.411h2.082V62.89h22.877V52.412zm0-49.009v14.43h-1.092c-.52 6.524-5.763 13.624-12.428 13.624-6.665 0-11.908-7.1-12.429-13.611h-1.092V3.403L23.993 0zM34.34 17.846H13.647c.52 5.463 4.938 11.526 10.347 11.526 5.408 0 9.826-6.076 10.346-11.526zM35.432 5.04L23.994 2.162 12.555 5.04v10.708h22.877zm-8.315 2.328v2.099h-2.082v2.085h-2.082V9.467H20.87V7.368h2.082V5.271h2.082v2.097z" fill="#fff"/></svg>