<svg xmlns="http://www.w3.org/2000/svg" width="75" height="62" viewBox="0 0 75 62">
  <metadata><?xpacket begin="﻿" id="W5M0MpCehiHzreSzNTczkc9d"?>
<x:xmpmeta xmlns:x="adobe:ns:meta/" x:xmptk="Adobe XMP Core 5.6-c142 79.160924, 2017/07/13-01:06:39        ">
   <rdf:RDF xmlns:rdf="http://www.w3.org/1999/02/22-rdf-syntax-ns#">
      <rdf:Description rdf:about=""/>
   </rdf:RDF>
</x:xmpmeta>
                                                                                                    
                                                                                                    
                                                                                                    
                                                                                                    
                                                                                                    
                                                                                                    
                                                                                                    
                                                                                                    
                                                                                                    
                                                                                                    
                                                                                                    
                                                                                                    
                                                                                                    
                                                                                                    
                                                                                                    
                                                                                                    
                                                                                                    
                                                                                                    
                                                                                                    
                                                                                                    
                           
<?xpacket end="w"?></metadata>
<defs>
    <style>
      .cls-1 {
        fill: #fff;
        fill-rule: evenodd;
      }
    </style>
  </defs>
  <path id="quality" class="cls-1" d="M58.854,13.247H16.146a1.121,1.121,0,0,0,0,2.242H58.854A1.121,1.121,0,0,0,58.854,13.247Zm0,12.207H16.146a1.121,1.121,0,0,0,0,2.242H58.854A1.121,1.121,0,0,0,58.854,25.454Zm-14,7.922h-14.7a1.121,1.121,0,0,0,0,2.242h14.7A1.121,1.121,0,0,0,44.853,33.376Zm14-14.05H27a1.121,1.121,0,0,0,0,2.242H58.854A1.121,1.121,0,0,0,58.854,19.326Zm-36.972,0H16.146a1.121,1.121,0,0,0,0,2.242h5.736A1.121,1.121,0,0,0,21.882,19.326Zm47.442-7.973a1.34,1.34,0,0,0-.955-0.4h0a4.185,4.185,0,0,1-4.153-4.044A1.363,1.363,0,0,0,62.862,5.6H11.877a1.363,1.363,0,0,0-1.353,1.316,4.225,4.225,0,0,1-3.962,4.039,1.366,1.366,0,0,0-1.29,1.38V41.31a1.366,1.366,0,0,0,1.29,1.38,4.224,4.224,0,0,1,3.962,4.04,1.363,1.363,0,0,0,1.353,1.315H44.334a1.121,1.121,0,0,0,0-2.242h-31.7A6.372,6.372,0,0,0,7.47,40.539V13.1a6.372,6.372,0,0,0,5.163-5.264H62.106a6.4,6.4,0,0,0,5.424,5.3V32.181a1.1,1.1,0,1,0,2.2,0V12.337A1.385,1.385,0,0,0,69.324,11.353ZM71.948,0H3.052A3.086,3.086,0,0,0,0,3.112V50.528A3.086,3.086,0,0,0,3.052,53.64H49.2l-1.634,3.491A1.35,1.35,0,0,0,47.7,58.5a1.292,1.292,0,0,0,1.253.517l3.042-.5,1.7,2.84A1.3,1.3,0,0,0,54.807,62l0.067,0a1.305,1.305,0,0,0,1.112-.756l2.948-6.3,2.948,6.3A1.3,1.3,0,0,0,62.994,62l0.067,0a1.3,1.3,0,0,0,1.115-.638l1.7-2.84,3.042,0.5a1.291,1.291,0,0,0,1.253-.518,1.348,1.348,0,0,0,.133-1.371l-1.634-3.491h3.281A3.086,3.086,0,0,0,75,50.529V3.112A3.086,3.086,0,0,0,71.948,0ZM54.712,58.758l-1.151-1.926a1.292,1.292,0,0,0-1.323-.622l-1.953.32,2.058-4.4a3.876,3.876,0,0,0,3.165,1.184,1.693,1.693,0,0,1,1.157.316,3.878,3.878,0,0,0,.342.219ZM59.2,52.111h-0.01a1.7,1.7,0,0,1-.5,0H58.671a1.7,1.7,0,0,1-.732-0.3,3.866,3.866,0,0,0-2.269-.738q-0.184,0-.369.018a1.713,1.713,0,0,1-1.723-1.014,4.009,4.009,0,0,0-.507-0.833c-0.009-.013-0.018-0.024-0.028-0.037l-0.033-.042c-0.013-.015-0.026-0.03-0.04-0.044A3.919,3.919,0,0,0,51.646,48.1a1.758,1.758,0,0,1-.995-1.757,4.054,4.054,0,0,0-.707-2.69,1.78,1.78,0,0,1,0-2.029,4.054,4.054,0,0,0,.707-2.69,1.757,1.757,0,0,1,.995-1.757,3.956,3.956,0,0,0,1.931-1.969A1.715,1.715,0,0,1,55.3,34.2a3.861,3.861,0,0,0,2.638-.721,1.692,1.692,0,0,1,1.99,0,3.866,3.866,0,0,0,2.638.721,1.713,1.713,0,0,1,1.724,1.014,3.954,3.954,0,0,0,1.931,1.969,1.758,1.758,0,0,1,1,1.757,4.053,4.053,0,0,0,.707,2.69,1.78,1.78,0,0,1,0,2.029,4.054,4.054,0,0,0-.707,2.69,1.758,1.758,0,0,1-1,1.757A3.926,3.926,0,0,0,64.9,49.114l-0.043.048-0.028.036c-0.011.014-.022,0.028-0.032,0.043a4,4,0,0,0-.505.831,1.714,1.714,0,0,1-1.724,1.014,3.867,3.867,0,0,0-2.638.721A1.7,1.7,0,0,1,59.2,52.111Zm6.433,4.1a1.292,1.292,0,0,0-1.323.622l-1.151,1.926-2.3-4.9a3.921,3.921,0,0,0,.342-0.219,1.69,1.69,0,0,1,1.157-.316,3.876,3.876,0,0,0,3.166-1.184l2.057,4.4ZM72.8,50.529a0.863,0.863,0,0,1-.853.87H67.617l-0.567-1.211c0.028-.016.057-0.032,0.087-0.045a4.009,4.009,0,0,0,2.269-4.007,1.776,1.776,0,0,1,.31-1.18,4.06,4.06,0,0,0,0-4.627,1.778,1.778,0,0,1-.31-1.18,4.01,4.01,0,0,0-2.269-4.007,1.736,1.736,0,0,1-.847-0.863,3.909,3.909,0,0,0-3.93-2.314,1.689,1.689,0,0,1-1.157-.316,3.858,3.858,0,0,0-4.538,0,1.692,1.692,0,0,1-1.157.316,3.907,3.907,0,0,0-3.93,2.314,1.735,1.735,0,0,1-.847.863,4.009,4.009,0,0,0-2.269,4.007,1.778,1.778,0,0,1-.31,1.18,4.06,4.06,0,0,0,0,4.627,1.776,1.776,0,0,1,.31,1.18,4.009,4.009,0,0,0,2.269,4.007c0.03,0.014.058,0.03,0.086,0.045L50.251,51.4H3.052a0.863,0.863,0,0,1-.853-0.87V3.112a0.863,0.863,0,0,1,.853-0.87h68.9a0.863,0.863,0,0,1,.853.87V50.529h0ZM58.854,35.677a6.967,6.967,0,1,0,6.831,6.965A6.907,6.907,0,0,0,58.854,35.677Zm0,11.688a4.724,4.724,0,1,1,4.632-4.723A4.684,4.684,0,0,1,58.854,47.365Z"/>
</svg>
