<svg id="SVGDoc" width="21" height="17" xmlns="http://www.w3.org/2000/svg" version="1.1"><path d="M21 2.012a9 9 0 0 1-2.48.678A4.27 4.27 0 0 0 20.412.32a8.62 8.62 0 0 1-2.73 1.037A4.323 4.323 0 0 0 14.54 0a4.296 4.296 0 0 0-4.303 4.29c0 .34.03.667.1.979A12.199 12.199 0 0 1 1.462.782a4.306 4.306 0 0 0-.59 2.168c0 1.486.769 2.802 1.913 3.565A4.272 4.272 0 0 1 .84 5.987v.047c0 2.084 1.492 3.816 3.45 4.214a4.3 4.3 0 0 1-1.13.142 3.82 3.82 0 0 1-.815-.074 4.345 4.345 0 0 0 4.023 2.989 8.673 8.673 0 0 1-5.338 1.829A8.06 8.06 0 0 1 0 15.075 12.152 12.152 0 0 0 6.604 17c7.923 0 12.254-6.538 12.254-12.206 0-.19-.007-.373-.016-.554A8.569 8.569 0 0 0 21 2.012z" fill="#8b9297"/></svg>