<svg width="1921" height="1081" viewBox="0 0 1921 1081" fill="none" xmlns="http://www.w3.org/2000/svg">
<path d="M550.793 435.973C568.19 435.973 582.293 421.87 582.293 404.473C582.293 387.076 568.19 372.973 550.793 372.973C533.396 372.973 519.293 387.076 519.293 404.473C519.293 421.87 533.396 435.973 550.793 435.973Z" fill="#C1C1C1"/>
<path d="M535.973 403.523H533.973V383.353C533.973 382.803 534.423 382.353 534.973 382.353C535.523 382.353 535.973 382.803 535.973 383.353V403.523Z" fill="#565B5E"/>
<path d="M566.253 403.523H564.253V383.353C564.253 382.803 564.703 382.353 565.253 382.353C565.803 382.353 566.253 382.803 566.253 383.353V403.523Z" fill="#565B5E"/>
<path d="M570.473 410.163H568.473V389.993C568.473 389.443 568.923 388.993 569.473 388.993C570.023 388.993 570.473 389.443 570.473 389.993V410.163Z" fill="#565B5E"/>
<path d="M531.973 410.163H529.973V389.993C529.973 389.443 530.423 388.993 530.973 388.993C531.523 388.993 531.973 389.443 531.973 389.993V410.163Z" fill="#565B5E"/>
<path d="M565.903 424.413H535.673C534.733 424.413 533.963 423.653 533.963 422.703V403.953C533.963 403.013 534.723 402.243 535.673 402.243H565.903C566.843 402.243 567.613 403.003 567.613 403.953V422.703C567.613 423.653 566.843 424.413 565.903 424.413Z" fill="#565B5E"/>
<path d="M570.133 408.413H566.603V410.163H570.133V408.413Z" fill="#565B5E"/>
<path d="M534.673 408.413H531.143V410.163H534.673V408.413Z" fill="#565B5E"/>
<path d="M564.543 424.413H534.313C533.373 424.413 532.603 423.653 532.603 422.703V403.953C532.603 403.013 533.363 402.243 534.313 402.243H564.543C565.483 402.243 566.253 403.003 566.253 403.953V422.703C566.253 423.653 565.483 424.413 564.543 424.413Z" fill="#2A3234"/>
<path d="M550.793 435.973C568.19 435.973 582.293 421.87 582.293 404.473C582.293 387.076 568.19 372.973 550.793 372.973C533.396 372.973 519.293 387.076 519.293 404.473C519.293 421.87 533.396 435.973 550.793 435.973Z" stroke="#304D5B" stroke-miterlimit="10" stroke-linecap="round" stroke-linejoin="round"/>
<path d="M547.583 413.533L546.743 416.073H545.663L548.413 407.993H549.673L552.433 416.073H551.313L550.453 413.533H547.583ZM550.233 412.723L549.443 410.393C549.263 409.863 549.143 409.383 549.023 408.913H549.003C548.883 409.393 548.753 409.883 548.593 410.373L547.803 412.713H550.233V412.723Z" fill="#565B5E"/>
<path d="M937.123 824.703C954.52 824.703 968.623 810.6 968.623 793.203C968.623 775.806 954.52 761.703 937.123 761.703C919.726 761.703 905.623 775.806 905.623 793.203C905.623 810.6 919.726 824.703 937.123 824.703Z" fill="#C1C1C1"/>
<path d="M922.303 792.253H920.303V772.083C920.303 771.533 920.753 771.083 921.303 771.083C921.853 771.083 922.303 771.533 922.303 772.083V792.253Z" fill="#565B5E"/>
<path d="M952.583 792.253H950.583V772.083C950.583 771.533 951.033 771.083 951.583 771.083C952.133 771.083 952.583 771.533 952.583 772.083V792.253Z" fill="#565B5E"/>
<path d="M956.803 798.893H954.803V778.723C954.803 778.173 955.253 777.723 955.803 777.723C956.353 777.723 956.803 778.173 956.803 778.723V798.893Z" fill="#565B5E"/>
<path d="M918.303 798.893H916.303V778.723C916.303 778.173 916.753 777.723 917.303 777.723C917.853 777.723 918.303 778.173 918.303 778.723V798.893Z" fill="#565B5E"/>
<path d="M952.233 813.143H922.003C921.063 813.143 920.293 812.383 920.293 811.433V792.683C920.293 791.743 921.053 790.973 922.003 790.973H952.233C953.173 790.973 953.943 791.733 953.943 792.683V811.433C953.943 812.383 953.173 813.143 952.233 813.143Z" fill="#565B5E"/>
<path d="M956.463 797.143H952.933V798.893H956.463V797.143Z" fill="#565B5E"/>
<path d="M921.003 797.143H917.473V798.893H921.003V797.143Z" fill="#565B5E"/>
<path d="M950.873 813.143H920.643C919.703 813.143 918.933 812.383 918.933 811.433V792.683C918.933 791.743 919.693 790.973 920.643 790.973H950.873C951.813 790.973 952.583 791.733 952.583 792.683V811.433C952.583 812.383 951.813 813.143 950.873 813.143Z" fill="#2A3234"/>
<path d="M937.123 824.703C954.52 824.703 968.623 810.6 968.623 793.203C968.623 775.806 954.52 761.703 937.123 761.703C919.726 761.703 905.623 775.806 905.623 793.203C905.623 810.6 919.726 824.703 937.123 824.703Z" stroke="#304D5B" stroke-miterlimit="10" stroke-linecap="round" stroke-linejoin="round"/>
<path d="M933.913 802.263L933.073 804.803H931.993L934.743 796.723H936.003L938.763 804.803H937.643L936.783 802.263H933.913ZM936.563 801.443L935.773 799.113C935.593 798.583 935.473 798.103 935.353 797.633H935.333C935.213 798.113 935.083 798.603 934.923 799.093L934.133 801.433H936.563V801.443Z" fill="#565B5E"/>
<path d="M1527.47 541.873C1544.87 541.873 1558.97 527.77 1558.97 510.373C1558.97 492.976 1544.87 478.873 1527.47 478.873C1510.08 478.873 1495.97 492.976 1495.97 510.373C1495.97 527.77 1510.08 541.873 1527.47 541.873Z" fill="#C1C1C1"/>
<path d="M1512.65 509.423H1510.65V489.253C1510.65 488.703 1511.1 488.253 1511.65 488.253C1512.2 488.253 1512.65 488.703 1512.65 489.253V509.423Z" fill="#565B5E"/>
<path d="M1542.93 509.423H1540.93V489.253C1540.93 488.703 1541.38 488.253 1541.93 488.253C1542.48 488.253 1542.93 488.703 1542.93 489.253V509.423Z" fill="#565B5E"/>
<path d="M1547.15 516.063H1545.15V495.893C1545.15 495.343 1545.6 494.893 1546.15 494.893C1546.7 494.893 1547.15 495.343 1547.15 495.893V516.063Z" fill="#565B5E"/>
<path d="M1508.65 516.063H1506.65V495.893C1506.65 495.343 1507.1 494.893 1507.65 494.893C1508.2 494.893 1508.65 495.343 1508.65 495.893V516.063Z" fill="#565B5E"/>
<path d="M1542.58 530.313H1512.35C1511.41 530.313 1510.64 529.553 1510.64 528.603V509.853C1510.64 508.913 1511.4 508.143 1512.35 508.143H1542.58C1543.52 508.143 1544.29 508.903 1544.29 509.853V528.603C1544.29 529.553 1543.53 530.313 1542.58 530.313Z" fill="#565B5E"/>
<path d="M1546.81 514.313H1543.28V516.063H1546.81V514.313Z" fill="#565B5E"/>
<path d="M1511.35 514.313H1507.82V516.063H1511.35V514.313Z" fill="#565B5E"/>
<path d="M1541.22 530.313H1510.99C1510.05 530.313 1509.28 529.553 1509.28 528.603V509.853C1509.28 508.913 1510.04 508.143 1510.99 508.143H1541.22C1542.16 508.143 1542.93 508.903 1542.93 509.853V528.603C1542.93 529.553 1542.17 530.313 1541.22 530.313Z" fill="#2A3234"/>
<path d="M1527.47 541.873C1544.87 541.873 1558.97 527.77 1558.97 510.373C1558.97 492.976 1544.87 478.873 1527.47 478.873C1510.08 478.873 1495.97 492.976 1495.97 510.373C1495.97 527.77 1510.08 541.873 1527.47 541.873Z" stroke="#304D5B" stroke-miterlimit="10" stroke-linecap="round" stroke-linejoin="round"/>
<path d="M1524.26 519.433L1523.42 521.973H1522.34L1525.09 513.893H1526.35L1529.11 521.973H1527.99L1527.13 519.433H1524.26ZM1526.91 518.623L1526.12 516.293C1525.94 515.763 1525.82 515.283 1525.7 514.813H1525.68C1525.56 515.293 1525.43 515.783 1525.27 516.273L1524.48 518.613H1526.91V518.623Z" fill="#565B5E"/>
</svg>
