<svg xmlns="http://www.w3.org/2000/svg" width="119.336" height="50" viewBox="0 0 119.336 50">
  <path id="logo" d="M100.416,50a15.618,15.618,0,0,1-3.038-.3l.349-3.075a7.9,7.9,0,0,0,2.489.4,3.579,3.579,0,0,0,2.738-1.067,9.23,9.23,0,0,0,1.743-3.05l1.892-4.861L96.632,14.881h3.784l7.916,19.594h.1l7.22-19.594h3.685L107.735,44.1a12.315,12.315,0,0,1-2.664,4.29A6.345,6.345,0,0,1,100.416,50ZM85.927,38.1H82.541V17.708h-4.88V14.881h4.88V8.531a9.377,9.377,0,0,1,1.942-6.25C85.772.768,87.782,0,90.457,0c.427,0,.9.025,1.394.075a7.186,7.186,0,0,1,1.394.273l-.6,2.976c-.352-.1-.72-.18-1.1-.248a7.128,7.128,0,0,0-1.246-.1,4.854,4.854,0,0,0-2.215.446,3.206,3.206,0,0,0-1.345,1.264A5.516,5.516,0,0,0,86.1,6.6a14.78,14.78,0,0,0-.175,2.332v5.952H91.4v2.828H85.927V38.094Zm-23,0H59.538V19.99c0-.616-.016-1.411-.049-2.431-.033-.993-.084-1.894-.149-2.678h3.236c.066.627.116,1.328.149,2.083.034.8.05,1.414.05,1.886h.1a8.092,8.092,0,0,1,2.987-3.3,8.226,8.226,0,0,1,4.482-1.264c.423,0,.817.017,1.17.049a6.376,6.376,0,0,1,1.07.2l-.448,3.224a6.549,6.549,0,0,0-1-.2,10,10,0,0,0-1.394-.1,6.981,6.981,0,0,0-2.589.495,5.59,5.59,0,0,0-2.166,1.559A8.206,8.206,0,0,0,63.5,22.235a12.3,12.3,0,0,0-.572,3.983V38.094Zm-14.44,0H45.1V14.881h3.386V38.094ZM0,37.98v0l4.077-9.194,29.785-8.476L0,37.979Zm33.948-.124H29.965l-3.883-9.221-.1-.224,3.173-1.661,4.789,11.105ZM5.844,24.591v0L15.326,2.723h3.485l6.974,16.193-3.334.961L16.969,6.716l-6.955,16.7L5.846,24.59ZM46.792,8.333a2.419,2.419,0,0,1-1.643-.67A2.205,2.205,0,0,1,44.4,5.953a2.206,2.206,0,0,1,.747-1.712,2.351,2.351,0,0,1,3.287,0,2.206,2.206,0,0,1,.746,1.712,2.2,2.2,0,0,1-.746,1.711A2.423,2.423,0,0,1,46.792,8.333Z" transform="translate(0)" fill="#fff"/>
</svg>
