<?xml version="1.0" encoding="utf-8"?>
<!-- Generator: Adobe Illustrator 22.1.0, SVG Export Plug-In . SVG Version: 6.00 Build 0)  -->
<svg version="1.1" id="Layer_1" xmlns="http://www.w3.org/2000/svg" xmlns:xlink="http://www.w3.org/1999/xlink" x="0px" y="0px"
	 viewBox="0 0 800 400" style="enable-background:new 0 0 800 400;" xml:space="preserve">
<style type="text/css">
	.st0{display:none;}
	.st1{display:inline;fill:#999999;}
	.st2{fill:url(#SVGID_1_);}
</style>
<g class="st0">
	<path class="st1" d="M305,245.8l0.8-1.1c0.6,0.6,1.4,1.1,2.5,1.1c1.2,0,1.6-0.6,1.6-1.1c0-1.7-4.7-0.6-4.7-3.6
		c0-1.3,1.2-2.4,2.9-2.4c1.3,0,2.3,0.4,3,1.1l-0.8,1c-0.6-0.6-1.5-0.9-2.3-0.9c-0.8,0-1.4,0.4-1.4,1c0,1.5,4.7,0.6,4.7,3.6
		c0,1.3-0.9,2.5-3.1,2.5C306.8,247.1,305.7,246.5,305,245.8z"/>
	<path class="st1" d="M313.2,246.9v-8.1h5.5v1.2h-4.1v2.1h4v1.2h-4v2.2h4.1v1.2H313.2z"/>
	<path class="st1" d="M320.3,242.9c0-2.5,1.8-4.2,4.2-4.2c1.6,0,2.6,0.8,3.2,1.8l-1.2,0.6c-0.4-0.7-1.2-1.2-2-1.2
		c-1.6,0-2.8,1.2-2.8,2.9c0,1.7,1.2,2.9,2.8,2.9c0.9,0,1.6-0.5,2-1.2l1.2,0.6c-0.6,1-1.6,1.8-3.2,1.8
		C322.1,247.1,320.3,245.4,320.3,242.9z"/>
	<path class="st1" d="M329.3,243.7v-4.9h1.4v4.8c0,1.3,0.7,2.1,2.1,2.1c1.3,0,2.1-0.8,2.1-2.1v-4.8h1.4v4.9c0,2-1.1,3.3-3.5,3.3
		C330.5,247.1,329.3,245.7,329.3,243.7z"/>
	<path class="st1" d="M343.1,246.9l-1.8-3h-1.4v3h-1.4v-8.1h3.5c1.6,0,2.6,1,2.6,2.5c0,1.4-0.9,2.2-1.9,2.4l2,3.2H343.1z
		 M343.2,241.4c0-0.8-0.6-1.3-1.4-1.3h-1.9v2.6h1.9C342.7,242.7,343.2,242.2,343.2,241.4z"/>
	<path class="st1" d="M346.6,246.9v-8.1h1.4v8.1H346.6z"/>
	<path class="st1" d="M352.1,246.9v-6.8h-2.4v-1.2h6.3v1.2h-2.4v6.8H352.1z"/>
	<path class="st1" d="M359.9,246.9v-3.3l-3.1-4.7h1.6l2.2,3.5l2.2-3.5h1.6l-3.1,4.7v3.3H359.9z"/>
	<path class="st1" d="M376.4,246.9v-6l-2.5,6h-0.6l-2.5-6v6h-1.4v-8.1h2l2.2,5.3l2.2-5.3h2v8.1H376.4z"/>
	<path class="st1" d="M380,246.9v-8.1h5.5v1.2h-4.1v2.1h4v1.2h-4v2.2h4.1v1.2H380z"/>
	<path class="st1" d="M386.9,245.8l0.8-1.1c0.6,0.6,1.4,1.1,2.5,1.1c1.2,0,1.6-0.6,1.6-1.1c0-1.7-4.7-0.6-4.7-3.6
		c0-1.3,1.2-2.4,2.9-2.4c1.3,0,2.3,0.4,3,1.1l-0.8,1c-0.6-0.6-1.5-0.9-2.3-0.9c-0.8,0-1.4,0.4-1.4,1c0,1.5,4.7,0.6,4.7,3.6
		c0,1.3-0.9,2.5-3.1,2.5C388.7,247.1,387.6,246.5,386.9,245.8z"/>
	<path class="st1" d="M394.6,245.8l0.8-1.1c0.6,0.6,1.4,1.1,2.5,1.1c1.2,0,1.6-0.6,1.6-1.1c0-1.7-4.7-0.6-4.7-3.6
		c0-1.3,1.2-2.4,2.9-2.4c1.3,0,2.3,0.4,3,1.1l-0.8,1c-0.6-0.6-1.5-0.9-2.3-0.9c-0.8,0-1.4,0.4-1.4,1c0,1.5,4.7,0.6,4.7,3.6
		c0,1.3-0.9,2.5-3.1,2.5C396.4,247.1,395.3,246.5,394.6,245.8z"/>
	<path class="st1" d="M408.3,246.9l-0.6-1.5H404l-0.6,1.5h-1.6l3.2-8.1h1.8l3.2,8.1H408.3z M405.8,240.3l-1.4,3.8h2.9L405.8,240.3z"
		/>
	<path class="st1" d="M410.5,242.9c0-2.5,1.9-4.2,4.2-4.2c1.6,0,2.6,0.7,3.2,1.7l-1.2,0.7c-0.4-0.6-1.2-1.1-2.1-1.1
		c-1.6,0-2.8,1.2-2.8,2.9c0,1.7,1.2,2.9,2.8,2.9c0.8,0,1.5-0.4,1.9-0.7v-1.3h-2.4v-1.2h3.8v3c-0.8,0.9-1.9,1.5-3.3,1.5
		C412.4,247.1,410.5,245.4,410.5,242.9z"/>
	<path class="st1" d="M420,246.9v-8.1h1.4v8.1H420z"/>
	<path class="st1" d="M429.2,246.9l-4.2-5.7v5.7h-1.4v-8.1h1.4l4.1,5.6v-5.6h1.4v8.1H429.2z"/>
	<path class="st1" d="M432.4,242.9c0-2.5,1.9-4.2,4.2-4.2c1.6,0,2.6,0.7,3.2,1.7l-1.2,0.7c-0.4-0.6-1.2-1.1-2.1-1.1
		c-1.6,0-2.8,1.2-2.8,2.9c0,1.7,1.2,2.9,2.8,2.9c0.8,0,1.5-0.4,1.9-0.7v-1.3h-2.4v-1.2h3.8v3c-0.8,0.9-1.9,1.5-3.3,1.5
		C434.3,247.1,432.4,245.4,432.4,242.9z"/>
	<path class="st1" d="M445,245.8l0.8-1.1c0.6,0.6,1.4,1.1,2.5,1.1c1.2,0,1.6-0.6,1.6-1.1c0-1.7-4.7-0.6-4.7-3.6
		c0-1.3,1.2-2.4,2.9-2.4c1.3,0,2.3,0.4,3,1.1l-0.8,1c-0.6-0.6-1.5-0.9-2.3-0.9c-0.8,0-1.4,0.4-1.4,1c0,1.5,4.7,0.6,4.7,3.6
		c0,1.3-0.9,2.5-3.1,2.5C446.7,247.1,445.7,246.5,445,245.8z"/>
	<path class="st1" d="M453.1,246.9v-8.1h5.5v1.2h-4.1v2.1h4v1.2h-4v2.2h4.1v1.2H453.1z"/>
	<path class="st1" d="M465.2,246.9l-1.8-3H462v3h-1.4v-8.1h3.5c1.6,0,2.6,1,2.6,2.5c0,1.4-0.9,2.2-1.9,2.4l2,3.2H465.2z
		 M465.3,241.4c0-0.8-0.6-1.3-1.4-1.3H462v2.6h1.9C464.7,242.7,465.3,242.2,465.3,241.4z"/>
	<path class="st1" d="M470.9,246.9l-3.2-8.1h1.6l2.4,6.5l2.4-6.5h1.6l-3.2,8.1H470.9z"/>
	<path class="st1" d="M477.2,246.9v-8.1h1.4v8.1H477.2z"/>
	<path class="st1" d="M480.4,242.9c0-2.5,1.8-4.2,4.2-4.2c1.6,0,2.6,0.8,3.2,1.8l-1.2,0.6c-0.4-0.7-1.2-1.2-2-1.2
		c-1.6,0-2.8,1.2-2.8,2.9c0,1.7,1.2,2.9,2.8,2.9c0.9,0,1.6-0.5,2-1.2l1.2,0.6c-0.6,1-1.6,1.8-3.2,1.8
		C482.2,247.1,480.4,245.4,480.4,242.9z"/>
	<path class="st1" d="M489.5,246.9v-8.1h5.5v1.2h-4.1v2.1h4v1.2h-4v2.2h4.1v1.2H489.5z"/>
</g>
<linearGradient id="SVGID_1_" gradientUnits="userSpaceOnUse" x1="50" y1="200" x2="750" y2="200">
	<stop  offset="0" style="stop-color:#1FA4CA"/>
	<stop  offset="1" style="stop-color:#52B688"/>
</linearGradient>
<path class="st2" d="M194.8,205.1h6.7l-0.1,0.9c-1.4,18-9.2,34.9-22,47.6c-14.3,14.3-33.4,22.2-53.6,22.2
	c-20.3,0-39.3-7.9-53.6-22.2C57.9,239.3,50,220.3,50,200c0-20.3,7.9-39.3,22.2-53.6c14.3-14.3,33.4-22.2,53.6-22.2
	s39.3,7.9,53.6,22.2c12.9,12.9,20.7,30.1,22,48.3l0.1,0.9h-6.7l-0.1-0.8c-1.2-16.5-8.4-32-20-43.7c-13.1-13.1-30.4-20.3-48.9-20.3
	c-18.5,0-35.8,7.2-48.9,20.3c-13.1,13.1-20.3,30.4-20.3,48.9c0,18.5,7.2,35.8,20.3,48.9c13.1,13.1,30.4,20.3,48.9,20.3
	c18.5,0,35.8-7.2,48.9-20.3c11.5-11.5,18.6-26.8,20-43L194.8,205.1z M172.6,212.9c0.9-2.2,1.4-4.5,1.4-6.9c0-2.4-0.5-4.7-1.4-6.9
	c-0.9-2.2-2.2-4.1-3.9-5.8c-1.7-1.7-3.7-3-5.8-3.9c-2.2-0.9-4.5-1.4-6.9-1.4c-10.2,0-17.2,9.3-24.7,19.2
	c-8.7,11.5-17.7,23.5-33.1,23.5c-3.6,0-7.1-0.7-10.4-2.1c-3.3-1.4-6.3-3.4-8.8-5.9c-2.5-2.5-4.5-5.5-5.9-8.8
	c-1.4-3.3-2.1-6.8-2.1-10.4c0-7.3,2.8-14.1,8-19.2c2.5-2.5,5.5-4.5,8.8-5.9c3-1.3,6.2-1.9,9.5-2c0.7,0,1.2-0.4,1.5-1
	c0.3-0.7,0.6-1.4,1-2c0.9-1.7,2-3.3,3.2-4.8c1.2-1.5,2.6-2.9,4.1-4.1c1.5-1.2,3.1-2.3,4.8-3.3c1.8-1,3.6-1.8,5.5-2.3
	c1.9-0.6,3.9-1,5.9-1.2c2-0.2,4-0.2,6,0c2,0.2,4,0.6,5.9,1.2c1.9,0.6,3.7,1.3,5.4,2.2c1.7,0.9,3.3,2,4.8,3.2
	c1.5,1.2,2.9,2.6,4.1,4.1c1.2,1.5,2.3,3.1,3.3,4.8c1,1.8,1.8,3.6,2.3,5.5c0.1,0.4,0.3,0.9,0.4,1.4c0.2,0.7,0.8,1.2,1.6,1.3
	c2.8,0.1,5.6,0.8,8.3,1.8c3,1.3,5.7,3.1,8,5.4c2.3,2.3,4.1,5,5.4,8c1.2,3,1.9,6.2,1.9,9.4c0,3.3-0.6,6.4-1.9,9.4
	c-1.3,3-3.1,5.7-5.4,8c-4.7,4.7-10.9,7.2-17.5,7.2h-22.1c-1.8,0-3.3-1.5-3.3-3.3s1.5-3.3,3.3-3.3H156c4.8,0,9.3-1.9,12.7-5.3
	C170.4,217,171.7,215.1,172.6,212.9z M126,203.2c6.6-8.8,12.9-17.1,21.9-20.4c0.8-0.3,1.3-1.2,1-2.1l0-0.1c-0.5-1.5-1.1-2.9-1.8-4.2
	c-0.7-1.3-1.6-2.6-2.5-3.7c-0.9-1.1-2-2.2-3.2-3.2c-1.2-1-2.5-1.8-3.8-2.5c-1.3-0.7-2.7-1.3-4.2-1.7c-1.5-0.5-3-0.8-4.6-0.9
	c-1.6-0.2-3.1-0.2-4.7,0c-1.6,0.2-3.1,0.5-4.6,0.9c-1.5,0.5-2.9,1.1-4.3,1.8c-1.3,0.7-2.6,1.6-3.7,2.5c-1.1,0.9-2.2,2-3.2,3.2
	c-0.7,0.8-1.3,1.7-1.9,2.7c-0.3,0.5-0.3,0.9-0.2,1.4c0.2,0.5,0.5,0.8,1,1c0.5,0.2,0.9,0.3,1.4,0.5c2.3,1,4.5,2.2,6.4,3.8
	c1.2,0.9,1.5,2,1.5,2.7c0.1,0.9-0.3,1.8-1,2.5c-1.2,1.2-3.1,1.3-4.5,0.2c-1.5-1.2-3.2-2.3-5-3c-2.5-1-5.1-1.5-7.8-1.5
	c-2.7,0-5.4,0.5-7.8,1.5c-2.5,1-4.7,2.5-6.6,4.5c-3.9,3.9-6,9-6,14.5c0,2.7,0.5,5.4,1.5,7.8c1,2.5,2.5,4.7,4.5,6.6
	c1.9,1.9,4.2,3.4,6.6,4.5c2.5,1,5.1,1.5,7.8,1.5C110.2,224,118.2,213.4,126,203.2z M256.8,185.1l5.5-1.8c-2.9-7.3-9.2-12-18-12
	c-9.6,0-17,6.1-17,14.7c0,6.4,3.9,12,13.6,15.4l6.4,2.2c6.7,2.3,10.9,5.3,10.9,11.3c0,6.7-6.7,10.3-13,10.3
	c-6.8,0-12.8-3.9-14.7-10.9l-5.5,1.5c2,9.5,10.5,15,20.2,15c9.3,0,19.6-5.3,19.6-16c0-9.6-6.7-13.3-16.7-16.9l-5.3-1.9
	c-6.7-2.3-9-5.7-9-10.1c0-5.1,4.2-8.9,10.6-8.9C250.4,176.9,254.5,180.2,256.8,185.1z M300.1,171.3c-12.9,0-28.9,10-28.9,29.8
	c0,19.7,16,29.7,28.9,29.7c10.1,0,18.5-5.2,22.3-13.3v12.2h6.7v-57.4h-6.7v12.2C318.6,176.4,310.2,171.3,300.1,171.3z M300.6,177.3
	c10.7,0,22.1,7.5,22.1,23.7c0,16.1-11.4,23.6-22.1,23.6c-10.3,0-22.8-7.7-22.8-23.6C277.8,185.1,290.4,177.3,300.6,177.3z
	 M408.4,171.4c-11.5,0-18.5,8.3-20.6,15c-3.3-10.8-12.5-15-20-15c-12.8,0-18.4,10.7-19,15.2v-14.3h-6.7v57.4h6.7V195
	c1.3-7.8,6.8-17.5,17.9-17.5c8.1,0,15.7,5.3,15.7,17.6v34.5h6.7V195c1.5-8.9,7.6-17.5,18.2-17.5c8.6,0,15.3,5.3,15.3,17.6v34.5h6.7
	v-34.1C429.3,177.6,418.3,171.4,408.4,171.4z M468.8,185.1l5.5-1.8c-2.9-7.3-9.2-12-18-12c-9.6,0-17,6.1-17,14.7
	c0,6.4,3.9,12,13.6,15.4l6.4,2.2c6.7,2.3,10.9,5.3,10.9,11.3c0,6.7-6.7,10.3-13,10.3c-6.8,0-12.8-3.9-14.7-10.9l-5.5,1.5
	c2,9.5,10.5,15,20.2,15c9.3,0,19.6-5.3,19.6-16c0-9.6-6.7-13.3-16.7-16.9l-5.3-1.9c-6.7-2.3-9-5.7-9-10.1c0-5.1,4.2-8.9,10.6-8.9
	C462.4,176.9,466.5,180.2,468.8,185.1z M513.4,171.3c-13.2,0-29.3,10-29.3,29.8c0,19.7,16.1,29.7,29.3,29.7
	c10.3,0,19.4-4.9,24.3-14.1l-5.5-2.2c-3.9,6.6-10.7,10.3-18.8,10.3c-10.3,0-22.7-7.7-22.7-23.6c0-16,12.5-23.7,22.7-23.7
	c8.1,0,14.9,3.6,18.8,10.3l5.5-2.2C532.8,176.1,523.7,171.3,513.4,171.3z M554.2,151.6h-6.7v78h6.7V151.6z M593.7,171.3
	c-13,0-29.1,10-29.1,29.7c0,19.9,16.1,29.8,29.1,29.8s29.1-9.9,29.1-29.8C622.8,181.3,606.7,171.3,593.7,171.3z M593.7,177.3
	c10,0,22.5,7.7,22.5,23.6c0,16-12.5,23.7-22.5,23.7c-10,0-22.5-7.7-22.5-23.7C571.2,185.1,583.7,177.3,593.7,177.3z M653.6,230.5
	c13,0,20.3-10.8,21.4-15.1v14.2h6.7v-57.4H675v34.4c-1.4,7.8-9.3,17.8-20.2,17.8c-9.3,0-16.5-5.8-16.5-18.8v-33.4h-6.6v33.4
	C631.6,223.3,642.3,230.5,653.6,230.5z M743.3,151.6v32.9c-3.8-8.1-12.1-13.2-22.3-13.2c-12.9,0-28.9,10-28.9,29.8
	c0,19.7,16,29.7,28.9,29.7c10.1,0,18.5-5.2,22.3-13.3v12.2h6.7v-42.2v-35.7H743.3z M721.5,224.7c-10.3,0-22.8-7.7-22.8-23.6
	c0-16,12.6-23.7,22.8-23.7c10.7,0,22.1,7.5,22.1,23.7C743.6,217.2,732.2,224.7,721.5,224.7z"/>
</svg>
