<svg width="80" height="80" viewBox="0 0 80 80" xmlns="http://www.w3.org/2000/svg">
    <g fill="none" fill-rule="evenodd">
        <circle fill="#17191A" cx="40" cy="40" r="36.444"/>
        <path d="M64.037 64.043C57.617 70.463 49.08 74 40.001 74H40c-9.08 0-17.617-3.536-24.038-9.957-6.421-6.42-9.957-14.957-9.957-24.037 0-9.081 3.536-17.618 9.957-24.038 8.372-8.373 19.95-11.694 31.766-9.112a1.276 1.276 0 1 1-.545 2.494c-10.949-2.392-21.671.678-29.416 8.422-5.938 5.939-9.209 13.835-9.209 22.234 0 8.398 3.27 16.293 9.209 22.232S31.602 71.448 40 71.447c8.398 0 16.294-3.27 22.232-9.209 5.939-5.938 9.21-13.834 9.21-22.233 0-8.345-3.411-16.501-9.358-22.378a1.277 1.277 0 0 1 1.794-1.816c6.429 6.353 10.117 15.172 10.117 24.194 0 9.08-3.537 17.618-9.958 24.038M55.765 8.778a2.553 2.553 0 1 1 0 5.105 2.553 2.553 0 0 1 0-5.105M20.178 51.752a2.553 2.553 0 1 1-5.106 0 2.553 2.553 0 0 1 5.106 0m2.56 4.91c4.51 4.67 10.565 7.273 17.05 7.329 6.5.045 12.585-2.439 17.171-7.024a23.83 23.83 0 0 0 7.025-16.961 23.83 23.83 0 0 0-7.025-16.961c-9.352-9.352-24.57-9.352-33.922 0-5.764 5.764-8.194 13.973-6.502 21.959a1.276 1.276 0 1 1-2.497.529c-1.873-8.834.817-17.916 7.194-24.293 10.348-10.348 27.184-10.348 37.532 0 10.348 10.347 10.348 27.184 0 37.532-5.018 5.018-11.672 7.773-18.76 7.773l-.238-.001C32.59 66.48 25.89 63.6 20.9 58.434a1.276 1.276 0 1 1 1.836-1.773M40 52.157c4.024 0 7.78-1.989 10.05-5.318a2.979 2.979 0 0 1 4.922 3.354 18.108 18.108 0 0 1-14.972 7.92c-9.984 0-18.107-8.123-18.107-18.107 0-9.985 8.123-18.108 18.107-18.108 5.995 0 11.592 2.96 14.972 7.92a2.978 2.978 0 0 1-4.922 3.355 12.156 12.156 0 0 0-10.05-5.318c-6.7 0-12.15 5.45-12.15 12.15s5.45 12.152 12.15 12.152M40 0C17.908 0 0 17.908 0 40c0 22.091 17.908 40 40 40 22.091 0 40-17.909 40-40C80 17.908 62.091 0 40 0" fill="#FEFEFE"/>
    </g>
</svg>
