<svg width="40" height="40" viewBox="0 0 40 40" xmlns="http://www.w3.org/2000/svg">
    <g fill="none" fill-rule="evenodd">
        <path d="M20 0c11.046 0 20 8.954 20 20s-8.954 20-20 20C8.955 40 0 31.046 0 20S8.955 0 20 0" fill="#62688F"/>
        <path d="M28.398 6.854a1.17 1.17 0 1 1-2.34 0 1.17 1.17 0 0 1 2.34 0" fill="#FFF"/>
        <path d="M30.536 9.324A15.022 15.022 0 0 1 35 20c0 4.007-1.56 7.774-4.394 10.607A14.902 14.902 0 0 1 20 35c-4.007 0-7.774-1.56-10.607-4.393A14.902 14.902 0 0 1 5 20c0-4.007 1.56-7.774 4.393-10.607 3.638-3.637 8.779-5.165 14.025-4.019" stroke="#FFF" stroke-width="1.17" stroke-linecap="round"/>
        <path d="M25 20.213 20 29l-5-8.787 5 2.396 5-2.396zm-2.637 2.45L20 23.78l-2.362-1.118L20 26.816l2.363-4.153zM20 11l4.78 8.255L20 21.49l-4.78-2.236L20 11zm0 6.657-2.802 1.331L20 20.32l2.802-1.33L20 17.656zm0-4.527-2.692 4.686L20 16.538l2.692 1.278L20 13.13z" fill="#FFF"/>
    </g>
</svg>
